<svg width="43" height="43" viewBox="0 0 43 43" fill="none" xmlns="http://www.w3.org/2000/svg">
<g clip-path="url(#clip0_147_39)">
<path d="M22.8975 25.3102C25.1681 24.3697 26.2464 21.7666 25.3059 19.496C24.3653 17.2254 21.7622 16.1472 19.4916 17.0877C17.2211 18.0282 16.1428 20.6313 17.0833 22.9019C18.0238 25.1725 20.6269 26.2507 22.8975 25.3102Z" fill="#B2856C"/>
<path d="M31.6098 13.33C31.3981 12.7472 31.0561 12.2205 30.6098 11.79C30.1788 11.3492 29.6566 11.0079 29.0798 10.79C28.2851 10.4976 27.4465 10.3421 26.5998 10.33C25.1898 10.27 24.7698 10.26 21.1998 10.26C17.6298 10.26 17.1998 10.26 15.8098 10.33C14.963 10.3421 14.1245 10.4976 13.3298 10.79C12.7518 11.0055 12.2291 11.3471 11.7998 11.79C11.3535 12.2205 11.0115 12.7472 10.7998 13.33C10.5063 14.1244 10.3507 14.9632 10.3398 15.81C10.2698 17.21 10.2598 17.64 10.2598 21.2C10.2598 24.76 10.2598 25.2 10.3398 26.59C10.3507 27.4369 10.5063 28.2756 10.7998 29.07C11.0115 29.6528 11.3535 30.1796 11.7998 30.61C12.2318 31.0496 12.7537 31.3907 13.3298 31.61C14.1245 31.9024 14.963 32.058 15.8098 32.07C17.2198 32.13 17.6398 32.14 21.1998 32.14C24.7598 32.14 25.1998 32.14 26.5998 32.07C27.4465 32.058 28.2851 31.9024 29.0798 31.61C29.6546 31.3883 30.176 31.0475 30.6098 30.61C31.0561 30.1796 31.3981 29.6528 31.6098 29.07C31.9034 28.2756 32.0589 27.4369 32.0698 26.59C32.1298 25.19 32.1498 24.76 32.1498 21.2C32.1498 17.64 32.1498 17.2 32.0698 15.81C32.0589 14.9632 31.9034 14.1244 31.6098 13.33ZM21.1998 28.05C20.3002 28.05 19.4094 27.8728 18.5784 27.5286C17.7473 27.1844 16.9922 26.6798 16.3561 26.0437C15.72 25.4076 15.2155 24.6525 14.8712 23.8214C14.527 22.9903 14.3498 22.0996 14.3498 21.2C14.3498 19.3824 15.0711 17.639 16.3555 16.3528C17.6398 15.0666 19.3821 14.3427 21.1998 14.34C23.0192 14.34 24.764 15.0628 26.0505 16.3493C27.337 17.6358 28.0598 19.3806 28.0598 21.2C28.0598 22.1004 27.8823 22.992 27.5374 23.8237C27.1925 24.6554 26.6871 25.411 26.0499 26.0472C25.4128 26.6835 24.6565 27.1878 23.8242 27.5315C22.992 27.8751 22.1002 28.0513 21.1998 28.05ZM28.3298 15.68C27.9045 15.6774 27.4976 15.5066 27.1978 15.2049C26.898 14.9033 26.7298 14.4953 26.7298 14.07C26.7298 13.8599 26.7712 13.6519 26.8516 13.4577C26.932 13.2636 27.0499 13.0872 27.1984 12.9387C27.347 12.7901 27.5233 12.6722 27.7175 12.5918C27.9116 12.5114 28.1197 12.47 28.3298 12.47C28.5399 12.47 28.748 12.5114 28.9421 12.5918C29.1362 12.6722 29.3125 12.7901 29.4611 12.9387C29.6097 13.0872 29.7276 13.2636 29.808 13.4577C29.8884 13.6519 29.9297 13.8599 29.9297 14.07C29.9298 14.4953 29.7615 14.9033 29.4617 15.2049C29.162 15.5066 28.755 15.6774 28.3298 15.68Z" fill="#B2856C"/>
<path d="M21.2 0C15.5774 0 10.1851 2.23355 6.20935 6.20932C2.23358 10.1851 0 15.5774 0 21.2C0 26.8226 2.23358 32.2149 6.20935 36.1906C10.1851 40.1664 15.5774 42.4 21.2 42.4C26.8235 42.4 32.2169 40.1667 36.1942 36.1913C40.1716 32.2158 42.4074 26.8235 42.41 21.2C42.4074 15.5765 40.1716 10.1842 36.1942 6.20871C32.2169 2.23323 26.8235 -6.25023e-07 21.2 0ZM34.47 26.7C34.4503 27.8075 34.2406 28.9034 33.85 29.94C33.5065 30.8436 32.9669 31.6599 32.27 32.33C31.6052 33.0095 30.7997 33.5351 29.91 33.87C28.8721 34.2557 27.777 34.4652 26.67 34.49C25.24 34.55 24.79 34.57 21.16 34.57C17.53 34.57 17.08 34.57 15.66 34.49C14.553 34.4652 13.458 34.2557 12.42 33.87C11.5304 33.5351 10.7248 33.0095 10.06 32.33C9.37672 31.6644 8.85062 30.8547 8.52002 29.96C8.1295 28.9234 7.91979 27.8275 7.90002 26.72C7.83002 25.3 7.82001 24.84 7.82001 21.22C7.82001 17.6 7.82002 17.14 7.90002 15.72C7.9188 14.6124 8.12854 13.5163 8.52002 12.48C8.85062 11.5852 9.37672 10.7756 10.06 10.11C10.7248 9.4305 11.5304 8.90485 12.42 8.56998C13.458 8.18429 14.553 7.97475 15.66 7.94998C17.08 7.88998 17.54 7.87 21.16 7.87C24.78 7.87 25.24 7.86998 26.67 7.94998C27.777 7.97475 28.8721 8.18429 29.91 8.56998C30.7997 8.90485 31.6052 9.4305 32.27 10.11C32.95 10.7783 33.4755 11.5872 33.81 12.48C34.2015 13.5163 34.4112 14.6124 34.43 15.72C34.5 17.14 34.51 17.59 34.51 21.22C34.51 24.85 34.54 25.33 34.47 26.7Z" fill="#B2856C"/>
</g>
<defs>
<clipPath id="clip0_147_39">
<rect width="42.4" height="42.4" fill="white"/>
</clipPath>
</defs>
</svg>
