<svg width="73" height="38" viewBox="0 0 73 38" fill="none" xmlns="http://www.w3.org/2000/svg">
<g clip-path="url(#clip0_211_2085)">
<path d="M36.0299 37.06C35.8983 37.0608 35.7678 37.0355 35.646 36.9858C35.5242 36.936 35.4134 36.8627 35.3199 36.77L0.269897 1.71C0.176169 1.61704 0.101794 1.50645 0.0510254 1.38459C0.000256713 1.26273 -0.0258789 1.13202 -0.0258789 1.00001C-0.0258789 0.867996 0.000256713 0.737284 0.0510254 0.615425C0.101794 0.493566 0.176169 0.382979 0.269897 0.290016C0.45726 0.103765 0.710729 -0.000785828 0.974915 -0.000785828C1.2391 -0.000785828 1.49254 0.103765 1.6799 0.290016L36.0299 34.64L70.3799 0.290016C70.4731 0.197434 70.5837 0.124111 70.7053 0.0742569C70.8268 0.0244032 70.957 -0.00100598 71.0884 -0.000541687C71.2198 -7.73965e-05 71.3499 0.0262614 71.4711 0.076973C71.5923 0.127685 71.7023 0.201752 71.7949 0.294991C71.8875 0.388229 71.9608 0.498798 72.0107 0.620369C72.0605 0.74194 72.0859 0.872153 72.0854 1.00355C72.085 1.13494 72.0586 1.26496 72.0079 1.38618C71.9572 1.50739 71.8832 1.61742 71.7899 1.71L36.7899 36.77C36.6906 36.8689 36.5717 36.9458 36.4407 36.9958C36.3098 37.0457 36.1698 37.0676 36.0299 37.06Z" fill="#FFF4E6"/>
</g>
<defs>
<clipPath id="clip0_211_2085">
<rect width="72.11" height="37.06" fill="white"/>
</clipPath>
</defs>
</svg>
