<svg width="120" height="120" viewBox="0 0 120 120" fill="none" xmlns="http://www.w3.org/2000/svg">
<g clip-path="url(#clip0_140_122)">
<path d="M60.0041 120.008C93.1434 120.008 120.008 93.1434 120.008 60.0041C120.008 26.8647 93.1434 0 60.0041 0C26.8647 0 0 26.8647 0 60.0041C0 93.1434 26.8647 120.008 60.0041 120.008Z" fill="#D25037"/>
<path d="M48.7649 69.4972L50.9006 56.9507L41.8054 48.0828L54.3763 46.2556L59.9958 34.8866L65.6154 46.2556L78.1944 48.0828L69.0992 56.9507L71.2512 69.4728L60.004 63.5609L48.7649 69.4972ZM44.1117 48.8299L52.0538 56.5771L50.186 67.5076L60.004 62.3428L69.8219 67.5076L67.946 56.569L75.8719 48.8299L64.8926 47.2058L60.0202 37.2579L55.1478 47.2058L44.1117 48.8299Z" fill="#FFF4E5"/>
<path d="M43.4945 53.5318H42.4226V77.1631H43.4945V53.5318Z" fill="#FFF4E5"/>
<path d="M47.758 57.511H46.686V77.1631H47.758V57.511Z" fill="#FFF4E5"/>
<path d="M52.0133 71.8441H50.9414V77.1632H52.0133V71.8441Z" fill="#FFF4E5"/>
<path d="M56.2765 69.2779H55.2046V77.1631H56.2765V69.2779Z" fill="#FFF4E5"/>
<path d="M60.54 67.4183H59.468V77.155H60.54V67.4183Z" fill="#FFF4E5"/>
<path d="M64.7953 69.2779H63.7234V77.1631H64.7953V69.2779Z" fill="#FFF4E5"/>
<path d="M69.0588 71.8441H67.9868V77.1632H69.0588V71.8441Z" fill="#FFF4E5"/>
<path d="M73.3139 57.511H72.2419V77.1631H73.3139V57.511Z" fill="#FFF4E5"/>
<path d="M77.5773 53.5318H76.5054V77.1631H77.5773V53.5318Z" fill="#FFF4E5"/>
<path d="M40.8716 31.1511L33.3193 16.5338L36.8925 14.7229C37.362 14.4505 37.8822 14.2769 38.4212 14.2127C38.9602 14.1484 39.5067 14.1949 40.0271 14.3493C40.5364 14.5286 41.0049 14.8077 41.4051 15.1702C41.8053 15.5328 42.1291 15.9715 42.3577 16.4607L46.1826 23.8668C46.4477 24.3347 46.6172 24.8505 46.6814 25.3845C46.7455 25.9184 46.7029 26.4597 46.5561 26.9771C46.3843 27.4933 46.1082 27.9687 45.745 28.3738C45.3818 28.779 44.9392 29.1051 44.4447 29.3321L40.8716 31.1511ZM42.1384 27.1638L43.1129 26.6604C43.25 26.6005 43.3729 26.5125 43.4737 26.4019C43.5744 26.2914 43.6507 26.1608 43.6976 26.0188C43.7645 25.7435 43.7238 25.4531 43.5839 25.2067L39.7591 17.8088C39.6364 17.5434 39.4149 17.3365 39.1419 17.2322C38.999 17.1888 38.8486 17.1758 38.7003 17.194C38.5521 17.2122 38.4093 17.2612 38.2811 17.3378L37.3066 17.8412L42.1384 27.1638Z" fill="#FFF4E5"/>
<path d="M49.8045 26.904L46.7349 10.7437L50.7221 9.98848C51.2514 9.86002 51.8015 9.84205 52.338 9.93566C52.8745 10.0293 53.386 10.2325 53.8405 10.5326C54.2761 10.8503 54.6441 11.2517 54.923 11.7132C55.2018 12.1747 55.386 12.6871 55.4646 13.2205L55.9519 15.8029C56.0993 16.4964 56.077 17.2151 55.8869 17.8981C55.6925 18.519 55.3398 19.0787 54.8637 19.5222L54.4658 18.6208C55.0647 18.6976 55.6287 18.9458 56.0899 19.3354C56.5216 19.7275 56.8078 20.2542 56.902 20.8297L57.7628 25.3529L54.8556 25.9051L53.9948 21.3819C53.9742 21.239 53.9255 21.1016 53.8517 20.9776C53.7778 20.8535 53.6802 20.7453 53.5644 20.6591C53.4456 20.5819 53.3126 20.5292 53.1731 20.5041C53.0337 20.479 52.8906 20.482 52.7523 20.513L51.6723 20.716L52.7361 26.3193L49.8045 26.904ZM51.0957 17.8412L52.1757 17.6382C52.3241 17.6191 52.4667 17.5687 52.5941 17.4903C52.7215 17.4119 52.8308 17.3073 52.9147 17.1834C53.0626 16.9402 53.1092 16.6486 53.0447 16.3714L52.5574 13.7809C52.5132 13.4932 52.3589 13.234 52.127 13.0581C52.0031 12.9754 51.8631 12.9196 51.7162 12.8944C51.5693 12.8693 51.4188 12.8752 51.2743 12.912L50.1943 13.115L51.0957 17.8412Z" fill="#FFF4E5"/>
<path d="M62.83 25.6128L59.874 25.5072L60.4425 9.03836L63.3984 9.14393L62.83 25.6128Z" fill="#FFF4E5"/>
<path d="M67.0203 26.1894L67.9947 9.4769L70.9263 10.2159L69.7813 22.5675L69.3996 22.4701L74.1421 11.0198L77.0737 11.7588L70.1224 26.9689L67.0203 26.1894Z" fill="#FFF4E5"/>
<path d="M87.7689 17.086L86.3559 19.6765L82.9858 17.8412L81.4104 20.7241L84.2608 22.2833L82.8397 24.8819L79.9893 23.3227L77.9429 27.0745L81.3048 28.9179L79.8918 31.5165L73.9231 28.2682L81.8083 13.8296L87.7689 17.086Z" fill="#FFF4E5"/>
<path d="M19.2541 88.3616C18.9188 87.9471 18.6734 87.4674 18.5336 86.9529C18.3938 86.4384 18.3626 85.9004 18.4421 85.3732C18.539 84.8421 18.7422 84.336 19.0394 83.8853C19.3367 83.4346 19.7218 83.0485 20.1718 82.7502L20.8783 82.2305C21.494 81.7612 22.222 81.4616 22.9897 81.3616C23.6773 81.2746 24.3753 81.3933 24.9955 81.7026L26.7658 77.9427L27.4723 77.4311C27.8999 77.0821 28.3942 76.8239 28.925 76.6724C29.4557 76.5209 30.0118 76.4791 30.5592 76.5497C31.1067 76.6203 31.6339 76.8018 32.1089 77.0831C32.5838 77.3644 32.9964 77.7395 33.3214 78.1856C33.6465 78.6317 33.8771 79.1395 33.9993 79.6777C34.1216 80.216 34.1327 80.7735 34.0322 81.3162C33.9317 81.859 33.7216 82.3755 33.4147 82.8343C33.1078 83.2931 32.7106 83.6845 32.2473 83.9846L31.5408 84.5043L29.803 82.1249L30.5095 81.6133C30.755 81.4528 30.9272 81.2018 30.9886 80.9149C31.0074 80.7707 30.9962 80.624 30.9557 80.4843C30.9152 80.3445 30.8462 80.2147 30.7531 80.1029C30.6738 79.976 30.5683 79.8676 30.4436 79.785C30.319 79.7024 30.178 79.6474 30.0303 79.6237C29.7397 79.5974 29.4498 79.6815 29.2183 79.8592L28.5118 80.379L26.2542 85.2514L29.2589 83.6273L30.745 85.6655L24.4758 89.0925L23.1358 92.016L22.608 92.4058L20.9839 90.2294L21.2193 89.734C20.8385 89.6626 20.4747 89.5193 20.1474 89.3118C19.7931 89.0534 19.4902 88.7311 19.2541 88.3616ZM21.6904 86.6725C21.7762 86.8121 21.8953 86.9281 22.0371 87.0103C22.1788 87.0925 22.3387 87.1383 22.5024 87.1435L23.753 84.4637C23.5775 84.3857 23.3833 84.3595 23.1933 84.3883C23.0034 84.4171 22.8257 84.4996 22.6811 84.6261L21.9665 85.1458C21.8455 85.2251 21.7415 85.3277 21.6606 85.4476C21.5798 85.5675 21.5236 85.7023 21.4955 85.8442C21.467 85.9877 21.469 86.1355 21.5012 86.2781C21.5333 86.4208 21.595 86.5551 21.6822 86.6725H21.6904Z" fill="#FFF4E5"/>
<path d="M34.4563 102.216C33.9716 101.972 33.5446 101.628 33.2038 101.205C32.863 100.783 32.6163 100.293 32.4802 99.7683C32.3441 99.2431 32.3218 98.695 32.4147 98.1605C32.5076 97.626 32.7136 97.1176 33.0189 96.6692L33.4656 95.9058L36.0155 97.4162L35.5689 98.1715C35.4142 98.412 35.3589 98.7031 35.4146 98.9836C35.5137 99.2623 35.7085 99.4968 35.9642 99.6454C36.2199 99.7941 36.5201 99.8473 36.8113 99.7956C37.0881 99.706 37.3204 99.5144 37.461 99.2597L38.2731 97.7979C38.3539 97.6711 38.4245 97.5381 38.4842 97.4C38.5157 97.3079 38.5157 97.2079 38.4842 97.1158C38.4493 96.9981 38.3883 96.8898 38.3055 96.7991C38.2 96.6773 38.0538 96.5149 37.8508 96.3037C37.1362 95.5241 36.5948 94.8988 36.2266 94.4278C35.9223 94.0774 35.693 93.6684 35.5526 93.226C35.4737 92.8704 35.5166 92.4985 35.6744 92.1703C35.8979 91.6821 36.1501 91.2075 36.4297 90.7491L37.5422 88.857C37.795 88.3652 38.1456 87.9301 38.5725 87.5786C38.9994 87.2271 39.4936 86.9665 40.0249 86.8128C40.5561 86.6591 41.1131 86.6155 41.6618 86.6847C42.2104 86.7539 42.7391 86.9345 43.2155 87.2154C43.6919 87.4962 44.1059 87.8714 44.4321 88.3179C44.7584 88.7645 44.9899 89.273 45.1126 89.8122C45.2353 90.3514 45.2466 90.91 45.1457 91.4538C45.0448 91.9975 44.834 92.5149 44.526 92.9742L44.0875 93.7295L41.5376 92.2271L41.9761 91.4719C42.132 91.2319 42.1901 90.9413 42.1385 90.6598C42.0988 90.5162 42.03 90.3823 41.9364 90.2663C41.8428 90.1504 41.7264 90.0549 41.5944 89.9858C41.476 89.9077 41.343 89.8545 41.2034 89.8294C41.0638 89.8043 40.9206 89.8077 40.7824 89.8396C40.6435 89.8805 40.5143 89.949 40.4027 90.0411C40.291 90.1332 40.1992 90.247 40.1327 90.3756L39.0202 92.2677C38.9393 92.3945 38.8687 92.5276 38.809 92.6656C38.7775 92.7578 38.7775 92.8577 38.809 92.9498C38.8436 93.0695 38.9079 93.1784 38.9958 93.2666C39.1014 93.3965 39.2475 93.5589 39.4343 93.77C40.1571 94.5821 40.7012 95.1749 41.0585 95.6378C41.3632 95.9911 41.5925 96.4028 41.7325 96.8478C41.8114 97.2034 41.7685 97.5752 41.6107 97.9035C41.3837 98.39 41.1317 98.8643 40.8554 99.3246L40.0434 100.778C39.7884 101.252 39.4416 101.671 39.0234 102.01C38.6052 102.348 38.1238 102.601 37.6072 102.752C37.0735 102.886 36.5178 102.908 35.9753 102.815C35.4328 102.723 34.9155 102.519 34.4563 102.216Z" fill="#FFF4E5"/>
<path d="M55.018 92.1784L51.7697 104.498C51.6554 105.024 51.4361 105.522 51.125 105.961C50.8138 106.401 50.4172 106.773 49.9588 107.056C48.9903 107.537 47.8796 107.651 46.8338 107.374C45.7879 107.098 44.8783 106.451 44.2743 105.553C44.0145 105.081 43.8525 104.562 43.7981 104.026C43.7437 103.491 43.7979 102.949 43.9576 102.435L47.2059 90.1157L50.0644 90.8628L46.8161 103.182C46.7392 103.452 46.7652 103.742 46.8892 103.994C46.9674 104.122 47.0714 104.232 47.1944 104.317C47.3174 104.402 47.4568 104.461 47.6038 104.489C47.745 104.537 47.8945 104.554 48.0428 104.54C48.1911 104.526 48.3348 104.481 48.4646 104.408C48.5853 104.329 48.689 104.226 48.7698 104.106C48.8507 103.986 48.907 103.852 48.9356 103.71L52.1839 91.3907L55.018 92.1784Z" fill="#FFF4E5"/>
<path d="M56.829 108.745L56.3823 92.3083L60.4427 92.2027C60.9838 92.1498 61.53 92.2138 62.0442 92.3904C62.5584 92.5671 63.0286 92.8522 63.4229 93.2265C63.8172 93.6008 64.1265 94.0556 64.3297 94.5599C64.5328 95.0642 64.6252 95.6063 64.6005 96.1494L64.6736 98.7805C64.7058 99.4881 64.5665 100.193 64.2676 100.835C63.9782 101.433 63.5354 101.943 62.9845 102.313L62.7409 101.347C63.3253 101.519 63.8472 101.858 64.2432 102.321C64.6093 102.784 64.8096 103.355 64.8116 103.945L64.9334 108.55L61.9694 108.623L61.8476 104.027C61.8557 103.877 61.8324 103.728 61.7792 103.588C61.7261 103.448 61.6443 103.321 61.539 103.214C61.4312 103.113 61.3031 103.035 61.1632 102.986C61.0233 102.937 60.8746 102.918 60.7269 102.93H59.6306L59.7768 108.615L56.829 108.745ZM59.5575 99.9905H60.6538C60.8044 99.996 60.9544 99.9699 61.0942 99.914C61.2341 99.858 61.3607 99.7735 61.4659 99.6657C61.5613 99.5545 61.6334 99.4254 61.678 99.2859C61.7226 99.1465 61.7389 98.9995 61.7258 98.8536L61.6608 96.2225C61.6655 96.0734 61.6407 95.925 61.5878 95.7856C61.5348 95.6462 61.4547 95.5187 61.3522 95.4104C61.2431 95.3109 61.1147 95.2351 60.975 95.1876C60.8353 95.1401 60.6872 95.1219 60.5401 95.1343H59.4438L59.5575 99.9905Z" fill="#FFF4E5"/>
<path d="M72.2257 106.999L64.5029 92.1703L67.3939 91.2932L72.7698 102.467L72.3882 102.581L70.561 90.3269L73.4357 89.4336L75.3035 106.049L72.2257 106.999Z" fill="#FFF4E5"/>
<path d="M84.3986 101.866L81.8081 103.296L73.8579 88.8976L76.4484 87.4684L84.3986 101.866Z" fill="#FFF4E5"/>
<path d="M90.2538 97.7898L77.155 87.3709L79.4532 85.3976L88.8651 93.4452L88.5647 93.7051L81.9381 83.2374L84.2363 81.256L92.6656 95.7028L90.2538 97.7898Z" fill="#FFF4E5"/>
<path d="M88.2722 75.2791L90.7085 76.9845L88.4996 80.1272L91.1957 82.0112L93.0553 79.3557L95.4916 81.0611L93.6238 83.7166L97.1238 86.1528L99.3246 83.0101L101.761 84.7154L97.7978 90.2944L84.3418 80.8418L88.2722 75.2791Z" fill="#FFF4E5"/>
</g>
<defs>
<clipPath id="clip0_140_122">
<rect width="120" height="120" fill="white"/>
</clipPath>
</defs>
</svg>
