<svg width="120" height="120" viewBox="0 0 120 120" fill="none" xmlns="http://www.w3.org/2000/svg">
<g clip-path="url(#clip0_140_147)">
<path d="M60.0041 120.008C93.1434 120.008 120.008 93.1434 120.008 60.0041C120.008 26.8647 93.1434 0 60.0041 0C26.8647 0 0 26.8647 0 60.0041C0 93.1434 26.8647 120.008 60.0041 120.008Z" fill="#D25037"/>
<path d="M48.2776 52.265H47.23V58.1038H48.2776V52.265Z" fill="#FFF4E5"/>
<path d="M49.6828 78.6087H45.8579V57.5841H49.7071L49.6828 78.6087ZM46.8811 77.5611H48.6352V58.6317H46.8811V77.5611Z" fill="#FFF4E5"/>
<path d="M62.8624 78.6087H59.0132V57.5841H62.8624V78.6087ZM60.0607 77.5611H61.8148V58.6317H60.0607V77.5611Z" fill="#FFF4E5"/>
<path d="M75.4093 78.6087H71.5601V57.5841H75.4093V78.6087ZM72.6076 77.5611H74.3617V58.6317H72.6076V77.5611Z" fill="#FFF4E5"/>
<path d="M74.0041 52.265H72.9565V58.1038H74.0041V52.265Z" fill="#FFF4E5"/>
<path d="M73.4684 52.7929C72.2672 52.7907 71.1159 52.3126 70.2666 51.4633C69.4172 50.6139 68.9392 49.4626 68.937 48.2615V45.4679C68.937 44.2661 69.4144 43.1136 70.2642 42.2638C71.114 41.414 72.2666 40.9366 73.4684 40.9366C74.6702 40.9366 75.8227 41.414 76.6725 42.2638C77.5223 43.1136 77.9997 44.2661 77.9997 45.4679V48.2615C77.9976 49.4626 77.5195 50.6139 76.6702 51.4633C75.8208 52.3126 74.6695 52.7907 73.4684 52.7929ZM73.4684 41.9842C72.5451 41.9863 71.6602 42.354 71.0073 43.0069C70.3544 43.6598 69.9867 44.5446 69.9846 45.4679V48.2615C69.9846 48.719 70.0747 49.172 70.2498 49.5947C70.4248 50.0173 70.6815 50.4014 71.005 50.7249C71.3285 51.0484 71.7125 51.305 72.1352 51.4801C72.5578 51.6552 73.0109 51.7453 73.4684 51.7453C73.9259 51.7453 74.3789 51.6552 74.8016 51.4801C75.2242 51.305 75.6083 51.0484 75.9318 50.7249C76.2553 50.4014 76.5119 50.0173 76.687 49.5947C76.862 49.172 76.9522 48.719 76.9522 48.2615V45.4679C76.95 44.5446 76.5823 43.6598 75.9294 43.0069C75.2765 42.354 74.3917 41.9863 73.4684 41.9842Z" fill="#FFF4E5"/>
<path d="M47.7581 52.7929C46.8793 52.7929 46.0366 52.4438 45.4153 51.8224C44.7939 51.2011 44.4448 50.3583 44.4448 49.4796V41.2614H45.4924V49.4796C45.4924 49.7771 45.551 50.0717 45.6649 50.3466C45.7787 50.6215 45.9456 50.8713 46.156 51.0817C46.3664 51.2921 46.6161 51.459 46.891 51.5728C47.1659 51.6867 47.4605 51.7453 47.7581 51.7453C48.0556 51.7453 48.3502 51.6867 48.6251 51.5728C48.9 51.459 49.1498 51.2921 49.3602 51.0817C49.5705 50.8713 49.7374 50.6215 49.8513 50.3466C49.9652 50.0717 50.0238 49.7771 50.0238 49.4796V41.2614H51.0713V49.4796C51.0713 50.3583 50.7223 51.2011 50.1009 51.8224C49.4796 52.4438 48.6368 52.7929 47.7581 52.7929Z" fill="#FFF4E5"/>
<path d="M62.8626 58.6317H57.105V41.2939C57.105 39.9061 57.6557 38.5751 58.6362 37.593C59.6168 36.611 60.947 36.0582 62.3347 36.056H62.8626V58.6317ZM58.1526 57.5841H61.815V37.1442C60.8037 37.2709 59.8735 37.7624 59.1991 38.5265C58.5247 39.2907 58.1526 40.2747 58.1526 41.2939V57.5841Z" fill="#FFF4E5"/>
<path d="M48.2776 41.2614H47.23V49.4796H48.2776V41.2614Z" fill="#FFF4E5"/>
<path d="M50.5433 48.9518H44.9644V49.9993H50.5433V48.9518Z" fill="#FFF4E5"/>
<path d="M43.3646 29.7706L36.5757 14.796L42.7718 11.9862L43.9899 14.6823L40.498 16.3064L42.6662 21.1058L45.6222 19.7659L46.8403 22.4619L43.8843 23.8019L46.0607 28.5931L43.3646 29.7706Z" fill="#FFF4E5"/>
<path d="M54.5061 26.3599C53.9777 26.4839 53.429 26.4938 52.8965 26.389C52.3639 26.2841 51.8599 26.0669 51.418 25.7518C50.9761 25.4367 50.6065 25.0309 50.3338 24.5616C50.0611 24.0924 49.8916 23.5703 49.8367 23.0304L48.3425 14.0976C48.2341 13.3023 48.3569 12.4926 48.6962 11.7651C49.0354 11.0377 49.5769 10.4233 50.2558 9.99518C50.9348 9.56708 51.7226 9.34341 52.5252 9.35086C53.3278 9.35831 54.1113 9.59657 54.7822 10.0372C55.2104 10.3656 55.5688 10.776 55.8365 11.2445C56.1042 11.713 56.2759 12.2302 56.3414 12.7658L57.8356 21.6986C57.9457 22.2253 57.9499 22.7686 57.8482 23.2969C57.7464 23.8253 57.5406 24.3282 57.2428 24.7763C56.9194 25.2136 56.5096 25.5798 56.0389 25.8522C55.5681 26.1246 55.0464 26.2974 54.5061 26.3599ZM54.0189 23.4364C54.1664 23.4203 54.309 23.3737 54.4376 23.2996C54.5662 23.2255 54.6781 23.1256 54.766 23.006C54.9183 22.7646 54.9734 22.4744 54.9203 22.1939L53.4261 13.2611C53.39 12.9701 53.2413 12.7048 53.0119 12.5221C52.8949 12.4409 52.7625 12.3845 52.6228 12.3566C52.4831 12.3286 52.3391 12.3297 52.1998 12.3597C52.0509 12.3747 51.9067 12.4208 51.7767 12.4949C51.6466 12.5691 51.5335 12.6696 51.4446 12.7901C51.2912 13.0311 51.2387 13.3228 51.2985 13.6022L52.7845 22.535C52.8206 22.826 52.9693 23.0913 53.1987 23.274C53.3172 23.3555 53.451 23.4119 53.592 23.4399C53.7331 23.4678 53.8783 23.4666 54.0189 23.4364Z" fill="#FFF4E5"/>
<path d="M64.0889 26.0919C63.5472 26.0584 63.0184 25.9125 62.5361 25.6637C62.0538 25.4148 61.6285 25.0684 61.2873 24.6464C60.9601 24.2171 60.7238 23.7258 60.5926 23.2022C60.4613 22.6787 60.438 22.134 60.5239 21.6011L61.5471 12.6277C61.5871 12.0892 61.734 11.564 61.9795 11.0829C62.2249 10.6018 62.5638 10.1746 62.9764 9.82608C63.8727 9.21011 64.9617 8.93906 66.0422 9.06294C67.1227 9.18681 68.1221 9.69726 68.8558 10.5001C69.1784 10.9332 69.4114 11.4264 69.5411 11.9507C69.6708 12.475 69.6945 13.0199 69.611 13.5535L68.5878 22.4863C68.5468 23.0235 68.3993 23.5471 68.1539 24.0267C67.9086 24.5063 67.5702 24.9323 67.1586 25.2798C66.7313 25.6208 66.2377 25.8691 65.7092 26.0089C65.1807 26.1487 64.6289 26.177 64.0889 26.0919ZM64.43 23.1522C64.572 23.176 64.7175 23.1702 64.8572 23.1353C64.9969 23.1004 65.1279 23.037 65.2421 22.9492C65.352 22.8532 65.4417 22.7362 65.5058 22.6052C65.57 22.4741 65.6073 22.3315 65.6156 22.1858L66.6469 13.2124C66.6865 12.9268 66.6169 12.6368 66.452 12.4003C66.3572 12.2858 66.2398 12.192 66.107 12.1249C65.9743 12.0578 65.8291 12.0189 65.6806 12.0106C65.5385 11.9877 65.3933 11.9939 65.2537 12.0288C65.1141 12.0637 64.9831 12.1266 64.8685 12.2136C64.6493 12.4096 64.5153 12.6835 64.495 12.9769L63.4717 21.9097C63.4279 22.1955 63.4979 22.487 63.6666 22.7218C63.7544 22.8466 63.868 22.9511 63.9997 23.0282C64.1314 23.1053 64.2782 23.1531 64.43 23.1684V23.1522Z" fill="#FFF4E5"/>
<path d="M70.0088 26.7334L76.4079 11.5802L80.1435 13.2043C80.6543 13.3918 81.1216 13.6815 81.5168 14.0557C81.9119 14.4299 82.2266 14.8808 82.4416 15.3807C82.6288 15.8874 82.713 16.4263 82.6893 16.9659C82.6656 17.5056 82.5345 18.0351 82.3036 18.5234L79.0553 26.1975C78.8681 26.7018 78.5811 27.1632 78.2113 27.5539C77.8415 27.9446 77.3966 28.2567 76.9033 28.4713C76.3972 28.6717 75.8549 28.7645 75.311 28.7435C74.7671 28.7225 74.2335 28.5883 73.7443 28.3495L70.0088 26.7334ZM73.8824 25.158L74.8975 25.5803C75.0297 25.6482 75.175 25.687 75.3235 25.694C75.472 25.701 75.6202 25.6761 75.7583 25.6209C76.0226 25.4969 76.229 25.2759 76.3348 25.0037L79.5831 17.3296C79.7021 17.075 79.7195 16.7846 79.6319 16.5176C79.5734 16.3801 79.4869 16.2563 79.3778 16.1542C79.2687 16.0521 79.1395 15.974 78.9984 15.9248L77.9915 15.4944L73.8824 25.158Z" fill="#FFF4E5"/>
<path d="M11.2957 69.018L10.8247 66.0946L27.0662 63.4472L27.5453 66.3707L11.2957 69.018Z" fill="#FFF4E5"/>
<path d="M12.5059 74.3534L27.7485 68.1816L28.5606 70.2118L20.0906 77.691L19.7739 76.9601L29.6731 72.9566L30.7044 75.4984L15.4618 81.6702L14.6497 79.64L23.1197 72.1608L23.4445 72.8835L13.5453 76.8952L12.5059 74.3534Z" fill="#FFF4E5"/>
<path d="M19.0107 87.3953L29.8844 79.4207L28.4633 77.4717L30.8508 75.7258L35.4552 82.0031L33.0677 83.7491L31.6385 81.8082L20.7648 89.7827L19.0107 87.3953Z" fill="#FFF4E5"/>
<path d="M27.8461 97.5543C27.4119 97.227 27.05 96.8136 26.7831 96.3398C26.5161 95.8661 26.35 95.3423 26.2951 94.8014C26.2591 94.2646 26.3319 93.7261 26.5091 93.2182C26.6864 92.7102 26.9643 92.2433 27.3264 91.8454L33.1165 84.9022C33.4427 84.4725 33.8527 84.1135 34.3217 83.8469C34.7907 83.5803 35.309 83.4116 35.8451 83.3512C36.932 83.3273 37.991 83.6972 38.8267 84.3927C39.6624 85.0881 40.2185 86.0622 40.3926 87.1354C40.4238 87.6743 40.3472 88.214 40.1674 88.7229C39.9875 89.2319 39.708 89.6998 39.3451 90.0995L33.5631 97.0346C33.2347 97.4627 32.8243 97.8211 32.3558 98.0888C31.8873 98.3565 31.3701 98.5282 30.8346 98.5937C30.2917 98.636 29.7459 98.5655 29.2316 98.3866C28.7173 98.2077 28.2456 97.9243 27.8461 97.5543ZM29.7382 95.2805C29.846 95.3829 29.9738 95.4617 30.1136 95.512C30.2534 95.5623 30.4021 95.583 30.5503 95.5728C30.8409 95.5307 31.1034 95.3761 31.2812 95.1424L37.0632 88.2073C37.1631 88.098 37.2405 87.97 37.2906 87.8306C37.3408 87.6912 37.3629 87.5432 37.3555 87.3953C37.3409 87.2473 37.2949 87.1042 37.2207 86.9754C37.1465 86.8466 37.0457 86.735 36.9251 86.6482C36.8177 86.5454 36.6899 86.4663 36.55 86.4159C36.4102 86.3656 36.2613 86.3451 36.113 86.3558C35.8254 86.4 35.5662 86.5543 35.3903 86.7862L29.6164 93.7457C29.5155 93.8541 29.4382 93.9822 29.3893 94.1219C29.3404 94.2617 29.3209 94.4101 29.3322 94.5577C29.3461 94.7009 29.3893 94.8397 29.4592 94.9654C29.529 95.0912 29.624 95.2012 29.7382 95.2886V95.2805Z" fill="#FFF4E5"/>
<path d="M42.8286 105.789L47.0108 92.9661L44.7208 92.2189L45.6384 89.4092L53.0364 91.8454L52.1187 94.6633L49.8287 93.9162L45.6465 106.731L42.8286 105.789Z" fill="#FFF4E5"/>
<path d="M52.2002 108.274L53.3371 91.8698L56.293 92.0728L55.7246 100.275L57.4705 100.397L58.039 92.1946L60.995 92.3977L59.858 108.81L56.9021 108.599L57.2675 103.353L55.5135 103.231L55.1562 108.477L52.2002 108.274Z" fill="#FFF4E5"/>
<path d="M69.2535 90.9521L69.7976 93.8594L66.0296 94.574L66.6468 97.8223L69.8301 97.2132L70.3823 100.129L67.199 100.73L68.0111 104.928L71.7791 104.213L72.3313 107.121L65.6479 108.387L62.5864 92.2352L69.2535 90.9521Z" fill="#FFF4E5"/>
<path d="M84.6913 101.964L73.3223 89.9289L75.7585 88.1342L83.4569 96.5961L83.1727 96.8072L77.878 86.5751L79.7945 85.154L88.0208 93.226L87.7366 93.429L81.914 83.5866L84.3502 81.792L92.4709 96.2144L89.8967 98.1228L82.523 91.2689L82.9047 90.9846L87.2737 100.064L84.6913 101.964Z" fill="#FFF4E5"/>
<path d="M98.9754 88.7271L97.1401 91.0577L84.2119 80.8906L86.0391 78.5681L98.9754 88.7271Z" fill="#FFF4E5"/>
<path d="M88.5973 74.2884L100.551 80.5008L102.126 77.488L104.749 78.8523L101.81 84.5611L87.1924 76.9601L88.5973 74.2884Z" fill="#FFF4E5"/>
<path d="M106.317 74.7188L90.3105 70.9346L91.2445 66.9879C91.3407 66.4525 91.547 65.943 91.8503 65.4915C92.1537 65.04 92.5474 64.6564 93.0066 64.3649C93.4727 64.0916 93.9896 63.9161 94.5257 63.8491C95.0618 63.7821 95.606 63.8249 96.125 63.9751L104.246 65.8835C104.774 65.987 105.277 66.1947 105.725 66.4945C106.172 66.7942 106.555 67.18 106.852 67.6294C107.134 68.095 107.316 68.6142 107.386 69.1539C107.456 69.6936 107.412 70.242 107.259 70.764L106.317 74.7188ZM104.116 71.1538L104.368 70.09C104.411 69.9496 104.425 69.8014 104.406 69.6555C104.388 69.5095 104.339 69.3692 104.262 69.2438C104.185 69.1184 104.082 69.011 103.96 68.9286C103.839 68.8463 103.7 68.7909 103.555 68.7663L95.4347 66.8498C95.1613 66.7804 94.8719 66.8152 94.6227 66.9473C94.4972 67.0281 94.3899 67.134 94.3074 67.2584C94.2249 67.3828 94.1691 67.523 94.1435 67.67L93.8918 68.7338L104.116 71.1538Z" fill="#FFF4E5"/>
</g>
<defs>
<clipPath id="clip0_140_147">
<rect width="120" height="120" fill="white"/>
</clipPath>
</defs>
</svg>
