<svg width="120" height="120" viewBox="0 0 120 120" fill="none" xmlns="http://www.w3.org/2000/svg">
<g clip-path="url(#clip0_140_198)">
<path d="M60.0041 120.008C93.1434 120.008 120.008 93.1434 120.008 60.0041C120.008 26.8647 93.1434 0 60.0041 0C26.8647 0 0 26.8647 0 60.0041C0 93.1434 26.8647 120.008 60.0041 120.008Z" fill="#D25037"/>
<path d="M39.1015 75.2467L36.2998 72.3151L43.714 65.2582L44.4368 66.0215L37.794 72.3476L39.1339 73.7606L45.7848 67.4345L46.5076 68.1979L39.1015 75.2467Z" fill="#FFF4E5"/>
<path d="M46.8162 68.4334C46.1504 68.434 45.4998 68.2349 44.9483 67.862C44.3968 67.489 43.9697 66.9593 43.7223 66.3412C43.4749 65.7231 43.4185 65.045 43.5603 64.3945C43.7022 63.744 44.0358 63.151 44.5181 62.692C44.9121 62.317 45.392 62.0443 45.9158 61.8977C46.4396 61.751 46.9913 61.7349 47.5227 61.8508C48.0542 61.9667 48.5491 62.211 48.9643 62.5624C49.3795 62.9138 49.7023 63.3616 49.9044 63.8666C50.1066 64.3716 50.1819 64.9184 50.1239 65.4592C50.0658 66 49.8762 66.5184 49.5715 66.969C49.2668 67.4195 48.8563 67.7886 48.376 68.0439C47.8957 68.2992 47.3601 68.4329 46.8162 68.4334ZM46.8162 62.8301C46.2324 62.8272 45.6704 63.0515 45.2489 63.4554C44.9782 63.7132 44.7753 64.0337 44.658 64.3886C44.5407 64.7435 44.5128 65.1219 44.5766 65.4902C44.6404 65.8585 44.794 66.2054 45.0239 66.5002C45.2537 66.795 45.5527 67.0285 45.8943 67.1802C46.236 67.3319 46.6097 67.397 46.9825 67.3698C47.3553 67.3426 47.7157 67.2238 48.0317 67.0242C48.3477 66.8245 48.6095 66.55 48.7942 66.2249C48.9788 65.8999 49.0804 65.5344 49.09 65.1607C49.0998 64.8619 49.0495 64.5642 48.9421 64.2852C48.8347 64.0062 48.6724 63.7517 48.4647 63.5366C48.2551 63.3161 48.0032 63.14 47.7243 63.0187C47.4453 62.8973 47.1448 62.8332 46.8406 62.8301H46.8162Z" fill="#FFF4E5"/>
<path d="M74.2317 70.7478H73.176V39.4261L48.3834 62.96L47.6606 62.1966L74.2317 36.9737V70.7478Z" fill="#FFF4E5"/>
<path d="M65.2259 47.2464C64.901 47.2464 64.7061 47.2464 64.6655 47.2464L64.7386 46.1907C64.7792 46.1907 69.3512 46.4749 71.7387 43.9088C72.973 42.577 73.4278 40.6605 73.0948 38.3055L74.1343 38.1593C74.516 40.8797 73.9719 43.0317 72.5102 44.6559C70.2851 47.0028 66.6226 47.2464 65.2259 47.2464Z" fill="#FFF4E5"/>
<path d="M56.7722 55.3265C56.4555 55.3265 56.2525 55.3265 56.2119 55.3265L56.285 54.2789C56.3337 54.2789 60.9057 54.555 63.2932 51.9889C64.5275 50.6652 64.9823 48.7812 64.6412 46.3856L65.6888 46.2394C66.0705 48.968 65.5264 51.1118 64.0647 52.736C61.8315 55.0423 58.169 55.3265 56.7722 55.3265Z" fill="#FFF4E5"/>
<path d="M48.5457 63.1224C48.229 63.1224 48.026 63.1224 47.9854 63.1224L48.0585 62.0667C48.1072 62.0667 52.6791 62.351 55.0666 59.7848C56.301 58.4611 56.7557 56.5365 56.4147 54.1815L57.4623 54.0353C57.8439 56.7558 57.2917 58.9078 55.8381 60.5319C53.6293 62.8788 49.9424 63.1224 48.5457 63.1224Z" fill="#FFF4E5"/>
<path d="M73.7279 73.4114C73.3835 73.413 73.0463 73.3122 72.7593 73.1219C72.4723 72.9315 72.2483 72.6602 72.1158 72.3423C71.9832 72.0245 71.9481 71.6744 72.0149 71.3365C72.0817 70.9986 72.2474 70.6883 72.4909 70.4447C72.7344 70.2012 73.0448 70.0355 73.3827 69.9687C73.7205 69.9019 74.0707 69.937 74.3886 70.0696C74.7064 70.2021 74.9777 70.4261 75.1681 70.7131C75.3584 71.0001 75.4592 71.3373 75.4576 71.6817C75.4576 72.1404 75.2754 72.5804 74.951 72.9048C74.6266 73.2291 74.1866 73.4114 73.7279 73.4114ZM73.7279 70.829C73.5577 70.8209 73.3891 70.8639 73.2436 70.9525C73.0981 71.0411 72.9825 71.1713 72.9117 71.3262C72.8409 71.4812 72.8182 71.6537 72.8463 71.8217C72.8745 71.9897 72.9523 72.1454 73.0698 72.2687C73.1873 72.3921 73.339 72.4774 73.5054 72.5137C73.6718 72.5501 73.8453 72.5357 74.0035 72.4726C74.1617 72.4094 74.2973 72.3003 74.3929 72.1593C74.4885 72.0184 74.5397 71.852 74.5399 71.6817C74.5454 71.5717 74.5285 71.4617 74.4902 71.3584C74.4518 71.2551 74.3929 71.1608 74.3169 71.081C74.241 71.0012 74.1496 70.9378 74.0483 70.8944C73.947 70.8511 73.838 70.8288 73.7279 70.829Z" fill="#FFF4E5"/>
<path d="M75.4496 79.3314C74.8767 79.3314 74.3273 79.1038 73.9222 78.6987C73.5171 78.2936 73.2896 77.7442 73.2896 77.1713V72.9729H74.1666V77.1713C74.1923 77.495 74.339 77.7971 74.5776 78.0174C74.8161 78.2378 75.129 78.3602 75.4537 78.3602C75.7784 78.3602 76.0913 78.2378 76.3298 78.0174C76.5684 77.7971 76.7151 77.495 76.7409 77.1713V76.3592H77.6179V77.1713C77.6157 77.7449 77.3864 78.2943 76.98 78.6992C76.5736 79.1041 76.0233 79.3314 75.4496 79.3314Z" fill="#FFF4E5"/>
<path d="M29.4618 44.5547C29.2349 45.0479 28.9053 45.4871 28.4952 45.8428C28.085 46.1985 27.6037 46.4627 27.0833 46.6176C26.563 46.7725 26.0156 46.8146 25.4776 46.7411C24.9397 46.6676 24.4236 46.4801 23.9639 46.1913L16.0215 41.8717C15.3265 41.4704 14.762 40.8772 14.3956 40.1633C14.0291 39.4494 13.8762 38.645 13.9552 37.8464C14.0342 37.0478 14.3417 36.2889 14.8409 35.6606C15.3401 35.0323 16.0098 34.5612 16.7699 34.3037C17.2904 34.1615 17.8341 34.1244 18.3691 34.1947C18.9041 34.265 19.4197 34.4412 19.8859 34.7131L27.8283 39.0327C28.3118 39.2679 28.7431 39.5979 29.0965 40.0032C29.4499 40.4084 29.7182 40.8805 29.8855 41.3915C30.0375 41.9194 30.0784 42.4731 30.0054 43.0175C29.9325 43.562 29.7474 44.0854 29.4618 44.5547ZM26.8537 43.1473C26.9331 43.0202 26.9843 42.8775 27.0038 42.7288C27.0234 42.5802 27.0108 42.4291 26.9669 42.2858C26.8718 42.0107 26.6719 41.7843 26.4108 41.6558L18.4683 37.3362C18.2236 37.1984 17.9351 37.1605 17.6632 37.2304C17.5197 37.2733 17.387 37.3462 17.2738 37.4443C17.1607 37.5424 17.0697 37.6635 17.0069 37.7994C16.9311 37.9266 16.8821 38.0679 16.8628 38.2146C16.8436 38.3614 16.8544 38.5105 16.8948 38.6529C16.9931 38.9289 17.1956 39.1555 17.4589 39.284L25.4014 43.6036C25.6474 43.7375 25.9343 43.7752 26.2065 43.7093C26.3475 43.6657 26.4778 43.5931 26.5893 43.4964C26.7007 43.3996 26.7907 43.2807 26.8537 43.1473Z" fill="#FFF4E5"/>
<path d="M32.2144 39.314L20.5513 27.7157L22.0992 26.1581L32.2976 31.0116L31.7551 31.5874L24.1874 24.0408L26.0822 22.0865L37.7453 33.6848L36.1974 35.2424L26.0151 30.391L26.5576 29.8152L34.1253 37.3618L32.2144 39.314Z" fill="#FFF4E5"/>
<path d="M44.7012 29.6187L39.4526 17.2004L37.2247 18.1363L36.0753 15.4135L43.2399 12.3741L44.3963 15.106L42.1764 16.043L47.4331 28.4623L44.7012 29.6187Z" fill="#FFF4E5"/>
<path d="M50.4779 27.2898L48.0102 11.0351L50.934 10.6001L52.1684 18.7234L53.9055 18.4684L52.6721 10.337L55.596 9.90208L58.0637 26.1568L55.1399 26.5917L54.3485 21.3933L52.6183 21.6574L53.4097 26.8559L50.4779 27.2898Z" fill="#FFF4E5"/>
<path d="M68.9001 10.6341L68.5634 13.5712L64.7546 13.1364L64.3826 16.4047L67.6106 16.7714L67.2809 19.7176L64.0529 19.3509L63.569 23.5955L67.3858 24.0314L67.0491 26.9685L60.2941 26.204L62.1541 9.8626L68.9001 10.6341Z" fill="#FFF4E5"/>
<path d="M73.0563 28.8716L81.1758 14.5729L84.7059 16.5683C85.1948 16.805 85.6277 17.1434 85.9753 17.5609C86.323 17.9783 86.5775 18.4651 86.722 18.9889C86.8664 19.5126 86.8973 20.0611 86.8128 20.5977C86.7282 21.1344 86.53 21.6468 86.2315 22.1007L84.9319 24.3871C84.5954 25.0155 84.1086 25.5509 83.515 25.9455C82.9624 26.2988 82.3254 26.4979 81.6701 26.5222L81.95 25.5761C82.3623 26.0228 82.6363 26.5794 82.7387 27.1786C82.8183 27.7577 82.6947 28.3464 82.3888 28.8445L80.1175 32.8543L77.5367 31.4259L79.8081 27.4161C79.9451 27.1712 79.9829 26.883 79.9138 26.611C79.8693 26.4687 79.7969 26.3368 79.7007 26.2229C79.6046 26.109 79.4866 26.0154 79.3539 25.9477L78.4003 25.4129L75.5872 30.3671L73.0563 28.8716ZM79.9065 22.8014L80.859 23.3442C80.9812 23.4277 81.1202 23.4835 81.2662 23.5076C81.4123 23.5316 81.5618 23.5235 81.7044 23.4837C81.847 23.4439 81.9791 23.3734 82.0916 23.2772C82.204 23.1809 82.2941 23.0613 82.3554 22.9265L83.655 20.6401C83.792 20.3952 83.8298 20.107 83.7607 19.835C83.7205 19.692 83.6506 19.5591 83.5555 19.4449C83.4604 19.3308 83.3423 19.2381 83.2089 19.1727L82.2564 18.6299L79.9065 22.8014Z" fill="#FFF4E5"/>
<path d="M83.9722 37.0546C83.5744 36.6835 83.2575 36.2344 83.0412 35.7353C82.8249 35.2362 82.7139 34.6978 82.7152 34.1539C82.741 33.6166 82.8733 33.0899 83.1045 32.6042C83.3356 32.1186 83.6609 31.6837 84.0615 31.3248L90.5544 25.0438C90.9297 24.6398 91.3833 24.3164 91.8876 24.0935C92.392 23.8705 92.9364 23.7526 93.4878 23.7469C94.0392 23.7412 94.586 23.848 95.0948 24.0605C95.6036 24.2731 96.0638 24.5871 96.4472 24.9833C96.8307 25.3796 97.1294 25.8498 97.3252 26.3652C97.5211 26.8807 97.6098 27.4307 97.5861 27.9816C97.5624 28.5325 97.4267 29.0728 97.1873 29.5696C96.948 30.0663 96.61 30.5091 96.1939 30.871L89.7052 37.1197C89.3361 37.5117 88.892 37.8254 88.3992 38.042C87.9063 38.2587 87.3749 38.374 86.8366 38.381C86.2932 38.3709 85.7579 38.2477 85.2648 38.0194C84.7716 37.791 84.3314 37.4624 83.9722 37.0546ZM86.0933 34.999C86.189 35.1108 86.3068 35.2016 86.4394 35.2655C86.572 35.3295 86.7165 35.3652 86.8636 35.3704C87.1551 35.3589 87.4304 35.2333 87.6302 35.0207L94.1232 28.7397C94.2336 28.6428 94.3233 28.5246 94.3871 28.3923C94.4509 28.26 94.4875 28.1162 94.4946 27.9695C94.4969 27.8205 94.4672 27.6728 94.4074 27.5363C94.3476 27.3999 94.2591 27.2779 94.1481 27.1786C94.0523 27.0665 93.9347 26.9751 93.8024 26.9099C93.6702 26.8446 93.5261 26.8069 93.3789 26.7991C93.0858 26.8133 92.8091 26.9379 92.6041 27.1478L86.1192 33.4298C86.0075 33.5259 85.9163 33.6436 85.8511 33.7757C85.7859 33.9079 85.748 34.0519 85.7397 34.199C85.7389 34.3508 85.7698 34.5011 85.8305 34.6403C85.8912 34.7794 85.9804 34.9044 86.0923 35.007L86.0933 34.999Z" fill="#FFF4E5"/>
<path d="M87.7159 40.0599L102.797 33.5182L104.412 37.2365C104.662 37.7187 104.806 38.249 104.834 38.7916C104.862 39.3342 104.774 39.8765 104.574 40.3819C104.375 40.8874 104.069 41.3442 103.679 41.7216C103.288 42.099 102.821 42.3882 102.308 42.5697L94.6644 45.8897C94.1783 46.1217 93.6504 46.2532 93.1123 46.2763C92.5742 46.2995 92.0369 46.2138 91.5327 46.0244C91.0291 45.8201 90.5733 45.5136 90.1942 45.1241C89.8151 44.7347 89.5209 44.2709 89.3301 43.762L87.7159 40.0599ZM91.6105 41.5993L92.044 42.6049C92.0941 42.7448 92.1731 42.8727 92.2757 42.9803C92.3783 43.0879 92.5024 43.1728 92.6398 43.2295C92.9052 43.3189 93.1944 43.3065 93.4511 43.1946L101.095 39.8745C101.231 39.8237 101.356 39.7463 101.462 39.6469C101.568 39.5474 101.653 39.4279 101.712 39.2953C101.767 39.1574 101.792 39.0095 101.785 38.8613C101.779 38.7132 101.742 38.568 101.675 38.4353L101.242 37.4298L91.6105 41.5993Z" fill="#FFF4E5"/>
<path d="M33.0107 100.803L43.4378 87.712L46.2638 89.2062L41.2858 105.172L38.6141 103.759L39.483 101.322L37.2335 100.137L35.6825 102.224L33.0107 100.803ZM38.9957 97.7167L40.4737 98.5288L42.8125 91.9266L43.1617 92.1134L38.9957 97.7167Z" fill="#FFF4E5"/>
<path d="M48.8057 107.738C48.2712 107.639 47.7626 107.432 47.3114 107.129C46.8602 106.826 46.4761 106.433 46.1827 105.975C45.9096 105.511 45.7329 104.996 45.6632 104.462C45.5934 103.927 45.632 103.384 45.7767 102.865L47.8394 94.0624C47.9393 93.5314 48.1455 93.0261 48.4455 92.5768C48.7455 92.1274 49.1332 91.7433 49.5853 91.4475C50.5459 90.9387 51.6583 90.7949 52.7167 91.0427C53.7751 91.2905 54.708 91.9132 55.3429 92.7956C55.6132 93.2628 55.7876 93.7792 55.8559 94.3147C55.9242 94.8501 55.8851 95.3938 55.7409 95.9139L55.5378 96.726L52.655 96.052L52.858 95.1993C52.929 94.926 52.8942 94.636 52.7605 94.3872C52.5845 94.1463 52.3282 93.9762 52.0378 93.9077C51.7474 93.8392 51.4421 93.8768 51.177 94.0137C50.9378 94.1832 50.7745 94.4397 50.7222 94.7283L48.6596 103.523C48.5886 103.796 48.6234 104.086 48.757 104.335C48.8379 104.461 48.9438 104.568 49.0682 104.65C49.1926 104.733 49.3327 104.789 49.4798 104.814C49.6231 104.857 49.774 104.87 49.9224 104.85C50.0708 104.83 50.2134 104.779 50.3406 104.701C50.4597 104.619 50.5613 104.515 50.6395 104.393C50.7176 104.272 50.7706 104.136 50.7953 103.994L51.1526 102.484L49.8046 102.167L50.4786 99.284L54.7095 100.275L53.6782 104.668C53.5797 105.199 53.3749 105.704 53.0763 106.153C52.7777 106.602 52.3913 106.987 51.9404 107.283C51.4778 107.572 50.9603 107.761 50.4208 107.839C49.8812 107.918 49.3313 107.883 48.8057 107.738Z" fill="#FFF4E5"/>
<path d="M56.9834 108.785L59.5496 92.2515L62.7491 92.1378L66.3466 108.477L63.3176 108.574L62.8628 106.024L60.321 106.114L60.0124 108.688L56.9834 108.785ZM60.6621 103.101L62.2862 103.052L61.0438 96.1575H61.4417L60.6621 103.101Z" fill="#FFF4E5"/>
<path d="M73.119 106.901L70.2443 107.608L66.3301 91.6343L69.2048 90.9278L73.119 106.901Z" fill="#FFF4E5"/>
<path d="M78.3732 105.277L71.0239 90.5624L72.981 89.5879L81.1018 97.4406L80.4034 97.8142L75.6284 88.2642L78.0646 87.038L85.3733 101.745L83.4162 102.727L75.2954 94.8745L75.9938 94.5009L80.8257 104.051L78.3732 105.277Z" fill="#FFF4E5"/>
</g>
<defs>
<clipPath id="clip0_140_198">
<rect width="120" height="120" fill="white"/>
</clipPath>
</defs>
</svg>
