<svg width="314" height="308" viewBox="0 0 314 308" fill="none" xmlns="http://www.w3.org/2000/svg">
<g clip-path="url(#clip0_19_273)">
<path d="M136.64 32.099C137.067 31.2879 137.758 30.6461 138.6 30.2795C137.709 29.2132 137.836 28.2739 138.108 26.3021C138.176 25.7943 138.261 25.2019 138.32 24.5334C138.514 22.1263 138.545 19.709 138.413 17.2978C138.15 10.0283 137.972 5.09455 148.508 2.66575C150.527 2.20876 152.419 1.81948 154.294 1.38788L160.071 0.186179L160.996 0L161.437 0.84627C162.433 2.66792 163.088 4.65518 163.371 6.71092C163.727 8.77582 163.982 10.2737 167.927 12.9479C168.045 12.5502 168.206 12.1694 169.98 11.3739C170.749 10.97 171.585 10.709 172.448 10.6038L173.296 10.4684L173.958 10.3499L174.425 10.8407C177.267 13.8111 177.36 14.759 177.521 16.3838C177.611 17.5953 177.898 18.7842 178.369 19.9043C178.911 20.0273 179.474 20.0273 180.015 19.9043C180.999 19.6927 181.788 19.515 183.807 20.649C186.454 22.1384 186.471 22.7731 186.53 24.8803C186.53 25.2188 186.53 25.6081 186.59 26.0736H186.87C189.779 25.5743 191.111 25.3543 192.274 25.6081C193.359 25.9158 194.36 26.4656 195.2 27.216C195.837 27.6815 196.642 28.2739 197.813 29.0355L198.772 29.6618L198.237 30.6773C197.084 32.8437 196.914 32.6745 196.99 32.7507C197.568 33.295 197.939 34.0213 198.042 34.8071C198.135 35.281 198.212 35.611 198.263 35.8311C198.37 36.1474 198.388 36.4871 198.314 36.8128C198 38.0314 197.525 37.9129 196.753 37.7352C196.668 37.7352 196.829 37.7352 196.965 37.9637L201.461 39.0808C205.151 39.0808 205.592 37.8537 206.118 36.3812C206.318 35.7841 206.559 35.2016 206.839 34.6378C208.358 31.7182 208.587 31.7521 210.784 32.1498L211.785 32.3191L212.074 32.8861C212.112 32.9845 212.166 33.076 212.235 33.1569C212.402 33.3348 212.511 33.559 212.549 33.8C212.571 33.9799 212.571 34.1618 212.549 34.3416C212.535 34.601 212.535 34.8609 212.549 35.1202C212.498 37.8706 212.09 38.5899 211.836 39.0384C211.836 39.0808 211.836 39.0977 212.167 40.4348V40.5533L212.43 44.1668L212.862 44.1076C213.344 44.0118 213.84 44.0118 214.322 44.1076C214.956 44.2981 215.537 44.6343 216.018 45.0893L216.773 45.6478C217.087 45.8678 217.622 46.2148 218.19 46.5956C220.574 48.1612 223.933 50.3531 225.545 53.6535C226.296 53.375 227.06 53.1349 227.835 52.9342C228.791 52.6457 229.792 52.5366 230.788 52.6126C231.817 52.8938 232.782 53.3708 233.63 54.0174C234.618 54.7371 235.707 55.3074 236.862 55.71C238.745 54.8637 246.261 52.0456 249.722 59.4843L252.776 64.8412C252.988 63.8934 253.888 63.5633 256.763 64.1811C259.071 64.672 259.605 65.1882 259.487 66.0429C261.327 67.3123 263.075 66.6184 264.509 66.0429C265.79 65.5352 266.909 65.0866 268.089 65.5182C268.95 65.8484 269.653 66.4928 270.057 67.3208C270.6 68.1671 271.27 69.2249 275.011 69.3264C277.284 69.3175 279.528 69.8422 281.56 70.8582C282.568 71.3262 283.602 71.7359 284.656 72.0853L286.082 72.5507L285.394 73.8625C285.038 74.5479 284.775 75.1996 284.546 75.8258C284.065 77.2513 283.317 78.5725 282.34 79.7187C281.263 80.9034 280.423 81.7243 279.795 82.3759C278.022 84.1193 277.649 84.4832 276.512 88.9938C276.216 90.1532 276.046 91.1179 275.885 92.0065C275.704 93.2465 275.42 94.4694 275.036 95.6624C274.619 96.6187 274.09 97.5221 273.458 98.3535C272.94 99.0639 272.552 99.8605 272.313 100.706C272.096 101.513 272.132 102.366 272.415 103.152C272.765 104.116 272.856 105.155 272.678 106.165C272.427 107.554 272.047 108.917 271.541 110.235C270.795 112.3 270.269 113.756 272.152 116.675L272.636 117.428L272.084 118.131C271.719 118.613 271.346 119.197 270.964 119.823C269.268 122.523 267.334 125.51 263.16 124.427C262.515 124.325 261.908 124.06 261.396 123.657C260.883 123.254 260.483 122.726 260.233 122.125C259.887 122.346 259.527 122.544 259.156 122.718L257.688 124.41L261.081 125.629C258.664 128.472 256.22 131.299 253.837 134.159C253.486 134.499 253.181 134.883 252.929 135.302C252.763 135.595 252.579 135.878 252.378 136.148C251.379 137.497 250.008 138.526 248.433 139.11C248.077 139.279 247.703 139.457 247.313 139.66C246.829 146.515 245.396 147.192 243.479 148.123C242.562 148.554 241.485 149.062 240.306 151.508C239.067 154.047 239.22 154.36 239.458 154.808C239.938 155.616 240.198 156.535 240.213 157.474C240.207 157.916 240.15 158.356 240.043 158.786C239.944 159.286 239.8 159.776 239.61 160.25C238.55 162.222 237.591 162.34 236.896 162.425C238.278 162.949 239.076 162.222 239.907 161.451L240.476 160.944C240.454 160.527 240.412 160.112 240.348 159.7C240.009 157.389 239.839 156.23 244.514 154.148C245.502 153.705 246.53 153.356 247.585 153.107C248.747 152.811 249.96 152.771 251.139 152.989C251.797 153.109 252.415 153.389 252.938 153.806C253.46 154.222 253.871 154.762 254.134 155.375C254.276 155.687 254.384 156.013 254.456 156.348L254.634 157.195V157.271C254.736 157.677 254.634 157.085 254.727 157.669C254.727 157.669 254.727 157.736 254.778 157.846C254.829 157.956 254.838 158.058 254.855 158.134C255.334 159.511 255.295 161.015 254.744 162.365C254.693 162.552 254.626 162.755 254.566 162.983L254.778 163.212C255.008 163.44 255.226 163.68 255.432 163.931L256.348 165.099L256.662 165.48C260.377 169.821 260.369 171.514 258.748 172.893C258.264 173.293 257.738 173.639 257.179 173.925C256.338 174.308 255.556 174.806 254.855 175.406C254.855 175.72 254.94 176.033 254.973 176.253C255.007 176.473 254.973 176.507 254.973 176.591C255.438 176.828 255.864 177.133 256.237 177.497C257.474 178.522 258.423 179.848 258.995 181.347C259.461 182.43 260.021 183.742 262.507 186.425L263.092 187.06L262.71 187.83C262.403 188.539 262.137 189.265 261.913 190.005C261.678 190.857 261.353 191.682 260.946 192.467C260.144 193.547 259.078 194.404 257.849 194.955C256.526 195.65 255.09 196.106 253.608 196.301C253.06 196.346 252.51 196.346 251.962 196.301C251.86 196.301 251.877 196.301 251.835 196.301C251.646 196.405 251.467 196.527 251.3 196.665L253.633 201.793L259.011 203.13L260.844 209.291L259.86 209.757C258.163 210.603 257.238 211.449 256.857 212.482C256.514 213.928 256.514 215.435 256.857 216.882C257.12 218.668 257.357 219.616 257.866 220.267C258.375 220.919 259.436 221.427 261.26 222.29C266.205 224.659 266.299 224.634 271.49 223.424L273.509 222.95L273.671 224.363C273.738 224.942 273.878 225.511 274.086 226.056C274.485 227.181 274.706 227.799 273.738 229.805C273.224 230.915 272.534 231.935 271.694 232.826C270.882 233.652 270.32 234.691 270.074 235.822C269.565 237.641 269.225 237.878 268.055 238.657L267.52 239.021L266.672 239.604C262.125 242.465 262.048 242.651 261.998 242.795C261.836 243.21 261.709 243.548 260.123 244.547L256.322 248.033L256.229 248.101C254.71 249.125 254.015 249.032 253.463 248.947C252.95 249.518 252.479 250.127 252.055 250.767C252.454 251.249 252.428 252.299 252.157 254.38L252.055 255.184L251.283 255.421L249.748 255.895C248.325 256.294 246.931 256.786 245.574 257.368C244.609 257.738 243.579 257.911 242.545 257.875C242.181 257.875 241.799 257.875 241.4 257.935C241.407 257.974 241.407 258.014 241.4 258.053C241.853 258.259 242.292 258.494 242.715 258.756L246.38 261.007L242.07 261.083C240.204 261.083 240.153 261.083 239.525 260.482C239.361 260.326 239.178 260.19 238.982 260.076C238.066 259.509 237.371 259.043 236.853 258.646C236.576 258.539 236.278 258.5 235.983 258.531C235.688 258.562 235.405 258.662 235.156 258.823C234.534 259.171 233.877 259.455 233.197 259.67L232.349 259.915L231.823 259.213C231.234 258.355 230.526 257.585 229.719 256.928C228.89 256.357 227.956 255.957 226.97 255.751L226.122 255.514L225.452 255.328C225.002 255.201 224.552 255.1 224.103 254.998C223.399 254.837 222.72 254.685 221.956 254.44L221.168 254.177L220.896 251.114L215.509 251.469L215.102 251.038C213.813 249.692 213.516 248.829 213.541 248.253C213.445 248.247 213.353 248.212 213.278 248.152C213.338 248.512 213.315 248.882 213.21 249.232C213.106 249.583 212.923 249.905 212.676 250.174L212.353 250.657L211.768 250.716L211.013 250.809C209.316 251.021 207.493 251.249 205.821 250.386C202.962 248.905 202.691 248.693 204.023 247.805C196.804 247.695 195.633 246.324 194.751 245.266C194.522 244.995 194.335 244.775 193.461 244.758C192.927 244.758 191.137 246.07 189.041 247.627C186.25 249.692 182.967 252.121 180.134 252.908C178.304 253.47 176.721 254.637 175.646 256.217C174.388 258.001 173.654 260.099 173.525 262.276C172.949 270.993 173.398 271.483 174.17 272.321C175.26 273.49 176.011 274.932 176.342 276.493L176.792 278.076H175.095C173.847 278.114 172.602 277.94 171.413 277.56C170.446 277.272 169.716 277.06 167.443 277.864L166.595 278.194L165.967 278.457C164.974 278.948 164.923 279.066 164.89 279.151C164.601 279.853 164.431 280.242 162.065 280.716C159.698 281.19 158.917 280.555 157.823 279.718C157.104 279.122 156.256 278.702 155.346 278.491C154.837 278.3 154.285 278.251 153.75 278.349C153.215 278.448 152.716 278.69 152.309 279.049C151.584 279.61 150.777 280.058 149.917 280.378L149.289 280.598L148.754 280.209C147.863 279.596 147.101 278.814 146.515 277.907C146.065 277.255 145.777 276.832 142.892 276.333L141.9 276.163L141.84 275.165C141.78 274.301 141.834 273.433 142.002 272.584C141.765 272.65 141.512 272.629 141.289 272.524L140.729 272.313C139.228 271.754 138.744 272 137.293 272.727L136.869 272.939L135.503 273.616L135.088 272.16C134.961 271.703 134.85 271.314 134.765 270.933C134.681 270.553 134.604 270.256 134.604 270.256C134.604 270.256 134.256 270.146 133.51 269.935L133.026 269.791C131.61 269.385 130.193 268.843 128.734 268.285C126.345 267.251 123.842 266.504 121.277 266.059L121.209 270.4H120.004C119.156 270.4 118.41 270.4 117.646 270.4C116.883 270.4 116.119 270.4 115.271 270.341H114.915H114.66H114.355H114.083H104.862C102.834 270.231 102.028 269.207 101.197 268.149C100.827 267.555 100.273 267.098 99.6192 266.846C98.3612 266.477 97.0251 266.462 95.7593 266.804C93.7996 267.235 92.366 267.548 89.4647 264.586C87.6747 262.75 86.0714 262.361 84.1202 261.878C82.5867 261.539 81.0854 261.069 79.6326 260.473L76.8416 259.627C76.3411 260.761 75.7557 260.609 73.6264 259.627C71.3614 258.629 71.8365 257.622 72.7187 255.743C73.0938 254.974 73.3785 254.165 73.567 253.331C72.7272 253.174 71.8762 253.083 71.0221 253.06C68.5958 252.933 67.0519 252.857 65.2959 249.607L64.8293 248.761L65.5588 248.101C66.3783 247.324 67.3327 246.701 68.3753 246.265C69.1473 245.918 69.7326 245.655 71.0815 243.37C72.1239 241.723 72.7821 239.864 73.0072 237.929C73.1259 237.269 73.2616 236.541 73.355 236.05C73.4483 235.559 73.8046 233.875 74.1269 232.327C75.0855 227.672 76.0357 223.068 76.621 218.219C77.113 214.14 77.3251 209.663 77.5542 205.043C77.9359 197.079 78.3347 188.718 80.1501 181.347L80.5573 179.655C80.1006 179.445 79.6335 179.258 79.1575 179.096L77.5202 178.614L77.1215 178.504L77.1979 177.471C77.2587 176.544 77.415 175.625 77.6645 174.729C77.8087 174.205 77.8341 174.112 76.8162 172.69C76.4086 172.096 75.9608 171.53 75.4758 170.997C74.6275 170.083 74.6275 170.058 73.8555 166.901L73.355 164.803L75.4249 165.395C77.2901 165.807 78.9402 166.884 80.0652 168.425C80.15 168.552 80.2264 168.687 80.3028 168.814L80.7608 167.595C80.7015 165.962 80.43 165.691 79.9804 165.243C79.2591 164.56 78.6494 163.769 78.1735 162.899L77.8172 162.272L79.3272 159.733C78.2413 159.818 77.0113 159.911 74.4239 158.43H74.3645L73.4568 157.838L73.1429 157.601L73.0072 157.491C72.863 157.389 72.7866 157.322 72.7102 157.262L72.6423 157.203L67.3658 154.529L67.2979 154.487C66.5345 154.074 65.8667 153.506 65.3376 152.819C64.8086 152.133 64.4302 151.343 64.2269 150.501C63.9181 149.419 63.3961 148.409 62.6915 147.53C62.1316 146.819 61.4614 146.142 60.8167 145.474C59.6169 144.428 58.6391 143.153 57.9409 141.725L57.8306 141.437V141.141C58.1529 138.416 59.0013 137.756 59.7732 137.189C60.121 136.918 60.4349 136.681 60.4095 134.853C59.5506 134.364 58.6012 134.053 57.6185 133.939L56.5157 133.736L54.2761 133.288L55.8879 131.595C56.2721 131.226 56.6294 130.83 56.9568 130.41C56.9568 130.41 56.9568 130.292 56.9568 130.131C56.9568 129.97 56.9568 129.809 56.9568 129.615C56.6853 129.666 56.3799 129.708 56.0151 129.742C54.7119 129.88 53.3943 129.706 52.1722 129.234C51.475 128.955 50.851 128.521 50.3483 127.965C49.8151 127.366 49.4881 126.613 49.4152 125.815C49.3563 124.998 49.499 124.178 49.8309 123.428C49.9756 123.065 50.1546 122.717 50.3653 122.388V122.176C50.3687 121.904 50.3197 121.634 50.2211 121.381C49.6866 121.431 49.1267 121.499 48.5753 121.575C46.7259 121.829 44.9445 122.066 43.5447 121.431C42.6882 121.123 41.9676 120.524 41.5088 119.739C41.4494 119.646 41.4154 119.586 39.4388 119.536L38.2597 124.461L36.6563 121.981C36.0815 121.063 35.7596 120.009 35.7232 118.926C35.7298 118.459 35.6229 117.997 35.4116 117.58C35.2004 117.163 34.891 116.803 34.5101 116.531L23.6175 112.342C22.8504 112.299 22.0994 112.105 21.4079 111.771C20.7163 111.437 20.0978 110.969 19.588 110.396C19.308 110.1 19.0959 109.88 18.1034 110.049C17.1624 110.204 16.2623 110.547 15.4566 111.056C14.1841 111.801 13.1576 112.393 9.95096 111.902L8.56818 111.674L8.94145 110.328C9.97641 106.605 7.45685 106.012 5.47177 105.547C3.97871 105.191 2.6638 104.887 2.07846 103.795C1.99155 103.737 1.90932 103.671 1.83246 103.6L0.542986 102.373L2.12935 101.527C3.28683 101.013 4.51258 100.668 5.76871 100.503L5.34455 98.9882C4.80162 97.0672 4.53862 96.8472 4.42834 96.7541C4.26219 96.6508 4.12464 96.5076 4.02831 96.3376C3.93197 96.1675 3.87992 95.9761 3.87691 95.7809C3.85508 95.4285 3.93142 95.077 4.09748 94.7653C4.09748 94.6722 4.19083 94.5453 4.24173 94.4014C3.54611 94.4014 2.86743 94.3507 2.63838 94.3168L2.00214 94.2237H1.86637H1.46769L0.076416 91.8457C0.076416 89.0361 0.526053 87.2843 1.63736 85.9218C2.74867 84.5593 4.53017 83.62 7.21088 82.4521C8.88556 81.7473 10.6547 81.2911 12.462 81.0981C14.1901 80.9566 15.8692 80.4549 17.3908 79.6256L17.9846 79.2786L18.5954 79.6002C19.3973 80.0185 20.1275 80.5612 20.7586 81.2081C22.8286 78.8724 23.5836 79.1516 26.3067 80.2857C26.4235 79.0267 26.7989 77.8053 27.4096 76.6975L27.7234 76.1558L35.1293 75.1319L41.2033 77.6707L41.3985 77.8907C42.511 79.1574 43.5477 80.4883 44.5033 81.8766C45.376 83.1485 46.3251 84.3665 47.3453 85.5241C47.6142 85.3061 47.8692 85.0715 48.1087 84.8217C48.6707 84.2488 49.281 83.725 49.9326 83.2561C50.6545 82.706 51.4479 82.2562 52.291 81.919C52.8971 81.7008 53.4454 81.3477 53.8943 80.8865L54.7935 79.981L55.6928 80.8865C56.1933 81.3858 56.5411 81.7835 56.8635 82.1221C57.133 82.4523 57.4342 82.7556 57.7627 83.0276C58.6049 82.7424 59.404 82.3438 60.138 81.8428L60.2483 81.7835L61.2154 81.4281L61.3002 81.3773C61.3861 81.3351 61.4637 81.2778 61.5293 81.2081C62.0298 80.6749 62.2928 80.3618 64.0743 80.5734C64.7868 80.6495 65.1686 80.6665 65.3722 80.6749C65.5839 80.6469 65.7992 80.6742 65.997 80.7544C66.1948 80.8345 66.3683 80.9646 66.5005 81.1319C67.3488 82.0797 66.9586 82.4013 66.3393 82.9429C66.3393 82.9429 66.4156 82.8752 66.7295 83.1545C68.072 83.1508 69.4116 83.0319 70.7336 82.7991C71.1143 82.7361 71.491 82.6513 71.8619 82.5452C71.0761 81.5626 70.4931 80.4346 70.1466 79.2261C69.8001 78.0176 69.6968 76.7527 69.8429 75.5042C70.6233 67.2277 68.6637 64.5619 66.8228 62.0654C65.5215 60.5004 64.5752 58.673 64.0488 56.7086C63.6693 55.4682 63.5537 54.1625 63.7095 52.875C63.7927 52.4701 63.7927 52.0527 63.7095 51.6479C63.6501 51.3686 63.9894 51.1316 64.2439 50.9878C64.1315 51.0257 64.0145 51.0485 63.8961 51.0555C62.9714 51.1486 62.2843 50.6323 61.9874 47.6704L61.8262 45.9779L63.5228 46.291C64.6292 46.5373 65.711 46.8828 66.755 47.3234C67.948 47.8911 69.2313 48.2463 70.547 48.3728C71.3799 48.4066 72.1949 48.1255 72.829 47.5858C74.076 46.6464 74.9837 45.9609 78.6061 47.8312L78.8012 47.9327L78.9455 48.0851C80.6421 49.8538 80.1246 50.7424 79.4714 51.9525C78.9964 52.7988 78.3431 54.0259 81.0238 58.0203C83.0344 56.7932 84.3069 57.174 86.1138 57.8087C86.8497 58.0675 87.604 58.2712 88.3704 58.418C89.6186 58.6249 90.8803 58.7408 92.1454 58.765C94.0223 58.7547 95.889 59.0403 97.6765 59.6113C98.2194 59.7975 98.703 59.9836 99.1441 60.1444C100.968 60.8299 101.689 61.1007 104.539 59.7636C105.164 59.5076 105.738 59.1438 106.236 58.6888C106.591 58.3699 106.965 58.0732 107.356 57.8003C108.009 57.3348 108.069 57.2925 108.323 57.1402L108.501 57.0301L105.507 55.8877L105.727 54.8298C107.873 45.0385 114.66 43.1513 123.143 40.8071L123.686 40.6548H123.746C128.768 39.2585 130.532 38.7592 133.467 36.0596L136.649 32.1329L136.64 32.099Z" fill="#FFF4E6"/>
<path d="M241.247 258.299C241.324 258.401 241.247 258.299 241.247 258.223C241.247 258.146 241.247 258.265 241.247 258.299Z" fill="#FFF4E6"/>
<path d="M308.554 269.156C304.473 266.998 305.305 268.428 298.577 271.407L296.635 272.406C295.328 273.252 295.693 272.787 294.87 274.166C293.063 277.17 295.659 276.366 291.808 278.127L294.183 281.317C289.093 284.482 293.767 285.007 295.685 287.876C295.099 288.527 293.089 290.592 293.089 290.601C294.09 293.021 292.715 291.176 294.65 291.929C294.966 292.008 295.286 292.071 295.608 292.116L297.033 292.242C296.516 295.23 296.448 294.781 294.488 296.474L298.823 298.302C298.594 299.698 297.67 299.385 296.999 301.687C299.544 304.429 298.34 303.185 301.725 304.818C304.897 306.35 303.133 306.392 306.314 307.975C307.442 306.138 306.747 306.206 308.011 303.388L308.257 302.889L309.47 300.451C310.034 299.442 310.37 298.321 310.454 297.168C310.785 294.324 309.936 293.334 311.107 290.457C311.955 288.375 313.398 287.546 313.83 284.914C314.221 282.57 313.771 279.912 313.601 277.61C313.236 272.702 313.236 274.31 312.142 271.12C310.946 267.641 312.99 265.272 312.006 261.726C311.158 258.578 311.709 260.152 310.004 259.593C308.163 262.183 309.156 265.949 308.545 269.131L308.554 269.156Z" fill="#FFF4E6"/>
<path d="M109.366 131.062C109.366 124.649 111.92 118.5 116.465 113.965C121.01 109.431 127.175 106.884 133.603 106.884C140.031 106.884 146.196 109.431 150.741 113.965C155.286 118.5 157.84 124.649 157.84 131.062C157.84 144.416 133.603 174.154 133.603 174.154C133.603 174.154 109.366 144.416 109.366 131.062Z" fill="#D25037"/>
<path d="M135.868 131.307C135.858 131.283 135.858 131.256 135.868 131.231C135.868 131.07 136.165 130.952 136.292 130.91C136.42 130.867 136.725 130.825 136.937 130.74C137.251 130.626 137.539 130.45 137.785 130.224C137.913 130.097 138.108 129.919 138.218 129.784C138.456 129.513 138.634 129.344 138.371 129.039C138.26 128.904 137.836 128.802 137.684 128.726C137.496 128.624 137.315 128.511 137.141 128.388C136.793 128.148 136.479 127.864 136.207 127.541C135.664 127.005 135.303 126.313 135.172 125.561C135.172 125.383 135.173 125.155 135.359 125.104C135.787 126.012 136.36 126.843 137.056 127.567C137.745 128.302 138.663 128.785 139.66 128.938C140.465 129.022 141.278 128.885 142.01 128.54C142.129 128.481 142.307 128.438 142.366 128.54C142.426 128.642 142.298 128.785 142.188 128.845C141.662 129.121 141.084 129.285 140.492 129.327C140.241 129.317 139.99 129.354 139.753 129.437C139.515 129.537 139.292 129.671 139.092 129.835C138.294 130.559 137.334 131.081 136.292 131.358C136.207 131.358 135.978 131.409 135.868 131.307Z" fill="#FFF4E6"/>
<path d="M139.262 133.051C139.312 133.051 139.329 132.974 139.321 132.915C139.256 132.662 139.137 132.425 138.973 132.221C138.897 132.111 138.812 132.001 138.736 131.883C138.658 131.782 138.6 131.667 138.566 131.544C138.566 131.299 138.846 131.595 138.888 131.654C138.975 131.785 139.075 131.907 139.185 132.018C139.205 132.043 139.231 132.062 139.261 132.072C139.291 132.082 139.324 132.084 139.355 132.077C139.423 132.035 139.355 131.933 139.355 131.866L139.007 131.273C139.007 131.273 138.956 131.18 139.007 131.138C139.012 131.127 139.02 131.117 139.029 131.108C139.039 131.1 139.05 131.094 139.062 131.09C139.074 131.086 139.086 131.084 139.099 131.085C139.111 131.086 139.123 131.09 139.134 131.096C139.181 131.117 139.221 131.149 139.253 131.189C139.572 131.567 139.825 131.996 140 132.458C140.116 132.707 140.137 132.99 140.059 133.254C140.012 133.362 139.944 133.459 139.858 133.539C139.772 133.619 139.67 133.68 139.558 133.719C139.327 133.778 139.085 133.778 138.854 133.719C138.431 133.61 138.047 133.383 137.747 133.066C137.447 132.748 137.243 132.353 137.158 131.925C137.143 131.893 137.136 131.859 137.136 131.823C137.136 131.788 137.143 131.754 137.158 131.722C137.174 131.693 137.199 131.669 137.23 131.654C137.26 131.639 137.294 131.633 137.327 131.637C137.394 131.643 137.459 131.666 137.514 131.705C137.921 131.984 138.048 132.551 138.473 132.822C138.486 132.752 138.485 132.679 138.469 132.609C138.453 132.539 138.422 132.473 138.379 132.416C138.267 132.207 138.173 131.989 138.099 131.764C138.091 131.74 138.091 131.713 138.099 131.688C138.107 131.679 138.117 131.672 138.128 131.667C138.139 131.662 138.151 131.659 138.163 131.659C138.175 131.659 138.187 131.662 138.198 131.667C138.209 131.672 138.219 131.679 138.227 131.688C138.268 131.712 138.298 131.752 138.311 131.798C138.567 132.237 138.871 132.646 139.219 133.017C139.229 133.033 139.244 133.045 139.262 133.051Z" fill="#FFF4E6"/>
<path d="M139.813 122.049C139.827 121.979 139.856 121.913 139.898 121.854C139.991 121.756 140.113 121.688 140.245 121.66C140.523 121.584 140.816 121.584 141.094 121.66C141.123 121.665 141.15 121.68 141.17 121.702C141.213 121.753 141.17 121.829 141.111 121.863C141.03 121.897 140.944 121.914 140.856 121.914C140.584 121.904 140.315 121.985 140.093 122.142C140.051 122.186 140.002 122.223 139.949 122.252C139.813 122.303 139.787 122.159 139.813 122.049Z" fill="#FFF4E6"/>
<path d="M143.325 122.404C143.206 122.404 143.164 122.311 143.164 122.252C143.171 122.212 143.189 122.174 143.216 122.142C143.242 122.111 143.277 122.088 143.316 122.074C143.539 122.032 143.768 122.065 143.97 122.168C144.063 122.227 144.054 122.303 143.97 122.371C143.749 122.548 143.503 122.455 143.325 122.404Z" fill="#FFF4E6"/>
<path d="M135.24 133.228C135.393 132.301 135.393 131.355 135.24 130.427C135.091 130.786 135.021 131.173 135.037 131.561C135 132.804 134.589 134.007 133.858 135.014C133.82 135.072 133.767 135.119 133.705 135.149C133.672 135.164 133.635 135.165 133.602 135.152C133.569 135.139 133.542 135.114 133.527 135.082C133.515 135.043 133.515 135.002 133.527 134.963C133.589 134.83 133.663 134.702 133.747 134.582C134.175 133.791 134.462 132.932 134.596 132.044C134.684 131.744 134.71 131.431 134.672 131.121C134.577 131.327 134.517 131.547 134.494 131.773C134.405 132.187 134.286 132.594 134.138 132.991C133.991 133.443 133.812 133.885 133.603 134.312C133.399 134.747 133.064 135.108 132.645 135.344C132.618 135.36 132.587 135.369 132.555 135.369C132.524 135.369 132.493 135.36 132.466 135.344C132.466 135.302 132.466 135.225 132.466 135.175C132.646 134.848 132.869 134.546 133.128 134.278C133.658 133.6 133.976 132.782 134.044 131.925C134.044 131.925 134.044 131.815 134.044 131.807C133.821 132.822 133.312 133.752 132.577 134.489C132.603 134.204 132.709 133.931 132.882 133.702C133.236 133.135 133.467 132.501 133.561 131.84C133.561 131.747 133.561 131.629 133.484 131.587C132.982 132.198 132.579 132.883 132.288 133.618C132.107 133.944 131.957 134.287 131.839 134.642C131.729 134.974 131.729 135.333 131.839 135.666C131.896 135.822 131.993 135.961 132.121 136.068C132.25 136.175 132.404 136.246 132.568 136.275C132.875 136.324 133.189 136.276 133.467 136.139C134.011 135.882 134.455 135.454 134.731 134.921C135.003 134.392 135.175 133.819 135.24 133.228Z" fill="#FFF4E6"/>
<path d="M130.278 133.609C129.835 134.136 129.244 134.519 128.581 134.709C128.853 134.483 129.114 134.243 129.362 133.99C129.367 133.971 129.367 133.95 129.362 133.931C129.362 133.931 129.311 133.88 129.268 133.88C129.149 133.917 129.043 133.987 128.963 134.083C128.723 134.307 128.432 134.467 128.114 134.548L129.387 133.304C129.424 133.272 129.454 133.232 129.472 133.186C129.48 133.163 129.48 133.138 129.472 133.115C129.465 133.092 129.449 133.073 129.429 133.059C128.868 133.635 128.218 134.118 127.504 134.489C127.397 134.547 127.277 134.574 127.156 134.565C127.495 133.973 128.233 133.719 128.598 133.11L126.961 134.312C126.857 134.38 126.765 134.466 126.689 134.565C126.657 134.629 126.637 134.698 126.63 134.769C126.626 134.802 126.626 134.836 126.63 134.87C126.675 134.937 126.729 134.996 126.791 135.048C126.852 135.102 126.921 135.148 126.995 135.183C127.054 135.219 127.117 135.25 127.181 135.276C127.494 135.401 127.831 135.452 128.166 135.426C128.502 135.399 128.827 135.296 129.115 135.124C129.542 134.821 129.915 134.449 130.218 134.024C130.725 133.404 131.294 132.837 131.915 132.331C131.268 132.61 130.705 133.05 130.278 133.609Z" fill="#FFF4E6"/>
<path d="M132.984 126.28C134.341 125.019 135.096 123.09 135.775 121.372C134.146 122.108 134.256 124.351 132.797 125.84C132.732 125.895 132.649 125.925 132.564 125.925C132.479 125.925 132.396 125.895 132.331 125.84C132.286 125.798 132.252 125.747 132.23 125.69C132.208 125.633 132.199 125.571 132.203 125.51C132.169 124.967 132.204 124.421 132.305 123.885C132.349 123.618 132.414 123.355 132.5 123.098C132.639 122.797 132.725 122.473 132.755 122.142C132.755 121.948 132.636 121.812 132.432 121.871C131.974 122.015 131.822 122.633 131.737 123.039C131.652 123.445 131.601 124.097 131.55 124.622C131.55 124.867 131.55 126.086 131.075 126.035C130.6 125.984 130.897 124.283 130.804 123.75C130.804 123.64 130.736 123.505 130.626 123.496H130.549C130.502 123.527 130.461 123.567 130.43 123.615C130.074 124.131 130.261 125.519 130.108 126.153C130.102 126.213 130.082 126.27 130.05 126.32C130.017 126.37 129.973 126.412 129.921 126.441C129.847 126.461 129.768 126.453 129.699 126.419C129.63 126.385 129.577 126.326 129.548 126.255C129.489 126.028 129.455 125.795 129.446 125.561C129.395 123.953 129.947 123.022 129.608 122.76C129.522 122.697 129.417 122.666 129.311 122.674C129.205 122.681 129.106 122.727 129.031 122.802C128.717 123.073 128.751 123.742 128.691 124.156C128.59 124.816 128.912 126.822 128.259 126.695C127.605 126.568 128.386 124.241 127.868 124.072C127.122 123.835 127.868 126.61 127.376 127.271C127.249 127.448 126.978 126.754 127.029 126.145C127.058 125.926 127.058 125.704 127.029 125.485C127.029 125.265 126.757 125.053 126.554 125.146C126.496 125.184 126.448 125.234 126.413 125.293C126.378 125.351 126.356 125.417 126.35 125.485C126.231 126.103 126.587 128.108 125.968 127.973C125.349 127.838 126.274 125.062 125.569 124.825C124.865 124.588 125.196 127.321 125.196 127.575C125.241 127.908 125.169 128.246 124.993 128.532C124.925 128.599 124.848 128.616 124.781 128.532C124.751 128.493 124.729 128.45 124.713 128.405C124.566 127.951 124.495 127.476 124.501 127C124.501 126.763 124.662 126.153 124.382 126.001C124.102 125.849 124.009 126.086 123.915 126.196C123.364 126.881 124.543 129.361 123.915 129.361C123.712 129.361 123.678 129.124 123.635 128.972C123.593 128.819 123.406 128.125 123.304 127.88C123.262 127.77 123.092 127.296 122.914 127.398C122.736 127.499 122.855 127.744 122.863 127.863C122.928 128.302 123.018 128.738 123.135 129.166C123.203 129.437 123.33 129.86 123.041 130.012H122.991C122.643 130.19 122.397 128.658 122.04 128.819C121.379 129.132 122.558 131.299 121.828 131.299C121.251 131.299 121.71 129.886 121.158 129.708C121.099 129.7 121.039 129.713 120.989 129.744C120.938 129.774 120.899 129.821 120.878 129.877C120.522 130.833 121.998 132.763 120.989 132.898C120.361 132.983 120.675 131.07 120.072 131.257C118.834 131.629 120.437 133.795 120.836 135.056C120.607 135.056 120.463 134.836 120.344 134.633C120.225 134.43 119.92 134.269 119.801 134.464C119.776 134.515 119.763 134.572 119.763 134.629C119.763 134.686 119.776 134.742 119.801 134.794L120.607 136.715L121.404 138.628C121.624 139.17 121.909 139.685 122.253 140.159C122.553 140.55 122.897 140.905 123.279 141.217C123.423 140.125 122.431 138.974 122.965 137.984C123.215 138.969 123.785 139.844 124.585 140.472C125.06 140.845 125.654 141.183 125.799 141.767C125.943 142.351 125.493 143.265 125.985 143.756C126.192 143.215 126.247 142.629 126.146 142.06C126.044 141.49 125.789 140.959 125.408 140.523C124.984 140.049 124.39 139.677 124.331 139.017C124.263 138.247 125.06 137.688 125.332 136.96C125.603 136.233 124.933 135.843 125.264 135.039C125.519 134.413 126.358 134.396 126.265 134.117C126.087 133.635 123.864 134.963 123.05 136.3C122.695 136.855 122.473 137.485 122.401 138.139C122.329 138.794 122.409 139.456 122.634 140.075C121.916 139.059 121.414 137.907 121.158 136.69C121.107 136.444 121.107 136.123 121.336 136.029C121.565 135.936 122.117 136.309 122.261 136.029C122.282 135.98 122.292 135.927 122.292 135.873C122.292 135.819 122.282 135.766 122.261 135.716C121.956 134.938 120.743 133.965 121.353 133.389C121.752 133 122.006 134.574 122.558 134.498C123.109 134.422 122.431 133.55 122.278 133.093C122.125 132.636 121.947 131.603 122.414 131.73C122.88 131.857 123.194 132.67 123.389 132.297C123.508 132.077 123.287 131.832 123.186 131.646C123.104 131.507 123.038 131.36 122.991 131.206C122.991 131.096 122.863 130.91 122.923 130.8C122.982 130.689 123.33 130.689 123.44 130.8C123.614 131.109 123.77 131.428 123.907 131.756C124.026 131.942 124.407 132.154 124.458 131.934C124.611 131.256 123.61 129.936 124.28 129.886C124.747 129.886 124.984 130.876 125.281 130.529C125.578 130.182 124.899 129.268 125.281 129.107C125.663 128.946 126.333 131.527 126.978 131.053C127.326 130.816 126.715 130.283 126.503 129.919C126.291 129.556 125.96 128.506 126.375 128.515C126.969 128.515 127.164 129.699 127.529 130.207C127.665 130.376 127.877 130.563 128.055 130.453C128.233 130.343 128.055 129.936 127.885 129.708C127.844 129.658 127.807 129.604 127.775 129.547C127.58 129.225 127.13 127.965 127.504 128.015C127.877 128.066 128.013 129.217 128.31 129.175C128.607 129.132 128.123 127.728 128.386 127.601C128.649 127.474 129.039 129.005 129.234 129.293C129.277 129.379 129.338 129.456 129.413 129.517C129.487 129.578 129.574 129.623 129.667 129.649C129.989 129.649 130.057 129.225 129.972 128.904C129.9 128.676 129.815 128.453 129.718 128.235C129.641 128.058 129.54 127.897 129.48 127.719C129.421 127.541 129.48 126.983 129.828 127.051C129.927 127.081 130.017 127.133 130.092 127.203C130.167 127.274 130.225 127.36 130.261 127.457C130.363 127.736 130.668 128.658 130.956 128.574C131.245 128.489 131.219 128.125 131.134 127.871C131.05 127.618 130.863 126.56 131.134 126.619C131.567 126.72 131.694 127.271 131.796 127.634C131.851 127.875 131.919 128.112 132 128.345C132.083 128.545 132.176 128.74 132.28 128.929C132.357 129.114 132.483 129.275 132.645 129.395C132.677 129.423 132.715 129.443 132.756 129.455C132.798 129.466 132.841 129.469 132.883 129.461C132.926 129.454 132.966 129.437 133.001 129.413C133.036 129.388 133.065 129.356 133.086 129.319C133.12 129.214 133.12 129.101 133.086 128.997C132.989 128.581 132.807 128.189 132.551 127.846C132.414 127.686 132.332 127.486 132.317 127.276C132.302 127.066 132.354 126.857 132.466 126.678C132.604 126.564 132.773 126.496 132.952 126.484C133.13 126.472 133.307 126.516 133.459 126.61C133.756 126.819 134.012 127.08 134.214 127.381C134.833 128.227 135.792 129.259 136.954 128.87C135.317 128.642 134.748 126.534 132.984 126.28ZM124.976 135.166C124.636 135.674 124.976 136.233 124.882 136.69C124.868 137.135 124.69 137.56 124.382 137.883C124.179 138.139 124.016 138.424 123.898 138.729C123.898 138.805 123.788 139.017 123.839 139.093C123.562 138.585 123.356 138.041 123.228 137.477C123.737 135.539 124.976 135.183 124.976 135.183V135.166Z" fill="#FFF4E6"/>
<path d="M132.475 146.963C132.502 146.747 132.47 146.528 132.382 146.329C132.009 145.337 131.43 144.434 130.685 143.68C130.044 143.203 129.558 142.55 129.285 141.801C129.082 140.836 129.777 139.939 130.133 139.025C130.37 138.439 130.482 137.811 130.464 137.18C130.471 137.033 130.447 136.885 130.395 136.747C130.342 136.609 130.262 136.483 130.159 136.376C129.803 136.106 129.311 136.334 128.912 136.588C127.619 137.453 126.497 138.549 125.603 139.821C126.392 139.085 127.225 138.398 128.097 137.764C128.437 137.519 129.158 137.13 129.251 137.536C129.344 137.942 127.173 139.118 126.426 140.168C127.487 139.956 128.852 137.629 129.209 138.636C129.395 139.152 126.867 139.982 126.486 140.989C127.232 140.464 128.717 139.228 128.929 139.787C129.141 140.345 127.402 140.633 126.554 141.632C127.173 141.386 128.25 140.269 128.53 140.887C128.7 141.327 127.275 141.454 126.749 141.97C127.224 141.784 128.216 141.336 128.25 141.843C128.284 142.351 127.342 142.199 126.91 142.436C127.546 142.385 128.81 142.25 128.768 142.749C128.725 143.248 127.512 142.986 126.884 143.113C127.733 143.426 129.548 143.189 129.37 144.052C129.26 144.568 127.673 143.951 126.884 143.9L129.268 144.695C129.616 144.814 130.201 145.008 130.116 145.321C129.955 145.982 128.293 144.898 127.453 144.644C128.301 145.093 129.209 145.618 130.133 145.998C131.058 146.379 130.982 146.955 130.617 146.845C127.71 145.688 125.065 143.961 122.838 141.767C120.598 139.575 118.062 136.013 118.308 133.304C118.477 131.476 119.504 127.381 120.853 125.333C124.39 119.959 131.228 118.766 131.033 118.224C130.719 117.462 123.907 121.017 121.523 123.682C119.47 125.976 118.978 128.76 118.265 130.986V131.07C118.042 132.004 117.9 132.956 117.841 133.914C117.841 134.125 117.799 134.345 117.782 134.565C117.597 134.318 117.475 134.029 117.426 133.724C117.377 133.419 117.403 133.106 117.502 132.814C117.273 133.025 117.23 133.609 116.925 133.541C116.62 133.474 116.781 132.873 116.925 132.636C117.069 132.399 117.213 132.128 117.366 131.874L117.587 131.485L117.663 131.316C117.698 131.26 117.727 131.2 117.748 131.138C117.704 131.17 117.664 131.207 117.629 131.248C117.434 131.443 117.256 131.654 117.078 131.866L116.738 132.297C116.67 132.39 116.552 132.5 116.441 132.424C116.402 132.388 116.371 132.343 116.35 132.293C116.33 132.244 116.32 132.19 116.323 132.137C116.347 131.964 116.41 131.798 116.509 131.654C116.782 131.234 117.107 130.85 117.476 130.512C117.688 130.3 117.909 130.106 118.13 129.911C117.527 130.072 116.823 131.104 116.569 130.893C115.89 130.317 117.672 129.488 118.393 128.963C117.705 129.039 116.789 130.046 116.484 129.699C116.178 129.352 117.901 128.557 118.749 128.235C118.07 128.168 116.967 128.811 116.815 128.531C116.501 127.973 118.138 127.567 119.054 127.457C118.7 127.297 118.313 127.226 117.925 127.252C117.537 127.277 117.162 127.396 116.832 127.601C116.464 127.88 116.169 128.244 115.971 128.66C115.774 129.077 115.679 129.535 115.695 129.996C115.652 131.151 115.845 132.302 116.263 133.381C116.662 134.455 117.705 135.344 118.231 136.359C118.843 137.432 119.532 138.458 120.293 139.431C120.99 140.364 121.759 141.241 122.592 142.055C123.424 142.875 124.32 143.628 125.273 144.306C126.219 144.987 127.217 145.592 128.259 146.117C129.179 146.582 130.131 146.981 131.109 147.31C131.593 147.471 132.263 147.547 132.483 147.082C132.484 147.042 132.481 147.002 132.475 146.963Z" fill="#FFF4E6"/>
<path d="M128.988 114.805C129.247 114.955 129.482 115.143 129.684 115.364L132.161 117.809C132.254 117.742 132.161 117.606 132.161 117.522C131.453 116.543 130.694 115.603 129.888 114.703L129.429 114.272C129.041 113.888 128.625 113.534 128.182 113.214C128.046 113.087 127.868 113.015 127.682 113.011C127.58 113.028 127.483 113.066 127.396 113.123C127.31 113.18 127.237 113.254 127.181 113.341C126.764 113.915 126.387 114.517 126.053 115.144C125.349 116.286 124.424 117.285 123.652 118.376L123.389 118.757C122.64 119.854 121.968 121.002 121.379 122.193C121.116 122.76 120.802 123.175 120.53 123.75C120.48 123.869 120.293 124.199 120.361 124.326C120.429 124.453 120.624 124.207 120.675 124.148C121.353 123.429 121.905 122.599 122.592 121.888C122.971 121.56 123.421 121.323 123.907 121.194L123.287 120.949C123.204 120.902 123.127 120.845 123.058 120.78C122.982 120.644 123.194 120.483 123.347 120.475C123.746 120.475 124.255 120.534 124.662 120.475C124.305 120.247 123.584 120.018 123.686 119.629C123.737 119.46 123.983 119.485 124.144 119.527C124.55 119.694 124.975 119.813 125.408 119.883C125.23 119.705 124.653 119.307 124.747 119.036C124.916 118.571 125.654 119.493 126.274 119.443C125.841 119.028 124.73 118.486 124.976 118.19C125.041 118.132 125.122 118.096 125.209 118.087C125.296 118.078 125.383 118.096 125.459 118.139L127.156 118.867C127.19 118.821 127.209 118.764 127.209 118.706C127.209 118.648 127.19 118.592 127.156 118.546C127.073 118.459 126.975 118.387 126.867 118.334C126.511 118.122 125.765 117.809 126.019 117.488C126.384 116.929 127.716 118.444 128.564 118.529C128.649 118.309 128.462 118.072 128.276 117.928C127.605 117.42 126.698 117.208 126.18 116.548C126.129 116.489 126.079 116.396 126.121 116.328C126.163 116.261 126.299 116.269 126.392 116.328C127.235 116.658 128.055 117.045 128.844 117.488C129.183 117.73 129.589 117.863 130.006 117.869C129.336 117.2 127.13 116.176 127.461 115.694C128.064 114.712 129.955 117.039 130.973 117.606C131.067 117.657 131.194 117.699 131.27 117.606C131.347 117.513 131.27 117.327 131.16 117.217C130.193 116.337 129.189 115.49 128.148 114.678C128.289 114.633 128.438 114.621 128.583 114.643C128.729 114.665 128.868 114.72 128.988 114.805Z" fill="#FFF4E6"/>
<path d="M144.682 121.203C144.55 121.094 144.397 121.014 144.233 120.966C143.486 120.696 142.717 120.492 141.934 120.357C141.661 120.309 141.397 120.217 141.153 120.086C140.975 119.993 140.678 119.815 140.509 119.705C139.74 119.287 138.914 118.984 138.057 118.808C136.637 118.388 135.174 118.129 133.696 118.038C133.4 118.038 132.925 117.758 132.95 118.224C132.95 118.309 133.086 118.317 133.162 118.334C133.391 118.4 133.623 118.454 133.858 118.495C134.333 118.588 134.808 118.639 135.291 118.689C136.593 118.896 137.882 119.179 139.151 119.536C140.263 119.84 140.967 120.644 142.086 120.915C142.57 121.025 143.071 121.093 143.563 121.211C144.056 121.319 144.514 121.549 144.894 121.88C144.912 121.636 144.836 121.394 144.682 121.203Z" fill="#FFF4E6"/>
<path d="M141.357 122.785C141.361 122.704 141.361 122.622 141.357 122.54C141.357 122.379 141.102 122.311 140.975 122.261C140.877 122.223 140.768 122.223 140.67 122.261C140.571 122.299 140.482 122.356 140.407 122.43C140.333 122.505 140.275 122.594 140.237 122.692C140.21 122.743 140.195 122.8 140.195 122.857C140.195 122.915 140.21 122.972 140.237 123.022C140.278 123.065 140.326 123.098 140.38 123.122C140.434 123.145 140.492 123.157 140.551 123.158H140.644C140.745 123.146 140.844 123.126 140.941 123.098C141.028 123.086 141.11 123.051 141.179 122.997C141.263 122.952 141.327 122.876 141.357 122.785Z" fill="#FFF4E6"/>
<path d="M146.489 127.127C146.491 127.098 146.491 127.07 146.489 127.042C146.589 126.799 146.652 126.542 146.676 126.28C146.712 125.987 146.653 125.691 146.506 125.434C146.349 125.25 146.202 125.058 146.065 124.859C145.934 124.533 145.934 124.169 146.065 123.843C146.204 123.527 146.312 123.198 146.387 122.861C146.416 122.701 146.397 122.536 146.334 122.386C146.271 122.236 146.166 122.107 146.031 122.015C145.86 121.972 145.681 121.972 145.511 122.017C145.34 122.061 145.183 122.148 145.056 122.269C144.431 122.753 143.783 123.205 143.113 123.623C143.362 123.641 143.612 123.605 143.845 123.515C144.078 123.426 144.289 123.287 144.462 123.107C144.814 122.768 145.214 122.483 145.649 122.261C145.733 122.24 145.82 122.24 145.904 122.261C145.954 122.28 145.998 122.312 146.032 122.354C146.067 122.395 146.09 122.445 146.099 122.498C146.125 122.603 146.125 122.713 146.099 122.819C146.006 123.192 145.836 123.53 145.734 123.902C145.612 124.265 145.627 124.659 145.777 125.011C145.912 125.273 146.141 125.46 146.277 125.722C146.385 126.024 146.419 126.348 146.376 126.666C146.333 126.984 146.215 127.287 146.031 127.55C145.972 127.33 146.124 126.704 146.031 126.517C145.998 126.409 145.937 126.312 145.856 126.233C145.774 126.155 145.674 126.098 145.565 126.069C145.391 126.06 145.22 126.104 145.072 126.196C144.64 126.407 144.224 126.619 143.783 126.839C143.753 126.719 143.749 126.594 143.773 126.473C143.796 126.351 143.846 126.237 143.919 126.137C143.996 126.078 144.082 126.033 144.173 126.001C144.514 125.848 144.838 125.661 145.14 125.443C145.225 125.388 145.297 125.316 145.352 125.231C145.446 125.036 145.352 124.808 145.352 124.596C145.361 124.163 145.45 123.736 145.615 123.335C145.624 123.291 145.624 123.245 145.615 123.2C145.615 123.065 145.378 123.039 145.251 123.098C145.074 123.222 144.922 123.377 144.801 123.555C144.597 123.775 144.326 123.919 144.114 124.122C143.804 124.465 143.587 124.882 143.486 125.333C143.359 125.855 143.359 126.401 143.486 126.924C143.557 127.478 143.428 128.039 143.121 128.506C143.157 127.967 143.085 127.426 142.909 126.915C142.8 126.693 142.748 126.448 142.759 126.201C142.769 125.954 142.841 125.714 142.969 125.502C142.909 125.474 142.843 125.465 142.779 125.474C142.714 125.483 142.653 125.51 142.604 125.553C142.508 125.644 142.443 125.762 142.417 125.891C142.231 126.678 142.875 127.44 142.824 128.244C142.781 128.535 142.701 128.819 142.587 129.09C142.587 129.158 142.587 129.234 142.519 129.302C142.451 129.369 142.477 129.42 142.519 129.454C142.561 129.488 142.748 129.378 142.807 129.327C143.217 129.009 143.526 128.58 143.698 128.091C143.764 127.923 143.81 127.746 143.834 127.567C143.842 127.474 143.842 127.38 143.834 127.287C143.842 127.197 143.842 127.107 143.834 127.017C144.053 127.068 144.281 127.071 144.501 127.024C144.721 126.977 144.928 126.882 145.106 126.746C145.242 126.644 145.378 126.517 145.539 126.551C145.601 126.569 145.656 126.603 145.698 126.651C145.74 126.7 145.768 126.759 145.777 126.822C145.802 126.945 145.802 127.072 145.777 127.194C145.71 127.537 145.752 127.892 145.895 128.21C146.173 127.899 146.376 127.528 146.489 127.127Z" fill="#FFF4E6"/>
<path d="M141.484 133.998C143.003 133.888 144.631 133.888 145.955 134.845C146.144 134.98 146.295 135.16 146.396 135.369C146.574 135.716 146.6 135.835 146.939 135.919C147.278 135.973 147.622 135.996 147.965 135.987C148.271 136.001 148.571 136.076 148.848 136.206C149.125 136.337 149.373 136.521 149.577 136.749V136.808C148.896 136.569 148.162 136.522 147.456 136.673C147.217 136.711 146.972 136.691 146.743 136.612C146.513 136.534 146.307 136.401 146.141 136.224C145.912 135.902 145.938 135.691 145.777 135.446C145.223 134.883 144.509 134.505 143.732 134.362C143.006 134.206 142.268 134.11 141.527 134.075V134.007L141.484 133.998Z" fill="#FFF4E6"/>
<path d="M136.216 135.691C136.801 135.691 137.395 135.691 137.981 135.649C138.566 135.606 139.151 135.962 138.829 136.613C138.719 136.859 138.447 137.138 138.6 137.367C138.918 137.402 139.238 137.418 139.558 137.417H140.407C140.899 137.417 141.747 137.333 141.849 138.001C141.849 138.204 141.849 138.221 141.942 138.281C142.307 138.594 142.858 138.382 143.342 138.424C144.301 138.484 146.532 138.424 146.65 139.694C146.65 139.948 146.65 140.295 146.973 140.303V140.371C146.891 140.401 146.801 140.401 146.718 140.371C146.481 140.269 146.404 139.965 146.328 139.762C146.294 139.649 146.232 139.547 146.147 139.466C146.063 139.384 145.958 139.326 145.845 139.296C145.004 139.157 144.151 139.109 143.3 139.152C142.655 139.152 141.874 139.321 141.374 138.67C141.262 138.485 141.198 138.276 141.187 138.061C141.187 138.061 141.187 138.061 141.136 138.061C140.877 138.007 140.612 137.984 140.347 137.993L139.499 137.917L138.608 137.832C138.489 137.822 138.376 137.772 138.289 137.691C138.201 137.61 138.143 137.501 138.125 137.384C138.108 137.117 138.193 136.854 138.362 136.647C138.456 136.512 138.583 136.317 138.532 136.182C138.481 136.046 138.21 135.928 137.93 135.919C137.344 135.919 136.759 135.818 136.174 135.776V135.708L136.216 135.691Z" fill="#FFF4E6"/>
<path d="M138.676 139.618C138.676 139.99 138.574 140.379 138.753 140.65C139.329 141.395 140.449 140.989 141.298 141.082C141.483 141.074 141.667 141.114 141.832 141.198C141.997 141.283 142.138 141.409 142.239 141.564C142.358 141.767 142.375 142.165 142.502 142.266C143.064 142.573 143.681 142.766 144.318 142.833C144.661 142.924 145.018 142.947 145.369 142.901V142.969C145.042 143.202 144.652 143.329 144.25 143.333C143.274 143.384 141.705 143.333 141.705 142.013C141.705 141.64 141.518 141.666 141.204 141.589C140.263 141.462 138.294 141.657 138.506 140.159C138.506 139.973 138.591 139.795 138.608 139.618H138.676Z" fill="#FFF4E6"/>
<path d="M133.467 139.228C133.478 139.287 133.508 139.34 133.553 139.38C133.597 139.42 133.654 139.444 133.713 139.448C134.112 139.542 134.562 139.448 134.918 139.702C135.351 140.159 134.918 140.862 134.74 141.327C134.63 141.556 134.604 141.759 134.74 141.894C134.885 142.051 135.08 142.152 135.291 142.182L136.844 142.478C137.353 142.529 138.031 142.85 137.93 143.485C137.894 143.664 137.819 143.832 137.711 143.978C137.602 144.125 137.462 144.245 137.302 144.331C137.047 144.501 136.776 144.602 136.742 144.915C136.708 145.228 137.03 145.423 137.208 145.702C137.424 146.014 137.514 146.395 137.46 146.77C137.407 147.145 137.214 147.486 136.92 147.725L136.869 147.683C137.033 147.437 137.112 147.145 137.096 146.85C137.079 146.556 136.967 146.275 136.776 146.049C136.657 145.922 136.462 145.812 136.326 145.66C136.224 145.536 136.148 145.392 136.104 145.238C136.061 145.083 136.05 144.921 136.072 144.762C136.094 144.603 136.149 144.45 136.234 144.313C136.319 144.176 136.431 144.059 136.564 143.967C136.774 143.85 136.975 143.717 137.166 143.57C137.522 143.257 136.996 143.121 136.725 143.054C135.978 142.774 134.18 142.749 134.29 141.623C134.358 141.2 134.68 140.887 134.799 140.506C135.062 139.829 134.672 139.745 134.104 139.66C133.858 139.609 133.459 139.584 133.425 139.262H133.493L133.467 139.228Z" fill="#FFF4E6"/>
<path d="M141.959 131.595C143.401 131.502 145.497 131.409 146.956 131.35C148.624 131.186 150.308 131.269 151.952 131.595V131.671C150.309 132.002 148.624 132.084 146.956 131.917C145.488 131.857 143.41 131.764 141.959 131.671V131.595Z" fill="#FFF4E6"/>
<path d="M131.94 140.726C131.987 140.915 131.987 141.113 131.94 141.302C131.873 142.597 133.4 143.197 133.637 144.408C133.637 144.526 133.637 144.611 133.637 144.704H133.595C133.518 144.628 133.476 144.526 133.416 144.467C132.959 144.002 132.555 143.488 132.212 142.935C132.028 142.697 131.894 142.425 131.82 142.133C131.746 141.842 131.732 141.539 131.779 141.242C131.86 141.076 131.904 140.894 131.906 140.709L131.94 140.726Z" fill="#FFF4E6"/>
<path d="M134.341 137.35C134.977 137.138 136.326 137.561 136.352 138.357C136.345 138.478 136.322 138.597 136.284 138.712C136.266 138.757 136.262 138.806 136.273 138.853C136.283 138.899 136.308 138.942 136.343 138.975V139.017C136.304 139.028 136.263 139.031 136.224 139.023C136.184 139.016 136.146 138.999 136.114 138.975C135.843 138.754 135.97 138.407 135.809 138.128C135.643 137.898 135.425 137.709 135.174 137.577C134.922 137.444 134.643 137.372 134.358 137.367V137.316L134.341 137.35Z" fill="#FFF4E6"/>
<path d="M141.493 135.666C141.874 135.911 142.273 135.556 142.697 135.666C142.797 135.678 142.891 135.719 142.968 135.783C143.045 135.848 143.101 135.933 143.13 136.029C143.206 136.283 143.13 136.427 143.198 136.596C143.266 136.766 143.622 136.91 143.851 137.053V137.104C143.701 137.172 143.537 137.199 143.373 137.185C143.21 137.17 143.053 137.113 142.918 137.02C142.838 136.954 142.777 136.869 142.739 136.772C142.702 136.676 142.691 136.572 142.706 136.47C142.736 136.356 142.759 136.24 142.774 136.123C142.765 136.086 142.747 136.052 142.722 136.024C142.696 135.996 142.665 135.975 142.629 135.962C142.281 135.843 141.73 136.072 141.459 135.725L141.493 135.666Z" fill="#FFF4E6"/>
<path d="M147.787 133.736C148.105 133.808 148.436 133.808 148.754 133.736H149.077C149.507 133.596 149.97 133.596 150.4 133.736V133.787C150.271 133.909 150.117 134.001 149.948 134.057C149.78 134.112 149.601 134.13 149.424 134.108H149.077C148.746 134.066 148.406 134.041 148.067 133.981C147.951 133.957 147.844 133.905 147.753 133.829L147.787 133.736Z" fill="#FFF4E6"/>
<path d="M139.686 142.859C139.974 142.977 139.932 143.375 139.804 143.604C139.363 144.289 139.804 144.382 140.313 144.653C140.448 144.711 140.558 144.812 140.627 144.941C140.373 144.957 140.118 144.957 139.864 144.941C139.752 144.9 139.651 144.836 139.566 144.753C139.481 144.67 139.414 144.57 139.37 144.46C139.326 144.35 139.306 144.232 139.31 144.114C139.315 143.995 139.345 143.879 139.397 143.773C139.567 143.511 139.983 143.206 139.694 142.927L139.686 142.859Z" fill="#FFF4E6"/>
</g>
<defs>
<clipPath id="clip0_19_273">
<rect width="314" height="308" fill="white"/>
</clipPath>
</defs>
</svg>
