<svg width="50" height="50" viewBox="0 0 50 50" fill="none" xmlns="http://www.w3.org/2000/svg">
<g clip-path="url(#clip0_163_128)">
<path d="M25.003 50.006C38.8118 50.006 50.006 38.8118 50.006 25.003C50.006 11.1942 38.8118 0 25.003 0C11.1942 0 0 11.1942 0 25.003C0 38.8118 11.1942 50.006 25.003 50.006Z" fill="#49523C"/>
<path d="M31.0549 37.4835H19.0408C18.6215 37.4835 18.2193 37.3174 17.9223 37.0215C17.6253 36.7256 17.4576 36.324 17.4561 35.9048V17.8029H32.6456V35.9048C32.6456 36.1131 32.6044 36.3194 32.5243 36.5117C32.4442 36.704 32.3269 36.8786 32.179 37.0254C32.0311 37.1721 31.8557 37.2882 31.6627 37.3668C31.4698 37.4454 31.2632 37.4851 31.0549 37.4835ZM18.3531 18.6999V35.9048C18.3547 36.0861 18.4278 36.2595 18.5566 36.3872C18.6854 36.5149 18.8594 36.5865 19.0408 36.5865H31.0549C31.2357 36.5865 31.4091 36.5147 31.537 36.3868C31.6648 36.259 31.7366 36.0856 31.7366 35.9048V18.6999H18.3531Z" fill="#FFF4E6"/>
<path d="M33.5426 18.6999H16.547C16.1278 18.6983 15.7262 18.5306 15.4303 18.2336C15.1344 17.9366 14.9683 17.5344 14.9683 17.1151V16.864C14.9683 16.4447 15.1344 16.0425 15.4303 15.7455C15.7262 15.4485 16.1278 15.2808 16.547 15.2792H33.5426C33.9629 15.2792 34.366 15.4462 34.6632 15.7434C34.9604 16.0406 35.1273 16.4437 35.1273 16.864V17.1151C35.1273 17.5354 34.9604 17.9385 34.6632 18.2357C34.366 18.5329 33.9629 18.6999 33.5426 18.6999ZM16.547 16.1763C16.457 16.1763 16.3678 16.1941 16.2847 16.2287C16.2016 16.2634 16.1262 16.3141 16.0628 16.378C15.9994 16.442 15.9494 16.5179 15.9155 16.6013C15.8815 16.6847 15.8645 16.774 15.8653 16.864V17.1151C15.8653 17.2965 15.9369 17.4705 16.0646 17.5993C16.1923 17.7281 16.3657 17.8013 16.547 17.8029H33.5426C33.7245 17.8013 33.8985 17.7284 34.0272 17.5997C34.1558 17.4711 34.2287 17.2971 34.2303 17.1151V16.864C34.2303 16.6816 34.1579 16.5067 34.0289 16.3777C33.8999 16.2487 33.725 16.1763 33.5426 16.1763H16.547Z" fill="#FFF4E6"/>
<path d="M31.0549 16.1763H19.0408C18.6205 16.1763 18.2174 16.0093 17.9202 15.7121C17.623 15.4149 17.4561 15.0119 17.4561 14.5916V13.0906C17.4561 12.6703 17.623 12.2672 17.9202 11.97C18.2174 11.6728 18.6205 11.5058 19.0408 11.5058H31.0549C31.4742 11.5074 31.8757 11.675 32.1716 11.9721C32.4675 12.2691 32.6337 12.6713 32.6337 13.0906V14.5916C32.6337 15.0108 32.4675 15.413 32.1716 15.71C31.8757 16.007 31.4742 16.1747 31.0549 16.1763ZM19.0408 12.4028C18.8584 12.4028 18.6835 12.4753 18.5545 12.6042C18.4255 12.7332 18.3531 12.9082 18.3531 13.0906V14.5916C18.3531 14.7739 18.4255 14.9489 18.5545 15.0778C18.6835 15.2068 18.8584 15.2793 19.0408 15.2793H31.0549C31.1449 15.2793 31.2341 15.2615 31.3172 15.2268C31.4003 15.1922 31.4757 15.1414 31.5391 15.0775C31.6025 15.0136 31.6526 14.9377 31.6865 14.8543C31.7204 14.7709 31.7374 14.6816 31.7366 14.5916V13.0906C31.7374 13.0005 31.7204 12.9112 31.6865 12.8278C31.6526 12.7444 31.6025 12.6685 31.5391 12.6046C31.4757 12.5407 31.4003 12.4899 31.3172 12.4553C31.2341 12.4207 31.1449 12.4028 31.0549 12.4028H19.0408Z" fill="#FFF4E6"/>
<path d="M21.8096 27.3532H20.9126C20.9118 26.7854 21.0229 26.223 21.2394 25.6981C21.456 25.1733 21.7738 24.6962 22.1747 24.2942C22.5757 23.8921 23.0519 23.573 23.5761 23.355C24.1004 23.137 24.6625 23.0243 25.2303 23.0236C25.9955 23.0232 26.7471 23.2263 27.408 23.6119C28.0689 23.9976 28.6155 24.5519 28.9918 25.2183L29.3805 25.9L26.5878 25.8522V24.9552H27.6821C27.3629 24.6219 26.9795 24.3569 26.555 24.176C26.1305 23.9951 25.6738 23.9021 25.2123 23.9026C24.7623 23.9058 24.3174 23.9975 23.9028 24.1726C23.4883 24.3477 23.1123 24.6027 22.7963 24.9232C22.4803 25.2436 22.2306 25.6231 22.0613 26.04C21.892 26.457 21.8065 26.9032 21.8096 27.3532Z" fill="#FFF4E6"/>
<path d="M29.1709 23.3585H28.2739V25.4455H29.1709V23.3585Z" fill="#FFF4E6"/>
<path d="M25.0446 31.611C24.2794 31.6114 23.5278 31.4083 22.8669 31.0227C22.206 30.637 21.6594 30.0827 21.2831 29.4163L20.9004 28.7346L23.6871 28.7825V29.6795H22.5868C22.9064 30.0121 23.2899 30.2768 23.7143 30.4577C24.1387 30.6385 24.5953 30.7318 25.0566 30.732C25.9633 30.7304 26.8325 30.3695 27.4736 29.7283C28.1148 29.0872 28.4757 28.2181 28.4772 27.3113H29.3743C29.3679 28.4549 28.9088 29.5494 28.0973 30.3553C27.2859 31.1611 26.1882 31.6126 25.0446 31.611Z" fill="#FFF4E6"/>
<path d="M22.0069 29.1951H21.1099V31.2821H22.0069V29.1951Z" fill="#FFF4E6"/>
</g>
<defs>
<clipPath id="clip0_163_128">
<rect width="50" height="50" fill="white"/>
</clipPath>
</defs>
</svg>
