<svg width="50" height="50" viewBox="0 0 50 50" fill="none" xmlns="http://www.w3.org/2000/svg">
<g clip-path="url(#clip0_163_119)">
<path d="M25.003 50.006C38.8118 50.006 50.006 38.8118 50.006 25.003C50.006 11.1942 38.8118 0 25.003 0C11.1942 0 0 11.1942 0 25.003C0 38.8118 11.1942 50.006 25.003 50.006Z" fill="#49523C"/>
<path d="M19.1006 36.1021H11.9663V22.3478H19.1006V36.1021ZM12.8633 35.2051H18.2036V23.2448H12.8813L12.8633 35.2051Z" fill="#FFF4E6"/>
<path d="M18.921 24.0402L18.3828 23.3166C21.4762 20.7903 23.8877 17.5296 25.3975 13.8321C25.5356 13.4937 25.7716 13.2042 26.0752 13.0007C26.3789 12.7972 26.7363 12.689 27.1019 12.6899C27.3582 12.6892 27.6119 12.742 27.8467 12.845C28.0815 12.948 28.2922 13.0988 28.4653 13.2879C28.6366 13.478 28.7664 13.7017 28.8467 13.9446C28.927 14.1875 28.956 14.4445 28.9318 14.6992C28.7643 16.3976 28.5012 18.8315 28.1783 20.775C28.1553 20.9079 28.1617 21.0441 28.1968 21.1742C28.2319 21.3044 28.295 21.4253 28.3816 21.5285C28.47 21.6344 28.5807 21.7193 28.7058 21.7772C28.8309 21.8351 28.9673 21.8645 29.1052 21.8634H32.0953V22.7605H29.1052C28.8377 22.7604 28.5734 22.702 28.3307 22.5895C28.088 22.4769 27.8727 22.3128 27.6999 22.1086C27.5282 21.9059 27.4028 21.6682 27.3326 21.412C27.2624 21.1559 27.2489 20.8874 27.2932 20.6255C27.6102 18.7119 27.8912 16.2959 28.0407 14.6095C28.0533 14.4789 28.0385 14.3471 27.9973 14.2225C27.9561 14.0979 27.8895 13.9833 27.8015 13.8859C27.7128 13.7889 27.6046 13.7116 27.4841 13.6591C27.3636 13.6066 27.2333 13.5799 27.1019 13.5809C26.9135 13.58 26.7294 13.6368 26.5744 13.7437C26.4193 13.8507 26.3008 14.0026 26.2347 14.1789C24.6726 18.0331 22.1558 21.4266 18.921 24.0402Z" fill="#FFF4E6"/>
<path d="M36.3651 26.1691H31.9159C31.4755 26.1675 31.0535 25.9919 30.7421 25.6804C30.4307 25.369 30.255 24.9471 30.2534 24.5066V23.5319C30.255 23.0914 30.4307 22.6695 30.7421 22.358C31.0535 22.0466 31.4755 21.871 31.9159 21.8694H36.3651C36.806 21.8694 37.2289 22.0445 37.5407 22.3563C37.8525 22.6681 38.0276 23.0909 38.0276 23.5319V24.5066C38.0276 24.9475 37.8525 25.3704 37.5407 25.6822C37.2289 25.994 36.806 26.1691 36.3651 26.1691ZM31.9159 22.7664C31.7129 22.7664 31.5182 22.8471 31.3746 22.9906C31.2311 23.1342 31.1504 23.3289 31.1504 23.5319V24.5066C31.1504 24.7096 31.2311 24.9043 31.3746 25.0479C31.5182 25.1914 31.7129 25.2721 31.9159 25.2721H36.3651C36.5681 25.2721 36.7629 25.1914 36.9064 25.0479C37.05 24.9043 37.1306 24.7096 37.1306 24.5066V23.5319C37.1306 23.3289 37.05 23.1342 36.9064 22.9906C36.7629 22.8471 36.5681 22.7664 36.3651 22.7664H31.9159Z" fill="#FFF4E6"/>
<path d="M35.8032 29.5658H31.348C30.9081 29.5658 30.4862 29.3915 30.1746 29.081C29.863 28.7705 29.6871 28.3492 29.6855 27.9093V26.9286C29.6871 26.4887 29.863 26.0674 30.1746 25.7569C30.4862 25.4464 30.9081 25.2721 31.348 25.2721H35.8032C36.2426 25.2721 36.6639 25.4466 36.9746 25.7573C37.2852 26.0679 37.4597 26.4893 37.4597 26.9286V27.9093C37.4597 28.3487 37.2852 28.77 36.9746 29.0807C36.6639 29.3913 36.2426 29.5658 35.8032 29.5658ZM31.348 26.1691C31.146 26.1691 30.9522 26.2489 30.8089 26.3912C30.6655 26.5334 30.5841 26.7266 30.5826 26.9286V27.9093C30.5841 28.1113 30.6655 28.3045 30.8089 28.4467C30.9522 28.589 31.146 28.6688 31.348 28.6688H35.8032C36.0047 28.6688 36.1978 28.5888 36.3403 28.4464C36.4827 28.3039 36.5627 28.1108 36.5627 27.9093V26.9286C36.5627 26.7272 36.4827 26.534 36.3403 26.3916C36.1978 26.2491 36.0047 26.1691 35.8032 26.1691H31.348Z" fill="#FFF4E6"/>
<path d="M35.2352 32.9685H30.78C30.3401 32.967 29.9188 32.7911 29.6083 32.4795C29.2979 32.1679 29.1235 31.746 29.1235 31.3061V30.3313C29.1235 29.8914 29.2979 29.4695 29.6083 29.1579C29.9188 28.8463 30.3401 28.6704 30.78 28.6688H35.2352C35.6757 28.6704 36.0976 28.846 36.409 29.1575C36.7205 29.4689 36.8961 29.8909 36.8977 30.3313V31.3061C36.8961 31.7465 36.7205 32.1684 36.409 32.4799C36.0976 32.7913 35.6757 32.967 35.2352 32.9685ZM30.78 29.5658C30.6798 29.5658 30.5805 29.5857 30.488 29.6242C30.3955 29.6628 30.3115 29.7192 30.2409 29.7904C30.1703 29.8616 30.1145 29.946 30.0766 30.0388C30.0388 30.1317 30.0198 30.2311 30.0206 30.3313V31.3061C30.0198 31.4063 30.0388 31.5057 30.0766 31.5985C30.1145 31.6914 30.1703 31.7758 30.2409 31.847C30.3115 31.9181 30.3955 31.9746 30.488 32.0131C30.5805 32.0517 30.6798 32.0715 30.78 32.0715H35.2352C35.4383 32.0715 35.633 31.9909 35.7765 31.8473C35.9201 31.7038 36.0007 31.5091 36.0007 31.3061V30.3313C36.0007 30.1283 35.9201 29.9336 35.7765 29.79C35.633 29.6465 35.4383 29.5658 35.2352 29.5658H30.78Z" fill="#FFF4E6"/>
<path d="M34.5952 36.3653H30.14C29.7001 36.3653 29.2782 36.1909 28.9666 35.8805C28.655 35.57 28.4791 35.1487 28.4775 34.7088V33.728C28.4791 33.2881 28.655 32.8668 28.9666 32.5563C29.2782 32.2459 29.7001 32.0715 30.14 32.0715H34.5952C35.0346 32.0715 35.4559 32.2461 35.7666 32.5567C36.0772 32.8674 36.2517 33.2887 36.2517 33.728V34.7088C36.2517 35.1481 36.0772 35.5694 35.7666 35.8801C35.4559 36.1908 35.0346 36.3653 34.5952 36.3653ZM30.14 32.9686C29.938 32.9685 29.7443 33.0484 29.6009 33.1906C29.4575 33.3329 29.3761 33.5261 29.3746 33.728V34.7088C29.3761 34.9108 29.4575 35.1039 29.6009 35.2462C29.7443 35.3884 29.938 35.4683 30.14 35.4683H34.5952C34.7967 35.4683 34.9898 35.3882 35.1323 35.2458C35.2747 35.1034 35.3547 34.9102 35.3547 34.7088V33.728C35.3547 33.5266 35.2747 33.3334 35.1323 33.191C34.9898 33.0486 34.7967 32.9686 34.5952 32.9686H30.14Z" fill="#FFF4E6"/>
<path d="M29.5059 36.1021C21.2114 36.1021 18.5204 34.4396 18.4067 34.3679L18.8911 33.6144C18.8911 33.6144 21.5403 35.2051 29.5059 35.2051V36.1021Z" fill="#FFF4E6"/>
</g>
<defs>
<clipPath id="clip0_163_119">
<rect width="50" height="50" fill="white"/>
</clipPath>
</defs>
</svg>
