<svg width="50" height="50" viewBox="0 0 50 50" fill="none" xmlns="http://www.w3.org/2000/svg">
<g clip-path="url(#clip0_163_101)">
<path d="M25.003 50.006C38.8118 50.006 50.006 38.8118 50.006 25.003C50.006 11.1942 38.8118 0 25.003 0C11.1942 0 0 11.1942 0 25.003C0 38.8118 11.1942 50.006 25.003 50.006Z" fill="#49523C"/>
<path d="M25.0448 20.189C24.3621 20.189 23.6947 19.9865 23.1271 19.6071C22.5596 19.2276 22.1173 18.6884 21.8563 18.0575C21.5953 17.4267 21.5274 16.7326 21.661 16.0631C21.7946 15.3936 22.1238 14.7788 22.607 14.2964C23.0902 13.8141 23.7055 13.4859 24.3753 13.3535C25.045 13.221 25.739 13.2902 26.3694 13.5523C26.9998 13.8144 27.5383 14.2576 27.9167 14.8258C28.2951 15.394 28.4965 16.0617 28.4953 16.7444C28.4937 17.6585 28.1295 18.5347 27.4826 19.1805C26.8356 19.8263 25.9589 20.189 25.0448 20.189ZM25.0448 14.1311C24.5279 14.1311 24.0227 14.2844 23.5929 14.5715C23.1631 14.8587 22.8282 15.2668 22.6304 15.7444C22.4326 16.2219 22.3808 16.7473 22.4817 17.2543C22.5825 17.7612 22.8314 18.2268 23.1969 18.5923C23.5624 18.9578 24.028 19.2067 24.5349 19.3075C25.0419 19.4084 25.5673 19.3566 26.0448 19.1588C26.5224 18.961 26.9305 18.6261 27.2177 18.1963C27.5048 17.7666 27.6581 17.2613 27.6581 16.7444C27.6581 16.0513 27.3828 15.3866 26.8927 14.8965C26.4026 14.4064 25.7379 14.1311 25.0448 14.1311Z" fill="#FFF4E6"/>
<path d="M25.045 36.736C24.9573 36.7364 24.8717 36.7088 24.8007 36.6571C24.7297 36.6055 24.6771 36.5326 24.6504 36.449L20.3088 23.4661C20.2866 23.4034 20.2799 23.3363 20.2893 23.2705C20.2986 23.2046 20.3237 23.142 20.3625 23.088C20.4013 23.034 20.4525 22.9901 20.5119 22.9601C20.5712 22.9302 20.637 22.915 20.7035 22.9159H29.3866C29.4531 22.915 29.5188 22.9302 29.5782 22.9601C29.6376 22.9901 29.6888 23.034 29.7276 23.088C29.7663 23.142 29.7915 23.2046 29.8008 23.2705C29.8102 23.3363 29.8035 23.4034 29.7813 23.4661L25.4457 36.4251C25.4231 36.5141 25.3714 36.5931 25.2988 36.6494C25.2262 36.7057 25.1369 36.7362 25.045 36.736ZM21.2596 23.7292L25.0211 34.9779L28.7826 23.7292H21.2596Z" fill="#FFF4E6"/>
<path d="M36.4847 20.189C35.802 20.189 35.1347 19.9865 34.5671 19.6071C33.9995 19.2276 33.5573 18.6884 33.2963 18.0575C33.0353 17.4267 32.9673 16.7326 33.1009 16.0631C33.2345 15.3936 33.5638 14.7788 34.0469 14.2964C34.5301 13.8141 35.1455 13.4859 35.8152 13.3535C36.485 13.221 37.1789 13.2902 37.8093 13.5523C38.4397 13.8144 38.9782 14.2576 39.3567 14.8258C39.7351 15.394 39.9364 16.0617 39.9353 16.7444C39.9353 17.1973 39.846 17.6457 39.6725 18.064C39.499 18.4823 39.2448 18.8623 38.9243 19.1822C38.6038 19.5022 38.2233 19.7558 37.8047 19.9285C37.3861 20.1013 36.9376 20.1898 36.4847 20.189ZM36.4847 14.1311C35.9679 14.1311 35.4626 14.2844 35.0328 14.5715C34.6031 14.8587 34.2681 15.2668 34.0703 15.7444C33.8725 16.2219 33.8208 16.7473 33.9216 17.2543C34.0224 17.7612 34.2713 18.2268 34.6368 18.5923C35.0023 18.9578 35.468 19.2067 35.9749 19.3075C36.4818 19.4084 37.0073 19.3566 37.4848 19.1588C37.9623 18.961 38.3705 18.6261 38.6576 18.1963C38.9448 17.7666 39.098 17.2613 39.098 16.7444C39.098 16.0513 38.8227 15.3866 38.3326 14.8965C37.8425 14.4064 37.1778 14.1311 36.4847 14.1311Z" fill="#FFF4E6"/>
<path d="M36.4849 36.736C36.3973 36.7354 36.3122 36.7074 36.2414 36.656C36.1706 36.6045 36.1177 36.5321 36.0902 36.449L31.7486 23.4661C31.727 23.4032 31.7212 23.3359 31.7316 23.2702C31.742 23.2046 31.7684 23.1424 31.8084 23.0893C31.8468 23.0362 31.8971 22.9929 31.9552 22.9628C32.0134 22.9326 32.0778 22.9166 32.1433 22.9159H40.8265C40.893 22.9156 40.9586 22.9312 41.0179 22.9614C41.0771 22.9916 41.1284 23.0354 41.1673 23.0893C41.206 23.1431 41.2315 23.2052 41.2419 23.2706C41.2523 23.336 41.2472 23.403 41.2271 23.4661L36.8856 36.449C36.8569 36.5325 36.803 36.6051 36.7311 36.6566C36.6593 36.708 36.5732 36.7358 36.4849 36.736ZM32.7234 23.7531L36.4849 35.0018L40.2464 23.7531H32.7234Z" fill="#FFF4E6"/>
<path d="M13.605 20.1889C12.923 20.1854 12.2574 19.9799 11.6922 19.5983C11.127 19.2167 10.6876 18.6763 10.4293 18.0451C10.1711 17.4139 10.1057 16.7204 10.2413 16.0521C10.377 15.3838 10.7076 14.7707 11.1915 14.2901C11.6753 13.8096 12.2907 13.4832 12.96 13.3522C13.6292 13.2212 14.3223 13.2914 14.9516 13.554C15.581 13.8166 16.1184 14.2598 16.4961 14.8276C16.8737 15.3954 17.0746 16.0624 17.0735 16.7444C17.0727 17.1985 16.9822 17.648 16.8074 18.0672C16.6325 18.4863 16.3766 18.8668 16.0544 19.1868C15.7321 19.5068 15.3499 19.7601 14.9296 19.932C14.5092 20.104 14.0591 20.1913 13.605 20.1889ZM13.605 14.1311C13.0878 14.1299 12.582 14.2821 12.1515 14.5686C11.7209 14.855 11.385 15.2627 11.1863 15.7402C10.9876 16.2176 10.935 16.7432 11.0352 17.2505C11.1353 17.7579 11.3837 18.2241 11.749 18.5902C12.1142 18.9562 12.5798 19.2057 13.0869 19.307C13.594 19.4084 14.1198 19.357 14.5977 19.1593C15.0755 18.9617 15.484 18.6268 15.7715 18.1969C16.0589 17.767 16.2123 17.2615 16.2123 16.7444C16.2123 16.0523 15.9378 15.3885 15.449 14.8986C14.9602 14.4087 14.297 14.1326 13.605 14.1311Z" fill="#FFF4E6"/>
<path d="M13.6051 36.736C13.5167 36.7358 13.4306 36.708 13.3588 36.6566C13.287 36.6051 13.233 36.5325 13.2044 36.449L8.86281 23.4661C8.84271 23.403 8.83764 23.336 8.84802 23.2706C8.85841 23.2052 8.88395 23.1431 8.92261 23.0893C8.96157 23.0354 9.01281 22.9916 9.07209 22.9614C9.13136 22.9312 9.19698 22.9156 9.26348 22.9159H17.9467C18.0122 22.9166 18.0766 22.9326 18.1347 22.9628C18.1929 22.9929 18.2432 23.0362 18.2815 23.0893C18.3216 23.1424 18.3479 23.2046 18.3584 23.2702C18.3688 23.3359 18.3629 23.4032 18.3413 23.4661L13.9998 36.449C13.973 36.5326 13.9204 36.6055 13.8494 36.6571C13.7784 36.7087 13.6928 36.7364 13.6051 36.736ZM9.84356 23.7531L13.6051 35.0018L17.3666 23.7531H9.84356Z" fill="#FFF4E6"/>
</g>
<defs>
<clipPath id="clip0_163_101">
<rect width="50" height="50" fill="white"/>
</clipPath>
</defs>
</svg>
