<svg width="50" height="50" viewBox="0 0 50 50" fill="none" xmlns="http://www.w3.org/2000/svg">
<g clip-path="url(#clip0_163_137)">
<path d="M25 50C38.8071 50 50 38.8071 50 25C50 11.1929 38.8071 0 25 0C11.1929 0 0 11.1929 0 25C0 38.8071 11.1929 50 25 50Z" fill="#49523C"/>
<path d="M22.8194 13.2615H21.9839V27.5717H22.8194V13.2615Z" fill="#FFF4E5"/>
<path d="M29.5568 19.9988H15.2466V20.8343H29.5568V19.9988Z" fill="#FFF4E5"/>
<path d="M27.9092 26.5525H27.0737V36.7445H27.9092V26.5525Z" fill="#FFF4E5"/>
<path d="M32.5845 31.2278H22.3984V32.0633H32.5845V31.2278Z" fill="#FFF4E5"/>
<path d="M35.1744 20.4136H34.3389V26.5465H35.1744V20.4136Z" fill="#FFF4E5"/>
<path d="M37.8229 23.0682H31.6899V23.9037H37.8229V23.0682Z" fill="#FFF4E5"/>
<path d="M15.6612 27.0858H14.8257V33.2188H15.6612V27.0858Z" fill="#FFF4E5"/>
<path d="M18.3102 29.7345H12.1772V30.57H18.3102V29.7345Z" fill="#FFF4E5"/>
</g>
<defs>
<clipPath id="clip0_163_137">
<rect width="50" height="50" fill="white"/>
</clipPath>
</defs>
</svg>
