<svg width="50" height="50" viewBox="0 0 50 50" fill="none" xmlns="http://www.w3.org/2000/svg">
<g clip-path="url(#clip0_163_166)">
<path d="M25.003 50.006C38.8118 50.006 50.006 38.8118 50.006 25.003C50.006 11.1942 38.8118 0 25.003 0C11.1942 0 0 11.1942 0 25.003C0 38.8118 11.1942 50.006 25.003 50.006Z" fill="#49523C"/>
<path d="M19.8182 38.0815C19.1482 38.0792 18.4901 37.9041 17.9077 37.5731C17.3252 37.242 16.838 36.7663 16.4932 36.1918C16.0427 35.4737 15.7947 34.6472 15.7756 33.7997C15.7619 33.5186 15.8131 33.2381 15.9251 32.9799C16.037 32.7218 16.2069 32.4927 16.4215 32.3107C16.6996 32.0696 16.9955 31.8497 17.3065 31.6528C18.3909 30.9806 19.2894 30.0471 19.9199 28.9379C20.375 28.1296 20.9704 27.4087 21.678 26.8089C22.423 26.133 23.3993 25.769 24.405 25.7923C25.2877 25.8359 26.1302 26.175 26.797 26.7551C27.5747 27.4166 28.2269 28.2127 28.7226 29.1053C29.3474 30.1609 30.2249 31.0446 31.2762 31.6768C31.4675 31.8023 31.6589 31.9339 31.8443 32.0715C32.1682 32.2879 32.4247 32.5911 32.5844 32.9464C32.7441 33.3017 32.8005 33.6949 32.7473 34.0808C32.6653 35.0051 32.3093 35.8838 31.7247 36.6044C31.3574 37.0656 30.8908 37.438 30.3596 37.6937C29.8285 37.9495 29.2464 38.082 28.6568 38.0815C28.0586 38.0793 27.4669 37.9573 26.9166 37.7227L26.803 37.6808C26.2432 37.457 25.6622 37.2907 25.0688 37.1845C24.2134 37.0652 23.342 37.1429 22.5212 37.4117L21.971 37.5971C21.5421 37.7602 21.1025 37.8941 20.6554 37.9978C20.3802 38.0562 20.0995 38.0843 19.8182 38.0815ZM24.2614 26.7192C23.5152 26.7324 22.8 27.0197 22.2521 27.5265C21.6263 28.0597 21.0999 28.6995 20.6973 29.4163C19.9895 30.6486 18.9893 31.6878 17.7849 32.4422C17.5104 32.6207 17.2504 32.8206 17.0075 33.0402C16.8945 33.137 16.8054 33.2586 16.7473 33.3956C16.6892 33.5326 16.6637 33.6811 16.6726 33.8296C16.6966 34.5096 16.9032 35.1706 17.2706 35.7433C17.5897 36.2812 18.0694 36.7056 18.6423 36.9566C19.2151 37.2076 19.8523 37.2727 20.464 37.1426C20.8698 37.0456 21.2692 36.9238 21.6601 36.7778L22.2222 36.5805C23.1722 36.2699 24.1805 36.18 25.1704 36.3174C25.8146 36.4255 26.4458 36.5999 27.0542 36.8376L27.2276 36.8974C27.6802 37.0872 28.1661 37.1848 28.6568 37.1845C29.1151 37.1929 29.5691 37.0959 29.9838 36.901C30.3986 36.706 30.763 36.4184 31.0489 36.0602C31.5209 35.4709 31.808 34.7552 31.8742 34.003C31.9109 33.7829 31.8823 33.5569 31.7919 33.3528C31.7016 33.1488 31.5535 32.9757 31.3659 32.8549C31.1625 32.7054 30.9951 32.5798 30.8157 32.4721C29.6452 31.7588 28.6677 30.769 27.9691 29.5897C27.5294 28.7881 26.9455 28.0745 26.2468 27.4847C25.7319 27.0295 25.0792 26.7599 24.393 26.7192H24.2614Z" fill="#FFF4E6"/>
<path d="M28.2203 24.2674C28.0042 24.2659 27.7884 24.2499 27.5744 24.2195C26.918 24.1261 26.3044 23.8388 25.8122 23.3945C25.32 22.9503 24.9716 22.3693 24.8116 21.7258C24.5736 20.9722 24.4664 20.1834 24.4946 19.3936C24.4607 18.033 24.6817 16.678 25.1465 15.3988C25.3451 14.8525 25.6523 14.3521 26.0495 13.9277C26.2529 13.6899 26.5093 13.5033 26.7981 13.3828C27.0869 13.2623 27.3999 13.2113 27.712 13.234C28.1707 13.2878 28.6054 13.4679 28.9678 13.7543C29.7018 14.3203 30.3021 15.041 30.7259 15.8653C31.3514 16.925 31.7277 18.1131 31.8263 19.3397C31.9101 20.3996 31.7033 21.4623 31.2283 22.4135C30.9588 22.9795 30.5315 23.4555 29.9979 23.7844C29.4643 24.1133 28.847 24.281 28.2203 24.2674ZM27.5385 14.1011C27.3758 14.1077 27.2164 14.149 27.071 14.2222C26.9256 14.2955 26.7975 14.3989 26.6953 14.5257C26.3789 14.8716 26.1368 15.2786 25.9837 15.7217C25.5549 16.8971 25.352 18.1429 25.3857 19.3936C25.362 20.0815 25.453 20.7687 25.6548 21.4268C25.7612 21.9139 26.0142 22.3567 26.3799 22.6956C26.7455 23.0346 27.2062 23.2533 27.7 23.3225C28.2401 23.4359 28.8025 23.3678 29.2999 23.1288C29.7973 22.8898 30.2019 22.4934 30.4509 22.0009C30.8415 21.1842 31.0047 20.2772 30.9233 19.3756C30.8339 18.2852 30.4964 17.2298 29.9366 16.2899C29.5744 15.5785 29.0599 14.9557 28.4296 14.4659C28.1991 14.2757 27.9189 14.1553 27.6223 14.1191L27.5385 14.1011Z" fill="#FFF4E6"/>
<path d="M20.3207 24.2734C19.5998 24.2893 18.8932 24.0705 18.3074 23.6498C17.7217 23.2291 17.2886 22.6294 17.0735 21.9411C16.5823 20.567 16.5654 19.068 17.0257 17.6833C17.38 16.4759 17.9921 15.3598 18.8197 14.4121C19.1938 13.9638 19.6694 13.6112 20.2071 13.3835C20.5391 13.241 20.9048 13.1956 21.2616 13.2528C21.6184 13.31 21.9516 13.4673 22.2224 13.7064C22.7476 14.1583 23.142 14.7427 23.3646 15.3988C23.8192 16.6309 24.0402 17.937 24.0165 19.25C24.0622 20.1618 23.9302 21.0738 23.6277 21.9351C23.4791 22.4246 23.2169 22.872 22.8625 23.241C22.5081 23.6099 22.0716 23.8899 21.5885 24.0581C21.18 24.1966 20.7521 24.2693 20.3207 24.2734ZM20.9905 14.1071C20.8446 14.1099 20.7005 14.1403 20.5659 14.1968C20.1574 14.3783 19.7954 14.6502 19.5074 14.9922C18.7609 15.8452 18.2062 16.8485 17.8808 17.9344C17.4687 19.1346 17.4729 20.4386 17.8928 21.6361C18.0034 21.9709 18.1817 22.2792 18.4168 22.5419C18.6518 22.8047 18.9385 23.0162 19.2589 23.1632C19.5793 23.3102 19.9266 23.3896 20.279 23.3964C20.6315 23.4033 20.9816 23.3374 21.3074 23.2029C21.6628 23.0738 21.9824 22.8624 22.2402 22.5858C22.498 22.3093 22.6866 21.9757 22.7905 21.6122C23.0519 20.8556 23.1636 20.0553 23.1194 19.256C23.1431 18.0509 22.9402 16.852 22.5214 15.7217C22.3518 15.2103 22.0507 14.7525 21.6483 14.3942C21.4664 14.2318 21.2341 14.1367 20.9905 14.1251V14.1071Z" fill="#FFF4E6"/>
<path d="M15.2375 31.3419C14.6039 31.3299 13.9876 31.1334 13.464 30.7765C12.9404 30.4197 12.5321 29.9179 12.2893 29.3326C11.8258 28.3803 11.602 27.3293 11.6374 26.2708C11.6709 25.0102 12.0161 23.7774 12.6421 22.6827C12.8472 22.3407 13.101 22.0305 13.3956 21.7618C13.6819 21.4848 14.0538 21.3131 14.4503 21.2751C14.8469 21.2371 15.2446 21.3349 15.5783 21.5524C16.238 21.9588 16.7785 22.5324 17.1451 23.2149C17.7051 24.1906 18.1087 25.2479 18.3412 26.3485C18.5235 27.0997 18.5701 27.8774 18.4787 28.6449C18.3952 29.2939 18.1084 29.8998 17.6594 30.3757C17.2103 30.8516 16.622 31.1732 15.979 31.2941C15.7341 31.3357 15.4856 31.3517 15.2375 31.3419ZM12.5344 26.2768C12.4973 27.1923 12.6884 28.1027 13.0906 28.926C13.6886 30.122 14.6155 30.6243 15.7996 30.3851C16.2601 30.3005 16.6819 30.0719 17.0043 29.7324C17.3267 29.3928 17.533 28.9597 17.5936 28.4954C17.6738 27.8335 17.6312 27.1624 17.4681 26.516C17.2593 25.5076 16.8919 24.5388 16.3797 23.6455C16.0902 23.0976 15.6637 22.6341 15.1418 22.3C14.9726 22.1754 14.7637 22.117 14.5544 22.1357C14.3451 22.1544 14.1499 22.249 14.0056 22.4017C13.7689 22.6025 13.5669 22.8409 13.4075 23.1073C12.8458 24.0711 12.5372 25.1615 12.5105 26.2768H12.5344Z" fill="#FFF4E6"/>
<path d="M33.2915 31.348H33.1241C32.6151 31.3284 32.1177 31.1914 31.6705 30.9476C31.2234 30.7038 30.8387 30.3598 30.5466 29.9427C30.1172 29.2232 29.9326 28.3839 30.0204 27.5506C30.1587 25.895 30.6985 24.298 31.5931 22.898C31.9054 22.3846 32.3283 21.9474 32.831 21.6183C33.2051 21.3511 33.6647 21.2314 34.1215 21.2822C34.5784 21.3329 35.0005 21.5506 35.3068 21.8934C35.8425 22.4735 36.2375 23.1693 36.461 23.9266C36.7495 24.7782 36.8989 25.6707 36.9035 26.5698C36.9245 27.8613 36.5164 29.1232 35.7434 30.1579C35.4582 30.5364 35.0872 30.8417 34.6609 31.0486C34.2346 31.2555 33.7652 31.3581 33.2915 31.348ZM33.9254 22.1445C33.7102 22.1558 33.5027 22.2285 33.3274 22.3538C32.9361 22.6134 32.6073 22.9566 32.3646 23.3585C31.5473 24.6379 31.0547 26.0974 30.9293 27.6104C30.8568 28.2574 30.9975 28.9104 31.33 29.4702C31.5448 29.7645 31.8241 30.0059 32.1464 30.1759C32.4687 30.3459 32.8256 30.4399 33.1898 30.4509C33.5469 30.4749 33.9043 30.4079 34.2285 30.2563C34.5527 30.1047 34.8332 29.8733 35.0437 29.5838C35.7011 28.7071 36.0464 27.6356 36.0244 26.5399C36.0208 25.7404 35.8875 24.9467 35.6297 24.1898C35.4507 23.5616 35.1271 22.9841 34.6849 22.5033C34.5902 22.394 34.4737 22.3057 34.343 22.2439C34.2122 22.1821 34.07 22.1483 33.9254 22.1445Z" fill="#FFF4E6"/>
</g>
<defs>
<clipPath id="clip0_163_166">
<rect width="50" height="50" fill="white"/>
</clipPath>
</defs>
</svg>
