<svg width="50" height="50" viewBox="0 0 50 50" fill="none" xmlns="http://www.w3.org/2000/svg">
<g clip-path="url(#clip0_163_65)">
<path d="M25.003 50.006C38.8118 50.006 50.006 38.8118 50.006 25.003C50.006 11.1942 38.8118 0 25.003 0C11.1942 0 0 11.1942 0 25.003C0 38.8118 11.1942 50.006 25.003 50.006Z" fill="#49523C"/>
<path d="M24.9969 40.8803C20.7864 40.8755 16.7498 39.2004 13.7731 36.2225C10.7964 33.2447 9.12279 29.2075 9.11963 24.997C9.12438 20.7875 10.7987 16.7518 13.7752 13.7753C16.7518 10.7988 20.7875 9.12447 24.9969 9.11972C29.2074 9.12289 33.2446 10.7965 36.2225 13.7732C39.2003 16.7499 40.8754 20.7865 40.8802 24.997C40.877 29.2085 39.2026 33.2467 36.2246 36.2247C33.2466 39.2027 29.2085 40.8771 24.9969 40.8803ZM24.9969 10.0167C21.0254 10.0215 17.2178 11.6013 14.4095 14.4096C11.6012 17.2179 10.0214 21.0254 10.0167 24.997C10.0198 28.9696 11.5989 32.7787 14.4074 35.5883C17.2159 38.3979 21.0243 39.9785 24.9969 39.9832C28.9701 39.9785 32.7791 38.3981 35.5885 35.5886C38.398 32.7792 39.9784 28.9701 39.9832 24.997C39.9784 21.0244 38.3978 17.216 35.5882 14.4075C32.7786 11.599 28.9695 10.0199 24.9969 10.0167Z" fill="#FFF4E6"/>
<path d="M25.4517 9.56824H24.5547V12.1935H25.4517V9.56824Z" fill="#FFF4E6"/>
<path d="M25.4517 37.8125H24.5547V40.4378H25.4517V37.8125Z" fill="#FFF4E6"/>
<path d="M12.1936 24.5545H9.56836V25.4515H12.1936V24.5545Z" fill="#FFF4E6"/>
<path d="M40.4378 24.5545H37.8125V25.4515H40.4378V24.5545Z" fill="#FFF4E6"/>
<path d="M33.856 17.9054L25.9473 24.2551L26.5089 24.9546L34.4176 18.6049L33.856 17.9054Z" fill="#FFF4E6"/>
<path d="M20.2196 19.8797L19.5674 20.4955L23.5747 24.7391L24.2269 24.1232L20.2196 19.8797Z" fill="#FFF4E6"/>
<path d="M14.3886 13.774L13.7544 14.4084L14.9809 15.6345L15.6151 15.0001L14.3886 13.774Z" fill="#FFF4E6"/>
<path d="M35.5476 13.7678L34.3213 14.994L34.9556 15.6283L36.1819 14.402L35.5476 13.7678Z" fill="#FFF4E6"/>
<path d="M34.9507 34.4151L34.3164 35.0493L35.5427 36.2756L36.177 35.6413L34.9507 34.4151Z" fill="#FFF4E6"/>
<path d="M14.9973 34.4128L13.771 35.6391L14.4053 36.2734L15.6316 35.0471L14.9973 34.4128Z" fill="#FFF4E6"/>
<path d="M24.997 27.6522C24.4524 27.6506 23.9307 27.4332 23.5462 27.0475C23.1617 26.6619 22.9458 26.1396 22.9458 25.595C22.9474 25.0515 23.164 24.5307 23.5483 24.1463C23.9327 23.762 24.4535 23.5454 24.997 23.5438C25.5416 23.5438 26.0639 23.7597 26.4495 24.1442C26.8351 24.5287 27.0526 25.0505 27.0542 25.595C27.0542 26.1406 26.8374 26.6638 26.4516 27.0496C26.0658 27.4354 25.5426 27.6522 24.997 27.6522ZM24.997 24.4408C24.6914 24.4424 24.3987 24.5645 24.1826 24.7806C23.9665 24.9967 23.8444 25.2894 23.8428 25.595C23.8428 25.9017 23.9642 26.1958 24.1805 26.4132C24.3968 26.6306 24.6903 26.7536 24.997 26.7552C25.3047 26.7552 25.5998 26.6329 25.8173 26.4154C26.0349 26.1978 26.1571 25.9027 26.1571 25.595C26.1556 25.2884 26.0326 24.9948 25.8152 24.7785C25.5978 24.5622 25.3037 24.4408 24.997 24.4408Z" fill="#FFF4E6"/>
</g>
<defs>
<clipPath id="clip0_163_65">
<rect width="50" height="50" fill="white"/>
</clipPath>
</defs>
</svg>
