<svg width="50" height="50" viewBox="0 0 50 50" fill="none" xmlns="http://www.w3.org/2000/svg">
<g clip-path="url(#clip0_163_85)">
<path d="M25.003 50.006C38.8118 50.006 50.006 38.8118 50.006 25.003C50.006 11.1942 38.8118 0 25.003 0C11.1942 0 0 11.1942 0 25.003C0 38.8118 11.1942 50.006 25.003 50.006Z" fill="#49523C"/>
<path d="M13.4495 35.3127C12.4397 35.3112 11.4717 34.9093 10.7576 34.1953C10.0436 33.4812 9.64172 32.5132 9.64014 31.5034C9.64172 30.4941 10.0438 29.5267 10.758 28.8136C11.4722 28.1005 12.4402 27.7 13.4495 27.7C14.4577 27.7016 15.4242 28.1028 16.1371 28.8157C16.8501 29.5287 17.2513 30.4952 17.2529 31.5034C17.2513 32.5122 16.8503 33.4793 16.1375 34.1932C15.4247 34.907 14.4583 35.3096 13.4495 35.3127ZM13.4495 28.597C12.6781 28.597 11.9383 28.903 11.3923 29.4479C10.8463 29.9928 10.5387 30.732 10.5372 31.5034C10.5387 32.2753 10.8461 33.0151 11.3919 33.561C11.9377 34.1068 12.6776 34.4141 13.4495 34.4157C14.2209 34.4141 14.9601 34.1066 15.505 33.5606C16.0498 33.0146 16.3558 32.2748 16.3558 31.5034C16.3543 30.7331 16.0476 29.9947 15.5028 29.45C14.9581 28.9053 14.2198 28.5986 13.4495 28.597Z" fill="#FFF4E6"/>
<path d="M36.7121 35.3127C35.7028 35.3112 34.7354 34.9091 34.0223 34.1949C33.3092 33.4807 32.9087 32.5127 32.9087 31.5034C32.9087 30.4947 33.3094 29.5273 34.0227 28.814C34.7359 28.1007 35.7033 27.7 36.7121 27.7C37.7208 27.7 38.6882 28.1007 39.4015 28.814C40.1147 29.5273 40.5154 30.4947 40.5154 31.5034C40.5154 32.5127 40.1149 33.4807 39.4018 34.1949C38.6887 34.9091 37.7213 35.3112 36.7121 35.3127ZM36.7121 28.597C35.9417 28.5986 35.2034 28.9053 34.6587 29.45C34.114 29.9947 33.8073 30.7331 33.8057 31.5034C33.8057 32.2748 34.1117 33.0146 34.6566 33.5606C35.2015 34.1066 35.9407 34.4141 36.7121 34.4157C37.4834 34.4141 38.2227 34.1066 38.7675 33.5606C39.3124 33.0146 39.6184 32.2748 39.6184 31.5034C39.6168 30.7331 39.3101 29.9947 38.7654 29.45C38.2207 28.9053 37.4824 28.5986 36.7121 28.597Z" fill="#FFF4E6"/>
<path d="M10.0883 31.9519H7.69628C7.46775 31.9519 7.24146 31.9069 7.03033 31.8195C6.8192 31.732 6.62735 31.6038 6.46576 31.4422C6.30416 31.2806 6.17598 31.0888 6.08852 30.8777C6.00107 30.6665 5.95605 30.4403 5.95605 30.2117C5.95605 29.7502 6.1394 29.3076 6.46576 28.9812C6.79211 28.6548 7.23474 28.4715 7.69628 28.4715H11.3262V29.3685H7.69628C7.47265 29.3685 7.25818 29.4574 7.10005 29.6155C6.94192 29.7736 6.85308 29.9881 6.85308 30.2117C6.85308 30.4354 6.94192 30.6498 7.10005 30.8079C7.25818 30.9661 7.47265 31.0549 7.69628 31.0549H10.0883V31.9519Z" fill="#FFF4E6"/>
<path d="M42.3275 31.9519H40.0849V31.0549H42.3394C42.5626 31.0534 42.7762 30.964 42.934 30.8062C43.0917 30.6484 43.1811 30.4349 43.1827 30.2117C43.1827 30.1 43.1605 29.9893 43.1173 29.8863C43.0742 29.7832 43.011 29.6897 42.9315 29.6112C42.8519 29.5328 42.7575 29.4709 42.6538 29.4292C42.5502 29.3876 42.4392 29.3669 42.3275 29.3685H38.853V28.4715H42.3275C42.556 28.4715 42.7823 28.5165 42.9934 28.604C43.2046 28.6914 43.3964 28.8196 43.558 28.9812C43.7196 29.1428 43.8478 29.3346 43.9352 29.5458C44.0227 29.7569 44.0677 29.9832 44.0677 30.2117C44.0661 30.6728 43.8823 31.1145 43.5563 31.4405C43.2303 31.7665 42.7885 31.9504 42.3275 31.9519Z" fill="#FFF4E6"/>
<path d="M33.3572 31.0549H16.8042V31.9519H33.3572V31.0549Z" fill="#FFF4E6"/>
<path d="M34.5713 28.4715H15.5903V29.3685H34.5713V28.4715Z" fill="#FFF4E6"/>
<path d="M43.619 29.2429H42.722V25.9539C42.7206 25.6655 42.6269 25.3852 42.4548 25.1538C42.2826 24.9225 42.041 24.7523 41.7652 24.6681L36.6462 23.1432H10.0046C9.64779 23.1432 9.30555 23.2849 9.05321 23.5373C8.80087 23.7896 8.65911 24.1319 8.65911 24.4887V28.92H7.79199V24.4887C7.79199 23.8939 8.02826 23.3235 8.44882 22.903C8.86938 22.4824 9.43978 22.2462 10.0345 22.2462H36.8077L42.0522 23.813C42.5128 23.9514 42.9166 24.2343 43.2041 24.6198C43.4915 25.0053 43.6475 25.473 43.6489 25.9539L43.619 29.2429Z" fill="#FFF4E6"/>
<path d="M15.0821 22.9757L14.3765 22.4196L17.7253 18.1976H22.5334V19.0946H18.1559L15.0821 22.9757Z" fill="#FFF4E6"/>
<path d="M37.1605 28.1724H36.2635V22.892L31.6648 17.7072V16.7085C31.6648 16.5321 31.6299 16.3574 31.5623 16.1945C31.4946 16.0316 31.3954 15.8836 31.2703 15.7592C31.1453 15.6347 30.9969 15.5362 30.8337 15.4692C30.6705 15.4022 30.4957 15.3682 30.3193 15.3689H24.3391C23.9838 15.3689 23.6431 15.5101 23.3919 15.7613C23.1407 16.0125 22.9996 16.3532 22.9996 16.7085V22.6886H22.1025V16.7085C22.1041 16.1158 22.3403 15.5478 22.7594 15.1287C23.1785 14.7096 23.7464 14.4735 24.3391 14.4719H30.3193C30.913 14.4719 31.4825 14.7074 31.9029 15.1266C32.3233 15.5459 32.5602 16.1148 32.5618 16.7085V17.3663L37.1605 22.5511V28.1724Z" fill="#FFF4E6"/>
<path d="M32.1134 16.9178H22.5332V17.8149H32.1134V16.9178Z" fill="#FFF4E6"/>
<path d="M26.4683 29.1891L24.5547 26.6475V17.3663H25.4517V26.3485L27.186 28.6509L26.4683 29.1891Z" fill="#FFF4E6"/>
<path d="M9.586 26.2528H8.20459V25.3558H9.586C9.78267 25.3558 9.97129 25.2777 10.1104 25.1386C10.2494 24.9996 10.3275 24.8109 10.3275 24.6143V22.6946H11.2246V24.6143C11.2246 24.8294 11.1822 25.0425 11.0998 25.2413C11.0175 25.4401 10.8968 25.6208 10.7446 25.7729C10.5925 25.9251 10.4119 26.0458 10.2131 26.1281C10.0143 26.2104 9.80118 26.2528 9.586 26.2528Z" fill="#FFF4E6"/>
<path d="M43.1709 26.7492H41.2811C40.8466 26.7492 40.4298 26.5766 40.1225 26.2693C39.8152 25.962 39.6426 25.5452 39.6426 25.1107V23.6993H40.5396V25.1107C40.5412 25.3068 40.6198 25.4946 40.7585 25.6333C40.8972 25.772 41.085 25.8506 41.2811 25.8522H43.1948L43.1709 26.7492Z" fill="#FFF4E6"/>
<path d="M30.1878 24.5545H27.0542V25.4515H30.1878V24.5545Z" fill="#FFF4E6"/>
</g>
<defs>
<clipPath id="clip0_163_85">
<rect width="50" height="50" fill="white"/>
</clipPath>
</defs>
</svg>
