<svg width="50" height="50" viewBox="0 0 50 50" fill="none" xmlns="http://www.w3.org/2000/svg">
<g clip-path="url(#clip0_163_109)">
<path d="M25.003 50.006C38.8118 50.006 50.006 38.8118 50.006 25.003C50.006 11.1942 38.8118 0 25.003 0C11.1942 0 0 11.1942 0 25.003C0 38.8118 11.1942 50.006 25.003 50.006Z" fill="#49523C"/>
<path d="M16.4273 23.4362C15.3171 23.4362 14.2523 22.9951 13.4673 22.2101C12.6823 21.425 12.2412 20.3603 12.2412 19.2501C12.2412 18.1398 12.6823 17.0751 13.4673 16.2901C14.2523 15.505 15.3171 15.064 16.4273 15.064C17.5375 15.064 18.6023 15.505 19.3873 16.2901C20.1724 17.0751 20.6134 18.1398 20.6134 19.2501C20.6134 20.3603 20.1724 21.425 19.3873 22.2101C18.6023 22.9951 17.5375 23.4362 16.4273 23.4362ZM16.4273 15.9251C15.5507 15.9267 14.7105 16.2756 14.0906 16.8955C13.4708 17.5153 13.1219 18.3555 13.1203 19.2321C13.1219 20.1087 13.4708 20.949 14.0906 21.5688C14.7105 22.1886 15.5507 22.5376 16.4273 22.5391C17.3039 22.5376 18.1441 22.1886 18.764 21.5688C19.3838 20.949 19.7328 20.1087 19.7343 19.2321C19.7328 18.3555 19.3838 17.5153 18.764 16.8955C18.1441 16.2756 17.3039 15.9267 16.4273 15.9251Z" fill="#FFF4E6"/>
<path d="M33.4527 21.7079C32.3425 21.7079 31.2777 21.2669 30.4927 20.4818C29.7076 19.6968 29.2666 18.632 29.2666 17.5218C29.2666 16.4116 29.7076 15.3468 30.4927 14.5618C31.2777 13.7767 32.3425 13.3357 33.4527 13.3357C34.5629 13.3357 35.6277 13.7767 36.4127 14.5618C37.1978 15.3468 37.6388 16.4116 37.6388 17.5218C37.6388 18.632 37.1978 19.6968 36.4127 20.4818C35.6277 21.2669 34.5629 21.7079 33.4527 21.7079ZM33.4527 14.1968C32.5761 14.1984 31.7359 14.5473 31.116 15.1672C30.4962 15.787 30.1473 16.6273 30.1457 17.5039C30.1473 18.3804 30.4962 19.2207 31.116 19.8405C31.7359 20.4604 32.5761 20.8093 33.4527 20.8109C34.3293 20.8093 35.1695 20.4604 35.7894 19.8405C36.4092 19.2207 36.7581 18.3804 36.7597 17.5039C36.7581 16.6273 36.4092 15.787 35.7894 15.1672C35.1695 14.5473 34.3293 14.1984 33.4527 14.1968Z" fill="#FFF4E6"/>
<path d="M32.2213 30.9473C31.111 30.9473 30.0463 30.5062 29.2612 29.7212C28.4762 28.9361 28.0352 27.8714 28.0352 26.7612C28.0352 25.651 28.4762 24.5862 29.2612 23.8012C30.0463 23.0161 31.111 22.5751 32.2213 22.5751C33.3315 22.5751 34.3962 23.0161 35.1813 23.8012C35.9663 24.5862 36.4074 25.651 36.4074 26.7612C36.4074 27.8714 35.9663 28.9361 35.1813 29.7212C34.3962 30.5062 33.3315 30.9473 32.2213 30.9473ZM32.2213 23.4362C31.3447 23.4378 30.5044 23.7867 29.8846 24.4066C29.2647 25.0264 28.9158 25.8666 28.9142 26.7432C28.9158 27.6198 29.2647 28.4601 29.8846 29.0799C30.5044 29.6997 31.3447 30.0487 32.2213 30.0503C33.0978 30.0487 33.9381 29.6997 34.5579 29.0799C35.1778 28.4601 35.5267 27.6198 35.5283 26.7432C35.5267 25.8666 35.1778 25.0264 34.5579 24.4066C33.9381 23.7867 33.0978 23.4378 32.2213 23.4362Z" fill="#FFF4E6"/>
<path d="M24.5665 37.2981C23.4562 37.2981 22.3915 36.8571 21.6064 36.072C20.8214 35.287 20.3804 34.2222 20.3804 33.112C20.3804 32.0018 20.8214 30.937 21.6064 30.152C22.3915 29.3669 23.4562 28.9259 24.5665 28.9259C25.6767 28.9259 26.7414 29.3669 27.5265 30.152C28.3115 30.937 28.7526 32.0018 28.7526 33.112C28.7526 34.2222 28.3115 35.287 27.5265 36.072C26.7414 36.8571 25.6767 37.2981 24.5665 37.2981ZM24.5665 29.787C23.6899 29.7886 22.8496 30.1376 22.2298 30.7574C21.61 31.3772 21.261 32.2175 21.2595 33.0941C21.261 33.9707 21.61 34.8109 22.2298 35.4307C22.8496 36.0506 23.6899 36.3995 24.5665 36.4011C25.4431 36.3995 26.2833 36.0506 26.9031 35.4307C27.523 34.8109 27.8719 33.9707 27.8735 33.0941C27.8719 32.2175 27.523 31.3772 26.9031 30.7574C26.2833 30.1376 25.4431 29.7886 24.5665 29.787Z" fill="#FFF4E6"/>
<path d="M24.9373 17.9524C24.0491 17.9524 23.1973 17.5996 22.5692 16.9715C21.9412 16.3435 21.5884 15.4917 21.5884 14.6035C21.5884 13.7153 21.9412 12.8635 22.5692 12.2355C23.1973 11.6075 24.0491 11.2546 24.9373 11.2546C25.377 11.2546 25.8125 11.3413 26.2188 11.5096C26.6251 11.6779 26.9943 11.9245 27.3053 12.2355C27.6162 12.5465 27.8629 12.9157 28.0312 13.322C28.1995 13.7283 28.2861 14.1637 28.2861 14.6035C28.2861 15.0433 28.1995 15.4788 28.0312 15.8851C27.8629 16.2914 27.6162 16.6606 27.3053 16.9715C26.9943 17.2825 26.6251 17.5292 26.2188 17.6975C25.8125 17.8658 25.377 17.9524 24.9373 17.9524ZM24.9373 12.1517C24.2875 12.1532 23.6647 12.4121 23.2053 12.8715C22.7458 13.331 22.487 13.9537 22.4854 14.6035C22.487 15.2533 22.7458 15.876 23.2053 16.3355C23.6647 16.795 24.2875 17.0538 24.9373 17.0554C25.5871 17.0538 26.2098 16.795 26.6692 16.3355C27.1287 15.876 27.3875 15.2533 27.3891 14.6035C27.3875 13.9537 27.1287 13.331 26.6692 12.8715C26.2098 12.4121 25.5871 12.1532 24.9373 12.1517Z" fill="#FFF4E6"/>
<path d="M24.429 26.3366C23.5413 26.335 22.6904 25.9816 22.0627 25.354C21.435 24.7263 21.0817 23.8754 21.0801 22.9877C21.0801 22.0995 21.4329 21.2477 22.0609 20.6197C22.689 19.9916 23.5408 19.6388 24.429 19.6388C25.3171 19.6388 26.1689 19.9916 26.797 20.6197C27.425 21.2477 27.7778 22.0995 27.7778 22.9877C27.7763 23.8754 27.4229 24.7263 26.7952 25.354C26.1675 25.9816 25.3167 26.335 24.429 26.3366ZM24.429 20.5358C23.7787 20.5358 23.155 20.7941 22.6952 21.254C22.2354 21.7138 21.9771 22.3374 21.9771 22.9877C21.9787 23.6375 22.2375 24.2602 22.697 24.7197C23.1565 25.1791 23.7792 25.438 24.429 25.4395C25.0788 25.438 25.7015 25.1791 26.1609 24.7197C26.6204 24.2602 26.8792 23.6375 26.8808 22.9877C26.8808 22.6657 26.8174 22.3469 26.6942 22.0494C26.571 21.7519 26.3904 21.4816 26.1627 21.254C25.935 21.0263 25.6647 20.8457 25.3672 20.7225C25.0698 20.5992 24.7509 20.5358 24.429 20.5358Z" fill="#FFF4E6"/>
<path d="M32.2571 38.7513C31.3694 38.7498 30.5185 38.3964 29.8908 37.7688C29.2631 37.1411 28.9098 36.2902 28.9082 35.4025C28.9082 34.5137 29.2608 33.6613 29.8887 33.0323C30.5166 32.4034 31.3684 32.0492 32.2571 32.0476C33.1458 32.0492 33.9976 32.4034 34.6255 33.0323C35.2533 33.6613 35.606 34.5137 35.606 35.4025C35.6044 36.2902 35.2511 37.1411 34.6234 37.7688C33.9957 38.3964 33.1448 38.7498 32.2571 38.7513ZM32.2571 32.9446C31.6063 32.9462 30.9826 33.2059 30.523 33.6666C30.0634 34.1274 29.8052 34.7517 29.8052 35.4025C29.8068 36.0523 30.0656 36.675 30.5251 37.1345C30.9846 37.5939 31.6073 37.8527 32.2571 37.8543C32.9069 37.8527 33.5296 37.5939 33.9891 37.1345C34.4485 36.675 34.7074 36.0523 34.709 35.4025C34.709 34.7517 34.4508 34.1274 33.9912 33.6666C33.5315 33.2059 32.9079 32.9462 32.2571 32.9446Z" fill="#FFF4E6"/>
<path d="M17.7668 31.2522C16.8787 31.2522 16.0269 30.8994 15.3988 30.2714C14.7708 29.6433 14.418 28.7915 14.418 27.9033C14.418 27.4635 14.5046 27.0281 14.6729 26.6218C14.8412 26.2155 15.0879 25.8463 15.3988 25.5353C15.7098 25.2243 16.079 24.9777 16.4853 24.8094C16.8916 24.6411 17.3271 24.5544 17.7668 24.5544C18.2066 24.5544 18.6421 24.6411 19.0484 24.8094C19.4547 24.9777 19.8239 25.2243 20.1349 25.5353C20.4458 25.8463 20.6925 26.2155 20.8608 26.6218C21.0291 27.0281 21.1157 27.4635 21.1157 27.9033C21.1157 28.7915 20.7629 29.6433 20.1349 30.2714C19.5068 30.8994 18.655 31.2522 17.7668 31.2522ZM17.7668 25.4515C17.117 25.453 16.4943 25.7119 16.0349 26.1714C15.5754 26.6308 15.3166 27.2535 15.315 27.9033C15.3166 28.5531 15.5754 29.1758 16.0349 29.6353C16.4943 30.0948 17.117 30.3536 17.7668 30.3552C18.4166 30.3536 19.0394 30.0948 19.4988 29.6353C19.9583 29.1758 20.2171 28.5531 20.2187 27.9033C20.2171 27.2535 19.9583 26.6308 19.4988 26.1714C19.0394 25.7119 18.4166 25.453 17.7668 25.4515Z" fill="#FFF4E6"/>
</g>
<defs>
<clipPath id="clip0_163_109">
<rect width="50" height="50" fill="white"/>
</clipPath>
</defs>
</svg>
