<svg width="50" height="50" viewBox="0 0 50 50" fill="none" xmlns="http://www.w3.org/2000/svg">
<g clip-path="url(#clip0_163_157)">
<path d="M25.003 50.006C38.8118 50.006 50.006 38.8118 50.006 25.003C50.006 11.1942 38.8118 0 25.003 0C11.1942 0 0 11.1942 0 25.003C0 38.8118 11.1942 50.006 25.003 50.006Z" fill="#49523C"/>
<path d="M16.0209 40.3122C15.7586 40.3126 15.4993 40.2555 15.2615 40.1448C15.0466 40.0453 14.8535 39.9042 14.6934 39.7297C14.5333 39.5553 14.4093 39.3508 14.3286 39.1282L14.0774 38.4584C13.9937 38.2355 13.9552 37.9982 13.9642 37.7603C13.9731 37.5224 14.0293 37.2887 14.1295 37.0727C14.2297 36.8567 14.3719 36.6629 14.5477 36.5024C14.7236 36.342 14.9296 36.2181 15.1538 36.1381L33.9195 29.243C34.1419 29.1601 34.3785 29.1222 34.6156 29.1315C34.8527 29.1407 35.0857 29.1969 35.3009 29.2968C35.5169 29.3957 35.7112 29.5364 35.8723 29.7109C36.0335 29.8854 36.1584 30.0903 36.2398 30.3134L36.485 30.9892C36.5688 31.2117 36.6076 31.4486 36.599 31.6862C36.5905 31.9238 36.5348 32.1574 36.4352 32.3733C36.3356 32.5892 36.1941 32.7831 36.0189 32.9438C35.8436 33.1045 35.6382 33.2289 35.4146 33.3095L16.6429 40.1747C16.4458 40.2585 16.235 40.3052 16.0209 40.3122ZM34.5594 30.0264C34.4511 30.0284 34.344 30.0486 34.2425 30.0862L15.4768 36.9813C15.3608 37.0218 15.2543 37.0853 15.1636 37.1681C15.0729 37.2509 14.9999 37.3512 14.9491 37.463C14.8982 37.5748 14.8705 37.6957 14.8677 37.8185C14.8648 37.9412 14.8869 38.0633 14.9326 38.1773L15.1837 38.8471C15.2656 39.0732 15.4332 39.2579 15.6502 39.3614C15.7608 39.4086 15.8798 39.4329 16 39.4329C16.1203 39.4329 16.2393 39.4086 16.3498 39.3614L35.1155 32.4723C35.231 32.4312 35.3369 32.3672 35.4269 32.2841C35.517 32.2011 35.5893 32.1007 35.6396 31.989C35.6898 31.8772 35.717 31.7565 35.7195 31.634C35.7219 31.5116 35.6995 31.3898 35.6538 31.2762L35.4086 30.6005C35.3675 30.4886 35.3046 30.3861 35.2235 30.2988C35.1424 30.2115 35.0447 30.1413 34.9361 30.0922C34.815 30.0339 34.6818 30.0052 34.5474 30.0084L34.5594 30.0264Z" fill="#FFF4E6"/>
<path d="M34.3139 40.2045C34.0568 40.207 33.8014 40.1624 33.5604 40.0729L25.1284 36.9812C25.0384 36.9522 24.9599 36.8956 24.9041 36.8193C24.8482 36.7431 24.8179 36.6511 24.8174 36.5566C24.8208 36.4861 24.8402 36.4172 24.8742 36.3553C24.9081 36.2933 24.9557 36.2399 25.0132 36.199C25.0708 36.1581 25.137 36.1309 25.2066 36.1193C25.2763 36.1077 25.3477 36.112 25.4154 36.132L33.8594 39.2297C34.0006 39.2834 34.1508 39.3097 34.3019 39.3075C34.5631 39.3113 34.819 39.2332 35.0335 39.0841C35.248 38.935 35.4105 38.7224 35.4979 38.4762C35.5565 38.3202 35.583 38.154 35.5758 37.9876C35.5686 37.8211 35.5279 37.6578 35.4561 37.5074C35.3874 37.3565 35.289 37.2209 35.1667 37.1089C35.0444 36.9969 34.9008 36.9108 34.7444 36.8556L30.0859 35.1453C30.0277 35.1255 29.9741 35.0939 29.9286 35.0525C29.8831 35.0111 29.8467 34.9608 29.8214 34.9047C29.7962 34.8487 29.7827 34.788 29.7819 34.7265C29.7811 34.665 29.793 34.604 29.8168 34.5473C29.8366 34.4891 29.8682 34.4355 29.9096 34.39C29.9509 34.3445 30.0012 34.308 30.0573 34.2828C30.1134 34.2575 30.1741 34.2441 30.2356 34.2433C30.2971 34.2425 30.3581 34.2544 30.4148 34.2782L35.0793 35.9885C35.3426 36.0867 35.5839 36.2361 35.7891 36.4281C35.9944 36.62 36.1597 36.8507 36.2753 37.1068C36.3962 37.3644 36.4648 37.6435 36.4771 37.9278C36.4894 38.2122 36.4452 38.4961 36.3471 38.7633C36.1965 39.1828 35.9208 39.5459 35.5572 39.8037C35.1935 40.0614 34.7596 40.2013 34.3139 40.2045Z" fill="#FFF4E6"/>
<path d="M20.3027 35.1752C20.2512 35.1843 20.1986 35.1843 20.1472 35.1752L15.4886 33.4589C14.9579 33.2588 14.5279 32.8568 14.2926 32.3407C14.1718 32.083 14.1032 31.8039 14.0909 31.5196C14.0786 31.2353 14.1227 30.9513 14.2209 30.6841C14.3754 30.2691 14.6528 29.9111 15.0161 29.6579C15.3794 29.4046 15.8113 29.2682 16.2541 29.2669C16.5135 29.2663 16.7709 29.3129 17.0136 29.4044L25.4635 32.5081C25.5212 32.5285 25.5741 32.5605 25.619 32.6022C25.6638 32.6438 25.6997 32.6942 25.7243 32.7502C25.749 32.8062 25.7619 32.8667 25.7623 32.9279C25.7627 32.9891 25.7506 33.0498 25.7267 33.1061C25.707 33.1643 25.6754 33.2178 25.6339 33.2632C25.5924 33.3085 25.5419 33.3447 25.4856 33.3695C25.4294 33.3942 25.3686 33.407 25.3071 33.407C25.2457 33.4069 25.1849 33.3941 25.1287 33.3692L16.6727 30.2655C16.5315 30.2119 16.3813 30.1855 16.2302 30.1878C15.97 30.1883 15.7161 30.2682 15.5024 30.4167C15.2887 30.5652 15.1254 30.7753 15.0342 31.019C14.9192 31.3347 14.9342 31.6832 15.076 31.9878C15.2178 32.2919 15.4734 32.5281 15.7877 32.6456L20.4283 34.356C20.5187 34.3841 20.5977 34.4406 20.6537 34.517C20.7097 34.5934 20.7397 34.6858 20.7392 34.7805C20.7263 34.8879 20.675 34.987 20.5947 35.0595C20.5145 35.132 20.4108 35.1731 20.3027 35.1752Z" fill="#FFF4E6"/>
<path d="M22.9517 32.4782C22.8452 32.4782 22.7422 32.4402 22.6612 32.3712C22.5801 32.3022 22.5262 32.2066 22.5092 32.1015C22.5092 31.9639 22.0188 28.7646 23.7052 27.3712C23.7503 27.3329 23.8025 27.304 23.8588 27.286C23.9151 27.268 23.9744 27.2613 24.0333 27.2663C24.0923 27.2713 24.1496 27.2878 24.2021 27.3151C24.2545 27.3423 24.3011 27.3797 24.3391 27.425C24.4142 27.5174 24.4499 27.6356 24.4387 27.7541C24.4276 27.8727 24.3703 27.9821 24.2793 28.0589C22.9936 29.1293 23.4062 31.934 23.4122 31.9639C23.4293 32.0813 23.3993 32.2006 23.3287 32.2958C23.2581 32.3911 23.1527 32.4545 23.0354 32.4722L22.9517 32.4782Z" fill="#FFF4E6"/>
<path d="M27.1377 32.6516H27.054C26.9959 32.6409 26.9406 32.6187 26.8913 32.5863C26.8419 32.5539 26.7996 32.5119 26.7667 32.4629C26.7338 32.4138 26.7111 32.3587 26.6998 32.3007C26.6886 32.2428 26.689 32.1831 26.7012 32.1253C27.2274 29.4223 25.9716 28.0888 25.9178 28.0349C25.8338 27.9509 25.7866 27.8368 25.7866 27.718C25.7866 27.5991 25.8338 27.4852 25.9178 27.4011C25.9589 27.3596 26.0078 27.3268 26.0617 27.3044C26.1156 27.2819 26.1734 27.2704 26.2317 27.2704C26.2901 27.2704 26.3479 27.2819 26.4018 27.3044C26.4557 27.3268 26.5046 27.3596 26.5457 27.4011C26.6115 27.4728 28.1902 29.1054 27.5683 32.2988C27.5468 32.3975 27.4925 32.4861 27.4144 32.5501C27.3362 32.6141 27.2388 32.6499 27.1377 32.6516Z" fill="#FFF4E6"/>
<path d="M29.1893 31.9041H29.0518C28.9395 31.8671 28.8464 31.7873 28.7926 31.6821C28.7389 31.5768 28.7289 31.4546 28.7647 31.342C31.1149 24.0163 26.0797 20.9605 24.9554 20.3804C19.0829 24.106 21.1042 30.8337 21.1939 31.1446C21.2295 31.258 21.2186 31.3809 21.1637 31.4863C21.1087 31.5917 21.0142 31.671 20.9009 31.7068C20.7875 31.7424 20.6645 31.7315 20.5591 31.6766C20.4537 31.6217 20.3745 31.5271 20.3387 31.4137C20.3088 31.336 17.9467 23.5738 24.6983 19.5133C24.7617 19.4792 24.8326 19.4614 24.9046 19.4614C24.9766 19.4614 25.0474 19.4792 25.1109 19.5133C25.1826 19.5133 32.4545 22.8382 29.6199 31.6649C29.5793 31.7424 29.5169 31.8064 29.4404 31.8489C29.3639 31.8914 29.2766 31.9106 29.1893 31.9041Z" fill="#FFF4E6"/>
<path d="M32.6516 30.6363C32.5593 30.6351 32.4697 30.6059 32.3944 30.5526C32.3035 30.4855 32.2418 30.3862 32.2217 30.275C32.2017 30.1638 32.225 30.0491 32.2868 29.9546C33.5747 28.2374 34.2906 26.159 34.3335 24.013C34.3765 21.8669 33.7442 19.7616 32.526 17.9943C32.2928 18.7404 31.9694 19.4553 31.5632 20.1232C31.5189 20.1967 31.4538 20.2554 31.376 20.2916C31.2982 20.3278 31.2114 20.34 31.1266 20.3265C31.0424 20.3152 30.9632 20.2799 30.8985 20.2247C30.8338 20.1696 30.7863 20.0969 30.7618 20.0156C30.002 17.8654 28.6172 15.9912 26.785 14.6334C25.5048 13.6361 24.6004 12.2342 24.2196 10.6566L24.082 10.0586C23.3225 11.153 22.1624 12.5524 21.2115 13.6467C20.793 14.129 20.4881 14.6991 20.3194 15.3149C20.1507 15.9308 20.1224 16.5767 20.2368 17.2049L20.7929 20.3744C20.811 20.4753 20.7935 20.5794 20.7433 20.6689C20.6931 20.7583 20.6134 20.8276 20.5178 20.8648C20.4226 20.9038 20.3169 20.9083 20.2186 20.8778C20.1204 20.8472 20.0359 20.7834 19.9796 20.6973C19.3025 19.7463 18.3634 19.0128 17.2766 18.5863V19.7824C17.2764 20.6012 17.1222 21.4126 16.8221 22.1744L16.3078 23.4841C16.0391 24.1761 15.9102 24.9145 15.9287 25.6567C15.9472 26.3988 16.1126 27.1299 16.4155 27.8077L17.2347 29.6316C17.2598 29.6854 17.274 29.7436 17.2764 29.8028C17.2788 29.8621 17.2695 29.9212 17.2489 29.9768C17.2283 30.0324 17.1969 30.0834 17.1565 30.1268C17.1161 30.1702 17.0675 30.2052 17.0135 30.2297C16.904 30.2782 16.7797 30.2816 16.6677 30.2391C16.5557 30.1965 16.4651 30.1115 16.4155 30.0024L15.5962 28.1785C15.2441 27.392 15.0522 26.5433 15.0316 25.6818C15.0111 24.8204 15.1624 23.9635 15.4766 23.1611L15.9909 21.8515C16.2478 21.1961 16.3797 20.4983 16.3796 19.7943V17.9464C16.3784 17.8781 16.3935 17.8104 16.4237 17.7491C16.4538 17.6877 16.4982 17.6344 16.553 17.5936C16.6066 17.5522 16.669 17.5237 16.7353 17.5102C16.8017 17.4968 16.8702 17.4987 16.9357 17.5159C17.931 17.7997 18.8531 18.2954 19.6388 18.969L19.3517 17.3544C19.217 16.5939 19.2546 15.8129 19.4615 15.0688C19.6685 14.3247 20.0397 13.6364 20.5478 13.0547C21.7923 11.7092 22.9076 10.2496 23.8787 8.69514C23.9239 8.61619 23.9906 8.55176 24.0711 8.50939C24.1516 8.46703 24.2425 8.4485 24.3332 8.45596C24.4242 8.46688 24.5096 8.50539 24.578 8.56633C24.6464 8.62728 24.6946 8.70772 24.7159 8.79683L25.1106 10.4114C25.4453 11.7908 26.2354 13.017 27.3531 13.8919C29.047 15.1736 30.3952 16.8568 31.2761 18.7896C31.5594 18.1832 31.7605 17.5416 31.8741 16.882C31.888 16.7978 31.9249 16.7191 31.9809 16.6546C32.0369 16.5902 32.1097 16.5427 32.1911 16.5172C32.273 16.4941 32.3598 16.4947 32.4413 16.5191C32.5228 16.5434 32.5958 16.5905 32.6516 16.6547C32.7054 16.7145 38.2191 23.0535 33.0283 30.4749C32.9829 30.5298 32.925 30.573 32.8595 30.6011C32.7939 30.6292 32.7227 30.6413 32.6516 30.6363Z" fill="#FFF4E6"/>
</g>
<defs>
<clipPath id="clip0_163_157">
<rect width="50" height="50" fill="white"/>
</clipPath>
</defs>
</svg>
