<svg width="50" height="50" viewBox="0 0 50 50" fill="none" xmlns="http://www.w3.org/2000/svg">
<g clip-path="url(#clip0_163_79)">
<path d="M25.003 50.006C38.8118 50.006 50.006 38.8118 50.006 25.003C50.006 11.1942 38.8118 0 25.003 0C11.1942 0 0 11.1942 0 25.003C0 38.8118 11.1942 50.006 25.003 50.006Z" fill="#49523C"/>
<path d="M28.914 36.6762H20.9664V27.9631C20.9456 27.4283 21.033 26.8948 21.2234 26.3946C21.4137 25.8944 21.7031 25.4377 22.0742 25.052C22.4452 24.6663 22.8903 24.3594 23.3828 24.1498C23.8752 23.9402 24.405 23.8322 24.9402 23.8322C25.4754 23.8322 26.0051 23.9402 26.4976 24.1498C26.99 24.3594 27.4351 24.6663 27.8062 25.052C28.1772 25.4377 28.4666 25.8944 28.657 26.3946C28.8473 26.8948 28.9347 27.4283 28.914 27.9631V36.6762ZM21.8036 35.839H28.0528V27.9631C28.0713 27.5397 28.0039 27.1169 27.8546 26.7203C27.7053 26.3236 27.4773 25.9613 27.1842 25.6551C26.8911 25.3489 26.5391 25.1053 26.1493 24.9388C25.7595 24.7724 25.3401 24.6866 24.9163 24.6866C24.4924 24.6866 24.073 24.7724 23.6832 24.9388C23.2934 25.1053 22.9414 25.3489 22.6483 25.6551C22.3552 25.9613 22.1272 26.3236 21.9779 26.7203C21.8286 27.1169 21.7612 27.5397 21.7797 27.9631L21.8036 35.839Z" fill="#FFF4E6"/>
<path d="M37.2085 36.6702H12.666V20.3863H13.5032V35.839H36.3713V20.3863H37.2085V36.6702Z" fill="#FFF4E6"/>
<path d="M40.402 24.4767L24.9373 9.3051L9.59826 24.3452L9.01221 23.7531L24.9373 8.133L40.988 23.8787L40.402 24.4767Z" fill="#FFF4E6"/>
<path d="M24.9374 21.6003C24.2546 21.6003 23.5873 21.3978 23.0197 21.0184C22.4521 20.639 22.0099 20.0997 21.7489 19.4688C21.4879 18.838 21.4199 18.1439 21.5536 17.4744C21.6872 16.8049 22.0164 16.1901 22.4996 15.7077C22.9827 15.2254 23.5981 14.8973 24.2679 14.7648C24.9376 14.6323 25.6316 14.7015 26.262 14.9636C26.8924 15.2257 27.4309 15.6689 27.8093 16.2371C28.1877 16.8053 28.3891 17.473 28.3879 18.1557C28.3879 18.6086 28.2986 19.057 28.1251 19.4753C27.9516 19.8936 27.6974 20.2736 27.3769 20.5935C27.0564 20.9135 26.676 21.1671 26.2574 21.3398C25.8388 21.5126 25.3902 21.6011 24.9374 21.6003ZM24.9374 15.5424C24.4205 15.5424 23.9152 15.6957 23.4855 15.9828C23.0557 16.27 22.7208 16.6781 22.523 17.1557C22.3252 17.6332 22.2734 18.1586 22.3742 18.6656C22.4751 19.1725 22.724 19.6382 23.0895 20.0036C23.4549 20.3691 23.9206 20.618 24.4275 20.7189C24.9345 20.8197 25.4599 20.7679 25.9374 20.5701C26.415 20.3723 26.8231 20.0374 27.1103 19.6076C27.3974 19.1779 27.5507 18.6726 27.5507 18.1557C27.5507 17.4626 27.2753 16.7979 26.7853 16.3078C26.2952 15.8178 25.6305 15.5424 24.9374 15.5424Z" fill="#FFF4E6"/>
</g>
<defs>
<clipPath id="clip0_163_79">
<rect width="50" height="50" fill="white"/>
</clipPath>
</defs>
</svg>
