<svg width="50" height="50" viewBox="0 0 50 50" fill="none" xmlns="http://www.w3.org/2000/svg">
<g clip-path="url(#clip0_163_147)">
<path d="M25.003 50.006C38.8118 50.006 50.006 38.8118 50.006 25.003C50.006 11.1942 38.8118 0 25.003 0C11.1942 0 0 11.1942 0 25.003C0 38.8118 11.1942 50.006 25.003 50.006Z" fill="#49523C"/>
<path d="M12.1935 35.5281L10.4712 33.722L15.034 29.3745L15.4826 29.8469L11.3921 33.746L12.2174 34.6131L16.3138 30.714L16.7563 31.1865L12.1935 35.5281Z" fill="#FFF4E5"/>
<path d="M16.9477 31.33C16.6696 31.3298 16.3944 31.2736 16.1386 31.1647C15.8828 31.0558 15.6515 30.8964 15.4586 30.6961C15.0849 30.3013 14.8827 29.7746 14.8961 29.2311C14.9096 28.6876 15.1376 28.1716 15.5304 27.7957C15.9252 27.422 16.4519 27.2198 16.9954 27.2333C17.5388 27.2467 18.0549 27.4747 18.4308 27.8675C18.6177 28.0617 18.7637 28.2914 18.8603 28.5431C18.9568 28.7948 19.0019 29.0632 18.9929 29.3326C18.9819 29.8672 18.7614 30.3761 18.3789 30.7497C17.9963 31.1233 17.4824 31.3317 16.9477 31.33ZM16.9477 27.8795C16.5866 27.8786 16.2393 28.018 15.9789 28.2682C15.8458 28.395 15.7389 28.5468 15.6645 28.7149C15.5901 28.883 15.5495 29.0642 15.545 29.248C15.5406 29.4318 15.5724 29.6147 15.6386 29.7862C15.7048 29.9577 15.8042 30.1145 15.931 30.2476C16.0579 30.3807 16.2097 30.4875 16.3778 30.562C16.5459 30.6364 16.727 30.677 16.9108 30.6815C17.0946 30.6859 17.2775 30.6541 17.4491 30.5879C17.6206 30.5216 17.7774 30.4223 17.9105 30.2954C18.0444 30.1691 18.1519 30.0174 18.2269 29.8493C18.3018 29.6811 18.3427 29.4998 18.3472 29.3157C18.3516 29.1316 18.3195 28.9485 18.2528 28.7769C18.186 28.6053 18.086 28.4487 17.9583 28.316C17.7021 28.0464 17.3494 27.8895 16.9776 27.8795H16.9477Z" fill="#FFF4E5"/>
<path d="M33.8354 32.7592H33.1836V13.4673L17.9103 27.9632L17.4678 27.4907L33.8354 11.9543V32.7592Z" fill="#FFF4E5"/>
<path d="M28.2803 18.2813C28.0889 18.2813 27.9634 18.2813 27.9395 18.2813L27.9813 17.6355C28.0112 17.6355 30.8279 17.8089 32.299 16.2242C33.0584 15.4109 33.3395 14.2507 33.1302 12.7736L33.7701 12.6839C34.0093 14.3643 33.6744 15.7039 32.7714 16.6727C31.4019 18.1318 29.1414 18.2813 28.2803 18.2813Z" fill="#FFF4E5"/>
<path d="M23.0772 23.209H22.7363L22.7782 22.5571C22.7782 22.5571 25.6247 22.7305 27.0959 21.1518C27.8553 20.3325 28.1304 19.1724 27.9271 17.7012L28.567 17.6115C28.8062 19.286 28.4653 20.6315 27.5683 21.5943C26.1988 23.0834 23.9383 23.209 23.0772 23.209Z" fill="#FFF4E5"/>
<path d="M18.0124 28.0588C17.8969 28.0658 17.781 28.0658 17.6655 28.0588L17.7134 27.413C17.7134 27.413 20.5539 27.5864 22.0251 26.0077C22.7845 25.1884 23.0656 24.0282 22.8563 22.5571L23.5022 22.4674C23.7354 24.1418 23.4005 25.4575 22.4975 26.4502C21.128 27.9093 18.8735 28.0588 18.0124 28.0588Z" fill="#FFF4E5"/>
<path d="M33.5187 34.3978C33.3067 34.3978 33.0995 34.3349 32.9233 34.217C32.7472 34.0991 32.61 33.9315 32.5291 33.7356C32.4483 33.5396 32.4275 33.3241 32.4693 33.1163C32.511 32.9085 32.6136 32.7178 32.7639 32.5683C32.9142 32.4188 33.1055 32.3174 33.3135 32.2767C33.5216 32.2361 33.737 32.2582 33.9325 32.3401C34.128 32.4221 34.2947 32.5602 34.4116 32.737C34.5285 32.9138 34.5903 33.1214 34.5891 33.3333C34.5891 33.4736 34.5614 33.6125 34.5075 33.7421C34.4536 33.8716 34.3747 33.9892 34.2752 34.0881C34.1758 34.1871 34.0577 34.2653 33.9279 34.3185C33.798 34.3716 33.659 34.3986 33.5187 34.3978ZM33.5187 32.8071C33.4146 32.8071 33.3128 32.8379 33.2263 32.8958C33.1398 32.9536 33.0723 33.0358 33.0325 33.1319C32.9926 33.2281 32.9822 33.3339 33.0025 33.436C33.0228 33.5381 33.0729 33.6318 33.1465 33.7054C33.2201 33.779 33.3139 33.8292 33.416 33.8495C33.5181 33.8698 33.6239 33.8593 33.7201 33.8195C33.8162 33.7797 33.8984 33.7122 33.9562 33.6257C34.014 33.5392 34.0449 33.4374 34.0449 33.3333C34.0449 33.1938 33.9895 33.0599 33.8908 32.9612C33.7921 32.8625 33.6582 32.8071 33.5187 32.8071Z" fill="#FFF4E5"/>
<path d="M34.5831 38.0457C34.2294 38.0457 33.8902 37.9052 33.6401 37.6551C33.39 37.405 33.2495 37.0658 33.2495 36.7121V34.1287H33.7937V36.7121C33.7841 36.822 33.7975 36.9326 33.833 37.037C33.8685 37.1414 33.9253 37.2372 33.9998 37.3185C34.0743 37.3998 34.1649 37.4647 34.2658 37.5091C34.3668 37.5535 34.4758 37.5764 34.5861 37.5764C34.6963 37.5764 34.8054 37.5535 34.9063 37.5091C35.0072 37.4647 35.0978 37.3998 35.1723 37.3185C35.2468 37.2372 35.3036 37.1414 35.3391 37.037C35.3746 36.9326 35.388 36.822 35.3784 36.7121V36.2158H35.9167V36.7121C35.9167 37.0658 35.7761 37.405 35.526 37.6551C35.276 37.9052 34.9368 38.0457 34.5831 38.0457Z" fill="#FFF4E5"/>
</g>
<defs>
<clipPath id="clip0_163_147">
<rect width="50" height="50" fill="white"/>
</clipPath>
</defs>
</svg>
