<svg width="160" height="170" viewBox="0 0 160 170" fill="none" xmlns="http://www.w3.org/2000/svg">
<path d="M19.308 60.258L3.53998 47.758L5.02998 44.858L24.354 50.427L22.936 53.189L19.675 52.166L17.999 55.432L20.725 57.497L19.308 60.258ZM15.523 53.628L16.767 51.205L7.86698 48.381L8.05898 48.006L15.523 53.628Z" fill="white"/>
<path d="M28.4619 44.941L10.731 35.43L12.704 33.03L26.204 40.681L25.928 41.016L15.781 29.294L17.754 26.894L30.5359 42.419L28.4619 44.941Z" fill="white"/>
<path d="M35.105 37.364L25.947 19.449L28.507 17.426L43.776 30.512L41.34 32.438L38.797 30.154L35.917 32.43L37.541 35.44L35.105 37.364ZM34.414 29.764L36.551 28.076L29.624 21.812L29.954 21.551L34.414 29.764Z" fill="white"/>
<path d="M42.097 9.01999L49.53 23.985L53.595 21.965L54.941 24.675L48.169 28.041L39.39 10.367L42.097 9.01999Z" fill="white"/>
<path d="M64.0609 22.295C63.444 22.4794 62.7955 22.534 62.1565 22.4551C61.5174 22.3763 60.9016 22.1658 60.348 21.837C59.8046 21.4876 59.3369 21.0328 58.9724 20.4995C58.6079 19.9661 58.3541 19.3651 58.2259 18.732L55.607 8.21298C55.4219 7.59283 55.3635 6.94181 55.4351 6.29862C55.5068 5.65544 55.707 5.03322 56.024 4.46898C56.7492 3.40224 57.8421 2.64024 59.0939 2.32864C60.3456 2.01705 61.6682 2.17774 62.8089 2.77998C63.3519 3.13115 63.8189 3.58754 64.1825 4.12222C64.5461 4.65689 64.7989 5.259 64.9259 5.89298L67.5459 16.413C67.7293 17.0318 67.7873 17.681 67.7166 18.3225C67.6458 18.964 67.4477 19.585 67.1339 20.149C66.7989 20.7006 66.3528 21.1764 65.8239 21.5462C65.295 21.916 64.695 22.1717 64.0619 22.297L64.0609 22.295ZM63.3309 19.36C63.5677 19.3146 63.792 19.2193 63.9889 19.0803C64.1859 18.9413 64.3509 18.7618 64.4729 18.554C64.7008 18.1199 64.75 17.6139 64.6099 17.144L61.9909 6.62399C61.8947 6.14293 61.6141 5.71865 61.2089 5.44198C60.7851 5.21176 60.2904 5.14875 59.8224 5.26537C59.3544 5.382 58.9471 5.6698 58.6809 6.07198C58.4529 6.50608 58.4038 7.01212 58.5439 7.48198L61.163 18.002C61.2594 18.4827 61.54 18.9066 61.9449 19.183C62.1502 19.309 62.38 19.3899 62.6189 19.4205C62.8579 19.451 63.1006 19.4304 63.3309 19.36Z" fill="white"/>
<path d="M74.758 20.035L74.438 0.302994L76.779 0.264992L82.055 14.065L81.24 14.118L81.014 0.199989L83.841 0.153992L84.162 19.886L81.834 19.924L76.541 6.11399L77.356 6.06099L77.582 19.992L74.758 20.035Z" fill="white"/>
<path d="M109.835 21.131L109.504 21.991C109.299 22.6031 108.974 23.1681 108.548 23.6529C108.122 24.1377 107.603 24.5324 107.022 24.814C105.817 25.2741 104.484 25.2722 103.28 24.8086C102.076 24.3451 101.086 23.4526 100.501 22.303C100.257 21.7049 100.135 21.0639 100.142 20.4179C100.15 19.7719 100.287 19.134 100.546 18.542L104.439 8.42399C104.644 7.80988 104.969 7.24317 105.397 6.75752C105.825 6.27187 106.346 5.87721 106.93 5.597C108.135 5.14038 109.466 5.14348 110.669 5.60572C111.871 6.06795 112.862 6.95695 113.451 8.10299C113.694 8.70231 113.814 9.34422 113.805 9.99086C113.796 10.6375 113.658 11.2758 113.398 11.868L113.067 12.728L110.243 11.641L110.574 10.781C110.771 10.3321 110.785 9.82384 110.612 9.365C110.397 8.93307 110.029 8.5973 109.579 8.42401C109.128 8.25072 108.63 8.25249 108.181 8.42899C107.745 8.65351 107.414 9.0397 107.259 9.505L103.366 19.622C103.168 20.0712 103.155 20.5799 103.328 21.039C103.543 21.4706 103.912 21.8061 104.362 21.9793C104.812 22.1526 105.31 22.151 105.759 21.975C106.195 21.7504 106.525 21.3642 106.68 20.899L107.011 20.039L109.835 21.131Z" fill="white"/>
<path d="M111.396 27.914L125.666 13.73L128.373 15.551L120.566 34.084L117.99 32.351L119.39 29.234L116.344 27.185L113.973 29.649L111.396 27.914ZM118.426 24.938L120.686 26.458L124.539 17.951L124.888 18.186L118.426 24.938Z" fill="white"/>
<path d="M124.259 37.384L138.724 23.959L142.035 27.527C142.484 27.965 142.838 28.4914 143.073 29.073C143.309 29.6547 143.421 30.2788 143.403 30.906C143.358 31.5337 143.187 32.146 142.902 32.7069C142.617 33.2678 142.222 33.766 141.741 34.172L139.552 36.203C138.943 36.7942 138.197 37.2269 137.382 37.463C136.628 37.6709 135.832 37.6637 135.082 37.442L135.643 36.635C135.942 37.2954 136.036 38.0305 135.913 38.745C135.773 39.4427 135.407 40.075 134.873 40.545L130.746 44.375L128.688 42.158L132.815 38.327C132.981 38.186 133.117 38.0137 133.216 37.82C133.316 37.6263 133.376 37.4149 133.393 37.198C133.399 36.9748 133.359 36.7527 133.274 36.546C133.19 36.3394 133.063 36.1527 132.902 35.998L131.649 34.648L126.316 39.597L124.259 37.384ZM133.868 32.594L135.121 33.944C135.263 34.1167 135.441 34.257 135.642 34.3553C135.843 34.4536 136.063 34.5077 136.287 34.514C136.742 34.5017 137.175 34.3127 137.494 33.987L139.683 31.955C140.032 31.6616 140.252 31.2442 140.299 30.791C140.309 30.5674 140.271 30.3442 140.188 30.1364C140.105 29.9286 139.978 29.7409 139.817 29.586L138.564 28.236L133.868 32.594Z" fill="white"/>
<path d="M134.315 49.398L151.492 39.681L153.892 43.918C154.227 44.4477 154.449 45.041 154.543 45.6605C154.638 46.28 154.604 46.9125 154.442 47.518C154.253 48.1181 153.945 48.6743 153.538 49.1539C153.131 49.6336 152.632 50.027 152.07 50.311L149.929 51.522C149.397 51.8557 148.803 52.0799 148.183 52.1816C147.563 52.2832 146.929 52.2603 146.318 52.114C145.714 51.9426 145.152 51.6474 144.668 51.2471C144.184 50.8468 143.789 50.3503 143.507 49.789L142.6 48.189L135.81 52.031L134.315 49.398ZM145.229 46.698L146.136 48.298C146.235 48.4985 146.375 48.6757 146.547 48.8178C146.72 48.9598 146.92 49.0635 147.136 49.122C147.583 49.2161 148.05 49.1318 148.436 48.887L150.577 47.676C150.984 47.4713 151.295 47.1163 151.445 46.686C151.507 46.4709 151.522 46.245 151.489 46.0236C151.457 45.8021 151.377 45.5902 151.256 45.402L150.349 43.802L145.229 46.698Z" fill="white"/>
<path d="M59.221 146.78L53.951 162.636L58.258 164.067L57.304 166.939L50.125 164.553L56.35 145.826L59.221 146.78Z" fill="white"/>
<path d="M63.8669 168.509L70.1479 149.394L73.3869 149.789L74.838 169.847L71.756 169.471L71.5889 166.058L67.946 165.614L66.946 168.886L63.8669 168.509ZM68.7809 162.667L71.4809 162.997L71.0549 153.667L71.4729 153.718L68.7809 162.667Z" fill="white"/>
<path d="M83.388 169.845L81.518 150.199L84.53 149.912L86.4 169.558L83.388 169.845ZM90.631 169.156L86.131 160.108L85.367 161.515L84.895 156.564L88.757 149.509L92.005 149.2L87.892 156.807L93.861 168.847L90.631 169.156Z" fill="white"/>
<path d="M103.868 145.619L104.791 148.501L99.967 150.045L101.467 154.745L105.614 153.418L106.537 156.3L102.389 157.627L104.134 163.078L108.958 161.534L109.88 164.416L102.174 166.883L96.16 148.083L103.868 145.619Z" fill="white"/>
<path d="M133.358 130.296L139.826 135.704L141.488 133.715L142.207 134.315L139.944 137.022L132.757 131.014L133.358 130.296Z" fill="white"/>
<path d="M137.632 124.699L137.096 125.468L144.783 130.823L145.318 130.054L137.632 124.699Z" fill="white"/>
<path d="M148.222 125.622L139.998 121.138L140.465 120.282L148.517 122.29L148.417 122.477L142.368 116.796L142.834 115.941L151.058 120.425L150.625 121.22L144.605 117.938L144.672 117.854L149.818 122.701L149.465 123.348L142.604 121.648L142.639 121.548L148.659 124.83L148.222 125.622Z" fill="white"/>
<path d="M154.212 113.613C154.117 113.895 153.963 114.155 153.761 114.374C153.56 114.593 153.314 114.767 153.04 114.885C152.756 114.997 152.452 115.052 152.146 115.047C151.841 115.041 151.539 114.975 151.259 114.853L146.459 113.006C146.168 112.91 145.9 112.756 145.669 112.556C145.438 112.355 145.249 112.11 145.113 111.836C144.891 111.282 144.887 110.665 145.101 110.109C145.316 109.552 145.733 109.098 146.269 108.836C146.554 108.725 146.858 108.67 147.164 108.676C147.469 108.683 147.771 108.749 148.051 108.872L152.851 110.719C153.436 110.914 153.919 111.334 154.195 111.885C154.32 112.156 154.386 112.451 154.389 112.75C154.391 113.048 154.331 113.344 154.211 113.618L154.212 113.613ZM153.337 113.282C153.406 113.124 153.44 112.952 153.437 112.78C153.433 112.607 153.393 112.438 153.318 112.282C153.15 111.959 152.863 111.714 152.518 111.598L147.718 109.751C147.384 109.604 147.005 109.593 146.663 109.72C146.347 109.866 146.101 110.129 145.976 110.453C145.852 110.777 145.858 111.137 145.995 111.457C146.163 111.78 146.45 112.025 146.795 112.141L151.595 113.988C151.93 114.135 152.308 114.146 152.651 114.019C152.811 113.953 152.956 113.854 153.074 113.727C153.193 113.601 153.283 113.45 153.338 113.286" fill="white"/>
<path d="M157.088 104.53C157.027 104.821 156.906 105.096 156.731 105.338C156.557 105.579 156.334 105.781 156.077 105.93C155.808 106.075 155.513 106.166 155.209 106.197C154.905 106.227 154.598 106.198 154.305 106.11L149.317 104.848C149.017 104.787 148.732 104.667 148.479 104.495C148.226 104.324 148.009 104.104 147.841 103.848C147.553 103.324 147.474 102.711 147.621 102.132C147.767 101.553 148.128 101.051 148.63 100.727C148.9 100.583 149.195 100.493 149.499 100.462C149.804 100.432 150.111 100.462 150.404 100.551L150.704 100.628L150.475 101.536L150.175 101.46C149.825 101.354 149.448 101.388 149.123 101.555C148.828 101.737 148.616 102.027 148.531 102.363C148.445 102.698 148.494 103.054 148.666 103.355C148.873 103.656 149.188 103.865 149.546 103.938L154.534 105.2C154.884 105.305 155.262 105.269 155.586 105.1C155.881 104.918 156.093 104.628 156.178 104.292C156.263 103.956 156.214 103.6 156.042 103.3C155.835 102.999 155.52 102.79 155.162 102.717L153.762 102.361L153.455 103.578L152.546 103.348L153.084 101.223L155.397 101.808C156.001 101.933 156.532 102.292 156.871 102.808C157.027 103.063 157.127 103.347 157.165 103.643C157.204 103.939 157.179 104.24 157.093 104.526" fill="white"/>
<path d="M149.581 92.399L150.509 92.525L150.126 95.34L153.374 95.782L153.712 93.3L154.64 93.427L154.302 95.909L157.551 96.351L157.934 93.536L158.862 93.662L158.353 97.406L149.071 96.142L149.581 92.399Z" fill="white"/>
<path d="M159.474 87.105C159.479 87.403 159.421 87.6988 159.304 87.9729C159.187 88.2471 159.014 88.4934 158.795 88.696C158.565 88.8968 158.297 89.0503 158.007 89.1474C157.717 89.2445 157.411 89.2835 157.106 89.262L156.794 89.253L156.818 88.316L157.13 88.325C157.493 88.3502 157.851 88.2341 158.13 88.001C158.379 87.7583 158.523 87.4282 158.532 87.0809C158.541 86.7336 158.414 86.3964 158.179 86.141C157.911 85.8927 157.557 85.7582 157.192 85.766L156.492 85.747C156.31 85.7399 156.127 85.7436 155.945 85.758C155.824 85.7647 155.707 85.8095 155.613 85.886C155.507 85.99 155.423 86.1155 155.369 86.254C155.292 86.4266 155.197 86.672 155.084 86.99C154.884 87.5386 154.721 87.9633 154.594 88.264C154.506 88.5036 154.37 88.7226 154.194 88.907C154.04 89.0404 153.846 89.1188 153.642 89.13C153.335 89.1526 153.027 89.158 152.72 89.146L151.959 89.126C151.653 89.1321 151.348 89.0776 151.063 88.9655C150.778 88.8534 150.518 88.686 150.298 88.473C149.902 88.0255 149.691 87.4446 149.706 86.8474C149.722 86.2503 149.963 85.6812 150.382 85.255C150.849 84.8507 151.458 84.6486 152.074 84.693L152.386 84.702L152.362 85.638L152.05 85.63C151.687 85.6048 151.329 85.7209 151.05 85.954C150.801 86.1967 150.657 86.5271 150.648 86.8747C150.639 87.2223 150.766 87.5597 151.002 87.815C151.27 88.0627 151.623 88.1971 151.988 88.19L152.749 88.21C152.931 88.2168 153.114 88.2141 153.296 88.202C153.416 88.1973 153.532 88.153 153.624 88.076C153.73 87.97 153.813 87.8434 153.868 87.704C153.947 87.5293 154.043 87.2833 154.155 86.966C154.348 86.4166 154.51 85.992 154.641 85.692C154.732 85.4528 154.871 85.2345 155.048 85.05C155.202 84.9172 155.395 84.8388 155.598 84.827C155.906 84.8041 156.215 84.7987 156.523 84.811L157.223 84.829C157.839 84.8175 158.435 85.0509 158.88 85.478C159.088 85.692 159.249 85.9475 159.351 86.2279C159.454 86.5083 159.496 86.8072 159.475 87.105" fill="white"/>
<path d="M0.526978 92.812L9.82098 91.645L9.92097 92.469L2.71397 96.326L2.64997 96.07L10.25 95.116L10.363 96.016L1.06898 97.182L0.968971 96.364L8.18198 92.501L8.24497 92.757L0.635971 93.712L0.526978 92.812Z" fill="white"/>
<path d="M2.38395 104.504C2.29899 104.218 2.27511 103.918 2.31388 103.623C2.35264 103.327 2.45318 103.043 2.60895 102.789C2.7768 102.533 2.99352 102.313 3.24665 102.142C3.49979 101.97 3.78433 101.85 4.08395 101.789L9.07396 100.534C9.36696 100.446 9.67458 100.416 9.97907 100.447C10.2836 100.478 10.5789 100.569 10.848 100.715C11.3497 101.039 11.7097 101.542 11.8554 102.121C12.0011 102.701 11.9216 103.314 11.633 103.837C11.4647 104.093 11.2475 104.313 10.9938 104.485C10.7402 104.656 10.4551 104.776 10.155 104.837L5.16495 106.091C4.57424 106.269 3.9372 106.204 3.39396 105.912C3.13578 105.762 2.91224 105.559 2.738 105.317C2.56377 105.074 2.44277 104.798 2.38295 104.505L2.38395 104.504ZM3.29195 104.276C3.32645 104.446 3.39732 104.606 3.49968 104.746C3.60205 104.886 3.73349 105.002 3.88495 105.086C4.20931 105.255 4.58662 105.291 4.93696 105.186L9.92696 103.931C10.2846 103.858 10.6001 103.65 10.807 103.349C10.9798 103.049 11.0291 102.693 10.9444 102.357C10.8597 102.021 10.6476 101.731 10.353 101.549C10.0289 101.38 9.65198 101.345 9.30196 101.449L4.31196 102.704C3.95383 102.776 3.63785 102.985 3.43095 103.286C3.33768 103.432 3.277 103.597 3.25301 103.768C3.22902 103.94 3.2423 104.115 3.29195 104.281" fill="white"/>
<path d="M6.74402 116.749L15.237 112.796L15.637 113.645L7.14402 117.598L6.74402 116.749ZM8.32001 120.135L11.808 115.998L10.687 115.81L12.097 115.154L16.709 115.962L17.139 116.885L12.903 116.177L8.74701 121.054L8.32001 120.135Z" fill="white"/>
<path d="M18.9643 120.141L10.89 124.89L11.365 125.698L19.4394 120.949L18.9643 120.141Z" fill="white"/>
<path d="M22.327 125.388L15.465 130.288L16.97 132.398L16.208 132.942L14.158 130.07L21.783 124.629L22.327 125.388Z" fill="white"/>
<path d="M26.638 130.902L20.295 136.455L22.002 138.405L21.302 139.022L18.978 136.367L26.026 130.196L26.638 130.902Z" fill="white"/>
<path d="M87.079 88.5539C87.0297 88.4847 87.0053 88.4008 87.01 88.316C87.01 87.838 87.894 87.491 88.26 87.371C88.89 87.164 89.56 87.1 90.183 86.871C91.1309 86.528 92.0009 85.9994 92.742 85.316C93.124 84.951 93.706 84.416 94.049 84.009C94.737 83.201 95.279 82.699 94.497 81.788C94.157 81.388 92.912 81.099 92.457 80.855C91.8962 80.556 91.3547 80.222 90.836 79.855C89.7971 79.1235 88.8634 78.2531 88.061 77.268C86.571 75.427 85.1919 73.746 84.9729 71.388C84.9239 70.852 85.0149 70.161 85.5329 70.015C86.7882 72.7135 88.4652 75.1949 90.501 77.366C92.5577 79.5443 95.2787 80.9791 98.238 81.4459C100.634 81.6872 103.051 81.2725 105.23 80.246C105.592 80.084 106.115 79.958 106.303 80.307C106.491 80.656 106.103 81.023 105.754 81.207C104.16 82.0371 102.411 82.5252 100.618 82.6399C99.8749 82.6155 99.1338 82.7319 98.434 82.983C97.7219 83.2671 97.0583 83.6601 96.467 84.148C94.149 86.029 91.187 88.075 88.247 88.59C87.978 88.6369 87.297 88.837 87.078 88.552" fill="white"/>
<path d="M96.94 93.618C97.099 93.6 97.13 93.377 97.101 93.218C96.9157 92.4587 96.5654 91.7495 96.075 91.141C95.841 90.809 95.598 90.483 95.382 90.141C95.1504 89.8425 94.9767 89.5033 94.87 89.141C94.789 88.39 95.701 89.292 95.816 89.462C96.0775 89.8474 96.3751 90.2071 96.705 90.536C96.839 90.67 97.037 90.807 97.205 90.713C97.411 90.595 97.315 90.282 97.196 90.078L96.164 88.317C96.1188 88.261 96.0872 88.1953 96.0717 88.125C96.0563 88.0547 96.0574 87.9818 96.075 87.912C96.1142 87.8473 96.1755 87.799 96.2475 87.776C96.3196 87.753 96.3976 87.7569 96.467 87.787C96.6042 87.8524 96.722 87.9523 96.809 88.077C97.7583 89.2008 98.5112 90.4767 99.036 91.851C99.3784 92.5965 99.4429 93.44 99.218 94.229C99.0806 94.553 98.8749 94.8437 98.615 95.0812C98.3552 95.3186 98.0472 95.4973 97.712 95.605C97.0381 95.8154 96.3205 95.844 95.632 95.688C92.8599 95.139 91.4259 92.861 90.6319 90.346C90.5445 90.1518 90.5363 89.9312 90.6089 89.731C90.6607 89.6467 90.7349 89.5785 90.8232 89.534C90.9115 89.4895 91.0104 89.4705 91.1089 89.479C91.3075 89.5007 91.4966 89.5749 91.6569 89.694C92.8789 90.512 93.257 92.233 94.508 93.013C94.55 92.8051 94.5476 92.5907 94.5007 92.3838C94.4538 92.177 94.3636 91.9824 94.236 91.813C93.9024 91.1901 93.623 90.5397 93.401 89.869C93.367 89.7937 93.3589 89.7093 93.3779 89.629C93.3947 89.5978 93.4176 89.5703 93.4453 89.5482C93.473 89.5262 93.5048 89.51 93.539 89.5006C93.5731 89.4913 93.6088 89.489 93.6439 89.4938C93.6789 89.4987 93.7127 89.5107 93.743 89.529C93.8619 89.6097 93.956 89.7219 94.015 89.853C94.762 91.1661 95.6609 92.3868 96.693 93.49C96.7204 93.5288 96.7562 93.5609 96.7978 93.584C96.8393 93.607 96.8855 93.6203 96.933 93.623" fill="white"/>
<path d="M98.7 60.87C98.735 60.6597 98.8185 60.4604 98.944 60.288C99.2309 59.9971 99.5936 59.7924 99.991 59.697C100.837 59.4506 101.735 59.443 102.585 59.675C102.671 59.69 102.749 59.7316 102.81 59.794C102.929 59.944 102.799 60.171 102.633 60.268C102.4 60.3794 102.145 60.4342 101.887 60.428C101.069 60.4046 100.266 60.6478 99.599 61.121C99.4767 61.2449 99.3408 61.3546 99.194 61.448C98.694 61.712 98.616 61.29 98.7 60.871" fill="white"/>
<path d="M109.147 62.021C108.799 61.89 108.664 61.744 108.67 61.56C108.696 61.4435 108.75 61.3352 108.827 61.2445C108.904 61.1538 109.003 61.0836 109.114 61.04C109.773 60.9019 110.459 61.0014 111.052 61.321C111.334 61.479 111.311 61.713 111.067 61.915C110.414 62.454 109.744 62.164 109.148 62.021" fill="white"/>
<path d="M85.114 94.27C85.114 94.256 85.114 94.242 85.12 94.227C85.5398 91.4617 85.5061 88.6464 85.02 85.892C84.5747 86.9585 84.362 88.1077 84.396 89.263C84.2861 92.9684 83.0688 96.5559 80.901 99.563C80.7879 99.7373 80.6277 99.876 80.439 99.963C80.3438 100.003 80.237 100.004 80.1408 99.9666C80.0447 99.9293 79.9667 99.8564 79.923 99.763C79.8981 99.6464 79.9133 99.5249 79.966 99.418C80.1475 99.0155 80.3671 98.6314 80.622 98.271C81.9219 95.9317 82.8095 93.3863 83.246 90.746C83.509 89.8528 83.5889 88.9158 83.481 87.991C83.1866 88.5959 83.002 89.2484 82.936 89.918C82.674 91.1589 82.3201 92.3786 81.877 93.567C81.4503 94.9152 80.92 96.2284 80.291 97.495C79.6878 98.7941 78.6863 99.8674 77.432 100.559C77.269 100.637 77.056 100.697 76.926 100.573C76.796 100.449 76.85 100.227 76.926 100.06C77.4635 99.0949 78.1167 98.199 78.871 97.392C80.4544 95.3792 81.4096 92.9445 81.617 90.392C81.628 90.248 81.617 90.064 81.478 90.015C80.63 92.982 79.428 95.995 77.106 98.027C77.2011 97.1711 77.5229 96.3561 78.038 95.666C79.0782 93.9789 79.7641 92.0977 80.054 90.137C80.09 89.853 80.079 89.498 79.825 89.368C78.179 91.053 77.307 93.32 76.26 95.43C75.7224 96.4016 75.272 97.4189 74.914 98.47C74.5951 99.4654 74.6018 100.537 74.933 101.528C75.0961 101.996 75.3826 102.412 75.7623 102.731C76.1419 103.05 76.6006 103.26 77.09 103.34C78.0052 103.481 78.9415 103.341 79.776 102.94C81.3857 102.168 82.7036 100.897 83.534 99.317C84.3538 97.7408 84.8887 96.0322 85.114 94.27Z" fill="white"/>
<path d="M70.372 95.41C68.93 96.845 67.333 98.31 65.333 98.682C66.1498 98.0079 66.9283 97.2888 67.665 96.528C67.6918 96.5069 67.7138 96.4805 67.7297 96.4503C67.7455 96.4202 67.7548 96.387 67.757 96.353C67.747 96.242 67.601 96.204 67.491 96.219C67.1347 96.3201 66.8176 96.5272 66.582 96.813C65.8419 97.5005 64.9309 97.9767 63.944 98.192L67.711 94.501C67.8227 94.4071 67.9107 94.2882 67.968 94.154C67.9948 94.0862 67.9975 94.0113 67.9757 93.9417C67.9538 93.8722 67.9088 93.8122 67.848 93.772C66.1775 95.4836 64.2445 96.9176 62.122 98.02C61.8063 98.1944 61.4481 98.2768 61.088 98.258C62.102 96.485 64.281 95.646 65.358 93.909L60.514 97.491C60.1978 97.6952 59.9236 97.9579 59.706 98.265C59.5964 98.4413 59.5353 98.6435 59.529 98.851C59.5263 98.9528 59.5411 99.0543 59.573 99.151C59.59 99.2 59.616 99.244 59.634 99.292C59.6439 99.3263 59.6566 99.3597 59.672 99.392C59.8024 99.5916 59.965 99.7683 60.153 99.915C60.3372 100.07 60.5357 100.206 60.746 100.323C60.9273 100.424 61.1147 100.514 61.307 100.592C62.234 100.963 63.2343 101.115 64.2298 101.037C65.2253 100.958 66.1891 100.65 67.046 100.137C68.3169 99.2378 69.4317 98.1361 70.346 96.876C71.8184 95.0534 73.4681 93.3815 75.271 91.885C73.315 92.445 71.813 93.972 70.371 95.408" fill="white"/>
<path d="M78.409 73.607C82.437 69.857 84.685 64.114 86.709 58.993C81.867 61.193 82.173 67.868 77.842 72.305C77.6597 72.4804 77.4225 72.5875 77.1704 72.6085C76.9183 72.6294 76.6667 72.5629 76.458 72.42C76.3274 72.2895 76.2256 72.133 76.1592 71.9608C76.0927 71.7886 76.063 71.6044 76.072 71.42C75.9778 69.8046 76.0856 68.1837 76.3929 66.595C76.5199 65.798 76.7082 65.012 76.956 64.244C77.3691 63.3436 77.63 62.3808 77.728 61.395C77.722 60.82 77.363 60.412 76.763 60.595C75.395 61.019 74.9459 62.85 74.699 64.063C74.4249 65.6221 74.2373 67.1952 74.137 68.775C74.07 69.515 74.069 73.137 72.73 72.996C71.123 72.826 72.187 67.773 71.916 66.179C71.855 65.853 71.726 65.446 71.394 65.419C71.3193 65.4132 71.2444 65.4274 71.1769 65.46C71.03 65.5369 70.9061 65.6515 70.818 65.792C69.76 67.338 70.303 71.47 69.862 73.292C69.8391 73.4687 69.7765 73.6379 69.6791 73.787C69.5816 73.9361 69.4516 74.0612 69.299 74.153C69.0784 74.2173 68.8416 74.1948 68.6371 74.0901C68.4325 73.9854 68.2758 73.8065 68.199 73.59C68.0149 72.9175 67.9142 72.225 67.899 71.528C67.732 66.743 69.374 63.943 68.366 63.184C68.1118 62.9956 67.7979 62.9056 67.4825 62.9306C67.1671 62.9556 66.8713 63.0939 66.65 63.32C65.721 64.114 65.824 66.099 65.64 67.34C65.348 69.3 66.304 75.278 64.371 75.04C62.771 74.84 64.746 67.722 63.213 67.227C60.982 66.508 63.123 74.843 61.74 76.742C61.353 77.271 60.563 75.216 60.696 73.395C60.774 72.7383 60.7602 72.0739 60.655 71.421C60.52 70.777 59.855 70.153 59.255 70.421C59.0821 70.531 58.937 70.6795 58.831 70.8549C58.725 71.0302 58.661 71.2278 58.644 71.432C58.291 73.263 59.336 79.248 57.512 78.848C55.755 78.455 58.407 70.156 56.312 69.448C54.169 68.722 55.212 76.892 55.2 77.648C55.354 78.6368 55.1406 79.6478 54.6 80.49C54.5671 80.5414 54.5223 80.5841 54.4694 80.6146C54.4166 80.6451 54.3572 80.6624 54.2962 80.6652C54.2353 80.6679 54.1745 80.656 54.1192 80.6304C54.0638 80.6048 54.0153 80.5662 53.978 80.518C53.8923 80.4064 53.8288 80.2795 53.791 80.144C53.3566 78.7903 53.1386 77.3766 53.145 75.955C53.137 75.246 53.62 73.374 52.784 72.979C52.326 72.763 51.684 73.236 51.413 73.579C49.779 75.62 53.278 83.01 51.494 83.003C50.87 82.996 50.789 82.303 50.653 81.843C50.436 81.076 49.976 79.316 49.671 78.576C49.542 78.276 49.047 76.84 48.504 77.159C48.124 77.383 48.321 78.19 48.355 78.536C48.5417 79.8464 48.8112 81.1437 49.162 82.42C49.379 83.234 49.745 84.488 48.897 85.065C48.8511 85.0984 48.801 85.1257 48.748 85.146C47.697 85.682 46.965 81.099 45.901 81.6C43.948 82.515 47.446 88.984 45.283 88.984C43.574 88.984 44.93 84.773 43.296 84.237C43.1193 84.2161 42.9406 84.2547 42.7883 84.3467C42.636 84.4387 42.5187 84.5788 42.455 84.745C41.39 87.594 45.792 93.345 42.781 93.745C40.929 93.996 41.859 88.306 40.075 88.845C36.375 89.957 41.146 96.502 42.333 100.171C41.655 100.293 41.228 99.506 40.875 98.909C40.522 98.312 39.6 97.824 39.254 98.414C39.1917 98.5735 39.1672 98.7453 39.1825 98.9158C39.1978 99.0864 39.2523 99.2511 39.342 99.397C40.135 101.297 40.929 103.197 41.722 105.097C42.515 106.997 43.309 108.909 44.103 110.807C44.772 112.429 45.6457 113.958 46.703 115.358C47.5949 116.521 48.6139 117.581 49.741 118.518C50.182 115.263 47.347 111.838 48.805 108.894C49.5526 111.823 51.2449 114.424 53.62 116.294C55.044 117.406 56.814 118.41 57.241 120.166C57.723 122.146 56.341 124.635 57.783 126.073C58.4014 124.466 58.5699 122.721 58.2704 121.025C57.9708 119.329 57.2146 117.747 56.083 116.449C54.828 115.049 53.045 113.838 52.883 111.966C52.683 109.666 55.04 108.012 55.847 105.842C56.756 103.407 54.679 102.516 55.656 100.102C56.409 98.25 58.915 98.195 58.617 97.353C58.109 95.922 51.486 99.987 49.071 103.879C46.656 107.771 46.786 110.67 47.838 115.126C45.7055 112.097 44.2125 108.666 43.45 105.041C43.294 104.308 43.294 103.332 43.986 103.061C44.901 102.702 46.299 103.895 46.719 103.007C46.7652 102.856 46.7807 102.697 46.7643 102.539C46.748 102.382 46.7003 102.23 46.624 102.091C45.724 99.772 42.124 96.855 43.918 95.14C45.111 93.994 45.864 98.68 47.499 98.449C48.923 98.239 47.133 95.634 46.672 94.271C46.211 92.908 45.702 89.815 47.086 90.209C48.28 90.548 49.399 92.996 49.986 91.898C50.339 91.238 49.686 90.498 49.378 89.955C49.1411 89.5349 48.9481 89.0916 48.802 88.632C48.692 88.3 48.423 87.753 48.602 87.423C48.902 86.873 49.802 87.092 50.141 87.461C50.6583 88.3782 51.1211 89.3252 51.527 90.297C51.866 90.86 53.012 91.477 53.161 90.84C53.622 88.819 50.577 84.892 52.639 84.74C54.029 84.64 54.728 87.676 55.61 86.645C56.458 85.655 54.473 82.9 55.544 82.418C56.751 81.862 58.695 89.618 60.71 88.218C61.727 87.506 59.917 85.905 59.286 84.841C58.655 83.777 57.664 80.626 58.905 80.654C60.689 80.695 61.253 84.183 62.352 85.594C62.739 86.094 63.369 86.638 63.912 86.313C64.658 85.865 63.939 84.78 63.397 84.095C63.2791 83.9472 63.1725 83.7907 63.078 83.627C62.502 82.664 61.16 78.895 62.265 79.058C63.133 79.187 63.79 82.623 64.665 82.515C65.54 82.407 64.103 78.206 64.897 77.826C65.969 77.311 66.822 81.999 67.486 82.99C67.6146 83.2443 67.7942 83.4695 68.0135 83.6515C68.2329 83.8335 68.4873 83.9684 68.761 84.048C69.737 84.163 69.942 82.78 69.685 81.831C69.469 81.1487 69.2102 80.4807 68.91 79.831C68.693 79.316 68.4 78.826 68.225 78.293C68.003 77.618 68.207 76.106 69.249 76.298C69.5408 76.3898 69.8077 76.5474 70.0291 76.7585C70.2504 76.9697 70.4205 77.2288 70.526 77.516C70.852 78.336 71.746 81.088 72.594 80.851C73.381 80.627 73.388 79.515 73.13 78.742C72.872 77.969 72.337 74.842 73.13 75.024C74.43 75.324 74.809 76.949 75.101 78.052C75.2682 78.7693 75.4732 79.4772 75.715 80.173C75.9625 80.7661 76.2402 81.3462 76.547 81.911C76.7739 82.4628 77.1486 82.9413 77.6299 83.294C77.7273 83.3733 77.8407 83.4307 77.9623 83.462C78.0839 83.4933 78.2108 83.498 78.3343 83.4755C78.4579 83.4531 78.5751 83.4041 78.678 83.3321C78.7808 83.26 78.8667 83.1665 78.93 83.058C79.0709 82.7626 79.1092 82.4286 79.0389 82.109C78.7452 80.8672 78.2008 79.6986 77.439 78.675C76.754 77.631 76.354 76.139 77.188 75.203C77.5887 74.844 78.0974 74.6286 78.634 74.5906C79.1706 74.5526 79.7046 74.6941 80.152 74.993C81.035 75.611 81.7922 76.3915 82.383 77.293C84.238 79.678 87.083 82.893 90.541 81.718C85.373 80.599 83.6779 74.309 78.4359 73.597L78.409 73.607ZM54.63 100.097C53.617 101.59 54.53 103.254 54.357 104.624C54.086 106.699 54.011 106.461 52.857 108.176C52.2593 108.929 51.7748 109.765 51.419 110.658C51.344 110.868 51.093 111.512 51.236 111.743C50.4103 110.23 49.7901 108.614 49.392 106.937C50.911 101.137 54.599 100.103 54.599 100.103" fill="white"/>
<path d="M76.828 135.204C76.9037 134.556 76.8018 133.899 76.533 133.304C75.4339 130.346 73.7187 127.656 71.501 125.411C69.837 123.73 67.801 122.135 67.322 119.818C66.731 116.935 68.785 114.269 69.89 111.541C70.5962 109.792 70.9244 107.914 70.853 106.029C70.8827 105.592 70.8177 105.154 70.6624 104.744C70.507 104.335 70.265 103.963 69.953 103.656C68.89 102.842 67.365 103.525 66.253 104.275C62.4219 106.869 59.1054 110.152 56.472 113.956C58.8138 111.765 61.2885 109.721 63.882 107.835C64.896 107.098 67.037 105.935 67.305 107.156C67.522 108.146 61.13 111.874 58.905 115.002C62.072 114.359 66.121 107.381 67.193 110.429C67.732 111.962 60.21 114.445 59.079 117.442C61.294 115.868 65.73 112.191 66.359 113.855C66.894 115.27 61.807 116.388 59.297 119.345C61.133 118.61 64.434 115.288 65.158 117.129C65.674 118.442 61.436 118.837 59.858 120.367C61.274 119.815 64.221 118.467 64.34 119.978C64.44 121.237 61.628 121.039 60.354 121.743C62.229 121.587 66.007 121.195 65.86 122.682C65.71 124.194 62.133 123.398 60.27 123.755C62.734 124.695 68.198 123.994 67.66 126.576C67.343 128.096 62.736 126.268 60.274 126.114L67.354 128.481C68.383 128.825 70.137 129.423 69.913 130.344C69.438 132.304 64.484 129.081 61.986 128.334C64.642 129.678 67.202 131.234 69.956 132.365C72.764 133.52 72.384 135.219 71.387 134.797C62.7571 131.33 54.9043 126.178 48.287 119.643C41.613 113.1 34.075 102.474 34.806 94.543C35.306 89.082 38.366 76.864 42.347 70.797C52.857 54.778 73.196 51.208 72.535 49.607C71.596 47.332 51.361 57.92 44.258 65.878C38.166 72.704 36.575 80.958 34.582 87.631L34.513 87.869C33.8404 90.6492 33.4197 93.4843 33.256 96.34L33.244 96.44C33.1773 97.0913 33.1206 97.7436 33.074 98.397C32.5269 97.6584 32.1652 96.7991 32.0194 95.8916C31.8735 94.9841 31.9478 94.0548 32.236 93.182C31.553 93.795 31.427 95.54 30.536 95.33C29.268 95.03 30.096 93.349 30.478 92.653C30.9 91.883 31.347 91.126 31.787 90.366C32.002 89.994 32.228 89.602 32.433 89.214C32.52 89.05 32.602 88.883 32.682 88.714C32.7867 88.5457 32.8665 88.3631 32.919 88.172C32.801 88.282 32.677 88.386 32.564 88.501C31.99 89.086 31.457 89.71 30.941 90.346C30.596 90.771 30.267 91.205 29.932 91.638C29.732 91.896 29.379 92.243 29.038 92.008C28.9176 91.9016 28.8237 91.7687 28.7634 91.6199C28.7032 91.471 28.6784 91.3101 28.691 91.15C28.7556 90.6319 28.9439 90.137 29.24 89.707C30.0553 88.4563 31.0235 87.3121 32.122 86.301C32.746 85.6863 33.388 85.0907 34.048 84.514C32.262 85.007 30.173 88.081 29.412 87.437C27.391 85.726 32.693 83.251 34.834 81.693C32.797 81.935 30.075 84.919 29.161 83.902C27.918 82.518 33.367 80.475 35.894 79.536C33.877 79.336 30.602 81.245 30.139 80.406C29.224 78.75 34.095 77.53 36.814 77.206C34.359 76.371 32.423 76.277 30.214 77.63C27.869 79.064 26.954 82.038 26.814 84.783C26.709 88.1819 27.292 91.567 28.528 94.735C29.707 97.948 32.793 100.586 34.367 103.608C36.1794 106.806 38.2302 109.864 40.502 112.754C42.574 115.536 44.8577 118.154 47.333 120.585C49.8083 123.018 52.466 125.258 55.283 127.285C58.0983 129.312 61.0669 131.118 64.162 132.685C66.9006 134.072 69.7344 135.262 72.642 136.246C74.078 136.731 76.081 136.946 76.718 135.57C76.773 135.45 76.814 135.324 76.84 135.195" fill="white"/>
<path d="M66.528 39.385C67.3001 39.8203 67.9975 40.3763 68.594 41.032L75.968 48.319C76.23 48.136 76.068 47.727 75.876 47.468C73.7714 44.5539 71.5181 41.7502 69.125 39.068C69.125 39.068 67.77 37.796 67.768 37.796C66.6166 36.6456 65.3764 35.5877 64.059 34.632C63.6496 34.2668 63.1278 34.0523 62.58 34.024C62.2755 34.0811 61.9857 34.1991 61.7279 34.3709C61.4702 34.5427 61.2498 34.7649 61.08 35.024C59.8406 36.7317 58.7197 38.5222 57.725 40.383C55.639 43.797 52.896 46.758 50.587 50.025C50.3203 50.3983 50.062 50.7756 49.812 51.157C47.5876 54.422 45.595 57.839 43.849 61.383C43.044 63.083 42.134 64.313 41.37 66.028C41.217 66.373 40.652 67.354 40.851 67.728C41.086 68.177 41.639 67.375 41.794 67.21C43.814 65.065 45.458 62.603 47.494 60.471C48.6248 59.5002 49.9567 58.7922 51.394 58.398L49.573 57.664C49.3104 57.5425 49.073 57.3729 48.873 57.164C48.655 56.764 49.278 56.29 49.733 56.253C50.933 56.153 52.447 56.444 53.645 56.347C52.594 55.647 50.445 54.984 50.745 53.912C50.883 53.421 51.617 53.483 52.11 53.612C53.3193 54.103 54.5789 54.4602 55.866 54.677C55.343 54.14 53.629 52.949 53.887 52.245C54.387 50.872 56.587 53.619 58.424 53.459C57.143 52.217 53.841 50.606 54.582 49.732C54.7732 49.5603 55.0141 49.4539 55.2698 49.4284C55.5255 49.4029 55.7826 49.4594 56.004 49.59L61.122 51.759C61.2086 51.6047 61.2439 51.4269 61.2227 51.2512C61.2014 51.0755 61.1249 50.9112 61.004 50.782C60.7564 50.5296 60.4676 50.3213 60.15 50.166C59.082 49.533 56.863 48.6 57.544 47.566C58.629 45.912 62.576 50.42 65.231 50.666C65.498 50.01 64.945 49.315 64.383 48.885C62.393 47.362 59.695 46.742 58.152 44.769C58.002 44.577 57.862 44.312 57.991 44.105C58.145 43.858 58.519 43.932 58.791 44.037C61.2969 45.0184 63.7326 46.1704 66.081 47.485C67.0895 48.2015 68.2892 48.5999 69.526 48.629C67.526 46.635 60.987 43.684 61.926 42.154C63.726 39.212 69.354 46.154 72.366 47.834C72.647 47.991 73.023 48.129 73.266 47.916C73.604 47.616 73.266 47.077 72.934 46.773C70.0673 44.145 67.0813 41.6533 63.976 39.298C64.3778 39.11 64.8183 39.0197 65.2617 39.0345C65.705 39.0493 66.1386 39.1687 66.527 39.383" fill="white"/>
<path d="M113.174 58.517C112.78 58.1928 112.324 57.9507 111.835 57.805C109.62 56.9991 107.338 56.3891 105.016 55.982C104.201 55.854 103.415 55.5857 102.692 55.189C102.15 54.901 101.279 54.389 100.769 54.045C98.744 52.686 95.802 52.022 93.482 51.371C89.2596 50.1273 84.9111 49.3605 80.518 49.085C79.65 49.036 78.233 48.259 78.303 49.637C78.316 49.902 78.719 49.914 78.922 49.971C79.608 50.163 80.306 50.317 81.006 50.449C82.412 50.714 83.834 50.881 85.256 51.028C89.1298 51.6521 92.9631 52.5053 96.736 53.583C100.027 54.483 102.131 56.883 105.448 57.677C106.901 58.023 108.392 58.202 109.839 58.577C111.307 58.8916 112.672 59.574 113.804 60.56C113.86 59.8252 113.635 59.0965 113.173 58.522" fill="white"/>
<path d="M103.291 63.156C103.339 62.9141 103.362 62.6677 103.359 62.421C103.369 61.952 102.601 61.739 102.238 61.59C101.944 61.4791 101.619 61.4791 101.325 61.59C101.033 61.702 100.77 61.8768 100.553 62.102C100.324 62.3177 100.147 62.5832 100.037 62.878C99.9704 63.0382 99.9441 63.2123 99.9603 63.3851C99.9765 63.5578 100.035 63.7239 100.13 63.869C100.384 64.1199 100.727 64.2613 101.084 64.263C101.176 64.2687 101.267 64.2687 101.359 64.263C101.651 64.2339 101.939 64.1791 102.221 64.099C102.479 64.0525 102.722 63.9482 102.934 63.794C103.117 63.6258 103.243 63.4038 103.292 63.16" fill="white"/>
<path d="M118.551 76.176C118.583 76.092 118.614 76.0076 118.645 75.923C118.932 75.1949 119.123 74.4324 119.212 73.655C119.315 72.7818 119.131 71.8989 118.687 71.14C118.303 70.533 117.712 70.066 117.387 69.423C117.005 68.4512 117.022 67.3678 117.436 66.409C117.85 65.4631 118.172 64.4795 118.397 63.472C118.506 62.9874 118.461 62.481 118.27 62.0226C118.079 61.5643 117.75 61.1766 117.329 60.913C116.375 60.477 115.286 61.071 114.429 61.677C112.51 63.032 110.698 64.552 108.653 65.709C109.393 65.7472 110.132 65.6292 110.823 65.3624C111.515 65.0957 112.142 64.6863 112.664 64.161C113.702 63.1048 114.896 62.2156 116.206 61.525C116.434 61.4104 116.692 61.3722 116.943 61.416C117.096 61.4687 117.233 61.5627 117.336 61.6875C117.44 61.8124 117.507 61.9634 117.531 62.124C117.574 62.4462 117.544 62.7739 117.443 63.083C117.153 64.178 116.652 65.207 116.35 66.298C115.98 67.3806 116.026 68.5619 116.477 69.613C116.869 70.377 117.571 70.948 117.953 71.713C118.279 72.6119 118.384 73.5761 118.259 74.5241C118.134 75.4722 117.783 76.3762 117.235 77.16C117.045 76.509 117.501 74.739 117.271 74.101C117.179 73.7739 117.003 73.4768 116.759 73.2399C116.515 73.003 116.214 72.8347 115.884 72.752C115.373 72.73 114.867 72.8608 114.431 73.128C113.146 73.7546 111.867 74.395 110.596 75.049C110.503 74.6928 110.492 74.32 110.565 73.9591C110.637 73.5981 110.791 73.2585 111.015 72.966C111.237 72.7858 111.487 72.6439 111.755 72.546C112.768 72.0998 113.731 71.547 114.627 70.897C114.883 70.7365 115.098 70.5184 115.255 70.26C115.549 69.688 115.26 69.008 115.172 68.37C114.995 67.094 115.651 65.87 115.94 64.614C115.979 64.4843 115.987 64.3475 115.965 64.214C115.865 63.798 115.275 63.725 114.891 63.914C114.312 64.195 113.974 64.795 113.54 65.269C112.946 65.917 112.148 66.345 111.517 66.957C110.586 67.9711 109.943 69.2157 109.654 70.562C109.25 72.1112 109.231 73.7357 109.598 75.294C109.718 75.994 109.624 79.049 108.512 80.01C108.613 78.4019 108.397 76.7897 107.876 75.265C107.556 74.606 107.404 73.8777 107.435 73.1456C107.466 72.4135 107.678 71.7006 108.053 71.071C107.878 70.9862 107.681 70.9559 107.488 70.9839C107.296 71.0119 107.116 71.0969 106.972 71.228C106.688 71.4971 106.497 71.8488 106.425 72.233C105.874 74.561 107.771 76.841 107.62 79.233C107.505 80.1238 107.273 80.9955 106.928 81.825C106.855 82.038 106.785 82.252 106.728 82.469C106.687 82.615 106.595 82.8099 106.735 82.93C106.975 83.135 107.411 82.684 107.59 82.544C108.795 81.5873 109.71 80.3141 110.233 78.867C110.419 78.357 110.553 77.8297 110.633 77.293C110.674 77.0212 110.7 76.7475 110.712 76.473C110.736 76.2067 110.733 75.9387 110.703 75.673C111.357 75.8218 112.035 75.8259 112.69 75.6851C113.345 75.5443 113.962 75.262 114.497 74.858C114.881 74.563 115.297 74.182 115.774 74.274C115.957 74.3256 116.121 74.4283 116.248 74.57C116.375 74.7117 116.458 74.8865 116.489 75.074C116.546 75.4489 116.538 75.8308 116.465 76.203C116.261 77.2222 116.38 78.2798 116.806 79.228C117.594 78.3443 118.188 77.3053 118.55 76.178" fill="white"/>
<path d="M103.665 96.557C108.193 96.223 113.036 96.232 116.954 99.057C117.513 99.4674 117.966 100.006 118.275 100.627C118.788 101.66 118.88 101.997 119.885 102.272C120.896 102.415 121.916 102.479 122.936 102.465C123.844 102.507 124.734 102.73 125.555 103.12C126.375 103.51 127.11 104.06 127.716 104.737L127.595 104.907C125.578 104.184 123.399 104.046 121.307 104.507C120.595 104.625 119.865 104.564 119.183 104.329C118.501 104.093 117.888 103.691 117.401 103.159C116.701 102.222 116.782 101.568 116.316 100.837C114.85 99.101 112.516 98.208 110.231 97.624C108.072 97.1473 105.875 96.8596 103.666 96.764L103.665 96.557Z" fill="white"/>
<path d="M88.006 101.605C89.758 101.496 91.514 101.534 93.251 101.468C95.093 101.314 96.725 102.417 95.793 104.347C95.478 105.093 94.6709 105.913 95.1149 106.601C96.0637 106.7 97.017 106.75 97.971 106.751L100.571 106.827C102.03 106.749 104.544 106.568 104.849 108.572C104.954 109.165 104.977 109.221 105.124 109.397C106.224 110.339 107.861 109.692 109.3 109.826C112.155 110.009 118.769 109.815 119.123 113.616C119.241 114.354 119.129 115.4 120.099 115.428L120.135 115.634C119.891 115.723 119.624 115.723 119.38 115.634C118.667 115.323 118.448 114.434 118.222 113.822C118.122 113.486 117.936 113.182 117.683 112.94C117.43 112.697 117.119 112.525 116.779 112.439C114.425 111.839 111.748 112.053 109.307 112.001C107.381 111.958 105.067 112.494 103.58 110.551C103.243 110.004 103.051 109.379 103.025 108.737C103.042 108.737 102.979 108.679 102.862 108.631C102.096 108.452 101.308 108.379 100.522 108.415L97.888 108.188L95.2399 107.951C94.8874 107.919 94.5557 107.769 94.2974 107.527C94.0391 107.285 93.869 106.964 93.8139 106.614C93.7608 105.811 94.0162 105.019 94.5279 104.398C94.7839 104.006 95.169 103.416 95.035 103.016C94.942 102.508 94.0539 102.276 93.2349 102.25C91.4779 102.138 89.7459 101.93 88.0029 101.819L88.006 101.605Z" fill="white"/>
<path d="M95.325 113.296C95.403 114.408 95.025 115.587 95.554 116.396C97.269 118.607 100.575 117.396 103.008 117.67C103.908 117.693 105.381 118.086 105.813 119.121C106.166 119.721 106.213 120.894 106.586 121.194C107.786 122.286 110.333 122.447 111.986 122.901C113.011 123.157 114.074 123.225 115.123 123.101L115.223 123.287C114.258 123.989 113.096 124.368 111.903 124.37C109.003 124.532 104.44 124.309 104.344 120.457C104.25 119.348 103.779 119.404 102.837 119.175C100.037 118.803 94.2009 119.398 94.8369 114.915C94.9591 114.382 95.0542 113.843 95.122 113.3L95.325 113.296Z" fill="white"/>
<path d="M79.842 112.157C79.8796 112.328 79.9704 112.483 80.1013 112.6C80.2322 112.716 80.3966 112.788 80.571 112.806C81.76 113.087 83.08 112.746 84.146 113.546C85.446 114.914 84.193 117.025 83.616 118.389C83.4516 118.639 83.3574 118.929 83.3433 119.228C83.3292 119.527 83.3958 119.824 83.536 120.089C83.9754 120.553 84.5605 120.853 85.194 120.939L89.81 121.829C91.31 121.989 93.34 122.929 93.038 124.839C92.9249 125.368 92.6991 125.865 92.3758 126.299C92.0525 126.732 91.6395 127.09 91.165 127.349C90.416 127.849 89.593 128.166 89.51 129.088C89.345 130.119 90.345 130.588 90.898 131.421C91.5348 132.352 91.7994 133.488 91.6397 134.605C91.4799 135.722 90.9074 136.739 90.035 137.454L89.871 137.324C90.771 135.586 90.845 133.736 89.596 132.47C89.236 132.09 88.663 131.764 88.258 131.3C87.9434 130.929 87.7105 130.495 87.5744 130.028C87.4384 129.56 87.4021 129.07 87.4682 128.587C87.5342 128.105 87.701 127.642 87.9576 127.229C88.2143 126.815 88.5551 126.46 88.958 126.187C89.5824 125.834 90.1836 125.442 90.758 125.013C91.819 124.067 90.258 123.671 89.443 123.459C87.22 122.62 81.843 122.559 82.223 119.214C82.423 117.94 83.368 117.014 83.723 115.885C84.504 113.847 83.343 113.597 81.668 113.373C80.934 113.236 79.74 113.143 79.642 112.196L79.842 112.152" fill="white"/>
<path d="M105.092 89.414C109.37 89.125 115.584 88.86 119.933 88.683C124.889 88.1807 129.892 88.4271 134.774 89.414V89.623C129.892 90.61 124.889 90.8564 119.933 90.354C115.566 90.175 109.395 89.913 105.092 89.623V89.414Z" fill="white"/>
<path d="M75.3059 116.6C75.4156 117.172 75.3813 117.762 75.206 118.317C74.988 122.189 79.5309 123.975 80.2599 127.588C80.3179 127.923 80.285 128.188 80.314 128.47L80.1909 128.534C80.003 128.312 79.83 128.079 79.6729 127.834C78.3126 126.442 77.1058 124.908 76.073 123.258C75.194 121.798 74.268 119.976 74.79 118.215C75.0334 117.724 75.1639 117.186 75.172 116.638L75.3059 116.6Z" fill="white"/>
<path d="M82.4269 106.556C84.3269 105.929 88.3459 107.178 88.4269 109.545C88.3956 109.909 88.3217 110.267 88.2069 110.614C88.1518 110.746 88.1409 110.892 88.1759 111.031C88.2109 111.17 88.2898 111.294 88.4009 111.384L88.3719 111.52C88.2527 111.553 88.1276 111.557 88.0062 111.534C87.8849 111.51 87.7705 111.46 87.6719 111.385C86.8819 110.723 87.2649 109.698 86.7789 108.985C86.2852 108.295 85.6381 107.729 84.8884 107.332C84.1387 106.935 83.3071 106.717 82.4589 106.696L82.4269 106.561" fill="white"/>
<path d="M103.7 101.533C104.825 102.268 106.017 101.194 107.287 101.447C107.582 101.49 107.859 101.616 108.086 101.809C108.314 102.002 108.482 102.255 108.573 102.539C108.773 103.306 108.573 103.728 108.757 104.239C109.051 104.953 110.024 105.161 110.707 105.591L110.698 105.73C110.257 105.938 109.769 106.026 109.283 105.984C108.797 105.943 108.331 105.774 107.932 105.494C107.697 105.296 107.516 105.041 107.407 104.754C107.298 104.467 107.265 104.156 107.31 103.852C107.4 103.509 107.46 103.16 107.491 102.807C107.472 102.697 107.422 102.595 107.347 102.513C107.272 102.43 107.174 102.372 107.066 102.344C106.03 101.981 104.396 102.671 103.594 101.621L103.699 101.53" fill="white"/>
<path d="M122.415 95.773C123.275 96.164 124.337 95.828 125.279 95.79L126.248 95.677C127.605 95.435 128.78 95.109 130.173 95.689L130.201 95.825C129.818 96.1927 129.358 96.4703 128.854 96.6374C128.35 96.8045 127.816 96.857 127.289 96.791L126.269 96.709C125.269 96.587 124.269 96.519 123.269 96.328C122.917 96.2703 122.588 96.1131 122.322 95.875L122.415 95.773Z" fill="white"/>
<path d="M98.329 122.963C99.181 123.304 99.052 124.507 98.688 125.171C97.366 127.22 98.57 127.492 100.201 128.316C100.594 128.493 100.919 128.792 101.126 129.17L101.041 129.28C100.286 129.3 99.5296 129.263 98.78 129.167C98.4342 129.065 98.1161 128.886 97.8495 128.643C97.583 128.401 97.3749 128.101 97.241 127.766C97.1072 127.431 97.0509 127.071 97.0765 126.711C97.1021 126.351 97.209 126.002 97.389 125.69C97.898 124.91 99.14 123.996 98.266 123.09L98.329 122.966" fill="white"/>
</svg>
