<svg width="259" height="259" viewBox="0 0 259 259" fill="none" xmlns="http://www.w3.org/2000/svg">
<g clip-path="url(#clip0_760_97)">
<path d="M129.498 258.997C201.018 258.997 258.997 201.018 258.997 129.498C258.997 57.9784 201.018 0 129.498 0C57.9784 0 0 57.9784 0 129.498C0 201.018 57.9784 258.997 129.498 258.997Z" fill="#FFF4E6"/>
<path d="M55.8033 99.4566L36.6553 84.2652L38.4647 80.7407L61.9304 87.4925L60.2087 90.8481L56.2488 89.6058L54.2233 93.5724L57.535 96.0773L55.8033 99.4566ZM51.2086 91.4051L52.7177 88.4647L41.9149 85.0348L42.1478 84.5791L51.2086 91.4051Z" fill="#49523C"/>
<path d="M66.9199 80.8588L45.3887 69.3066L47.7856 66.3966L64.1821 75.687L63.8445 76.0954L51.5193 61.856L53.916 58.946L69.445 77.7969L66.9199 80.8588Z" fill="#49523C"/>
<path d="M74.9848 71.6561L63.8647 49.902L66.9739 47.4478L85.5141 63.338L82.557 65.674L79.4679 62.8991L75.9706 65.6639L77.9455 69.32L74.9848 71.6561ZM74.1442 62.4231L76.7403 60.374L68.3275 52.7681L68.7294 52.4508L74.1442 62.4231Z" fill="#49523C"/>
<path d="M83.4751 37.2393L92.4988 55.4115L97.4377 52.9573L99.0717 56.2488L90.8514 60.337L80.1904 38.8732L83.4751 37.2393Z" fill="#49523C"/>
<path d="M110.144 53.3589C108.429 53.7843 106.926 53.5986 105.634 52.8019C104.342 52.0052 103.484 50.7482 103.058 49.0311L99.8784 36.2567C99.4508 34.5305 99.6196 33.0148 100.385 31.7094C101.15 30.4041 102.388 29.5388 104.098 29.1134C105.822 28.6813 107.327 28.8636 108.612 29.6603C109.897 30.457 110.754 31.7162 111.184 33.4379L114.364 46.2122C114.792 47.9271 114.625 49.4395 113.865 50.7494C113.104 52.0592 111.864 52.929 110.144 53.3589ZM109.256 49.7906C109.544 49.7363 109.816 49.6211 110.056 49.4528C110.295 49.2846 110.496 49.0671 110.644 48.815C110.921 48.2868 110.98 47.6714 110.809 47.1L107.629 34.3257C107.512 33.7424 107.171 33.2277 106.681 32.891C106.165 32.616 105.565 32.542 104.997 32.6836C104.43 32.8251 103.935 33.1721 103.609 33.6573C103.333 34.1847 103.274 34.7985 103.443 35.3689L106.623 48.1432C106.74 48.7278 107.082 49.2431 107.575 49.5779C107.824 49.7314 108.103 49.8298 108.393 49.8665C108.683 49.9032 108.977 49.8773 109.256 49.7906Z" fill="#49523C"/>
<path d="M123.135 50.6177L122.747 26.6491L125.589 26.6018L132.003 43.3562L131.014 43.417L130.741 26.5174L134.174 26.4634L134.562 50.432L131.736 50.4793L125.322 33.7114L126.312 33.6472L126.585 50.5637L123.135 50.6177Z" fill="#49523C"/>
<path d="M165.728 51.9444L165.326 52.9875C164.692 54.6395 163.687 55.7828 162.312 56.4174C160.937 57.0521 159.42 57.0521 157.761 56.4174C156.114 55.7828 154.988 54.77 154.385 53.3791C153.782 51.9883 153.8 50.4669 154.439 48.815L159.165 36.5268C159.804 34.8681 160.812 33.7248 162.187 33.0969C163.562 32.469 165.075 32.469 166.727 33.0969C168.388 33.7361 169.513 34.7488 170.103 36.1352C170.693 37.5215 170.671 39.0452 170.039 40.7061L169.637 41.7493L166.207 40.4293L166.609 39.3862C166.849 38.8413 166.864 38.2242 166.653 37.6678C166.394 37.1423 165.947 36.7336 165.4 36.5228C164.853 36.312 164.247 36.3146 163.702 36.5302C163.173 36.8035 162.771 37.2721 162.582 37.8366L157.855 50.1214C157.617 50.6674 157.6 51.2848 157.808 51.8431C158.073 52.3646 158.521 52.7695 159.066 52.9796C159.612 53.1897 160.216 53.1901 160.762 52.9808C161.292 52.7077 161.693 52.2372 161.879 51.6709L162.281 50.6278L165.728 51.9444Z" fill="#49523C"/>
<path d="M167.622 60.1815L184.95 42.9646L188.238 45.1758L178.756 67.6658L175.63 65.5627L177.317 61.7783L173.621 59.2903L170.741 62.2813L167.622 60.1815ZM176.16 56.5694L178.904 58.4126L183.583 48.0824L184.005 48.3694L176.16 56.5694Z" fill="#49523C"/>
<path d="M183.242 71.6798L200.797 55.3777L204.817 59.7123C205.999 60.9839 206.552 62.3511 206.478 63.814C206.404 65.2769 205.729 66.5991 204.453 67.7806L201.796 70.2484C201.056 70.9648 200.152 71.4898 199.163 71.7777C198.248 72.0305 197.281 72.0211 196.371 71.7506L197.046 70.7716C197.411 71.573 197.529 72.4653 197.384 73.334C197.212 74.18 196.768 74.9469 196.121 75.5181L191.115 80.1566L188.617 77.4559L193.626 72.8039C193.828 72.6334 193.994 72.4244 194.115 72.1891C194.236 71.9538 194.308 71.6969 194.328 71.4333C194.336 71.1634 194.287 70.8949 194.184 70.645C194.082 70.395 193.929 70.1691 193.734 69.9817L192.212 68.3444L185.737 74.3535L183.242 71.6798ZM194.912 65.8632L196.432 67.5038C196.607 67.7101 196.824 67.8769 197.068 67.9932C197.313 68.1096 197.579 68.1729 197.85 68.179C198.403 68.1633 198.928 67.9333 199.315 67.5376L201.971 65.0698C202.394 64.7136 202.662 64.2081 202.721 63.6587C202.733 63.3868 202.686 63.1154 202.585 62.8628C202.484 62.6101 202.33 62.382 202.134 62.1936L200.614 60.5563L194.912 65.8632Z" fill="#49523C"/>
<path d="M195.453 86.2703L216.312 74.4717L219.222 79.6131C220.077 81.1255 220.302 82.5884 219.897 84.0018C219.492 85.4151 218.532 86.5404 217.018 87.3776L214.418 88.8495C212.917 89.7002 211.454 89.9399 210.03 89.5686C208.605 89.1972 207.467 88.2565 206.617 86.7463L205.513 84.7985L197.269 89.4639L195.453 86.2703ZM208.706 82.9924L209.807 84.9403C209.925 85.1867 210.096 85.4046 210.306 85.5794C210.516 85.7542 210.762 85.8816 211.026 85.953C211.567 86.0677 212.132 85.9659 212.599 85.6694L215.198 84.1975C215.693 83.9502 216.071 83.5188 216.251 82.9957C216.327 82.7345 216.346 82.46 216.307 82.1909C216.267 81.9218 216.17 81.6643 216.022 81.4361L214.921 79.4916L208.706 82.9924Z" fill="#49523C"/>
<path d="M104.27 204.517L97.8561 223.759L103.085 225.498L101.927 228.985L93.2109 226.089L100.769 203.349L104.27 204.517Z" fill="#49523C"/>
<path d="M109.912 230.903L117.538 207.69L121.471 208.17L123.233 232.526L119.489 232.067L119.286 227.925L114.861 227.385L113.652 231.358L109.912 230.903ZM115.877 223.813L119.158 224.215L118.642 212.886L119.148 212.946L115.877 223.813Z" fill="#49523C"/>
<path d="M133.614 232.523L131.342 208.669L135.001 208.332L137.27 232.186L133.614 232.523ZM142.408 231.686L136.949 220.701L136.021 222.409L135.447 216.397L140.139 207.832L144.086 207.457L139.089 216.694L146.337 231.315L142.408 231.686Z" fill="#49523C"/>
<path d="M158.483 203.109L159.601 206.607L153.744 208.48L155.57 214.189L160.607 212.575L161.728 216.076L156.691 217.686L158.807 224.306L164.665 222.433L165.785 225.93L156.427 228.924L149.125 206.1L158.483 203.109Z" fill="#49523C"/>
<path d="M194.291 184.501L202.144 191.068L204.169 188.654L205.043 189.383L202.296 192.671L193.569 185.376L194.291 184.501Z" fill="#49523C"/>
<path d="M208.811 184.208L208.163 185.143L198.829 178.638L199.48 177.706L208.811 184.208Z" fill="#49523C"/>
<path d="M212.339 178.827L202.353 173.381L202.92 172.341L212.71 174.779L212.589 175.005L205.243 168.108L205.807 167.068L215.796 172.514L215.269 173.479L207.96 169.492L208.041 169.391L214.29 175.275L213.861 176.062L205.53 173.999L205.57 173.874L212.879 177.861L212.339 178.827Z" fill="#49523C"/>
<path d="M219.61 164.243C219.495 164.586 219.309 164.901 219.064 165.167C218.819 165.433 218.521 165.645 218.189 165.789C217.491 166.062 216.713 166.048 216.025 165.748L210.195 163.507C209.842 163.39 209.515 163.204 209.234 162.96C208.953 162.716 208.723 162.419 208.558 162.086C208.286 161.413 208.28 160.662 208.541 159.984C208.801 159.307 209.309 158.754 209.962 158.436C210.308 158.301 210.677 158.235 211.048 158.242C211.42 158.25 211.786 158.331 212.126 158.48L217.959 160.722C218.669 160.961 219.255 161.47 219.59 162.14C219.742 162.469 219.823 162.826 219.826 163.189C219.83 163.552 219.756 163.911 219.61 164.243ZM218.547 163.834C218.631 163.642 218.674 163.433 218.67 163.223C218.667 163.012 218.618 162.805 218.527 162.616C218.321 162.223 217.971 161.925 217.551 161.785L211.717 159.54C211.312 159.364 210.854 159.351 210.438 159.503C210.054 159.679 209.753 159.998 209.601 160.392C209.449 160.787 209.457 161.225 209.624 161.613C209.83 162.007 210.182 162.304 210.603 162.443L216.434 164.688C216.84 164.867 217.3 164.88 217.716 164.726C217.91 164.645 218.085 164.524 218.228 164.37C218.371 164.216 218.48 164.034 218.547 163.834Z" fill="#49523C"/>
<path d="M223.104 153.214C223.029 153.565 222.881 153.897 222.67 154.188C222.459 154.478 222.19 154.721 221.879 154.902C221.552 155.079 221.194 155.19 220.824 155.227C220.454 155.265 220.081 155.229 219.725 155.121L213.669 153.588C213.304 153.515 212.958 153.37 212.65 153.161C212.342 152.953 212.079 152.685 211.876 152.373C211.527 151.738 211.432 150.993 211.61 150.291C211.788 149.588 212.226 148.978 212.835 148.585C213.162 148.409 213.521 148.3 213.89 148.263C214.26 148.226 214.633 148.262 214.989 148.369L215.357 148.464L215.076 149.564L214.709 149.473C214.284 149.346 213.827 149.387 213.432 149.588C213.072 149.809 212.813 150.161 212.709 150.571C212.606 150.98 212.667 151.414 212.879 151.779C213.13 152.145 213.514 152.399 213.949 152.488L220.005 154.021C220.43 154.151 220.888 154.108 221.281 153.902C221.638 153.682 221.895 153.332 221.998 152.926C222.101 152.519 222.043 152.089 221.835 151.725C221.584 151.361 221.202 151.108 220.768 151.019L219.06 150.587L218.689 152.066L217.585 151.786L218.24 149.207L221.045 149.915C221.778 150.066 222.422 150.502 222.834 151.127C223.025 151.436 223.147 151.782 223.194 152.142C223.24 152.501 223.21 152.867 223.104 153.214Z" fill="#49523C"/>
<path d="M213.989 138.485L215.117 138.637L214.651 142.057L218.597 142.593L219.006 139.579L220.133 139.734L219.725 142.745L223.668 143.282L224.134 139.866L225.261 140.018L224.64 144.565L213.372 143.029L213.989 138.485Z" fill="#49523C"/>
<path d="M226.001 132.05C226.007 132.412 225.937 132.771 225.795 133.104C225.653 133.437 225.443 133.736 225.177 133.981C224.609 134.469 223.871 134.712 223.125 134.657H222.747L222.777 133.519H223.155C223.598 133.553 224.035 133.411 224.374 133.124C224.677 132.83 224.853 132.429 224.864 132.007C224.875 131.585 224.721 131.175 224.435 130.866C224.109 130.564 223.68 130.401 223.236 130.41L222.389 130.386C222.164 130.378 221.938 130.384 221.714 130.403C221.566 130.41 221.425 130.464 221.312 130.558C221.182 130.684 221.081 130.836 221.015 131.004C220.92 131.213 220.806 131.514 220.677 131.899C220.436 132.574 220.237 133.089 220.08 133.445C219.973 133.736 219.807 134.002 219.59 134.225C219.402 134.388 219.164 134.484 218.915 134.498C218.543 134.524 218.17 134.53 217.798 134.518L216.873 134.491C216.499 134.501 216.127 134.436 215.779 134.3C215.431 134.164 215.114 133.959 214.847 133.698C214.366 133.155 214.109 132.45 214.128 131.725C214.147 131 214.44 130.309 214.948 129.792C215.518 129.304 216.257 129.062 217.004 129.117H217.382L217.352 130.254H216.974C216.531 130.223 216.094 130.363 215.752 130.646C215.451 130.941 215.277 131.342 215.266 131.764C215.255 132.185 215.409 132.594 215.695 132.905C216.02 133.205 216.449 133.37 216.893 133.364L217.818 133.387C218.043 133.399 218.268 133.399 218.493 133.387C218.639 133.381 218.778 133.328 218.891 133.235C219.02 133.106 219.121 132.952 219.189 132.783C219.286 132.57 219.401 132.27 219.526 131.885C219.759 131.21 219.958 130.703 220.117 130.339C220.228 130.049 220.395 129.784 220.61 129.559C220.798 129.396 221.036 129.301 221.285 129.289C221.658 129.26 222.032 129.253 222.406 129.269L223.256 129.289C224.01 129.274 224.738 129.558 225.282 130.079C225.534 130.339 225.728 130.648 225.852 130.988C225.976 131.328 226.026 131.69 226.001 132.05Z" fill="#49523C"/>
<path d="M32.999 138.984L44.2846 137.567L44.4096 138.579L35.6592 143.262L35.5815 142.951L44.8113 141.79L44.9496 142.884L33.6641 144.298L33.5392 143.306L42.2962 138.613L42.3738 138.927L33.134 140.085L32.999 138.984Z" fill="#49523C"/>
<path d="M35.2505 153.183C35.148 152.836 35.1195 152.472 35.1666 152.113C35.2137 151.754 35.3354 151.409 35.524 151.1C35.7282 150.79 35.9917 150.524 36.2993 150.316C36.607 150.108 36.9527 149.963 37.3166 149.889L43.3763 148.363C43.7321 148.256 44.1055 148.22 44.4751 148.258C44.8447 148.295 45.2032 148.406 45.5301 148.582C46.1402 148.975 46.5783 149.585 46.7556 150.289C46.933 150.993 46.8365 151.738 46.4855 152.373C46.2807 152.684 46.0166 152.95 45.7084 153.158C45.4002 153.366 45.0538 153.511 44.6894 153.585L38.6298 155.108C37.9127 155.323 37.1393 155.245 36.4793 154.892C36.1657 154.71 35.8941 154.463 35.6824 154.169C35.4706 153.875 35.3233 153.539 35.2505 153.183ZM36.3544 152.903C36.3961 153.11 36.4823 153.305 36.6071 153.476C36.7318 153.646 36.8922 153.787 37.0769 153.889C37.471 154.092 37.9284 154.134 38.3531 154.007L44.4126 152.481C44.8462 152.393 45.2287 152.14 45.4795 151.776C45.6927 151.411 45.7544 150.978 45.6516 150.568C45.5487 150.158 45.2894 149.805 44.9292 149.585C44.536 149.379 44.0774 149.337 43.6531 149.467L37.5935 150.989C37.1582 151.077 36.7742 151.332 36.5232 151.698C36.4103 151.875 36.3369 152.074 36.3078 152.282C36.2786 152.49 36.2945 152.702 36.3544 152.903Z" fill="#49523C"/>
<path d="M40.5508 168.051L50.864 163.25L51.3435 164.283L41.0301 169.084L40.5508 168.051ZM42.4649 172.163L46.6982 167.139L45.3479 166.91L47.0594 166.113L52.6601 167.092L53.1833 168.213L48.0418 167.355L42.995 173.277L42.4649 172.163Z" fill="#49523C"/>
<path d="M46.1583 178.918L45.5845 177.939L55.3745 172.169L55.9518 173.148L46.1583 178.918Z" fill="#49523C"/>
<path d="M59.4559 178.543L51.1242 184.488L52.9506 187.05L52.0257 187.725L49.5376 184.241L58.7942 177.631L59.4559 178.543Z" fill="#49523C"/>
<path d="M64.705 185.237L57.0014 191.989L59.0742 194.352L58.2167 195.101L55.3945 191.881L63.9557 184.386L64.705 185.237Z" fill="#49523C"/>
<path d="M138.113 133.833C138.052 133.749 138.023 133.646 138.029 133.543C138.029 132.962 139.103 132.53 139.545 132.395C140.311 132.145 141.128 132.057 141.881 131.784C143.033 131.366 144.09 130.724 144.99 129.893C145.453 129.451 146.158 128.796 146.577 128.307C147.411 127.328 148.069 126.717 147.12 125.606C146.705 125.127 145.196 124.769 144.642 124.475C143.961 124.112 143.304 123.706 142.674 123.26C141.41 122.373 140.274 121.317 139.298 120.12C137.489 117.885 135.814 115.843 135.548 112.98C135.487 112.329 135.598 111.488 136.223 111.312C137.837 114.536 139.714 117.679 142.256 120.238C144.798 122.797 148.072 124.745 151.651 125.194C154.534 125.555 157.484 124.924 160.141 123.739C160.58 123.543 161.215 123.402 161.444 123.813C161.674 124.225 161.198 124.684 160.769 124.911C158.834 125.918 156.711 126.51 154.534 126.649C153.487 126.686 152.846 126.696 151.88 127.068C151.015 127.411 150.21 127.888 149.494 128.482C146.678 130.764 143.079 133.249 139.511 133.884C139.187 133.917 138.36 134.171 138.113 133.833Z" fill="#49523C"/>
<path d="M150.071 139.963C150.263 139.94 150.3 139.67 150.267 139.477C150.098 138.535 149.561 137.725 149.021 136.956C148.734 136.554 148.44 136.155 148.18 135.737C147.978 135.416 147.6 134.906 147.556 134.522C147.458 133.61 148.569 134.707 148.707 134.91C149.024 135.378 149.385 135.815 149.784 136.216C149.949 136.378 150.189 136.554 150.388 136.429C150.638 136.287 150.523 135.906 150.388 135.659L149.132 133.519C149.078 133.451 149.039 133.372 149.021 133.287C149.003 133.202 149.005 133.113 149.028 133.029C149.075 132.951 149.149 132.892 149.237 132.864C149.325 132.836 149.42 132.841 149.504 132.877C149.669 132.953 149.812 133.069 149.919 133.215C151.069 134.58 151.982 136.129 152.62 137.796C152.957 138.724 153.19 139.764 152.839 140.686C152.672 141.08 152.422 141.433 152.107 141.721C151.791 142.009 151.417 142.226 151.009 142.357C150.191 142.612 149.32 142.646 148.484 142.455C145.108 141.78 143.377 139.025 142.408 135.97C142.304 135.734 142.294 135.467 142.381 135.224C142.444 135.12 142.536 135.037 142.644 134.983C142.753 134.928 142.874 134.905 142.995 134.916C143.24 134.942 143.473 135.033 143.67 135.18C145.152 136.172 145.618 138.262 147.13 139.207C147.32 138.728 147.046 138.194 146.793 137.749C146.39 136.991 146.051 136.2 145.78 135.386C145.74 135.295 145.73 135.193 145.753 135.095C145.773 135.058 145.801 135.025 145.835 134.998C145.868 134.971 145.907 134.952 145.948 134.94C145.99 134.929 146.033 134.926 146.075 134.932C146.118 134.938 146.159 134.952 146.195 134.974C146.342 135.072 146.459 135.208 146.533 135.369C147.44 136.963 148.531 138.445 149.784 139.784C149.815 139.834 149.857 139.876 149.907 139.907C149.956 139.938 150.013 139.957 150.071 139.963Z" fill="#49523C"/>
<path d="M152.208 100.199C152.249 99.9441 152.35 99.7025 152.502 99.4935C152.851 99.1404 153.292 98.8914 153.774 98.7744C154.802 98.4763 155.892 98.4681 156.924 98.7508C157.028 98.7681 157.123 98.8177 157.197 98.8926C157.342 99.0749 157.197 99.3517 156.981 99.4698C156.699 99.6053 156.389 99.6713 156.077 99.6623C155.094 99.7197 154.051 99.8581 153.298 100.503C153.15 100.655 152.985 100.789 152.805 100.901C152.198 101.222 152.107 100.709 152.208 100.199Z" fill="#49523C"/>
<path d="M164.891 101.597C164.469 101.438 164.303 101.259 164.313 101.036C164.344 100.895 164.409 100.763 164.503 100.653C164.596 100.543 164.716 100.458 164.85 100.405C165.653 100.235 166.49 100.354 167.213 100.743C167.551 100.935 167.531 101.219 167.23 101.465C166.427 102.123 165.616 101.762 164.891 101.597Z" fill="#49523C"/>
<path d="M135.713 140.76V140.71C136.222 137.349 136.178 133.928 135.585 130.582C134.927 131.818 134.91 133.283 134.829 134.674C134.552 139.136 133.33 143.653 130.585 147.164C130.448 147.375 130.254 147.544 130.025 147.65C129.909 147.699 129.779 147.7 129.662 147.655C129.545 147.61 129.45 147.521 129.397 147.407C129.367 147.266 129.384 147.119 129.448 146.989C129.668 146.5 129.935 146.033 130.244 145.594C131.983 142.857 132.726 139.623 133.431 136.456C133.678 135.355 133.924 134.221 133.718 133.111C133.3 133.813 133.205 134.65 133.043 135.45C132.726 136.958 132.296 138.439 131.757 139.882C131.238 141.519 130.595 143.114 129.833 144.653C129.026 146.179 127.919 147.627 126.359 148.366C126.163 148.461 125.903 148.535 125.744 148.383C125.586 148.231 125.653 147.961 125.744 147.758C126.298 146.536 127.277 145.571 128.107 144.521C130.028 142.076 131.188 139.122 131.443 136.024C131.443 135.848 131.443 135.625 131.274 135.565C130.245 139.17 128.783 142.826 125.964 145.294C125.964 144.254 126.565 143.326 127.095 142.428C128.358 140.379 129.191 138.094 129.542 135.713C129.586 135.376 129.573 134.937 129.265 134.782C127.264 136.827 126.207 139.579 124.934 142.141C124.337 143.35 123.678 144.538 123.3 145.831C122.915 147.04 122.923 148.34 123.324 149.544C123.522 150.113 123.87 150.617 124.331 151.005C124.792 151.392 125.349 151.648 125.944 151.745C127.056 151.914 128.192 151.742 129.205 151.252C131.157 150.317 132.758 148.778 133.769 146.864C134.771 144.959 135.429 142.893 135.713 140.76Z" fill="#49523C"/>
<path d="M117.808 142.141C116.056 143.883 114.118 145.662 111.691 146.114C112.682 145.296 113.626 144.422 114.519 143.498C114.577 143.437 114.641 143.366 114.631 143.285C114.631 143.15 114.442 143.107 114.31 143.123C113.865 143.184 113.534 143.539 113.206 143.846C112.308 144.684 111.202 145.267 110.003 145.534L114.577 141.051C114.711 140.936 114.818 140.791 114.888 140.629C114.92 140.547 114.923 140.456 114.897 140.372C114.871 140.288 114.816 140.215 114.742 140.166C112.619 142.138 110.425 144.119 107.788 145.324C107.405 145.534 106.972 145.633 106.536 145.611C107.768 143.458 110.411 142.441 111.718 140.332L105.837 144.68C105.454 144.929 105.122 145.249 104.858 145.622C104.723 145.834 104.649 146.079 104.642 146.33C104.637 146.454 104.656 146.578 104.696 146.695C104.716 146.756 104.746 146.807 104.77 146.867C104.782 146.91 104.796 146.952 104.814 146.992C104.973 147.235 105.172 147.449 105.401 147.627C105.625 147.815 105.865 147.981 106.12 148.123C106.339 148.248 106.565 148.36 106.796 148.461C107.921 148.911 109.136 149.095 110.344 148.999C111.553 148.903 112.723 148.529 113.763 147.907C115.374 146.925 116.565 145.399 117.771 143.947C119.559 141.734 121.563 139.704 123.753 137.887C121.383 138.559 119.546 140.399 117.808 142.141Z" fill="#49523C"/>
<path d="M127.567 115.664C132.459 111.11 135.19 104.135 137.651 97.9204C131.77 100.594 132.142 108.696 126.885 114.084C126.662 114.296 126.373 114.426 126.066 114.451C125.759 114.476 125.452 114.395 125.198 114.222C124.836 113.952 124.762 113.449 124.728 113.004C124.614 111.043 124.745 109.075 125.116 107.147C125.268 106.179 125.494 105.224 125.792 104.291C126.166 103.2 126.74 102.009 126.727 100.83C126.727 100.135 126.284 99.6387 125.555 99.8649C123.894 100.378 123.351 102.603 123.05 104.075C122.718 105.974 122.493 107.889 122.375 109.814C122.294 110.715 122.291 115.11 120.664 114.942C118.712 114.736 120.005 108.598 119.678 106.664C119.604 106.266 119.445 105.773 119.043 105.739C118.953 105.733 118.862 105.751 118.78 105.79C118.602 105.884 118.451 106.022 118.341 106.191C117.058 108.072 117.717 113.088 117.18 115.306C117.075 115.728 116.893 116.187 116.505 116.353C115.995 116.575 115.384 116.18 115.171 115.677C114.958 115.174 114.834 113.73 114.8 113.173C114.597 107.363 116.592 103.963 115.367 103.045C114.692 102.539 113.902 102.674 113.284 103.21C112.157 104.173 112.271 106.586 112.059 108.092C111.704 110.455 112.865 117.73 110.519 117.443C108.575 117.203 110.972 108.558 109.111 107.953C106.411 107.083 109.003 117.203 107.322 119.509C106.853 120.151 105.894 117.656 106.053 115.458C106.149 114.661 106.133 113.854 106.006 113.061C105.84 112.278 105.033 111.522 104.318 111.853C103.872 112.059 103.666 112.592 103.575 113.078C103.146 115.303 104.416 122.571 102.201 122.085C100.068 121.605 103.288 111.529 100.743 110.674C98.1398 109.79 99.3923 119.712 99.3923 120.626C99.3923 121.862 99.4733 123.189 98.6597 124.077C98.6198 124.139 98.5654 124.191 98.5012 124.228C98.4369 124.266 98.3647 124.287 98.2905 124.29C98.2163 124.293 98.1424 124.279 98.0751 124.247C98.0077 124.216 97.949 124.169 97.9036 124.11C97.7999 123.975 97.7232 123.822 97.6775 123.658C97.1495 122.014 96.8851 120.297 96.8942 118.571C96.8942 117.71 97.4681 115.434 96.4554 114.955C95.8984 114.695 95.105 115.269 94.7877 115.681C92.8061 118.159 97.0529 127.132 94.8889 127.125C94.1294 127.125 94.0315 126.274 93.8762 125.717C93.6128 124.786 93.0559 122.645 92.6846 121.751C92.5259 121.379 91.9249 119.641 91.2666 120.029C90.8075 120.299 91.0439 121.281 91.0878 121.717C91.3132 123.312 91.6401 124.89 92.0667 126.443C92.3301 127.432 92.7723 128.955 91.7292 129.654C91.6741 129.694 91.6138 129.727 91.5501 129.751C90.2741 130.403 89.3863 124.84 88.0933 125.447C85.7302 126.561 89.967 134.414 87.3405 134.414C85.2644 134.414 86.9118 129.299 84.9268 128.651C84.5487 128.526 84.0457 128.897 83.9141 129.269C82.6211 132.726 87.9651 139.71 84.309 140.196C82.0607 140.5 83.1882 133.59 81.0243 134.248C76.5344 135.598 82.3239 143.545 83.7654 148.001C82.9417 148.15 82.4151 147.195 81.9965 146.469C81.5779 145.743 80.447 145.152 80.0283 145.868C79.8123 146.232 79.971 146.675 80.133 147.063C81.0985 149.369 82.0606 151.684 83.0261 153.99C83.9916 156.296 84.9503 158.619 85.9158 160.924C86.7267 162.892 87.7865 164.748 89.069 166.447C90.1513 167.861 91.3889 169.148 92.7587 170.286C93.2921 166.332 89.8521 162.183 91.621 158.602C92.5294 162.157 94.5845 165.315 97.4681 167.585C99.2 168.935 101.347 170.154 101.857 172.287C102.441 174.691 100.76 177.716 102.515 179.461C103.265 177.509 103.469 175.39 103.105 173.331C102.741 171.271 101.823 169.35 100.449 167.774C98.9232 166.086 96.7592 164.604 96.56 162.332C96.3136 159.54 99.1796 157.531 100.159 154.905C101.263 151.948 98.7408 150.854 99.9292 147.934C100.841 145.686 103.886 145.618 103.521 144.599C102.907 142.86 94.862 147.796 91.9317 152.522C89.0015 157.248 89.1566 160.769 90.4327 166.18C87.8436 162.502 86.0311 158.335 85.1057 153.933C84.9166 153.045 84.9167 151.857 85.7573 151.529C86.8679 151.094 88.566 152.542 89.0758 151.462C89.2412 151.124 89.0993 150.712 88.9609 150.351C87.8637 147.536 83.4921 143.994 85.6729 141.911C87.1245 140.517 88.0359 146.209 90.0209 145.929C91.7528 145.672 89.5787 142.512 89.0082 140.865C88.4377 139.217 87.8299 135.463 89.5111 135.933C90.9594 136.345 92.3165 139.309 93.0254 137.985C93.4542 137.182 92.6676 136.28 92.2861 135.622C91.9991 135.112 91.765 134.573 91.5874 134.015C91.4557 133.61 91.1282 132.948 91.3443 132.547C91.7021 131.871 92.796 132.145 93.2112 132.594C93.7547 133.178 94.4772 135.362 94.8991 136.037C95.3211 136.713 96.7018 137.469 96.8841 136.713C97.4445 134.258 93.748 129.492 96.2495 129.309C97.9374 129.184 98.7847 132.874 99.8583 131.622C100.871 130.42 98.4775 127.074 99.7772 126.49C101.242 125.815 103.602 135.231 106.05 133.532C107.285 132.668 105.087 130.727 104.321 129.434C103.555 128.141 102.35 124.316 103.855 124.35C106.023 124.397 106.708 128.634 108.041 130.346C108.511 130.947 109.277 131.615 109.935 131.22C110.843 130.676 109.969 129.36 109.311 128.519C109.168 128.34 109.038 128.15 108.922 127.952C108.224 126.784 106.593 122.213 107.937 122.402C108.99 122.561 109.787 126.733 110.85 126.602C111.914 126.47 110.175 121.369 111.134 120.907C112.433 120.282 113.47 125.971 114.277 127.179C114.665 127.746 115.141 128.371 115.826 128.462C117.011 128.604 117.257 126.923 116.947 125.761C116.683 124.935 116.369 124.125 116.005 123.337C115.742 122.713 115.387 122.119 115.171 121.47C114.901 120.65 115.151 118.814 116.417 119.047C117.092 119.175 117.72 119.904 117.966 120.529C118.361 121.525 119.448 124.867 120.478 124.58C121.433 124.31 121.44 122.959 121.13 122.021C120.819 121.082 120.164 117.295 121.13 117.504C122.709 117.872 123.155 119.843 123.526 121.18C123.728 122.051 123.976 122.911 124.269 123.756C124.571 124.476 124.909 125.18 125.282 125.866C125.555 126.539 126.01 127.123 126.595 127.554C127.155 127.891 127.831 127.891 128.172 127.267C128.345 126.908 128.391 126.501 128.303 126.112C128.057 124.613 127.193 123.212 126.362 121.943C125.532 120.674 125.042 118.864 126.055 117.727C126.919 116.754 128.526 116.812 129.654 117.473C130.781 118.135 131.558 119.236 132.354 120.265C134.606 123.158 138.056 127.064 142.259 125.636C135.993 124.168 133.934 116.528 127.567 115.664ZM98.6597 147.843C97.4309 149.656 98.5416 151.674 98.3222 153.339C97.9846 155.857 97.9037 155.57 96.5027 157.653C95.8275 158.632 95.1286 159.523 94.7572 160.668C94.6661 160.921 94.3624 161.704 94.5345 161.984C93.1437 159.712 92.33 156.141 92.33 156.141C94.1833 149.099 98.6597 147.843 98.6597 147.843Z" fill="#49523C"/>
<path d="M125.65 190.46C125.802 189.71 125.562 188.893 125.292 188.157C123.957 184.566 121.874 181.3 119.182 178.573C117.156 176.531 114.682 174.597 114.118 171.781C113.399 168.28 115.894 165.029 117.234 161.731C118.093 159.609 118.492 157.328 118.405 155.04C118.362 153.977 118.152 152.805 117.312 152.157C116.019 151.171 114.169 151.999 112.822 152.91C108.17 156.06 104.143 160.046 100.945 164.665C103.789 162.007 106.793 159.526 109.942 157.238C111.174 156.343 113.774 154.929 114.098 156.414C114.361 157.616 106.6 162.153 103.899 165.941C107.744 165.161 112.677 156.688 113.963 160.388C114.618 162.251 105.482 165.266 104.112 168.905C106.813 166.994 112.187 162.528 112.95 164.55C113.601 166.268 107.424 167.625 104.375 171.214C106.603 170.323 110.614 166.289 111.492 168.513C112.12 170.107 106.971 170.586 105.054 172.446C106.772 171.771 110.351 170.134 110.496 171.974C110.614 173.503 107.201 173.263 105.655 174.117C107.933 173.928 112.521 173.442 112.342 175.258C112.163 177.074 107.815 176.126 105.553 176.561C108.544 177.702 115.181 176.852 114.526 179.984C114.142 181.831 108.548 179.613 105.557 179.424L114.155 182.3C115.404 182.716 117.531 183.441 117.261 184.562C116.684 186.925 110.671 183.026 107.636 182.121C110.864 183.752 113.973 185.639 117.315 187.013C120.725 188.417 120.262 190.48 119.054 189.967C107.491 185.079 99.1022 179.502 90.9968 171.568C82.8913 163.635 73.7392 150.719 74.6271 141.094C75.2415 134.461 78.9515 119.627 83.7858 112.258C96.5466 92.8094 121.258 88.4715 120.441 86.5303C119.303 83.7655 94.7304 96.6242 86.105 106.286C78.7085 114.574 76.7776 124.597 74.3571 132.702L74.2727 132.989C73.2599 136.402 73.1316 139.741 72.7468 143.279V143.404C72.659 144.194 72.5915 144.987 72.5374 145.767C71.2209 143.951 70.7415 141.324 71.5247 139.434C70.6942 140.18 70.5423 142.296 69.4553 142.043C67.9159 141.682 68.9219 139.636 69.3844 138.792C69.8976 137.857 70.4411 136.939 70.9745 136.014C71.2378 135.565 71.5112 135.085 71.7576 134.616C71.8656 134.417 71.9635 134.214 72.0614 134.012C72.189 133.808 72.2857 133.586 72.3484 133.354C72.2066 133.489 72.0547 133.614 71.9196 133.752C71.2208 134.464 70.5693 135.22 69.9482 135.994C69.5296 136.51 69.1279 137.037 68.7228 137.563C68.4797 137.874 68.0475 138.296 67.6357 138.012C67.4897 137.883 67.3759 137.721 67.3032 137.54C67.2305 137.359 67.2011 137.164 67.2172 136.969C67.298 136.339 67.5296 135.738 67.8923 135.217C68.8207 133.674 70.1169 132.338 71.393 131.082C72.1492 130.336 72.9324 129.613 73.7325 128.911C71.5618 129.508 69.0265 133.242 68.1015 132.459C65.6473 130.383 72.0851 127.375 74.6879 125.484C72.2134 125.778 68.9084 129.404 67.7977 128.168C66.2887 126.48 72.9055 124.006 75.9741 122.865C73.5233 122.618 69.5599 124.941 68.986 123.921C67.8754 121.896 73.7899 120.431 77.0881 120.036C74.1072 119.023 71.7542 118.908 69.0704 120.552C66.2212 122.294 65.1106 125.903 64.9384 129.238C64.7224 133.364 65.6135 137.462 67.0179 141.321C68.4222 145.179 72.1965 148.427 74.1072 152.096C76.0517 155.83 79.0462 159.824 81.5578 163.2C89.1379 173.374 98.9708 181.655 110.286 187.394C113.612 189.079 117.055 190.524 120.586 191.719C122.328 192.31 124.762 192.57 125.535 190.899C125.588 190.757 125.627 190.61 125.65 190.46Z" fill="#49523C"/>
<path d="M113.132 74.1104C114.069 74.6392 114.916 75.3138 115.64 76.109L124.593 84.9571C124.91 84.7377 124.711 84.2414 124.482 83.9241C121.927 80.3855 119.191 76.9814 116.285 73.7256L114.638 72.1795C113.24 70.7825 111.734 69.4979 110.134 68.3377C109.597 67.9495 108.996 67.5613 108.338 67.6018C107.585 67.6457 106.988 68.2331 106.512 68.8171C104.888 70.7987 103.774 73.1382 102.437 75.3257C99.9052 79.4713 96.5733 83.0666 93.7713 87.0333C93.4495 87.4834 93.1355 87.9414 92.8294 88.4072C90.2266 92.33 87.6104 96.5667 85.5883 100.824C84.6126 102.883 83.5053 104.382 82.5803 106.465C82.3913 106.883 81.7059 108.075 81.949 108.534C82.2359 109.078 82.9044 108.105 83.0935 107.903C85.5477 105.3 87.5428 102.309 90.0105 99.7198C91.2562 98.4099 93.2581 97.7449 94.7367 97.2048L92.5256 96.3135C92.2067 96.1671 91.9181 95.9622 91.6749 95.7092C91.4116 95.2231 92.1677 94.6492 92.718 94.602C94.173 94.4838 96.0162 94.8349 97.4712 94.7168C96.1952 93.866 93.589 93.0626 93.9536 91.7595C94.1224 91.1653 95.0137 91.2396 95.6112 91.3983C96.9953 91.7629 98.6494 92.644 100.172 92.6912C99.5373 92.0397 97.4714 90.5914 97.7684 89.7373C98.3828 88.0697 101.053 91.405 103.278 91.2126C101.725 89.7036 97.7144 87.7489 98.6124 86.6855C99.0276 86.196 99.7466 86.2602 100.341 86.5134L106.556 89.1466C106.66 88.9591 106.702 88.7434 106.676 88.5304C106.65 88.3175 106.557 88.1183 106.411 87.9616C106.11 87.6546 105.76 87.4012 105.374 87.2122C104.078 86.4425 101.384 85.3082 102.211 84.049C103.528 82.0437 108.321 87.516 111.545 87.8165C111.883 87.0197 111.208 86.1758 110.512 85.6526C108.099 83.8026 104.821 83.0497 102.947 80.6529C102.765 80.4233 102.609 80.0992 102.751 79.8494C102.893 79.5996 103.393 79.6367 103.72 79.765C106.765 80.956 109.725 82.3546 112.578 83.9511C113.881 84.6769 115.279 85.4736 116.764 85.3386C114.33 82.9181 106.394 79.3329 107.531 77.4762C109.722 73.9045 116.552 82.3273 120.208 84.3731C120.545 84.5655 121.008 84.7309 121.302 84.4744C121.71 84.1098 121.302 83.4616 120.896 83.0835C117.413 79.8922 113.787 76.8674 110.019 74.0092C110.985 73.4927 112.177 73.6344 113.132 74.1104Z" fill="#49523C"/>
<path d="M169.783 97.3397C169.302 96.9477 168.749 96.654 168.156 96.4754C165.466 95.4985 162.696 94.7586 159.878 94.2643C158.888 94.1091 157.933 93.7823 157.056 93.2988C156.397 92.9612 155.337 92.3265 154.72 91.9113C152.262 90.2605 148.687 89.4536 145.871 88.6637C140.676 87.2053 135.521 86.1689 130.13 85.8887C129.073 85.828 127.355 84.876 127.429 86.5639C127.446 86.9015 127.935 86.9015 128.182 86.9724C129.016 87.2053 129.87 87.391 130.71 87.5531C132.419 87.8738 134.147 88.0763 135.872 88.2552C139.326 88.6131 146.449 90.4394 149.811 91.3577C153.808 92.4447 156.364 95.3682 160.391 96.3269C162.157 96.7489 163.966 96.965 165.725 97.4139C167.484 97.8629 169.222 98.5752 170.539 99.8243C170.731 99.2268 170.235 97.7617 169.783 97.3397Z" fill="#49523C"/>
<path d="M157.781 102.978C157.841 102.683 157.87 102.383 157.866 102.083C157.866 101.512 156.944 101.256 156.515 101.07C156.158 100.937 155.765 100.937 155.408 101.07C155.054 101.206 154.733 101.418 154.47 101.691C154.192 101.954 153.979 102.276 153.845 102.633C153.764 102.828 153.731 103.04 153.751 103.25C153.77 103.46 153.841 103.662 153.956 103.838C154.265 104.144 154.68 104.316 155.114 104.318C155.227 104.325 155.339 104.325 155.452 104.318C155.806 104.283 156.156 104.217 156.498 104.119C156.811 104.063 157.107 103.936 157.363 103.747C157.581 103.542 157.727 103.272 157.781 102.978Z" fill="#49523C"/>
<path d="M176.311 118.783C176.348 118.682 176.389 118.581 176.426 118.476C176.771 117.591 176.998 116.665 177.101 115.721C177.224 114.666 177 113.6 176.463 112.683C175.997 111.944 175.278 111.377 174.89 110.597C174.33 109.476 174.552 108.126 174.951 106.937C175.349 105.749 175.943 104.615 176.115 103.372C176.281 102.181 175.913 100.766 174.819 100.267C173.661 99.7366 172.338 100.459 171.298 101.192C168.965 102.839 166.768 104.686 164.283 106.09C166.059 106.37 167.777 105.364 169.154 104.21C170.532 103.055 171.791 101.688 173.455 101.009C173.731 100.868 174.045 100.822 174.35 100.878C174.536 100.941 174.702 101.054 174.827 101.206C174.953 101.357 175.034 101.54 175.062 101.735C175.115 102.126 175.08 102.524 174.958 102.9C174.603 104.23 173.995 105.479 173.631 106.806C173.266 108.132 173.155 109.608 173.783 110.83C174.259 111.758 175.113 112.45 175.575 113.385C176.386 115.012 176.146 117.774 174.704 119.999C174.475 119.209 175.042 117.058 174.748 116.285C174.454 115.512 173.877 114.766 173.06 114.648C172.449 114.557 171.852 114.833 171.295 115.104C169.735 115.864 168.183 116.642 166.639 117.436C166.541 116.548 166.494 115.515 167.149 114.908C167.417 114.688 167.721 114.516 168.047 114.398C169.277 113.855 170.446 113.182 171.534 112.393C171.845 112.198 172.105 111.933 172.294 111.62C172.652 110.924 172.294 110.101 172.196 109.324C171.98 107.775 172.777 106.286 173.128 104.763C173.175 104.608 173.185 104.444 173.158 104.284C173.04 103.777 172.321 103.69 171.855 103.916C171.153 104.254 170.741 104.986 170.214 105.563C169.492 106.35 168.526 106.87 167.757 107.612C166.562 108.767 165.93 110.384 165.495 112.001C164.924 114.091 165.06 115.607 165.427 117.74C165.573 118.591 165.458 122.301 164.107 123.479C164.384 122.328 163.814 118.797 163.334 117.716C162.946 116.917 162.762 116.033 162.799 115.144C162.836 114.256 163.093 113.39 163.547 112.626C163.335 112.521 163.097 112.484 162.863 112.517C162.629 112.551 162.411 112.655 162.237 112.815C161.89 113.14 161.653 113.566 161.562 114.033C160.887 116.862 163.196 119.631 163.014 122.53C162.943 123.624 162.524 124.651 162.173 125.677C162.085 125.937 162.001 126.197 161.923 126.46C161.873 126.635 161.761 126.872 161.923 127.02C162.214 127.267 162.744 126.72 162.963 126.551C164.427 125.39 165.537 123.843 166.17 122.085C166.397 121.466 166.561 120.826 166.66 120.174C166.71 119.844 166.741 119.512 166.754 119.178C166.787 118.854 166.787 118.527 166.754 118.203C167.548 118.384 168.372 118.389 169.168 118.218C169.964 118.047 170.713 117.704 171.362 117.213C171.828 116.856 172.334 116.393 172.912 116.505C173.134 116.567 173.333 116.691 173.488 116.863C173.642 117.034 173.744 117.246 173.783 117.473C173.85 117.929 173.84 118.392 173.752 118.844C173.597 120.09 173.563 121.42 174.167 122.517C175.2 121.47 175.805 120.123 176.311 118.783Z" fill="#49523C"/>
<path d="M158.234 143.532C163.733 143.127 169.614 143.14 174.37 146.57C175.051 147.068 175.601 147.722 175.974 148.477C176.599 149.73 176.71 150.142 177.929 150.476C179.06 150.76 180.353 150.608 181.642 150.709C183.806 150.864 186.085 151.786 187.445 153.47L187.297 153.676C184.643 152.664 182.452 152.775 179.664 153.187C178.26 153.322 176.241 153.187 174.921 151.553C174.073 150.415 174.168 149.622 173.604 148.734C171.822 146.624 168.993 145.54 166.214 144.832C163.649 144.173 160.945 143.994 158.241 143.788V143.532H158.234Z" fill="#49523C"/>
<path d="M139.221 149.662C141.347 149.531 143.481 149.575 145.588 149.497C147.826 149.308 149.807 150.648 148.676 152.991C148.295 153.899 147.326 154.895 147.853 155.729C147.853 155.874 151.188 155.884 151.32 155.914L154.476 156.006C156.249 155.911 159.3 155.692 159.672 158.126C159.796 158.845 159.827 158.912 160.009 159.138C161.359 160.283 163.334 159.496 165.073 159.662C168.537 159.884 176.571 159.662 177 164.263C177.142 165.158 177 166.427 178.185 166.461L178.229 166.714C177.932 166.821 177.607 166.821 177.31 166.714C176.446 166.336 176.18 165.252 175.906 164.513C175.619 163.564 175.018 163.162 174.154 162.825C171.295 162.096 168.044 162.359 165.08 162.295C162.74 162.241 159.931 162.892 158.125 160.533C157.666 159.989 157.504 158.889 157.45 158.332C157.47 158.332 157.393 158.261 157.251 158.203C156.437 157.903 155.388 157.991 154.409 157.94L151.212 157.663L147.994 157.376C147.232 157.376 146.306 156.569 146.266 155.752C146.141 154.672 146.604 153.828 147.13 153.052C147.444 152.576 147.91 151.86 147.748 151.364C147.633 150.746 146.556 150.466 145.564 150.435C143.43 150.297 141.327 150.044 139.21 149.909V149.656L139.221 149.662Z" fill="#49523C"/>
<path d="M148.106 163.858C148.204 165.208 147.742 166.64 148.386 167.619C150.469 170.319 154.483 168.837 157.437 169.165C158.538 169.192 160.32 169.671 160.843 170.927C161.272 171.653 161.333 173.081 161.782 173.445C163.237 174.772 166.333 174.968 168.334 175.518C169.597 175.751 170.833 175.987 172.146 175.758L172.26 175.984C171.15 176.94 169.607 177.199 168.23 177.301C164.715 177.497 159.169 177.226 159.051 172.547C158.936 171.197 158.376 171.271 157.221 170.991C153.825 170.539 146.736 171.265 147.509 165.819C147.63 165.144 147.802 164.513 147.846 163.858H148.106Z" fill="#49523C"/>
<path d="M129.309 162.474C129.355 162.682 129.465 162.87 129.624 163.012C129.782 163.154 129.982 163.242 130.194 163.264C131.639 163.601 133.232 163.189 134.535 164.162C136.122 165.823 134.592 168.385 133.89 170.042C133.509 170.873 133.418 171.612 133.796 172.112C134.174 172.611 134.954 172.946 135.821 173.141L141.425 174.222C143.248 174.418 145.712 175.572 145.345 177.878C145.128 179.289 144.102 180.271 143.069 180.916C142.161 181.527 141.162 181.909 141.044 183.026C140.845 184.278 142.057 184.852 142.732 185.862C144.44 188.1 143.782 191.479 141.685 193.187L141.486 193.029C142.58 190.919 142.668 188.674 141.148 187.134C140.713 186.675 140.017 186.277 139.525 185.713C137.857 183.927 138.36 180.764 140.379 179.505C141.341 178.83 142.161 178.513 142.559 178.08C143.849 176.933 141.955 176.45 140.963 176.193C138.262 175.181 131.736 175.096 132.185 171.038C132.432 169.492 133.576 168.365 134.002 166.987C134.95 164.513 133.543 164.209 131.507 163.949C130.616 163.784 129.167 163.672 129.046 162.521L129.296 162.467L129.309 162.474Z" fill="#49523C"/>
<path d="M159.969 134.846C165.164 134.508 172.709 134.17 177.989 133.958C184.035 133.532 190.034 133.461 196.009 134.846V135.099C190.034 136.483 184.035 136.412 177.989 135.987C172.689 135.771 165.195 135.45 159.969 135.099V134.846Z" fill="#49523C"/>
<path d="M123.8 167.872C124.046 168.584 123.776 169.32 123.678 169.955C123.415 174.657 128.931 176.825 129.816 181.213C129.887 181.618 129.846 181.939 129.88 182.283L129.731 182.361C129.502 182.093 129.293 181.808 129.103 181.51C127.537 179.768 125.923 178.037 124.715 175.954C123.648 174.181 122.52 171.967 123.155 169.83C123.371 169.155 123.712 168.564 123.621 167.916L123.783 167.872H123.8Z" fill="#49523C"/>
<path d="M132.449 155.675C134.758 154.912 139.633 156.431 139.73 159.304C139.693 159.745 139.604 160.18 139.464 160.6C139.397 160.761 139.384 160.938 139.427 161.107C139.469 161.275 139.565 161.426 139.7 161.535L139.663 161.701C139.519 161.74 139.367 161.745 139.221 161.717C139.074 161.689 138.935 161.628 138.816 161.539C137.857 160.732 138.323 159.489 137.732 158.618C136.719 156.961 134.427 155.881 132.486 155.84L132.449 155.675Z" fill="#49523C"/>
<path d="M158.278 149.575C159.645 150.469 161.09 149.163 162.633 149.47C162.991 149.523 163.328 149.675 163.604 149.91C163.88 150.144 164.085 150.452 164.196 150.797C164.442 151.728 164.196 152.242 164.418 152.863C164.776 153.73 165.958 153.984 166.782 154.507V154.676C165.668 155.091 164.499 155.185 163.426 154.389C163.14 154.148 162.92 153.839 162.788 153.49C162.655 153.14 162.615 152.763 162.67 152.393C162.779 151.977 162.853 151.553 162.889 151.124C162.867 150.991 162.806 150.867 162.714 150.767C162.622 150.668 162.504 150.597 162.373 150.564C161.117 150.122 159.132 150.962 158.156 149.686L158.284 149.575H158.278Z" fill="#49523C"/>
<path d="M181.004 142.58C182.047 143.056 183.337 142.647 184.481 142.603L185.659 142.465C187.307 142.171 188.731 141.79 190.423 142.465L190.46 142.63C189.994 143.077 189.435 143.414 188.823 143.617C188.211 143.82 187.562 143.885 186.922 143.805L185.683 143.704C184.468 143.555 183.252 143.474 182.04 143.242C181.612 143.172 181.213 142.981 180.889 142.691L181.004 142.566V142.58Z" fill="#49523C"/>
<path d="M151.756 175.596C152.792 176.011 152.633 177.473 152.194 178.276C150.588 180.764 152.049 181.095 154.031 182.098C154.507 182.313 154.9 182.676 155.152 183.134L155.05 183.269C154.038 183.144 153.339 183.401 152.302 183.131C150.615 182.756 149.571 180.352 150.615 178.911C151.232 177.962 152.741 176.852 151.681 175.748L151.756 175.596Z" fill="#49523C"/>
</g>
<defs>
<clipPath id="clip0_760_97">
<rect width="259" height="259" fill="white"/>
</clipPath>
</defs>
</svg>
