<svg width="43" height="43" viewBox="0 0 43 43" fill="none" xmlns="http://www.w3.org/2000/svg">
<g clip-path="url(#clip0_765_126)">
<path d="M42.4 21.2C42.4 15.5774 40.1664 10.1851 36.1907 6.20935C32.2149 2.23358 26.8226 0 21.2 0C15.5774 0 10.1851 2.23358 6.20935 6.20935C2.23358 10.1851 0 15.5774 0 21.2C1.70599e-06 26.2489 1.80196 31.1321 5.08154 34.9708C8.36113 38.8095 12.903 41.3517 17.89 42.14V27.33H12.51V21.2H17.89V16.53C17.89 11.21 21.06 8.28 25.89 8.28C27.4779 8.30167 29.062 8.4387 30.63 8.69V13.91H27.96C25.33 13.91 24.51 15.54 24.51 17.22V21.22H30.39L29.45 27.35H24.51V42.16C29.5004 41.3712 34.045 38.8261 37.325 34.9832C40.605 31.1403 42.4048 26.2524 42.4 21.2V21.2Z" fill="white"/>
</g>
<defs>
<clipPath id="clip0_765_126">
<rect width="42.4" height="42.14" fill="white"/>
</clipPath>
</defs>
</svg>
