<svg width="63" height="63" viewBox="0 0 63 63" fill="none" xmlns="http://www.w3.org/2000/svg">
<g clip-path="url(#clip0_92_41)">
<path d="M31.115 62.23C48.2993 62.23 62.23 48.2993 62.23 31.115C62.23 13.9307 48.2993 0 31.115 0C13.9307 0 0 13.9307 0 31.115C0 48.2993 13.9307 62.23 31.115 62.23Z" fill="#D25037"/>
<path d="M24.3125 37.9695L23.8919 37.5177C20.9264 34.3729 19.275 30.2136 19.2755 25.8911C19.275 21.5686 20.9264 17.4093 23.8919 14.2645L24.3125 13.8127L24.7383 14.2645C27.7023 17.4099 29.3519 21.5692 29.3495 25.8911C29.3509 30.2128 27.7014 34.3718 24.7383 37.5177L24.3125 37.9695ZM24.3125 15.5264C21.8075 18.4057 20.4312 22.0954 20.4387 25.9119C20.4331 29.728 21.8091 33.4171 24.3125 36.2974C26.8194 33.4189 28.1975 29.729 28.1915 25.9119C28.2019 22.0909 26.8234 18.3962 24.3125 15.516V15.5264Z" fill="#FFF4E6"/>
<path d="M24.3125 20.2154C24.6939 20.2154 25.0031 19.9062 25.0031 19.5247C25.0031 19.1433 24.6939 18.8341 24.3125 18.8341C23.931 18.8341 23.6218 19.1433 23.6218 19.5247C23.6218 19.9062 23.931 20.2154 24.3125 20.2154Z" fill="#FFF4E6"/>
<path d="M26.374 23.1285H22.2354V24.2865H26.374V23.1285Z" fill="#FFF4E6"/>
<path d="M26.374 25.2991H22.2354V26.4571H26.374V25.2991Z" fill="#FFF4E6"/>
<path d="M26.374 27.4697H22.2354V28.6277H26.374V27.4697Z" fill="#FFF4E6"/>
<path d="M24.8941 37.1074H23.7361V49.4766H24.8941V37.1074Z" fill="#FFF4E6"/>
<path d="M23.8979 36.6947L20.6557 39.9369L21.4745 40.7557L24.7167 37.5135L23.8979 36.6947Z" fill="#FFF4E6"/>
<path d="M23.8998 39.9525L20.6575 43.1947L21.4763 44.0135L24.7186 40.7713L23.8998 39.9525Z" fill="#FFF4E6"/>
<path d="M23.9021 43.6468L20.6599 46.889L21.4787 47.7079L24.7209 44.4656L23.9021 43.6468Z" fill="#FFF4E6"/>
<path d="M24.716 36.6988L23.8972 37.5176L27.1394 40.7598L27.9583 39.941L24.716 36.6988Z" fill="#FFF4E6"/>
<path d="M24.7622 39.8837L23.9432 40.7024L27.1849 43.9452L28.0039 43.1265L24.7622 39.8837Z" fill="#FFF4E6"/>
<path d="M24.7203 43.6508L23.9014 44.4696L27.1437 47.7119L27.9625 46.893L24.7203 43.6508Z" fill="#FFF4E6"/>
<path d="M41.7446 33.8152L41.1786 33.5556C37.2365 31.7828 34.1224 28.5684 32.4755 24.5721C30.8235 20.5789 30.7622 16.1049 32.3041 12.068L32.5222 11.4916L33.0831 11.746C37.0239 13.5205 40.1374 16.7344 41.7861 20.7295C43.4372 24.7226 43.5004 29.1956 41.9627 33.2336L41.7446 33.8152ZM33.1765 13.0754C31.9599 16.6844 32.0927 20.6121 33.5504 24.1307C35.0002 27.6546 37.6793 30.5329 41.0903 32.2314C42.3016 28.6198 42.1689 24.6924 40.7164 21.1709C39.2678 17.6398 36.5893 14.7529 33.1765 13.0442V13.0754Z" fill="#FFF4E6"/>
<path d="M34.7032 17.4581C35.0846 17.4581 35.3938 17.1488 35.3938 16.7674C35.3938 16.386 35.0846 16.0768 34.7032 16.0768C34.3218 16.0768 34.0126 16.386 34.0126 16.7674C34.0126 17.1488 34.3218 17.4581 34.7032 17.4581Z" fill="#FFF4E6"/>
<path d="M38.051 19.2703L34.2258 20.8501L34.6678 21.9204L38.493 20.3406L38.051 19.2703Z" fill="#FFF4E6"/>
<path d="M38.8831 21.2732L35.0578 22.853L35.4998 23.9233L39.3251 22.3435L38.8831 21.2732Z" fill="#FFF4E6"/>
<path d="M39.7099 23.2761L35.8846 24.8558L36.3267 25.9261L40.1519 24.3463L39.7099 23.2761Z" fill="#FFF4E6"/>
<path d="M42.0184 32.7576L40.9481 33.1996L45.6696 44.6322L46.7399 44.1902L42.0184 32.7576Z" fill="#FFF4E6"/>
<path d="M40.8905 32.7209L39.1314 36.9552L40.2008 37.3995L41.9599 33.1651L40.8905 32.7209Z" fill="#FFF4E6"/>
<path d="M42.1352 35.7321L40.376 39.9664L41.4454 40.4107L43.2045 36.1763L42.1352 35.7321Z" fill="#FFF4E6"/>
<path d="M43.5476 39.1451L41.7885 43.3794L42.8579 43.8237L44.617 39.5893L43.5476 39.1451Z" fill="#FFF4E6"/>
<path d="M41.6498 32.4093L41.2056 33.4786L45.4399 35.2377L45.8841 34.1684L41.6498 32.4093Z" fill="#FFF4E6"/>
<path d="M42.8769 35.5031L42.4327 36.5725L46.667 38.3316L47.1113 37.2622L42.8769 35.5031Z" fill="#FFF4E6"/>
<path d="M44.3049 38.8382L43.8607 39.9076L48.095 41.6667L48.5392 40.5973L44.3049 38.8382Z" fill="#FFF4E6"/>
</g>
<defs>
<clipPath id="clip0_92_41">
<rect width="62.23" height="62.23" fill="white"/>
</clipPath>
</defs>
</svg>
