<svg width="62" height="62" viewBox="0 0 62 62" fill="none" xmlns="http://www.w3.org/2000/svg">
<g clip-path="url(#clip0_426_174)">
<path d="M31.0021 62.0042C48.1241 62.0042 62.0042 48.1241 62.0042 31.0021C62.0042 13.8801 48.1241 0 31.0021 0C13.8801 0 0 13.8801 0 31.0021C0 48.1241 13.8801 62.0042 31.0021 62.0042Z" fill="#D25037"/>
<path d="M16.3507 17.9283L16.078 17.6262L17.064 16.7409L17.3367 17.043C17.402 17.1155 17.4809 17.1744 17.5689 17.2163C17.657 17.2583 17.7524 17.2825 17.8498 17.2875C17.9472 17.2926 18.0447 17.2784 18.1366 17.2458C18.2285 17.2132 18.3131 17.1629 18.3856 17.0976C18.4581 17.0323 18.5169 16.9534 18.5589 16.8653C18.6008 16.7773 18.625 16.6818 18.6301 16.5844C18.6352 16.487 18.621 16.3895 18.5884 16.2976C18.5558 16.2057 18.5054 16.1211 18.4401 16.0487L17.8989 15.4528C17.8395 15.3707 17.7629 15.3025 17.6744 15.253C17.5859 15.2036 17.4877 15.174 17.3867 15.1664C17.2856 15.1588 17.1841 15.1734 17.0892 15.2091C16.9943 15.2448 16.9084 15.3008 16.8374 15.3731C16.6419 15.5716 16.4063 15.7261 16.1463 15.8261C15.8863 15.9262 15.608 15.9695 15.3299 15.9532C15.0518 15.9369 14.7804 15.8614 14.5338 15.7317C14.2873 15.602 14.0713 15.4211 13.9004 15.2011L13.2333 14.4627C13.0424 14.2626 12.8935 14.0263 12.7956 13.7676C12.6976 13.509 12.6524 13.2334 12.6628 12.9571C12.6732 12.6807 12.7389 12.4093 12.8561 12.1587C12.9732 11.9082 13.1393 11.6837 13.3447 11.4985C13.5501 11.3134 13.7905 11.1712 14.0518 11.0806C14.3131 10.9899 14.5899 10.9526 14.8658 10.9708C15.1418 10.989 15.4113 11.0623 15.6584 11.1864C15.9055 11.3105 16.1252 11.483 16.3045 11.6935L16.5689 11.9872L15.5829 12.8767L15.3185 12.583C15.2596 12.5002 15.1832 12.4315 15.0947 12.3816C15.0062 12.3317 14.9078 12.3018 14.8065 12.2942C14.7052 12.2866 14.6034 12.3014 14.5085 12.3375C14.4135 12.3737 14.3277 12.4302 14.257 12.5033C14.1772 12.5664 14.112 12.646 14.0659 12.7367C14.0198 12.8273 13.9939 12.9269 13.9899 13.0286C13.9859 13.1302 14.0039 13.2315 14.0428 13.3255C14.0817 13.4195 14.1405 13.504 14.2151 13.5732L14.8822 14.3158C14.9439 14.3971 15.0223 14.4642 15.1122 14.5125C15.202 14.5609 15.3012 14.5894 15.403 14.5962C15.5048 14.6029 15.6069 14.5878 15.7023 14.5517C15.7978 14.5156 15.8844 14.4595 15.9563 14.3871C16.152 14.1889 16.3879 14.0347 16.648 13.9351C16.9082 13.8354 17.1866 13.7924 17.4648 13.8091C17.7429 13.8258 18.0142 13.9017 18.2606 14.0318C18.5069 14.1619 18.7226 14.3431 18.8933 14.5634L19.4303 15.1633C19.6269 15.3623 19.7811 15.5991 19.8836 15.8594C19.986 16.1197 20.0347 16.398 20.0265 16.6776C20.0183 16.9572 19.9535 17.2322 19.836 17.4861C19.7185 17.7399 19.5507 17.9673 19.3429 18.1544C19.135 18.3416 18.8913 18.4846 18.6266 18.5749C18.3618 18.6652 18.0815 18.7008 17.8026 18.6797C17.5237 18.6586 17.252 18.5811 17.0038 18.4519C16.7557 18.3228 16.5364 18.1447 16.3591 17.9283H16.3507Z" fill="#FFF4E5"/>
<path d="M21.6288 16.0906L17.387 8.72709L18.5366 8.06836L22.791 15.4109L21.6288 16.0906Z" fill="#FFF4E5"/>
<path d="M24.8261 13.1159L26.647 12.4823L27.0666 13.7411L23.9995 14.811L21.2094 6.78456L22.4681 6.36499L24.8261 13.1159Z" fill="#FFF4E5"/>
<path d="M31.5727 11.3829C31.5939 11.6537 31.5615 11.926 31.4775 12.1843C31.3935 12.4427 31.2594 12.6819 31.0829 12.8884C30.9064 13.0949 30.691 13.2646 30.4489 13.3878C30.2068 13.5111 29.9428 13.5854 29.672 13.6066C29.4012 13.6278 29.1289 13.5955 28.8705 13.5115C28.6122 13.4274 28.373 13.2933 28.1665 13.1168C27.96 12.9403 27.7903 12.7249 27.6671 12.4828C27.5438 12.2408 27.4695 11.9768 27.4483 11.7059L26.9364 5.14388L28.258 5.03899L28.7699 11.6011C28.7678 11.7021 28.7876 11.8024 28.8279 11.895C28.8682 11.9877 28.9281 12.0706 29.0034 12.1379C29.0787 12.2053 29.1677 12.2555 29.2643 12.2853C29.3609 12.315 29.4628 12.3235 29.5629 12.3101C29.6663 12.3088 29.7681 12.2849 29.8613 12.2401C29.9545 12.1953 30.0367 12.1307 30.1023 12.0507C30.1678 11.9708 30.2151 11.8775 30.2408 11.7773C30.2665 11.6772 30.27 11.5726 30.251 11.471L29.7349 4.92149L31.0566 4.8208L31.5727 11.3829Z" fill="#FFF4E5"/>
<path d="M37.0564 10.5858C37.22 10.7527 37.3383 10.9586 37.4 11.1841C37.4616 11.4095 37.4647 11.6469 37.4089 11.8739L36.9012 14.2361L35.6089 13.9591L36.1124 11.597C36.14 11.5069 36.1479 11.4121 36.1354 11.3187C36.123 11.2254 36.0906 11.1359 36.0404 11.0562C35.9902 10.9766 35.9235 10.9087 35.8447 10.8572C35.7659 10.8057 35.6769 10.7718 35.5838 10.7578L34.8285 10.5984L34.1782 13.6445L32.8817 13.3676L34.6607 5.06006L36.7082 5.47963C36.9765 5.52086 37.2328 5.61879 37.4602 5.76693C37.6876 5.91507 37.8808 6.10999 38.0269 6.33869C38.173 6.5674 38.2687 6.82463 38.3076 7.09323C38.3464 7.36182 38.3276 7.63563 38.2522 7.89636L37.9795 9.15508C37.936 9.4454 37.8312 9.72313 37.672 9.96981C37.5129 10.2165 37.303 10.4265 37.0564 10.5858ZM36.9558 7.6488C36.9834 7.5591 36.9913 7.4645 36.9792 7.37144C36.967 7.27837 36.9349 7.18903 36.8852 7.10944C36.8355 7.02985 36.7692 6.96187 36.6909 6.91015C36.6125 6.85843 36.524 6.82416 36.4313 6.80966L35.6761 6.65022L35.1054 9.31869L35.8607 9.47813C35.9522 9.50654 36.0489 9.51437 36.1438 9.50105C36.2388 9.48772 36.3296 9.45357 36.4098 9.40105C36.4899 9.34852 36.5575 9.27892 36.6077 9.19723C36.6578 9.11553 36.6893 9.02376 36.6998 8.92849L36.9558 7.6488Z" fill="#FFF4E5"/>
<path d="M44.2815 9.91027L42.3683 8.92009L41.4074 10.7704L43.048 11.6095L42.4354 12.7885L40.7991 11.9494L39.6746 14.1102L41.5878 15.1046L40.9753 16.2794L37.8956 14.6724L41.8102 7.12012L44.8983 8.71868L44.2815 9.91027Z" fill="#FFF4E5"/>
<path d="M42.7627 15.1843L43.0354 14.8822L44.0172 15.7717L43.7445 16.0738C43.6126 16.2201 43.5443 16.4128 43.5545 16.6095C43.5647 16.8063 43.6527 16.9909 43.799 17.1227C43.9453 17.2546 44.1381 17.3229 44.3348 17.3127C44.5315 17.3024 44.7161 17.2145 44.8479 17.0682L45.385 16.4724C45.4603 16.4045 45.5199 16.3211 45.5598 16.2279C45.5997 16.1348 45.6189 16.034 45.6161 15.9327C45.6133 15.8314 45.5886 15.7319 45.5436 15.6411C45.4986 15.5503 45.4345 15.4703 45.3556 15.4067C45.1382 15.2329 44.9604 15.0147 44.834 14.7667C44.7077 14.5187 44.6358 14.2466 44.6231 13.9686C44.6104 13.6906 44.6572 13.413 44.7604 13.1545C44.8635 12.896 45.0207 12.6625 45.2214 12.4697L45.8885 11.7312C46.0706 11.5296 46.2906 11.3657 46.536 11.2491C46.7814 11.1325 47.0474 11.0653 47.3188 11.0515C47.5901 11.0377 47.8616 11.0774 48.1176 11.1685C48.3736 11.2596 48.6091 11.4002 48.8108 11.5823C49.0125 11.7644 49.1763 11.9844 49.2929 12.2298C49.4095 12.4752 49.4767 12.7412 49.4905 13.0126C49.5043 13.284 49.4646 13.5554 49.3735 13.8114C49.2824 14.0674 49.1418 14.3029 48.9597 14.5046L48.6912 14.7983L47.7094 13.9088L47.9737 13.6151C48.0464 13.5443 48.1039 13.4593 48.1425 13.3655C48.1811 13.2716 48.2 13.1709 48.1982 13.0694C48.1963 12.9679 48.1737 12.8679 48.1317 12.7755C48.0896 12.6831 48.0291 12.6004 47.9539 12.5323C47.8786 12.4642 47.7902 12.4123 47.6941 12.3797C47.5979 12.3471 47.4962 12.3346 47.395 12.3428C47.2939 12.3511 47.1955 12.3801 47.106 12.4279C47.0164 12.4757 46.9376 12.5413 46.8745 12.6207L46.2031 13.3591C46.1285 13.4287 46.0696 13.5135 46.0307 13.6079C45.9919 13.7022 45.9738 13.8039 45.9778 13.9058C45.9817 14.0078 46.0077 14.1077 46.0538 14.1988C46.1 14.2898 46.1652 14.3698 46.2451 14.4333C46.4617 14.6079 46.6385 14.8268 46.7637 15.0753C46.8889 15.3238 46.9596 15.5962 46.9711 15.8742C46.9827 16.1522 46.9347 16.4295 46.8305 16.6875C46.7263 16.9455 46.5682 17.1782 46.3668 17.3702L45.8297 17.9661C45.6504 18.1771 45.4304 18.35 45.183 18.4744C44.9355 18.5988 44.6656 18.6723 44.3892 18.6904C44.1128 18.7086 43.8356 18.6711 43.574 18.58C43.3124 18.489 43.0718 18.3464 42.8663 18.1607C42.6609 17.9749 42.4948 17.7497 42.3781 17.4986C42.2613 17.2474 42.1961 16.9754 42.1864 16.6986C42.1768 16.4218 42.2228 16.1459 42.3218 15.8872C42.4208 15.6285 42.5707 15.3923 42.7627 15.1927V15.1843Z" fill="#FFF4E5"/>
<path d="M12.906 47.3318L13.422 47.8227C13.492 47.8959 13.577 47.9531 13.6711 47.9905C13.7652 48.0279 13.8662 48.0446 13.9674 48.0394C14.0685 48.0342 14.1673 48.0073 14.2571 47.9605C14.3469 47.9137 14.4256 47.8481 14.4877 47.7682L18.9352 43.0564L19.9002 43.9669L15.4486 48.6745C15.2733 48.8908 15.0538 49.0671 14.8048 49.1916C14.5558 49.3161 14.283 49.3859 14.0048 49.3962C13.7266 49.4065 13.4494 49.3572 13.1919 49.2515C12.9343 49.1458 12.7023 48.9863 12.5116 48.7835L11.9955 48.2926L12.906 47.3318Z" fill="#FFF4E5"/>
<path d="M20.8401 52.3542C20.7063 52.5925 20.5265 52.8019 20.3113 52.9703C20.0961 53.1388 19.8496 53.2629 19.5861 53.3355C19.3226 53.4081 19.0473 53.4278 18.7762 53.3934C18.5051 53.359 18.2434 53.2712 18.0064 53.1351C17.7694 52.999 17.5617 52.8173 17.3953 52.6004C17.229 52.3836 17.1072 52.1359 17.0372 51.8717C16.9671 51.6076 16.9501 51.3321 16.9871 51.0613C17.0241 50.7905 17.1144 50.5298 17.2527 50.2941L20.5338 44.5879L21.6834 45.2508L18.4024 50.957C18.3431 51.039 18.3024 51.133 18.2832 51.2324C18.264 51.3318 18.2666 51.4342 18.291 51.5324C18.3153 51.6307 18.3608 51.7224 18.4243 51.8013C18.4877 51.8802 18.5676 51.9443 18.6583 51.9891C18.7434 52.045 18.8396 52.0819 18.9402 52.0973C19.0409 52.1127 19.1436 52.1063 19.2416 52.0784C19.3395 52.0506 19.4303 52.0019 19.5077 51.9358C19.5852 51.8697 19.6475 51.7877 19.6904 51.6954L22.9715 45.9893L24.1211 46.648L20.8401 52.3542Z" fill="#FFF4E5"/>
<path d="M23.0135 53.2311L23.1142 52.8367L24.398 53.1556L24.3015 53.5541C24.2714 53.6508 24.2613 53.7526 24.272 53.8533C24.2826 53.9539 24.3137 54.0514 24.3634 54.1396C24.413 54.2278 24.4802 54.3049 24.5608 54.3663C24.6413 54.4276 24.7336 54.4718 24.8319 54.4961C24.9301 54.5205 25.0323 54.5245 25.1322 54.5079C25.2321 54.4913 25.3275 54.4544 25.4126 54.3996C25.4977 54.3448 25.5707 54.2732 25.6271 54.1891C25.6836 54.105 25.7222 54.0103 25.7407 53.9108L25.9337 53.1304C25.9683 53.0355 25.9819 52.9342 25.9735 52.8336C25.9651 52.7329 25.9349 52.6353 25.885 52.5475C25.8351 52.4597 25.7667 52.3838 25.6845 52.3251C25.6024 52.2663 25.5084 52.2261 25.4092 52.2073C25.1342 52.1566 24.8733 52.0477 24.644 51.8878C24.4146 51.7279 24.2221 51.5207 24.0794 51.2803C23.9367 51.0398 23.8472 50.7716 23.8167 50.4937C23.7863 50.2158 23.8157 49.9346 23.9029 49.6689L24.1463 48.7039C24.2044 48.4324 24.3165 48.1754 24.476 47.9482C24.6354 47.721 24.839 47.5282 25.0746 47.3814C25.3102 47.2345 25.5729 47.1365 25.8471 47.0933C26.1213 47.0501 26.4014 47.0626 26.6707 47.1299C26.94 47.1972 27.193 47.318 27.4146 47.4852C27.6363 47.6524 27.822 47.8624 27.9607 48.1029C28.0994 48.3433 28.1883 48.6093 28.2221 48.8848C28.2559 49.1603 28.2339 49.4398 28.1574 49.7067L28.0609 50.0885L26.777 49.7696L26.8735 49.3836C26.9074 49.2881 26.9202 49.1865 26.9113 49.0856C26.9023 48.9847 26.8717 48.8869 26.8215 48.7989C26.7713 48.7109 26.7028 48.6348 26.6205 48.5757C26.5383 48.5166 26.4443 48.4759 26.3449 48.4564C26.2475 48.4262 26.1447 48.4173 26.0436 48.4303C25.9425 48.4432 25.8453 48.4777 25.7586 48.5314C25.6719 48.585 25.5978 48.6567 25.5411 48.7415C25.4845 48.8262 25.4466 48.9221 25.4302 49.0228L25.191 49.992C25.158 50.0881 25.1459 50.1901 25.1557 50.2913C25.1655 50.3924 25.197 50.4903 25.2479 50.5782C25.2988 50.6661 25.3681 50.7421 25.4509 50.8009C25.5338 50.8598 25.6283 50.9001 25.7281 50.9192C25.9998 50.9713 26.2574 51.0805 26.4838 51.2395C26.7102 51.3986 26.9003 51.6038 27.0415 51.8418C27.1827 52.0797 27.2717 52.3449 27.3028 52.6199C27.3339 52.8948 27.3063 53.1732 27.2218 53.4367L27.0246 54.2171C26.9665 54.4885 26.8544 54.7455 26.6949 54.9727C26.5354 55.1999 26.3318 55.3927 26.0963 55.5396C25.8607 55.6865 25.598 55.7844 25.3238 55.8276C25.0496 55.8708 24.7695 55.8584 24.5002 55.7911C24.2308 55.7238 23.9778 55.6029 23.7562 55.4357C23.5346 55.2686 23.3489 55.0585 23.2102 54.8181C23.0714 54.5776 22.9825 54.3117 22.9487 54.0362C22.9149 53.7607 22.937 53.4811 23.0135 53.2143V53.2311Z" fill="#FFF4E5"/>
<path d="M33.4189 54.3637C33.4525 54.9181 33.2672 55.4635 32.9028 55.8826L33.3224 57.3217L31.9756 57.3594L31.728 56.4826C31.6223 56.4984 31.5159 56.5082 31.4091 56.5119C31.1334 56.5324 30.8565 56.4941 30.5966 56.3997C30.3368 56.3053 30.0999 56.1568 29.9017 55.9641C29.7034 55.7714 29.5483 55.5388 29.4465 55.2818C29.3447 55.0247 29.2987 54.749 29.3113 54.4728L29.1854 49.8072C29.1679 49.5299 29.2064 49.2519 29.2986 48.9898C29.3909 48.7277 29.535 48.4869 29.7224 48.2817C29.9098 48.0765 30.1366 47.9112 30.3893 47.7956C30.6419 47.68 30.9153 47.6165 31.1931 47.6089C31.4708 47.6013 31.7473 47.6497 32.0059 47.7513C32.2645 47.8529 32.5001 48.0055 32.6984 48.2001C32.8967 48.3947 33.0538 48.6273 33.1603 48.8839C33.2668 49.1406 33.3205 49.4161 33.3182 49.6939L33.4189 54.3637ZM31.321 55.2029L30.935 53.8728L32.0678 53.8434L31.9588 49.7443C31.9679 49.6404 31.954 49.5358 31.9181 49.4379C31.8822 49.34 31.8252 49.2513 31.7511 49.1779C31.677 49.1046 31.5876 49.0485 31.4893 49.0137C31.391 48.9789 31.2863 48.9662 31.1826 48.9764C31.0812 48.9737 30.9804 48.993 30.8873 49.0331C30.7941 49.0731 30.7107 49.1329 30.6429 49.2083C30.5751 49.2837 30.5244 49.3729 30.4944 49.4698C30.4645 49.5667 30.4559 49.6689 30.4693 49.7694L30.5952 54.4351C30.5866 54.5346 30.5995 54.6348 30.6331 54.7289C30.6666 54.823 30.72 54.9088 30.7897 54.9805C30.8593 55.0521 30.9436 55.1079 31.0367 55.1441C31.1298 55.1803 31.2297 55.1961 31.3294 55.1903L31.321 55.2029Z" fill="#FFF4E5"/>
<path d="M39.8215 52.6896C39.9041 52.948 39.9351 53.2202 39.9125 53.4906C39.89 53.761 39.8144 54.0242 39.6902 54.2654C39.5659 54.5066 39.3953 54.7209 39.1882 54.8961C38.9811 55.0714 38.7415 55.2041 38.4831 55.2868C38.2247 55.3694 37.9525 55.4004 37.6821 55.3778C37.4117 55.3553 37.1485 55.2797 36.9073 55.1555C36.6661 55.0312 36.4518 54.8606 36.2766 54.6535C36.1013 54.4464 35.9686 54.2068 35.8859 53.9483L33.8804 47.68L35.1391 47.2604L37.1446 53.5288C37.1652 53.628 37.2071 53.7216 37.2675 53.803C37.328 53.8844 37.4054 53.9516 37.4945 53.9999C37.5836 54.0483 37.6822 54.0766 37.7834 54.0829C37.8845 54.0892 37.9859 54.0734 38.0803 54.0365C38.1786 54.0106 38.2702 53.964 38.349 53.8999C38.4278 53.8357 38.4921 53.7555 38.5373 53.6645C38.5826 53.5735 38.608 53.4739 38.6116 53.3724C38.6153 53.2708 38.5972 53.1697 38.5586 53.0757L36.553 46.8073L37.8117 46.3877L39.8215 52.6896Z" fill="#FFF4E5"/>
<path d="M39.7879 47.0718L39.3684 47.3193L38.5586 45.9305L39.7082 45.2634L40.5138 46.6564L40.7823 47.7976L40.0691 48.2172L39.7879 47.0718Z" fill="#FFF4E5"/>
<path d="M40.9376 43.5221L38.8397 42.7501L39.8425 41.8857L41.6383 42.9053L40.9376 43.5221ZM49.0773 48.6115L48.0493 49.501L46.9248 48.5569L45.7543 49.5723L46.4969 50.831L45.4773 51.7121L41.1851 44.1934L42.2634 43.2577L49.0773 48.6115ZM45.9053 47.7178L43.2578 45.5276L45.041 48.4646L45.9053 47.7178Z" fill="#FFF4E5"/>
<path d="M18.7003 27.3813C18.7241 28.2017 18.4763 29.007 17.9954 29.6721C18.4737 30.3465 18.7209 31.1575 18.7003 31.984V33.8721C18.7003 36.0496 17.2863 37.4972 15.0752 37.4972C12.864 37.4972 11.4627 36.0622 11.4627 33.8721V31.984C11.4402 31.1572 11.6876 30.3457 12.1675 29.6721C11.6847 29.008 11.4367 28.202 11.4627 27.3813V25.8121C11.4627 23.6387 12.8724 22.187 15.0878 22.187C17.3031 22.187 18.7129 23.6387 18.7129 25.8121L18.7003 27.3813ZM16.0528 25.8121C16.0365 25.5633 15.9262 25.3301 15.7442 25.1597C15.5623 24.9893 15.3224 24.8945 15.0731 24.8945C14.8238 24.8945 14.5838 24.9893 14.4019 25.1597C14.22 25.3301 14.1097 25.5633 14.0934 25.8121V27.3813C14.1097 27.6301 14.22 27.8633 14.4019 28.0337C14.5838 28.2041 14.8238 28.2989 15.0731 28.2989C15.3224 28.2989 15.5623 28.2041 15.7442 28.0337C15.9262 27.8633 16.0365 27.6301 16.0528 27.3813V25.8121ZM16.0528 31.984C16.0365 31.7352 15.9262 31.502 15.7442 31.3316C15.5623 31.1612 15.3224 31.0663 15.0731 31.0663C14.8238 31.0663 14.5838 31.1612 14.4019 31.3316C14.22 31.502 14.1097 31.7352 14.0934 31.984V33.8721C14.0846 34.0061 14.1034 34.1405 14.1487 34.267C14.194 34.3935 14.2647 34.5093 14.3565 34.6074C14.4484 34.7054 14.5593 34.7836 14.6826 34.837C14.8058 34.8904 14.9387 34.918 15.0731 34.918C15.2074 34.918 15.3403 34.8904 15.4636 34.837C15.5868 34.7836 15.6978 34.7054 15.7896 34.6074C15.8815 34.5093 15.9522 34.3935 15.9975 34.267C16.0427 34.1405 16.0616 34.0061 16.0528 33.8721V31.984Z" fill="#FFF4E6"/>
<path d="M28.1826 25.8121V33.8721C28.1826 36.0496 26.7728 37.4972 24.5575 37.4972C22.3421 37.4972 20.9324 36.0496 20.9324 33.8721V25.8121C20.9324 23.6387 22.3421 22.187 24.5575 22.187C26.7728 22.187 28.1826 23.6387 28.1826 25.8121ZM23.5673 25.8121V30.7504L25.1365 24.9897C24.9591 24.8838 24.7556 24.83 24.5491 24.8345C24.4183 24.8243 24.2869 24.8427 24.1639 24.8883C24.0409 24.9339 23.9293 25.0057 23.8367 25.0986C23.7442 25.1916 23.6729 25.3035 23.6278 25.4267C23.5827 25.5499 23.5649 25.6814 23.5757 25.8121H23.5673ZM25.5351 33.8721V28.9882L23.9701 34.7112C24.1474 34.8171 24.351 34.8709 24.5575 34.8664C24.6901 34.8776 24.8236 34.8594 24.9484 34.8131C25.0732 34.7668 25.1863 34.6936 25.2797 34.5987C25.373 34.5038 25.4443 34.3895 25.4884 34.2639C25.5325 34.1383 25.5485 34.0045 25.5351 33.8721Z" fill="#FFF4E6"/>
<path d="M42.8592 37.1991H40.3082L38.3488 31.9084L37.6439 32.886V37.1991H35.1936V22.5142H37.6439V29.3532L39.7418 26.4162H42.2885L39.9557 29.6762L42.8592 37.1991Z" fill="#FFF4E6"/>
<path d="M50.4828 26.4203V37.1991C50.4828 39.3557 49.1318 40.7864 47.0549 40.7864C44.978 40.7864 43.6228 39.3347 43.6228 37.1571V36.7376H46.0731V37.3627C46.0643 37.4968 46.0831 37.6312 46.1284 37.7577C46.1737 37.8841 46.2444 38 46.3362 38.0981C46.4281 38.1961 46.5391 38.2742 46.6623 38.3277C46.7856 38.3811 46.9185 38.4087 47.0528 38.4087C47.1871 38.4087 47.32 38.3811 47.4433 38.3277C47.5665 38.2742 47.6775 38.1961 47.7694 38.0981C47.8612 38 47.9319 37.8841 47.9772 37.7577C48.0224 37.6312 48.0413 37.4968 48.0325 37.3627V35.3823C47.7957 35.6216 47.5112 35.8085 47.1975 35.9306C46.8837 36.0528 46.5478 36.1076 46.2116 36.0914C44.9528 36.0914 43.6228 35.4243 43.6228 32.6593V29.6049C43.6228 26.8399 44.9361 26.1728 46.2116 26.1728C46.5474 26.1571 46.8828 26.2117 47.1964 26.3331C47.5099 26.4545 47.7947 26.64 48.0325 26.8777V26.4287L50.4828 26.4203ZM48.0325 32.651V29.5965C48.0413 29.4624 48.0224 29.328 47.9772 29.2015C47.9319 29.075 47.8612 28.9592 47.7694 28.8611C47.6775 28.7631 47.5665 28.6849 47.4433 28.6315C47.32 28.5781 47.1871 28.5505 47.0528 28.5505C46.9185 28.5505 46.7856 28.5781 46.6623 28.6315C46.5391 28.6849 46.4281 28.7631 46.3362 28.8611C46.2444 28.9592 46.1737 29.075 46.1284 29.2015C46.0831 29.328 46.0643 29.4624 46.0731 29.5965V32.651C46.0643 32.785 46.0831 32.9194 46.1284 33.0459C46.1737 33.1724 46.2444 33.2882 46.3362 33.3863C46.4281 33.4843 46.5391 33.5625 46.6623 33.6159C46.7856 33.6693 46.9185 33.6969 47.0528 33.6969C47.1871 33.6969 47.32 33.6693 47.4433 33.6159C47.5665 33.5625 47.6775 33.4843 47.7694 33.3863C47.8612 33.2882 47.9319 33.1724 47.9772 33.0459C48.0224 32.9194 48.0413 32.785 48.0325 32.651Z" fill="#FFF4E6"/>
</g>
<defs>
<clipPath id="clip0_426_174">
<rect width="62" height="62" fill="white"/>
</clipPath>
</defs>
</svg>
