<svg width="63" height="63" viewBox="0 0 63 63" fill="none" xmlns="http://www.w3.org/2000/svg">
<g clip-path="url(#clip0_92_89)">
<path d="M31.115 62.23C48.2993 62.23 62.23 48.2993 62.23 31.115C62.23 13.9307 48.2993 0 31.115 0C13.9307 0 0 13.9307 0 31.115C0 48.2993 13.9307 62.23 31.115 62.23Z" fill="#D25037"/>
<path d="M15.3312 45.8517L12.9264 43.3354L19.2904 37.2781L19.9107 37.9333L14.2089 43.3633L15.359 44.5761L21.0678 39.1461L21.6882 39.8014L15.3312 45.8517Z" fill="#FFF4E5"/>
<path d="M21.9531 40.0035C21.3816 40.004 20.8232 39.8331 20.3498 39.513C19.8764 39.1929 19.5098 38.7382 19.2975 38.2076C19.0851 37.6771 19.0367 37.0951 19.1584 36.5367C19.2802 35.9784 19.5665 35.4693 19.9805 35.0754V35.0754C20.3187 34.7535 20.7306 34.5194 21.1802 34.3935C21.6298 34.2677 22.1034 34.2539 22.5595 34.3533C23.0157 34.4528 23.4406 34.6625 23.7969 34.9641C24.1533 35.2658 24.4304 35.6501 24.6039 36.0835C24.7774 36.517 24.842 36.9864 24.7922 37.4506C24.7424 37.9148 24.5796 38.3597 24.3181 38.7465C24.0565 39.1332 23.7042 39.45 23.2919 39.6692C22.8797 39.8883 22.42 40.0031 21.9531 40.0035V40.0035ZM21.9531 35.1939C21.452 35.1914 20.9696 35.3839 20.6078 35.7306V35.7306C20.3755 35.9519 20.2012 36.227 20.1006 36.5316C19.9999 36.8363 19.9759 37.161 20.0307 37.4772C20.0855 37.7933 20.2174 38.0911 20.4146 38.3441C20.6119 38.5971 20.8686 38.7976 21.1618 38.9278C21.455 39.058 21.7759 39.1139 22.0959 39.0905C22.4159 39.0672 22.7252 38.9653 22.9964 38.7939C23.2676 38.6225 23.4924 38.3868 23.6509 38.1079C23.8093 37.8289 23.8965 37.5151 23.9048 37.1944C23.9132 36.9379 23.8701 36.6824 23.7779 36.4429C23.6857 36.2034 23.5463 35.9849 23.3681 35.8003C23.1881 35.6111 22.972 35.4599 22.7325 35.3558C22.4931 35.2516 22.2352 35.1965 21.974 35.1939H21.9531Z" fill="#FFF4E5"/>
<path d="M45.4851 41.99H44.579V15.1051L23.2983 35.3053L22.6779 34.6501L45.4851 13V41.99Z" fill="#FFF4E5"/>
<path d="M37.755 21.8176C37.4762 21.8176 37.3089 21.8176 37.274 21.8176L37.3368 20.9115C37.3716 20.9115 41.296 21.1554 43.3453 18.9528C44.4048 17.8096 44.7951 16.1646 44.5093 14.1432L45.4016 14.0177C45.7292 16.3528 45.2622 18.2 44.0075 19.594C42.0976 21.6085 38.9539 21.8176 37.755 21.8176Z" fill="#FFF4E5"/>
<path d="M30.4989 28.7531C30.227 28.7531 30.0528 28.7531 30.0179 28.7531L30.0806 27.854C30.1225 27.854 34.0468 28.091 36.0961 25.8883C37.1556 24.7521 37.546 23.135 37.2532 21.0787L38.1524 20.9532C38.48 23.2953 38.013 25.1355 36.7583 26.5296C34.8415 28.5092 31.6978 28.7531 30.4989 28.7531Z" fill="#FFF4E5"/>
<path d="M23.4376 35.4448C23.1657 35.4448 22.9915 35.4448 22.9566 35.4448L23.0194 34.5386C23.0612 34.5386 26.9855 34.7826 29.0348 32.5799C30.0943 31.4438 30.4847 29.7918 30.1919 27.7704L31.0911 27.6449C31.4187 29.98 30.9447 31.8272 29.697 33.2212C27.8011 35.2357 24.6365 35.4448 23.4376 35.4448Z" fill="#FFF4E5"/>
<path d="M45.0527 44.2763C44.7571 44.2777 44.4677 44.1912 44.2213 44.0278C43.975 43.8644 43.7827 43.6315 43.6689 43.3587C43.5552 43.0858 43.5251 42.7853 43.5824 42.4953C43.6397 42.2053 43.7819 41.9389 43.991 41.7299C44.2 41.5208 44.4664 41.3786 44.7564 41.3213C45.0464 41.264 45.347 41.2941 45.6198 41.4078C45.8927 41.5216 46.1255 41.7139 46.2889 41.9602C46.4523 42.2066 46.5388 42.496 46.5374 42.7916C46.5374 43.1854 46.381 43.563 46.1025 43.8414C45.8241 44.1199 45.4465 44.2763 45.0527 44.2763V44.2763ZM45.0527 42.0597C44.9066 42.0527 44.7619 42.0897 44.637 42.1657C44.5122 42.2418 44.4129 42.3535 44.3522 42.4865C44.2914 42.6195 44.2719 42.7676 44.296 42.9118C44.3202 43.056 44.387 43.1896 44.4878 43.2955C44.5887 43.4014 44.7189 43.4746 44.8618 43.5058C45.0046 43.537 45.1535 43.5247 45.2893 43.4705C45.4251 43.4162 45.5415 43.3226 45.6235 43.2016C45.7056 43.0806 45.7496 42.9378 45.7497 42.7916C45.7545 42.6972 45.7399 42.6028 45.707 42.5141C45.6741 42.4255 45.6235 42.3445 45.5583 42.276C45.4931 42.2075 45.4147 42.1531 45.3277 42.1159C45.2408 42.0787 45.1472 42.0596 45.0527 42.0597Z" fill="#FFF4E5"/>
<path d="M46.5306 49.3577C46.0389 49.3577 45.5672 49.1624 45.2195 48.8147C44.8718 48.467 44.6765 47.9953 44.6765 47.5036V43.8999H45.4293V47.5036C45.4513 47.7815 45.5773 48.0408 45.7821 48.2299C45.9868 48.419 46.2553 48.5241 46.5341 48.5241C46.8128 48.5241 47.0813 48.419 47.2861 48.2299C47.4909 48.0408 47.6168 47.7815 47.6389 47.5036V46.8066H48.3917V47.5036C48.3898 47.996 48.193 48.4676 47.8441 48.8151C47.4953 49.1626 47.023 49.3577 46.5306 49.3577Z" fill="#FFF4E5"/>
</g>
<defs>
<clipPath id="clip0_92_89">
<rect width="62.23" height="62.23" fill="white"/>
</clipPath>
</defs>
</svg>
