<svg width="63" height="63" viewBox="0 0 63 63" fill="none" xmlns="http://www.w3.org/2000/svg">
<g clip-path="url(#clip0_45_1539)">
<path d="M31.1145 62.2289C48.2985 62.2289 62.2289 48.2985 62.2289 31.1145C62.2289 13.9304 48.2985 0 31.1145 0C13.9304 0 0 13.9304 0 31.1145C0 48.2985 13.9304 62.2289 31.1145 62.2289Z" fill="#D25037"/>
<path d="M41.396 25.4908C40.2628 25.4881 39.1766 25.0382 38.3734 24.2389C37.5702 23.4396 37.115 22.3556 37.1068 21.2224C37.1082 20.0848 37.5603 18.9941 38.3643 18.1893C39.1682 17.3844 40.2583 16.9308 41.396 16.9281C42.5345 16.9295 43.6259 17.3824 44.431 18.1874C45.236 18.9925 45.6889 20.0839 45.6903 21.2224C45.6821 22.3564 45.2262 23.4413 44.4219 24.2407C43.6176 25.0402 42.53 25.4895 41.396 25.4908ZM41.396 17.9511C40.9673 17.9511 40.5429 18.0358 40.1472 18.2005C39.7514 18.3651 39.3922 18.6064 39.0901 18.9105C38.7879 19.2145 38.5489 19.5753 38.3868 19.9721C38.2247 20.3689 38.1426 20.7938 38.1453 21.2224C38.1467 22.0841 38.4896 22.9102 39.0989 23.5195C39.7083 24.1288 40.5343 24.4717 41.396 24.4731C42.2581 24.4731 43.0849 24.1306 43.6945 23.521C44.3041 22.9114 44.6466 22.0846 44.6466 21.2224C44.6493 20.7938 44.5673 20.3689 44.4051 19.9721C44.243 19.5753 44.004 19.2145 43.7019 18.9105C43.3997 18.6064 43.0405 18.3651 42.6447 18.2005C42.249 18.0358 41.8246 17.9511 41.396 17.9511Z" fill="#FFF4E6"/>
<path d="M41.396 46.0538C41.2821 46.0594 41.1695 46.0273 41.0757 45.9625C40.9818 45.8978 40.9119 45.8039 40.8767 45.6955L35.5023 29.5307C35.4765 29.4526 35.4697 29.3695 35.4823 29.2883C35.495 29.207 35.5267 29.1299 35.575 29.0634C35.6228 28.9962 35.6858 28.9415 35.759 28.9036C35.8321 28.8656 35.9132 28.8457 35.9956 28.8453H46.8171C46.8995 28.8457 46.9806 28.8656 47.0537 28.9036C47.1269 28.9415 47.1899 28.9962 47.2377 29.0634C47.286 29.1299 47.3177 29.207 47.3304 29.2883C47.343 29.3695 47.3362 29.4526 47.3104 29.5307L41.91 45.6903C41.876 45.7988 41.8072 45.8932 41.7144 45.9588C41.6215 46.0245 41.5096 46.0579 41.396 46.0538ZM36.7226 29.8942L41.396 43.9144L46.0694 29.8942H36.7226Z" fill="#FFF4E6"/>
<path d="M20.8538 25.4908C19.7166 25.4949 18.6243 25.0479 17.8163 24.2477C17.0083 23.4475 16.5507 22.3596 16.5439 21.2224C16.5439 20.0844 16.9956 18.9929 17.7998 18.1877C18.604 17.3825 19.695 16.9295 20.833 16.9281C21.971 16.9295 23.062 17.3825 23.8662 18.1877C24.6704 18.9929 25.1221 20.0844 25.1221 21.2224C25.1153 22.3524 24.6634 23.4341 23.8644 24.2331C23.0654 25.0321 21.9837 25.484 20.8538 25.4908ZM20.8538 17.9511C20.4234 17.9483 19.9968 18.0311 19.5986 18.1945C19.2005 18.3579 18.8387 18.5988 18.5344 18.9031C18.2301 19.2074 17.9892 19.5691 17.8258 19.9673C17.6624 20.3654 17.5796 20.7921 17.5824 21.2224C17.5838 22.0841 17.9267 22.9102 18.536 23.5195C19.1453 24.1288 19.9713 24.4717 20.833 24.4731C21.6947 24.4717 22.5207 24.1288 23.13 23.5195C23.7393 22.9102 24.0822 22.0841 24.0836 21.2224C24.0863 20.7956 24.005 20.3723 23.8441 19.9769C23.6833 19.5815 23.4462 19.2216 23.1462 18.9178C22.8463 18.614 22.4895 18.3723 22.0962 18.2064C21.7028 18.0406 21.2806 17.9538 20.8538 17.9511Z" fill="#FFF4E6"/>
<path d="M26.2386 45.9032H15.4274C15.345 45.9028 15.2639 45.8829 15.1908 45.8449C15.1177 45.807 15.0546 45.7522 15.0068 45.6851C14.9586 45.6185 14.9268 45.5415 14.9142 45.4602C14.9015 45.379 14.9084 45.2959 14.9341 45.2178L20.3345 29.0582C20.3686 28.9543 20.4347 28.8638 20.5233 28.7997C20.6119 28.7356 20.7184 28.701 20.8278 28.701C20.9371 28.701 21.0437 28.7356 21.1323 28.7997C21.2209 28.8638 21.2869 28.9543 21.3211 29.0582L26.7267 45.2178C26.7524 45.2959 26.7592 45.379 26.7466 45.4602C26.734 45.5415 26.7022 45.6185 26.654 45.6851C26.6067 45.7515 26.5445 45.8059 26.4723 45.8438C26.4001 45.8817 26.3201 45.902 26.2386 45.9032ZM16.1544 44.8647H25.5012L20.8278 30.8445L16.1544 44.8647Z" fill="#FFF4E6"/>
<path d="M31.8622 16.2842H30.8237V46.1005H31.8622V16.2842Z" fill="#FFF4E6"/>
</g>
<defs>
<clipPath id="clip0_45_1539">
<rect width="62.2289" height="62.2289" fill="white"/>
</clipPath>
</defs>
</svg>
