<svg width="63" height="63" viewBox="0 0 63 63" fill="none" xmlns="http://www.w3.org/2000/svg">
<g clip-path="url(#clip0_45_1558)">
<path d="M31.1145 62.2289C48.2985 62.2289 62.2289 48.2985 62.2289 31.1145C62.2289 13.9304 48.2985 0 31.1145 0C13.9304 0 0 13.9304 0 31.1145C0 48.2985 13.9304 62.2289 31.1145 62.2289Z" fill="#D25037"/>
<path d="M35.9852 45.628H26.1191V34.7961C26.2178 33.5555 26.7803 32.3976 27.6946 31.5532C28.6088 30.7087 29.8076 30.2398 31.0522 30.2398C32.2967 30.2398 33.4956 30.7087 34.4098 31.5532C35.324 32.3976 35.8865 33.5555 35.9852 34.7961V45.628ZM27.1577 44.5894H34.9467V34.7961C34.8748 33.8123 34.4333 32.8922 33.7108 32.2207C32.9884 31.5491 32.0386 31.1758 31.0522 31.1758C30.0658 31.1758 29.116 31.5491 28.3935 32.2207C27.6711 32.8922 27.2296 33.8123 27.1577 34.7961V44.5894Z" fill="#FFF4E6"/>
<path d="M46.303 45.6436H15.765V25.3714H16.8087V44.5998H45.2645V25.3714H46.303V45.6436Z" fill="#FFF4E6"/>
<path d="M50.2806 30.4602L31.0366 11.5797L11.9432 30.3045L11.2162 29.5567L31.0366 10.1257L51.0128 29.7177L50.2806 30.4602Z" fill="#FFF4E6"/>
<path d="M31.0366 26.8772C30.1885 26.8762 29.3597 26.6238 28.6551 26.1519C27.9504 25.6799 27.4015 25.0097 27.0776 24.2259C26.7538 23.4421 26.6696 22.5798 26.8357 21.7481C27.0018 20.9165 27.4107 20.1527 28.0107 19.5534C28.6108 18.954 29.375 18.5461 30.2069 18.381C31.0388 18.2159 31.9009 18.3011 32.6844 18.6259C33.4678 18.9507 34.1374 19.5005 34.6084 20.2057C35.0795 20.911 35.3309 21.74 35.3309 22.5881C35.3309 23.1518 35.2198 23.7099 35.0039 24.2307C34.7881 24.7514 34.4717 25.2245 34.0728 25.6228C33.674 26.0212 33.2005 26.337 32.6796 26.5522C32.1586 26.7675 31.6003 26.8779 31.0366 26.8772ZM31.0366 19.3375C30.3937 19.3375 29.7652 19.5281 29.2306 19.8853C28.6961 20.2425 28.2794 20.7501 28.0334 21.3441C27.7874 21.9381 27.723 22.5917 27.8484 23.2222C27.9739 23.8528 28.2834 24.432 28.7381 24.8866C29.1927 25.3412 29.7719 25.6508 30.4024 25.7762C31.033 25.9017 31.6866 25.8373 32.2805 25.5913C32.8745 25.3452 33.3822 24.9286 33.7394 24.394C34.0965 23.8595 34.2872 23.231 34.2872 22.5881C34.2858 21.7264 33.9429 20.9004 33.3336 20.2911C32.7243 19.6818 31.8983 19.3388 31.0366 19.3375Z" fill="#FFF4E6"/>
</g>
<defs>
<clipPath id="clip0_45_1558">
<rect width="62.2289" height="62.2289" fill="white"/>
</clipPath>
</defs>
</svg>
