<svg width="62" height="62" viewBox="0 0 62 62" fill="none" xmlns="http://www.w3.org/2000/svg">
<g clip-path="url(#clip0_426_75)">
<path d="M31.0021 62.0042C48.1241 62.0042 62.0042 48.1241 62.0042 31.0021C62.0042 13.8801 48.1241 0 31.0021 0C13.8801 0 0 13.8801 0 31.0021C0 48.1241 13.8801 62.0042 31.0021 62.0042Z" fill="#D25037"/>
<path d="M20.6639 14.3116C20.8459 14.5236 20.983 14.7702 21.0671 15.0366C21.1512 15.3029 21.1805 15.5836 21.1531 15.8616C21.1258 16.1396 21.0424 16.4092 20.9081 16.6541C20.7737 16.8991 20.5911 17.1142 20.3713 17.2866C20.1515 17.459 19.8991 17.5852 19.6292 17.6574C19.3594 17.7296 19.0777 17.7464 18.8012 17.7068C18.5246 17.6671 18.259 17.5719 18.0203 17.4268C17.7816 17.2817 17.5747 17.0898 17.4122 16.8626L14.5297 13.1956C14.3533 12.9829 14.2213 12.7372 14.1414 12.4727C14.0615 12.2082 14.0354 11.9304 14.0647 11.6557C14.0939 11.381 14.1779 11.1149 14.3117 10.8732C14.4454 10.6314 14.6262 10.4189 14.8435 10.2482C15.0607 10.0775 15.3099 9.95207 15.5764 9.87927C15.843 9.80646 16.1213 9.78778 16.3952 9.82434C16.669 9.86089 16.9328 9.95194 17.1709 10.0921C17.409 10.2323 17.6166 10.4187 17.7814 10.6404L18.0248 10.9509L16.9842 11.79L16.7367 11.4753C16.6773 11.3961 16.6026 11.3296 16.5171 11.2796C16.4316 11.2297 16.337 11.1974 16.2389 11.1845C16.1407 11.1717 16.0409 11.1786 15.9455 11.2048C15.85 11.2311 15.7608 11.2762 15.683 11.3375C15.6052 11.3988 15.5405 11.475 15.4926 11.5616C15.4447 11.6483 15.4146 11.7437 15.4041 11.8421C15.3936 11.9406 15.4029 12.0401 15.4314 12.1349C15.46 12.2297 15.5072 12.3179 15.5703 12.3942L18.4569 16.0612C18.5107 16.1471 18.5825 16.2202 18.6674 16.2754C18.7522 16.3307 18.8482 16.3668 18.9484 16.3812C19.0487 16.3955 19.1509 16.3879 19.2479 16.3587C19.3449 16.3296 19.4343 16.2796 19.51 16.2123C19.5935 16.1542 19.6634 16.0789 19.7152 15.9914C19.7669 15.9039 19.7993 15.8064 19.81 15.7053C19.8208 15.6042 19.8096 15.502 19.7774 15.4056C19.7452 15.3092 19.6927 15.2209 19.6233 15.1466L19.3716 14.8235L20.4121 14.0053L20.6639 14.3116Z" fill="#FFF4E5"/>
<path d="M26.3155 13.871L25.0568 14.3996L24.2722 13.1703L22.8456 13.7744L23.1687 15.201L21.91 15.7297L20.1352 7.25013L21.4485 6.69629L26.3155 13.871ZM23.5757 12.029L21.7338 9.134L22.5226 12.4906L23.5757 12.029Z" fill="#FFF4E5"/>
<path d="M29.8944 9.7717C30.1035 9.87659 30.2825 10.0329 30.4146 10.2259C30.5467 10.4189 30.6276 10.6423 30.6497 10.8752L30.9475 13.2709L29.6301 13.4345L29.3322 11.0388C29.3284 10.9453 29.3045 10.8538 29.2622 10.7704C29.2198 10.687 29.1599 10.6137 29.0866 10.5555C29.0133 10.4974 28.9284 10.4557 28.8375 10.4334C28.7467 10.4111 28.6521 10.4087 28.5602 10.4262L27.7966 10.5227L28.1826 13.615L26.8651 13.7786L25.8246 5.34103L27.9224 5.0851C28.1891 5.03512 28.4634 5.04266 28.7269 5.10725C28.9904 5.17184 29.2371 5.29196 29.4504 5.4596C29.6637 5.62724 29.8387 5.83854 29.9638 6.0793C30.0889 6.32007 30.1611 6.58476 30.1755 6.85568L30.3392 8.15216C30.3829 8.43821 30.366 8.73026 30.2893 9.00931C30.2127 9.28836 30.0781 9.54813 29.8944 9.7717ZM28.8413 7.01932C28.838 6.92482 28.8144 6.83215 28.7721 6.74759C28.7298 6.66302 28.6698 6.58853 28.5962 6.52922C28.5225 6.46991 28.437 6.42715 28.3453 6.40384C28.2537 6.38054 28.1581 6.37724 28.0651 6.39416L27.3015 6.49065L27.6413 9.20109L28.4049 9.10457C28.4992 9.09899 28.591 9.07299 28.6742 9.02834C28.7573 8.98369 28.8297 8.92148 28.8864 8.84603C28.9431 8.77058 28.9827 8.68369 29.0024 8.5914C29.0222 8.49912 29.0216 8.40364 29.0007 8.3116L28.8413 7.01932Z" fill="#FFF4E5"/>
<path d="M33.3349 4.92163L35.4076 5.24051C35.6776 5.26652 35.939 5.34977 36.1744 5.48474C36.4097 5.61971 36.6135 5.80329 36.7723 6.02323C36.9311 6.24318 37.0412 6.49444 37.0953 6.76028C37.1494 7.02611 37.1462 7.30042 37.0859 7.56492L36.9223 8.62645C36.9003 8.89711 36.8208 9.15993 36.689 9.39734C36.5572 9.63475 36.3762 9.84125 36.158 10.003C35.9399 10.1647 35.6897 10.2779 35.4242 10.335C35.1588 10.3921 34.8842 10.3918 34.6188 10.3341L33.8594 10.2166L33.3475 13.5228L32.0385 13.3172L33.3349 4.92163ZM34.8202 9.02505C34.9125 9.04521 35.0081 9.04512 35.1004 9.02484C35.1926 9.00456 35.2794 8.96454 35.3548 8.90753C35.4301 8.85052 35.4922 8.77788 35.5368 8.69459C35.5815 8.61131 35.6075 8.51935 35.6132 8.42504L35.7768 7.36354C35.8003 7.27174 35.8036 7.17595 35.7864 7.08276C35.7692 6.98958 35.732 6.90123 35.6773 6.82384C35.6227 6.74644 35.5519 6.68184 35.4698 6.63449C35.3877 6.58713 35.2964 6.55816 35.202 6.54957L34.4426 6.43208L34.0608 8.90755L34.8202 9.02505Z" fill="#FFF4E5"/>
<path d="M42.8382 9.08379L40.8704 8.24465L40.0313 10.1537L41.7095 10.8921L41.1767 12.1089L39.4984 11.3663L38.5208 13.5984L40.4928 14.4627L39.9641 15.6543L36.7754 14.2613L40.1823 6.47827L43.3669 7.87125L42.8382 9.08379Z" fill="#FFF4E5"/>
<path d="M41.6634 14.4416L41.9152 14.1228L42.9557 14.9619L42.704 15.285C42.6344 15.359 42.5816 15.4471 42.549 15.5433C42.5165 15.6396 42.505 15.7417 42.5153 15.8427C42.5257 15.9438 42.5576 16.0414 42.609 16.1291C42.6603 16.2167 42.7299 16.2923 42.813 16.3507C42.8888 16.4182 42.9784 16.4685 43.0755 16.498C43.1727 16.5275 43.2751 16.5356 43.3756 16.5216C43.4762 16.5077 43.5725 16.472 43.658 16.4171C43.7434 16.3623 43.8158 16.2895 43.8704 16.2038L44.3697 15.5703C44.44 15.4972 44.4937 15.4098 44.5269 15.314C44.5602 15.2181 44.5722 15.1163 44.5623 15.0153C44.5523 14.9144 44.5205 14.8168 44.4692 14.7293C44.4178 14.6419 44.3481 14.5666 44.2648 14.5088C44.0339 14.3498 43.84 14.1431 43.696 13.9026C43.5521 13.6621 43.4616 13.3935 43.4305 13.115C43.3995 12.8364 43.4287 12.5545 43.5162 12.2882C43.6036 12.022 43.7473 11.7776 43.9375 11.5718L44.5543 10.7914C44.7187 10.5681 44.9264 10.3803 45.165 10.2389C45.4035 10.0976 45.668 10.0056 45.9428 9.96853C46.2176 9.93145 46.497 9.94999 46.7645 10.0231C47.032 10.0961 47.2821 10.2222 47.4998 10.3938C47.7176 10.5655 47.8987 10.7791 48.0322 11.0221C48.1658 11.2651 48.2491 11.5325 48.2773 11.8083C48.3054 12.0842 48.2778 12.3629 48.1962 12.6278C48.1145 12.8928 47.9803 13.1387 47.8017 13.3508L47.5542 13.6612L46.5137 12.8431L46.7612 12.5284C46.8317 12.456 46.8856 12.3691 46.9192 12.2738C46.9528 12.1785 46.9652 12.077 46.9556 11.9764C46.946 11.8758 46.9147 11.7785 46.8637 11.6912C46.8127 11.604 46.7434 11.5289 46.6605 11.4711C46.5845 11.403 46.4948 11.3521 46.3973 11.3219C46.2999 11.2916 46.1971 11.2828 46.0959 11.296C45.9947 11.3091 45.8976 11.3439 45.8111 11.398C45.7246 11.4521 45.6508 11.5243 45.5948 11.6095L44.999 12.3816C44.9288 12.4553 44.8754 12.5433 44.8424 12.6396C44.8095 12.7359 44.7978 12.8382 44.8082 12.9395C44.8185 13.0408 44.8507 13.1386 44.9025 13.2263C44.9543 13.3139 45.0244 13.3893 45.1081 13.4473C45.3383 13.6069 45.5315 13.8141 45.6747 14.0549C45.8178 14.2957 45.9076 14.5645 45.9378 14.843C45.9681 15.1215 45.9381 15.4032 45.85 15.6692C45.7618 15.9351 45.6176 16.1789 45.427 16.3843L44.9319 17.0136C44.7674 17.2368 44.5597 17.4247 44.3212 17.566C44.0826 17.7074 43.8181 17.7994 43.5433 17.8364C43.2685 17.8735 42.9891 17.855 42.7216 17.7819C42.4541 17.7089 42.2041 17.5828 41.9863 17.4111C41.7685 17.2395 41.5875 17.0258 41.4539 16.7828C41.3204 16.5399 41.237 16.2725 41.2089 15.9966C41.1807 15.7208 41.2083 15.4421 41.29 15.1771C41.3717 14.9122 41.5058 14.6663 41.6844 14.4542L41.6634 14.4416Z" fill="#FFF4E5"/>
<path d="M12.9018 47.3318L13.4179 47.8227C13.4879 47.8959 13.5728 47.9531 13.6669 47.9905C13.761 48.0279 13.8621 48.0446 13.9632 48.0394C14.0644 48.0342 14.1632 48.0073 14.253 47.9605C14.3428 47.9137 14.4214 47.8481 14.4836 47.7682L18.9311 43.0564L19.8961 43.9669L15.4486 48.6745C15.273 48.8902 15.0534 49.066 14.8044 49.1901C14.5554 49.3142 14.2828 49.3837 14.0048 49.394C13.7268 49.4044 13.4498 49.3552 13.1923 49.25C12.9348 49.1447 12.7028 48.9857 12.5116 48.7835L11.9955 48.2926L12.9018 47.3318Z" fill="#FFF4E5"/>
<path d="M20.8359 52.3542C20.7073 52.6019 20.5299 52.8211 20.3144 52.9984C20.0989 53.1758 19.8497 53.3077 19.5818 53.3862C19.314 53.4647 19.033 53.4882 18.7558 53.4553C18.4786 53.4223 18.211 53.3336 17.969 53.1945C17.727 53.0553 17.5157 52.8687 17.3478 52.6457C17.1798 52.4228 17.0588 52.1681 16.9918 51.8971C16.9249 51.6262 16.9135 51.3444 16.9584 51.0689C17.0032 50.7934 17.1034 50.5298 17.2528 50.2941L20.5296 44.5879L21.6793 45.2508L18.3982 50.957C18.3389 51.039 18.2983 51.133 18.279 51.2324C18.2598 51.3318 18.2625 51.4342 18.2868 51.5324C18.3112 51.6307 18.3567 51.7224 18.4201 51.8013C18.4835 51.8802 18.5634 51.9443 18.6542 51.9891C18.7393 52.045 18.8354 52.0819 18.9361 52.0973C19.0367 52.1127 19.1395 52.1063 19.2374 52.0784C19.3354 52.0506 19.4261 52.0019 19.5036 51.9358C19.581 51.8698 19.6434 51.7877 19.6863 51.6954L22.9673 45.9893L24.117 46.648L20.8359 52.3542Z" fill="#FFF4E5"/>
<path d="M23.0092 53.2311L23.1099 52.8367L24.3938 53.1556L24.2973 53.5541C24.2642 53.6502 24.2522 53.7523 24.262 53.8534C24.2718 53.9546 24.3033 54.0524 24.3542 54.1404C24.4051 54.2283 24.4744 54.3042 24.5572 54.3631C24.64 54.4219 24.7346 54.4623 24.8344 54.4814C24.9313 54.5116 25.0336 54.5203 25.1343 54.5071C25.2349 54.4938 25.3315 54.4588 25.4173 54.4046C25.5031 54.3503 25.5761 54.278 25.6312 54.1928C25.6863 54.1075 25.7222 54.0113 25.7365 53.9108L25.9295 53.1304C25.9641 53.0355 25.9777 52.9342 25.9692 52.8336C25.9608 52.7329 25.9306 52.6353 25.8807 52.5475C25.8309 52.4597 25.7625 52.3838 25.6803 52.3251C25.5982 52.2663 25.5042 52.2261 25.405 52.2073C25.13 52.1566 24.8691 52.0477 24.6397 51.8878C24.4104 51.7279 24.2179 51.5207 24.0752 51.2803C23.9325 51.0398 23.843 50.7716 23.8125 50.4937C23.7821 50.2158 23.8115 49.9346 23.8987 49.6689L24.1421 48.7039C24.2002 48.4324 24.3123 48.1754 24.4718 47.9482C24.6312 47.721 24.8348 47.5282 25.0704 47.3814C25.3059 47.2345 25.5686 47.1365 25.8429 47.0933C26.1171 47.0501 26.3972 47.0626 26.6665 47.1299C26.9358 47.1972 27.1888 47.318 27.4104 47.4852C27.632 47.6524 27.8177 47.8624 27.9565 48.1029C28.0952 48.3433 28.1841 48.6093 28.2179 48.8848C28.2517 49.1603 28.2297 49.4398 28.1532 49.7067L28.0567 50.0885L26.7728 49.7696L26.8693 49.3836C26.9031 49.2881 26.916 49.1865 26.907 49.0856C26.8981 48.9847 26.8675 48.8869 26.8173 48.7989C26.7671 48.7109 26.6986 48.6348 26.6163 48.5757C26.5341 48.5166 26.44 48.4759 26.3406 48.4564C26.2432 48.4262 26.1405 48.4173 26.0394 48.4303C25.9382 48.4432 25.8411 48.4777 25.7544 48.5314C25.6677 48.585 25.5935 48.6567 25.5369 48.7415C25.4802 48.8262 25.4424 48.9221 25.426 49.0228L25.1868 49.992C25.1537 50.0881 25.1417 50.1901 25.1515 50.2913C25.1613 50.3924 25.1927 50.4903 25.2437 50.5782C25.2946 50.6661 25.3638 50.7421 25.4467 50.8009C25.5295 50.8598 25.6241 50.9001 25.7239 50.9192C25.9956 50.9713 26.2532 51.0805 26.4796 51.2395C26.706 51.3986 26.8961 51.6038 27.0373 51.8418C27.1785 52.0797 27.2675 52.3449 27.2986 52.6199C27.3297 52.8948 27.3021 53.1732 27.2175 53.4367L27.0203 54.2171C26.9623 54.4885 26.8502 54.7455 26.6907 54.9727C26.5312 55.1999 26.3276 55.3927 26.0921 55.5396C25.8565 55.6865 25.5938 55.7844 25.3196 55.8276C25.0454 55.8708 24.7652 55.8584 24.4959 55.7911C24.2266 55.7238 23.9736 55.6029 23.752 55.4357C23.5304 55.2686 23.3447 55.0585 23.206 54.8181C23.0672 54.5776 22.9783 54.3117 22.9445 54.0362C22.9107 53.7607 22.9327 53.4811 23.0092 53.2143V53.2311Z" fill="#FFF4E5"/>
<path d="M33.4146 54.3637C33.4483 54.9181 33.263 55.4635 32.8986 55.8826L33.3181 57.3217L31.9671 57.3594L31.7196 56.4826C31.6139 56.4986 31.5075 56.5084 31.4007 56.5119C31.1233 56.5355 30.8441 56.4996 30.5817 56.4066C30.3193 56.3136 30.0797 56.1656 29.8792 55.9725C29.6786 55.7795 29.5215 55.5458 29.4185 55.2872C29.3155 55.0286 29.2689 54.7509 29.2818 54.4728L29.156 49.8072C29.1384 49.5299 29.177 49.2519 29.2692 48.9898C29.3615 48.7277 29.5056 48.4869 29.693 48.2817C29.8804 48.0765 30.1072 47.9112 30.3599 47.7956C30.6125 47.68 30.8859 47.6165 31.1637 47.6089C31.4414 47.6013 31.7179 47.6497 31.9765 47.7513C32.2351 47.8529 32.4706 48.0055 32.669 48.2001C32.8673 48.3947 33.0244 48.6273 33.1309 48.8839C33.2374 49.1406 33.2911 49.4161 33.2887 49.6939L33.4146 54.3637ZM31.3168 55.2029L30.9266 53.8728L32.0594 53.8434L31.9503 49.7443C31.959 49.6423 31.9456 49.5397 31.9109 49.4434C31.8762 49.3471 31.8211 49.2595 31.7493 49.1866C31.6776 49.1137 31.5909 49.0571 31.4952 49.0208C31.3996 48.9845 31.2972 48.9694 31.1951 48.9764C31.0934 48.9731 30.9921 48.992 30.8985 49.0317C30.8048 49.0715 30.7209 49.1312 30.6526 49.2067C30.5843 49.2821 30.5333 49.3715 30.5031 49.4687C30.4728 49.5659 30.4642 49.6685 30.4776 49.7694L30.6035 54.4351C30.595 54.5339 30.6078 54.6333 30.6408 54.7268C30.6739 54.8203 30.7266 54.9057 30.7953 54.9772C30.864 55.0487 30.9472 55.1047 31.0393 55.1414C31.1314 55.1782 31.2303 55.1948 31.3294 55.1903L31.3168 55.2029Z" fill="#FFF4E5"/>
<path d="M39.8215 52.6896C39.9111 52.9501 39.9478 53.2259 39.9294 53.5008C39.911 53.7757 39.8378 54.0441 39.7143 54.2903C39.5907 54.5365 39.4192 54.7556 39.2098 54.9346C39.0005 55.1137 38.7574 55.2491 38.495 55.3329C38.2326 55.4168 37.9561 55.4473 37.6817 55.4229C37.4073 55.3984 37.1405 55.3193 36.8971 55.1904C36.6537 55.0614 36.4385 54.8851 36.2641 54.6718C36.0897 54.4585 35.9597 54.2126 35.8817 53.9483L33.8762 47.68L35.1349 47.2604L37.1404 53.5288C37.1609 53.628 37.2029 53.7216 37.2633 53.803C37.3238 53.8844 37.4012 53.9516 37.4903 53.9999C37.5794 54.0483 37.678 54.0766 37.7792 54.0829C37.8803 54.0892 37.9817 54.0734 38.0761 54.0365C38.1743 54.0106 38.266 53.964 38.3448 53.8999C38.4236 53.8357 38.4878 53.7555 38.5331 53.6645C38.5784 53.5735 38.6037 53.4739 38.6074 53.3724C38.6111 53.2708 38.593 53.1697 38.5544 53.0757L36.5488 46.8073L37.8075 46.3877L39.8215 52.6896Z" fill="#FFF4E5"/>
<path d="M39.7837 47.0718L39.3642 47.3193L38.5544 45.9305L39.704 45.2634L40.5096 46.6564L40.7781 47.7976L40.0648 48.2172L39.7837 47.0718Z" fill="#FFF4E5"/>
<path d="M40.9334 43.5221L38.8355 42.7501L39.8383 41.8857L41.6382 42.9053L40.9334 43.5221ZM49.073 48.6115L48.0451 49.501L46.9206 48.5569L45.75 49.5723L46.4927 50.831L45.4731 51.7121L41.1809 44.2102L42.2592 43.2745L49.073 48.6115ZM45.9011 47.7178L43.2578 45.5276L45.0368 48.4646L45.9011 47.7178Z" fill="#FFF4E5"/>
<path d="M18.7548 27.3225C18.7786 28.1429 18.5308 28.9482 18.0499 29.6133C18.5282 30.2877 18.7755 31.0987 18.7548 31.9251V33.872C18.7548 36.0495 17.3451 37.4971 15.1297 37.4971C12.9144 37.4971 11.5046 36.0495 11.5046 33.872V33.0916H14.1479V33.872C14.1392 34.006 14.158 34.1404 14.2032 34.2669C14.2485 34.3934 14.3192 34.5092 14.4111 34.6073C14.5029 34.7053 14.6139 34.7835 14.7371 34.8369C14.8604 34.8903 14.9933 34.9179 15.1276 34.9179C15.262 34.9179 15.3949 34.8903 15.5181 34.8369C15.6414 34.7835 15.7524 34.7053 15.8442 34.6073C15.936 34.5092 16.0068 34.3934 16.052 34.2669C16.0973 34.1404 16.1161 34.006 16.1073 33.872V31.9126C16.1189 31.7813 16.1015 31.6491 16.0565 31.5252C16.0114 31.4014 15.9398 31.2889 15.8466 31.1957C15.7534 31.1025 15.6409 31.0309 15.5171 30.9858C15.3932 30.9408 15.261 30.9234 15.1297 30.935H13.5983V28.2875H15.1297C15.261 28.299 15.3932 28.2816 15.5171 28.2366C15.6409 28.1915 15.7534 28.1199 15.8466 28.0267C15.9398 27.9335 16.0114 27.8211 16.0565 27.6972C16.1015 27.5734 16.1189 27.4411 16.1073 27.3099V25.7994C16.091 25.5507 15.9807 25.3174 15.7988 25.147C15.6169 24.9766 15.3769 24.8818 15.1276 24.8818C14.8784 24.8818 14.6384 24.9766 14.4565 25.147C14.2745 25.3174 14.1642 25.5507 14.1479 25.7994V26.584H11.5046V25.7994C11.5046 23.626 12.9144 22.1743 15.1297 22.1743C17.3451 22.1743 18.7548 23.626 18.7548 25.7994V27.3225Z" fill="#FFF4E6"/>
<path d="M27.7084 27.3225C27.7322 28.1429 27.4844 28.9482 27.0036 29.6133C27.4818 30.2877 27.7291 31.0987 27.7084 31.9251V33.872C27.7084 36.0495 26.2987 37.4971 24.0833 37.4971C21.868 37.4971 20.4583 36.0495 20.4583 33.872V33.0916H23.1015V33.872C23.0928 34.006 23.1116 34.1404 23.1569 34.2669C23.2021 34.3934 23.2729 34.5092 23.3647 34.6073C23.4565 34.7053 23.5675 34.7835 23.6908 34.8369C23.814 34.8903 23.9469 34.9179 24.0812 34.9179C24.2156 34.9179 24.3485 34.8903 24.4717 34.8369C24.595 34.7835 24.706 34.7053 24.7978 34.6073C24.8896 34.5092 24.9604 34.3934 25.0056 34.2669C25.0509 34.1404 25.0697 34.006 25.0609 33.872V31.9126C25.0725 31.7813 25.0551 31.6491 25.0101 31.5252C24.965 31.4014 24.8934 31.2889 24.8002 31.1957C24.707 31.1025 24.5945 31.0309 24.4707 30.9858C24.3468 30.9408 24.2146 30.9234 24.0833 30.935H22.5561V28.2875H24.0833C24.2146 28.299 24.3468 28.2816 24.4707 28.2366C24.5945 28.1915 24.707 28.1199 24.8002 28.0267C24.8934 27.9335 24.965 27.8211 25.0101 27.6972C25.0551 27.5734 25.0725 27.4411 25.0609 27.3099V25.7994C25.0447 25.5507 24.9344 25.3174 24.7524 25.147C24.5705 24.9766 24.3305 24.8818 24.0812 24.8818C23.832 24.8818 23.592 24.9766 23.4101 25.147C23.2281 25.3174 23.1178 25.5507 23.1015 25.7994V26.584H20.4583V25.7994C20.4583 23.626 21.868 22.1743 24.0833 22.1743C26.2987 22.1743 27.7084 23.626 27.7084 25.7994V27.3225Z" fill="#FFF4E6"/>
<path d="M42.3263 37.1991H39.7753L37.8159 31.9084L37.1111 32.886V37.1991H34.6608V22.5142H37.1111V29.3532L39.2089 26.4162H41.7557L39.4229 29.6762L42.3263 37.1991Z" fill="#FFF4E6"/>
<path d="M49.9457 26.4203V37.1991C49.9457 39.3557 48.5947 40.7864 46.5178 40.7864C44.441 40.7864 43.0858 39.3347 43.0858 37.1571V36.7376H45.536V37.3627C45.5273 37.4968 45.5461 37.6312 45.5914 37.7577C45.6366 37.8841 45.7074 38 45.7992 38.0981C45.891 38.1961 46.002 38.2742 46.1253 38.3277C46.2485 38.3811 46.3814 38.4087 46.5157 38.4087C46.6501 38.4087 46.783 38.3811 46.9062 38.3277C47.0295 38.2742 47.1405 38.1961 47.2323 38.0981C47.3241 38 47.3949 37.8841 47.4401 37.7577C47.4854 37.6312 47.5042 37.4968 47.4954 37.3627V35.3823C47.2586 35.6216 46.9741 35.8085 46.6604 35.9306C46.3467 36.0528 46.0108 36.1076 45.6745 36.0914C44.4158 36.0914 43.0858 35.4243 43.0858 32.6593V29.6049C43.0858 26.8399 44.399 26.1728 45.6745 26.1728C46.0104 26.1571 46.3458 26.2117 46.6593 26.3331C46.9729 26.4545 47.2577 26.64 47.4954 26.8777V26.4287L49.9457 26.4203ZM47.5164 32.651V29.5965C47.5252 29.4624 47.5064 29.328 47.4611 29.2015C47.4159 29.075 47.3451 28.9592 47.2533 28.8611C47.1614 28.7631 47.0505 28.6849 46.9272 28.6315C46.804 28.5781 46.6711 28.5505 46.5367 28.5505C46.4024 28.5505 46.2695 28.5781 46.1462 28.6315C46.023 28.6849 45.912 28.7631 45.8202 28.8611C45.7283 28.9592 45.6576 29.075 45.6123 29.2015C45.5671 29.328 45.5482 29.4624 45.557 29.5965V32.651C45.5482 32.785 45.5671 32.9194 45.6123 33.0459C45.6576 33.1724 45.7283 33.2882 45.8202 33.3863C45.912 33.4843 46.023 33.5625 46.1462 33.6159C46.2695 33.6693 46.4024 33.6969 46.5367 33.6969C46.6711 33.6969 46.804 33.6693 46.9272 33.6159C47.0505 33.5625 47.1614 33.4843 47.2533 33.3863C47.3451 33.2882 47.4159 33.1724 47.4611 33.0459C47.5064 32.9194 47.5252 32.785 47.5164 32.651Z" fill="#FFF4E6"/>
</g>
<defs>
<clipPath id="clip0_426_75">
<rect width="62" height="62" fill="white"/>
</clipPath>
</defs>
</svg>
