<svg width="63" height="63" viewBox="0 0 63 63" fill="none" xmlns="http://www.w3.org/2000/svg">
<g clip-path="url(#clip0_92_35)">
<path d="M31.115 62.23C48.2993 62.23 62.23 48.2993 62.23 31.115C62.23 13.9307 48.2993 0 31.115 0C13.9307 0 0 13.9307 0 31.115C0 48.2993 13.9307 62.23 31.115 62.23Z" fill="#D25037"/>
<path d="M31.0371 49.409H30.5147V38.2447H31.5555V48.3604C36.2527 48.2167 40.7097 46.2512 43.9835 42.8798C47.2574 39.5085 49.0913 34.9958 49.0972 30.2964C49.091 25.5054 47.185 20.9123 43.7972 17.5246C40.4094 14.1368 35.8164 12.2308 31.0254 12.2246C26.2343 12.2308 21.6413 14.1368 18.2535 17.5246C14.8657 20.9123 12.9597 25.5054 12.9536 30.2964C12.952 33.2558 13.6779 36.1702 15.0673 38.7831C16.4567 41.396 18.467 43.6274 20.9214 45.2809L20.3366 46.1462C17.7414 44.3967 15.6159 42.0363 14.147 39.2725C12.6781 36.5087 11.9108 33.4263 11.9128 30.2964C11.921 25.2331 13.9361 20.3795 17.5164 16.7991C21.0967 13.2188 25.9503 11.2037 31.0137 11.1955C36.0767 11.2048 40.9297 13.2202 44.5098 16.8003C48.0899 20.3804 50.1053 25.2334 50.1146 30.2964C50.1084 35.3574 48.0976 40.2099 44.5222 43.7918C40.9468 47.3738 36.0981 49.3936 31.0371 49.409Z" fill="#FFF4E6"/>
<path d="M36.4165 38.654H25.5874V25.5134H36.4165V38.654ZM26.6243 37.6132H35.3757V26.5542H26.6243V37.6132Z" fill="#FFF4E6"/>
<path d="M28.4721 26.5542C28.3342 26.5542 28.2019 26.4996 28.1041 26.4025C28.0062 26.3054 27.9507 26.1735 27.9497 26.0357V21.2059C27.9507 21.068 28.0062 20.9362 28.1041 20.839C28.2019 20.7419 28.3342 20.6874 28.4721 20.6874C28.6096 20.6874 28.7414 20.7421 28.8387 20.8393C28.9359 20.9365 28.9905 21.0684 28.9905 21.2059V26.0357C28.9905 26.1732 28.9359 26.305 28.8387 26.4023C28.7414 26.4995 28.6096 26.5542 28.4721 26.5542Z" fill="#FFF4E6"/>
<path d="M33.45 26.5542C33.3121 26.5542 33.1799 26.4996 33.082 26.4025C32.9842 26.3054 32.9287 26.1735 32.9276 26.0357V21.2059C32.9287 21.068 32.9842 20.9362 33.082 20.839C33.1799 20.7419 33.3121 20.6874 33.45 20.6874C33.5875 20.6874 33.7194 20.7421 33.8166 20.8393C33.9138 20.9365 33.9684 21.0684 33.9684 21.2059V26.0357C33.9684 26.1732 33.9138 26.305 33.8166 26.4023C33.7194 26.4995 33.5875 26.5542 33.45 26.5542Z" fill="#FFF4E6"/>
</g>
<defs>
<clipPath id="clip0_92_35">
<rect width="62.23" height="62.23" fill="white"/>
</clipPath>
</defs>
</svg>
