<svg width="63" height="63" viewBox="0 0 63 63" fill="none" xmlns="http://www.w3.org/2000/svg">
<g clip-path="url(#clip0_52_1760)">
<path d="M31.115 62.23C48.2993 62.23 62.23 48.2993 62.23 31.115C62.23 13.9307 48.2993 0 31.115 0C13.9307 0 0 13.9307 0 31.115C0 48.2993 13.9307 62.23 31.115 62.23Z" fill="#D25037"/>
<path d="M28.394 16.5078H27.3555V34.3138H28.394V16.5078Z" fill="#FFF4E5"/>
<path d="M36.7803 24.8887H18.9744V25.9272H36.7803V24.8887Z" fill="#FFF4E5"/>
<path d="M34.7344 33.0415H33.6958V45.7222H34.7344V33.0415Z" fill="#FFF4E5"/>
<path d="M40.5555 38.8679H27.8748V39.9065H40.5555V38.8679Z" fill="#FFF4E5"/>
<path d="M43.775 25.4082H42.7365V33.0416H43.775V25.4082Z" fill="#FFF4E5"/>
<path d="M47.0775 28.7053H39.439V29.7439H47.0775V28.7053Z" fill="#FFF4E5"/>
<path d="M19.4936 33.7114H18.4551V41.35H19.4936V33.7114Z" fill="#FFF4E5"/>
<path d="M22.791 37.0088H15.1525V38.0473H22.791V37.0088Z" fill="#FFF4E5"/>
</g>
<defs>
<clipPath id="clip0_52_1760">
<rect width="62.23" height="62.23" fill="white"/>
</clipPath>
</defs>
</svg>
