<svg width="63" height="63" viewBox="0 0 63 63" fill="none" xmlns="http://www.w3.org/2000/svg">
<g clip-path="url(#clip0_132_27)">
<path d="M31.115 62.23C48.2993 62.23 62.23 48.2993 62.23 31.115C62.23 13.9307 48.2993 0 31.115 0C13.9307 0 0 13.9307 0 31.115C0 48.2993 13.9307 62.23 31.115 62.23Z" fill="#D25037"/>
<path d="M35.9806 45.6391H26.0884V34.7966C26.0898 33.486 26.6111 32.2294 27.5378 31.3026C28.4646 30.3758 29.7212 29.8545 31.0319 29.8531C32.3435 29.8531 33.6014 30.3738 34.5293 31.3007C35.4572 32.2277 35.9792 33.4851 35.9806 34.7966V45.6391ZM27.1269 44.6006H34.9421V34.7966C34.9407 33.7605 34.5281 32.7673 33.795 32.0351C33.0618 31.3029 32.068 30.8917 31.0319 30.8917C29.9967 30.8931 29.0042 31.3049 28.2722 32.0369C27.5402 32.769 27.1283 33.7614 27.1269 34.7966V44.6006Z" fill="#FFF4E6"/>
<path d="M50.2815 30.4607L31.0371 11.5798L11.9434 30.3049L11.2164 29.5572L31.0371 10.1259L51.0137 29.7181L50.2815 30.4607Z" fill="#FFF4E6"/>
<path d="M35.9806 15.194H25.9274V16.2325H35.9806V15.194Z" fill="#FFF4E6"/>
<path d="M41.0228 20.0959H21.0411V21.1345H41.0228V20.0959Z" fill="#FFF4E6"/>
<path d="M45.7742 39.7039H34.9421V40.7424H45.7742V39.7039Z" fill="#FFF4E6"/>
<path d="M27.127 39.7039H16.2793V40.7424H27.127V39.7039Z" fill="#FFF4E6"/>
<path d="M45.7741 44.6058H35.9806V45.6444H45.7741V44.6058Z" fill="#FFF4E6"/>
<path d="M26.0884 44.6058H16.2793V45.6444H26.0884V44.6058Z" fill="#FFF4E6"/>
<path d="M45.7742 34.8019H34.9421V35.8404H45.7742V34.8019Z" fill="#FFF4E6"/>
<path d="M27.127 34.8019H16.2793V35.8404H27.127V34.8019Z" fill="#FFF4E6"/>
<path d="M30.388 29.8999H16.2793V30.9385H30.388V29.8999Z" fill="#FFF4E6"/>
<path d="M45.7794 29.8999H31.6707V30.9385H45.7794V29.8999Z" fill="#FFF4E6"/>
<path d="M45.7794 24.9979H16.2793V26.0365H45.7794V24.9979Z" fill="#FFF4E6"/>
</g>
<defs>
<clipPath id="clip0_132_27">
<rect width="62.23" height="62.23" fill="white"/>
</clipPath>
</defs>
</svg>
