<svg width="63" height="63" viewBox="0 0 63 63" fill="none" xmlns="http://www.w3.org/2000/svg">
<g clip-path="url(#clip0_92_27)">
<path d="M31.115 62.23C48.2993 62.23 62.23 48.2993 62.23 31.115C62.23 13.9307 48.2993 0 31.115 0C13.9307 0 0 13.9307 0 31.115C0 48.2993 13.9307 62.23 31.115 62.23Z" fill="#D25037"/>
<path d="M44.5051 27.1818C42.8098 25.312 40.7428 23.8167 38.4364 22.7917C36.13 21.7667 33.635 21.2346 31.1111 21.2293C28.5878 21.2346 26.0933 21.7668 23.7876 22.7918C21.4818 23.8168 19.4155 25.3121 17.721 27.1818L16.8166 26.3593C18.6269 24.3653 20.8331 22.7706 23.2944 21.6772C25.7556 20.5838 28.4179 20.0158 31.1111 20.0092C33.8044 20.0153 36.4668 20.5831 38.9281 21.6765C41.3895 22.7699 43.5956 24.3649 45.4056 26.3593L44.5051 27.1818Z" fill="#FFF4E6"/>
<path d="M41.714 31.2047C40.4717 29.5711 38.8679 28.2477 37.0283 27.338C35.1887 26.4284 33.1633 25.9573 31.1111 25.9617C29.0594 25.9573 27.0346 26.4284 25.1956 27.3381C23.3567 28.2477 21.7535 29.5712 20.512 31.2047L19.5453 30.464C20.8997 28.6812 22.649 27.2367 24.6558 26.2438C26.6625 25.2509 28.8721 24.7367 31.1111 24.7416C33.3506 24.7364 35.5609 25.2504 37.5683 26.2433C39.5758 27.2362 41.3257 28.6809 42.6808 30.464L41.714 31.2047Z" fill="#FFF4E6"/>
<path d="M41.714 31.2047C40.4717 29.5711 38.8679 28.2477 37.0283 27.338C35.1887 26.4284 33.1633 25.9573 31.1111 25.9617C29.0594 25.9573 27.0346 26.4284 25.1956 27.3381C23.3567 28.2477 21.7535 29.5712 20.512 31.2047L19.5453 30.464C20.8997 28.6812 22.649 27.2367 24.6558 26.2438C26.6625 25.2509 28.8721 24.7367 31.1111 24.7416C33.3506 24.7364 35.5609 25.2504 37.5683 26.2433C39.5758 27.2362 41.3257 28.6809 42.6808 30.464L41.714 31.2047Z" fill="#FFF4E6"/>
<path d="M38.6423 35.5433C37.9441 34.1444 36.8691 32.9683 35.5385 32.1474C34.2079 31.3264 32.6746 30.8933 31.1111 30.8967C29.5478 30.8942 28.0148 31.3277 26.6844 32.1485C25.354 32.9694 24.2789 34.145 23.5799 35.5433L22.4923 34.9937C23.2918 33.3932 24.5221 32.0475 26.0448 31.1082C27.5674 30.1688 29.322 29.673 31.1111 29.6766C32.9007 29.6732 34.6557 30.169 36.179 31.1083C37.7022 32.0476 38.9333 33.3931 39.7338 34.9937L38.6423 35.5433Z" fill="#FFF4E6"/>
<path d="M31.1111 40.5836C30.3143 40.5826 29.5505 40.2656 28.9871 39.7022C28.4236 39.1388 28.1067 38.3749 28.1056 37.5781C28.1067 36.7814 28.4236 36.0175 28.9871 35.4541C29.5505 34.8907 30.3143 34.5737 31.1111 34.5727C31.9082 34.5727 32.6727 34.8893 33.2363 35.453C33.7999 36.0166 34.1166 36.781 34.1166 37.5781C34.1166 38.3752 33.7999 39.1397 33.2363 39.7033C32.6727 40.267 31.9082 40.5836 31.1111 40.5836ZM31.1111 35.7889C30.6372 35.7899 30.1831 35.9789 29.8484 36.3143C29.5137 36.6498 29.3257 37.1043 29.3257 37.5781C29.3268 38.0513 29.5152 38.5049 29.8498 38.8395C30.1844 39.1741 30.6379 39.3625 31.1111 39.3635C31.585 39.3635 32.0395 39.1755 32.3749 38.8408C32.7104 38.5061 32.8993 38.052 32.9004 37.5781C32.8993 37.1039 32.7105 36.6494 32.3752 36.3141C32.0398 35.9788 31.5853 35.7899 31.1111 35.7889ZM38.6423 35.5433C37.9441 34.1444 36.8691 32.9683 35.5385 32.1474C34.2079 31.3264 32.6746 30.8933 31.1111 30.8967C29.5478 30.8942 28.0148 31.3277 26.6844 32.1485C25.354 32.9694 24.2789 34.145 23.5799 35.5433L22.4923 34.9937C23.2918 33.3932 24.5221 32.0475 26.0448 31.1082C27.5674 30.1688 29.322 29.673 31.1111 29.6766C32.9007 29.6732 34.6557 30.169 36.179 31.1083C37.7022 32.0476 38.9333 33.3931 39.7338 34.9937L38.6423 35.5433Z" fill="#FFF4E6"/>
<path d="M31.1111 40.5836C30.3143 40.5826 29.5505 40.2655 28.9871 39.7021C28.4237 39.1387 28.1067 38.3749 28.1057 37.5781C28.1067 36.7813 28.4237 36.0175 28.9871 35.454C29.5505 34.8906 30.3143 34.5737 31.1111 34.5726C31.9082 34.5726 32.6727 34.8893 33.2363 35.4529C33.7999 36.0165 34.1166 36.781 34.1166 37.5781C34.1166 38.3752 33.7999 39.1396 33.2363 39.7033C32.6727 40.2669 31.9082 40.5836 31.1111 40.5836ZM31.1111 35.7889C30.6372 35.7899 30.1831 35.9788 29.8484 36.3143C29.5137 36.6497 29.3257 37.1042 29.3257 37.5781C29.3268 38.0513 29.5152 38.5048 29.8498 38.8394C30.1844 39.174 30.6379 39.3624 31.1111 39.3635C31.585 39.3635 32.0395 39.1755 32.3749 38.8407C32.7104 38.506 32.8993 38.0519 32.9004 37.5781C32.8993 37.1039 32.7105 36.6494 32.3752 36.314C32.0398 35.9787 31.5853 35.7899 31.1111 35.7889Z" fill="#FFF4E6"/>
</g>
<defs>
<clipPath id="clip0_92_27">
<rect width="62.23" height="62.23" fill="white"/>
</clipPath>
</defs>
</svg>
