<?xml version="1.0" standalone="no"?>
<!DOCTYPE svg PUBLIC "-//W3C//DTD SVG 1.1//EN" "http://www.w3.org/Graphics/SVG/1.1/DTD/svg11.dtd" >
<svg xmlns="http://www.w3.org/2000/svg" xmlns:xlink="http://www.w3.org/1999/xlink" version="1.1">
<metadata>
Created by FontForge 20170731 at Wed Aug 11 00:54:22 2021
 By Aleksey,,,
Copyright 2019 The Mohave Project Authors (https://github.com/tokotype/Mohave-Typefaces)
</metadata>
<defs>
<font id="Mohave-SemiBold" horiz-adv-x="467" >
  <font-face 
    font-family="Mohave SemiBold"
    font-weight="600"
    font-stretch="normal"
    units-per-em="2000"
    panose-1="0 0 0 0 0 0 0 0 0 0"
    ascent="1600"
    descent="-400"
    x-height="1095"
    cap-height="1500"
    bbox="-185 -806 1918 1965"
    underline-thickness="125"
    underline-position="-346"
    unicode-range="U+0020-FB02"
  />
<missing-glyph horiz-adv-x="979" 
d="M150 0v1500h680v-1500h-680zM305 155h370v1190h-370v-1190z" />
    <glyph glyph-name="fi" unicode="fi" horiz-adv-x="1121" 
d="M204 0v896h-200v199h200v71q0 103 43 183t121 125.5t184 45.5h99v-215h-99q-62 0 -97.5 -38.5t-35.5 -100.5v-71h232v-199h-232v-896h-215zM780 0v1095h215v-1095h-215zM780 1189v251h215v-251h-215z" />
    <glyph glyph-name="fl" unicode="fl" horiz-adv-x="1121" 
d="M204 0v896h-200v199h200v71q0 103 43 183t121 125.5t184 45.5h99v-215h-99q-62 0 -97.5 -38.5t-35.5 -100.5v-71h232v-199h-232v-896h-215zM780 0v1500h215v-1500h-215z" />
    <glyph glyph-name="f_f" unicode="ff" horiz-adv-x="1308" 
d="M204 0v896h-200v199h200v71q0 103 43 183t121 125.5t184 45.5h99v-215h-99q-62 0 -97.5 -38.5t-35.5 -100.5v-71h232v-199h-232v-896h-215zM858 0v896h-200v199h200v71q0 103 43 183t121 125.5t184 45.5h99v-215h-99q-62 0 -97.5 -38.5t-35.5 -100.5v-71h232v-199h-232
v-896h-215z" />
    <glyph glyph-name="f_f_i" unicode="ffi" horiz-adv-x="1775" 
d="M204 0v896h-200v199h200v71q0 103 43 183t121 125.5t184 45.5h99v-215h-99q-62 0 -97.5 -38.5t-35.5 -100.5v-71h232v-199h-232v-896h-215zM858 0v896h-200v199h200v71q0 103 43 183t121 125.5t184 45.5h99v-215h-99q-62 0 -97.5 -38.5t-35.5 -100.5v-71h232v-199h-232
v-896h-215zM1434 0v1095h215v-1095h-215zM1434 1189v251h215v-251h-215z" />
    <glyph glyph-name="f_f_l" unicode="ffl" horiz-adv-x="1775" 
d="M204 0v896h-200v199h200v71q0 103 43 183t121 125.5t184 45.5h99v-215h-99q-62 0 -97.5 -38.5t-35.5 -100.5v-71h232v-199h-232v-896h-215zM858 0v896h-200v199h200v71q0 103 43 183t121 125.5t184 45.5h99v-215h-99q-62 0 -97.5 -38.5t-35.5 -100.5v-71h232v-199h-232
v-896h-215zM1434 0v1500h215v-1500h-215z" />
    <glyph glyph-name=".notdef" horiz-adv-x="979" 
d="M150 0v1500h680v-1500h-680zM305 155h370v1190h-370v-1190z" />
    <glyph glyph-name="uni0000" horiz-adv-x="1200" 
 />
    <glyph glyph-name="uni0000" horiz-adv-x="1200" 
 />
    <glyph glyph-name="nonmarkingreturn" horiz-adv-x="666" 
 />
    <glyph glyph-name="space" unicode=" " horiz-adv-x="463" 
 />
    <glyph glyph-name="exclam" unicode="!" horiz-adv-x="580" 
d="M175 420v1080h230v-1080h-230zM175 0v300h230v-300h-230z" />
    <glyph glyph-name="quotedbl" unicode="&#x22;" horiz-adv-x="910" 
d="M135 1020l80 480h215l-80 -480h-215zM480 1020l80 480h215l-80 -480h-215z" />
    <glyph glyph-name="numbersign" unicode="#" horiz-adv-x="1195" 
d="M1100 970h-172v-342h172v-228h-172v-400h-230v400l-200 1v-401h-230v401h-173v229h173v342h-173v228h173v300h230v-300l200 -1v301h230v-301h172v-229zM698 628v342l-200 2v-342z" />
    <glyph glyph-name="dollar" unicode="$" horiz-adv-x="975" 
d="M537 -200h-110v1900h110v-1900zM489 -32q-166 0 -265.5 102t-99.5 268v70h230v-70q0 -63 36 -101.5t99 -38.5t99 38.5t36 101.5v140q0 36 -2.5 56.5t-14 33.5t-39.5 23.5t-79 26.5q-137 43 -212 72t-107.5 63t-39 88.5t-6.5 146.5v174q0 167 99.5 268.5t265.5 101.5
q167 0 266 -101.5t99 -268.5v-70h-230v70q0 63 -36 101.5t-99 38.5t-99 -38.5t-36 -101.5v-174q0 -36 2.5 -56.5t14.5 -33t40 -23.5t78 -27q137 -42 212 -71.5t107.5 -63.5t39 -88t6.5 -147v-140q0 -166 -99 -268t-266 -102z" />
    <glyph glyph-name="percent" unicode="%" horiz-adv-x="1393" 
d="M275 0l662 1500h183l-662 -1500h-183zM332 809q-110 0 -178 68t-68 179v226q0 111 68 179.5t178 68.5t177.5 -68.5t67.5 -179.5v-226q0 -111 -67.5 -179t-177.5 -68zM332 983q32 0 51 20t19 53v226q0 33 -19.5 53.5t-50.5 20.5q-32 0 -52 -20.5t-20 -53.5v-226
q0 -33 20 -53t52 -20zM1062 -30q-110 0 -177.5 68t-67.5 179v226q0 111 67.5 179.5t177.5 68.5t177.5 -68.5t67.5 -179.5v-226q0 -111 -67.5 -179t-177.5 -68zM1062 144q32 0 51.5 20t19.5 53v226q0 33 -19.5 53.5t-50.5 20.5q-33 0 -52.5 -20.5t-19.5 -53.5v-226
q0 -33 19.5 -53t51.5 -20z" />
    <glyph glyph-name="ampersand" unicode="&#x26;" horiz-adv-x="1048" 
d="M493 -30q-161 0 -260.5 102t-99.5 268v103q0 113 46 197.5t126 128.5l-172 309v82q0 167 99.5 268.5t265.5 101.5q167 0 266 -101.5t99 -268.5v-70h-230v70q0 63 -36 101.5t-99 38.5t-99 -38.5t-36 -101.5v-82l299 -523l56 357h194l-94 -636l130 -228v-48h-211l-30 53
q-40 -40 -91.5 -61.5t-122.5 -21.5zM498 200q67 0 103 45l-181 316q-57 -37 -57 -118v-103q0 -63 36 -101.5t99 -38.5z" />
    <glyph glyph-name="quotesingle" unicode="'" horiz-adv-x="565" 
d="M135 1020l80 480h215l-80 -480h-215z" />
    <glyph glyph-name="parenleft" unicode="(" horiz-adv-x="661" 
d="M491 -360q-166 0 -265.5 102t-99.5 268v1180q0 167 99.5 268.5t265.5 101.5h130v-230h-130q-63 0 -99 -38.5t-36 -101.5v-1180q0 -63 36 -101.5t99 -38.5h130v-230h-130z" />
    <glyph glyph-name="parenright" unicode=")" horiz-adv-x="662" 
d="M40 -360v230h130q63 0 99 38.5t36 101.5v1180q0 63 -36 101.5t-99 38.5h-130v230h130q167 0 266 -101.5t99 -268.5v-1180q0 -166 -99 -268t-266 -102h-130z" />
    <glyph glyph-name="asterisk" unicode="*" horiz-adv-x="895" 
d="M370 1500h158v-655h-158v655zM111 1281l78 136l598 -345l-79 -136zM787 1279l-597 -345l-79 137l598 345z" />
    <glyph glyph-name="plus" unicode="+" horiz-adv-x="1076" 
d="M103 434v230h870v-230h-870zM424 945h230v-790h-230v790z" />
    <glyph glyph-name="comma" unicode="," horiz-adv-x="565" 
d="M135 -130l80 393h215l-80 -393h-215z" />
    <glyph glyph-name="hyphen" unicode="-" horiz-adv-x="842" 
d="M126 434v230h590v-230h-590z" />
    <glyph glyph-name="period" unicode="." horiz-adv-x="580" 
d="M175 0v263h230v-263h-230z" />
    <glyph glyph-name="slash" unicode="/" horiz-adv-x="742" 
d="M-13 -100l536 1660h232l-536 -1660h-232z" />
    <glyph glyph-name="zero" unicode="0" horiz-adv-x="985" 
d="M492 -32q-165 0 -264.5 102t-99.5 268v824q0 167 99.5 268.5t264.5 101.5q168 0 267 -101.5t99 -268.5v-824q0 -166 -99 -268t-267 -102zM493 198q63 0 99 38.5t36 101.5v824q0 63 -36 101.5t-99 38.5t-99 -38.5t-36 -101.5v-824q0 -63 36 -101.5t99 -38.5zM577 1302h134
l-302 -1104h-133z" />
    <glyph glyph-name="one" unicode="1" horiz-adv-x="632" 
d="M252 0v1098h-224v230h56q80 0 124 40t44 110v22h230v-1500h-230z" />
    <glyph glyph-name="two" unicode="2" horiz-adv-x="899" 
d="M80 0v209q0 117 36 203t93 149.5t121 114.5t121 97t93 96t36 114v179q0 63 -36 101.5t-99 38.5t-99 -38.5t-36 -101.5v-70h-230v70q0 167 99.5 268.5t265.5 101.5q167 0 266 -101.5t99 -268.5v-179q0 -92 -35.5 -161.5t-90.5 -125.5t-117.5 -105t-117.5 -99t-90.5 -106.5
t-35.5 -129.5v-130l-104 104h591v-230h-730z" />
    <glyph glyph-name="three" unicode="3" horiz-adv-x="919" 
d="M435 -32q-166 0 -265.5 102t-99.5 268v70h230v-70q0 -63 36 -101.5t99 -38.5t99 38.5t36 101.5v178q0 63 -36 101.5t-99 38.5h-143v230h143q63 0 99 38.5t36 101.5v136q0 63 -36 101.5t-99 38.5t-99 -38.5t-36 -101.5v-70h-230v70q0 167 99.5 268.5t265.5 101.5
q167 0 266 -101.5t99 -268.5v-136q0 -98 -36 -174.5t-100 -122.5v88q64 -48 100 -125t36 -176v-178q0 -166 -99 -268t-266 -102z" />
    <glyph glyph-name="four" unicode="4" horiz-adv-x="961" 
d="M552 0v280h-517v201l540 1019h207v-991h123v-229h-123v-280h-230zM228 416l-57 93h381v543z" />
    <glyph glyph-name="five" unicode="5" horiz-adv-x="953" 
d="M497 -32q-165 0 -264.5 102t-99.5 268v70h230v-70q0 -63 36 -101.5t99 -38.5t99 38.5t36 101.5v285q0 63 -36.5 101.5t-100.5 38.5q-63 0 -98 -38.5t-35 -101.5v-16h-230v893h685v-230h-559l104 104v-537l-44 58q32 49 80 73.5t118 24.5q100 0 178 -46t123 -129.5
t45 -194.5v-285q0 -166 -99 -268t-267 -102z" />
    <glyph glyph-name="six" unicode="6" horiz-adv-x="967" 
d="M492 -32q-165 0 -264.5 102t-99.5 268v824q0 167 99.5 268.5t264.5 101.5q168 0 267 -101.5t99 -268.5v-70h-230v70q0 63 -36 101.5t-99 38.5t-99 -38.5t-36 -101.5v-325l-44 58q32 49 80 73.5t118 24.5q100 0 178 -46t123 -129.5t45 -194.5v-285q0 -166 -99 -268
t-267 -102zM493 198q63 0 99 38.5t36 101.5v285q0 63 -36.5 101.5t-100.5 38.5q-63 0 -98 -38.5t-35 -101.5v-285q0 -63 36 -101.5t99 -38.5z" />
    <glyph glyph-name="seven" unicode="7" horiz-adv-x="784" 
d="M135 0l409 1369l73 -99h-591v230h718v-212l-369 -1288h-240z" />
    <glyph glyph-name="eight" unicode="8" horiz-adv-x="965" 
d="M483 -32q-166 0 -265.5 102t-99.5 268v174q0 98 36 175t100 125v-87q-64 46 -100 122t-36 175v140q0 167 99.5 268.5t265.5 101.5q167 0 266 -101.5t99 -268.5v-140q0 -99 -36.5 -175t-100.5 -122l1 87q63 -48 99.5 -125t36.5 -175v-174q0 -166 -99 -268t-266 -102z
M483 198q63 0 99 38.5t36 101.5v174q0 63 -36 101.5t-99 38.5t-99 -38.5t-36 -101.5v-174q0 -63 36 -101.5t99 -38.5zM483 882q63 0 99 38.5t36 101.5v140q0 63 -36 101.5t-99 38.5t-99 -38.5t-36 -101.5v-140q0 -63 36 -101.5t99 -38.5z" />
    <glyph glyph-name="nine" unicode="9" horiz-adv-x="969" 
d="M476 -32q-166 0 -265.5 102t-99.5 268v70h230v-70q0 -63 36 -101.5t99 -38.5t99 38.5t36 101.5v325l44 -58q-31 -48 -79.5 -72.5t-118.5 -24.5q-100 0 -178 46.5t-123 129.5t-45 194v284q0 167 99.5 268.5t265.5 101.5q167 0 266 -101.5t99 -268.5v-824q0 -166 -99 -268
t-266 -102zM478 738q63 0 98 38t35 101v285q0 63 -36 101.5t-99 38.5t-99 -38.5t-36 -101.5v-284q0 -63 36.5 -101.5t100.5 -38.5z" />
    <glyph glyph-name="colon" unicode=":" horiz-adv-x="580" 
d="M175 633v262h230v-262h-230zM175 0v263h230v-263h-230z" />
    <glyph glyph-name="semicolon" unicode=";" horiz-adv-x="570" 
d="M115 -130l80 393h215l-80 -393h-215zM180 633v262h230v-262h-230z" />
    <glyph glyph-name="less" unicode="&#x3c;" horiz-adv-x="865" 
d="M743 0l-673 463v165l673 457v-245l-425 -294l425 -298v-248z" />
    <glyph glyph-name="equal" unicode="=" horiz-adv-x="1066" 
d="M188 234v230h690v-230h-690zM188 634v230h690v-230h-690z" />
    <glyph glyph-name="greater" unicode="&#x3e;" horiz-adv-x="868" 
d="M121 0v248l425 298l-425 294v245l674 -457v-165z" />
    <glyph glyph-name="question" unicode="?" horiz-adv-x="860" 
d="M272 354v52q0 104 28 174.5t69.5 120.5t83.5 91.5t70 86t28 104.5v179q0 63 -36 101.5t-99 38.5t-99 -38.5t-36 -101.5v-70h-230v70q0 167 99.5 268.5t265.5 101.5q167 0 266 -101.5t99 -268.5v-179q0 -88 -28 -150t-70 -111t-83.5 -94.5t-70 -98t-28.5 -123.5v-52h-229z
M272 0v270h230v-270h-230z" />
    <glyph glyph-name="at" unicode="@" horiz-adv-x="1383" 
d="M697 1530q164 0 287 -68t190.5 -191t67.5 -287v-984h-215v53q-36 -38 -91 -60.5t-116 -22.5q-126 0 -206 95t-80 252v270q0 156 84.5 251t216.5 95q59 0 110 -19t82 -52v122q0 99 -41 173.5t-115 116t-175 41.5q-150 0 -243 -91t-93 -240v-851q0 -142 92.5 -229
t243.5 -87h375v-215h-375q-165 0 -289 66.5t-193 186t-69 278.5v851q0 164 69 287t193.5 191t289.5 68zM886 170q63 0 102 40.5t39 106.5v270q0 67 -39 106.5t-102 39.5q-62 0 -99.5 -39.5t-37.5 -106.5v-270q0 -66 37.5 -106.5t99.5 -40.5z" />
    <glyph glyph-name="A" unicode="A" horiz-adv-x="916" 
d="M38 0l298 1500h248l294 -1500h-236l-44 256h-279l-45 -256h-236zM355 486h207l-118 700h32z" />
    <glyph glyph-name="B" unicode="B" horiz-adv-x="1011" 
d="M156 0v1500h370q163 0 259 -98.5t96 -261.5v-147q0 -90 -30.5 -162t-86.5 -118l-5 88q65 -45 103.5 -122t38.5 -176v-143q0 -161 -96 -260.5t-259 -99.5h-390zM386 230h160q59 0 92 36t33 94v143q0 58 -33 94t-92 36h-160v-403zM386 863h140q59 0 92 35.5t33 94.5v147
q0 59 -33 94.5t-92 35.5h-140v-407z" />
    <glyph glyph-name="C" unicode="C" horiz-adv-x="940" 
d="M864 408v-70q0 -166 -99 -268t-266 -102q-166 0 -265.5 102t-99.5 268v824q0 167 99.5 268.5t265.5 101.5q167 0 266 -101.5t99 -268.5v-70h-230v70q0 63 -36 101.5t-99 38.5t-99 -38.5t-36 -101.5v-824q0 -63 36 -101.5t99 -38.5t99 38.5t36 101.5v70h230z" />
    <glyph glyph-name="D" unicode="D" horiz-adv-x="1007" 
d="M156 0v1500h360q167 0 266 -101.5t99 -268.5v-760q0 -166 -99 -268t-266 -102h-360zM386 230h130q63 0 99 38.5t36 101.5v760q0 63 -36 101.5t-99 38.5h-130v-1040z" />
    <glyph glyph-name="E" unicode="E" horiz-adv-x="858" 
d="M771 1500v-230h-385v-375h331v-230h-331v-435h385v-230h-615v1500h615z" />
    <glyph glyph-name="F" unicode="F" horiz-adv-x="822" 
d="M156 0v1500h615v-230h-385v-525h331v-230h-331v-515h-230z" />
    <glyph glyph-name="G" unicode="G" horiz-adv-x="976" 
d="M499 -32q-166 0 -265.5 102t-99.5 268v824q0 167 99.5 268.5t265.5 101.5q167 0 266 -101.5t99 -268.5v-70h-230v70q0 63 -36 101.5t-99 38.5t-99 -38.5t-36 -101.5v-824q0 -63 36 -101.5t99 -38.5t99 38.5t36 101.5v172h-151v230h381v-402q0 -166 -99 -268t-266 -102z
" />
    <glyph glyph-name="H" unicode="H" horiz-adv-x="1007" 
d="M156 0v1500h230v-755h235v755h230v-1500h-230v515h-235v-515h-230z" />
    <glyph glyph-name="I" unicode="I" horiz-adv-x="542" 
d="M386 0h-230v1500h230v-1500z" />
    <glyph glyph-name="J" unicode="J" horiz-adv-x="658" 
d="M25 -13v230h124q63 0 99 38.5t36 101.5v1143h230v-1143q0 -166 -99 -268t-266 -102h-124z" />
    <glyph glyph-name="K" unicode="K" horiz-adv-x="995" 
d="M709 0l-275 717l-68 -101v378l343 506h248l-366 -546l365 -954h-247zM156 0v1500h230v-1500h-230z" />
    <glyph glyph-name="L" unicode="L" horiz-adv-x="765" 
d="M386 1500v-1270h345v-230h-575v1500h230z" />
    <glyph glyph-name="M" unicode="M" horiz-adv-x="1316" 
d="M156 0v1500h212l317 -1203h-54l317 1203h212v-1500h-215v874l27 -5l-237 -869h-154l-237 869l27 5v-874h-215z" />
    <glyph glyph-name="N" unicode="N" horiz-adv-x="1027" 
d="M156 0v1500h178l384 -1055l-62 -3v1058h215v-1500h-177l-385 1056l62 3v-1059h-215z" />
    <glyph glyph-name="O" unicode="O" horiz-adv-x="998" 
d="M499 -32q-166 0 -265.5 102t-99.5 268v824q0 167 99.5 268.5t265.5 101.5q167 0 266 -101.5t99 -268.5v-824q0 -166 -99 -268t-266 -102zM499 198q63 0 99 38.5t36 101.5v824q0 63 -36 101.5t-99 38.5t-99 -38.5t-36 -101.5v-824q0 -63 36 -101.5t99 -38.5z" />
    <glyph glyph-name="P" unicode="P" horiz-adv-x="944" 
d="M156 0v1500h370q163 0 259 -98.5t96 -261.5v-187q0 -162 -96 -261t-259 -99h-140v-593h-230zM386 823h140q59 0 92 35.5t33 94.5v187q0 59 -33 94.5t-92 35.5h-140v-447z" />
    <glyph glyph-name="Q" unicode="Q" horiz-adv-x="998" 
d="M596 -183l-165 621h236l163 -621h-234zM499 -32q-166 0 -265.5 102t-99.5 268v824q0 167 99.5 268.5t265.5 101.5q167 0 266 -101.5t99 -268.5v-824q0 -166 -99 -268t-266 -102zM499 198q63 0 99 38.5t36 101.5v824q0 63 -36 101.5t-99 38.5t-99 -38.5t-36 -101.5v-824
q0 -63 36 -101.5t99 -38.5z" />
    <glyph glyph-name="R" unicode="R" horiz-adv-x="1013" 
d="M156 0v1500h370q163 0 259 -98.5t96 -261.5v-227q0 -106 -42 -186t-120 -127l-16 73q85 -31 131.5 -94t46.5 -151v-428h-230v428q0 56 -33 90.5t-92 34.5h-140v-553h-230zM386 783h140q59 0 92 35.5t33 94.5v227q0 59 -33 94.5t-92 35.5h-140v-487z" />
    <glyph glyph-name="S" unicode="S" horiz-adv-x="935" 
d="M470 -32q-166 0 -265.5 102t-99.5 268v70h230v-70q0 -63 36 -101.5t99 -38.5t99 38.5t36 101.5v140q0 36 -3 56.5t-14.5 33.5t-39 23.5t-78.5 26.5q-137 43 -212 72t-107.5 63t-39 88.5t-6.5 146.5v174q0 167 99.5 268.5t265.5 101.5q167 0 266 -101.5t99 -268.5v-70
h-230v70q0 63 -36 101.5t-99 38.5t-99 -38.5t-36 -101.5v-174q0 -36 2.5 -56.5t14 -33t39.5 -23.5t79 -27q137 -42 212 -71.5t107.5 -63.5t39 -88t6.5 -147v-140q0 -166 -99 -268t-266 -102z" />
    <glyph glyph-name="T" unicode="T" horiz-adv-x="747" 
d="M259 0v1270h-233v230h695v-230h-232v-1270h-230z" />
    <glyph glyph-name="U" unicode="U" horiz-adv-x="1022" 
d="M876 1500v-1162q0 -166 -99 -268t-266 -102q-166 0 -265.5 102t-99.5 268v1162h230v-1162q0 -63 36 -101.5t99 -38.5t99 38.5t36 101.5v1162h230z" />
    <glyph glyph-name="V" unicode="V" horiz-adv-x="916" 
d="M336 0l-298 1500h236l203 -1162h-33l198 1162h236l-294 -1500h-248z" />
    <glyph glyph-name="W" unicode="W" horiz-adv-x="1341" 
d="M256 0l-193 1500h236l124 -1097h-28l181 1097h190l180 -1097h-27l124 1097h235l-193 -1500h-248l-184 985h38l-187 -985h-248z" />
    <glyph glyph-name="X" unicode="X" horiz-adv-x="907" 
d="M38 0l298 751l-298 749h236l218 -540h-74l215 540h236l-297 -749l297 -751h-236l-215 541h74l-218 -541h-236z" />
    <glyph glyph-name="Y" unicode="Y" horiz-adv-x="919" 
d="M346 0v710l-331 790h235l246 -634h-69l242 634h235l-328 -790v-710h-230z" />
    <glyph glyph-name="Z" unicode="Z" horiz-adv-x="863" 
d="M66 0l-1 170l528 1196l61 -96h-588v230h732v-169l-528 -1196l-61 95h589v-230h-732z" />
    <glyph glyph-name="bracketleft" unicode="[" horiz-adv-x="684" 
d="M150 -360v1920h495v-230h-265v-1460h265v-230h-495z" />
    <glyph glyph-name="backslash" unicode="\" horiz-adv-x="742" 
d="M747 -100h-233l-536 1660h233z" />
    <glyph glyph-name="bracketright" unicode="]" horiz-adv-x="684" 
d="M40 -360v230h265v1460h-265v230h495v-1920h-495z" />
    <glyph glyph-name="asciicircum" unicode="^" horiz-adv-x="911" 
d="M68 972l308 528h165l302 -528h-228l-156 297l-160 -297h-231z" />
    <glyph glyph-name="underscore" unicode="_" horiz-adv-x="1100" 
d="M175 -270v230h750v-230h-750z" />
    <glyph glyph-name="grave" unicode="`" horiz-adv-x="453" 
d="M224 1216l-189 344h231l122 -344h-164z" />
    <glyph glyph-name="a" unicode="a" horiz-adv-x="890" 
d="M353 -25q-140 0 -214.5 84t-74.5 213q0 76 24.5 128t64 87t86.5 58q54 28 111 45.5t106 36t79 47t30 76.5v22q0 60 -35.5 97t-97.5 37q-63 0 -97.5 -37t-34.5 -97v-50h-215v35q0 164 94.5 264t252.5 100q105 0 183 -45.5t121.5 -127.5t43.5 -191v-757h-215v165l37 -48
q-33 -69 -97 -105.5t-152 -36.5zM417 174q62 0 105 36t43 114v167q-38 -28 -88.5 -41t-99.5 -34q-47 -19 -72.5 -47t-25.5 -73q0 -50 35.5 -86t102.5 -36z" />
    <glyph glyph-name="b" unicode="b" horiz-adv-x="924" 
d="M539 -25q-85 0 -143.5 35.5t-91.5 99.5l37 49v-159h-215v1500h215v-564l-37 50q33 64 91.5 99.5t143.5 35.5q73 0 137 -32.5t104 -109t40 -207.5v-448q0 -132 -40 -208t-104 -108.5t-137 -32.5zM472 190q63 0 98 37t35 97v448q0 60 -35 97t-97 37q-63 0 -97.5 -37
t-34.5 -97v-448q0 -61 34.5 -97.5t96.5 -36.5z" />
    <glyph glyph-name="c" unicode="c" horiz-adv-x="850" 
d="M442 -25q-105 0 -183 45.5t-121.5 127.5t-43.5 191v418q0 108 43.5 190.5t121.5 128t183 45.5q158 0 252.5 -100t94.5 -264v-20h-215v35q0 60 -35 97t-97 37t-97.5 -37t-35.5 -97v-448q0 -60 35.5 -97t97.5 -37t97 37t35 97v35h215v-20q0 -163 -94.5 -263.5
t-252.5 -100.5z" />
    <glyph glyph-name="d" unicode="d" horiz-adv-x="924" 
d="M385 -25q-73 0 -137 32.5t-104 108.5t-40 208v448q0 131 40 207.5t104 109t137 32.5q85 0 143.5 -35.5t91.5 -99.5l-37 -50v564h215v-1500h-215v159l37 -49q-33 -64 -91.5 -99.5t-143.5 -35.5zM451 190q63 0 97.5 36.5t34.5 97.5v448q0 60 -34.5 97t-97.5 37t-97.5 -37
t-34.5 -97v-448q0 -60 34.5 -97t97.5 -37z" />
    <glyph glyph-name="e" unicode="e" horiz-adv-x="878" 
d="M442 -25q-105 0 -183 45.5t-121.5 127.5t-43.5 191v418q0 108 43.5 190.5t121.5 128t183 45.5q158 0 252.5 -100t94.5 -264v-259h-511v200h296v74q0 60 -35 97t-97 37t-97.5 -37t-35.5 -97v-448q0 -60 35.5 -97t97.5 -37t97 37t35 97v35h215v-20q0 -163 -94.5 -263.5
t-252.5 -100.5z" />
    <glyph glyph-name="f" unicode="f" horiz-adv-x="654" 
d="M204 0v896h-200v199h200v71q0 103 43 183t121 125.5t184 45.5h99v-215h-99q-62 0 -97.5 -38.5t-35.5 -100.5v-71h232v-199h-232v-896h-215z" />
    <glyph glyph-name="g" unicode="g" horiz-adv-x="909" 
d="M435 -366q-157 0 -252 100.5t-95 264.5v38h215v-53q0 -60 35 -97.5t97 -37.5t97.5 37.5t35.5 97.5v315l38 -49q-33 -64 -92 -99.5t-143 -35.5q-73 0 -137.5 32.5t-104.5 108.5t-40 208v308q0 131 40 207.5t104.5 109t137.5 32.5q84 0 143 -35.5t92 -99.5l-38 -50v159h215
v-1099q0 -109 -43.5 -190.5t-121.5 -126.5t-183 -45zM437 330q62 0 96.5 36.5t34.5 97.5v308q0 60 -34.5 97t-96.5 37q-63 0 -98 -37t-35 -97v-308q0 -60 35 -97t98 -37z" />
    <glyph glyph-name="h" unicode="h" horiz-adv-x="933" 
d="M126 0v1500h215v-564l-37 49q33 65 92 100.5t143 35.5q72 0 135.5 -30t102.5 -97t39 -177v-817h-215v772q0 61 -34.5 97.5t-94.5 36.5q-61 0 -96 -36.5t-35 -97.5v-772h-215z" />
    <glyph glyph-name="i" unicode="i" 
d="M126 0v1095h215v-1095h-215zM126 1189v251h215v-251h-215z" />
    <glyph glyph-name="j" unicode="j" 
d="M-74 -366v215h68q62 0 97 38.5t35 101.5v1106h215v-1091q0 -166 -94 -268t-253 -102h-68zM126 1189v251h215v-251h-215z" />
    <glyph glyph-name="k" unicode="k" horiz-adv-x="879" 
d="M657 0l-233 554l-101 -135v315l274 362h225l-257 -348l317 -748h-225zM126 0v1500h215v-1500h-215z" />
    <glyph glyph-name="l" unicode="l" 
d="M126 0v1500h215v-1500h-215z" />
    <glyph glyph-name="m" unicode="m" horiz-adv-x="1408" 
d="M126 0v1095h215v-160l-37 49q33 65 92 101t143 36q91 0 168 -49t102 -162l-56 12q28 93 93 146t168 53q73 0 136 -30.5t102 -97.5t39 -176v-817h-215v772q0 60 -34.5 97t-94.5 37q-61 0 -96 -37t-35 -97v-772h-215v772q0 60 -34.5 97t-94.5 37q-61 0 -96 -37t-35 -97
v-772h-215z" />
    <glyph glyph-name="n" unicode="n" horiz-adv-x="930" 
d="M126 0v1095h215v-164l-39 43q35 72 96 109.5t141 37.5q129 0 203 -93t74 -256v-772h-215v772q0 60 -34.5 97t-94.5 37q-61 0 -96 -37t-35 -97v-772h-215z" />
    <glyph glyph-name="o" unicode="o" horiz-adv-x="884" 
d="M442 -25q-105 0 -183 45.5t-121.5 127.5t-43.5 191v418q0 108 43.5 190.5t121.5 128t183 45.5q158 0 252.5 -100t94.5 -264v-418q0 -163 -94.5 -263.5t-252.5 -100.5zM442 190q62 0 97 37t35 97v448q0 60 -35 97t-97 37t-97.5 -37t-35.5 -97v-448q0 -60 35.5 -97
t97.5 -37z" />
    <glyph glyph-name="p" unicode="p" horiz-adv-x="923" 
d="M126 -360v1455h215v-159l-37 50q33 64 91.5 99.5t143.5 35.5q73 0 137 -32.5t104 -109t40 -207.5v-448q0 -132 -40 -208t-104 -108.5t-137 -32.5q-85 0 -143.5 35.5t-91.5 99.5l37 49v-519h-215zM472 190q63 0 98 37t35 97v448q0 60 -35 97t-97 37q-63 0 -97.5 -37
t-34.5 -97v-448q0 -61 34.5 -97.5t96.5 -36.5z" />
    <glyph glyph-name="q" unicode="q" horiz-adv-x="923" 
d="M582 -345v504l38 -49q-33 -64 -92 -99.5t-143 -35.5q-73 0 -137.5 32.5t-104.5 108.5t-40 208v448q0 131 40 207.5t104.5 109t137.5 32.5q84 0 143 -35.5t92 -99.5l-38 -50v159h215v-1440h-215zM451 190q63 0 97 36.5t34 97.5v448q0 60 -34.5 97t-96.5 37q-63 0 -98 -37
t-35 -97v-448q0 -60 35 -97t98 -37z" />
    <glyph glyph-name="r" unicode="r" horiz-adv-x="591" 
d="M126 0v1095h215v-172l-39 46q35 70 96 105t141 35h49v-215h-116q-61 0 -96 -32.5t-35 -92.5v-769h-215z" />
    <glyph glyph-name="s" unicode="s" horiz-adv-x="842" 
d="M427 -25q-162 0 -256 97.5t-94 257.5v25h215v-40q0 -57 35 -91t96 -34t95 35.5t34 101.5q0 38 -13.5 61t-41.5 37t-75 24q-104 23 -182 50t-120.5 85.5t-42.5 175.5q0 174 93.5 267.5t247.5 93.5q162 0 255.5 -97.5t93.5 -257.5v-25h-215v40q0 56 -34.5 90.5t-96.5 34.5
q-60 0 -94.5 -35.5t-34.5 -100.5q0 -38 13 -61t42 -37t75 -24q101 -22 178.5 -48.5t122 -85.5t44.5 -178q0 -173 -92.5 -267t-247.5 -94z" />
    <glyph glyph-name="t" unicode="t" horiz-adv-x="678" 
d="M535 -13q-158 0 -252.5 94t-94.5 260v556h-185v199h185v264h215v-264h230v-199h-230v-556q0 -63 35 -101t97 -38h98v-215h-98z" />
    <glyph glyph-name="u" unicode="u" horiz-adv-x="931" 
d="M392 -25q-72 0 -135 32t-102.5 108.5t-39.5 208.5v771h215v-771q0 -61 34.5 -97.5t95.5 -36.5t95.5 36.5t34.5 97.5v771h215v-1095h-215v160l38 -49q-33 -64 -92.5 -100t-143.5 -36z" />
    <glyph glyph-name="v" unicode="v" horiz-adv-x="849" 
d="M300 0l-293 1095h233l211 -850h-48l205 850h233l-288 -1095h-253z" />
    <glyph glyph-name="w" unicode="w" horiz-adv-x="1169" 
d="M220 0l-187 1095h224l107 -838l-33 1l158 837h191l158 -837l-32 -1l106 838h224l-187 -1095h-225l-159 768h43l-162 -768h-226z" />
    <glyph glyph-name="x" unicode="x" horiz-adv-x="812" 
d="M8 0l292 548l-292 547h223l223 -418h-96l223 418h223l-291 -547l291 -548h-223l-223 419h96l-223 -419h-223z" />
    <glyph glyph-name="y" unicode="y" horiz-adv-x="845" 
d="M216 -360l97 353l-307 1102h234l210 -832h-48l203 832h235l-404 -1455h-220z" />
    <glyph glyph-name="z" unicode="z" horiz-adv-x="788" 
d="M51 0v169l486 800l50 -89h-532v215h683v-168l-471 -801l-52 89h519v-215h-683z" />
    <glyph glyph-name="braceleft" unicode="{" horiz-adv-x="735" 
d="M565 -360q-166 0 -265.5 102t-99.5 268v391q0 38 -21 61.5t-59 23.5h-100v230h100q38 0 59 23.5t21 61.5v389q0 167 99.5 268.5t265.5 101.5h130v-230h-130q-63 0 -99 -38.5t-36 -101.5v-389q0 -56 -25 -109.5t-67 -89.5q42 -37 67 -91t25 -110v-391q0 -63 36 -101.5
t99 -38.5h130v-230h-130z" />
    <glyph glyph-name="bar" unicode="|" horiz-adv-x="606" 
d="M418 -300h-230v1860h230v-1860z" />
    <glyph glyph-name="braceright" unicode="}" horiz-adv-x="735" 
d="M40 -360v230h130q63 0 99 38.5t36 101.5v391q0 56 25 110t67 91q-42 36 -67 89.5t-25 109.5v389q0 63 -36 101.5t-99 38.5h-130v230h130q167 0 266 -101.5t99 -268.5v-389q0 -38 21.5 -61.5t58.5 -23.5h100v-230h-100q-37 0 -58.5 -23.5t-21.5 -61.5v-391
q0 -166 -99 -268t-266 -102h-130z" />
    <glyph glyph-name="asciitilde" unicode="~" horiz-adv-x="1187" 
d="M150 373v54q0 127 67.5 197.5t200.5 70.5q68 0 113 -16.5t78 -38t63.5 -38t67.5 -16.5q50 0 62 26.5t12 49.5v45h221v-60q0 -124 -63 -195t-174 -71q-62 0 -107.5 19t-82.5 43.5t-72 43.5t-76 19t-65.5 -24t-24.5 -67v-42h-220z" />
    <glyph glyph-name="uni00A0" unicode="&#xa0;" horiz-adv-x="463" 
 />
    <glyph glyph-name="exclamdown" unicode="&#xa1;" horiz-adv-x="580" 
d="M175 -405v1080h230v-1080h-230zM175 795v300h230v-300h-230z" />
    <glyph glyph-name="cent" unicode="&#xa2;" horiz-adv-x="937" 
d="M535 -200h-110v1495h110v-1495zM481 -25q-105 0 -183 45.5t-121.5 127.5t-43.5 191v418q0 108 43.5 190.5t121.5 128t183 45.5q158 0 252.5 -100t94.5 -264v-20h-215v35q0 60 -35 97t-97 37t-97.5 -37t-35.5 -97v-448q0 -60 35.5 -97t97.5 -37t97 37t35 97v35h215v-20
q0 -163 -94.5 -263.5t-252.5 -100.5z" />
    <glyph glyph-name="sterling" unicode="&#xa3;" horiz-adv-x="1063" 
d="M247 0v1160q0 167 99.5 268.5t264.5 101.5q168 0 267 -101.5t99 -268.5v-70h-230v70q0 63 -36 101.5t-99 38.5t-99 -38.5t-36 -101.5v-1160h-230zM112 652v200h595v-200h-595zM112 0v200h762v-200h-762z" />
    <glyph glyph-name="currency" unicode="&#xa4;" horiz-adv-x="1110" 
d="M228 125l-111 111l145 145q-22 38 -34.5 84.5t-12.5 98.5t12.5 97.5t34.5 82.5l-145 144l111 111l145 -145q80 50 183 50t181 -48l143 143l111 -111l-143 -142q23 -38 35 -84t12 -98q0 -104 -49 -183l145 -145l-111 -111l-145 145q-38 -24 -84 -35.5t-95 -11.5
q-50 0 -96 12.5t-86 36.5zM555 412q61 0 106 42t45 110t-45 109t-105 41q-61 0 -106.5 -41t-45.5 -109q0 -67 45 -109.5t106 -42.5z" />
    <glyph glyph-name="yen" unicode="&#xa5;" horiz-adv-x="1015" 
d="M211 522v200h595v-200h-595zM211 187v200h595v-200h-595zM394 0v710l-331 790h235l212 -505l207 505h235l-328 -790v-710h-230z" />
    <glyph glyph-name="brokenbar" unicode="&#xa6;" horiz-adv-x="606" 
d="M418 -300h-230v732h230v-732zM418 829h-230v731h230v-731z" />
    <glyph glyph-name="section" unicode="&#xa7;" horiz-adv-x="972" 
d="M490 -74q-158 0 -253 103t-95 267v20h215v-35q0 -63 36 -101.5t98 -38.5q56 0 91 34.5t35 101.5q0 45 -16 68t-45.5 35t-68.5 20q-102 23 -180 49.5t-121.5 86.5t-43.5 181q0 81 22 141t62 104q-39 41 -62.5 102.5t-23.5 131.5q0 98 42.5 173t120 118t179.5 43
q159 0 253.5 -102.5t94.5 -267.5v-20h-215v36q0 63 -36 101t-98 38q-56 0 -91 -34t-35 -102q0 -41 14.5 -64t43.5 -35.5t72 -22.5q103 -22 180.5 -49t121 -87t43.5 -180q0 -80 -21.5 -140t-62.5 -106q40 -40 63 -101t23 -133q0 -97 -42.5 -172.5t-119.5 -119t-180 -43.5z
M488 600q57 0 92 35t35 92q0 58 -35.5 94.5t-95.5 36.5q-57 0 -92 -35t-35 -93t36 -94.5t95 -35.5z" />
    <glyph glyph-name="dieresis" unicode="&#xa8;" horiz-adv-x="760" 
d="M126 1308v252h190v-252h-190zM445 1308v252h189v-252h-189z" />
    <glyph glyph-name="copyright" unicode="&#xa9;" horiz-adv-x="1653" 
d="M824 -30q-214 0 -377 97t-254.5 273t-91.5 412q0 234 90.5 409t254 272t382.5 97q217 0 380 -95.5t254 -269t91 -406.5q0 -234 -91.5 -411.5t-255 -277.5t-382.5 -100zM824 120q174 0 304 81t202.5 225t72.5 333q0 188 -72.5 328t-201.5 216.5t-301 76.5
q-174 0 -303.5 -78t-201.5 -219.5t-72 -330.5q0 -191 72.5 -333.5t202 -220.5t298.5 -78zM826 281q-100 0 -160 61t-60 161v494q0 101 60 161.5t160 60.5q102 0 161.5 -62t59.5 -160v-45h-150v45q0 32 -18.5 52t-51.5 20q-34 0 -52.5 -19.5t-18.5 -52.5v-494q0 -32 18.5 -52
t52.5 -20q33 0 51.5 20.5t18.5 51.5v45h150v-45q0 -97 -59.5 -159.5t-161.5 -62.5z" />
    <glyph glyph-name="ordfeminine" unicode="&#xaa;" horiz-adv-x="660" 
d="M271 831q-81 0 -125 51t-44 130q0 69 30.5 105.5t71.5 57.5q43 22 86.5 35.5t73 32.5t29.5 55v13q0 31 -18.5 50.5t-51.5 19.5t-51.5 -19.5t-18.5 -50.5v-33h-139v23q0 99 57 159t152 60q96 0 152.5 -60.5t56.5 -158.5v-454h-139v100l25 -30q-21 -43 -59.5 -64.5
t-87.5 -21.5zM315 960q32 0 55 18.5t23 61.5v96q-19 -16 -45.5 -24t-53.5 -19q-23 -11 -37.5 -25.5t-14.5 -40.5q0 -25 18 -46t55 -21z" />
    <glyph glyph-name="guillemotleft" unicode="&#xab;" horiz-adv-x="1200" 
d="M1101 0l-493 433v135l493 432v-261l-268 -239l268 -238v-262zM528 0l-494 433v135l494 432v-261l-268 -239l268 -238v-262z" />
    <glyph glyph-name="logicalnot" unicode="&#xac;" horiz-adv-x="1116" 
d="M698 221v213h-560v230h790v-443h-230z" />
    <glyph glyph-name="uni00AD" unicode="&#xad;" horiz-adv-x="842" 
d="M146 434v230h590v-230h-590z" />
    <glyph glyph-name="registered" unicode="&#xae;" horiz-adv-x="1653" 
d="M824 -30q-214 0 -377 97t-254.5 273t-91.5 412q0 234 90.5 409t254 272t382.5 97q217 0 380 -95.5t254 -269t91 -406.5q0 -234 -91.5 -411.5t-255 -277.5t-382.5 -100zM824 120q174 0 304 81t202.5 225t72.5 333q0 188 -72.5 328t-201.5 216.5t-301 76.5
q-174 0 -303.5 -78t-201.5 -219.5t-72 -330.5q0 -191 72.5 -333.5t202 -220.5t298.5 -78zM606 300v900h222q99 0 158.5 -60t59.5 -159v-140q0 -102 -64 -163q27 -18 45.5 -49t18.5 -75v-254h-150v254q0 30 -18 49t-50 19h-72v-322h-150zM756 772h72q32 0 50 19t18 50v140
q0 31 -18 50t-50 19h-72v-278z" />
    <glyph glyph-name="macron" unicode="&#xaf;" horiz-adv-x="719" 
d="M126 1500h467v-158h-467v158z" />
    <glyph glyph-name="degree" unicode="&#xb0;" horiz-adv-x="823" 
d="M412 980q-75 0 -137.5 34t-101 96t-38.5 144t38 144t101 97t137 35t136.5 -34.5t100.5 -96.5t38 -145q0 -82 -37.5 -144t-100 -96t-136.5 -34zM411 1136q49 0 83.5 32t34.5 86t-35 86.5t-84 32.5q-48 0 -83 -32.5t-35 -86.5t35 -86t84 -32z" />
    <glyph glyph-name="plusminus" unicode="&#xb1;" horiz-adv-x="1048" 
d="M129 601v230h790v-230h-790zM410 1072h230v-710h-230v710zM129 0v230h790v-230h-790z" />
    <glyph glyph-name="uni00B2" unicode="&#xb2;" horiz-adv-x="588" 
d="M70 660v138q0 85 29.5 141.5t72.5 95.5t86.5 70t73 63t29.5 76v114q0 32 -19 52t-53 20q-31 0 -50 -20t-19 -52v-45h-150v45q0 99 60.5 160.5t158.5 61.5q101 0 161.5 -61.5t60.5 -160.5v-114q0 -67 -29 -113t-71 -81t-84 -67t-70.5 -69t-28.5 -88v-16h283v-150h-441z
" />
    <glyph glyph-name="uni00B3" unicode="&#xb3;" horiz-adv-x="600" 
d="M284 640q-101 0 -161.5 61.5t-60.5 160.5v45h150v-45q0 -31 19.5 -51.5t52.5 -20.5q31 0 50 20.5t19 51.5v115q0 32 -19 52t-50 20h-92v150h92q31 0 50 19.5t19 52.5v87q0 32 -19 52t-50 20q-33 0 -52.5 -20t-19.5 -52v-45h-150v45q0 99 60.5 160.5t161.5 61.5
q99 0 159 -61.5t60 -160.5v-87q0 -43 -12.5 -81.5t-37.5 -66.5q24 -26 37 -63.5t13 -82.5v-115q0 -99 -60 -160.5t-159 -61.5z" />
    <glyph glyph-name="acute" unicode="&#xb4;" horiz-adv-x="453" 
d="M65 1216l122 344h231l-189 -344h-164z" />
    <glyph glyph-name="uni00B5" unicode="&#xb5;" horiz-adv-x="1042" 
d="M466 -25q-73 0 -136 32.5t-102.5 110t-39.5 211.5v767h215v-767q0 -63 34.5 -101t95.5 -38q63 0 97.5 38.5t34.5 100.5v125h85v-109q0 -166 -69 -268t-215 -102zM665 0v1096h215v-1096h-215zM188 -300v1396h215v-1396h-215z" />
    <glyph glyph-name="paragraph" unicode="&#xb6;" horiz-adv-x="953" 
d="M765 -300h-230v1023h-110q-161 0 -258 99t-97 261v57q0 163 97 261.5t258 98.5h340v-1800z" />
    <glyph glyph-name="periodcentered" unicode="&#xb7;" horiz-adv-x="550" 
d="M175 428v240h200v-240h-200z" />
    <glyph glyph-name="cedilla" unicode="&#xb8;" horiz-adv-x="557" 
d="M113 -507v158h163q29 0 46.5 15t17.5 41t-17.5 42.5t-46.5 16.5h-91l-71 38v238h159v-195l-72 33q91 33 157.5 13t103.5 -73.5t37 -120.5q0 -88 -61.5 -147t-161.5 -59h-163z" />
    <glyph glyph-name="uni00B9" unicode="&#xb9;" horiz-adv-x="431" 
d="M161 660v651h-137v150h37q47 0 73.5 24t26.5 66v14h150v-905h-150z" />
    <glyph glyph-name="ordmasculine" unicode="&#xba;" horiz-adv-x="642" 
d="M321 831q-95 0 -152 61.5t-57 159.5v249q0 99 57 159t152 60t152.5 -60t57.5 -159v-249q0 -98 -57 -159.5t-153 -61.5zM321 971q33 0 51.5 19t18.5 51v270q0 31 -18.5 50.5t-51.5 19.5t-51 -19.5t-18 -50.5v-270q0 -30 18 -50t51 -20z" />
    <glyph glyph-name="guillemotright" unicode="&#xbb;" horiz-adv-x="1200" 
d="M671 0v262l268 238l-268 239v261l493 -432v-135zM97 0v262l268 238l-268 239v261l494 -432v-135z" />
    <glyph glyph-name="onequarter" unicode="&#xbc;" horiz-adv-x="1520" 
d="M161 600v651h-137v150h37q47 0 73.5 24t26.5 66v14h150v-905h-150zM246 0l662 1500h184l-662 -1500h-184zM1235 0v160h-305v131l321 609h134v-588h70v-152h-70v-160h-150zM1087 312h148v293z" />
    <glyph glyph-name="onehalf" unicode="&#xbd;" horiz-adv-x="1494" 
d="M161 600v651h-137v150h37q47 0 73.5 24t26.5 66v14h150v-905h-150zM246 0l662 1500h184l-662 -1500h-184zM977 0v138q0 85 29.5 141.5t72.5 95.5t86.5 70t73 63t29.5 76v114q0 32 -19 52t-53 20q-31 0 -50 -20t-19 -52v-45h-150v45q0 99 60.5 160.5t158.5 61.5
q101 0 161.5 -61.5t60.5 -160.5v-114q0 -67 -29 -113t-71 -81t-84 -67t-70.5 -69t-28.5 -88v-16h283v-150h-441z" />
    <glyph glyph-name="threequarters" unicode="&#xbe;" horiz-adv-x="1689" 
d="M284 580q-101 0 -161.5 61.5t-60.5 160.5v45h150v-45q0 -31 19.5 -51.5t52.5 -20.5q31 0 50 20.5t19 51.5v115q0 32 -19 52t-50 20h-92v150h92q31 0 50 19.5t19 52.5v87q0 32 -19 52t-50 20q-33 0 -52.5 -20t-19.5 -52v-45h-150v45q0 99 60.5 160.5t161.5 61.5
q99 0 159 -61.5t60 -160.5v-87q0 -43 -12.5 -81.5t-37.5 -66.5q24 -26 37 -63.5t13 -82.5v-115q0 -99 -60 -160.5t-159 -61.5zM415 0l662 1500h184l-662 -1500h-184zM1404 0v160h-305v131l321 609h134v-588h70v-152h-70v-160h-150zM1256 312h148v293z" />
    <glyph glyph-name="questiondown" unicode="&#xbf;" horiz-adv-x="861" 
d="M588 742v-53q0 -104 -28 -174t-70 -120.5t-83.5 -92t-69.5 -86t-28 -103.5v-180q0 -63 36 -101.5t99 -38.5t99 38.5t36 101.5v70h230v-70q0 -166 -99 -268t-266 -102q-166 0 -265.5 102t-99.5 268v180q0 87 28 149t69.5 111t83.5 94.5t70 98t28 123.5v53h230zM588 1095
v-270h-230v270h230z" />
    <glyph glyph-name="Agrave" unicode="&#xc0;" horiz-adv-x="916" 
d="M38 0l298 1500h248l294 -1500h-236l-44 256h-279l-45 -256h-236zM355 486h207l-118 700h32zM381 1621l-189 344h231l122 -344h-164z" />
    <glyph glyph-name="Aacute" unicode="&#xc1;" horiz-adv-x="916" 
d="M38 0l298 1500h248l294 -1500h-236l-44 256h-279l-45 -256h-236zM355 486h207l-118 700h32zM376 1621l122 344h231l-189 -344h-164z" />
    <glyph glyph-name="Acircumflex" unicode="&#xc2;" horiz-adv-x="916" 
d="M38 0l298 1500h248l294 -1500h-236l-44 256h-279l-45 -256h-236zM355 486h207l-118 700h32zM137 1666l231 299h180l232 -299h-202l-119 167l-120 -167h-202z" />
    <glyph glyph-name="Atilde" unicode="&#xc3;" horiz-adv-x="916" 
d="M38 0l298 1500h248l294 -1500h-236l-44 256h-279l-45 -256h-236zM355 486h207l-118 700h32zM602 1656q-50 0 -87.5 19t-60.5 35q-24 17 -42.5 29.5t-36.5 12.5q-16 0 -23.5 -10t-7.5 -26v-50h-174v66q0 75 37.5 117.5t107.5 42.5q45 0 82 -16t62 -35q24 -17 43.5 -31
t39.5 -14q17 0 24 11t7 26v52h173v-69q0 -75 -38 -117.5t-106 -42.5z" />
    <glyph glyph-name="Adieresis" unicode="&#xc4;" horiz-adv-x="916" 
d="M38 0l298 1500h248l294 -1500h-236l-44 256h-279l-45 -256h-236zM355 486h207l-118 700h32zM207 1713v252h190v-252h-190zM526 1713v252h189v-252h-189z" />
    <glyph glyph-name="Aring" unicode="&#xc5;" horiz-adv-x="916" 
d="M38 0l298 1500h248l294 -1500h-236l-44 256h-279l-45 -256h-236zM355 486h207l-118 700h32zM461 1545q-85 0 -147 57t-62 151q0 93 62 150.5t145 57.5q84 0 146.5 -57t62.5 -151t-62 -151t-145 -57zM461 1678q29 0 51.5 20.5t22.5 54.5t-23 55t-52 21q-30 0 -53 -21
t-23 -55t23 -54.5t54 -20.5z" />
    <glyph glyph-name="AE" unicode="&#xc6;" horiz-adv-x="1310" 
d="M38 0l298 1500h887v-230h-387v-375h333v-230h-333v-435h387v-230h-617v256h-284l-48 -256h-236zM363 486h243v784h-97z" />
    <glyph glyph-name="Ccedilla" unicode="&#xc7;" horiz-adv-x="940" 
d="M864 408v-70q0 -166 -99 -268t-266 -102q-166 0 -265.5 102t-99.5 268v824q0 167 99.5 268.5t265.5 101.5q167 0 266 -101.5t99 -268.5v-70h-230v70q0 63 -36 101.5t-99 38.5t-99 -38.5t-36 -101.5v-824q0 -63 36 -101.5t99 -38.5t99 38.5t36 101.5v70h230zM430 -507v158
h163q29 0 46.5 15t17.5 41t-17.5 42.5t-46.5 16.5h-91l-71 38v238h159v-195l-72 33q91 33 157.5 13t103.5 -73.5t37 -120.5q0 -88 -61.5 -147t-161.5 -59h-163z" />
    <glyph glyph-name="Egrave" unicode="&#xc8;" horiz-adv-x="858" 
d="M771 1500v-230h-385v-375h331v-230h-331v-435h385v-230h-615v1500h615zM348 1621l-189 344h231l122 -344h-164z" />
    <glyph glyph-name="Eacute" unicode="&#xc9;" horiz-adv-x="858" 
d="M771 1500v-230h-385v-375h331v-230h-331v-435h385v-230h-615v1500h615zM343 1621l122 344h231l-189 -344h-164z" />
    <glyph glyph-name="Ecircumflex" unicode="&#xca;" horiz-adv-x="858" 
d="M771 1500v-230h-385v-375h331v-230h-331v-435h385v-230h-615v1500h615zM104 1666l231 299h180l232 -299h-202l-119 167l-120 -167h-202z" />
    <glyph glyph-name="Edieresis" unicode="&#xcb;" horiz-adv-x="858" 
d="M771 1500v-230h-385v-375h331v-230h-331v-435h385v-230h-615v1500h615zM174 1713v252h190v-252h-190zM493 1713v252h189v-252h-189z" />
    <glyph glyph-name="Igrave" unicode="&#xcc;" horiz-adv-x="542" 
d="M386 0h-230v1500h230v-1500zM195 1621l-189 344h231l122 -344h-164z" />
    <glyph glyph-name="Iacute" unicode="&#xcd;" horiz-adv-x="542" 
d="M386 0h-230v1500h230v-1500zM189 1621l122 344h231l-189 -344h-164z" />
    <glyph glyph-name="Icircumflex" unicode="&#xce;" horiz-adv-x="542" 
d="M386 0h-230v1500h230v-1500zM-50 1666l231 299h180l232 -299h-202l-119 167l-120 -167h-202z" />
    <glyph glyph-name="Idieresis" unicode="&#xcf;" horiz-adv-x="542" 
d="M386 0h-230v1500h230v-1500zM21 1713v252h190v-252h-190zM340 1713v252h189v-252h-189z" />
    <glyph glyph-name="Eth" unicode="&#xd0;" horiz-adv-x="1007" 
d="M29 654v195h490v-195h-490zM156 0v1500h360q167 0 266 -101.5t99 -268.5v-760q0 -166 -99 -268t-266 -102h-360zM386 230h130q63 0 99 38.5t36 101.5v760q0 63 -36 101.5t-99 38.5h-130v-1040z" />
    <glyph glyph-name="Ntilde" unicode="&#xd1;" horiz-adv-x="1027" 
d="M156 0v1500h178l384 -1055l-62 -3v1058h215v-1500h-177l-385 1056l62 3v-1059h-215zM657 1656q-50 0 -87.5 19t-60.5 35q-24 17 -42.5 29.5t-36.5 12.5q-16 0 -23.5 -10t-7.5 -26v-50h-174v66q0 75 37.5 117.5t107.5 42.5q45 0 82 -16t62 -35q24 -17 43.5 -31t39.5 -14
q17 0 24 11t7 26v52h173v-69q0 -75 -38 -117.5t-106 -42.5z" />
    <glyph glyph-name="Ograve" unicode="&#xd2;" horiz-adv-x="998" 
d="M499 -32q-166 0 -265.5 102t-99.5 268v824q0 167 99.5 268.5t265.5 101.5q167 0 266 -101.5t99 -268.5v-824q0 -166 -99 -268t-266 -102zM499 198q63 0 99 38.5t36 101.5v824q0 63 -36 101.5t-99 38.5t-99 -38.5t-36 -101.5v-824q0 -63 36 -101.5t99 -38.5zM422 1621
l-189 344h231l122 -344h-164z" />
    <glyph glyph-name="Oacute" unicode="&#xd3;" horiz-adv-x="998" 
d="M499 -32q-166 0 -265.5 102t-99.5 268v824q0 167 99.5 268.5t265.5 101.5q167 0 266 -101.5t99 -268.5v-824q0 -166 -99 -268t-266 -102zM499 198q63 0 99 38.5t36 101.5v824q0 63 -36 101.5t-99 38.5t-99 -38.5t-36 -101.5v-824q0 -63 36 -101.5t99 -38.5zM416 1621
l122 344h231l-189 -344h-164z" />
    <glyph glyph-name="Ocircumflex" unicode="&#xd4;" horiz-adv-x="998" 
d="M499 -32q-166 0 -265.5 102t-99.5 268v824q0 167 99.5 268.5t265.5 101.5q167 0 266 -101.5t99 -268.5v-824q0 -166 -99 -268t-266 -102zM499 198q63 0 99 38.5t36 101.5v824q0 63 -36 101.5t-99 38.5t-99 -38.5t-36 -101.5v-824q0 -63 36 -101.5t99 -38.5zM177 1666
l231 299h180l232 -299h-202l-119 167l-120 -167h-202z" />
    <glyph glyph-name="Otilde" unicode="&#xd5;" horiz-adv-x="998" 
d="M499 -32q-166 0 -265.5 102t-99.5 268v824q0 167 99.5 268.5t265.5 101.5q167 0 266 -101.5t99 -268.5v-824q0 -166 -99 -268t-266 -102zM499 198q63 0 99 38.5t36 101.5v824q0 63 -36 101.5t-99 38.5t-99 -38.5t-36 -101.5v-824q0 -63 36 -101.5t99 -38.5zM642 1656
q-50 0 -87.5 19t-60.5 35q-24 17 -42.5 29.5t-36.5 12.5q-16 0 -23.5 -10t-7.5 -26v-50h-174v66q0 75 37.5 117.5t107.5 42.5q45 0 82 -16t62 -35q24 -17 43.5 -31t39.5 -14q17 0 24 11t7 26v52h173v-69q0 -75 -38 -117.5t-106 -42.5z" />
    <glyph glyph-name="Odieresis" unicode="&#xd6;" horiz-adv-x="998" 
d="M499 -32q-166 0 -265.5 102t-99.5 268v824q0 167 99.5 268.5t265.5 101.5q167 0 266 -101.5t99 -268.5v-824q0 -166 -99 -268t-266 -102zM499 198q63 0 99 38.5t36 101.5v824q0 63 -36 101.5t-99 38.5t-99 -38.5t-36 -101.5v-824q0 -63 36 -101.5t99 -38.5zM248 1713v252
h190v-252h-190zM567 1713v252h189v-252h-189z" />
    <glyph glyph-name="multiply" unicode="&#xd7;" horiz-adv-x="918" 
d="M658 190l-559 558l163 164l559 -559zM261 189l-163 164l558 558l164 -163z" />
    <glyph glyph-name="Oslash" unicode="&#xd8;" horiz-adv-x="998" 
d="M157 -68h-142l828 1634h143zM499 -32q-166 0 -265.5 102t-99.5 268v824q0 167 99.5 268.5t265.5 101.5q167 0 266 -101.5t99 -268.5v-824q0 -166 -99 -268t-266 -102zM499 198q63 0 99 38.5t36 101.5v824q0 63 -36 101.5t-99 38.5t-99 -38.5t-36 -101.5v-824
q0 -63 36 -101.5t99 -38.5z" />
    <glyph glyph-name="Ugrave" unicode="&#xd9;" horiz-adv-x="1022" 
d="M876 1500v-1162q0 -166 -99 -268t-266 -102q-166 0 -265.5 102t-99.5 268v1162h230v-1162q0 -63 36 -101.5t99 -38.5t99 38.5t36 101.5v1162h230zM434 1621l-189 344h231l122 -344h-164z" />
    <glyph glyph-name="Uacute" unicode="&#xda;" horiz-adv-x="1022" 
d="M876 1500v-1162q0 -166 -99 -268t-266 -102q-166 0 -265.5 102t-99.5 268v1162h230v-1162q0 -63 36 -101.5t99 -38.5t99 38.5t36 101.5v1162h230zM429 1621l122 344h231l-189 -344h-164z" />
    <glyph glyph-name="Ucircumflex" unicode="&#xdb;" horiz-adv-x="1022" 
d="M876 1500v-1162q0 -166 -99 -268t-266 -102q-166 0 -265.5 102t-99.5 268v1162h230v-1162q0 -63 36 -101.5t99 -38.5t99 38.5t36 101.5v1162h230zM190 1666l231 299h180l232 -299h-202l-119 167l-120 -167h-202z" />
    <glyph glyph-name="Udieresis" unicode="&#xdc;" horiz-adv-x="1022" 
d="M876 1500v-1162q0 -166 -99 -268t-266 -102q-166 0 -265.5 102t-99.5 268v1162h230v-1162q0 -63 36 -101.5t99 -38.5t99 38.5t36 101.5v1162h230zM260 1713v252h190v-252h-190zM579 1713v252h189v-252h-189z" />
    <glyph glyph-name="Yacute" unicode="&#xdd;" horiz-adv-x="919" 
d="M346 0v710l-331 790h235l246 -634h-69l242 634h235l-328 -790v-710h-230zM377 1621l122 344h231l-189 -344h-164z" />
    <glyph glyph-name="Thorn" unicode="&#xde;" horiz-adv-x="944" 
d="M156 0v1500h230v-198h140q163 0 259 -98.5t96 -261.5v-187q0 -162 -96 -261t-259 -99h-140v-395h-230zM386 625h140q59 0 92 35.5t33 94.5v187q0 59 -33 94.5t-92 35.5h-140v-447z" />
    <glyph glyph-name="germandbls" unicode="&#xdf;" horiz-adv-x="998" 
d="M126 -240v1387q0 116 48 202.5t133 134.5t199 48t200 -48t133 -134.5t47 -202.5v-154q0 -90 -30.5 -162t-86.5 -118l-5 89q65 -46 103.5 -123t38.5 -176v-165q0 -162 -96 -261t-259 -99h-79v230h79q59 0 92 35.5t33 94.5v165q0 58 -33 94t-92 36h-76v230h56q59 0 92 35.5
t33 94.5v154q0 70 -41 112.5t-109 42.5q-67 0 -108.5 -42.5t-41.5 -112.5v-1387h-230z" />
    <glyph glyph-name="agrave" unicode="&#xe0;" horiz-adv-x="890" 
d="M353 -25q-140 0 -214.5 84t-74.5 213q0 76 24.5 128t64 87t86.5 58q54 28 111 45.5t106 36t79 47t30 76.5v22q0 60 -35.5 97t-97.5 37q-63 0 -97.5 -37t-34.5 -97v-50h-215v35q0 164 94.5 264t252.5 100q105 0 183 -45.5t121.5 -127.5t43.5 -191v-757h-215v165l37 -48
q-33 -69 -97 -105.5t-152 -36.5zM417 174q62 0 105 36t43 114v167q-38 -28 -88.5 -41t-99.5 -34q-47 -19 -72.5 -47t-25.5 -73q0 -50 35.5 -86t102.5 -36zM354 1216l-189 344h231l122 -344h-164z" />
    <glyph glyph-name="aacute" unicode="&#xe1;" horiz-adv-x="890" 
d="M353 -25q-140 0 -214.5 84t-74.5 213q0 76 24.5 128t64 87t86.5 58q54 28 111 45.5t106 36t79 47t30 76.5v22q0 60 -35.5 97t-97.5 37q-63 0 -97.5 -37t-34.5 -97v-50h-215v35q0 164 94.5 264t252.5 100q105 0 183 -45.5t121.5 -127.5t43.5 -191v-757h-215v165l37 -48
q-33 -69 -97 -105.5t-152 -36.5zM417 174q62 0 105 36t43 114v167q-38 -28 -88.5 -41t-99.5 -34q-47 -19 -72.5 -47t-25.5 -73q0 -50 35.5 -86t102.5 -36zM349 1216l122 344h231l-189 -344h-164z" />
    <glyph glyph-name="acircumflex" unicode="&#xe2;" horiz-adv-x="890" 
d="M353 -25q-140 0 -214.5 84t-74.5 213q0 76 24.5 128t64 87t86.5 58q54 28 111 45.5t106 36t79 47t30 76.5v22q0 60 -35.5 97t-97.5 37q-63 0 -97.5 -37t-34.5 -97v-50h-215v35q0 164 94.5 264t252.5 100q105 0 183 -45.5t121.5 -127.5t43.5 -191v-757h-215v165l37 -48
q-33 -69 -97 -105.5t-152 -36.5zM417 174q62 0 105 36t43 114v167q-38 -28 -88.5 -41t-99.5 -34q-47 -19 -72.5 -47t-25.5 -73q0 -50 35.5 -86t102.5 -36zM110 1261l231 299h180l232 -299h-202l-119 167l-120 -167h-202z" />
    <glyph glyph-name="atilde" unicode="&#xe3;" horiz-adv-x="890" 
d="M353 -25q-140 0 -214.5 84t-74.5 213q0 76 24.5 128t64 87t86.5 58q54 28 111 45.5t106 36t79 47t30 76.5v22q0 60 -35.5 97t-97.5 37q-63 0 -97.5 -37t-34.5 -97v-50h-215v35q0 164 94.5 264t252.5 100q105 0 183 -45.5t121.5 -127.5t43.5 -191v-757h-215v165l37 -48
q-33 -69 -97 -105.5t-152 -36.5zM417 174q62 0 105 36t43 114v167q-38 -28 -88.5 -41t-99.5 -34q-47 -19 -72.5 -47t-25.5 -73q0 -50 35.5 -86t102.5 -36zM575 1251q-50 0 -87.5 19t-60.5 35q-24 17 -42.5 29.5t-36.5 12.5q-16 0 -23.5 -10t-7.5 -26v-50h-174v66
q0 75 37.5 117.5t107.5 42.5q45 0 82 -16t62 -35q24 -17 43.5 -31t39.5 -14q17 0 24 11t7 26v52h173v-69q0 -75 -38 -117.5t-106 -42.5z" />
    <glyph glyph-name="adieresis" unicode="&#xe4;" horiz-adv-x="890" 
d="M353 -25q-140 0 -214.5 84t-74.5 213q0 76 24.5 128t64 87t86.5 58q54 28 111 45.5t106 36t79 47t30 76.5v22q0 60 -35.5 97t-97.5 37q-63 0 -97.5 -37t-34.5 -97v-50h-215v35q0 164 94.5 264t252.5 100q105 0 183 -45.5t121.5 -127.5t43.5 -191v-757h-215v165l37 -48
q-33 -69 -97 -105.5t-152 -36.5zM417 174q62 0 105 36t43 114v167q-38 -28 -88.5 -41t-99.5 -34q-47 -19 -72.5 -47t-25.5 -73q0 -50 35.5 -86t102.5 -36zM180 1308v252h190v-252h-190zM499 1308v252h189v-252h-189z" />
    <glyph glyph-name="aring" unicode="&#xe5;" horiz-adv-x="890" 
d="M353 -25q-140 0 -214.5 84t-74.5 213q0 76 24.5 128t64 87t86.5 58q54 28 111 45.5t106 36t79 47t30 76.5v22q0 60 -35.5 97t-97.5 37q-63 0 -97.5 -37t-34.5 -97v-50h-215v35q0 164 94.5 264t252.5 100q105 0 183 -45.5t121.5 -127.5t43.5 -191v-757h-215v165l37 -48
q-33 -69 -97 -105.5t-152 -36.5zM417 174q62 0 105 36t43 114v167q-38 -28 -88.5 -41t-99.5 -34q-47 -19 -72.5 -47t-25.5 -73q0 -50 35.5 -86t102.5 -36zM434 1140q-85 0 -147 57t-62 151q0 93 62 150.5t145 57.5q84 0 146.5 -57t62.5 -151t-62 -151t-145 -57zM434 1273
q29 0 51.5 20.5t22.5 54.5t-23 55t-52 21q-30 0 -53 -21t-23 -55t23 -54.5t54 -20.5z" />
    <glyph glyph-name="ae" unicode="&#xe6;" horiz-adv-x="1349" 
d="M351 -25q-138 0 -212.5 83.5t-74.5 213.5q0 76 24.5 128t64 87t86.5 58q54 28 111 45.5t106 36t79 47t30 76.5v22q0 60 -35.5 97t-97.5 37q-63 0 -97.5 -37t-34.5 -97v-50h-215v35q0 164 94.5 264t252.5 100q93 0 166 -37t120 -104h-88q44 67 116.5 104t166.5 37
q158 0 252.5 -100t94.5 -264v-259h-480v-174q0 -60 35 -97t98 -37q62 0 97 37t35 97v35h215v-20q0 -163 -94.5 -263.5t-252.5 -100.5q-115 0 -199.5 55.5t-120.5 151.5l59 17q-31 -120 -116.5 -172t-184.5 -52zM417 174q62 0 105 36t43 114v167q-38 -28 -88.5 -41t-99.5 -34
q-47 -19 -72.5 -47t-25.5 -73q0 -50 35.5 -86t102.5 -36zM780 698h265v74q0 60 -35 97t-97 37q-63 0 -98 -37t-35 -97v-74z" />
    <glyph glyph-name="ccedilla" unicode="&#xe7;" horiz-adv-x="850" 
d="M442 -25q-105 0 -183 45.5t-121.5 127.5t-43.5 191v418q0 108 43.5 190.5t121.5 128t183 45.5q158 0 252.5 -100t94.5 -264v-20h-215v35q0 60 -35 97t-97 37t-97.5 -37t-35.5 -97v-448q0 -60 35.5 -97t97.5 -37t97 37t35 97v35h215v-20q0 -163 -94.5 -263.5
t-252.5 -100.5zM373 -507v158h163q29 0 46.5 15t17.5 41t-17.5 42.5t-46.5 16.5h-91l-71 38v238h159v-195l-72 33q91 33 157.5 13t103.5 -73.5t37 -120.5q0 -88 -61.5 -147t-161.5 -59h-163z" />
    <glyph glyph-name="egrave" unicode="&#xe8;" horiz-adv-x="878" 
d="M442 -25q-105 0 -183 45.5t-121.5 127.5t-43.5 191v418q0 108 43.5 190.5t121.5 128t183 45.5q158 0 252.5 -100t94.5 -264v-259h-511v200h296v74q0 60 -35 97t-97 37t-97.5 -37t-35.5 -97v-448q0 -60 35.5 -97t97.5 -37t97 37t35 97v35h215v-20q0 -163 -94.5 -263.5
t-252.5 -100.5zM365 1216l-189 344h231l122 -344h-164z" />
    <glyph glyph-name="eacute" unicode="&#xe9;" horiz-adv-x="878" 
d="M442 -25q-105 0 -183 45.5t-121.5 127.5t-43.5 191v418q0 108 43.5 190.5t121.5 128t183 45.5q158 0 252.5 -100t94.5 -264v-259h-511v200h296v74q0 60 -35 97t-97 37t-97.5 -37t-35.5 -97v-448q0 -60 35.5 -97t97.5 -37t97 37t35 97v35h215v-20q0 -163 -94.5 -263.5
t-252.5 -100.5zM359 1216l122 344h231l-189 -344h-164z" />
    <glyph glyph-name="ecircumflex" unicode="&#xea;" horiz-adv-x="878" 
d="M442 -25q-105 0 -183 45.5t-121.5 127.5t-43.5 191v418q0 108 43.5 190.5t121.5 128t183 45.5q158 0 252.5 -100t94.5 -264v-259h-511v200h296v74q0 60 -35 97t-97 37t-97.5 -37t-35.5 -97v-448q0 -60 35.5 -97t97.5 -37t97 37t35 97v35h215v-20q0 -163 -94.5 -263.5
t-252.5 -100.5zM120 1261l231 299h180l232 -299h-202l-119 167l-120 -167h-202z" />
    <glyph glyph-name="edieresis" unicode="&#xeb;" horiz-adv-x="878" 
d="M442 -25q-105 0 -183 45.5t-121.5 127.5t-43.5 191v418q0 108 43.5 190.5t121.5 128t183 45.5q158 0 252.5 -100t94.5 -264v-259h-511v200h296v74q0 60 -35 97t-97 37t-97.5 -37t-35.5 -97v-448q0 -60 35.5 -97t97.5 -37t97 37t35 97v35h215v-20q0 -163 -94.5 -263.5
t-252.5 -100.5zM191 1308v252h190v-252h-190zM510 1308v252h189v-252h-189z" />
    <glyph glyph-name="igrave" unicode="&#xec;" 
d="M126 0v1095h215v-1095h-215zM157 1216l-189 344h231l122 -344h-164z" />
    <glyph glyph-name="iacute" unicode="&#xed;" 
d="M126 0v1095h215v-1095h-215zM152 1216l122 344h231l-189 -344h-164z" />
    <glyph glyph-name="icircumflex" unicode="&#xee;" 
d="M126 0v1095h215v-1095h-215zM-87 1261l231 299h180l232 -299h-202l-119 167l-120 -167h-202z" />
    <glyph glyph-name="idieresis" unicode="&#xef;" 
d="M126 0v1095h215v-1095h-215zM-17 1308v252h190v-252h-190zM302 1308v252h189v-252h-189z" />
    <glyph glyph-name="eth" unicode="&#xf0;" horiz-adv-x="924" 
d="M526 1500q122 0 197 -79.5t75 -209.5v-1211h-215v159l37 -49q-33 -64 -91.5 -99.5t-143.5 -35.5q-73 0 -137 32.5t-104 108.5t-40 208v448q0 131 40 207.5t104 109t137 32.5q85 0 143.5 -35.5t91.5 -99.5l-37 -50v275q0 60 -36 97t-96 37h-52v155h127zM451 190
q63 0 97.5 36.5t34.5 97.5v448q0 60 -34.5 97t-97.5 37t-97.5 -37t-34.5 -97v-448q0 -60 34.5 -97t97.5 -37zM458 1132v131l429 113v-131z" />
    <glyph glyph-name="ntilde" unicode="&#xf1;" horiz-adv-x="930" 
d="M126 0v1095h215v-164l-39 43q35 72 96 109.5t141 37.5q129 0 203 -93t74 -256v-772h-215v772q0 60 -34.5 97t-94.5 37q-61 0 -96 -37t-35 -97v-772h-215zM614 1251q-50 0 -87.5 19t-60.5 35q-24 17 -42.5 29.5t-36.5 12.5q-16 0 -23.5 -10t-7.5 -26v-50h-174v66
q0 75 37.5 117.5t107.5 42.5q45 0 82 -16t62 -35q24 -17 43.5 -31t39.5 -14q17 0 24 11t7 26v52h173v-69q0 -75 -38 -117.5t-106 -42.5z" />
    <glyph glyph-name="ograve" unicode="&#xf2;" horiz-adv-x="884" 
d="M442 -25q-105 0 -183 45.5t-121.5 127.5t-43.5 191v418q0 108 43.5 190.5t121.5 128t183 45.5q158 0 252.5 -100t94.5 -264v-418q0 -163 -94.5 -263.5t-252.5 -100.5zM442 190q62 0 97 37t35 97v448q0 60 -35 97t-97 37t-97.5 -37t-35.5 -97v-448q0 -60 35.5 -97
t97.5 -37zM365 1216l-189 344h231l122 -344h-164z" />
    <glyph glyph-name="oacute" unicode="&#xf3;" horiz-adv-x="884" 
d="M442 -25q-105 0 -183 45.5t-121.5 127.5t-43.5 191v418q0 108 43.5 190.5t121.5 128t183 45.5q158 0 252.5 -100t94.5 -264v-418q0 -163 -94.5 -263.5t-252.5 -100.5zM442 190q62 0 97 37t35 97v448q0 60 -35 97t-97 37t-97.5 -37t-35.5 -97v-448q0 -60 35.5 -97
t97.5 -37zM359 1216l122 344h231l-189 -344h-164z" />
    <glyph glyph-name="ocircumflex" unicode="&#xf4;" horiz-adv-x="884" 
d="M442 -25q-105 0 -183 45.5t-121.5 127.5t-43.5 191v418q0 108 43.5 190.5t121.5 128t183 45.5q158 0 252.5 -100t94.5 -264v-418q0 -163 -94.5 -263.5t-252.5 -100.5zM442 190q62 0 97 37t35 97v448q0 60 -35 97t-97 37t-97.5 -37t-35.5 -97v-448q0 -60 35.5 -97
t97.5 -37zM120 1261l231 299h180l232 -299h-202l-119 167l-120 -167h-202z" />
    <glyph glyph-name="otilde" unicode="&#xf5;" horiz-adv-x="884" 
d="M442 -25q-105 0 -183 45.5t-121.5 127.5t-43.5 191v418q0 108 43.5 190.5t121.5 128t183 45.5q158 0 252.5 -100t94.5 -264v-418q0 -163 -94.5 -263.5t-252.5 -100.5zM442 190q62 0 97 37t35 97v448q0 60 -35 97t-97 37t-97.5 -37t-35.5 -97v-448q0 -60 35.5 -97
t97.5 -37zM585 1251q-50 0 -87.5 19t-60.5 35q-24 17 -42.5 29.5t-36.5 12.5q-16 0 -23.5 -10t-7.5 -26v-50h-174v66q0 75 37.5 117.5t107.5 42.5q45 0 82 -16t62 -35q24 -17 43.5 -31t39.5 -14q17 0 24 11t7 26v52h173v-69q0 -75 -38 -117.5t-106 -42.5z" />
    <glyph glyph-name="odieresis" unicode="&#xf6;" horiz-adv-x="884" 
d="M442 -25q-105 0 -183 45.5t-121.5 127.5t-43.5 191v418q0 108 43.5 190.5t121.5 128t183 45.5q158 0 252.5 -100t94.5 -264v-418q0 -163 -94.5 -263.5t-252.5 -100.5zM442 190q62 0 97 37t35 97v448q0 60 -35 97t-97 37t-97.5 -37t-35.5 -97v-448q0 -60 35.5 -97
t97.5 -37zM191 1308v252h190v-252h-190zM510 1308v252h189v-252h-189z" />
    <glyph glyph-name="divide" unicode="&#xf7;" horiz-adv-x="1055" 
d="M93 434v230h870v-230h-870zM414 95v262h230v-262h-230zM414 742v263h230v-263h-230z" />
    <glyph glyph-name="oslash" unicode="&#xf8;" horiz-adv-x="884" 
d="M200 -40h-143l627 1175h142zM442 -25q-105 0 -183 45.5t-121.5 127.5t-43.5 191v418q0 109 43.5 191t121.5 127.5t183 45.5q158 0 252.5 -100t94.5 -264v-418q0 -163 -94.5 -263.5t-252.5 -100.5zM442 190q62 0 97 37t35 97v448q0 60 -35 97t-97 37t-97.5 -37t-35.5 -97
v-448q0 -60 35.5 -97t97.5 -37z" />
    <glyph glyph-name="ugrave" unicode="&#xf9;" horiz-adv-x="931" 
d="M392 -25q-72 0 -135 32t-102.5 108.5t-39.5 208.5v771h215v-771q0 -61 34.5 -97.5t95.5 -36.5t95.5 36.5t34.5 97.5v771h215v-1095h-215v160l38 -49q-33 -64 -92.5 -100t-143.5 -36zM386 1216l-189 344h231l122 -344h-164z" />
    <glyph glyph-name="uacute" unicode="&#xfa;" horiz-adv-x="931" 
d="M392 -25q-72 0 -135 32t-102.5 108.5t-39.5 208.5v771h215v-771q0 -61 34.5 -97.5t95.5 -36.5t95.5 36.5t34.5 97.5v771h215v-1095h-215v160l38 -49q-33 -64 -92.5 -100t-143.5 -36zM381 1216l122 344h231l-189 -344h-164z" />
    <glyph glyph-name="ucircumflex" unicode="&#xfb;" horiz-adv-x="931" 
d="M392 -25q-72 0 -135 32t-102.5 108.5t-39.5 208.5v771h215v-771q0 -61 34.5 -97.5t95.5 -36.5t95.5 36.5t34.5 97.5v771h215v-1095h-215v160l38 -49q-33 -64 -92.5 -100t-143.5 -36zM142 1261l231 299h180l232 -299h-202l-119 167l-120 -167h-202z" />
    <glyph glyph-name="udieresis" unicode="&#xfc;" horiz-adv-x="931" 
d="M392 -25q-72 0 -135 32t-102.5 108.5t-39.5 208.5v771h215v-771q0 -61 34.5 -97.5t95.5 -36.5t95.5 36.5t34.5 97.5v771h215v-1095h-215v160l38 -49q-33 -64 -92.5 -100t-143.5 -36zM212 1308v252h190v-252h-190zM531 1308v252h189v-252h-189z" />
    <glyph glyph-name="yacute" unicode="&#xfd;" horiz-adv-x="845" 
d="M216 -360l97 353l-307 1102h234l210 -832h-48l203 832h235l-404 -1455h-220zM341 1216l122 344h231l-189 -344h-164z" />
    <glyph glyph-name="thorn" unicode="&#xfe;" horiz-adv-x="923" 
d="M126 -360v1860h215v-564l-37 50q33 64 91.5 99.5t143.5 35.5q73 0 137 -32.5t104 -109t40 -207.5v-448q0 -132 -40 -208t-104 -108.5t-137 -32.5q-85 0 -143.5 35.5t-91.5 99.5l37 49v-519h-215zM472 190q63 0 98 37t35 97v448q0 60 -35 97t-97 37q-63 0 -97.5 -37
t-34.5 -97v-448q0 -61 34.5 -97.5t96.5 -36.5z" />
    <glyph glyph-name="ydieresis" unicode="&#xff;" horiz-adv-x="845" 
d="M216 -360l97 353l-307 1102h234l210 -832h-48l203 832h235l-404 -1455h-220zM172 1308v252h190v-252h-190zM491 1308v252h189v-252h-189z" />
    <glyph glyph-name="Amacron" unicode="&#x100;" horiz-adv-x="916" 
d="M38 0l298 1500h248l294 -1500h-236l-44 256h-279l-45 -256h-236zM355 486h207l-118 700h32zM226 1795h467v-158h-467v158z" />
    <glyph glyph-name="amacron" unicode="&#x101;" horiz-adv-x="890" 
d="M353 -25q-140 0 -214.5 84t-74.5 213q0 76 24.5 128t64 87t86.5 58q54 28 111 45.5t106 36t79 47t30 76.5v22q0 60 -35.5 97t-97.5 37q-63 0 -97.5 -37t-34.5 -97v-50h-215v35q0 164 94.5 264t252.5 100q105 0 183 -45.5t121.5 -127.5t43.5 -191v-757h-215v165l37 -48
q-33 -69 -97 -105.5t-152 -36.5zM417 174q62 0 105 36t43 114v167q-38 -28 -88.5 -41t-99.5 -34q-47 -19 -72.5 -47t-25.5 -73q0 -50 35.5 -86t102.5 -36zM199 1390h467v-158h-467v158z" />
    <glyph glyph-name="Abreve" unicode="&#x102;" horiz-adv-x="916" 
d="M38 0l298 1500h248l294 -1500h-236l-44 256h-279l-45 -256h-236zM355 486h207l-118 700h32zM459 1708q-108 0 -176.5 64t-68.5 169v24h149v-24q0 -46 27 -73t69 -27t68.5 27t26.5 73v24h148v-24q0 -105 -67 -169t-176 -64z" />
    <glyph glyph-name="abreve" unicode="&#x103;" horiz-adv-x="890" 
d="M353 -25q-140 0 -214.5 84t-74.5 213q0 76 24.5 128t64 87t86.5 58q54 28 111 45.5t106 36t79 47t30 76.5v22q0 60 -35.5 97t-97.5 37q-63 0 -97.5 -37t-34.5 -97v-50h-215v35q0 164 94.5 264t252.5 100q105 0 183 -45.5t121.5 -127.5t43.5 -191v-757h-215v165l37 -48
q-33 -69 -97 -105.5t-152 -36.5zM417 174q62 0 105 36t43 114v167q-38 -28 -88.5 -41t-99.5 -34q-47 -19 -72.5 -47t-25.5 -73q0 -50 35.5 -86t102.5 -36zM432 1303q-108 0 -176.5 64t-68.5 169v24h149v-24q0 -46 27 -73t69 -27t68.5 27t26.5 73v24h148v-24q0 -105 -67 -169
t-176 -64z" />
    <glyph glyph-name="Aogonek" unicode="&#x104;" horiz-adv-x="916" 
d="M38 0l298 1500h248l294 -1500h-236l-44 256h-279l-45 -256h-236zM355 486h207l-118 700h32zM831 -470q-132 0 -205.5 67t-73.5 171q0 93 59 169t170 142h45v-79q-55 -45 -85 -92t-30 -97q0 -56 35.5 -89t99.5 -33h36v-159h-51z" />
    <glyph glyph-name="aogonek" unicode="&#x105;" horiz-adv-x="890" 
d="M353 -25q-140 0 -214.5 84t-74.5 213q0 76 24.5 128t64 87t86.5 58q54 28 111 45.5t106 36t79 47t30 76.5v22q0 60 -35.5 97t-97.5 37q-63 0 -97.5 -37t-34.5 -97v-50h-215v35q0 164 94.5 264t252.5 100q105 0 183 -45.5t121.5 -127.5t43.5 -191v-757h-215v165l37 -48
q-33 -69 -97 -105.5t-152 -36.5zM417 174q62 0 105 36t43 114v167q-38 -28 -88.5 -41t-99.5 -34q-47 -19 -72.5 -47t-25.5 -73q0 -50 35.5 -86t102.5 -36zM736 -470q-132 0 -205.5 67t-73.5 171q0 93 59 169t170 142h45v-79q-55 -45 -85 -92t-30 -97q0 -56 35.5 -89
t99.5 -33h36v-159h-51z" />
    <glyph glyph-name="Cacute" unicode="&#x106;" horiz-adv-x="940" 
d="M864 408v-70q0 -166 -99 -268t-266 -102q-166 0 -265.5 102t-99.5 268v824q0 167 99.5 268.5t265.5 101.5q167 0 266 -101.5t99 -268.5v-70h-230v70q0 63 -36 101.5t-99 38.5t-99 -38.5t-36 -101.5v-824q0 -63 36 -101.5t99 -38.5t99 38.5t36 101.5v70h230zM416 1621
l122 344h231l-189 -344h-164z" />
    <glyph glyph-name="cacute" unicode="&#x107;" horiz-adv-x="850" 
d="M442 -25q-105 0 -183 45.5t-121.5 127.5t-43.5 191v418q0 108 43.5 190.5t121.5 128t183 45.5q158 0 252.5 -100t94.5 -264v-20h-215v35q0 60 -35 97t-97 37t-97.5 -37t-35.5 -97v-448q0 -60 35.5 -97t97.5 -37t97 37t35 97v35h215v-20q0 -163 -94.5 -263.5
t-252.5 -100.5zM359 1216l122 344h231l-189 -344h-164z" />
    <glyph glyph-name="Ccircumflex" unicode="&#x108;" horiz-adv-x="940" 
d="M864 408v-70q0 -166 -99 -268t-266 -102q-166 0 -265.5 102t-99.5 268v824q0 167 99.5 268.5t265.5 101.5q167 0 266 -101.5t99 -268.5v-70h-230v70q0 63 -36 101.5t-99 38.5t-99 -38.5t-36 -101.5v-824q0 -63 36 -101.5t99 -38.5t99 38.5t36 101.5v70h230zM177 1666
l231 299h180l232 -299h-202l-119 167l-120 -167h-202z" />
    <glyph glyph-name="ccircumflex" unicode="&#x109;" horiz-adv-x="850" 
d="M442 -25q-105 0 -183 45.5t-121.5 127.5t-43.5 191v418q0 108 43.5 190.5t121.5 128t183 45.5q158 0 252.5 -100t94.5 -264v-20h-215v35q0 60 -35 97t-97 37t-97.5 -37t-35.5 -97v-448q0 -60 35.5 -97t97.5 -37t97 37t35 97v35h215v-20q0 -163 -94.5 -263.5
t-252.5 -100.5zM120 1261l231 299h180l232 -299h-202l-119 167l-120 -167h-202z" />
    <glyph glyph-name="Cdotaccent" unicode="&#x10a;" horiz-adv-x="940" 
d="M864 408v-70q0 -166 -99 -268t-266 -102q-166 0 -265.5 102t-99.5 268v824q0 167 99.5 268.5t265.5 101.5q167 0 266 -101.5t99 -268.5v-70h-230v70q0 63 -36 101.5t-99 38.5t-99 -38.5t-36 -101.5v-824q0 -63 36 -101.5t99 -38.5t99 38.5t36 101.5v70h230zM404 1653v252
h190v-252h-190z" />
    <glyph glyph-name="cdotaccent" unicode="&#x10b;" horiz-adv-x="850" 
d="M442 -25q-105 0 -183 45.5t-121.5 127.5t-43.5 191v418q0 108 43.5 190.5t121.5 128t183 45.5q158 0 252.5 -100t94.5 -264v-20h-215v35q0 60 -35 97t-97 37t-97.5 -37t-35.5 -97v-448q0 -60 35.5 -97t97.5 -37t97 37t35 97v35h215v-20q0 -163 -94.5 -263.5
t-252.5 -100.5zM347 1248v252h190v-252h-190z" />
    <glyph glyph-name="Ccaron" unicode="&#x10c;" horiz-adv-x="940" 
d="M864 408v-70q0 -166 -99 -268t-266 -102q-166 0 -265.5 102t-99.5 268v824q0 167 99.5 268.5t265.5 101.5q167 0 266 -101.5t99 -268.5v-70h-230v70q0 63 -36 101.5t-99 38.5t-99 -38.5t-36 -101.5v-824q0 -63 36 -101.5t99 -38.5t99 38.5t36 101.5v70h230zM408 1666
l-231 299h202l120 -167l119 167h202l-232 -299h-180z" />
    <glyph glyph-name="ccaron" unicode="&#x10d;" horiz-adv-x="850" 
d="M442 -25q-105 0 -183 45.5t-121.5 127.5t-43.5 191v418q0 108 43.5 190.5t121.5 128t183 45.5q158 0 252.5 -100t94.5 -264v-20h-215v35q0 60 -35 97t-97 37t-97.5 -37t-35.5 -97v-448q0 -60 35.5 -97t97.5 -37t97 37t35 97v35h215v-20q0 -163 -94.5 -263.5
t-252.5 -100.5zM351 1261l-231 299h202l120 -167l119 167h202l-232 -299h-180z" />
    <glyph glyph-name="Dcaron" unicode="&#x10e;" horiz-adv-x="1007" 
d="M156 0v1500h360q167 0 266 -101.5t99 -268.5v-760q0 -166 -99 -268t-266 -102h-360zM386 230h130q63 0 99 38.5t36 101.5v760q0 63 -36 101.5t-99 38.5h-130v-1040zM412 1666l-231 299h202l120 -167l119 167h202l-232 -299h-180z" />
    <glyph glyph-name="dcaron" unicode="&#x10f;" horiz-adv-x="1314" 
d="M385 -25q-73 0 -137 32.5t-104 108.5t-40 208v448q0 131 40 207.5t104 109t137 32.5q85 0 143.5 -35.5t91.5 -99.5l-37 -50v564h215v-1500h-215v159l37 -49q-33 -64 -91.5 -99.5t-143.5 -35.5zM451 190q63 0 97.5 36.5t34.5 97.5v448q0 60 -34.5 97t-97.5 37t-97.5 -37
t-34.5 -97v-448q0 -60 34.5 -97t97.5 -37zM888 1020l80 480h215l-80 -480h-215z" />
    <glyph glyph-name="Dcroat" unicode="&#x110;" horiz-adv-x="1007" 
d="M29 654v195h490v-195h-490zM156 0v1500h360q167 0 266 -101.5t99 -268.5v-760q0 -166 -99 -268t-266 -102h-360zM386 230h130q63 0 99 38.5t36 101.5v760q0 63 -36 101.5t-99 38.5h-130v-1040z" />
    <glyph glyph-name="dcroat" unicode="&#x111;" horiz-adv-x="924" 
d="M445 1194v195h490v-195h-490zM385 -25q-73 0 -137 32.5t-104 108.5t-40 208v448q0 131 40 207.5t104 109t137 32.5q85 0 143.5 -35.5t91.5 -99.5l-37 -50v564h215v-1500h-215v159l37 -49q-33 -64 -91.5 -99.5t-143.5 -35.5zM451 190q63 0 97.5 36.5t34.5 97.5v448
q0 60 -34.5 97t-97.5 37t-97.5 -37t-34.5 -97v-448q0 -60 34.5 -97t97.5 -37z" />
    <glyph glyph-name="Emacron" unicode="&#x112;" horiz-adv-x="858" 
d="M771 1500v-230h-385v-375h331v-230h-331v-435h385v-230h-615v1500h615zM193 1795h467v-158h-467v158z" />
    <glyph glyph-name="emacron" unicode="&#x113;" horiz-adv-x="878" 
d="M442 -25q-105 0 -183 45.5t-121.5 127.5t-43.5 191v418q0 108 43.5 190.5t121.5 128t183 45.5q158 0 252.5 -100t94.5 -264v-259h-511v200h296v74q0 60 -35 97t-97 37t-97.5 -37t-35.5 -97v-448q0 -60 35.5 -97t97.5 -37t97 37t35 97v35h215v-20q0 -163 -94.5 -263.5
t-252.5 -100.5zM209 1390h467v-158h-467v158z" />
    <glyph glyph-name="Ebreve" unicode="&#x114;" horiz-adv-x="858" 
d="M771 1500v-230h-385v-375h331v-230h-331v-435h385v-230h-615v1500h615zM426 1708q-108 0 -176.5 64t-68.5 169v24h149v-24q0 -46 27 -73t69 -27t68.5 27t26.5 73v24h148v-24q0 -105 -67 -169t-176 -64z" />
    <glyph glyph-name="ebreve" unicode="&#x115;" horiz-adv-x="878" 
d="M442 -25q-105 0 -183 45.5t-121.5 127.5t-43.5 191v418q0 108 43.5 190.5t121.5 128t183 45.5q158 0 252.5 -100t94.5 -264v-259h-511v200h296v74q0 60 -35 97t-97 37t-97.5 -37t-35.5 -97v-448q0 -60 35.5 -97t97.5 -37t97 37t35 97v35h215v-20q0 -163 -94.5 -263.5
t-252.5 -100.5zM442 1303q-108 0 -176.5 64t-68.5 169v24h149v-24q0 -46 27 -73t69 -27t68.5 27t26.5 73v24h148v-24q0 -105 -67 -169t-176 -64z" />
    <glyph glyph-name="Edotaccent" unicode="&#x116;" horiz-adv-x="858" 
d="M771 1500v-230h-385v-375h331v-230h-331v-435h385v-230h-615v1500h615zM331 1653v252h190v-252h-190z" />
    <glyph glyph-name="edotaccent" unicode="&#x117;" horiz-adv-x="878" 
d="M442 -25q-105 0 -183 45.5t-121.5 127.5t-43.5 191v418q0 108 43.5 190.5t121.5 128t183 45.5q158 0 252.5 -100t94.5 -264v-259h-511v200h296v74q0 60 -35 97t-97 37t-97.5 -37t-35.5 -97v-448q0 -60 35.5 -97t97.5 -37t97 37t35 97v35h215v-20q0 -163 -94.5 -263.5
t-252.5 -100.5zM347 1248v252h190v-252h-190z" />
    <glyph glyph-name="Eogonek" unicode="&#x118;" horiz-adv-x="858" 
d="M771 1500v-230h-385v-375h331v-230h-331v-435h385v-230h-615v1500h615zM548 -470q-132 0 -205.5 67t-73.5 171q0 93 59 169t170 142h45v-79q-55 -45 -85 -92t-30 -97q0 -56 35.5 -89t99.5 -33h36v-159h-51z" />
    <glyph glyph-name="eogonek" unicode="&#x119;" horiz-adv-x="878" 
d="M442 -25q-105 0 -183 45.5t-121.5 127.5t-43.5 191v418q0 108 43.5 190.5t121.5 128t183 45.5q158 0 252.5 -100t94.5 -264v-259h-511v200h296v74q0 60 -35 97t-97 37t-97.5 -37t-35.5 -97v-448q0 -60 35.5 -97t97.5 -37t97 37t35 97v35h215v-20q0 -163 -94.5 -263.5
t-252.5 -100.5zM580 -470q-132 0 -205.5 67t-73.5 171q0 93 59 169t170 142h45v-79q-55 -45 -85 -92t-30 -97q0 -56 35.5 -89t99.5 -33h36v-159h-51z" />
    <glyph glyph-name="Ecaron" unicode="&#x11a;" horiz-adv-x="858" 
d="M771 1500v-230h-385v-375h331v-230h-331v-435h385v-230h-615v1500h615zM335 1666l-231 299h202l120 -167l119 167h202l-232 -299h-180z" />
    <glyph glyph-name="ecaron" unicode="&#x11b;" horiz-adv-x="878" 
d="M442 -25q-105 0 -183 45.5t-121.5 127.5t-43.5 191v418q0 108 43.5 190.5t121.5 128t183 45.5q158 0 252.5 -100t94.5 -264v-259h-511v200h296v74q0 60 -35 97t-97 37t-97.5 -37t-35.5 -97v-448q0 -60 35.5 -97t97.5 -37t97 37t35 97v35h215v-20q0 -163 -94.5 -263.5
t-252.5 -100.5zM351 1261l-231 299h202l120 -167l119 167h202l-232 -299h-180z" />
    <glyph glyph-name="Gcircumflex" unicode="&#x11c;" horiz-adv-x="976" 
d="M499 -32q-166 0 -265.5 102t-99.5 268v824q0 167 99.5 268.5t265.5 101.5q167 0 266 -101.5t99 -268.5v-70h-230v70q0 63 -36 101.5t-99 38.5t-99 -38.5t-36 -101.5v-824q0 -63 36 -101.5t99 -38.5t99 38.5t36 101.5v172h-151v230h381v-402q0 -166 -99 -268t-266 -102z
M177 1666l231 299h180l232 -299h-202l-119 167l-120 -167h-202z" />
    <glyph glyph-name="gcircumflex" unicode="&#x11d;" horiz-adv-x="909" 
d="M435 -366q-157 0 -252 100.5t-95 264.5v38h215v-53q0 -60 35 -97.5t97 -37.5t97.5 37.5t35.5 97.5v315l38 -49q-33 -64 -92 -99.5t-143 -35.5q-73 0 -137.5 32.5t-104.5 108.5t-40 208v308q0 131 40 207.5t104.5 109t137.5 32.5q84 0 143 -35.5t92 -99.5l-38 -50v159h215
v-1099q0 -109 -43.5 -190.5t-121.5 -126.5t-183 -45zM437 330q62 0 96.5 36.5t34.5 97.5v308q0 60 -34.5 97t-96.5 37q-63 0 -98 -37t-35 -97v-308q0 -60 35 -97t98 -37zM114 1261l231 299h180l232 -299h-202l-119 167l-120 -167h-202z" />
    <glyph glyph-name="Gbreve" unicode="&#x11e;" horiz-adv-x="976" 
d="M499 -32q-166 0 -265.5 102t-99.5 268v824q0 167 99.5 268.5t265.5 101.5q167 0 266 -101.5t99 -268.5v-70h-230v70q0 63 -36 101.5t-99 38.5t-99 -38.5t-36 -101.5v-824q0 -63 36 -101.5t99 -38.5t99 38.5t36 101.5v172h-151v230h381v-402q0 -166 -99 -268t-266 -102z
M499 1708q-108 0 -176.5 64t-68.5 169v24h149v-24q0 -46 27 -73t69 -27t68.5 27t26.5 73v24h148v-24q0 -105 -67 -169t-176 -64z" />
    <glyph glyph-name="gbreve" unicode="&#x11f;" horiz-adv-x="909" 
d="M435 -366q-157 0 -252 100.5t-95 264.5v38h215v-53q0 -60 35 -97.5t97 -37.5t97.5 37.5t35.5 97.5v315l38 -49q-33 -64 -92 -99.5t-143 -35.5q-73 0 -137.5 32.5t-104.5 108.5t-40 208v308q0 131 40 207.5t104.5 109t137.5 32.5q84 0 143 -35.5t92 -99.5l-38 -50v159h215
v-1099q0 -109 -43.5 -190.5t-121.5 -126.5t-183 -45zM437 330q62 0 96.5 36.5t34.5 97.5v308q0 60 -34.5 97t-96.5 37q-63 0 -98 -37t-35 -97v-308q0 -60 35 -97t98 -37zM436 1303q-108 0 -176.5 64t-68.5 169v24h149v-24q0 -46 27 -73t69 -27t68.5 27t26.5 73v24h148v-24
q0 -105 -67 -169t-176 -64z" />
    <glyph glyph-name="Gdotaccent" unicode="&#x120;" horiz-adv-x="976" 
d="M499 -32q-166 0 -265.5 102t-99.5 268v824q0 167 99.5 268.5t265.5 101.5q167 0 266 -101.5t99 -268.5v-70h-230v70q0 63 -36 101.5t-99 38.5t-99 -38.5t-36 -101.5v-824q0 -63 36 -101.5t99 -38.5t99 38.5t36 101.5v172h-151v230h381v-402q0 -166 -99 -268t-266 -102z
M404 1653v252h190v-252h-190z" />
    <glyph glyph-name="gdotaccent" unicode="&#x121;" horiz-adv-x="909" 
d="M435 -366q-157 0 -252 100.5t-95 264.5v38h215v-53q0 -60 35 -97.5t97 -37.5t97.5 37.5t35.5 97.5v315l38 -49q-33 -64 -92 -99.5t-143 -35.5q-73 0 -137.5 32.5t-104.5 108.5t-40 208v308q0 131 40 207.5t104.5 109t137.5 32.5q84 0 143 -35.5t92 -99.5l-38 -50v159h215
v-1099q0 -109 -43.5 -190.5t-121.5 -126.5t-183 -45zM437 330q62 0 96.5 36.5t34.5 97.5v308q0 60 -34.5 97t-96.5 37q-63 0 -98 -37t-35 -97v-308q0 -60 35 -97t98 -37zM341 1248v252h190v-252h-190z" />
    <glyph glyph-name="uni0122" unicode="&#x122;" horiz-adv-x="976" 
d="M499 -32q-166 0 -265.5 102t-99.5 268v824q0 167 99.5 268.5t265.5 101.5q167 0 266 -101.5t99 -268.5v-70h-230v70q0 63 -36 101.5t-99 38.5t-99 -38.5t-36 -101.5v-824q0 -63 36 -101.5t99 -38.5t99 38.5t36 101.5v172h-151v230h381v-402q0 -166 -99 -268t-266 -102z
M341 -440l56 332h230l-145 -332h-141z" />
    <glyph glyph-name="uni0123" unicode="&#x123;" horiz-adv-x="909" 
d="M435 -366q-157 0 -252 100.5t-95 264.5v38h215v-53q0 -60 35 -97.5t97 -37.5t97.5 37.5t35.5 97.5v315l38 -49q-33 -64 -92 -99.5t-143 -35.5q-73 0 -137.5 32.5t-104.5 108.5t-40 208v308q0 131 40 207.5t104.5 109t137.5 32.5q84 0 143 -35.5t92 -99.5l-38 -50v159h215
v-1099q0 -109 -43.5 -190.5t-121.5 -126.5t-183 -45zM437 330q62 0 96.5 36.5t34.5 97.5v308q0 60 -34.5 97t-96.5 37q-63 0 -98 -37t-35 -97v-308q0 -60 35 -97t98 -37zM277 -806l56 332h230l-145 -332h-141z" />
    <glyph glyph-name="Hcircumflex" unicode="&#x124;" horiz-adv-x="1007" 
d="M156 0v1500h230v-755h235v755h230v-1500h-230v515h-235v-515h-230zM182 1666l231 299h180l232 -299h-202l-119 167l-120 -167h-202z" />
    <glyph glyph-name="hcircumflex" unicode="&#x125;" horiz-adv-x="933" 
d="M126 0v1500h215v-564l-37 49q33 65 92 100.5t143 35.5q72 0 135.5 -30t102.5 -97t39 -177v-817h-215v772q0 61 -34.5 97.5t-94.5 36.5q-61 0 -96 -36.5t-35 -97.5v-772h-215zM-91 1666l231 299h180l232 -299h-202l-119 167l-120 -167h-202z" />
    <glyph glyph-name="Hbar" unicode="&#x126;" horiz-adv-x="1007" 
d="M54 999v195h900v-195h-900zM156 0v1500h230v-755h235v755h230v-1500h-230v515h-235v-515h-230z" />
    <glyph glyph-name="hbar" unicode="&#x127;" horiz-adv-x="933" 
d="M-14 1209v195h490v-195h-490zM126 0v1500h215v-564l-37 49q33 65 92 100.5t143 35.5q72 0 135.5 -30t102.5 -97t39 -177v-817h-215v772q0 61 -34.5 97.5t-94.5 36.5q-61 0 -96 -36.5t-35 -97.5v-772h-215z" />
    <glyph glyph-name="Itilde" unicode="&#x128;" horiz-adv-x="542" 
d="M386 0h-230v1500h230v-1500zM415 1656q-50 0 -87.5 19t-60.5 35q-24 17 -42.5 29.5t-36.5 12.5q-16 0 -23.5 -10t-7.5 -26v-50h-174v66q0 75 37.5 117.5t107.5 42.5q45 0 82 -16t62 -35q24 -17 43.5 -31t39.5 -14q17 0 24 11t7 26v52h173v-69q0 -75 -38 -117.5
t-106 -42.5z" />
    <glyph glyph-name="itilde" unicode="&#x129;" 
d="M126 0v1095h215v-1095h-215zM378 1251q-50 0 -87.5 19t-60.5 35q-24 17 -42.5 29.5t-36.5 12.5q-16 0 -23.5 -10t-7.5 -26v-50h-174v66q0 75 37.5 117.5t107.5 42.5q45 0 82 -16t62 -35q24 -17 43.5 -31t39.5 -14q17 0 24 11t7 26v52h173v-69q0 -75 -38 -117.5
t-106 -42.5z" />
    <glyph glyph-name="Imacron" unicode="&#x12a;" horiz-adv-x="542" 
d="M386 0h-230v1500h230v-1500zM39 1795h467v-158h-467v158z" />
    <glyph glyph-name="imacron" unicode="&#x12b;" 
d="M126 0v1095h215v-1095h-215zM2 1390h467v-158h-467v158z" />
    <glyph glyph-name="Iogonek" unicode="&#x12e;" horiz-adv-x="542" 
d="M386 0h-230v1500h230v-1500zM311 -470q-132 0 -205.5 67t-73.5 171q0 93 59 169t170 142h45v-79q-55 -45 -85 -92t-30 -97q0 -56 35.5 -89t99.5 -33h36v-159h-51z" />
    <glyph glyph-name="iogonek" unicode="&#x12f;" 
d="M126 0v1095h215v-1095h-215zM140 1248v252h190v-252h-190zM280 -470q-132 0 -205.5 67t-73.5 171q0 93 59 169t170 142h45v-79q-55 -45 -85 -92t-30 -97q0 -56 35.5 -89t99.5 -33h36v-159h-51z" />
    <glyph glyph-name="Idotaccent" unicode="&#x130;" horiz-adv-x="542" 
d="M386 0h-230v1500h230v-1500zM177 1653v252h190v-252h-190z" />
    <glyph glyph-name="dotlessi" unicode="&#x131;" 
d="M126 0v1095h215v-1095h-215z" />
    <glyph glyph-name="IJ" unicode="&#x132;" horiz-adv-x="1200" 
d="M386 0h-230v1500h230v-1500zM567 -13v230h124q63 0 99 38.5t36 101.5v1143h230v-1143q0 -166 -99 -268t-266 -102h-124z" />
    <glyph glyph-name="ij" unicode="&#x133;" horiz-adv-x="934" 
d="M126 0v1095h215v-1095h-215zM126 1189v251h215v-251h-215zM393 -366v215h68q62 0 97 38.5t35 101.5v1106h215v-1091q0 -166 -94 -268t-253 -102h-68zM593 1189v251h215v-251h-215z" />
    <glyph glyph-name="Jcircumflex" unicode="&#x134;" horiz-adv-x="658" 
d="M25 -13v230h124q63 0 99 38.5t36 101.5v1143h230v-1143q0 -166 -99 -268t-266 -102h-124zM72 1666l231 299h180l232 -299h-202l-119 167l-120 -167h-202z" />
    <glyph glyph-name="jcircumflex" unicode="&#x135;" 
d="M-74 -366v215h68q62 0 97 38.5t35 101.5v1106h215v-1091q0 -166 -94 -268t-253 -102h-68zM-87 1261l231 299h180l232 -299h-202l-119 167l-120 -167h-202z" />
    <glyph glyph-name="uni0136" unicode="&#x136;" horiz-adv-x="995" 
d="M709 0l-275 717l-68 -101v378l343 506h248l-366 -546l365 -954h-247zM156 0v1500h230v-1500h-230zM325 -440l56 332h230l-145 -332h-141z" />
    <glyph glyph-name="uni0137" unicode="&#x137;" horiz-adv-x="879" 
d="M657 0l-233 554l-101 -135v315l274 362h225l-257 -348l317 -748h-225zM126 0v1500h215v-1500h-215zM270 -440l56 332h230l-145 -332h-141z" />
    <glyph glyph-name="kgreenlandic" unicode="&#x138;" horiz-adv-x="878" 
d="M657 0l-330 742l270 354h225l-275 -363l335 -733h-225zM126 0v1095h215v-1095h-215z" />
    <glyph glyph-name="Lacute" unicode="&#x139;" horiz-adv-x="765" 
d="M386 1500v-1270h345v-230h-575v1500h230zM276 1621l122 344h231l-189 -344h-164z" />
    <glyph glyph-name="lacute" unicode="&#x13a;" 
d="M126 0v1500h215v-1500h-215zM152 1621l122 344h231l-189 -344h-164z" />
    <glyph glyph-name="uni013B" unicode="&#x13b;" horiz-adv-x="765" 
d="M386 1500v-1270h345v-230h-575v1500h230zM201 -440l56 332h230l-145 -332h-141z" />
    <glyph glyph-name="uni013C" unicode="&#x13c;" 
d="M126 0v1500h215v-1500h-215zM76 -440l56 332h230l-145 -332h-141z" />
    <glyph glyph-name="Lcaron" unicode="&#x13d;" horiz-adv-x="765" 
d="M386 1500v-1270h345v-230h-575v1500h230zM268 1666l-231 299h202l120 -167l119 167h202l-232 -299h-180z" />
    <glyph glyph-name="lcaron" unicode="&#x13e;" horiz-adv-x="945" 
d="M126 0v1500h215v-1500h-215zM519 1020l80 480h215l-80 -480h-215z" />
    <glyph glyph-name="Ldot" unicode="&#x13f;" horiz-adv-x="760" 
d="M386 1500v-1270h345v-230h-575v1500h230zM489 631v240h200v-240h-200z" />
    <glyph glyph-name="ldot" unicode="&#x140;" horiz-adv-x="798" 
d="M126 0v1500h215v-1500h-215zM472 631v240h200v-240h-200z" />
    <glyph glyph-name="Lslash" unicode="&#x141;" horiz-adv-x="765" 
d="M-22 551v200l585 200v-200zM386 1500v-1270h345v-230h-575v1500h230z" />
    <glyph glyph-name="lslash" unicode="&#x142;" 
d="M-51 567v221l570 147v-221zM126 0v1500h215v-1500h-215z" />
    <glyph glyph-name="Nacute" unicode="&#x143;" horiz-adv-x="1027" 
d="M156 0v1500h178l384 -1055l-62 -3v1058h215v-1500h-177l-385 1056l62 3v-1059h-215zM431 1621l122 344h231l-189 -344h-164z" />
    <glyph glyph-name="nacute" unicode="&#x144;" horiz-adv-x="930" 
d="M126 0v1095h215v-164l-39 43q35 72 96 109.5t141 37.5q129 0 203 -93t74 -256v-772h-215v772q0 60 -34.5 97t-94.5 37q-61 0 -96 -37t-35 -97v-772h-215zM388 1216l122 344h231l-189 -344h-164z" />
    <glyph glyph-name="uni0145" unicode="&#x145;" horiz-adv-x="1027" 
d="M156 0v1500h178l384 -1055l-62 -3v1058h215v-1500h-177l-385 1056l62 3v-1059h-215zM355 -440l56 332h230l-145 -332h-141z" />
    <glyph glyph-name="uni0146" unicode="&#x146;" horiz-adv-x="930" 
d="M126 0v1095h215v-164l-39 43q35 72 96 109.5t141 37.5q129 0 203 -93t74 -256v-772h-215v772q0 60 -34.5 97t-94.5 37q-61 0 -96 -37t-35 -97v-772h-215zM313 -440l56 332h230l-145 -332h-141z" />
    <glyph glyph-name="Ncaron" unicode="&#x147;" horiz-adv-x="1027" 
d="M156 0v1500h178l384 -1055l-62 -3v1058h215v-1500h-177l-385 1056l62 3v-1059h-215zM423 1666l-231 299h202l120 -167l119 167h202l-232 -299h-180z" />
    <glyph glyph-name="ncaron" unicode="&#x148;" horiz-adv-x="930" 
d="M126 0v1095h215v-164l-39 43q35 72 96 109.5t141 37.5q129 0 203 -93t74 -256v-772h-215v772q0 60 -34.5 97t-94.5 37q-61 0 -96 -37t-35 -97v-772h-215zM380 1261l-231 299h202l120 -167l119 167h202l-232 -299h-180z" />
    <glyph glyph-name="napostrophe" unicode="&#x149;" horiz-adv-x="1310" 
d="M160 1020l59 197h-88v283h230v-283l-59 -197h-142zM506 0v1095h215v-164l-39 43q35 72 96 109.5t141 37.5q129 0 203 -93t74 -256v-772h-215v772q0 60 -34.5 97t-94.5 37q-61 0 -96 -37t-35 -97v-772h-215z" />
    <glyph glyph-name="Omacron" unicode="&#x14c;" horiz-adv-x="998" 
d="M499 -32q-166 0 -265.5 102t-99.5 268v824q0 167 99.5 268.5t265.5 101.5q167 0 266 -101.5t99 -268.5v-824q0 -166 -99 -268t-266 -102zM499 198q63 0 99 38.5t36 101.5v824q0 63 -36 101.5t-99 38.5t-99 -38.5t-36 -101.5v-824q0 -63 36 -101.5t99 -38.5zM266 1795h467
v-158h-467v158z" />
    <glyph glyph-name="omacron" unicode="&#x14d;" horiz-adv-x="884" 
d="M442 -25q-105 0 -183 45.5t-121.5 127.5t-43.5 191v418q0 108 43.5 190.5t121.5 128t183 45.5q158 0 252.5 -100t94.5 -264v-418q0 -163 -94.5 -263.5t-252.5 -100.5zM442 190q62 0 97 37t35 97v448q0 60 -35 97t-97 37t-97.5 -37t-35.5 -97v-448q0 -60 35.5 -97
t97.5 -37zM209 1390h467v-158h-467v158z" />
    <glyph glyph-name="Obreve" unicode="&#x14e;" horiz-adv-x="998" 
d="M499 -32q-166 0 -265.5 102t-99.5 268v824q0 167 99.5 268.5t265.5 101.5q167 0 266 -101.5t99 -268.5v-824q0 -166 -99 -268t-266 -102zM499 198q63 0 99 38.5t36 101.5v824q0 63 -36 101.5t-99 38.5t-99 -38.5t-36 -101.5v-824q0 -63 36 -101.5t99 -38.5zM499 1708
q-108 0 -176.5 64t-68.5 169v24h149v-24q0 -46 27 -73t69 -27t68.5 27t26.5 73v24h148v-24q0 -105 -67 -169t-176 -64z" />
    <glyph glyph-name="obreve" unicode="&#x14f;" horiz-adv-x="884" 
d="M442 -25q-105 0 -183 45.5t-121.5 127.5t-43.5 191v418q0 108 43.5 190.5t121.5 128t183 45.5q158 0 252.5 -100t94.5 -264v-418q0 -163 -94.5 -263.5t-252.5 -100.5zM442 190q62 0 97 37t35 97v448q0 60 -35 97t-97 37t-97.5 -37t-35.5 -97v-448q0 -60 35.5 -97
t97.5 -37zM442 1303q-108 0 -176.5 64t-68.5 169v24h149v-24q0 -46 27 -73t69 -27t68.5 27t26.5 73v24h148v-24q0 -105 -67 -169t-176 -64z" />
    <glyph glyph-name="Ohungarumlaut" unicode="&#x150;" horiz-adv-x="998" 
d="M499 -32q-166 0 -265.5 102t-99.5 268v824q0 167 99.5 268.5t265.5 101.5q167 0 266 -101.5t99 -268.5v-824q0 -166 -99 -268t-266 -102zM499 198q63 0 99 38.5t36 101.5v824q0 63 -36 101.5t-99 38.5t-99 -38.5t-36 -101.5v-824q0 -63 36 -101.5t99 -38.5zM237 1621
l122 344h231l-189 -344h-164zM579 1621l123 344h231l-190 -344h-164z" />
    <glyph glyph-name="ohungarumlaut" unicode="&#x151;" horiz-adv-x="884" 
d="M442 -25q-105 0 -183 45.5t-121.5 127.5t-43.5 191v418q0 108 43.5 190.5t121.5 128t183 45.5q158 0 252.5 -100t94.5 -264v-418q0 -163 -94.5 -263.5t-252.5 -100.5zM442 190q62 0 97 37t35 97v448q0 60 -35 97t-97 37t-97.5 -37t-35.5 -97v-448q0 -60 35.5 -97
t97.5 -37zM180 1216l122 344h231l-189 -344h-164zM522 1216l123 344h231l-190 -344h-164z" />
    <glyph glyph-name="OE" unicode="&#x152;" horiz-adv-x="1472" 
d="M499 -32q-166 0 -265.5 102t-99.5 268v824q0 167 99.5 268.5t265.5 101.5q86 0 155 -28t117 -79v75h615v-230h-385v-375h331v-230h-331v-435h385v-230h-615v76q-48 -51 -117 -79.5t-155 -28.5zM499 198q63 0 99 38.5t36 101.5v824q0 63 -36 101.5t-99 38.5t-99 -38.5
t-36 -101.5v-824q0 -63 36 -101.5t99 -38.5z" />
    <glyph glyph-name="oe" unicode="&#x153;" horiz-adv-x="1358" 
d="M442 -25q-105 0 -183 45.5t-121.5 127.5t-43.5 191v418q0 108 43.5 190.5t121.5 128t183 45.5q93 0 166 -37t119 -104h-87q44 67 116.5 104t165.5 37q158 0 252.5 -100t94.5 -264v-259h-480v-174q0 -60 35.5 -97t97.5 -37t97 37t35 97v35h215v-20q0 -163 -94.5 -263.5
t-252.5 -100.5q-93 0 -165.5 36.5t-116.5 104.5h87q-46 -68 -119 -104.5t-166 -36.5zM442 190q62 0 97 37t35 97v448q0 60 -35 97t-97 37t-97.5 -37t-35.5 -97v-448q0 -60 35.5 -97t97.5 -37zM789 698h265v74q0 60 -35 97t-97 37t-97.5 -37t-35.5 -97v-74z" />
    <glyph glyph-name="Racute" unicode="&#x154;" horiz-adv-x="1013" 
d="M156 0v1500h370q163 0 259 -98.5t96 -261.5v-227q0 -106 -42 -186t-120 -127l-16 73q85 -31 131.5 -94t46.5 -151v-428h-230v428q0 56 -33 90.5t-92 34.5h-140v-553h-230zM386 783h140q59 0 92 35.5t33 94.5v227q0 59 -33 94.5t-92 35.5h-140v-487zM424 1621l122 344h231
l-189 -344h-164z" />
    <glyph glyph-name="racute" unicode="&#x155;" horiz-adv-x="591" 
d="M126 0v1095h215v-172l-39 46q35 70 96 105t141 35h49v-215h-116q-61 0 -96 -32.5t-35 -92.5v-769h-215zM280 1216l122 344h231l-189 -344h-164z" />
    <glyph glyph-name="uni0156" unicode="&#x156;" horiz-adv-x="1013" 
d="M156 0v1500h370q163 0 259 -98.5t96 -261.5v-227q0 -106 -42 -186t-120 -127l-16 73q85 -31 131.5 -94t46.5 -151v-428h-230v428q0 56 -33 90.5t-92 34.5h-140v-553h-230zM386 783h140q59 0 92 35.5t33 94.5v227q0 59 -33 94.5t-92 35.5h-140v-487zM348 -440l56 332h230
l-145 -332h-141z" />
    <glyph glyph-name="uni0157" unicode="&#x157;" horiz-adv-x="591" 
d="M126 0v1095h215v-172l-39 46q35 70 96 105t141 35h49v-215h-116q-61 0 -96 -32.5t-35 -92.5v-769h-215zM74 -440l56 332h230l-145 -332h-141z" />
    <glyph glyph-name="Rcaron" unicode="&#x158;" horiz-adv-x="1013" 
d="M156 0v1500h370q163 0 259 -98.5t96 -261.5v-227q0 -106 -42 -186t-120 -127l-16 73q85 -31 131.5 -94t46.5 -151v-428h-230v428q0 56 -33 90.5t-92 34.5h-140v-553h-230zM386 783h140q59 0 92 35.5t33 94.5v227q0 59 -33 94.5t-92 35.5h-140v-487zM416 1666l-231 299
h202l120 -167l119 167h202l-232 -299h-180z" />
    <glyph glyph-name="rcaron" unicode="&#x159;" horiz-adv-x="591" 
d="M126 0v1095h215v-172l-39 46q35 70 96 105t141 35h49v-215h-116q-61 0 -96 -32.5t-35 -92.5v-769h-215zM272 1261l-231 299h202l120 -167l119 167h202l-232 -299h-180z" />
    <glyph glyph-name="Sacute" unicode="&#x15a;" horiz-adv-x="935" 
d="M470 -32q-166 0 -265.5 102t-99.5 268v70h230v-70q0 -63 36 -101.5t99 -38.5t99 38.5t36 101.5v140q0 36 -3 56.5t-14.5 33.5t-39 23.5t-78.5 26.5q-137 43 -212 72t-107.5 63t-39 88.5t-6.5 146.5v174q0 167 99.5 268.5t265.5 101.5q167 0 266 -101.5t99 -268.5v-70
h-230v70q0 63 -36 101.5t-99 38.5t-99 -38.5t-36 -101.5v-174q0 -36 2.5 -56.5t14 -33t39.5 -23.5t79 -27q137 -42 212 -71.5t107.5 -63.5t39 -88t6.5 -147v-140q0 -166 -99 -268t-266 -102zM385 1621l122 344h231l-189 -344h-164z" />
    <glyph glyph-name="sacute" unicode="&#x15b;" horiz-adv-x="842" 
d="M427 -25q-162 0 -256 97.5t-94 257.5v25h215v-40q0 -57 35 -91t96 -34t95 35.5t34 101.5q0 38 -13.5 61t-41.5 37t-75 24q-104 23 -182 50t-120.5 85.5t-42.5 175.5q0 174 93.5 267.5t247.5 93.5q162 0 255.5 -97.5t93.5 -257.5v-25h-215v40q0 56 -34.5 90.5t-96.5 34.5
q-60 0 -94.5 -35.5t-34.5 -100.5q0 -38 13 -61t42 -37t75 -24q101 -22 178.5 -48.5t122 -85.5t44.5 -178q0 -173 -92.5 -267t-247.5 -94zM339 1216l122 344h231l-189 -344h-164z" />
    <glyph glyph-name="Scircumflex" unicode="&#x15c;" horiz-adv-x="935" 
d="M470 -32q-166 0 -265.5 102t-99.5 268v70h230v-70q0 -63 36 -101.5t99 -38.5t99 38.5t36 101.5v140q0 36 -3 56.5t-14.5 33.5t-39 23.5t-78.5 26.5q-137 43 -212 72t-107.5 63t-39 88.5t-6.5 146.5v174q0 167 99.5 268.5t265.5 101.5q167 0 266 -101.5t99 -268.5v-70
h-230v70q0 63 -36 101.5t-99 38.5t-99 -38.5t-36 -101.5v-174q0 -36 2.5 -56.5t14 -33t39.5 -23.5t79 -27q137 -42 212 -71.5t107.5 -63.5t39 -88t6.5 -147v-140q0 -166 -99 -268t-266 -102zM146 1666l231 299h180l232 -299h-202l-119 167l-120 -167h-202z" />
    <glyph glyph-name="scircumflex" unicode="&#x15d;" horiz-adv-x="842" 
d="M427 -25q-162 0 -256 97.5t-94 257.5v25h215v-40q0 -57 35 -91t96 -34t95 35.5t34 101.5q0 38 -13.5 61t-41.5 37t-75 24q-104 23 -182 50t-120.5 85.5t-42.5 175.5q0 174 93.5 267.5t247.5 93.5q162 0 255.5 -97.5t93.5 -257.5v-25h-215v40q0 56 -34.5 90.5t-96.5 34.5
q-60 0 -94.5 -35.5t-34.5 -100.5q0 -38 13 -61t42 -37t75 -24q101 -22 178.5 -48.5t122 -85.5t44.5 -178q0 -173 -92.5 -267t-247.5 -94zM100 1261l231 299h180l232 -299h-202l-119 167l-120 -167h-202z" />
    <glyph glyph-name="Scedilla" unicode="&#x15e;" horiz-adv-x="935" 
d="M470 -32q-166 0 -265.5 102t-99.5 268v70h230v-70q0 -63 36 -101.5t99 -38.5t99 38.5t36 101.5v140q0 36 -3 56.5t-14.5 33.5t-39 23.5t-78.5 26.5q-137 43 -212 72t-107.5 63t-39 88.5t-6.5 146.5v174q0 167 99.5 268.5t265.5 101.5q167 0 266 -101.5t99 -268.5v-70
h-230v70q0 63 -36 101.5t-99 38.5t-99 -38.5t-36 -101.5v-174q0 -36 2.5 -56.5t14 -33t39.5 -23.5t79 -27q137 -42 212 -71.5t107.5 -63.5t39 -88t6.5 -147v-140q0 -166 -99 -268t-266 -102zM399 -507v158h163q29 0 46.5 15t17.5 41t-17.5 42.5t-46.5 16.5h-91l-71 38v238
h159v-195l-72 33q91 33 157.5 13t103.5 -73.5t37 -120.5q0 -88 -61.5 -147t-161.5 -59h-163z" />
    <glyph glyph-name="scedilla" unicode="&#x15f;" horiz-adv-x="842" 
d="M427 -25q-162 0 -256 97.5t-94 257.5v25h215v-40q0 -57 35 -91t96 -34t95 35.5t34 101.5q0 38 -13.5 61t-41.5 37t-75 24q-104 23 -182 50t-120.5 85.5t-42.5 175.5q0 174 93.5 267.5t247.5 93.5q162 0 255.5 -97.5t93.5 -257.5v-25h-215v40q0 56 -34.5 90.5t-96.5 34.5
q-60 0 -94.5 -35.5t-34.5 -100.5q0 -38 13 -61t42 -37t75 -24q101 -22 178.5 -48.5t122 -85.5t44.5 -178q0 -173 -92.5 -267t-247.5 -94zM353 -507v158h163q29 0 46.5 15t17.5 41t-17.5 42.5t-46.5 16.5h-91l-71 38v238h159v-195l-72 33q91 33 157.5 13t103.5 -73.5
t37 -120.5q0 -88 -61.5 -147t-161.5 -59h-163z" />
    <glyph glyph-name="Scaron" unicode="&#x160;" horiz-adv-x="935" 
d="M470 -32q-166 0 -265.5 102t-99.5 268v70h230v-70q0 -63 36 -101.5t99 -38.5t99 38.5t36 101.5v140q0 36 -3 56.5t-14.5 33.5t-39 23.5t-78.5 26.5q-137 43 -212 72t-107.5 63t-39 88.5t-6.5 146.5v174q0 167 99.5 268.5t265.5 101.5q167 0 266 -101.5t99 -268.5v-70
h-230v70q0 63 -36 101.5t-99 38.5t-99 -38.5t-36 -101.5v-174q0 -36 2.5 -56.5t14 -33t39.5 -23.5t79 -27q137 -42 212 -71.5t107.5 -63.5t39 -88t6.5 -147v-140q0 -166 -99 -268t-266 -102zM377 1666l-231 299h202l120 -167l119 167h202l-232 -299h-180z" />
    <glyph glyph-name="scaron" unicode="&#x161;" horiz-adv-x="842" 
d="M427 -25q-162 0 -256 97.5t-94 257.5v25h215v-40q0 -57 35 -91t96 -34t95 35.5t34 101.5q0 38 -13.5 61t-41.5 37t-75 24q-104 23 -182 50t-120.5 85.5t-42.5 175.5q0 174 93.5 267.5t247.5 93.5q162 0 255.5 -97.5t93.5 -257.5v-25h-215v40q0 56 -34.5 90.5t-96.5 34.5
q-60 0 -94.5 -35.5t-34.5 -100.5q0 -38 13 -61t42 -37t75 -24q101 -22 178.5 -48.5t122 -85.5t44.5 -178q0 -173 -92.5 -267t-247.5 -94zM331 1261l-231 299h202l120 -167l119 167h202l-232 -299h-180z" />
    <glyph glyph-name="uni0162" unicode="&#x162;" horiz-adv-x="747" 
d="M259 0v1270h-233v230h695v-230h-232v-1270h-230zM295 -507v158h163q29 0 46.5 15t17.5 41t-17.5 42.5t-46.5 16.5h-91l-71 38v238h159v-195l-72 33q91 33 157.5 13t103.5 -73.5t37 -120.5q0 -88 -61.5 -147t-161.5 -59h-163z" />
    <glyph glyph-name="uni0163" unicode="&#x163;" horiz-adv-x="678" 
d="M535 -13q-158 0 -252.5 94t-94.5 260v556h-185v199h185v264h215v-264h230v-199h-230v-556q0 -63 35 -101t97 -38h98v-215h-98zM416 -507v158h163q29 0 46.5 15t17.5 41t-17.5 42.5t-46.5 16.5h-91l-71 38v238h159v-195l-72 33q91 33 157.5 13t103.5 -73.5t37 -120.5
q0 -88 -61.5 -147t-161.5 -59h-163z" />
    <glyph glyph-name="Tcaron" unicode="&#x164;" horiz-adv-x="747" 
d="M259 0v1270h-233v230h695v-230h-232v-1270h-230zM284 1666l-231 299h202l120 -167l119 167h202l-232 -299h-180z" />
    <glyph glyph-name="tcaron" unicode="&#x165;" horiz-adv-x="1160" 
d="M535 -13q-158 0 -252.5 94t-94.5 260v556h-185v199h185v264h215v-264h230v-199h-230v-556q0 -63 35 -101t97 -38h98v-215h-98zM734 1020l80 480h215l-80 -480h-215z" />
    <glyph glyph-name="Tbar" unicode="&#x166;" horiz-adv-x="747" 
d="M130 654v195h490v-195h-490zM259 0v1270h-233v230h695v-230h-232v-1270h-230z" />
    <glyph glyph-name="tbar" unicode="&#x167;" horiz-adv-x="678" 
d="M31 449v199h600v-199h-600zM535 -13q-158 0 -252.5 94t-94.5 260v556h-185v199h185v264h215v-264h230v-199h-230v-556q0 -63 35 -101t97 -38h98v-215h-98z" />
    <glyph glyph-name="Utilde" unicode="&#x168;" horiz-adv-x="1022" 
d="M876 1500v-1162q0 -166 -99 -268t-266 -102q-166 0 -265.5 102t-99.5 268v1162h230v-1162q0 -63 36 -101.5t99 -38.5t99 38.5t36 101.5v1162h230zM655 1656q-50 0 -87.5 19t-60.5 35q-24 17 -42.5 29.5t-36.5 12.5q-16 0 -23.5 -10t-7.5 -26v-50h-174v66q0 75 37.5 117.5
t107.5 42.5q45 0 82 -16t62 -35q24 -17 43.5 -31t39.5 -14q17 0 24 11t7 26v52h173v-69q0 -75 -38 -117.5t-106 -42.5z" />
    <glyph glyph-name="utilde" unicode="&#x169;" horiz-adv-x="931" 
d="M392 -25q-72 0 -135 32t-102.5 108.5t-39.5 208.5v771h215v-771q0 -61 34.5 -97.5t95.5 -36.5t95.5 36.5t34.5 97.5v771h215v-1095h-215v160l38 -49q-33 -64 -92.5 -100t-143.5 -36zM607 1251q-50 0 -87.5 19t-60.5 35q-24 17 -42.5 29.5t-36.5 12.5q-16 0 -23.5 -10
t-7.5 -26v-50h-174v66q0 75 37.5 117.5t107.5 42.5q45 0 82 -16t62 -35q24 -17 43.5 -31t39.5 -14q17 0 24 11t7 26v52h173v-69q0 -75 -38 -117.5t-106 -42.5z" />
    <glyph glyph-name="Umacron" unicode="&#x16a;" horiz-adv-x="1022" 
d="M876 1500v-1162q0 -166 -99 -268t-266 -102q-166 0 -265.5 102t-99.5 268v1162h230v-1162q0 -63 36 -101.5t99 -38.5t99 38.5t36 101.5v1162h230zM279 1795h467v-158h-467v158z" />
    <glyph glyph-name="umacron" unicode="&#x16b;" horiz-adv-x="931" 
d="M392 -25q-72 0 -135 32t-102.5 108.5t-39.5 208.5v771h215v-771q0 -61 34.5 -97.5t95.5 -36.5t95.5 36.5t34.5 97.5v771h215v-1095h-215v160l38 -49q-33 -64 -92.5 -100t-143.5 -36zM231 1390h467v-158h-467v158z" />
    <glyph glyph-name="Ubreve" unicode="&#x16c;" horiz-adv-x="1022" 
d="M876 1500v-1162q0 -166 -99 -268t-266 -102q-166 0 -265.5 102t-99.5 268v1162h230v-1162q0 -63 36 -101.5t99 -38.5t99 38.5t36 101.5v1162h230zM512 1708q-108 0 -176.5 64t-68.5 169v24h149v-24q0 -46 27 -73t69 -27t68.5 27t26.5 73v24h148v-24q0 -105 -67 -169
t-176 -64z" />
    <glyph glyph-name="ubreve" unicode="&#x16d;" horiz-adv-x="931" 
d="M392 -25q-72 0 -135 32t-102.5 108.5t-39.5 208.5v771h215v-771q0 -61 34.5 -97.5t95.5 -36.5t95.5 36.5t34.5 97.5v771h215v-1095h-215v160l38 -49q-33 -64 -92.5 -100t-143.5 -36zM464 1303q-108 0 -176.5 64t-68.5 169v24h149v-24q0 -46 27 -73t69 -27t68.5 27
t26.5 73v24h148v-24q0 -105 -67 -169t-176 -64z" />
    <glyph glyph-name="Uring" unicode="&#x16e;" horiz-adv-x="1022" 
d="M876 1500v-1162q0 -166 -99 -268t-266 -102q-166 0 -265.5 102t-99.5 268v1162h230v-1162q0 -63 36 -101.5t99 -38.5t99 38.5t36 101.5v1162h230zM514 1545q-85 0 -147 57t-62 151q0 93 62 150.5t145 57.5q84 0 146.5 -57t62.5 -151t-62 -151t-145 -57zM514 1678
q29 0 51.5 20.5t22.5 54.5t-23 55t-52 21q-30 0 -53 -21t-23 -55t23 -54.5t54 -20.5z" />
    <glyph glyph-name="uring" unicode="&#x16f;" horiz-adv-x="931" 
d="M392 -25q-72 0 -135 32t-102.5 108.5t-39.5 208.5v771h215v-771q0 -61 34.5 -97.5t95.5 -36.5t95.5 36.5t34.5 97.5v771h215v-1095h-215v160l38 -49q-33 -64 -92.5 -100t-143.5 -36zM466 1140q-85 0 -147 57t-62 151q0 93 62 150.5t145 57.5q84 0 146.5 -57t62.5 -151
t-62 -151t-145 -57zM466 1273q29 0 51.5 20.5t22.5 54.5t-23 55t-52 21q-30 0 -53 -21t-23 -55t23 -54.5t54 -20.5z" />
    <glyph glyph-name="Uhungarumlaut" unicode="&#x170;" horiz-adv-x="1022" 
d="M876 1500v-1162q0 -166 -99 -268t-266 -102q-166 0 -265.5 102t-99.5 268v1162h230v-1162q0 -63 36 -101.5t99 -38.5t99 38.5t36 101.5v1162h230zM249 1621l122 344h231l-189 -344h-164zM591 1621l123 344h231l-190 -344h-164z" />
    <glyph glyph-name="uhungarumlaut" unicode="&#x171;" horiz-adv-x="931" 
d="M392 -25q-72 0 -135 32t-102.5 108.5t-39.5 208.5v771h215v-771q0 -61 34.5 -97.5t95.5 -36.5t95.5 36.5t34.5 97.5v771h215v-1095h-215v160l38 -49q-33 -64 -92.5 -100t-143.5 -36zM201 1216l122 344h231l-189 -344h-164zM543 1216l123 344h231l-190 -344h-164z" />
    <glyph glyph-name="Uogonek" unicode="&#x172;" horiz-adv-x="1022" 
d="M876 1500v-1162q0 -166 -99 -268t-266 -102q-166 0 -265.5 102t-99.5 268v1162h230v-1162q0 -63 36 -101.5t99 -38.5t99 38.5t36 101.5v1162h230zM596 -470q-132 0 -205.5 67t-73.5 171q0 93 59 169t170 142h45v-79q-55 -45 -85 -92t-30 -97q0 -56 35.5 -89t99.5 -33h36
v-159h-51z" />
    <glyph glyph-name="uogonek" unicode="&#x173;" horiz-adv-x="931" 
d="M392 -25q-72 0 -135 32t-102.5 108.5t-39.5 208.5v771h215v-771q0 -61 34.5 -97.5t95.5 -36.5t95.5 36.5t34.5 97.5v771h215v-1095h-215v160l38 -49q-33 -64 -92.5 -100t-143.5 -36zM743 -470q-132 0 -205.5 67t-73.5 171q0 93 59 169t170 142h45v-79q-55 -45 -85 -92
t-30 -97q0 -56 35.5 -89t99.5 -33h36v-159h-51z" />
    <glyph glyph-name="Wcircumflex" unicode="&#x174;" horiz-adv-x="1341" 
d="M256 0l-193 1500h236l124 -1097h-28l181 1097h190l180 -1097h-27l124 1097h235l-193 -1500h-248l-184 985h38l-187 -985h-248zM350 1666l231 299h180l232 -299h-202l-119 167l-120 -167h-202z" />
    <glyph glyph-name="wcircumflex" unicode="&#x175;" horiz-adv-x="1169" 
d="M220 0l-187 1095h224l107 -838l-33 1l158 837h191l158 -837l-32 -1l106 838h224l-187 -1095h-225l-159 768h43l-162 -768h-226zM264 1261l231 299h180l232 -299h-202l-119 167l-120 -167h-202z" />
    <glyph glyph-name="Ycircumflex" unicode="&#x176;" horiz-adv-x="919" 
d="M346 0v710l-331 790h235l246 -634h-69l242 634h235l-328 -790v-710h-230zM138 1666l231 299h180l232 -299h-202l-119 167l-120 -167h-202z" />
    <glyph glyph-name="ycircumflex" unicode="&#x177;" horiz-adv-x="845" 
d="M216 -360l97 353l-307 1102h234l210 -832h-48l203 832h235l-404 -1455h-220zM102 1261l231 299h180l232 -299h-202l-119 167l-120 -167h-202z" />
    <glyph glyph-name="Ydieresis" unicode="&#x178;" horiz-adv-x="919" 
d="M346 0v710l-331 790h235l246 -634h-69l242 634h235l-328 -790v-710h-230zM209 1713v252h190v-252h-190zM528 1713v252h189v-252h-189z" />
    <glyph glyph-name="Zacute" unicode="&#x179;" horiz-adv-x="863" 
d="M66 0l-1 170l528 1196l61 -96h-588v230h732v-169l-528 -1196l-61 95h589v-230h-732zM349 1621l122 344h231l-189 -344h-164z" />
    <glyph glyph-name="zacute" unicode="&#x17a;" horiz-adv-x="788" 
d="M51 0v169l486 800l50 -89h-532v215h683v-168l-471 -801l-52 89h519v-215h-683zM313 1216l122 344h231l-189 -344h-164z" />
    <glyph glyph-name="Zdotaccent" unicode="&#x17b;" horiz-adv-x="863" 
d="M66 0l-1 170l528 1196l61 -96h-588v230h732v-169l-528 -1196l-61 95h589v-230h-732zM337 1653v252h190v-252h-190z" />
    <glyph glyph-name="zdotaccent" unicode="&#x17c;" horiz-adv-x="788" 
d="M51 0v169l486 800l50 -89h-532v215h683v-168l-471 -801l-52 89h519v-215h-683zM301 1248v252h190v-252h-190z" />
    <glyph glyph-name="Zcaron" unicode="&#x17d;" horiz-adv-x="863" 
d="M66 0l-1 170l528 1196l61 -96h-588v230h732v-169l-528 -1196l-61 95h589v-230h-732zM341 1666l-231 299h202l120 -167l119 167h202l-232 -299h-180z" />
    <glyph glyph-name="zcaron" unicode="&#x17e;" horiz-adv-x="788" 
d="M51 0v169l486 800l50 -89h-532v215h683v-168l-471 -801l-52 89h519v-215h-683zM305 1261l-231 299h202l120 -167l119 167h202l-232 -299h-180z" />
    <glyph glyph-name="longs" unicode="&#x17f;" horiz-adv-x="590" 
d="M204 0v896h-200v199h200v71q0 103 43 183t121 125.5t184 45.5h99v-215h-99q-62 0 -97.5 -38.5t-35.5 -100.5v-1166h-215z" />
    <glyph glyph-name="florin" unicode="&#x192;" horiz-adv-x="1036" 
d="M67 -360v215h121q58 0 99.5 38.5t47.5 101.5l74 701h-201v199h222l28 271q10 100 58 180t126 127t178 47h123v-215h-123q-59 0 -100 -38.5t-47 -100.5l-28 -271h298v-199h-319l-74 -701q-11 -103 -59.5 -183t-126 -126t-176.5 -46h-121z" />
    <glyph glyph-name="uni0218" unicode="&#x218;" horiz-adv-x="935" 
d="M470 -32q-166 0 -265.5 102t-99.5 268v70h230v-70q0 -63 36 -101.5t99 -38.5t99 38.5t36 101.5v140q0 36 -3 56.5t-14.5 33.5t-39 23.5t-78.5 26.5q-137 43 -212 72t-107.5 63t-39 88.5t-6.5 146.5v174q0 167 99.5 268.5t265.5 101.5q167 0 266 -101.5t99 -268.5v-70
h-230v70q0 63 -36 101.5t-99 38.5t-99 -38.5t-36 -101.5v-174q0 -36 2.5 -56.5t14 -33t39.5 -23.5t79 -27q137 -42 212 -71.5t107.5 -63.5t39 -88t6.5 -147v-140q0 -166 -99 -268t-266 -102zM310 -440l56 332h230l-145 -332h-141z" />
    <glyph glyph-name="uni0219" unicode="&#x219;" horiz-adv-x="842" 
d="M427 -25q-162 0 -256 97.5t-94 257.5v25h215v-40q0 -57 35 -91t96 -34t95 35.5t34 101.5q0 38 -13.5 61t-41.5 37t-75 24q-104 23 -182 50t-120.5 85.5t-42.5 175.5q0 174 93.5 267.5t247.5 93.5q162 0 255.5 -97.5t93.5 -257.5v-25h-215v40q0 56 -34.5 90.5t-96.5 34.5
q-60 0 -94.5 -35.5t-34.5 -100.5q0 -38 13 -61t42 -37t75 -24q101 -22 178.5 -48.5t122 -85.5t44.5 -178q0 -173 -92.5 -267t-247.5 -94zM263 -440l56 332h230l-145 -332h-141z" />
    <glyph glyph-name="uni021A" unicode="&#x21a;" horiz-adv-x="747" 
d="M259 0v1270h-233v230h695v-230h-232v-1270h-230zM205 -440l56 332h230l-145 -332h-141z" />
    <glyph glyph-name="uni021B" unicode="&#x21b;" horiz-adv-x="678" 
d="M535 -13q-158 0 -252.5 94t-94.5 260v556h-185v199h185v264h215v-264h230v-199h-230v-556q0 -63 35 -101t97 -38h98v-215h-98zM326 -440l56 332h230l-145 -332h-141z" />
    <glyph glyph-name="uni0237" unicode="&#x237;" 
d="M-74 -366v215h68q62 0 97 38.5t35 101.5v1106h215v-1091q0 -166 -94 -268t-253 -102h-68z" />
    <glyph glyph-name="circumflex" unicode="&#x2c6;" horiz-adv-x="686" 
d="M22 1261l231 299h180l232 -299h-202l-119 167l-120 -167h-202z" />
    <glyph glyph-name="caron" unicode="&#x2c7;" horiz-adv-x="686" 
d="M253 1261l-231 299h202l120 -167l119 167h202l-232 -299h-180z" />
    <glyph glyph-name="uni02C9" unicode="&#x2c9;" horiz-adv-x="719" 
d="M126 1500h467v-158h-467v158z" />
    <glyph glyph-name="breve" unicode="&#x2d8;" horiz-adv-x="660" 
d="M330 1303q-108 0 -176.5 64t-68.5 169v24h149v-24q0 -46 27 -73t69 -27t68.5 27t26.5 73v24h148v-24q0 -105 -67 -169t-176 -64z" />
    <glyph glyph-name="dotaccent" unicode="&#x2d9;" horiz-adv-x="442" 
d="M126 1248v252h190v-252h-190z" />
    <glyph glyph-name="ring" unicode="&#x2da;" horiz-adv-x="589" 
d="M296 1144q-85 0 -147 57t-62 151q0 93 62 150.5t145 57.5q84 0 146.5 -57t62.5 -151t-62 -151t-145 -57zM296 1277q29 0 51.5 20.5t22.5 54.5t-23 55t-52 21q-30 0 -53 -21t-23 -55t23 -54.5t54 -20.5z" />
    <glyph glyph-name="ogonek" unicode="&#x2db;" horiz-adv-x="459" 
d="M348 -470q-132 0 -205.5 67t-73.5 171q0 93 59 169t170 142h45v-79q-55 -45 -85 -92t-30 -97q0 -56 35.5 -89t99.5 -33h36v-159h-51z" />
    <glyph glyph-name="tilde" unicode="&#x2dc;" horiz-adv-x="794" 
d="M542 1324q-50 0 -87.5 19t-60.5 35q-24 17 -42.5 29.5t-36.5 12.5q-16 0 -23.5 -10t-7.5 -26v-50h-174v66q0 75 37.5 117.5t107.5 42.5q45 0 82 -16t62 -35q24 -17 43.5 -31t39.5 -14q17 0 24 11t7 26v52h173v-69q0 -75 -38 -117.5t-106 -42.5z" />
    <glyph glyph-name="hungarumlaut" unicode="&#x2dd;" horiz-adv-x="795" 
d="M65 1216l122 344h231l-189 -344h-164zM407 1216l123 344h231l-190 -344h-164z" />
    <glyph glyph-name="uni0326" unicode="&#x326;" horiz-adv-x="0" 
d="M98 -440l56 332h230l-145 -332h-141z" />
    <glyph glyph-name="uni0394" unicode="&#x394;" horiz-adv-x="916" 
d="M38 0l298 1500h248l294 -1500h-840zM311 230h295l-146 841z" />
    <glyph glyph-name="uni03A9" unicode="&#x3a9;" horiz-adv-x="1183" 
d="M62 0v230h238l-85 -65q-21 48 -34.5 97.5t-13.5 107.5v732q0 129 53 226t148.5 150.5t223.5 53.5q127 0 223 -53.5t149 -150.5t53 -226v-732q0 -58 -13.5 -107.5t-34.5 -97.5l-86 65h239v-230h-470v230q63 0 99 38.5t36 101.5v732q0 90 -54 145t-141 55q-88 0 -141.5 -55
t-53.5 -145v-732q0 -63 36 -101.5t99 -38.5v-230h-470z" />
    <glyph glyph-name="uni03BC" unicode="&#x3bc;" horiz-adv-x="1200" 
 />
    <glyph glyph-name="pi" unicode="&#x3c0;" horiz-adv-x="1063" 
d="M950 -13q-158 0 -252.5 94t-94.5 260v556h-200v-897h-215v897h-185v199h1015v-199h-200v-556q0 -63 35 -101t97 -38h68v-215h-68z" />
    <glyph glyph-name="Wgrave" unicode="&#x1e80;" horiz-adv-x="1341" 
d="M256 0l-193 1500h236l124 -1097h-28l181 1097h190l180 -1097h-27l124 1097h235l-193 -1500h-248l-184 985h38l-187 -985h-248zM594 1621l-189 344h231l122 -344h-164z" />
    <glyph glyph-name="wgrave" unicode="&#x1e81;" horiz-adv-x="1169" 
d="M220 0l-187 1095h224l107 -838l-33 1l158 837h191l158 -837l-32 -1l106 838h224l-187 -1095h-225l-159 768h43l-162 -768h-226zM508 1216l-189 344h231l122 -344h-164z" />
    <glyph glyph-name="Wacute" unicode="&#x1e82;" horiz-adv-x="1341" 
d="M256 0l-193 1500h236l124 -1097h-28l181 1097h190l180 -1097h-27l124 1097h235l-193 -1500h-248l-184 985h38l-187 -985h-248zM589 1621l122 344h231l-189 -344h-164z" />
    <glyph glyph-name="wacute" unicode="&#x1e83;" horiz-adv-x="1169" 
d="M220 0l-187 1095h224l107 -838l-33 1l158 837h191l158 -837l-32 -1l106 838h224l-187 -1095h-225l-159 768h43l-162 -768h-226zM503 1216l122 344h231l-189 -344h-164z" />
    <glyph glyph-name="Wdieresis" unicode="&#x1e84;" horiz-adv-x="1341" 
d="M256 0l-193 1500h236l124 -1097h-28l181 1097h190l180 -1097h-27l124 1097h235l-193 -1500h-248l-184 985h38l-187 -985h-248zM420 1713v252h190v-252h-190zM739 1713v252h189v-252h-189z" />
    <glyph glyph-name="wdieresis" unicode="&#x1e85;" horiz-adv-x="1169" 
d="M220 0l-187 1095h224l107 -838l-33 1l158 837h191l158 -837l-32 -1l106 838h224l-187 -1095h-225l-159 768h43l-162 -768h-226zM334 1308v252h190v-252h-190zM653 1308v252h189v-252h-189z" />
    <glyph glyph-name="endash" unicode="&#x2013;" horiz-adv-x="1042" 
d="M126 434v230h790v-230h-790z" />
    <glyph glyph-name="emdash" unicode="&#x2014;" horiz-adv-x="1242" 
d="M126 434v230h990v-230h-990z" />
    <glyph glyph-name="quoteleft" unicode="&#x2018;" horiz-adv-x="500" 
d="M139 1020v283l59 197h142l-59 -197h88v-283h-230z" />
    <glyph glyph-name="quoteright" unicode="&#x2019;" horiz-adv-x="500" 
d="M160 1020l59 197h-88v283h230v-283l-59 -197h-142z" />
    <glyph glyph-name="quotesinglbase" unicode="&#x201a;" horiz-adv-x="500" 
d="M160 -197l59 197h-88v283h230v-283l-59 -197h-142z" />
    <glyph glyph-name="quotedblleft" unicode="&#x201c;" horiz-adv-x="850" 
d="M489 1020v283l59 197h142l-59 -197h88v-283h-230zM139 1020v283l59 197h142l-59 -197h88v-283h-230z" />
    <glyph glyph-name="quotedblright" unicode="&#x201d;" horiz-adv-x="850" 
d="M160 1020l59 197h-88v283h230v-283l-59 -197h-142zM510 1020l59 197h-88v283h230v-283l-59 -197h-142z" />
    <glyph glyph-name="quotedblbase" unicode="&#x201e;" horiz-adv-x="850" 
d="M160 -197l59 197h-88v283h230v-283l-59 -197h-142zM510 -197l59 197h-88v283h230v-283l-59 -197h-142z" />
    <glyph glyph-name="dagger" unicode="&#x2020;" horiz-adv-x="870" 
d="M325 485v561h-242v205h242v249h220v-249h243v-205h-243v-561h-220z" />
    <glyph glyph-name="daggerdbl" unicode="&#x2021;" horiz-adv-x="963" 
d="M372 485v250h-243v205h243v106h-243v205h243v249h220v-249h242v-205h-242v-106h242v-205h-242v-250h-220z" />
    <glyph glyph-name="bullet" unicode="&#x2022;" horiz-adv-x="725" 
d="M363 314q-65 0 -118 32t-84.5 85t-31.5 117q0 63 32 116.5t84.5 85t117.5 31.5q63 0 116 -32t84 -85t31 -116q0 -64 -31 -117t-84 -85t-116 -32z" />
    <glyph glyph-name="ellipsis" unicode="&#x2026;" horiz-adv-x="1440" 
d="M175 0v263h230v-263h-230zM605 0v263h230v-263h-230zM1035 0v263h230v-263h-230z" />
    <glyph glyph-name="perthousand" unicode="&#x2030;" horiz-adv-x="2004" 
d="M275 0l662 1500h183l-662 -1500h-183zM332 809q-110 0 -178 68t-68 179v226q0 111 68 179.5t178 68.5t177.5 -68.5t67.5 -179.5v-226q0 -111 -67.5 -179t-177.5 -68zM332 983q32 0 51 20t19 53v226q0 33 -19.5 53.5t-50.5 20.5q-32 0 -52 -20.5t-20 -53.5v-226
q0 -33 20 -53t52 -20zM1062 -30q-110 0 -177.5 68t-67.5 179v226q0 111 67.5 179.5t177.5 68.5t177.5 -68.5t67.5 -179.5v-226q0 -111 -67.5 -179t-177.5 -68zM1062 144q32 0 51.5 20t19.5 53v226q0 33 -19.5 53.5t-50.5 20.5q-33 0 -52.5 -20.5t-19.5 -53.5v-226
q0 -33 19.5 -53t51.5 -20zM1673 -30q-110 0 -178 68t-68 179v226q0 111 68 179.5t178 68.5t177.5 -68.5t67.5 -179.5v-226q0 -111 -67.5 -179t-177.5 -68zM1673 144q32 0 51 20t19 53v226q0 33 -19.5 53.5t-50.5 20.5q-32 0 -52 -20.5t-20 -53.5v-226q0 -33 20 -53t52 -20z
" />
    <glyph glyph-name="guilsinglleft" unicode="&#x2039;" horiz-adv-x="626" 
d="M528 0l-494 433v135l494 432v-261l-268 -239l268 -238v-262z" />
    <glyph glyph-name="guilsinglright" unicode="&#x203a;" horiz-adv-x="626" 
d="M97 0v262l268 238l-268 239v261l494 -432v-135z" />
    <glyph glyph-name="fraction" unicode="&#x2044;" horiz-adv-x="476" 
d="M-185 0l662 1500h184l-662 -1500h-184z" />
    <glyph glyph-name="uni2070" unicode="&#x2070;" horiz-adv-x="645" 
d="M324 640q-101 0 -161.5 61.5t-60.5 160.5v496q0 99 60.5 160.5t161.5 61.5q99 0 159 -61.5t60 -160.5v-496q0 -99 -60 -160.5t-159 -61.5zM324 790q31 0 50 20.5t19 51.5v496q0 32 -19 52t-50 20q-33 0 -52.5 -20t-19.5 -52v-496q0 -31 19.5 -51.5t52.5 -20.5zM368 1430
h87l-177 -640h-86z" />
    <glyph glyph-name="uni2074" unicode="&#x2074;" horiz-adv-x="613" 
d="M328 660v160h-305v131l321 609h134v-588h70v-152h-70v-160h-150zM180 972h148v293z" />
    <glyph glyph-name="uni2075" unicode="&#x2075;" horiz-adv-x="625" 
d="M327 640q-100 0 -160.5 61.5t-60.5 160.5v45h150v-45q0 -31 19.5 -51.5t51.5 -20.5t51 20.5t19 51.5v170q0 32 -18.5 52t-52.5 20t-52 -19.5t-18 -51.5v-10h-150v537h410v-150h-260v-180q29 24 83 24q91 0 149.5 -61t58.5 -161v-170q0 -99 -60 -160.5t-160 -61.5z" />
    <glyph glyph-name="uni2076" unicode="&#x2076;" horiz-adv-x="635" 
d="M324 640q-101 0 -161.5 61.5t-60.5 160.5v496q0 99 60.5 160.5t161.5 61.5q99 0 159 -61.5t60 -160.5v-45h-150v45q0 32 -19 52t-50 20q-33 0 -52.5 -20t-19.5 -52v-128q30 24 83 24q91 0 149.5 -61t58.5 -161v-170q0 -99 -60 -160.5t-159 -61.5zM324 790q31 0 50 20.5
t19 51.5v170q0 32 -18.5 52t-51.5 20q-35 0 -53 -19.5t-18 -51.5v-171q0 -31 19.5 -51.5t52.5 -20.5z" />
    <glyph glyph-name="uni2077" unicode="&#x2077;" horiz-adv-x="486" 
d="M78 660l227 750h-286v150h434v-140l-219 -760h-156z" />
    <glyph glyph-name="uni2078" unicode="&#x2078;" horiz-adv-x="635" 
d="M319 640q-101 0 -161.5 61.5t-60.5 160.5v112q0 46 13.5 82.5t36.5 63.5q-50 56 -50 148v90q0 99 60.5 160.5t161.5 61.5q99 0 159 -61.5t60 -160.5v-90q0 -92 -50 -148q24 -27 37 -64.5t13 -81.5v-112q0 -99 -60 -160.5t-159 -61.5zM319 790q31 0 50 20.5t19 51.5v112
q0 32 -19 52t-50 20q-33 0 -52.5 -20t-19.5 -52v-112q0 -31 19.5 -51.5t52.5 -20.5zM318 1196q32 0 51 19.5t19 52.5v90q0 32 -19 52t-50 20q-33 0 -52.5 -20t-19.5 -52v-90q0 -34 19.5 -53t51.5 -19z" />
    <glyph glyph-name="uni2079" unicode="&#x2079;" horiz-adv-x="635" 
d="M313 640q-100 0 -160.5 61.5t-60.5 160.5v45h150v-45q0 -31 19.5 -51.5t51.5 -20.5t51 20.5t19 51.5v129q-30 -25 -84 -25q-90 0 -148.5 61.5t-58.5 160.5v170q0 99 60.5 160.5t160.5 61.5t160 -61.5t60 -160.5v-496q0 -99 -60 -160.5t-160 -61.5zM312 1116
q34 0 52.5 20.5t18.5 51.5v170q0 32 -19 52t-51 20t-51.5 -20t-19.5 -52v-170q0 -31 18.5 -51.5t51.5 -20.5z" />
    <glyph glyph-name="uni2080" unicode="&#x2080;" horiz-adv-x="645" 
d="M324 -80q-101 0 -161.5 61.5t-60.5 160.5v496q0 99 60.5 160.5t161.5 61.5q99 0 159 -61.5t60 -160.5v-496q0 -99 -60 -160.5t-159 -61.5zM324 70q31 0 50 20.5t19 51.5v496q0 32 -19 52t-50 20q-33 0 -52.5 -20t-19.5 -52v-496q0 -31 19.5 -51.5t52.5 -20.5zM368 710h87
l-177 -640h-86z" />
    <glyph glyph-name="uni2081" unicode="&#x2081;" horiz-adv-x="431" 
d="M161 -60v646h-137v150h37q47 0 73.5 24t26.5 66v14h150v-900h-150z" />
    <glyph glyph-name="uni2082" unicode="&#x2082;" horiz-adv-x="588" 
d="M70 -60v138q0 85 29.5 141.5t72.5 95.5t86.5 70t73 63t29.5 76v114q0 32 -19 52t-53 20q-31 0 -50 -20t-19 -52v-45h-150v45q0 99 60.5 160.5t158.5 61.5q101 0 161.5 -61.5t60.5 -160.5v-114q0 -67 -29 -113t-71 -81t-84 -67t-70.5 -69t-28.5 -88v-16h283v-150h-441z
" />
    <glyph glyph-name="uni2083" unicode="&#x2083;" horiz-adv-x="600" 
d="M284 -80q-101 0 -161.5 61.5t-60.5 160.5v45h150v-45q0 -31 19.5 -51.5t52.5 -20.5q31 0 50 20.5t19 51.5v115q0 32 -19 52t-50 20h-92v150h92q31 0 50 19.5t19 52.5v87q0 32 -19 52t-50 20q-33 0 -52.5 -20t-19.5 -52v-45h-150v45q0 99 60.5 160.5t161.5 61.5
q99 0 159 -61.5t60 -160.5v-87q0 -43 -12.5 -81.5t-37.5 -66.5q24 -26 37 -63.5t13 -82.5v-115q0 -99 -60 -160.5t-159 -61.5z" />
    <glyph glyph-name="uni2084" unicode="&#x2084;" horiz-adv-x="613" 
d="M328 -60v160h-305v131l321 609h134v-588h70v-152h-70v-160h-150zM180 252h148v293z" />
    <glyph glyph-name="uni2085" unicode="&#x2085;" horiz-adv-x="625" 
d="M327 -80q-100 0 -160.5 61.5t-60.5 160.5v45h150v-45q0 -31 19.5 -51.5t51.5 -20.5t51 20.5t19 51.5v170q0 32 -18.5 52t-52.5 20t-52 -19.5t-18 -51.5v-10h-150v537h410v-150h-260v-180q29 24 83 24q91 0 149.5 -61t58.5 -161v-170q0 -99 -60 -160.5t-160 -61.5z" />
    <glyph glyph-name="uni2086" unicode="&#x2086;" horiz-adv-x="635" 
d="M324 -80q-101 0 -161.5 61.5t-60.5 160.5v496q0 99 60.5 160.5t161.5 61.5q99 0 159 -61.5t60 -160.5v-45h-150v45q0 32 -19 52t-50 20q-33 0 -52.5 -20t-19.5 -52v-128q30 24 83 24q91 0 149.5 -61t58.5 -161v-170q0 -99 -60 -160.5t-159 -61.5zM324 70q31 0 50 20.5
t19 51.5v170q0 32 -18.5 52t-51.5 20q-35 0 -53 -19.5t-18 -51.5v-171q0 -31 19.5 -51.5t52.5 -20.5z" />
    <glyph glyph-name="uni2087" unicode="&#x2087;" horiz-adv-x="486" 
d="M78 -60l227 750h-286v150h434v-140l-219 -760h-156z" />
    <glyph glyph-name="uni2088" unicode="&#x2088;" horiz-adv-x="635" 
d="M319 -80q-101 0 -161.5 61.5t-60.5 160.5v112q0 46 13.5 82.5t36.5 63.5q-50 56 -50 148v90q0 99 60.5 160.5t161.5 61.5q99 0 159 -61.5t60 -160.5v-90q0 -92 -50 -148q24 -27 37 -64.5t13 -81.5v-112q0 -99 -60 -160.5t-159 -61.5zM319 70q31 0 50 20.5t19 51.5v112
q0 32 -19 52t-50 20q-33 0 -52.5 -20t-19.5 -52v-112q0 -31 19.5 -51.5t52.5 -20.5zM318 476q32 0 51 19.5t19 52.5v90q0 32 -19 52t-50 20q-33 0 -52.5 -20t-19.5 -52v-90q0 -34 19.5 -53t51.5 -19z" />
    <glyph glyph-name="uni2089" unicode="&#x2089;" horiz-adv-x="635" 
d="M313 -80q-100 0 -160.5 61.5t-60.5 160.5v45h150v-45q0 -31 19.5 -51.5t51.5 -20.5t51 20.5t19 51.5v129q-30 -25 -84 -25q-90 0 -148.5 61.5t-58.5 160.5v170q0 99 60.5 160.5t160.5 61.5t160 -61.5t60 -160.5v-496q0 -99 -60 -160.5t-160 -61.5zM312 396
q34 0 52.5 20.5t18.5 51.5v170q0 32 -19 52t-51 20t-51.5 -20t-19.5 -52v-170q0 -31 18.5 -51.5t51.5 -20.5z" />
    <glyph glyph-name="franc" unicode="&#x20a3;" horiz-adv-x="941" 
d="M94 161v200h490v-200h-490zM231 0v1500h615v-230h-385v-525h331v-230h-331v-515h-230z" />
    <glyph glyph-name="lira" unicode="&#x20a4;" horiz-adv-x="1086" 
d="M269 0v1160q0 167 99.5 268.5t265.5 101.5q167 0 266 -101.5t99 -268.5v-70h-230v70q0 63 -36 101.5t-99 38.5t-99 -38.5t-36 -101.5v-1160h-230zM134 652v200h595v-200h-595zM134 0v200h763v-200h-763zM134 336v200h595v-200h-595z" />
    <glyph glyph-name="peseta" unicode="&#x20a7;" horiz-adv-x="1117" 
d="M114 942v200h924v-200h-924zM221 0v1500h370q162 0 258.5 -98.5t96.5 -261.5v-187q0 -162 -96.5 -261t-258.5 -99h-140v-593h-230zM451 823h140q58 0 91.5 35.5t33.5 94.5v187q0 59 -33.5 94.5t-91.5 35.5h-140v-447z" />
    <glyph glyph-name="Euro" unicode="&#x20ac;" horiz-adv-x="1091" 
d="M974 410v-70q0 -166 -99 -268t-267 -102q-165 0 -264.5 102t-99.5 268v820q0 167 99.5 268.5t264.5 101.5q168 0 267 -101.5t99 -268.5v-70h-230v70q0 63 -36 101.5t-99 38.5t-99 -38.5t-36 -101.5v-820q0 -63 36 -101.5t99 -38.5t99 38.5t36 101.5v70h230zM109 818v200
h595v-200h-595zM109 483v200h595v-200h-595z" />
    <glyph glyph-name="uni2113" unicode="&#x2113;" horiz-adv-x="1188" 
d="M668 -25q-109 0 -194 64.5t-139 180.5q-80 -37 -145.5 -60.5t-96.5 -32.5l-38 161q42 11 102.5 32t129.5 53q-14 58 -21 120.5t-7 127.5q0 172 38.5 319t105.5 256t156 169.5t190 60.5q94 0 169 -51.5t119 -141t44 -203.5q0 -126 -52 -235.5t-138 -202t-189.5 -167
t-207.5 -131.5q30 -76 77.5 -119.5t110.5 -43.5q53 0 99 29.5t78 81t41 116.5l162 -18q-17 -108 -75 -190.5t-142 -128.5t-177 -46zM467 472q81 48 157.5 107.5t138 129.5t98 150.5t36.5 170.5q0 97 -43 165.5t-113 68.5q-56 0 -107.5 -46t-92.5 -127t-66 -186t-27 -222
q-1 -49 4 -104.5t15 -106.5z" />
    <glyph glyph-name="trademark" unicode="&#x2122;" horiz-adv-x="1385" 
d="M221 600v750h-136v150h422v-150h-136v-750h-150zM587 600v900h135l170 -643l169 643h136v-900h-138v423l-117 -423h-99l-117 423v-423h-139z" />
    <glyph glyph-name="estimated" unicode="&#x212e;" horiz-adv-x="1395" 
d="M721 -32q-186 0 -325 77.5t-216 208t-77 287.5q0 160 78 291.5t215 210t314 78.5q132 0 243 -45t193 -124.5t127.5 -184.5t45.5 -224v-13h-975q-6 0 -6 -11v-310q0 -10 2 -15.5t14 -20.5q55 -68 142 -118.5t221 -50.5q127 0 213 50.5t162 138.5h94q-84 -101 -192.5 -163
t-272.5 -62zM344 557h734q4 0 4 14v312q0 5 -2 16t-13 23q-69 73 -147 119t-206 46q-133 0 -215.5 -49t-141.5 -120q-14 -17 -16.5 -23t-2.5 -17v-307q0 -14 6 -14z" />
    <glyph glyph-name="oneeighth" unicode="&#x215b;" horiz-adv-x="1542" 
d="M161 600v651h-137v150h37q47 0 73.5 24t26.5 66v14h150v-905h-150zM246 0l662 1500h184l-662 -1500h-184zM1226 -20q-101 0 -161.5 61.5t-60.5 160.5v112q0 46 13.5 82.5t36.5 63.5q-50 56 -50 148v90q0 99 60.5 160.5t161.5 61.5q99 0 159 -61.5t60 -160.5v-90
q0 -92 -50 -148q24 -27 37 -64.5t13 -81.5v-112q0 -99 -60 -160.5t-159 -61.5zM1226 130q31 0 50 20.5t19 51.5v112q0 32 -19 52t-50 20q-33 0 -52.5 -20t-19.5 -52v-112q0 -31 19.5 -51.5t52.5 -20.5zM1225 536q32 0 51 19.5t19 52.5v90q0 32 -19 52t-50 20
q-33 0 -52.5 -20t-19.5 -52v-90q0 -34 19.5 -53t51.5 -19z" />
    <glyph glyph-name="threeeighths" unicode="&#x215c;" horiz-adv-x="1711" 
d="M284 580q-101 0 -161.5 61.5t-60.5 160.5v45h150v-45q0 -31 19.5 -51.5t52.5 -20.5q31 0 50 20.5t19 51.5v115q0 32 -19 52t-50 20h-92v150h92q31 0 50 19.5t19 52.5v87q0 32 -19 52t-50 20q-33 0 -52.5 -20t-19.5 -52v-45h-150v45q0 99 60.5 160.5t161.5 61.5
q99 0 159 -61.5t60 -160.5v-87q0 -43 -12.5 -81.5t-37.5 -66.5q24 -26 37 -63.5t13 -82.5v-115q0 -99 -60 -160.5t-159 -61.5zM415 0l662 1500h184l-662 -1500h-184zM1395 -20q-101 0 -161.5 61.5t-60.5 160.5v112q0 46 13.5 82.5t36.5 63.5q-50 56 -50 148v90
q0 99 60.5 160.5t161.5 61.5q99 0 159 -61.5t60 -160.5v-90q0 -92 -50 -148q24 -27 37 -64.5t13 -81.5v-112q0 -99 -60 -160.5t-159 -61.5zM1395 130q31 0 50 20.5t19 51.5v112q0 32 -19 52t-50 20q-33 0 -52.5 -20t-19.5 -52v-112q0 -31 19.5 -51.5t52.5 -20.5zM1394 536
q32 0 51 19.5t19 52.5v90q0 32 -19 52t-50 20q-33 0 -52.5 -20t-19.5 -52v-90q0 -34 19.5 -53t51.5 -19z" />
    <glyph glyph-name="fiveeighths" unicode="&#x215d;" horiz-adv-x="1735" 
d="M327 580q-100 0 -160.5 61.5t-60.5 160.5v45h150v-45q0 -31 19.5 -51.5t51.5 -20.5t51 20.5t19 51.5v170q0 32 -18.5 52t-52.5 20t-52 -19.5t-18 -51.5v-10h-150v537h410v-150h-260v-180q29 24 83 24q91 0 149.5 -61t58.5 -161v-170q0 -99 -60 -160.5t-160 -61.5zM440 0
l662 1500h184l-662 -1500h-184zM1419 -20q-101 0 -161.5 61.5t-60.5 160.5v112q0 46 13.5 82.5t36.5 63.5q-50 56 -50 148v90q0 99 60.5 160.5t161.5 61.5q99 0 159 -61.5t60 -160.5v-90q0 -92 -50 -148q24 -27 37 -64.5t13 -81.5v-112q0 -99 -60 -160.5t-159 -61.5z
M1419 130q31 0 50 20.5t19 51.5v112q0 32 -19 52t-50 20q-33 0 -52.5 -20t-19.5 -52v-112q0 -31 19.5 -51.5t52.5 -20.5zM1418 536q32 0 51 19.5t19 52.5v90q0 32 -19 52t-50 20q-33 0 -52.5 -20t-19.5 -52v-90q0 -34 19.5 -53t51.5 -19z" />
    <glyph glyph-name="seveneighths" unicode="&#x215e;" horiz-adv-x="1597" 
d="M78 600l227 750h-286v150h434v-140l-219 -760h-156zM301 0l662 1500h184l-662 -1500h-184zM1281 -20q-101 0 -161.5 61.5t-60.5 160.5v112q0 46 13.5 82.5t36.5 63.5q-50 56 -50 148v90q0 99 60.5 160.5t161.5 61.5q99 0 159 -61.5t60 -160.5v-90q0 -92 -50 -148
q24 -27 37 -64.5t13 -81.5v-112q0 -99 -60 -160.5t-159 -61.5zM1281 130q31 0 50 20.5t19 51.5v112q0 32 -19 52t-50 20q-33 0 -52.5 -20t-19.5 -52v-112q0 -31 19.5 -51.5t52.5 -20.5zM1280 536q32 0 51 19.5t19 52.5v90q0 32 -19 52t-50 20q-33 0 -52.5 -20t-19.5 -52v-90
q0 -34 19.5 -53t51.5 -19z" />
    <glyph glyph-name="arrowleft" unicode="&#x2190;" horiz-adv-x="1107" 
d="M313 706h684v-238h-684v238zM62 588l375 377v-752z" />
    <glyph glyph-name="arrowup" unicode="&#x2191;" horiz-adv-x="857" 
d="M312 805h237v-685h-237v685zM430 1055l375 -375h-752z" />
    <glyph glyph-name="arrowright" unicode="&#x2192;" horiz-adv-x="1107" 
d="M795 706v-238h-685v238h685zM1045 588l-375 -375v752z" />
    <glyph glyph-name="arrowdown" unicode="&#x2193;" horiz-adv-x="857" 
d="M312 371v684h237v-684h-237zM430 120l-377 375h752z" />
    <glyph glyph-name="arrowboth" unicode="&#x2194;" horiz-adv-x="1310" 
d="M437 213l-375 375l375 377v-259h436v259l375 -377l-375 -375v255h-436v-255z" />
    <glyph glyph-name="arrowupdn" unicode="&#x2195;" horiz-adv-x="886" 
d="M442 0l-375 375h256v436h-256l375 375l377 -375h-259v-436h259z" />
    <glyph glyph-name="uni2196" unicode="&#x2196;" horiz-adv-x="960" 
d="M417 824l484 -485l-167 -167l-486 484zM157 918l532 2l-532 -532v530z" />
    <glyph glyph-name="uni2197" unicode="&#x2197;" horiz-adv-x="960" 
d="M543 824l169 -168l-486 -484l-167 167zM803 918v-530l-532 532z" />
    <glyph glyph-name="uni2198" unicode="&#x2198;" horiz-adv-x="960" 
d="M543 268l-484 485l167 167l486 -484zM803 174l-532 -2l532 532v-530z" />
    <glyph glyph-name="uni2199" unicode="&#x2199;" horiz-adv-x="960" 
d="M417 268l-169 168l486 484l167 -167zM157 174v530l532 -532z" />
    <glyph glyph-name="partialdiff" unicode="&#x2202;" horiz-adv-x="977" 
d="M526 1500q122 0 197 -79.5t75 -209.5v-1211h-215v159l38 -49q-33 -64 -92 -99.5t-143 -35.5q-73 0 -137.5 32.5t-104.5 108.5t-40 208v248q0 131 40 207.5t104.5 109t137.5 32.5q84 0 143 -35.5t92 -99.5l-38 -50v475q0 60 -36 97t-96 37h-52v155h127zM452 190
q63 0 97 36.5t34 97.5v248q0 60 -34.5 97t-96.5 37q-63 0 -98 -37t-35 -97v-248q0 -60 35 -97t98 -37z" />
    <glyph glyph-name="emptyset" unicode="&#x2205;" horiz-adv-x="1398" 
d="M197 -105l791 1375h229l-791 -1375h-229zM698 -25q-169 0 -304.5 76.5t-215 214.5t-79.5 322q0 185 79.5 320.5t215.5 210.5t305 75t304 -75t213.5 -211t78.5 -320q0 -187 -80 -324.5t-215 -213t-302 -75.5zM698 195q106 0 191 48.5t135.5 137.5t50.5 207
q0 116 -49.5 203t-134.5 135t-192 48q-108 0 -193.5 -48t-135 -135t-49.5 -203q0 -118 50 -206.5t136 -137.5t191 -49z" />
    <glyph glyph-name="product" unicode="&#x220f;" horiz-adv-x="1263" 
d="M275 -240v1510h-222v230h1157v-230h-222v-1510h-230v1510h-253v-1510h-230z" />
    <glyph glyph-name="summation" unicode="&#x2211;" horiz-adv-x="909" 
d="M94 -240v170l283 700l-283 701v169h732v-230h-485l257 -640l-263 -640h491v-230h-732z" />
    <glyph glyph-name="minus" unicode="&#x2212;" horiz-adv-x="1166" 
d="M188 434v230h790v-230h-790z" />
    <glyph glyph-name="uni2215" unicode="&#x2215;" horiz-adv-x="866" 
d="M58 -100l536 1660h232l-536 -1660h-232z" />
    <glyph glyph-name="uni2219" unicode="&#x2219;" horiz-adv-x="828" 
d="M461 266q-77 0 -141 39t-102.5 103t-38.5 141t38.5 141t102.5 102.5t141 38.5q78 0 141.5 -39t101.5 -103t38 -140q0 -77 -38 -141t-101.5 -103t-141.5 -39z" />
    <glyph glyph-name="radical" unicode="&#x221a;" horiz-adv-x="1161" 
d="M289 0l-223 834h227l122 -488l278 1154h413v-207h-231l-333 -1293h-253z" />
    <glyph glyph-name="infinity" unicode="&#x221e;" horiz-adv-x="1490" 
d="M1057 894q86 0 154 -38.5t106.5 -107.5t38.5 -159t-38.5 -159t-106.5 -107.5t-154 -38.5h-29q-57 0 -107.5 25t-95 66t-80.5 89q-37 -48 -81 -89t-95 -66t-107 -25h-29q-87 0 -154.5 38.5t-106.5 107.5t-39 159t39 159t106.5 107.5t154.5 38.5h29q56 0 106.5 -23.5
t94.5 -63t82 -86.5q37 47 81 86.5t94.5 63t107.5 23.5h29zM484 454q29 0 59 18.5t59.5 49.5t60.5 70q-29 35 -59 65.5t-60.5 48.5t-59.5 18h-29q-54 0 -88 -38.5t-34 -96.5q0 -57 34 -96t88 -39h29zM1034 454q55 0 88.5 39t33.5 96q0 58 -33.5 96.5t-88.5 38.5h-29
q-29 0 -59 -18t-60.5 -48.5t-59.5 -65.5q31 -39 61 -70t59.5 -49.5t58.5 -18.5h29z" />
    <glyph glyph-name="integral" unicode="&#x222b;" horiz-adv-x="777" 
d="M50 -360v215h98q62 0 97.5 38.5t35.5 101.5v1171q0 103 43 183t121 125.5t184 45.5h99v-215h-99q-62 0 -97.5 -38.5t-35.5 -100.5v-1171q0 -103 -43 -183t-121 -126t-184 -46h-98z" />
    <glyph glyph-name="approxequal" unicode="&#x2248;" horiz-adv-x="1159" 
d="M131 103v54q0 127 67.5 197.5t200.5 70.5q68 0 113 -16.5t78 -38t63.5 -38t67.5 -16.5q50 0 62 26.5t12 49.5v45h221v-60q0 -124 -63 -195t-174 -71q-62 0 -107.5 19t-82.5 43.5t-72 43.5t-76 19t-65.5 -24t-24.5 -67v-42h-220zM131 643v54q0 127 67.5 197.5t200.5 70.5
q68 0 113 -16.5t78 -38t63.5 -38t67.5 -16.5q50 0 62 26.5t12 49.5v45h221v-60q0 -124 -63 -195t-174 -71q-62 0 -107.5 19t-82.5 43.5t-72 43.5t-76 19t-65.5 -24t-24.5 -67v-42h-220z" />
    <glyph glyph-name="notequal" unicode="&#x2260;" horiz-adv-x="968" 
d="M141 234v230h690v-230h-690zM141 634v230h690v-230h-690zM350 0h-147l397 1095h148z" />
    <glyph glyph-name="lessequal" unicode="&#x2264;" horiz-adv-x="904" 
d="M768 295l-674 463v165l674 457v-245l-425 -294l425 -298v-248zM94 0v210h674v-210h-674z" />
    <glyph glyph-name="greaterequal" unicode="&#x2265;" horiz-adv-x="906" 
d="M135 295v248l425 298l-425 294v245l674 -457v-165zM135 0v210h674v-210h-674z" />
    <glyph glyph-name="lozenge" unicode="&#x25ca;" horiz-adv-x="939" 
d="M344 0l-271 750l271 750h254l268 -750l-268 -750h-254zM471 301l161 449l-161 450l-164 -450z" />
    <glyph glyph-name="uniF8FF" unicode="&#xf8ff;" horiz-adv-x="1446" 
d="M364 0v44h34q26 0 39 6.5t21 25.5l12 28l-126 306h52l102 -252l92 252h52l-132 -332q-18 -45 -41.5 -61.5t-70.5 -16.5h-34zM280 106q-90 0 -90 84v180h-70v40h70v74h46v-74h78v-40h-78v-180q0 -40 48 -40h30v-44h-34zM280 554q-90 0 -90 84v180h-70v40h70v74h46v-74h78
v-40h-78v-180q0 -40 48 -40h30v-44h-34zM692 10v400h46v-44q39 52 104 52q63 0 100.5 -44t37.5 -116t-37.5 -116t-100.5 -44q-67 0 -104 52v-140h-46zM834 138q44 0 72 31.5t28 88.5t-28 88.5t-72 31.5q-42 0 -69 -31t-27 -87v-4q0 -55 27 -86.5t69 -31.5zM508 546
q-69 0 -110.5 44.5t-41.5 117.5q0 71 41.5 114.5t110.5 43.5t111.5 -44t42.5 -116t-42.5 -116t-111.5 -44zM509 586q49 0 78 33.5t29 87.5q0 53 -29 86t-78 33t-79 -32.5t-30 -86.5q0 -55 30 -88t79 -33zM1180 98q-70 0 -112 44t-42 116t41.5 116t108.5 44q66 0 105 -41.5
t39 -112.5q0 -18 -2 -26h-246q6 -45 34.5 -72.5t73.5 -27.5q33 0 57.5 16t30.5 40h48q-7 -43 -44.5 -69.5t-91.5 -26.5zM1072 278h204q0 47 -26.5 73.5t-73.5 26.5q-45 0 -72 -26.5t-32 -73.5zM726 554v412h46v-262l146 154h56l-108 -116l116 -188h-56l-92 152l-62 -64v-88
h-46zM1158 546q-69 0 -111.5 44.5t-42.5 117.5q0 71 41.5 114.5t110.5 43.5t111.5 -44t42.5 -116t-41.5 -116t-110.5 -44zM1158 586q50 0 78 33.5t28 88.5q0 53 -28 85.5t-78 32.5q-49 0 -78.5 -32.5t-29.5 -85.5q0 -55 29.5 -88.5t78.5 -33.5z" />
    <glyph glyph-name="G.ss03" horiz-adv-x="976" 
d="M499 -32q-166 0 -265.5 102t-99.5 268v824q0 167 99.5 268.5t265.5 101.5q167 0 266 -101.5t99 -268.5v-70h-230v70q0 63 -36 101.5t-99 38.5t-99 -38.5t-36 -101.5v-824q0 -63 36 -101.5t99 -38.5t99 38.5t36 101.5v372h-151v230h381v-602q0 -166 -99 -268t-266 -102z
" />
    <glyph glyph-name="Gbreve.ss03" horiz-adv-x="976" 
d="M499 -32q-166 0 -265.5 102t-99.5 268v824q0 167 99.5 268.5t265.5 101.5q167 0 266 -101.5t99 -268.5v-70h-230v70q0 63 -36 101.5t-99 38.5t-99 -38.5t-36 -101.5v-824q0 -63 36 -101.5t99 -38.5t99 38.5t36 101.5v372h-151v230h381v-602q0 -166 -99 -268t-266 -102z
M499 1708q-108 0 -176.5 64t-68.5 169v24h149v-24q0 -46 27 -73t69 -27t68.5 27t26.5 73v24h148v-24q0 -105 -67 -169t-176 -64z" />
    <glyph glyph-name="Gcircumflex.ss03" horiz-adv-x="976" 
d="M499 -32q-166 0 -265.5 102t-99.5 268v824q0 167 99.5 268.5t265.5 101.5q167 0 266 -101.5t99 -268.5v-70h-230v70q0 63 -36 101.5t-99 38.5t-99 -38.5t-36 -101.5v-824q0 -63 36 -101.5t99 -38.5t99 38.5t36 101.5v372h-151v230h381v-602q0 -166 -99 -268t-266 -102z
M177 1666l231 299h180l232 -299h-202l-119 167l-120 -167h-202z" />
    <glyph glyph-name="uni0122.ss03" horiz-adv-x="976" 
d="M499 -32q-166 0 -265.5 102t-99.5 268v824q0 167 99.5 268.5t265.5 101.5q167 0 266 -101.5t99 -268.5v-70h-230v70q0 63 -36 101.5t-99 38.5t-99 -38.5t-36 -101.5v-824q0 -63 36 -101.5t99 -38.5t99 38.5t36 101.5v372h-151v230h381v-602q0 -166 -99 -268t-266 -102z
M341 -440l56 332h230l-145 -332h-141z" />
    <glyph glyph-name="Gdotaccent.ss03" horiz-adv-x="976" 
d="M499 -32q-166 0 -265.5 102t-99.5 268v824q0 167 99.5 268.5t265.5 101.5q167 0 266 -101.5t99 -268.5v-70h-230v70q0 63 -36 101.5t-99 38.5t-99 -38.5t-36 -101.5v-824q0 -63 36 -101.5t99 -38.5t99 38.5t36 101.5v372h-151v230h381v-602q0 -166 -99 -268t-266 -102z
M404 1653v252h190v-252h-190z" />
    <glyph glyph-name="IJ.ss04" horiz-adv-x="1452" 
d="M386 0h-230v1500h230v-1500zM943 -13q-166 0 -265.5 102t-99.5 268v20h230v-20q0 -63 36 -101.5t99 -38.5t99 38.5t36 101.5v1143h230v-1143q0 -166 -99 -268t-266 -102z" />
    <glyph glyph-name="J.ss04" horiz-adv-x="910" 
d="M401 -13q-166 0 -265.5 102t-99.5 268v20h230v-20q0 -63 36 -101.5t99 -38.5t99 38.5t36 101.5v1143h230v-1143q0 -166 -99 -268t-266 -102z" />
    <glyph glyph-name="Jcircumflex.ss04" horiz-adv-x="910" 
d="M401 -13q-166 0 -265.5 102t-99.5 268v20h230v-20q0 -63 36 -101.5t99 -38.5t99 38.5t36 101.5v1143h230v-1143q0 -166 -99 -268t-266 -102zM327 1666l231 299h180l232 -299h-202l-119 167l-120 -167h-202z" />
    <glyph glyph-name="a.ss01" horiz-adv-x="924" 
d="M385 -25q-73 0 -137 32.5t-104 108.5t-40 208v448q0 131 40 207.5t104 109t137 32.5q85 0 143.5 -35.5t91.5 -99.5l-37 -50v159h215v-1095h-215v159l37 -49q-33 -64 -91.5 -99.5t-143.5 -35.5zM451 190q63 0 97.5 36.5t34.5 97.5v448q0 60 -34.5 97t-97.5 37t-97.5 -37
t-34.5 -97v-448q0 -60 34.5 -97t97.5 -37z" />
    <glyph glyph-name="aacute.ss01" horiz-adv-x="924" 
d="M385 -25q-73 0 -137 32.5t-104 108.5t-40 208v448q0 131 40 207.5t104 109t137 32.5q85 0 143.5 -35.5t91.5 -99.5l-37 -50v159h215v-1095h-215v159l37 -49q-33 -64 -91.5 -99.5t-143.5 -35.5zM451 190q63 0 97.5 36.5t34.5 97.5v448q0 60 -34.5 97t-97.5 37t-97.5 -37
t-34.5 -97v-448q0 -60 34.5 -97t97.5 -37zM380 1216l122 344h231l-189 -344h-164z" />
    <glyph glyph-name="abreve.ss01" horiz-adv-x="924" 
d="M385 -25q-73 0 -137 32.5t-104 108.5t-40 208v448q0 131 40 207.5t104 109t137 32.5q85 0 143.5 -35.5t91.5 -99.5l-37 -50v159h215v-1095h-215v159l37 -49q-33 -64 -91.5 -99.5t-143.5 -35.5zM451 190q63 0 97.5 36.5t34.5 97.5v448q0 60 -34.5 97t-97.5 37t-97.5 -37
t-34.5 -97v-448q0 -60 34.5 -97t97.5 -37zM463 1303q-108 0 -176.5 64t-68.5 169v24h149v-24q0 -46 27 -73t69 -27t68.5 27t26.5 73v24h148v-24q0 -105 -67 -169t-176 -64z" />
    <glyph glyph-name="acircumflex.ss01" horiz-adv-x="924" 
d="M385 -25q-73 0 -137 32.5t-104 108.5t-40 208v448q0 131 40 207.5t104 109t137 32.5q85 0 143.5 -35.5t91.5 -99.5l-37 -50v159h215v-1095h-215v159l37 -49q-33 -64 -91.5 -99.5t-143.5 -35.5zM451 190q63 0 97.5 36.5t34.5 97.5v448q0 60 -34.5 97t-97.5 37t-97.5 -37
t-34.5 -97v-448q0 -60 34.5 -97t97.5 -37zM141 1261l231 299h180l232 -299h-202l-119 167l-120 -167h-202z" />
    <glyph glyph-name="acute.case" horiz-adv-x="453" 
d="M85 1216l122 344h231l-189 -344h-164z" />
    <glyph glyph-name="adieresis.ss01" horiz-adv-x="924" 
d="M385 -25q-73 0 -137 32.5t-104 108.5t-40 208v448q0 131 40 207.5t104 109t137 32.5q85 0 143.5 -35.5t91.5 -99.5l-37 -50v159h215v-1095h-215v159l37 -49q-33 -64 -91.5 -99.5t-143.5 -35.5zM451 190q63 0 97.5 36.5t34.5 97.5v448q0 60 -34.5 97t-97.5 37t-97.5 -37
t-34.5 -97v-448q0 -60 34.5 -97t97.5 -37zM212 1308v252h190v-252h-190zM531 1308v252h189v-252h-189z" />
    <glyph glyph-name="agrave.ss01" horiz-adv-x="924" 
d="M385 -25q-73 0 -137 32.5t-104 108.5t-40 208v448q0 131 40 207.5t104 109t137 32.5q85 0 143.5 -35.5t91.5 -99.5l-37 -50v159h215v-1095h-215v159l37 -49q-33 -64 -91.5 -99.5t-143.5 -35.5zM451 190q63 0 97.5 36.5t34.5 97.5v448q0 60 -34.5 97t-97.5 37t-97.5 -37
t-34.5 -97v-448q0 -60 34.5 -97t97.5 -37zM386 1216l-189 344h231l122 -344h-164z" />
    <glyph glyph-name="amacron.ss01" horiz-adv-x="924" 
d="M385 -25q-73 0 -137 32.5t-104 108.5t-40 208v448q0 131 40 207.5t104 109t137 32.5q85 0 143.5 -35.5t91.5 -99.5l-37 -50v159h215v-1095h-215v159l37 -49q-33 -64 -91.5 -99.5t-143.5 -35.5zM451 190q63 0 97.5 36.5t34.5 97.5v448q0 60 -34.5 97t-97.5 37t-97.5 -37
t-34.5 -97v-448q0 -60 34.5 -97t97.5 -37zM230 1390h467v-158h-467v158z" />
    <glyph glyph-name="aogonek.ss01" horiz-adv-x="890" 
d="M385 -25q-73 0 -137 32.5t-104 108.5t-40 208v448q0 131 40 207.5t104 109t137 32.5q85 0 143.5 -35.5t91.5 -99.5l-37 -50v159h215v-1095h-215v159l37 -49q-33 -64 -91.5 -99.5t-143.5 -35.5zM451 190q63 0 97.5 36.5t34.5 97.5v448q0 60 -34.5 97t-97.5 37t-97.5 -37
t-34.5 -97v-448q0 -60 34.5 -97t97.5 -37zM736 -470q-132 0 -205.5 67t-73.5 171q0 93 59 169t170 142h45v-79q-55 -45 -85 -92t-30 -97q0 -56 35.5 -89t99.5 -33h36v-159h-51z" />
    <glyph glyph-name="aring.ss01" horiz-adv-x="924" 
d="M385 -25q-73 0 -137 32.5t-104 108.5t-40 208v448q0 131 40 207.5t104 109t137 32.5q85 0 143.5 -35.5t91.5 -99.5l-37 -50v159h215v-1095h-215v159l37 -49q-33 -64 -91.5 -99.5t-143.5 -35.5zM451 190q63 0 97.5 36.5t34.5 97.5v448q0 60 -34.5 97t-97.5 37t-97.5 -37
t-34.5 -97v-448q0 -60 34.5 -97t97.5 -37zM466 1140q-85 0 -147 57t-62 151q0 93 62 150.5t145 57.5q84 0 146.5 -57t62.5 -151t-62 -151t-145 -57zM466 1273q29 0 51.5 20.5t22.5 54.5t-23 55t-52 21q-30 0 -53 -21t-23 -55t23 -54.5t54 -20.5z" />
    <glyph glyph-name="atilde.ss01" horiz-adv-x="924" 
d="M385 -25q-73 0 -137 32.5t-104 108.5t-40 208v448q0 131 40 207.5t104 109t137 32.5q85 0 143.5 -35.5t91.5 -99.5l-37 -50v159h215v-1095h-215v159l37 -49q-33 -64 -91.5 -99.5t-143.5 -35.5zM451 190q63 0 97.5 36.5t34.5 97.5v448q0 60 -34.5 97t-97.5 37t-97.5 -37
t-34.5 -97v-448q0 -60 34.5 -97t97.5 -37zM606 1251q-50 0 -87.5 19t-60.5 35q-24 17 -42.5 29.5t-36.5 12.5q-16 0 -23.5 -10t-7.5 -26v-50h-174v66q0 75 37.5 117.5t107.5 42.5q45 0 82 -16t62 -35q24 -17 43.5 -31t39.5 -14q17 0 24 11t7 26v52h173v-69q0 -75 -38 -117.5
t-106 -42.5z" />
    <glyph glyph-name="breve.case" horiz-adv-x="660" 
d="M338 1303q-108 0 -176.5 64t-68.5 169v24h149v-24q0 -46 27 -73t69 -27t68.5 27t26.5 73v24h148v-24q0 -105 -67 -169t-176 -64z" />
    <glyph glyph-name="caron.case" horiz-adv-x="686" 
d="M281 1261l-231 299h202l120 -167l119 167h202l-232 -299h-180z" />
    <glyph glyph-name="circumflex.case" horiz-adv-x="686" 
d="M50 1261l231 299h180l232 -299h-202l-119 167l-120 -167h-202z" />
    <glyph glyph-name="dieresis.case" horiz-adv-x="760" 
d="M154 1308v252h190v-252h-190zM473 1308v252h189v-252h-189z" />
    <glyph glyph-name="dotaccent.case" horiz-adv-x="442" 
d="M154 1248v252h190v-252h-190z" />
    <glyph glyph-name="eight.dnom" horiz-adv-x="635" 
d="M319 -20q-101 0 -161.5 61.5t-60.5 160.5v112q0 46 13.5 82.5t36.5 63.5q-50 56 -50 148v90q0 99 60.5 160.5t161.5 61.5q99 0 159 -61.5t60 -160.5v-90q0 -92 -50 -148q24 -27 37 -64.5t13 -81.5v-112q0 -99 -60 -160.5t-159 -61.5zM319 130q31 0 50 20.5t19 51.5v112
q0 32 -19 52t-50 20q-33 0 -52.5 -20t-19.5 -52v-112q0 -31 19.5 -51.5t52.5 -20.5zM318 536q32 0 51 19.5t19 52.5v90q0 32 -19 52t-50 20q-33 0 -52.5 -20t-19.5 -52v-90q0 -34 19.5 -53t51.5 -19z" />
    <glyph glyph-name="eight.numr" horiz-adv-x="635" 
d="M319 580q-101 0 -161.5 61.5t-60.5 160.5v112q0 46 13.5 82.5t36.5 63.5q-50 56 -50 148v90q0 99 60.5 160.5t161.5 61.5q99 0 159 -61.5t60 -160.5v-90q0 -92 -50 -148q24 -27 37 -64.5t13 -81.5v-112q0 -99 -60 -160.5t-159 -61.5zM319 730q31 0 50 20.5t19 51.5v112
q0 32 -19 52t-50 20q-33 0 -52.5 -20t-19.5 -52v-112q0 -31 19.5 -51.5t52.5 -20.5zM318 1136q32 0 51 19.5t19 52.5v90q0 32 -19 52t-50 20q-33 0 -52.5 -20t-19.5 -52v-90q0 -34 19.5 -53t51.5 -19z" />
    <glyph glyph-name="eight.tf" horiz-adv-x="960" 
d="M480 -32q-165 0 -264.5 102t-99.5 268v174q0 99 36 175.5t100 124.5v-87q-62 45 -99 121t-37 176v140q0 167 99.5 268.5t264.5 101.5q166 0 265 -101.5t99 -268.5v-140q0 -100 -36.5 -176t-99.5 -121l1 87q64 -48 99.5 -125t35.5 -175v-174q0 -166 -99 -268t-265 -102z
M480 198q62 0 98 38.5t36 101.5v174q0 63 -36 101.5t-98 38.5t-98 -38.5t-36 -101.5v-174q0 -63 36 -101.5t98 -38.5zM480 882q62 0 98 38.5t36 101.5v140q0 63 -36 101.5t-98 38.5t-98 -38.5t-36 -101.5v-140q0 -63 36 -101.5t98 -38.5z" />
    <glyph glyph-name="five.dnom" horiz-adv-x="625" 
d="M327 -20q-100 0 -160.5 61.5t-60.5 160.5v45h150v-45q0 -31 19.5 -51.5t51.5 -20.5t51 20.5t19 51.5v170q0 32 -18.5 52t-52.5 20t-52 -19.5t-18 -51.5v-10h-150v537h410v-150h-260v-180q29 24 83 24q91 0 149.5 -61t58.5 -161v-170q0 -99 -60 -160.5t-160 -61.5z" />
    <glyph glyph-name="five.numr" horiz-adv-x="625" 
d="M327 580q-100 0 -160.5 61.5t-60.5 160.5v45h150v-45q0 -31 19.5 -51.5t51.5 -20.5t51 20.5t19 51.5v170q0 32 -18.5 52t-52.5 20t-52 -19.5t-18 -51.5v-10h-150v537h410v-150h-260v-180q29 24 83 24q91 0 149.5 -61t58.5 -161v-170q0 -99 -60 -160.5t-160 -61.5z" />
    <glyph glyph-name="five.tf" horiz-adv-x="960" 
d="M501 -32q-167 0 -267 102t-100 268v70h230v-70q0 -63 37 -101.5t100 -38.5q64 0 101.5 38.5t37.5 101.5v285q0 63 -38 101.5t-102 38.5t-100 -38.5t-36 -101.5v-16h-230v893h691v-230h-565l104 104v-537l-43 58q30 47 78.5 72.5t121.5 25.5q101 0 179.5 -46t124 -129.5
t45.5 -194.5v-285q0 -166 -101 -268t-268 -102z" />
    <glyph glyph-name="four.dnom" horiz-adv-x="613" 
d="M328 0v160h-305v131l321 609h134v-588h70v-152h-70v-160h-150zM180 312h148v293z" />
    <glyph glyph-name="four.numr" horiz-adv-x="613" 
d="M328 600v160h-305v131l321 609h134v-588h70v-152h-70v-160h-150zM180 912h148v293z" />
    <glyph glyph-name="four.tf" horiz-adv-x="960" 
d="M553 0v280h-517v201l539 1019h208v-991h122v-229h-122v-280h-230zM229 416l-57 93h381v543z" />
    <glyph glyph-name="grave.case" horiz-adv-x="453" 
d="M252 1216l-189 344h231l122 -344h-164z" />
    <glyph glyph-name="hungarumlaut.case" horiz-adv-x="795" 
d="M92 1216l122 344h231l-189 -344h-164zM434 1216l123 344h231l-190 -344h-164z" />
    <glyph glyph-name="longs_t" horiz-adv-x="1268" 
d="M204 0v896h-200v199h200v71q0 103 43 183t121 125.5t184 45.5h99v-215h-99q-62 0 -97.5 -38.5t-35.5 -100.5v-1166h-215zM1125 -13q-158 0 -252.5 94t-94.5 260v556h-185v199h185v264h215v-264h230v-199h-230v-556q0 -63 35 -101t97 -38h98v-215h-98z" />
    <glyph glyph-name="macron.case" horiz-adv-x="719" 
d="M146 1500h467v-158h-467v158z" />
    <glyph glyph-name="nine.dnom" horiz-adv-x="635" 
d="M313 -20q-100 0 -160.5 61.5t-60.5 160.5v45h150v-45q0 -31 19.5 -51.5t51.5 -20.5t51 20.5t19 51.5v129q-30 -25 -84 -25q-90 0 -148.5 61.5t-58.5 160.5v170q0 99 60.5 160.5t160.5 61.5t160 -61.5t60 -160.5v-496q0 -99 -60 -160.5t-160 -61.5zM312 456
q34 0 52.5 20.5t18.5 51.5v170q0 32 -19 52t-51 20t-51.5 -20t-19.5 -52v-170q0 -31 18.5 -51.5t51.5 -20.5z" />
    <glyph glyph-name="nine.numr" horiz-adv-x="635" 
d="M313 580q-100 0 -160.5 61.5t-60.5 160.5v45h150v-45q0 -31 19.5 -51.5t51.5 -20.5t51 20.5t19 51.5v129q-30 -25 -84 -25q-90 0 -148.5 61.5t-58.5 160.5v170q0 99 60.5 160.5t160.5 61.5t160 -61.5t60 -160.5v-496q0 -99 -60 -160.5t-160 -61.5zM312 1056
q34 0 52.5 20.5t18.5 51.5v170q0 32 -19 52t-51 20t-51.5 -20t-19.5 -52v-170q0 -31 18.5 -51.5t51.5 -20.5z" />
    <glyph glyph-name="nine.tf" horiz-adv-x="960" 
d="M472 -32q-165 0 -264 102t-99 268v70h230v-70q0 -63 35.5 -101.5t97.5 -38.5t97.5 38.5t35.5 101.5v325l44 -58q-31 -48 -79 -72.5t-117 -24.5q-100 0 -178 46.5t-122 129.5t-44 194v284q0 167 99 268.5t264 101.5q166 0 264.5 -101.5t98.5 -268.5v-824
q0 -166 -98.5 -268t-264.5 -102zM473 738q63 0 97.5 38t34.5 101v285q0 63 -35.5 101.5t-97.5 38.5t-97.5 -38.5t-35.5 -101.5v-284q0 -63 36 -101.5t98 -38.5z" />
    <glyph glyph-name="one.dnom" horiz-adv-x="431" 
d="M161 0v646h-137v150h37q47 0 73.5 24t26.5 66v14h150v-900h-150z" />
    <glyph glyph-name="one.numr" horiz-adv-x="431" 
d="M161 600v651h-137v150h37q47 0 73.5 24t26.5 66v14h150v-905h-150z" />
    <glyph glyph-name="one.tf" horiz-adv-x="960" 
d="M60 0v230h306v868h-252v230h56q92 0 144 40t52 110v22h230v-1270h304v-230h-840z" />
    <glyph glyph-name="ring.case" horiz-adv-x="589" 
d="M324 1144q-85 0 -147 57t-62 151q0 93 62 150.5t145 57.5q84 0 146.5 -57t62.5 -151t-62 -151t-145 -57zM324 1277q29 0 51.5 20.5t22.5 54.5t-23 55t-52 21q-30 0 -53 -21t-23 -55t23 -54.5t54 -20.5z" />
    <glyph glyph-name="seven.dnom" horiz-adv-x="486" 
d="M78 0l227 750h-286v150h434v-140l-219 -760h-156z" />
    <glyph glyph-name="seven.numr" horiz-adv-x="486" 
d="M78 600l227 750h-286v150h434v-140l-219 -760h-156z" />
    <glyph glyph-name="seven.tf" horiz-adv-x="960" 
d="M208 0l469 1368l70 -98h-683v230h814v-212l-429 -1288h-241z" />
    <glyph glyph-name="six.dnom" horiz-adv-x="635" 
d="M324 -20q-101 0 -161.5 61.5t-60.5 160.5v496q0 99 60.5 160.5t161.5 61.5q99 0 159 -61.5t60 -160.5v-45h-150v45q0 32 -19 52t-50 20q-33 0 -52.5 -20t-19.5 -52v-128q30 24 83 24q91 0 149.5 -61t58.5 -161v-170q0 -99 -60 -160.5t-159 -61.5zM324 130q31 0 50 20.5
t19 51.5v170q0 32 -18.5 52t-51.5 20q-35 0 -53 -19.5t-18 -51.5v-171q0 -31 19.5 -51.5t52.5 -20.5z" />
    <glyph glyph-name="six.numr" horiz-adv-x="635" 
d="M324 580q-101 0 -161.5 61.5t-60.5 160.5v496q0 99 60.5 160.5t161.5 61.5q99 0 159 -61.5t60 -160.5v-45h-150v45q0 32 -19 52t-50 20q-33 0 -52.5 -20t-19.5 -52v-128q30 24 83 24q91 0 149.5 -61t58.5 -161v-170q0 -99 -60 -160.5t-159 -61.5zM324 730q31 0 50 20.5
t19 51.5v170q0 32 -18.5 52t-51.5 20q-35 0 -53 -19.5t-18 -51.5v-171q0 -31 19.5 -51.5t52.5 -20.5z" />
    <glyph glyph-name="six.tf" horiz-adv-x="960" 
d="M489 -32q-165 0 -264.5 102t-99.5 268v824q0 167 99.5 268.5t264.5 101.5t264.5 -101.5t99.5 -268.5v-70h-230v70q0 63 -36 101.5t-98 38.5q-61 0 -97.5 -38.5t-36.5 -101.5v-325l-43 58q61 98 196 98q100 0 177.5 -46t122.5 -129.5t45 -194.5v-285q0 -166 -99.5 -268
t-264.5 -102zM489 198q62 0 98 38.5t36 101.5v285q0 63 -36.5 101.5t-99.5 38.5q-61 0 -96.5 -38.5t-35.5 -101.5v-285q0 -63 36.5 -101.5t97.5 -38.5z" />
    <glyph glyph-name="three.dnom" horiz-adv-x="600" 
d="M284 -20q-101 0 -161.5 61.5t-60.5 160.5v45h150v-45q0 -31 19.5 -51.5t52.5 -20.5q31 0 50 20.5t19 51.5v115q0 32 -19 52t-50 20h-92v150h92q31 0 50 19.5t19 52.5v87q0 32 -19 52t-50 20q-33 0 -52.5 -20t-19.5 -52v-45h-150v45q0 99 60.5 160.5t161.5 61.5
q99 0 159 -61.5t60 -160.5v-87q0 -43 -12.5 -81.5t-37.5 -66.5q24 -26 37 -63.5t13 -82.5v-115q0 -99 -60 -160.5t-159 -61.5z" />
    <glyph glyph-name="three.numr" horiz-adv-x="600" 
d="M284 580q-101 0 -161.5 61.5t-60.5 160.5v45h150v-45q0 -31 19.5 -51.5t52.5 -20.5q31 0 50 20.5t19 51.5v115q0 32 -19 52t-50 20h-92v150h92q31 0 50 19.5t19 52.5v87q0 32 -19 52t-50 20q-33 0 -52.5 -20t-19.5 -52v-45h-150v45q0 99 60.5 160.5t161.5 61.5
q99 0 159 -61.5t60 -160.5v-87q0 -43 -12.5 -81.5t-37.5 -66.5q24 -26 37 -63.5t13 -82.5v-115q0 -99 -60 -160.5t-159 -61.5z" />
    <glyph glyph-name="three.tf" horiz-adv-x="960" 
d="M455 -32q-171 0 -274 102t-103 268v70h230v-70q0 -63 39.5 -101.5t107.5 -38.5q67 0 107 38.5t40 101.5v178q0 63 -40 101.5t-107 38.5h-146v230h146q67 0 107 38.5t40 101.5v136q0 63 -40 101.5t-107 38.5q-68 0 -107.5 -38.5t-39.5 -101.5v-70h-230v70q0 167 103 268.5
t274 101.5q170 0 273.5 -101.5t103.5 -268.5v-136q0 -98 -38.5 -174.5t-106.5 -122.5l1 88q68 -48 106 -125.5t38 -175.5v-178q0 -166 -103.5 -268t-273.5 -102z" />
    <glyph glyph-name="tilde.case" horiz-adv-x="794" 
d="M550 1324q-50 0 -87.5 19t-60.5 35q-24 17 -42.5 29.5t-36.5 12.5q-16 0 -23.5 -10t-7.5 -26v-50h-174v66q0 75 37.5 117.5t107.5 42.5q45 0 82 -16t62 -35q24 -17 43.5 -31t39.5 -14q17 0 24 11t7 26v52h173v-69q0 -75 -38 -117.5t-106 -42.5z" />
    <glyph glyph-name="two.dnom" horiz-adv-x="588" 
d="M70 0v138q0 85 29.5 141.5t72.5 95.5t86.5 70t73 63t29.5 76v114q0 32 -19 52t-53 20q-31 0 -50 -20t-19 -52v-45h-150v45q0 99 60.5 160.5t158.5 61.5q101 0 161.5 -61.5t60.5 -160.5v-114q0 -67 -29 -113t-71 -81t-84 -67t-70.5 -69t-28.5 -88v-16h283v-150h-441z" />
    <glyph glyph-name="two.numr" horiz-adv-x="588" 
d="M70 600v138q0 85 29.5 141.5t72.5 95.5t86.5 70t73 63t29.5 76v114q0 32 -19 52t-53 20q-31 0 -50 -20t-19 -52v-45h-150v45q0 99 60.5 160.5t158.5 61.5q101 0 161.5 -61.5t60.5 -160.5v-114q0 -67 -29 -113t-71 -81t-84 -67t-70.5 -69t-28.5 -88v-16h283v-150h-441z
" />
    <glyph glyph-name="two.tf" horiz-adv-x="960" 
d="M94 0v209q0 117 38.5 203t99.5 149.5t128.5 114.5t128.5 97t99.5 96t38.5 114v179q0 63 -41.5 101.5t-109.5 38.5q-67 0 -109.5 -38.5t-42.5 -101.5v-70h-230v70q0 111 48 194.5t134 129.5t200 46t200 -46t133.5 -129.5t47.5 -194.5v-179q0 -92 -37.5 -161.5t-97 -125.5
t-125.5 -105t-125.5 -99t-97 -106.5t-37.5 -129.5v-130l-104 104h624v-230h-763z" />
    <glyph glyph-name="y.ss02" horiz-adv-x="913" 
d="M438 -366q-157 0 -251.5 100.5t-94.5 264.5v38h215v-53q0 -60 34.5 -97.5t97.5 -37.5q62 0 97.5 37.5t35.5 97.5v315l37 -49q-33 -64 -91.5 -99.5t-143.5 -35.5q-73 0 -137 32.5t-104 108.5t-40 208v631h215v-631q0 -60 34.5 -97t97.5 -37t97.5 36.5t34.5 97.5v631h215
v-1099q0 -109 -44 -190.5t-122 -126.5t-183 -45z" />
    <glyph glyph-name="yacute.ss02" horiz-adv-x="913" 
d="M438 -366q-157 0 -251.5 100.5t-94.5 264.5v38h215v-53q0 -60 34.5 -97.5t97.5 -37.5q62 0 97.5 37.5t35.5 97.5v315l37 -49q-33 -64 -91.5 -99.5t-143.5 -35.5q-73 0 -137 32.5t-104 108.5t-40 208v631h215v-631q0 -60 34.5 -97t97.5 -37t97.5 36.5t34.5 97.5v631h215
v-1099q0 -109 -44 -190.5t-122 -126.5t-183 -45zM357 1216l122 344h231l-189 -344h-164z" />
    <glyph glyph-name="ycircumflex.ss02" horiz-adv-x="913" 
d="M438 -366q-157 0 -251.5 100.5t-94.5 264.5v38h215v-53q0 -60 34.5 -97.5t97.5 -37.5q62 0 97.5 37.5t35.5 97.5v315l37 -49q-33 -64 -91.5 -99.5t-143.5 -35.5q-73 0 -137 32.5t-104 108.5t-40 208v631h215v-631q0 -60 34.5 -97t97.5 -37t97.5 36.5t34.5 97.5v631h215
v-1099q0 -109 -44 -190.5t-122 -126.5t-183 -45zM118 1261l231 299h180l232 -299h-202l-119 167l-120 -167h-202z" />
    <glyph glyph-name="ydieresis.ss02" horiz-adv-x="913" 
d="M438 -366q-157 0 -251.5 100.5t-94.5 264.5v38h215v-53q0 -60 34.5 -97.5t97.5 -37.5q62 0 97.5 37.5t35.5 97.5v315l37 -49q-33 -64 -91.5 -99.5t-143.5 -35.5q-73 0 -137 32.5t-104 108.5t-40 208v631h215v-631q0 -60 34.5 -97t97.5 -37t97.5 36.5t34.5 97.5v631h215
v-1099q0 -109 -44 -190.5t-122 -126.5t-183 -45zM188 1308v252h190v-252h-190zM507 1308v252h189v-252h-189z" />
    <glyph glyph-name="zero.dnom" horiz-adv-x="645" 
d="M324 -20q-101 0 -161.5 61.5t-60.5 160.5v496q0 99 60.5 160.5t161.5 61.5q99 0 159 -61.5t60 -160.5v-496q0 -99 -60 -160.5t-159 -61.5zM324 130q31 0 50 20.5t19 51.5v496q0 32 -19 52t-50 20q-33 0 -52.5 -20t-19.5 -52v-496q0 -31 19.5 -51.5t52.5 -20.5zM368 770
h87l-177 -640h-86z" />
    <glyph glyph-name="zero.numr" horiz-adv-x="645" 
d="M324 580q-101 0 -161.5 61.5t-60.5 160.5v496q0 99 60.5 160.5t161.5 61.5q99 0 159 -61.5t60 -160.5v-496q0 -99 -60 -160.5t-159 -61.5zM324 730q31 0 50 20.5t19 51.5v496q0 32 -19 52t-50 20q-33 0 -52.5 -20t-19.5 -52v-496q0 -31 19.5 -51.5t52.5 -20.5zM368 1370
h87l-177 -640h-86z" />
    <glyph glyph-name="zero.tf" horiz-adv-x="960" 
d="M480 -32q-163 0 -261 102t-98 268v824q0 167 98 268.5t261 101.5t260.5 -101.5t97.5 -268.5v-824q0 -166 -97.5 -268t-260.5 -102zM480 198q59 0 94.5 38.5t35.5 101.5v824q0 63 -35.5 101.5t-94.5 38.5q-60 0 -95.5 -38.5t-35.5 -101.5v-824q0 -63 35.5 -101.5
t95.5 -38.5zM561 1302h132l-294 -1104h-132z" />
    </font>
</defs>
</svg>
