<?xml version="1.0" standalone="no"?>
<!DOCTYPE svg PUBLIC "-//W3C//DTD SVG 1.1//EN" "http://www.w3.org/Graphics/SVG/1.1/DTD/svg11.dtd" >
<svg xmlns="http://www.w3.org/2000/svg" xmlns:xlink="http://www.w3.org/1999/xlink" version="1.1">
<metadata>
Created by FontForge 20170731 at Wed Aug 11 00:54:22 2021
 By Aleksey,,,
Copyright 2019 The Mohave Project Authors (https://github.com/tokotype/Mohave-Typefaces)
</metadata>
<defs>
<font id="Mohave-Regular" horiz-adv-x="919" >
  <font-face 
    font-family="Mohave"
    font-weight="400"
    font-stretch="normal"
    units-per-em="2000"
    panose-1="0 0 0 0 0 0 0 0 0 0"
    ascent="1600"
    descent="-400"
    x-height="1085"
    cap-height="1500"
    bbox="-195 -806 1921 1975"
    underline-thickness="125"
    underline-position="-346"
    unicode-range="U+0020-FB02"
  />
<missing-glyph horiz-adv-x="1017" 
d="M169 0v1500h680v-1500h-680zM294 125h430v1250h-430v-1250z" />
    <glyph glyph-name="fi" unicode="fi" horiz-adv-x="1071" 
d="M212 0v948h-201v137h201v72q0 107 42.5 189t120 128t181.5 46h76v-145h-76q-91 0 -145 -60t-54 -158v-72h275v-137h-275v-948h-145zM784 0v1085h145v-1085h-145zM784 1206v234h145v-234h-145z" />
    <glyph glyph-name="fl" unicode="fl" horiz-adv-x="1071" 
d="M212 0v948h-201v137h201v72q0 107 42.5 189t120 128t181.5 46h76v-145h-76q-91 0 -145 -60t-54 -158v-72h275v-137h-275v-948h-145zM784 0v1500h145v-1500h-145z" />
    <glyph glyph-name="f_f" unicode="ff" horiz-adv-x="1284" 
d="M212 0v948h-201v137h201v72q0 107 42.5 189t120 128t181.5 46h76v-145h-76q-91 0 -145 -60t-54 -158v-72h275v-137h-275v-948h-145zM854 0v948h-201v137h201v72q0 107 42.5 189t120 128t181.5 46h76v-145h-76q-91 0 -145 -60t-54 -158v-72h275v-137h-275v-948h-145z" />
    <glyph glyph-name="f_f_i" unicode="ffi" horiz-adv-x="1713" 
d="M212 0v948h-201v137h201v72q0 107 42.5 189t120 128t181.5 46h76v-145h-76q-91 0 -145 -60t-54 -158v-72h275v-137h-275v-948h-145zM854 0v948h-201v137h201v72q0 107 42.5 189t120 128t181.5 46h76v-145h-76q-91 0 -145 -60t-54 -158v-72h275v-137h-275v-948h-145z
M1426 0v1085h145v-1085h-145zM1426 1206v234h145v-234h-145z" />
    <glyph glyph-name="f_f_l" unicode="ffl" horiz-adv-x="1713" 
d="M212 0v948h-201v137h201v72q0 107 42.5 189t120 128t181.5 46h76v-145h-76q-91 0 -145 -60t-54 -158v-72h275v-137h-275v-948h-145zM854 0v948h-201v137h201v72q0 107 42.5 189t120 128t181.5 46h76v-145h-76q-91 0 -145 -60t-54 -158v-72h275v-137h-275v-948h-145z
M1426 0v1500h145v-1500h-145z" />
    <glyph glyph-name=".notdef" horiz-adv-x="1017" 
d="M169 0v1500h680v-1500h-680zM294 125h430v1250h-430v-1250z" />
    <glyph glyph-name="uni0000" horiz-adv-x="1200" 
 />
    <glyph glyph-name="uni0000" horiz-adv-x="1200" 
 />
    <glyph glyph-name="nonmarkingreturn" horiz-adv-x="666" 
 />
    <glyph glyph-name="space" unicode=" " horiz-adv-x="428" 
 />
    <glyph glyph-name="exclam" unicode="!" horiz-adv-x="544" 
d="M197 420v1080h150v-1080h-150zM197 0v300h150v-300h-150z" />
    <glyph glyph-name="quotedbl" unicode="&#x22;" horiz-adv-x="834" 
d="M157 1060l80 440h145l-80 -440h-145zM452 1060l80 440h145l-80 -440h-145z" />
    <glyph glyph-name="numbersign" unicode="#" horiz-adv-x="1136" 
d="M1035 994h-167v-454h167v-149h-167v-391h-150v391h-300v-391h-150v391h-168v150h168v454h-168v149h168v356h150v-356h300v356h150v-356h167v-150zM718 540v454l-300 1v-454z" />
    <glyph glyph-name="dollar" unicode="$" horiz-adv-x="997" 
d="M551 -200h-110v1900h110v-1900zM499 -32q-160 0 -257.5 102t-97.5 268v50h150v-50q0 -99 56 -159.5t149 -60.5t149 60.5t56 159.5v112q0 55 -4 87.5t-21.5 52.5t-60 37.5t-119.5 42.5q-133 44 -206 73t-104.5 62t-38 87.5t-6.5 147.5v122q0 167 97.5 268.5t257.5 101.5
q161 0 258 -101.5t97 -268.5v-50h-150v50q0 99 -56 159.5t-149 60.5t-149 -60.5t-56 -159.5v-122q0 -55 4 -87.5t22 -52t60 -37.5t119 -43q133 -43 206 -72.5t104.5 -62.5t38 -87t6.5 -148v-112q0 -166 -97 -268t-258 -102z" />
    <glyph glyph-name="percent" unicode="%" horiz-adv-x="1427" 
d="M320 0l658 1500h130l-658 -1500h-130zM352 815q-109 0 -175.5 68.5t-66.5 179.5v215q0 111 66.5 179.5t175.5 68.5t175.5 -68.5t66.5 -179.5v-215q0 -111 -66.5 -179.5t-175.5 -68.5zM352 933q55 0 88.5 36t33.5 94v215q0 58 -34 94t-88 36q-55 0 -89.5 -36t-34.5 -94
v-215q0 -58 34.5 -94t89.5 -36zM1075 -26q-108 0 -174.5 68.5t-66.5 179.5v215q0 111 66.5 179.5t174.5 68.5q109 0 175.5 -68.5t66.5 -179.5v-215q0 -111 -66.5 -179.5t-175.5 -68.5zM1075 92q55 0 89 36t34 94v215q0 58 -34 94t-88 36q-56 0 -90 -36t-34 -94v-215
q0 -58 34 -94t89 -36z" />
    <glyph glyph-name="ampersand" unicode="&#x26;" horiz-adv-x="1075" 
d="M515 -26q-158 0 -255.5 102t-97.5 268v148q0 107 40.5 187.5t111.5 126.5l-152 263v87q0 166 97.5 268t257.5 102q161 0 258 -101.5t97 -268.5v-50h-150v50q0 99 -56 159.5t-149 60.5t-149 -60.5t-56 -159.5v-87l418 -708l87 450h123l-114 -616l101 -172v-23h-140l-42 71
q-41 -46 -97 -71.5t-133 -25.5zM519 124q100 0 156 70l-283 477q-80 -61 -80 -179v-148q0 -99 56 -159.5t151 -60.5z" />
    <glyph glyph-name="quotesingle" unicode="'" horiz-adv-x="539" 
d="M157 1060l80 440h145l-80 -440h-145z" />
    <glyph glyph-name="parenleft" unicode="(" horiz-adv-x="658" 
d="M501 -360q-160 0 -257.5 102t-97.5 268v1180q0 167 97.5 268.5t257.5 101.5h110v-150h-110q-93 0 -149 -60.5t-56 -159.5v-1180q0 -99 56 -159.5t149 -60.5h110v-150h-110z" />
    <glyph glyph-name="parenright" unicode=")" horiz-adv-x="658" 
d="M47 -360v150h110q93 0 149 60.5t56 159.5v1180q0 99 -56 159.5t-149 60.5h-110v150h110q161 0 258 -101.5t97 -268.5v-1180q0 -166 -97 -268t-258 -102h-110z" />
    <glyph glyph-name="asterisk" unicode="*" horiz-adv-x="908" 
d="M398 1500h113v-605h-113v605zM137 1318l54 97l581 -335l-56 -97zM772 1317l-579 -335l-56 98l581 335z" />
    <glyph glyph-name="plus" unicode="+" horiz-adv-x="1076" 
d="M113 469v150h850v-150h-850zM464 930h150v-770h-150v770z" />
    <glyph glyph-name="comma" unicode="," horiz-adv-x="539" 
d="M157 -110l80 358h145l-80 -358h-145z" />
    <glyph glyph-name="hyphen" unicode="-" horiz-adv-x="854" 
d="M142 469v150h570v-150h-570z" />
    <glyph glyph-name="period" unicode="." horiz-adv-x="544" 
d="M197 0v248h150v-248h-150z" />
    <glyph glyph-name="slash" unicode="/" horiz-adv-x="701" 
d="M4 -100l536 1660h157l-536 -1660h-157z" />
    <glyph glyph-name="zero" unicode="0" horiz-adv-x="1003" 
d="M501 -32q-159 0 -256.5 102t-97.5 268v824q0 167 97.5 268.5t256.5 101.5q162 0 259 -101.5t97 -268.5v-824q0 -166 -97 -268t-259 -102zM502 118q93 0 149 60.5t56 159.5v824q0 99 -56 159.5t-149 60.5t-149 -60.5t-56 -159.5v-824q0 -99 56 -159.5t149 -60.5zM626 1382
h98l-346 -1264h-98z" />
    <glyph glyph-name="one" unicode="1" horiz-adv-x="563" 
d="M244 0v1178h-204v150h36q80 0 124 40t44 110v22h150v-1500h-150z" />
    <glyph glyph-name="two" unicode="2" horiz-adv-x="893" 
d="M88 0v126q0 112 40.5 201.5t104.5 164t135 139t135 126.5t104.5 127t40.5 140v138q0 99 -56 159.5t-149 60.5t-149 -60.5t-56 -159.5v-50h-150v50q0 167 97.5 268.5t257.5 101.5q161 0 258 -102t97 -268v-138q0 -88 -40 -164.5t-103 -144.5t-133.5 -132.5t-133.5 -130
t-103 -135t-40 -149.5v-86l-68 68h621v-150h-710z" />
    <glyph glyph-name="three" unicode="3" horiz-adv-x="929" 
d="M441 -32q-160 0 -257.5 102t-97.5 268v50h150v-50q0 -99 56 -159.5t149 -60.5t149 60.5t56 159.5v134q0 99 -56 159.5t-149 60.5h-117v150h117q93 0 149 60.5t56 159.5v100q0 99 -56 159.5t-149 60.5t-149 -60.5t-56 -159.5v-50h-150v50q0 167 97.5 268.5t257.5 101.5
q161 0 258 -101.5t97 -268.5v-100q0 -109 -43.5 -191.5t-121.5 -127.5l1 51q77 -46 120.5 -129t43.5 -193v-134q0 -166 -97 -268t-258 -102z" />
    <glyph glyph-name="four" unicode="4" horiz-adv-x="954" 
d="M608 0v327h-560v139l561 1034h149v-1025h140v-148h-140v-327h-150zM172 415l-36 60h472v757z" />
    <glyph glyph-name="five" unicode="5" horiz-adv-x="970" 
d="M504 -32q-159 0 -256.5 102t-97.5 268v50h150v-50q0 -99 56 -159.5t149 -60.5t149 60.5t56 159.5v294q0 99 -57.5 159.5t-152.5 60.5q-94 0 -147 -60t-53 -159v-21h-150v888h695v-150h-613l68 68v-579l-27 34q37 62 97 95.5t144 33.5q101 0 179 -46t122.5 -129.5
t44.5 -194.5v-294q0 -166 -97 -268t-259 -102z" />
    <glyph glyph-name="six" unicode="6" horiz-adv-x="985" 
d="M501 -32q-159 0 -256.5 102t-97.5 268v824q0 167 97.5 268.5t256.5 101.5q162 0 259 -101.5t97 -268.5v-50h-150v50q0 99 -56 159.5t-149 60.5t-149 -60.5t-56 -159.5v-323l-27 34q37 62 97 95.5t144 33.5q101 0 179 -46t122.5 -129.5t44.5 -194.5v-294q0 -166 -97 -268
t-259 -102zM502 118q93 0 149 60.5t56 159.5v294q0 99 -57.5 159.5t-152.5 60.5q-94 0 -147 -60t-53 -159v-295q0 -99 56 -159.5t149 -60.5z" />
    <glyph glyph-name="seven" unicode="7" horiz-adv-x="779" 
d="M188 0l399 1415l48 -65h-601v150h693v-132l-379 -1368h-160z" />
    <glyph glyph-name="eight" unicode="8" horiz-adv-x="975" 
d="M488 -32q-160 0 -257.5 102t-97.5 268v133q0 110 43 192.5t121 128.5l1 -50q-78 44 -121.5 126.5t-43.5 192.5v101q0 167 97.5 268.5t257.5 101.5q161 0 258 -101.5t97 -268.5v-101q0 -110 -43.5 -192.5t-122.5 -126.5l2 50q77 -46 120.5 -128.5t43.5 -192.5v-133
q0 -166 -97 -268t-258 -102zM488 118q93 0 149 60.5t56 159.5v133q0 99 -56 159.5t-149 60.5t-149 -60.5t-56 -159.5v-133q0 -99 56 -159.5t149 -60.5zM488 841q93 0 149 60.5t56 159.5v101q0 99 -56 159.5t-149 60.5t-149 -60.5t-56 -159.5v-101q0 -99 56 -159.5t149 -60.5
z" />
    <glyph glyph-name="nine" unicode="9" horiz-adv-x="986" 
d="M484 -32q-160 0 -257.5 102t-97.5 268v50h150v-50q0 -99 56 -159.5t149 -60.5t149 60.5t56 159.5v323l27 -34q-37 -61 -96.5 -94.5t-144.5 -33.5q-101 0 -179 46.5t-122.5 129.5t-44.5 194v293q0 167 97.5 268.5t257.5 101.5q161 0 258 -101.5t97 -268.5v-824
q0 -166 -97 -268t-258 -102zM489 649q94 0 147 59.5t53 158.5v295q0 99 -56 159.5t-149 60.5t-149 -60.5t-56 -159.5v-293q0 -99 57 -159.5t153 -60.5z" />
    <glyph glyph-name="colon" unicode=":" horiz-adv-x="544" 
d="M197 638v247h150v-247h-150zM197 0v248h150v-248h-150z" />
    <glyph glyph-name="semicolon" unicode=";" horiz-adv-x="541" 
d="M133 -110l80 358h145l-80 -358h-145zM208 638v247h150v-247h-150z" />
    <glyph glyph-name="less" unicode="&#x3c;" horiz-adv-x="863" 
d="M741 0l-652 469v115l652 466v-155l-503 -369l503 -370v-156z" />
    <glyph glyph-name="equal" unicode="=" horiz-adv-x="1094" 
d="M212 269v150h670v-150h-670zM212 669v150h670v-150h-670z" />
    <glyph glyph-name="greater" unicode="&#x3e;" horiz-adv-x="863" 
d="M119 0v156l503 370l-503 369v155l653 -466v-115z" />
    <glyph glyph-name="question" unicode="?" horiz-adv-x="879" 
d="M343 345v73q0 91 29 160.5t72.5 125t86.5 105.5t72.5 101.5t29.5 113.5v138q0 99 -56 159.5t-149 60.5t-149 -60.5t-56 -159.5v-50h-150v50q0 167 97.5 268.5t257.5 101.5q161 0 258 -102t97 -268v-138q0 -73 -29.5 -133.5t-72.5 -114.5t-86.5 -108.5t-73 -115.5
t-29.5 -134v-73h-149zM343 0v250h150v-250h-150z" />
    <glyph glyph-name="at" unicode="@" horiz-adv-x="1360" 
d="M678 1526q152 0 266 -63.5t178 -178.5t64 -268v-1016h-145v83q-35 -51 -97 -80t-133 -29q-130 0 -212 92.5t-82 244.5v322q0 151 83.5 242.5t215.5 91.5q71 0 132 -27.5t93 -74.5v151q0 110 -46 192t-127.5 127.5t-190.5 45.5q-163 0 -260.5 -100t-97.5 -265v-869
q0 -144 85.5 -232.5t226.5 -88.5h425v-145h-425q-137 0 -240 58.5t-160 163t-57 244.5v869q0 153 62.5 268t176 178.5t265.5 63.5zM847 114q85 0 139.5 54t54.5 143v322q0 88 -54.5 141t-139.5 53q-86 0 -135.5 -53t-49.5 -141v-322q0 -89 49.5 -143t135.5 -54z" />
    <glyph glyph-name="A" unicode="A" 
d="M54 0l326 1500h160l325 -1500h-155l-64 300h-373l-64 -300h-155zM301 450h317l-170 835h24z" />
    <glyph glyph-name="B" unicode="B" horiz-adv-x="1021" 
d="M176 0v1500h370q148 0 236.5 -93t88.5 -247v-122q0 -94 -35 -167.5t-97 -116.5l-3 52q71 -41 113 -118.5t42 -179.5v-168q0 -152 -88.5 -246t-236.5 -94h-390zM326 150h240q80 0 127.5 52.5t47.5 137.5v168q0 85 -47.5 137.5t-127.5 52.5h-240v-548zM326 848h220
q80 0 127.5 52t47.5 138v122q0 86 -47.5 138t-127.5 52h-220v-502z" />
    <glyph glyph-name="C" unicode="C" horiz-adv-x="956" 
d="M864 388v-50q0 -166 -97 -268t-258 -102q-160 0 -257.5 102t-97.5 268v824q0 167 97.5 268.5t257.5 101.5q161 0 258 -101.5t97 -268.5v-50h-150v50q0 99 -56 159.5t-149 60.5t-149 -60.5t-56 -159.5v-824q0 -99 56 -159.5t149 -60.5t149 60.5t56 159.5v50h150z" />
    <glyph glyph-name="D" unicode="D" horiz-adv-x="1017" 
d="M176 0v1500h340q161 0 258 -101.5t97 -268.5v-760q0 -166 -97 -268t-258 -102h-340zM326 150h190q93 0 149 60.5t56 159.5v760q0 99 -56 159.5t-149 60.5h-190v-1200z" />
    <glyph glyph-name="E" unicode="E" horiz-adv-x="865" 
d="M781 1500v-150h-455v-525h401v-150h-401v-525h455v-150h-605v1500h605z" />
    <glyph glyph-name="F" unicode="F" horiz-adv-x="838" 
d="M176 0v1500h605v-150h-455v-615h401v-150h-401v-585h-150z" />
    <glyph glyph-name="G" unicode="G" horiz-adv-x="992" 
d="M509 -32q-160 0 -257.5 102t-97.5 268v824q0 167 97.5 268.5t257.5 101.5q161 0 258 -101.5t97 -268.5v-50h-150v50q0 99 -56 159.5t-149 60.5t-149 -60.5t-56 -159.5v-824q0 -99 56 -159.5t149 -60.5t149 60.5t56 159.5v232h-201v150h351v-382q0 -166 -97 -268
t-258 -102z" />
    <glyph glyph-name="H" unicode="H" horiz-adv-x="1037" 
d="M176 0v1500h150v-765h385v765h150v-1500h-150v585h-385v-585h-150z" />
    <glyph glyph-name="I" unicode="I" horiz-adv-x="502" 
d="M326 0h-150v1500h150v-1500z" />
    <glyph glyph-name="J" unicode="J" horiz-adv-x="657" 
d="M38 -12v150h100q93 0 149 60.5t56 159.5v1142h150v-1142q0 -166 -97 -268t-258 -102h-100z" />
    <glyph glyph-name="K" unicode="K" horiz-adv-x="981" 
d="M774 0l-365 786l-103 -150v249l429 615h163l-389 -567l427 -933h-162zM176 0v1500h150v-1500h-150z" />
    <glyph glyph-name="L" unicode="L" horiz-adv-x="782" 
d="M326 1500v-1350h415v-150h-565v1500h150z" />
    <glyph glyph-name="M" unicode="M" horiz-adv-x="1300" 
d="M176 0v1500h156l335 -1286h-34l335 1286h156v-1500h-145v1098l17 -3l-287 -1095h-118l-287 1095l17 3v-1098h-145z" />
    <glyph glyph-name="N" unicode="N" horiz-adv-x="1057" 
d="M176 0v1500h133l469 -1222l-42 -5v1227h145v-1500h-132l-470 1223l42 5v-1228h-145z" />
    <glyph glyph-name="O" unicode="O" horiz-adv-x="1018" 
d="M509 -32q-160 0 -257.5 102t-97.5 268v824q0 167 97.5 268.5t257.5 101.5q161 0 258 -101.5t97 -268.5v-824q0 -166 -97 -268t-258 -102zM509 118q93 0 149 60.5t56 159.5v824q0 99 -56 159.5t-149 60.5t-149 -60.5t-56 -159.5v-824q0 -99 56 -159.5t149 -60.5z" />
    <glyph glyph-name="P" unicode="P" horiz-adv-x="951" 
d="M176 0v1500h370q148 0 236.5 -93t88.5 -247v-162q0 -153 -88.5 -246.5t-236.5 -93.5h-220v-658h-150zM326 808h220q80 0 127.5 52t47.5 138v162q0 86 -47.5 138t-127.5 52h-220v-542z" />
    <glyph glyph-name="Q" unicode="Q" horiz-adv-x="1018" 
d="M644 -181l-196 619h153l196 -619h-153zM509 -32q-160 0 -257.5 102t-97.5 268v824q0 167 97.5 268.5t257.5 101.5q161 0 258 -101.5t97 -268.5v-824q0 -166 -97 -268t-258 -102zM509 118q93 0 149 60.5t56 159.5v824q0 99 -56 159.5t-149 60.5t-149 -60.5t-56 -159.5
v-824q0 -99 56 -159.5t149 -60.5z" />
    <glyph glyph-name="R" unicode="R" horiz-adv-x="1023" 
d="M176 0v1500h370q148 0 236.5 -93t88.5 -247v-202q0 -104 -42.5 -183t-120.5 -120l-7 44q80 -31 125 -98t45 -158v-443h-150v443q0 78 -47.5 126.5t-127.5 48.5h-220v-618h-150zM326 768h220q80 0 127.5 52t47.5 138v202q0 86 -47.5 138t-127.5 52h-220v-582z" />
    <glyph glyph-name="S" unicode="S" horiz-adv-x="944" 
d="M473 -32q-160 0 -257.5 102t-97.5 268v50h150v-50q0 -99 56 -159.5t149 -60.5t149 60.5t56 159.5v112q0 55 -4 87.5t-22 52.5t-60 37.5t-119 42.5q-133 44 -206 73t-104.5 62t-38 87.5t-6.5 147.5v122q0 167 97.5 268.5t257.5 101.5q161 0 258 -101.5t97 -268.5v-50h-150
v50q0 99 -56 159.5t-149 60.5t-149 -60.5t-56 -159.5v-122q0 -55 3.5 -87.5t21.5 -52t60.5 -37.5t119.5 -43q133 -43 206 -72.5t104.5 -62.5t38 -87t6.5 -148v-112q0 -166 -97 -268t-258 -102z" />
    <glyph glyph-name="T" unicode="T" horiz-adv-x="741" 
d="M296 0v1350h-258v150h665v-150h-257v-1350h-150z" />
    <glyph glyph-name="U" unicode="U" horiz-adv-x="1042" 
d="M876 1500v-1162q0 -166 -97 -268t-258 -102q-160 0 -257.5 102t-97.5 268v1162h150v-1162q0 -99 56 -159.5t149 -60.5t149 60.5t56 159.5v1162h150z" />
    <glyph glyph-name="V" unicode="V" 
d="M380 0l-326 1500h155l265 -1250h-27l263 1250h155l-325 -1500h-160z" />
    <glyph glyph-name="W" unicode="W" horiz-adv-x="1299" 
d="M288 0l-211 1500h155l160 -1216l-19 1l210 1215h134l209 -1215l-18 -1l160 1216h154l-211 -1500h-160l-212 1150h25l-216 -1150h-160z" />
    <glyph glyph-name="X" unicode="X" horiz-adv-x="916" 
d="M54 0l326 752l-326 748h156l274 -625h-51l273 625h156l-326 -748l326 -752h-155l-274 627h51l-275 -627h-155z" />
    <glyph glyph-name="Y" unicode="Y" horiz-adv-x="944" 
d="M398 0v770l-366 730h154l314 -634h-55l313 634h154l-364 -730v-770h-150z" />
    <glyph glyph-name="Z" unicode="Z" horiz-adv-x="840" 
d="M73 0l-2 117l563 1296l40 -63h-601v150h696v-116l-563 -1296l-40 62h603v-150h-696z" />
    <glyph glyph-name="bracketleft" unicode="[" horiz-adv-x="680" 
d="M169 -360v1920h465v-150h-315v-1620h315v-150h-465z" />
    <glyph glyph-name="backslash" unicode="\" horiz-adv-x="701" 
d="M672 -100h-158l-536 1660h158z" />
    <glyph glyph-name="bracketright" unicode="]" horiz-adv-x="680" 
d="M47 -360v150h315v1620h-315v150h465v-1920h-465z" />
    <glyph glyph-name="asciicircum" unicode="^" horiz-adv-x="872" 
d="M96 1003l284 497h115l281 -497h-144l-195 359l-196 -359h-145z" />
    <glyph glyph-name="underscore" unicode="_" horiz-adv-x="1124" 
d="M197 -190v150h730v-150h-730z" />
    <glyph glyph-name="grave" unicode="`" horiz-adv-x="418" 
d="M232 1216l-176 344h153l135 -344h-112z" />
    <glyph glyph-name="a" unicode="a" horiz-adv-x="909" 
d="M390 -24q-150 0 -232 83t-82 210q0 79 29 131.5t74.5 85.5t96.5 53q61 25 124.5 39.5t117.5 31t87 45.5t33 82v26q0 91 -54.5 146.5t-144.5 55.5q-91 0 -143.5 -55.5t-52.5 -146.5v-30h-145v25q0 158 94 255t247 97q101 0 178.5 -44.5t121.5 -123.5t44 -184v-758h-145
v150l24 -32q-38 -68 -107 -105t-165 -37zM420 114q102 0 160 57.5t58 164.5v192q-61 -38 -136 -51.5t-143 -36.5q-60 -20 -99 -56.5t-39 -103.5q0 -73 52 -119.5t147 -46.5z" />
    <glyph glyph-name="b" unicode="b" horiz-adv-x="939" 
d="M508 -24q-86 0 -147.5 35t-97.5 98l24 32v-141h-145v1500h145v-556l-24 33q36 62 97.5 97.5t147.5 35.5q89 0 160.5 -40t113.5 -117.5t42 -189.5v-439q0 -113 -42 -191t-113.5 -117.5t-160.5 -39.5zM481 121q93 0 145.5 56t52.5 147v439q0 91 -52.5 146.5t-144.5 55.5
q-93 0 -144 -55.5t-51 -146.5v-440q0 -91 51 -146.5t143 -55.5z" />
    <glyph glyph-name="c" unicode="c" horiz-adv-x="870" 
d="M454 -24q-102 0 -179 44t-121 123.5t-44 185.5v429q0 104 44 183.5t121 124t179 44.5q153 0 247 -97t94 -255v-20h-145v25q0 91 -52.5 146.5t-143.5 55.5t-145 -55.5t-54 -146.5v-439q0 -91 54 -147t145 -56t143.5 56t52.5 147v25h145v-20q0 -158 -94 -255.5t-247 -97.5z
" />
    <glyph glyph-name="d" unicode="d" horiz-adv-x="939" 
d="M431 -24q-89 0 -160.5 39.5t-113.5 117.5t-42 191v439q0 112 42 189.5t113.5 117.5t160.5 40q86 0 147.5 -35.5t97.5 -97.5l-24 -33v556h145v-1500h-145v141l24 -32q-36 -63 -97.5 -98t-147.5 -35zM458 121q92 0 143 55.5t51 146.5v440q0 91 -51.5 146.5t-143.5 55.5
t-144.5 -55.5t-52.5 -146.5v-439q0 -91 52.5 -147t145.5 -56z" />
    <glyph glyph-name="e" unicode="e" horiz-adv-x="898" 
d="M454 -24q-102 0 -179 44t-121 123.5t-44 185.5v429q0 104 44 183.5t121 124t179 44.5q153 0 247 -97t94 -255v-237h-569v140h424v102q0 91 -52.5 146.5t-143.5 55.5t-145 -55.5t-54 -146.5v-439q0 -91 54 -147t145 -56t143.5 56t52.5 147v25h145v-20q0 -158 -94 -255.5
t-247 -97.5z" />
    <glyph glyph-name="f" unicode="f" horiz-adv-x="642" 
d="M212 0v948h-201v137h201v72q0 107 42.5 189t120 128t181.5 46h76v-145h-76q-91 0 -145 -60t-54 -158v-72h275v-137h-275v-948h-145z" />
    <glyph glyph-name="g" unicode="g" 
d="M433 -366q-152 0 -246.5 97.5t-94.5 256.5v26h145v-31q0 -91 52.5 -147.5t143.5 -56.5t145 56.5t54 147.5v298l25 -32q-37 -63 -98.5 -98t-146.5 -35q-89 0 -161 39.5t-114 117.5t-42 191v299q0 112 42 189.5t114 117.5t161 40q85 0 146.5 -35.5t98.5 -97.5l-25 -33v141
h145v-1098q0 -106 -44 -185.5t-121 -123.5t-179 -44zM438 261q92 0 143 55.5t51 146.5v300q0 91 -51 146.5t-143 55.5q-93 0 -145.5 -55.5t-52.5 -146.5v-299q0 -91 52.5 -147t145.5 -56z" />
    <glyph glyph-name="h" unicode="h" horiz-adv-x="942" 
d="M142 0v1500h145v-557l-24 31q37 65 99.5 101t147.5 36q86 0 154.5 -38.5t108 -112.5t39.5 -181v-779h-145v764q0 92 -51.5 147t-136.5 55q-87 0 -139.5 -55t-52.5 -147v-764h-145z" />
    <glyph glyph-name="i" unicode="i" horiz-adv-x="429" 
d="M142 0v1085h145v-1085h-145zM142 1206v234h145v-234h-145z" />
    <glyph glyph-name="j" unicode="j" horiz-adv-x="429" 
d="M-118 -366v145h63q90 0 143.5 60.5t53.5 158.5v1087h145v-1081q0 -166 -93.5 -268t-248.5 -102h-63zM142 1206v234h145v-234h-145z" />
    <glyph glyph-name="k" unicode="k" horiz-adv-x="853" 
d="M690 0l-299 582l-123 -158v221l359 442h155l-296 -380l359 -707h-155zM142 0v1500h145v-1500h-145z" />
    <glyph glyph-name="l" unicode="l" horiz-adv-x="429" 
d="M142 0v1500h145v-1500h-145z" />
    <glyph glyph-name="m" unicode="m" horiz-adv-x="1467" 
d="M142 0v1085h145v-144l-24 31q37 66 99.5 102t146.5 36q102 0 178 -52t107 -153l-35 4q31 93 101.5 147t173.5 54q88 0 156 -39t107.5 -113.5t39.5 -179.5v-778h-145v763q0 91 -51.5 146.5t-136.5 55.5q-87 0 -139.5 -55.5t-52.5 -146.5v-763h-145v763q0 91 -51.5 146.5
t-136.5 55.5q-87 0 -139.5 -55.5t-52.5 -146.5v-763h-145z" />
    <glyph glyph-name="n" unicode="n" horiz-adv-x="941" 
d="M142 0v1085h145v-145l-25 29q38 68 101 104.5t147 36.5q136 0 219 -94t83 -253v-763h-145v763q0 91 -51.5 146.5t-136.5 55.5q-87 0 -139.5 -55.5t-52.5 -146.5v-763h-145z" />
    <glyph glyph-name="o" unicode="o" horiz-adv-x="907" 
d="M454 -24q-102 0 -179 44t-121 123.5t-44 185.5v429q0 104 44 183.5t121 124t179 44.5q153 0 247 -97t94 -255v-429q0 -158 -94 -255.5t-247 -97.5zM454 121q91 0 143.5 56t52.5 147v439q0 91 -52.5 146.5t-143.5 55.5t-145 -55.5t-54 -146.5v-439q0 -91 54 -147t145 -56z
" />
    <glyph glyph-name="p" unicode="p" horiz-adv-x="937" 
d="M142 -360v1445h145v-141l-24 33q36 62 97.5 97.5t147.5 35.5q89 0 160.5 -40t113.5 -117.5t42 -189.5v-439q0 -113 -42 -191t-113.5 -117.5t-160.5 -39.5q-86 0 -147.5 35t-97.5 98l24 32v-501h-145zM481 121q93 0 145.5 56t52.5 147v439q0 91 -52.5 146.5t-144.5 55.5
q-93 0 -144 -55.5t-51 -146.5v-440q0 -91 51 -146.5t143 -55.5z" />
    <glyph glyph-name="q" unicode="q" horiz-adv-x="937" 
d="M650 -355v496l25 -32q-37 -63 -98.5 -98t-146.5 -35q-89 0 -161 39.5t-114 117.5t-42 191v439q0 112 42 189.5t114 117.5t161 40q85 0 146.5 -35.5t98.5 -97.5l-25 -33v141h145v-1440h-145zM456 121q93 0 143.5 55.5t50.5 146.5v440q0 91 -51 146.5t-143 55.5
q-93 0 -145.5 -55.5t-52.5 -146.5v-439q0 -91 52.5 -147t145.5 -56z" />
    <glyph glyph-name="r" unicode="r" horiz-adv-x="565" 
d="M142 0v1085h145v-156l-25 30q38 67 101 103t146 36h47v-145h-77q-87 0 -139.5 -54t-52.5 -145v-754h-145z" />
    <glyph glyph-name="s" unicode="s" horiz-adv-x="849" 
d="M432 -24q-155 0 -248.5 89.5t-93.5 236.5v35h145v-41q0 -79 53.5 -127t141.5 -48q85 0 135 48t50 139q0 59 -22.5 90.5t-64.5 47.5t-102 28q-99 21 -175 46.5t-118.5 81.5t-42.5 167q0 166 91.5 253.5t240.5 87.5q155 0 246.5 -89.5t91.5 -235.5v-34h-145v39
q0 80 -51.5 127.5t-139.5 47.5q-86 0 -137.5 -48.5t-51.5 -139.5q0 -59 22.5 -90.5t65.5 -46.5t103 -28q98 -20 173 -46t118 -83t43 -169q0 -163 -89.5 -250.5t-238.5 -87.5z" />
    <glyph glyph-name="t" unicode="t" horiz-adv-x="665" 
d="M549 -12q-155 0 -248.5 98.5t-93.5 264.5v599h-195v137h195v273h145v-273h270v-137h-270v-599q0 -99 54 -158.5t143 -59.5h73v-145h-73z" />
    <glyph glyph-name="u" unicode="u" horiz-adv-x="941" 
d="M431 -24q-86 0 -154 39t-108 116.5t-40 191.5v762h145v-762q0 -91 52 -146.5t137 -55.5q87 0 139 55.5t52 146.5v762h145v-1085h-145v144l25 -31q-37 -65 -100 -101t-148 -36z" />
    <glyph glyph-name="v" unicode="v" horiz-adv-x="835" 
d="M331 0l-310 1085h155l260 -930h-35l258 930h155l-307 -1085h-176z" />
    <glyph glyph-name="w" unicode="w" horiz-adv-x="1103" 
d="M228 0l-173 1085h151l121 -926l-22 2l178 924h137l178 -924l-21 -2l119 926h152l-173 -1085h-164l-172 836h28l-174 -836h-165z" />
    <glyph glyph-name="x" unicode="x" horiz-adv-x="787" 
d="M23 0l297 544l-297 541h157l246 -446h-64l245 446h157l-297 -541l297 -544h-157l-245 449h64l-246 -449h-157z" />
    <glyph glyph-name="y" unicode="y" horiz-adv-x="835" 
d="M240 -360l98 338l-316 1107h158l257 -916h-35l253 916h160l-419 -1445h-156z" />
    <glyph glyph-name="z" unicode="z" horiz-adv-x="756" 
d="M48 0v114l515 884l34 -58h-537v145h649v-113l-509 -886l-35 59h532v-145h-649z" />
    <glyph glyph-name="braceleft" unicode="{" horiz-adv-x="764" 
d="M607 -360q-160 0 -257.5 102t-97.5 268v381q0 61 -32.5 98t-87.5 37h-100v150h100q55 0 87.5 37t32.5 98v379q0 167 97.5 268.5t257.5 101.5h110v-150h-110q-93 0 -149 -60.5t-56 -159.5v-379q0 -65 -23.5 -119.5t-65.5 -89.5q42 -36 65.5 -91t23.5 -120v-381
q0 -99 56 -159.5t149 -60.5h110v-150h-110z" />
    <glyph glyph-name="bar" unicode="|" horiz-adv-x="574" 
d="M362 -300h-150v1860h150v-1860z" />
    <glyph glyph-name="braceright" unicode="}" horiz-adv-x="764" 
d="M47 -360v150h110q93 0 149 60.5t56 159.5v381q0 65 23.5 120t65.5 91q-42 35 -65.5 89.5t-23.5 119.5v379q0 99 -56 159.5t-149 60.5h-110v150h110q161 0 258 -101.5t97 -268.5v-379q0 -61 32.5 -98t87.5 -37h100v-150h-100q-55 0 -87.5 -37t-32.5 -98v-381
q0 -166 -97 -268t-258 -102h-110z" />
    <glyph glyph-name="asciitilde" unicode="~" horiz-adv-x="1124" 
d="M181 403v38q0 104 57.5 162t158.5 58q60 0 104 -18.5t79 -43t67.5 -43t69.5 -18.5q42 0 61.5 25.5t19.5 61.5v39h142v-48q0 -100 -52 -156.5t-139 -56.5q-55 0 -98 19.5t-80 45t-73 45.5t-78 20q-44 0 -71 -26t-27 -71v-33h-141z" />
    <glyph glyph-name="uni00A0" unicode="&#xa0;" horiz-adv-x="428" 
 />
    <glyph glyph-name="exclamdown" unicode="&#xa1;" horiz-adv-x="544" 
d="M197 -415v1080h150v-1080h-150zM197 785v300h150v-300h-150z" />
    <glyph glyph-name="cent" unicode="&#xa2;" horiz-adv-x="978" 
d="M553 -200h-110v1485h110v-1485zM503 -24q-102 0 -179 44t-121 123.5t-44 185.5v429q0 104 44 183.5t121 124t179 44.5q153 0 247 -97t94 -255v-20h-145v25q0 91 -52.5 146.5t-143.5 55.5t-145 -55.5t-54 -146.5v-439q0 -91 54 -147t145 -56t143.5 56t52.5 147v25h145v-20
q0 -158 -94 -255.5t-247 -97.5z" />
    <glyph glyph-name="sterling" unicode="&#xa3;" horiz-adv-x="1085" 
d="M268 0v1156q0 167 97.5 268.5t256.5 101.5q162 0 259 -101.5t97 -268.5v-50h-150v50q0 99 -56 159.5t-149 60.5t-149 -60.5t-56 -159.5v-1156h-150zM123 680v140h585v-140h-585zM123 0v140h747v-140h-747z" />
    <glyph glyph-name="currency" unicode="&#xa4;" horiz-adv-x="1125" 
d="M235 143l-80 81l130 130q-26 38 -41.5 88.5t-15.5 109.5q0 57 14.5 106.5t42.5 88.5l-130 129l80 80l131 -130q83 61 197 61q113 0 196 -59l128 128l81 -80l-128 -127q28 -40 42.5 -91t14.5 -106q0 -117 -59 -198l130 -130l-81 -81l-130 131q-41 -30 -91.5 -44
t-102.5 -14q-53 0 -103.5 14.5t-93.5 44.5zM562 344q87 0 147 57.5t60 150.5t-60 149.5t-146 56.5q-87 0 -147.5 -56.5t-60.5 -150.5q0 -91 59.5 -149t147.5 -58z" />
    <glyph glyph-name="yen" unicode="&#xa5;" horiz-adv-x="1048" 
d="M232 638v140h585v-140h-585zM232 260v140h585v-140h-585zM450 0v770l-366 730h154l287 -559l285 559h154l-364 -730v-770h-150z" />
    <glyph glyph-name="brokenbar" unicode="&#xa6;" horiz-adv-x="574" 
d="M362 -300h-150v731h150v-731zM362 830h-150v730h150v-730z" />
    <glyph glyph-name="section" unicode="&#xa7;" horiz-adv-x="995" 
d="M508 -102q-155 0 -249 102.5t-94 267.5v20h145v-26q0 -98 54 -158.5t146 -60.5q80 0 130.5 48t50.5 139q0 63 -24.5 94t-67 46t-98.5 26q-99 22 -175 47.5t-118.5 82.5t-42.5 170q0 92 30 155.5t83 106.5q-54 41 -86.5 108t-32.5 146q0 91 41 162t115 111.5t172 40.5
q156 0 249.5 -102t93.5 -268v-20h-145v28q0 98 -53.5 157.5t-147.5 59.5q-79 0 -129.5 -47.5t-50.5 -144.5q0 -48 16.5 -78t58.5 -48.5t116 -35.5q100 -21 175.5 -47t117.5 -82.5t42 -168.5q0 -89 -29 -153t-84 -111q56 -40 87.5 -106.5t31.5 -145.5q0 -91 -41 -162
t-115 -112t-172 -41zM501 535q83 1 133.5 49.5t50.5 127.5t-52 128t-138 49q-83 0 -134 -48.5t-51 -127.5q0 -82 53.5 -130.5t137.5 -47.5z" />
    <glyph glyph-name="dieresis" unicode="&#xa8;" horiz-adv-x="688" 
d="M142 1332v228h130v-228h-130zM418 1332v228h128v-228h-128z" />
    <glyph glyph-name="copyright" unicode="&#xa9;" horiz-adv-x="1691" 
d="M843 -26q-212 0 -374 96.5t-252.5 271t-90.5 409.5q0 234 89.5 408t252 270.5t379.5 96.5q215 0 376.5 -95t252 -267.5t90.5 -405.5q0 -232 -90.5 -408.5t-253 -276t-379.5 -99.5zM843 84q184 0 321.5 85.5t214.5 237.5t77 351q0 200 -76.5 348t-213.5 229t-319 81
q-184 0 -321.5 -82.5t-213.5 -232t-76 -350.5q0 -202 76.5 -352t214 -232.5t316.5 -82.5zM845 283q-98 0 -157 61.5t-59 160.5v490q0 100 59 161t157 61t156.5 -61.5t58.5 -160.5v-35h-110v35q0 50 -28.5 81t-77.5 31q-47 0 -76 -30t-29 -82v-490q0 -51 29 -81.5t76 -30.5
q49 0 77.5 31.5t28.5 80.5v35h110v-35q0 -98 -58.5 -160t-156.5 -62z" />
    <glyph glyph-name="ordfeminine" unicode="&#xaa;" horiz-adv-x="744" 
d="M326 837q-87 0 -134 50.5t-47 127.5q0 71 35.5 107t79.5 55q48 21 95.5 32.5t79 29.5t31.5 58v15q0 46 -27.5 74.5t-74.5 28.5t-74.5 -28.5t-27.5 -74.5v-23h-105v17q0 96 57 155t150 59t150 -59t57 -155v-454h-105v93l19 -23q-23 -43 -64 -64t-95 -21zM353 935
q53 0 83 29.5t30 86.5v108q-31 -20 -69.5 -28t-74.5 -21q-32 -12 -52 -31t-20 -55q0 -37 26.5 -63t76.5 -26z" />
    <glyph glyph-name="guillemotleft" unicode="&#xab;" horiz-adv-x="1051" 
d="M955 0l-432 442v85l432 441v-176l-292 -308l292 -307v-177zM483 0l-433 442v85l433 441v-176l-292 -308l292 -307v-177z" />
    <glyph glyph-name="logicalnot" unicode="&#xac;" horiz-adv-x="1127" 
d="M765 231v238h-620v150h770v-388h-150z" />
    <glyph glyph-name="uni00AD" unicode="&#xad;" horiz-adv-x="854" 
d="M149 469v150h570v-150h-570z" />
    <glyph glyph-name="registered" unicode="&#xae;" horiz-adv-x="1691" 
d="M843 -26q-212 0 -374 96.5t-252.5 271t-90.5 409.5q0 234 89.5 408t252 270.5t379.5 96.5q215 0 376.5 -95t252 -267.5t90.5 -405.5q0 -232 -90.5 -408.5t-253 -276t-379.5 -99.5zM843 84q184 0 321.5 85.5t214.5 237.5t77 351q0 200 -76.5 348t-213.5 229t-319 81
q-184 0 -321.5 -82.5t-213.5 -232t-76 -350.5q0 -202 76.5 -352t214 -232.5t316.5 -82.5zM633 300v900h222q91 0 146.5 -57.5t55.5 -151.5v-128q0 -109 -72 -165q31 -19 51.5 -53t20.5 -83v-262h-110v262q0 41 -25 66.5t-67 25.5h-112v-354h-110zM743 764h112q42 0 67 27.5
t25 71.5v128q0 44 -25 71.5t-67 27.5h-112v-326z" />
    <glyph glyph-name="macron" unicode="&#xaf;" horiz-adv-x="720" 
d="M142 1500h436v-115h-436v115z" />
    <glyph glyph-name="degree" unicode="&#xb0;" horiz-adv-x="821" 
d="M411 1035q-67 0 -122.5 30.5t-89.5 86t-34 128.5t33.5 128.5t89.5 86.5t122 31t121.5 -31t89 -86t33.5 -129q0 -73 -33 -128.5t-88.5 -86t-121.5 -30.5zM409 1143q52 0 95 37t43 99q0 64 -43 101.5t-95 37.5t-94.5 -37.5t-42.5 -101.5q0 -62 42.5 -99t94.5 -37z" />
    <glyph glyph-name="plusminus" unicode="&#xb1;" horiz-adv-x="1040" 
d="M135 570v150h770v-150h-770zM446 991h150v-690h-150v690zM135 0v150h770v-150h-770z" />
    <glyph glyph-name="uni00B2" unicode="&#xb2;" horiz-adv-x="559" 
d="M61 660v97q0 81 32.5 141.5t80 106.5t95.5 86t80.5 81t32.5 92v94q0 50 -29 81t-78 31q-46 0 -75 -31t-29 -81v-35h-110v35q0 99 59.5 160.5t154.5 61.5q98 0 157.5 -61.5t59.5 -160.5v-94q0 -65 -32 -115.5t-79 -94.5t-94 -85t-79 -86.5t-32 -100.5v-12h316v-110h-431z
" />
    <glyph glyph-name="uni00B3" unicode="&#xb3;" horiz-adv-x="584" 
d="M275 640q-98 0 -157.5 61.5t-59.5 160.5v35h110v-35q0 -49 29.5 -80.5t77.5 -31.5q46 0 75 31.5t29 80.5v93q0 50 -29 81t-75 31h-79v110h79q46 0 75 30.5t29 81.5v69q0 50 -29 81t-75 31q-48 0 -77.5 -31t-29.5 -81v-35h-110v35q0 99 59.5 160.5t157.5 61.5
q96 0 155 -61.5t59 -160.5v-69q0 -51 -17 -95t-53 -73q31 -25 50.5 -67t19.5 -99v-93q0 -99 -59 -160.5t-155 -61.5z" />
    <glyph glyph-name="acute" unicode="&#xb4;" horiz-adv-x="418" 
d="M74 1216l135 344h153l-176 -344h-112z" />
    <glyph glyph-name="uni00B5" unicode="&#xb5;" horiz-adv-x="1073" 
d="M517 -24q-87 0 -156 40t-109 121t-40 202v748h145v-748q0 -99 51 -158.5t140 -59.5q91 0 142.5 60.5t51.5 157.5v106h76v-99q0 -166 -77 -268t-224 -102zM742 0v1087h145v-1087h-145zM212 -300v1387h145v-1387h-145z" />
    <glyph glyph-name="paragraph" unicode="&#xb6;" horiz-adv-x="911" 
d="M699 -300h-150v1068h-130q-146 0 -235.5 93.5t-89.5 246.5v52q0 154 89.5 247t235.5 93h280v-1800z" />
    <glyph glyph-name="periodcentered" unicode="&#xb7;" horiz-adv-x="534" 
d="M197 423v240h140v-240h-140z" />
    <glyph glyph-name="cedilla" unicode="&#xb8;" horiz-adv-x="519" 
d="M123 -434v114h128q33 0 53 18t20 47q0 30 -20 49t-53 19h-72l-53 35v189h116v-161l-71 15q82 29 142.5 13t93.5 -61.5t33 -104.5q0 -74 -52 -123t-137 -49h-128z" />
    <glyph glyph-name="uni00B9" unicode="&#xb9;" horiz-adv-x="381" 
d="M151 660v701h-127v110h27q47 0 73.5 24t26.5 66v14h110v-915h-110z" />
    <glyph glyph-name="ordmasculine" unicode="&#xba;" horiz-adv-x="706" 
d="M354 837q-93 0 -150 60t-57 155v254q0 96 57 155t150 59t149.5 -59t56.5 -155v-254q0 -97 -56.5 -156t-149.5 -59zM354 941q47 0 74.5 29t27.5 76v266q0 46 -27.5 74.5t-74.5 28.5t-74.5 -28.5t-27.5 -74.5v-266q0 -46 27.5 -75.5t74.5 -29.5z" />
    <glyph glyph-name="guillemotright" unicode="&#xbb;" horiz-adv-x="1051" 
d="M568 0v177l292 307l-292 308v176l432 -441v-85zM95 0v177l292 307l-292 308v176l433 -441v-85z" />
    <glyph glyph-name="onequarter" unicode="&#xbc;" horiz-adv-x="1367" 
d="M151 600v701h-127v110h27q47 0 73.5 24t26.5 66v14h110v-915h-110zM186 0l658 1500h131l-658 -1500h-131zM1123 0v184h-326v100l331 616h105v-605h79v-111h-79v-184h-110zM912 295h211v400z" />
    <glyph glyph-name="onehalf" unicode="&#xbd;" horiz-adv-x="1338" 
d="M151 600v701h-127v110h27q47 0 73.5 24t26.5 66v14h110v-915h-110zM186 0l658 1500h131l-658 -1500h-131zM841 0v97q0 81 32.5 141.5t80 106.5t95.5 86t80.5 81t32.5 92v94q0 50 -29 81t-78 31q-46 0 -75 -31t-29 -81v-35h-110v35q0 99 59.5 160.5t154.5 61.5
q98 0 157.5 -61.5t59.5 -160.5v-94q0 -65 -32 -115.5t-79 -94.5t-94 -85t-79 -86.5t-32 -100.5v-12h316v-110h-431z" />
    <glyph glyph-name="threequarters" unicode="&#xbe;" horiz-adv-x="1570" 
d="M275 580q-98 0 -157.5 61.5t-59.5 160.5v35h110v-35q0 -49 29.5 -80.5t77.5 -31.5q46 0 75 31.5t29 80.5v93q0 50 -29 81t-75 31h-79v110h79q46 0 75 30.5t29 81.5v69q0 50 -29 81t-75 31q-48 0 -77.5 -31t-29.5 -81v-35h-110v35q0 99 59.5 160.5t157.5 61.5
q96 0 155 -61.5t59 -160.5v-69q0 -51 -17 -95t-53 -73q31 -25 50.5 -67t19.5 -99v-93q0 -99 -59 -160.5t-155 -61.5zM389 0l658 1500h131l-658 -1500h-131zM1326 0v184h-326v100l331 616h105v-605h79v-111h-79v-184h-110zM1115 295h211v400z" />
    <glyph glyph-name="questiondown" unicode="&#xbf;" horiz-adv-x="879" 
d="M536 741v-74q0 -91 -29.5 -160t-72.5 -125t-86.5 -106t-72.5 -101.5t-29 -112.5v-139q0 -99 56 -159.5t149 -60.5t149 60.5t56 159.5v50h150v-50q0 -166 -97 -268t-258 -102q-160 0 -257.5 102.5t-97.5 267.5v139q0 72 29 132.5t72.5 114.5t86.5 108.5t72.5 115.5
t29.5 134v74h150zM536 1085v-250h-150v250h150z" />
    <glyph glyph-name="Agrave" unicode="&#xc0;" 
d="M54 0l326 1500h160l325 -1500h-155l-64 300h-373l-64 -300h-155zM301 450h317l-170 835h24zM407 1631l-176 344h153l135 -344h-112z" />
    <glyph glyph-name="Aacute" unicode="&#xc1;" 
d="M54 0l326 1500h160l325 -1500h-155l-64 300h-373l-64 -300h-155zM301 450h317l-170 835h24zM402 1631l135 344h153l-176 -344h-112z" />
    <glyph glyph-name="Acircumflex" unicode="&#xc2;" 
d="M54 0l326 1500h160l325 -1500h-155l-64 300h-373l-64 -300h-155zM301 450h317l-170 835h24zM177 1685l222 290h120l223 -290h-146l-136 189l-137 -189h-146z" />
    <glyph glyph-name="Atilde" unicode="&#xc3;" 
d="M54 0l326 1500h160l325 -1500h-155l-64 300h-373l-64 -300h-155zM301 450h317l-170 835h24zM578 1675q-40 0 -69.5 15t-52.5 31q-28 21 -50.5 37.5t-42.5 16.5t-30.5 -16.5t-10.5 -39.5v-34h-117v41q0 76 37 112.5t93 36.5q41 0 74 -16.5t55 -33.5q25 -19 45.5 -35
t41.5 -16q23 0 32.5 19t9.5 40v40h116v-50q0 -76 -37 -112t-94 -36z" />
    <glyph glyph-name="Adieresis" unicode="&#xc4;" 
d="M54 0l326 1500h160l325 -1500h-155l-64 300h-373l-64 -300h-155zM301 450h317l-170 835h24zM261 1747v228h130v-228h-130zM537 1747v228h128v-228h-128z" />
    <glyph glyph-name="Aring" unicode="&#xc5;" 
d="M54 0l326 1500h160l325 -1500h-155l-64 300h-373l-64 -300h-155zM301 450h317l-170 835h24zM462 1562q-75 0 -129 50t-54 131q0 83 54 133t127 50q74 0 128.5 -50t54.5 -132t-54 -132t-127 -50zM462 1660q31 0 57 23t26 61t-26.5 61.5t-57.5 23.5q-32 0 -58.5 -24
t-26.5 -61q0 -38 26.5 -61t59.5 -23z" />
    <glyph glyph-name="AE" unicode="&#xc6;" horiz-adv-x="1293" 
d="M54 0l326 1500h829v-150h-458v-525h404v-150h-404v-525h458v-150h-608v300h-327l-65 -300h-155zM304 450h297v900h-110z" />
    <glyph glyph-name="Ccedilla" unicode="&#xc7;" horiz-adv-x="956" 
d="M864 388v-50q0 -166 -97 -268t-258 -102q-160 0 -257.5 102t-97.5 268v824q0 167 97.5 268.5t257.5 101.5q161 0 258 -101.5t97 -268.5v-50h-150v50q0 99 -56 159.5t-149 60.5t-149 -60.5t-56 -159.5v-824q0 -99 56 -159.5t149 -60.5t149 60.5t56 159.5v50h150zM454 -434
v114h128q33 0 53 18t20 47q0 30 -20 49t-53 19h-72l-53 35v189h116v-161l-71 15q82 29 142.5 13t93.5 -61.5t33 -104.5q0 -74 -52 -123t-137 -49h-128z" />
    <glyph glyph-name="Egrave" unicode="&#xc8;" horiz-adv-x="865" 
d="M781 1500v-150h-455v-525h401v-150h-401v-525h455v-150h-605v1500h605zM372 1631l-176 344h153l135 -344h-112z" />
    <glyph glyph-name="Eacute" unicode="&#xc9;" horiz-adv-x="865" 
d="M781 1500v-150h-455v-525h401v-150h-401v-525h455v-150h-605v1500h605zM367 1631l135 344h153l-176 -344h-112z" />
    <glyph glyph-name="Ecircumflex" unicode="&#xca;" horiz-adv-x="865" 
d="M781 1500v-150h-455v-525h401v-150h-401v-525h455v-150h-605v1500h605zM142 1685l222 290h120l223 -290h-146l-136 189l-137 -189h-146z" />
    <glyph glyph-name="Edieresis" unicode="&#xcb;" horiz-adv-x="865" 
d="M781 1500v-150h-455v-525h401v-150h-401v-525h455v-150h-605v1500h605zM226 1747v228h130v-228h-130zM502 1747v228h128v-228h-128z" />
    <glyph glyph-name="Igrave" unicode="&#xcc;" horiz-adv-x="502" 
d="M326 0h-150v1500h150v-1500zM200 1631l-176 344h153l135 -344h-112z" />
    <glyph glyph-name="Iacute" unicode="&#xcd;" horiz-adv-x="502" 
d="M326 0h-150v1500h150v-1500zM194 1631l135 344h153l-176 -344h-112z" />
    <glyph glyph-name="Icircumflex" unicode="&#xce;" horiz-adv-x="502" 
d="M326 0h-150v1500h150v-1500zM-31 1685l222 290h120l223 -290h-146l-136 189l-137 -189h-146z" />
    <glyph glyph-name="Idieresis" unicode="&#xcf;" horiz-adv-x="502" 
d="M326 0h-150v1500h150v-1500zM54 1747v228h130v-228h-130zM330 1747v228h128v-228h-128z" />
    <glyph glyph-name="Eth" unicode="&#xd0;" horiz-adv-x="1017" 
d="M15 689v125h470v-125h-470zM176 0v1500h340q161 0 258 -101.5t97 -268.5v-760q0 -166 -97 -268t-258 -102h-340zM326 150h190q93 0 149 60.5t56 159.5v760q0 99 -56 159.5t-149 60.5h-190v-1200z" />
    <glyph glyph-name="Ntilde" unicode="&#xd1;" horiz-adv-x="1057" 
d="M176 0v1500h133l469 -1222l-42 -5v1227h145v-1500h-132l-470 1223l42 5v-1228h-145zM647 1675q-40 0 -69.5 15t-52.5 31q-28 21 -50.5 37.5t-42.5 16.5t-30.5 -16.5t-10.5 -39.5v-34h-117v41q0 76 37 112.5t93 36.5q41 0 74 -16.5t55 -33.5q25 -19 45.5 -35t41.5 -16
q23 0 32.5 19t9.5 40v40h116v-50q0 -76 -37 -112t-94 -36z" />
    <glyph glyph-name="Ograve" unicode="&#xd2;" horiz-adv-x="1018" 
d="M509 -32q-160 0 -257.5 102t-97.5 268v824q0 167 97.5 268.5t257.5 101.5q161 0 258 -101.5t97 -268.5v-824q0 -166 -97 -268t-258 -102zM509 118q93 0 149 60.5t56 159.5v824q0 99 -56 159.5t-149 60.5t-149 -60.5t-56 -159.5v-824q0 -99 56 -159.5t149 -60.5zM457 1631
l-176 344h153l135 -344h-112z" />
    <glyph glyph-name="Oacute" unicode="&#xd3;" horiz-adv-x="1018" 
d="M509 -32q-160 0 -257.5 102t-97.5 268v824q0 167 97.5 268.5t257.5 101.5q161 0 258 -101.5t97 -268.5v-824q0 -166 -97 -268t-258 -102zM509 118q93 0 149 60.5t56 159.5v824q0 99 -56 159.5t-149 60.5t-149 -60.5t-56 -159.5v-824q0 -99 56 -159.5t149 -60.5zM451 1631
l135 344h153l-176 -344h-112z" />
    <glyph glyph-name="Ocircumflex" unicode="&#xd4;" horiz-adv-x="1018" 
d="M509 -32q-160 0 -257.5 102t-97.5 268v824q0 167 97.5 268.5t257.5 101.5q161 0 258 -101.5t97 -268.5v-824q0 -166 -97 -268t-258 -102zM509 118q93 0 149 60.5t56 159.5v824q0 99 -56 159.5t-149 60.5t-149 -60.5t-56 -159.5v-824q0 -99 56 -159.5t149 -60.5zM226 1685
l222 290h120l223 -290h-146l-136 189l-137 -189h-146z" />
    <glyph glyph-name="Otilde" unicode="&#xd5;" horiz-adv-x="1018" 
d="M509 -32q-160 0 -257.5 102t-97.5 268v824q0 167 97.5 268.5t257.5 101.5q161 0 258 -101.5t97 -268.5v-824q0 -166 -97 -268t-258 -102zM509 118q93 0 149 60.5t56 159.5v824q0 99 -56 159.5t-149 60.5t-149 -60.5t-56 -159.5v-824q0 -99 56 -159.5t149 -60.5zM627 1675
q-40 0 -69.5 15t-52.5 31q-28 21 -50.5 37.5t-42.5 16.5t-30.5 -16.5t-10.5 -39.5v-34h-117v41q0 76 37 112.5t93 36.5q41 0 74 -16.5t55 -33.5q25 -19 45.5 -35t41.5 -16q23 0 32.5 19t9.5 40v40h116v-50q0 -76 -37 -112t-94 -36z" />
    <glyph glyph-name="Odieresis" unicode="&#xd6;" horiz-adv-x="1018" 
d="M509 -32q-160 0 -257.5 102t-97.5 268v824q0 167 97.5 268.5t257.5 101.5q161 0 258 -101.5t97 -268.5v-824q0 -166 -97 -268t-258 -102zM509 118q93 0 149 60.5t56 159.5v824q0 99 -56 159.5t-149 60.5t-149 -60.5t-56 -159.5v-824q0 -99 56 -159.5t149 -60.5zM311 1747
v228h130v-228h-130zM587 1747v228h128v-228h-128z" />
    <glyph glyph-name="multiply" unicode="&#xd7;" horiz-adv-x="898" 
d="M669 221l-544 543l105 107l545 -545zM230 219l-105 107l543 543l107 -105z" />
    <glyph glyph-name="Oslash" unicode="&#xd8;" horiz-adv-x="1018" 
d="M167 -68h-107l793 1634h108zM509 -32q-160 0 -257.5 102t-97.5 268v824q0 167 97.5 268.5t257.5 101.5q161 0 258 -101.5t97 -268.5v-824q0 -166 -97 -268t-258 -102zM509 118q93 0 149 60.5t56 159.5v824q0 99 -56 159.5t-149 60.5t-149 -60.5t-56 -159.5v-824
q0 -99 56 -159.5t149 -60.5z" />
    <glyph glyph-name="Ugrave" unicode="&#xd9;" horiz-adv-x="1042" 
d="M876 1500v-1162q0 -166 -97 -268t-258 -102q-160 0 -257.5 102t-97.5 268v1162h150v-1162q0 -99 56 -159.5t149 -60.5t149 60.5t56 159.5v1162h150zM470 1631l-176 344h153l135 -344h-112z" />
    <glyph glyph-name="Uacute" unicode="&#xda;" horiz-adv-x="1042" 
d="M876 1500v-1162q0 -166 -97 -268t-258 -102q-160 0 -257.5 102t-97.5 268v1162h150v-1162q0 -99 56 -159.5t149 -60.5t149 60.5t56 159.5v1162h150zM465 1631l135 344h153l-176 -344h-112z" />
    <glyph glyph-name="Ucircumflex" unicode="&#xdb;" horiz-adv-x="1042" 
d="M876 1500v-1162q0 -166 -97 -268t-258 -102q-160 0 -257.5 102t-97.5 268v1162h150v-1162q0 -99 56 -159.5t149 -60.5t149 60.5t56 159.5v1162h150zM240 1685l222 290h120l223 -290h-146l-136 189l-137 -189h-146z" />
    <glyph glyph-name="Udieresis" unicode="&#xdc;" horiz-adv-x="1042" 
d="M876 1500v-1162q0 -166 -97 -268t-258 -102q-160 0 -257.5 102t-97.5 268v1162h150v-1162q0 -99 56 -159.5t149 -60.5t149 60.5t56 159.5v1162h150zM324 1747v228h130v-228h-130zM600 1747v228h128v-228h-128z" />
    <glyph glyph-name="Yacute" unicode="&#xdd;" horiz-adv-x="944" 
d="M398 0v770l-366 730h154l314 -634h-55l313 634h154l-364 -730v-770h-150zM414 1631l135 344h153l-176 -344h-112z" />
    <glyph glyph-name="Thorn" unicode="&#xde;" horiz-adv-x="951" 
d="M176 0v1500h150v-230h220q148 0 236.5 -93t88.5 -247v-162q0 -153 -88.5 -246.5t-236.5 -93.5h-220v-428h-150zM326 578h220q80 0 127.5 52t47.5 138v162q0 86 -47.5 138t-127.5 52h-220v-542z" />
    <glyph glyph-name="germandbls" unicode="&#xdf;" horiz-adv-x="986" 
d="M142 -240v1397q0 113 45.5 197.5t126 131t188.5 46.5t189.5 -46.5t126 -131t44.5 -197.5v-119q0 -94 -35 -167.5t-97 -116.5l-3 52q71 -41 113 -118.5t42 -179.5v-175q0 -153 -88.5 -246.5t-236.5 -93.5h-109v150h109q80 0 127.5 52t47.5 138v175q0 85 -47.5 137.5
t-127.5 52.5h-108v150h88q80 0 127.5 52t47.5 138v119q0 101 -57.5 163t-152.5 62q-94 0 -152 -62t-58 -163v-1397h-150z" />
    <glyph glyph-name="agrave" unicode="&#xe0;" horiz-adv-x="909" 
d="M390 -24q-150 0 -232 83t-82 210q0 79 29 131.5t74.5 85.5t96.5 53q61 25 124.5 39.5t117.5 31t87 45.5t33 82v26q0 91 -54.5 146.5t-144.5 55.5q-91 0 -143.5 -55.5t-52.5 -146.5v-30h-145v25q0 158 94 255t247 97q101 0 178.5 -44.5t121.5 -123.5t44 -184v-758h-145
v150l24 -32q-38 -68 -107 -105t-165 -37zM420 114q102 0 160 57.5t58 164.5v192q-61 -38 -136 -51.5t-143 -36.5q-60 -20 -99 -56.5t-39 -103.5q0 -73 52 -119.5t147 -46.5zM386 1216l-176 344h153l135 -344h-112z" />
    <glyph glyph-name="aacute" unicode="&#xe1;" horiz-adv-x="909" 
d="M390 -24q-150 0 -232 83t-82 210q0 79 29 131.5t74.5 85.5t96.5 53q61 25 124.5 39.5t117.5 31t87 45.5t33 82v26q0 91 -54.5 146.5t-144.5 55.5q-91 0 -143.5 -55.5t-52.5 -146.5v-30h-145v25q0 158 94 255t247 97q101 0 178.5 -44.5t121.5 -123.5t44 -184v-758h-145
v150l24 -32q-38 -68 -107 -105t-165 -37zM420 114q102 0 160 57.5t58 164.5v192q-61 -38 -136 -51.5t-143 -36.5q-60 -20 -99 -56.5t-39 -103.5q0 -73 52 -119.5t147 -46.5zM381 1216l135 344h153l-176 -344h-112z" />
    <glyph glyph-name="acircumflex" unicode="&#xe2;" horiz-adv-x="909" 
d="M390 -24q-150 0 -232 83t-82 210q0 79 29 131.5t74.5 85.5t96.5 53q61 25 124.5 39.5t117.5 31t87 45.5t33 82v26q0 91 -54.5 146.5t-144.5 55.5q-91 0 -143.5 -55.5t-52.5 -146.5v-30h-145v25q0 158 94 255t247 97q101 0 178.5 -44.5t121.5 -123.5t44 -184v-758h-145
v150l24 -32q-38 -68 -107 -105t-165 -37zM420 114q102 0 160 57.5t58 164.5v192q-61 -38 -136 -51.5t-143 -36.5q-60 -20 -99 -56.5t-39 -103.5q0 -73 52 -119.5t147 -46.5zM156 1270l222 290h120l223 -290h-146l-136 189l-137 -189h-146z" />
    <glyph glyph-name="atilde" unicode="&#xe3;" horiz-adv-x="909" 
d="M390 -24q-150 0 -232 83t-82 210q0 79 29 131.5t74.5 85.5t96.5 53q61 25 124.5 39.5t117.5 31t87 45.5t33 82v26q0 91 -54.5 146.5t-144.5 55.5q-91 0 -143.5 -55.5t-52.5 -146.5v-30h-145v25q0 158 94 255t247 97q101 0 178.5 -44.5t121.5 -123.5t44 -184v-758h-145
v150l24 -32q-38 -68 -107 -105t-165 -37zM420 114q102 0 160 57.5t58 164.5v192q-61 -38 -136 -51.5t-143 -36.5q-60 -20 -99 -56.5t-39 -103.5q0 -73 52 -119.5t147 -46.5zM557 1260q-40 0 -69.5 15t-52.5 31q-28 21 -50.5 37.5t-42.5 16.5t-30.5 -16.5t-10.5 -39.5v-34
h-117v41q0 76 37 112.5t93 36.5q41 0 74 -16.5t55 -33.5q25 -19 45.5 -35t41.5 -16q23 0 32.5 19t9.5 40v40h116v-50q0 -76 -37 -112t-94 -36z" />
    <glyph glyph-name="adieresis" unicode="&#xe4;" horiz-adv-x="909" 
d="M390 -24q-150 0 -232 83t-82 210q0 79 29 131.5t74.5 85.5t96.5 53q61 25 124.5 39.5t117.5 31t87 45.5t33 82v26q0 91 -54.5 146.5t-144.5 55.5q-91 0 -143.5 -55.5t-52.5 -146.5v-30h-145v25q0 158 94 255t247 97q101 0 178.5 -44.5t121.5 -123.5t44 -184v-758h-145
v150l24 -32q-38 -68 -107 -105t-165 -37zM420 114q102 0 160 57.5t58 164.5v192q-61 -38 -136 -51.5t-143 -36.5q-60 -20 -99 -56.5t-39 -103.5q0 -73 52 -119.5t147 -46.5zM240 1332v228h130v-228h-130zM516 1332v228h128v-228h-128z" />
    <glyph glyph-name="aring" unicode="&#xe5;" horiz-adv-x="909" 
d="M390 -24q-150 0 -232 83t-82 210q0 79 29 131.5t74.5 85.5t96.5 53q61 25 124.5 39.5t117.5 31t87 45.5t33 82v26q0 91 -54.5 146.5t-144.5 55.5q-91 0 -143.5 -55.5t-52.5 -146.5v-30h-145v25q0 158 94 255t247 97q101 0 178.5 -44.5t121.5 -123.5t44 -184v-758h-145
v150l24 -32q-38 -68 -107 -105t-165 -37zM420 114q102 0 160 57.5t58 164.5v192q-61 -38 -136 -51.5t-143 -36.5q-60 -20 -99 -56.5t-39 -103.5q0 -73 52 -119.5t147 -46.5zM441 1147q-75 0 -129 50t-54 131q0 83 54 133t127 50q74 0 128.5 -50t54.5 -132t-54 -132t-127 -50
zM441 1245q31 0 57 23t26 61t-26.5 61.5t-57.5 23.5q-32 0 -58.5 -24t-26.5 -61q0 -38 26.5 -61t59.5 -23z" />
    <glyph glyph-name="ae" unicode="&#xe6;" horiz-adv-x="1426" 
d="M384 -24q-144 0 -226 82.5t-82 211.5q0 79 29 131t74.5 85t96.5 53q61 25 124.5 39.5t117.5 31t87 45.5t33 82v26q0 91 -54.5 146.5t-144.5 55.5q-91 0 -143.5 -55.5t-52.5 -146.5v-30h-145v25q0 158 94 255t247 97q100 0 177 -43.5t121 -119.5h-51q42 76 119 119.5
t177 43.5q152 0 246.5 -97t94.5 -255v-237h-540v-197q0 -91 54 -147t145 -56q90 0 143 56t53 147v25h145v-20q0 -158 -94.5 -255.5t-246.5 -97.5q-111 0 -195 54t-121 147l41 7q-43 -107 -130.5 -157.5t-192.5 -50.5zM420 114q102 0 160 57.5t58 164.5v192
q-61 -38 -136 -51.5t-143 -36.5q-60 -20 -99 -56.5t-39 -103.5q0 -73 52 -119.5t147 -46.5zM783 661h395v102q0 91 -53 146.5t-143 55.5q-91 0 -145 -55.5t-54 -146.5v-102z" />
    <glyph glyph-name="ccedilla" unicode="&#xe7;" horiz-adv-x="870" 
d="M454 -24q-102 0 -179 44t-121 123.5t-44 185.5v429q0 104 44 183.5t121 124t179 44.5q153 0 247 -97t94 -255v-20h-145v25q0 91 -52.5 146.5t-143.5 55.5t-145 -55.5t-54 -146.5v-439q0 -91 54 -147t145 -56t143.5 56t52.5 147v25h145v-20q0 -158 -94 -255.5t-247 -97.5z
M399 -434v114h128q33 0 53 18t20 47q0 30 -20 49t-53 19h-72l-53 35v189h116v-161l-71 15q82 29 142.5 13t93.5 -61.5t33 -104.5q0 -74 -52 -123t-137 -49h-128z" />
    <glyph glyph-name="egrave" unicode="&#xe8;" horiz-adv-x="898" 
d="M454 -24q-102 0 -179 44t-121 123.5t-44 185.5v429q0 104 44 183.5t121 124t179 44.5q153 0 247 -97t94 -255v-237h-569v140h424v102q0 91 -52.5 146.5t-143.5 55.5t-145 -55.5t-54 -146.5v-439q0 -91 54 -147t145 -56t143.5 56t52.5 147v25h145v-20q0 -158 -94 -255.5
t-247 -97.5zM402 1216l-176 344h153l135 -344h-112z" />
    <glyph glyph-name="eacute" unicode="&#xe9;" horiz-adv-x="898" 
d="M454 -24q-102 0 -179 44t-121 123.5t-44 185.5v429q0 104 44 183.5t121 124t179 44.5q153 0 247 -97t94 -255v-237h-569v140h424v102q0 91 -52.5 146.5t-143.5 55.5t-145 -55.5t-54 -146.5v-439q0 -91 54 -147t145 -56t143.5 56t52.5 147v25h145v-20q0 -158 -94 -255.5
t-247 -97.5zM396 1216l135 344h153l-176 -344h-112z" />
    <glyph glyph-name="ecircumflex" unicode="&#xea;" horiz-adv-x="898" 
d="M454 -24q-102 0 -179 44t-121 123.5t-44 185.5v429q0 104 44 183.5t121 124t179 44.5q153 0 247 -97t94 -255v-237h-569v140h424v102q0 91 -52.5 146.5t-143.5 55.5t-145 -55.5t-54 -146.5v-439q0 -91 54 -147t145 -56t143.5 56t52.5 147v25h145v-20q0 -158 -94 -255.5
t-247 -97.5zM171 1270l222 290h120l223 -290h-146l-136 189l-137 -189h-146z" />
    <glyph glyph-name="edieresis" unicode="&#xeb;" horiz-adv-x="898" 
d="M454 -24q-102 0 -179 44t-121 123.5t-44 185.5v429q0 104 44 183.5t121 124t179 44.5q153 0 247 -97t94 -255v-237h-569v140h424v102q0 91 -52.5 146.5t-143.5 55.5t-145 -55.5t-54 -146.5v-439q0 -91 54 -147t145 -56t143.5 56t52.5 147v25h145v-20q0 -158 -94 -255.5
t-247 -97.5zM256 1332v228h130v-228h-130zM532 1332v228h128v-228h-128z" />
    <glyph glyph-name="igrave" unicode="&#xec;" horiz-adv-x="429" 
d="M142 0v1085h145v-1085h-145zM163 1216l-176 344h153l135 -344h-112z" />
    <glyph glyph-name="iacute" unicode="&#xed;" horiz-adv-x="429" 
d="M142 0v1085h145v-1085h-145zM158 1216l135 344h153l-176 -344h-112z" />
    <glyph glyph-name="icircumflex" unicode="&#xee;" horiz-adv-x="429" 
d="M142 0v1085h145v-1085h-145zM-67 1270l222 290h120l223 -290h-146l-136 189l-137 -189h-146z" />
    <glyph glyph-name="idieresis" unicode="&#xef;" horiz-adv-x="429" 
d="M142 0v1085h145v-1085h-145zM17 1332v228h130v-228h-130zM293 1332v228h128v-228h-128z" />
    <glyph glyph-name="eth" unicode="&#xf0;" horiz-adv-x="939" 
d="M481 1500q140 0 228 -90.5t88 -237.5v-1172h-145v141l24 -32q-36 -63 -97.5 -98t-147.5 -35q-89 0 -160.5 39.5t-113.5 117.5t-42 191v439q0 112 42 189.5t113.5 117.5t160.5 40q86 0 147.5 -35.5t97.5 -97.5l-24 -33v228q0 91 -53 147t-143 56h-44v125h69zM458 121
q92 0 143 55.5t51 146.5v440q0 91 -51.5 146.5t-143.5 55.5t-144.5 -55.5t-52.5 -146.5v-439q0 -91 52.5 -147t145.5 -56zM469 1147v113l443 120v-113z" />
    <glyph glyph-name="ntilde" unicode="&#xf1;" horiz-adv-x="941" 
d="M142 0v1085h145v-145l-25 29q38 68 101 104.5t147 36.5q136 0 219 -94t83 -253v-763h-145v763q0 91 -51.5 146.5t-136.5 55.5q-87 0 -139.5 -55.5t-52.5 -146.5v-763h-145zM595 1260q-40 0 -69.5 15t-52.5 31q-28 21 -50.5 37.5t-42.5 16.5t-30.5 -16.5t-10.5 -39.5v-34
h-117v41q0 76 37 112.5t93 36.5q41 0 74 -16.5t55 -33.5q25 -19 45.5 -35t41.5 -16q23 0 32.5 19t9.5 40v40h116v-50q0 -76 -37 -112t-94 -36z" />
    <glyph glyph-name="ograve" unicode="&#xf2;" horiz-adv-x="907" 
d="M454 -24q-102 0 -179 44t-121 123.5t-44 185.5v429q0 104 44 183.5t121 124t179 44.5q153 0 247 -97t94 -255v-429q0 -158 -94 -255.5t-247 -97.5zM454 121q91 0 143.5 56t52.5 147v439q0 91 -52.5 146.5t-143.5 55.5t-145 -55.5t-54 -146.5v-439q0 -91 54 -147t145 -56z
M402 1216l-176 344h153l135 -344h-112z" />
    <glyph glyph-name="oacute" unicode="&#xf3;" horiz-adv-x="907" 
d="M454 -24q-102 0 -179 44t-121 123.5t-44 185.5v429q0 104 44 183.5t121 124t179 44.5q153 0 247 -97t94 -255v-429q0 -158 -94 -255.5t-247 -97.5zM454 121q91 0 143.5 56t52.5 147v439q0 91 -52.5 146.5t-143.5 55.5t-145 -55.5t-54 -146.5v-439q0 -91 54 -147t145 -56z
M396 1216l135 344h153l-176 -344h-112z" />
    <glyph glyph-name="ocircumflex" unicode="&#xf4;" horiz-adv-x="907" 
d="M454 -24q-102 0 -179 44t-121 123.5t-44 185.5v429q0 104 44 183.5t121 124t179 44.5q153 0 247 -97t94 -255v-429q0 -158 -94 -255.5t-247 -97.5zM454 121q91 0 143.5 56t52.5 147v439q0 91 -52.5 146.5t-143.5 55.5t-145 -55.5t-54 -146.5v-439q0 -91 54 -147t145 -56z
M171 1270l222 290h120l223 -290h-146l-136 189l-137 -189h-146z" />
    <glyph glyph-name="otilde" unicode="&#xf5;" horiz-adv-x="907" 
d="M454 -24q-102 0 -179 44t-121 123.5t-44 185.5v429q0 104 44 183.5t121 124t179 44.5q153 0 247 -97t94 -255v-429q0 -158 -94 -255.5t-247 -97.5zM454 121q91 0 143.5 56t52.5 147v439q0 91 -52.5 146.5t-143.5 55.5t-145 -55.5t-54 -146.5v-439q0 -91 54 -147t145 -56z
M572 1260q-40 0 -69.5 15t-52.5 31q-28 21 -50.5 37.5t-42.5 16.5t-30.5 -16.5t-10.5 -39.5v-34h-117v41q0 76 37 112.5t93 36.5q41 0 74 -16.5t55 -33.5q25 -19 45.5 -35t41.5 -16q23 0 32.5 19t9.5 40v40h116v-50q0 -76 -37 -112t-94 -36z" />
    <glyph glyph-name="odieresis" unicode="&#xf6;" horiz-adv-x="907" 
d="M454 -24q-102 0 -179 44t-121 123.5t-44 185.5v429q0 104 44 183.5t121 124t179 44.5q153 0 247 -97t94 -255v-429q0 -158 -94 -255.5t-247 -97.5zM454 121q91 0 143.5 56t52.5 147v439q0 91 -52.5 146.5t-143.5 55.5t-145 -55.5t-54 -146.5v-439q0 -91 54 -147t145 -56z
M256 1332v228h130v-228h-130zM532 1332v228h128v-228h-128z" />
    <glyph glyph-name="divide" unicode="&#xf7;" horiz-adv-x="1069" 
d="M110 469v150h850v-150h-850zM461 140v247h150v-247h-150zM461 702v248h150v-248h-150z" />
    <glyph glyph-name="oslash" unicode="&#xf8;" horiz-adv-x="907" 
d="M187 -41h-108l640 1166h107zM454 -24q-102 0 -179 44t-121 123.5t-44 185.5v429q0 105 44 184t121 123.5t179 44.5q153 0 247 -97t94 -255v-429q0 -158 -94 -255.5t-247 -97.5zM454 121q91 0 143.5 56t52.5 147v439q0 91 -52.5 146.5t-143.5 55.5t-145 -55.5t-54 -146.5
v-439q0 -91 54 -147t145 -56z" />
    <glyph glyph-name="ugrave" unicode="&#xf9;" horiz-adv-x="941" 
d="M431 -24q-86 0 -154 39t-108 116.5t-40 191.5v762h145v-762q0 -91 52 -146.5t137 -55.5q87 0 139 55.5t52 146.5v762h145v-1085h-145v144l25 -31q-37 -65 -100 -101t-148 -36zM410 1216l-176 344h153l135 -344h-112z" />
    <glyph glyph-name="uacute" unicode="&#xfa;" horiz-adv-x="941" 
d="M431 -24q-86 0 -154 39t-108 116.5t-40 191.5v762h145v-762q0 -91 52 -146.5t137 -55.5q87 0 139 55.5t52 146.5v762h145v-1085h-145v144l25 -31q-37 -65 -100 -101t-148 -36zM405 1216l135 344h153l-176 -344h-112z" />
    <glyph glyph-name="ucircumflex" unicode="&#xfb;" horiz-adv-x="941" 
d="M431 -24q-86 0 -154 39t-108 116.5t-40 191.5v762h145v-762q0 -91 52 -146.5t137 -55.5q87 0 139 55.5t52 146.5v762h145v-1085h-145v144l25 -31q-37 -65 -100 -101t-148 -36zM180 1270l222 290h120l223 -290h-146l-136 189l-137 -189h-146z" />
    <glyph glyph-name="udieresis" unicode="&#xfc;" horiz-adv-x="941" 
d="M431 -24q-86 0 -154 39t-108 116.5t-40 191.5v762h145v-762q0 -91 52 -146.5t137 -55.5q87 0 139 55.5t52 146.5v762h145v-1085h-145v144l25 -31q-37 -65 -100 -101t-148 -36zM264 1332v228h130v-228h-130zM540 1332v228h128v-228h-128z" />
    <glyph glyph-name="yacute" unicode="&#xfd;" horiz-adv-x="835" 
d="M240 -360l98 338l-316 1107h158l257 -916h-35l253 916h160l-419 -1445h-156zM361 1216l135 344h153l-176 -344h-112z" />
    <glyph glyph-name="thorn" unicode="&#xfe;" horiz-adv-x="937" 
d="M142 -360v1860h145v-556l-24 33q36 62 97.5 97.5t147.5 35.5q89 0 160.5 -40t113.5 -117.5t42 -189.5v-439q0 -113 -42 -191t-113.5 -117.5t-160.5 -39.5q-86 0 -147.5 35t-97.5 98l24 32v-501h-145zM481 121q93 0 145.5 56t52.5 147v439q0 91 -52.5 146.5t-144.5 55.5
q-93 0 -144 -55.5t-51 -146.5v-440q0 -91 51 -146.5t143 -55.5z" />
    <glyph glyph-name="ydieresis" unicode="&#xff;" horiz-adv-x="835" 
d="M240 -360l98 338l-316 1107h158l257 -916h-35l253 916h160l-419 -1445h-156zM220 1332v228h130v-228h-130zM496 1332v228h128v-228h-128z" />
    <glyph glyph-name="Amacron" unicode="&#x100;" 
d="M54 0l326 1500h160l325 -1500h-155l-64 300h-373l-64 -300h-155zM301 450h317l-170 835h24zM241 1785h436v-115h-436v115z" />
    <glyph glyph-name="amacron" unicode="&#x101;" horiz-adv-x="909" 
d="M390 -24q-150 0 -232 83t-82 210q0 79 29 131.5t74.5 85.5t96.5 53q61 25 124.5 39.5t117.5 31t87 45.5t33 82v26q0 91 -54.5 146.5t-144.5 55.5q-91 0 -143.5 -55.5t-52.5 -146.5v-30h-145v25q0 158 94 255t247 97q101 0 178.5 -44.5t121.5 -123.5t44 -184v-758h-145
v150l24 -32q-38 -68 -107 -105t-165 -37zM420 114q102 0 160 57.5t58 164.5v192q-61 -38 -136 -51.5t-143 -36.5q-60 -20 -99 -56.5t-39 -103.5q0 -73 52 -119.5t147 -46.5zM220 1370h436v-115h-436v115z" />
    <glyph glyph-name="Abreve" unicode="&#x102;" 
d="M54 0l326 1500h160l325 -1500h-155l-64 300h-373l-64 -300h-155zM301 450h317l-170 835h24zM460 1744q-94 0 -156.5 59t-62.5 155v17h106v-17q0 -54 32.5 -85t80.5 -31t80 31t32 85v17h105v-17q0 -96 -61.5 -155t-155.5 -59z" />
    <glyph glyph-name="abreve" unicode="&#x103;" horiz-adv-x="909" 
d="M390 -24q-150 0 -232 83t-82 210q0 79 29 131.5t74.5 85.5t96.5 53q61 25 124.5 39.5t117.5 31t87 45.5t33 82v26q0 91 -54.5 146.5t-144.5 55.5q-91 0 -143.5 -55.5t-52.5 -146.5v-30h-145v25q0 158 94 255t247 97q101 0 178.5 -44.5t121.5 -123.5t44 -184v-758h-145
v150l24 -32q-38 -68 -107 -105t-165 -37zM420 114q102 0 160 57.5t58 164.5v192q-61 -38 -136 -51.5t-143 -36.5q-60 -20 -99 -56.5t-39 -103.5q0 -73 52 -119.5t147 -46.5zM439 1329q-94 0 -156.5 59t-62.5 155v17h106v-17q0 -54 32.5 -85t80.5 -31t80 31t32 85v17h105v-17
q0 -96 -61.5 -155t-155.5 -59z" />
    <glyph glyph-name="Aogonek" unicode="&#x104;" 
d="M54 0l326 1500h160l325 -1500h-155l-64 300h-373l-64 -300h-155zM301 450h317l-170 835h24zM835 -414q-111 0 -173.5 53.5t-62.5 143.5q0 83 54 150t153 124h27v-57q-56 -46 -87 -95t-31 -97q0 -52 33.5 -79t92.5 -27h28v-116h-34z" />
    <glyph glyph-name="aogonek" unicode="&#x105;" horiz-adv-x="909" 
d="M390 -24q-150 0 -232 83t-82 210q0 79 29 131.5t74.5 85.5t96.5 53q61 25 124.5 39.5t117.5 31t87 45.5t33 82v26q0 91 -54.5 146.5t-144.5 55.5q-91 0 -143.5 -55.5t-52.5 -146.5v-30h-145v25q0 158 94 255t247 97q101 0 178.5 -44.5t121.5 -123.5t44 -184v-758h-145
v150l24 -32q-38 -68 -107 -105t-165 -37zM420 114q102 0 160 57.5t58 164.5v192q-61 -38 -136 -51.5t-143 -36.5q-60 -20 -99 -56.5t-39 -103.5q0 -73 52 -119.5t147 -46.5zM751 -414q-111 0 -173.5 53.5t-62.5 143.5q0 83 54 150t153 124h27v-57q-56 -46 -87 -95t-31 -97
q0 -52 33.5 -79t92.5 -27h28v-116h-34z" />
    <glyph glyph-name="Cacute" unicode="&#x106;" horiz-adv-x="956" 
d="M864 388v-50q0 -166 -97 -268t-258 -102q-160 0 -257.5 102t-97.5 268v824q0 167 97.5 268.5t257.5 101.5q161 0 258 -101.5t97 -268.5v-50h-150v50q0 99 -56 159.5t-149 60.5t-149 -60.5t-56 -159.5v-824q0 -99 56 -159.5t149 -60.5t149 60.5t56 159.5v50h150zM451 1631
l135 344h153l-176 -344h-112z" />
    <glyph glyph-name="cacute" unicode="&#x107;" horiz-adv-x="870" 
d="M454 -24q-102 0 -179 44t-121 123.5t-44 185.5v429q0 104 44 183.5t121 124t179 44.5q153 0 247 -97t94 -255v-20h-145v25q0 91 -52.5 146.5t-143.5 55.5t-145 -55.5t-54 -146.5v-439q0 -91 54 -147t145 -56t143.5 56t52.5 147v25h145v-20q0 -158 -94 -255.5t-247 -97.5z
M396 1216l135 344h153l-176 -344h-112z" />
    <glyph glyph-name="Ccircumflex" unicode="&#x108;" horiz-adv-x="956" 
d="M864 388v-50q0 -166 -97 -268t-258 -102q-160 0 -257.5 102t-97.5 268v824q0 167 97.5 268.5t257.5 101.5q161 0 258 -101.5t97 -268.5v-50h-150v50q0 99 -56 159.5t-149 60.5t-149 -60.5t-56 -159.5v-824q0 -99 56 -159.5t149 -60.5t149 60.5t56 159.5v50h150zM226 1685
l222 290h120l223 -290h-146l-136 189l-137 -189h-146z" />
    <glyph glyph-name="ccircumflex" unicode="&#x109;" horiz-adv-x="870" 
d="M454 -24q-102 0 -179 44t-121 123.5t-44 185.5v429q0 104 44 183.5t121 124t179 44.5q153 0 247 -97t94 -255v-20h-145v25q0 91 -52.5 146.5t-143.5 55.5t-145 -55.5t-54 -146.5v-439q0 -91 54 -147t145 -56t143.5 56t52.5 147v25h145v-20q0 -158 -94 -255.5t-247 -97.5z
M171 1270l222 290h120l223 -290h-146l-136 189l-137 -189h-146z" />
    <glyph glyph-name="Cdotaccent" unicode="&#x10a;" horiz-adv-x="956" 
d="M864 388v-50q0 -166 -97 -268t-258 -102q-160 0 -257.5 102t-97.5 268v824q0 167 97.5 268.5t257.5 101.5q161 0 258 -101.5t97 -268.5v-50h-150v50q0 99 -56 159.5t-149 60.5t-149 -60.5t-56 -159.5v-824q0 -99 56 -159.5t149 -60.5t149 60.5t56 159.5v50h150zM444 1687
v228h130v-228h-130z" />
    <glyph glyph-name="cdotaccent" unicode="&#x10b;" horiz-adv-x="870" 
d="M454 -24q-102 0 -179 44t-121 123.5t-44 185.5v429q0 104 44 183.5t121 124t179 44.5q153 0 247 -97t94 -255v-20h-145v25q0 91 -52.5 146.5t-143.5 55.5t-145 -55.5t-54 -146.5v-439q0 -91 54 -147t145 -56t143.5 56t52.5 147v25h145v-20q0 -158 -94 -255.5t-247 -97.5z
M389 1272v228h130v-228h-130z" />
    <glyph glyph-name="Ccaron" unicode="&#x10c;" horiz-adv-x="956" 
d="M864 388v-50q0 -166 -97 -268t-258 -102q-160 0 -257.5 102t-97.5 268v824q0 167 97.5 268.5t257.5 101.5q161 0 258 -101.5t97 -268.5v-50h-150v50q0 99 -56 159.5t-149 60.5t-149 -60.5t-56 -159.5v-824q0 -99 56 -159.5t149 -60.5t149 60.5t56 159.5v50h150zM448 1685
l-222 290h146l137 -189l136 189h146l-223 -290h-120z" />
    <glyph glyph-name="ccaron" unicode="&#x10d;" horiz-adv-x="870" 
d="M454 -24q-102 0 -179 44t-121 123.5t-44 185.5v429q0 104 44 183.5t121 124t179 44.5q153 0 247 -97t94 -255v-20h-145v25q0 91 -52.5 146.5t-143.5 55.5t-145 -55.5t-54 -146.5v-439q0 -91 54 -147t145 -56t143.5 56t52.5 147v25h145v-20q0 -158 -94 -255.5t-247 -97.5z
M393 1270l-222 290h146l137 -189l136 189h146l-223 -290h-120z" />
    <glyph glyph-name="Dcaron" unicode="&#x10e;" horiz-adv-x="1017" 
d="M176 0v1500h340q161 0 258 -101.5t97 -268.5v-760q0 -166 -97 -268t-258 -102h-340zM326 150h190q93 0 149 60.5t56 159.5v760q0 99 -56 159.5t-149 60.5h-190v-1200zM448 1685l-222 290h146l137 -189l136 189h146l-223 -290h-120z" />
    <glyph glyph-name="dcaron" unicode="&#x10f;" horiz-adv-x="1298" 
d="M431 -24q-89 0 -160.5 39.5t-113.5 117.5t-42 191v439q0 112 42 189.5t113.5 117.5t160.5 40q86 0 147.5 -35.5t97.5 -97.5l-24 -33v556h145v-1500h-145v141l24 -32q-36 -63 -97.5 -98t-147.5 -35zM458 121q92 0 143 55.5t51 146.5v440q0 91 -51.5 146.5t-143.5 55.5
t-144.5 -55.5t-52.5 -146.5v-439q0 -91 52.5 -147t145.5 -56zM916 1060l80 440h145l-80 -440h-145z" />
    <glyph glyph-name="Dcroat" unicode="&#x110;" horiz-adv-x="1017" 
d="M15 689v125h470v-125h-470zM176 0v1500h340q161 0 258 -101.5t97 -268.5v-760q0 -166 -97 -268t-258 -102h-340zM326 150h190q93 0 149 60.5t56 159.5v760q0 99 -56 159.5t-149 60.5h-190v-1200z" />
    <glyph glyph-name="dcroat" unicode="&#x111;" horiz-adv-x="939" 
d="M490 1225v125h470v-125h-470zM431 -24q-89 0 -160.5 39.5t-113.5 117.5t-42 191v439q0 112 42 189.5t113.5 117.5t160.5 40q86 0 147.5 -35.5t97.5 -97.5l-24 -33v556h145v-1500h-145v141l24 -32q-36 -63 -97.5 -98t-147.5 -35zM458 121q92 0 143 55.5t51 146.5v440
q0 91 -51.5 146.5t-143.5 55.5t-144.5 -55.5t-52.5 -146.5v-439q0 -91 52.5 -147t145.5 -56z" />
    <glyph glyph-name="Emacron" unicode="&#x112;" horiz-adv-x="865" 
d="M781 1500v-150h-455v-525h401v-150h-401v-525h455v-150h-605v1500h605zM206 1785h436v-115h-436v115z" />
    <glyph glyph-name="emacron" unicode="&#x113;" horiz-adv-x="898" 
d="M454 -24q-102 0 -179 44t-121 123.5t-44 185.5v429q0 104 44 183.5t121 124t179 44.5q153 0 247 -97t94 -255v-237h-569v140h424v102q0 91 -52.5 146.5t-143.5 55.5t-145 -55.5t-54 -146.5v-439q0 -91 54 -147t145 -56t143.5 56t52.5 147v25h145v-20q0 -158 -94 -255.5
t-247 -97.5zM235 1370h436v-115h-436v115z" />
    <glyph glyph-name="Ebreve" unicode="&#x114;" horiz-adv-x="865" 
d="M781 1500v-150h-455v-525h401v-150h-401v-525h455v-150h-605v1500h605zM425 1744q-94 0 -156.5 59t-62.5 155v17h106v-17q0 -54 32.5 -85t80.5 -31t80 31t32 85v17h105v-17q0 -96 -61.5 -155t-155.5 -59z" />
    <glyph glyph-name="ebreve" unicode="&#x115;" horiz-adv-x="898" 
d="M454 -24q-102 0 -179 44t-121 123.5t-44 185.5v429q0 104 44 183.5t121 124t179 44.5q153 0 247 -97t94 -255v-237h-569v140h424v102q0 91 -52.5 146.5t-143.5 55.5t-145 -55.5t-54 -146.5v-439q0 -91 54 -147t145 -56t143.5 56t52.5 147v25h145v-20q0 -158 -94 -255.5
t-247 -97.5zM454 1329q-94 0 -156.5 59t-62.5 155v17h106v-17q0 -54 32.5 -85t80.5 -31t80 31t32 85v17h105v-17q0 -96 -61.5 -155t-155.5 -59z" />
    <glyph glyph-name="Edotaccent" unicode="&#x116;" horiz-adv-x="865" 
d="M781 1500v-150h-455v-525h401v-150h-401v-525h455v-150h-605v1500h605zM360 1687v228h130v-228h-130z" />
    <glyph glyph-name="edotaccent" unicode="&#x117;" horiz-adv-x="898" 
d="M454 -24q-102 0 -179 44t-121 123.5t-44 185.5v429q0 104 44 183.5t121 124t179 44.5q153 0 247 -97t94 -255v-237h-569v140h424v102q0 91 -52.5 146.5t-143.5 55.5t-145 -55.5t-54 -146.5v-439q0 -91 54 -147t145 -56t143.5 56t52.5 147v25h145v-20q0 -158 -94 -255.5
t-247 -97.5zM389 1272v228h130v-228h-130z" />
    <glyph glyph-name="Eogonek" unicode="&#x118;" horiz-adv-x="865" 
d="M781 1500v-150h-455v-525h401v-150h-401v-525h455v-150h-605v1500h605zM546 -414q-111 0 -173.5 53.5t-62.5 143.5q0 83 54 150t153 124h27v-57q-56 -46 -87 -95t-31 -97q0 -52 33.5 -79t92.5 -27h28v-116h-34z" />
    <glyph glyph-name="eogonek" unicode="&#x119;" horiz-adv-x="898" 
d="M454 -24q-102 0 -179 44t-121 123.5t-44 185.5v429q0 104 44 183.5t121 124t179 44.5q153 0 247 -97t94 -255v-237h-569v140h424v102q0 91 -52.5 146.5t-143.5 55.5t-145 -55.5t-54 -146.5v-439q0 -91 54 -147t145 -56t143.5 56t52.5 147v25h145v-20q0 -158 -94 -255.5
t-247 -97.5zM574 -414q-111 0 -173.5 53.5t-62.5 143.5q0 83 54 150t153 124h27v-57q-56 -46 -87 -95t-31 -97q0 -52 33.5 -79t92.5 -27h28v-116h-34z" />
    <glyph glyph-name="Ecaron" unicode="&#x11a;" horiz-adv-x="865" 
d="M781 1500v-150h-455v-525h401v-150h-401v-525h455v-150h-605v1500h605zM364 1685l-222 290h146l137 -189l136 189h146l-223 -290h-120z" />
    <glyph glyph-name="ecaron" unicode="&#x11b;" horiz-adv-x="898" 
d="M454 -24q-102 0 -179 44t-121 123.5t-44 185.5v429q0 104 44 183.5t121 124t179 44.5q153 0 247 -97t94 -255v-237h-569v140h424v102q0 91 -52.5 146.5t-143.5 55.5t-145 -55.5t-54 -146.5v-439q0 -91 54 -147t145 -56t143.5 56t52.5 147v25h145v-20q0 -158 -94 -255.5
t-247 -97.5zM393 1270l-222 290h146l137 -189l136 189h146l-223 -290h-120z" />
    <glyph glyph-name="Gcircumflex" unicode="&#x11c;" horiz-adv-x="992" 
d="M509 -32q-160 0 -257.5 102t-97.5 268v824q0 167 97.5 268.5t257.5 101.5q161 0 258 -101.5t97 -268.5v-50h-150v50q0 99 -56 159.5t-149 60.5t-149 -60.5t-56 -159.5v-824q0 -99 56 -159.5t149 -60.5t149 60.5t56 159.5v232h-201v150h351v-382q0 -166 -97 -268
t-258 -102zM226 1685l222 290h120l223 -290h-146l-136 189l-137 -189h-146z" />
    <glyph glyph-name="gcircumflex" unicode="&#x11d;" 
d="M433 -366q-152 0 -246.5 97.5t-94.5 256.5v26h145v-31q0 -91 52.5 -147.5t143.5 -56.5t145 56.5t54 147.5v298l25 -32q-37 -63 -98.5 -98t-146.5 -35q-89 0 -161 39.5t-114 117.5t-42 191v299q0 112 42 189.5t114 117.5t161 40q85 0 146.5 -35.5t98.5 -97.5l-25 -33v141
h145v-1098q0 -106 -44 -185.5t-121 -123.5t-179 -44zM438 261q92 0 143 55.5t51 146.5v300q0 91 -51 146.5t-143 55.5q-93 0 -145.5 -55.5t-52.5 -146.5v-299q0 -91 52.5 -147t145.5 -56zM153 1270l222 290h120l223 -290h-146l-136 189l-137 -189h-146z" />
    <glyph glyph-name="Gbreve" unicode="&#x11e;" horiz-adv-x="992" 
d="M509 -32q-160 0 -257.5 102t-97.5 268v824q0 167 97.5 268.5t257.5 101.5q161 0 258 -101.5t97 -268.5v-50h-150v50q0 99 -56 159.5t-149 60.5t-149 -60.5t-56 -159.5v-824q0 -99 56 -159.5t149 -60.5t149 60.5t56 159.5v232h-201v150h351v-382q0 -166 -97 -268
t-258 -102zM509 1744q-94 0 -156.5 59t-62.5 155v17h106v-17q0 -54 32.5 -85t80.5 -31t80 31t32 85v17h105v-17q0 -96 -61.5 -155t-155.5 -59z" />
    <glyph glyph-name="gbreve" unicode="&#x11f;" 
d="M433 -366q-152 0 -246.5 97.5t-94.5 256.5v26h145v-31q0 -91 52.5 -147.5t143.5 -56.5t145 56.5t54 147.5v298l25 -32q-37 -63 -98.5 -98t-146.5 -35q-89 0 -161 39.5t-114 117.5t-42 191v299q0 112 42 189.5t114 117.5t161 40q85 0 146.5 -35.5t98.5 -97.5l-25 -33v141
h145v-1098q0 -106 -44 -185.5t-121 -123.5t-179 -44zM438 261q92 0 143 55.5t51 146.5v300q0 91 -51 146.5t-143 55.5q-93 0 -145.5 -55.5t-52.5 -146.5v-299q0 -91 52.5 -147t145.5 -56zM436 1329q-94 0 -156.5 59t-62.5 155v17h106v-17q0 -54 32.5 -85t80.5 -31t80 31
t32 85v17h105v-17q0 -96 -61.5 -155t-155.5 -59z" />
    <glyph glyph-name="Gdotaccent" unicode="&#x120;" horiz-adv-x="992" 
d="M509 -32q-160 0 -257.5 102t-97.5 268v824q0 167 97.5 268.5t257.5 101.5q161 0 258 -101.5t97 -268.5v-50h-150v50q0 99 -56 159.5t-149 60.5t-149 -60.5t-56 -159.5v-824q0 -99 56 -159.5t149 -60.5t149 60.5t56 159.5v232h-201v150h351v-382q0 -166 -97 -268
t-258 -102zM444 1687v228h130v-228h-130z" />
    <glyph glyph-name="gdotaccent" unicode="&#x121;" 
d="M433 -366q-152 0 -246.5 97.5t-94.5 256.5v26h145v-31q0 -91 52.5 -147.5t143.5 -56.5t145 56.5t54 147.5v298l25 -32q-37 -63 -98.5 -98t-146.5 -35q-89 0 -161 39.5t-114 117.5t-42 191v299q0 112 42 189.5t114 117.5t161 40q85 0 146.5 -35.5t98.5 -97.5l-25 -33v141
h145v-1098q0 -106 -44 -185.5t-121 -123.5t-179 -44zM438 261q92 0 143 55.5t51 146.5v300q0 91 -51 146.5t-143 55.5q-93 0 -145.5 -55.5t-52.5 -146.5v-299q0 -91 52.5 -147t145.5 -56zM371 1272v228h130v-228h-130z" />
    <glyph glyph-name="uni0122" unicode="&#x122;" horiz-adv-x="992" 
d="M509 -32q-160 0 -257.5 102t-97.5 268v824q0 167 97.5 268.5t257.5 101.5q161 0 258 -101.5t97 -268.5v-50h-150v50q0 99 -56 159.5t-149 60.5t-149 -60.5t-56 -159.5v-824q0 -99 56 -159.5t149 -60.5t149 60.5t56 159.5v232h-201v150h351v-382q0 -166 -97 -268
t-258 -102zM394 -440l47 315h170l-115 -315h-102z" />
    <glyph glyph-name="uni0123" unicode="&#x123;" 
d="M433 -366q-152 0 -246.5 97.5t-94.5 256.5v26h145v-31q0 -91 52.5 -147.5t143.5 -56.5t145 56.5t54 147.5v298l25 -32q-37 -63 -98.5 -98t-146.5 -35q-89 0 -161 39.5t-114 117.5t-42 191v299q0 112 42 189.5t114 117.5t161 40q85 0 146.5 -35.5t98.5 -97.5l-25 -33v141
h145v-1098q0 -106 -44 -185.5t-121 -123.5t-179 -44zM438 261q92 0 143 55.5t51 146.5v300q0 91 -51 146.5t-143 55.5q-93 0 -145.5 -55.5t-52.5 -146.5v-299q0 -91 52.5 -147t145.5 -56zM318 -806l47 315h170l-115 -315h-102z" />
    <glyph glyph-name="Hcircumflex" unicode="&#x124;" horiz-adv-x="1037" 
d="M176 0v1500h150v-765h385v765h150v-1500h-150v585h-385v-585h-150zM236 1685l222 290h120l223 -290h-146l-136 189l-137 -189h-146z" />
    <glyph glyph-name="hcircumflex" unicode="&#x125;" horiz-adv-x="942" 
d="M142 0v1500h145v-557l-24 31q37 65 99.5 101t147.5 36q86 0 154.5 -38.5t108 -112.5t39.5 -181v-779h-145v764q0 92 -51.5 147t-136.5 55q-87 0 -139.5 -55t-52.5 -147v-764h-145zM-70 1685l222 290h120l223 -290h-146l-136 189l-137 -189h-146z" />
    <glyph glyph-name="Hbar" unicode="&#x126;" horiz-adv-x="1037" 
d="M69 1024v125h900v-125h-900zM176 0v1500h150v-765h385v765h150v-1500h-150v585h-385v-585h-150z" />
    <glyph glyph-name="hbar" unicode="&#x127;" horiz-adv-x="942" 
d="M-22 1243v125h470v-125h-470zM142 0v1500h145v-557l-24 31q37 65 99.5 101t147.5 36q86 0 154.5 -38.5t108 -112.5t39.5 -181v-779h-145v764q0 92 -51.5 147t-136.5 55q-87 0 -139.5 -55t-52.5 -147v-764h-145z" />
    <glyph glyph-name="Itilde" unicode="&#x128;" horiz-adv-x="502" 
d="M326 0h-150v1500h150v-1500zM370 1675q-40 0 -69.5 15t-52.5 31q-28 21 -50.5 37.5t-42.5 16.5t-30.5 -16.5t-10.5 -39.5v-34h-117v41q0 76 37 112.5t93 36.5q41 0 74 -16.5t55 -33.5q25 -19 45.5 -35t41.5 -16q23 0 32.5 19t9.5 40v40h116v-50q0 -76 -37 -112t-94 -36z
" />
    <glyph glyph-name="itilde" unicode="&#x129;" horiz-adv-x="429" 
d="M142 0v1085h145v-1085h-145zM334 1260q-40 0 -69.5 15t-52.5 31q-28 21 -50.5 37.5t-42.5 16.5t-30.5 -16.5t-10.5 -39.5v-34h-117v41q0 76 37 112.5t93 36.5q41 0 74 -16.5t55 -33.5q25 -19 45.5 -35t41.5 -16q23 0 32.5 19t9.5 40v40h116v-50q0 -76 -37 -112t-94 -36z
" />
    <glyph glyph-name="Imacron" unicode="&#x12a;" horiz-adv-x="502" 
d="M326 0h-150v1500h150v-1500zM33 1785h436v-115h-436v115z" />
    <glyph glyph-name="imacron" unicode="&#x12b;" horiz-adv-x="429" 
d="M142 0v1085h145v-1085h-145zM-3 1370h436v-115h-436v115z" />
    <glyph glyph-name="Iogonek" unicode="&#x12e;" horiz-adv-x="502" 
d="M326 0h-150v1500h150v-1500zM284 -414q-111 0 -173.5 53.5t-62.5 143.5q0 83 54 150t153 124h27v-57q-56 -46 -87 -95t-31 -97q0 -52 33.5 -79t92.5 -27h28v-116h-34z" />
    <glyph glyph-name="iogonek" unicode="&#x12f;" horiz-adv-x="429" 
d="M142 0v1085h145v-1085h-145zM151 1272v228h130v-228h-130zM246 -414q-111 0 -173.5 53.5t-62.5 143.5q0 83 54 150t153 124h27v-57q-56 -46 -87 -95t-31 -97q0 -52 33.5 -79t92.5 -27h28v-116h-34z" />
    <glyph glyph-name="Idotaccent" unicode="&#x130;" horiz-adv-x="502" 
d="M326 0h-150v1500h150v-1500zM187 1687v228h130v-228h-130z" />
    <glyph glyph-name="dotlessi" unicode="&#x131;" horiz-adv-x="429" 
d="M142 0v1085h145v-1085h-145z" />
    <glyph glyph-name="IJ" unicode="&#x132;" horiz-adv-x="1159" 
d="M326 0h-150v1500h150v-1500zM540 -12v150h100q93 0 149 60.5t56 159.5v1142h150v-1142q0 -166 -97 -268t-258 -102h-100z" />
    <glyph glyph-name="ij" unicode="&#x133;" horiz-adv-x="858" 
d="M142 0v1085h145v-1085h-145zM142 1206v234h145v-234h-145zM311 -366v145h63q90 0 143.5 60.5t53.5 158.5v1087h145v-1081q0 -166 -93.5 -268t-248.5 -102h-63zM571 1206v234h145v-234h-145z" />
    <glyph glyph-name="Jcircumflex" unicode="&#x134;" horiz-adv-x="657" 
d="M38 -12v150h100q93 0 149 60.5t56 159.5v1142h150v-1142q0 -166 -97 -268t-258 -102h-100zM131 1685l222 290h120l223 -290h-146l-136 189l-137 -189h-146z" />
    <glyph glyph-name="jcircumflex" unicode="&#x135;" horiz-adv-x="429" 
d="M-118 -366v145h63q90 0 143.5 60.5t53.5 158.5v1087h145v-1081q0 -166 -93.5 -268t-248.5 -102h-63zM-67 1270l222 290h120l223 -290h-146l-136 189l-137 -189h-146z" />
    <glyph glyph-name="uni0136" unicode="&#x136;" horiz-adv-x="981" 
d="M774 0l-365 786l-103 -150v249l429 615h163l-389 -567l427 -933h-162zM176 0v1500h150v-1500h-150zM359 -440l47 315h170l-115 -315h-102z" />
    <glyph glyph-name="uni0137" unicode="&#x137;" horiz-adv-x="853" 
d="M690 0l-299 582l-123 -158v221l359 442h155l-296 -380l359 -707h-155zM142 0v1500h145v-1500h-145zM298 -440l47 315h170l-115 -315h-102z" />
    <glyph glyph-name="kgreenlandic" unicode="&#x138;" horiz-adv-x="850" 
d="M690 0l-409 670l346 417h155l-349 -425l412 -662h-155zM142 0v1085h145v-1085h-145z" />
    <glyph glyph-name="Lacute" unicode="&#x139;" horiz-adv-x="782" 
d="M326 1500v-1350h415v-150h-565v1500h150zM311 1631l135 344h153l-176 -344h-112z" />
    <glyph glyph-name="lacute" unicode="&#x13a;" horiz-adv-x="429" 
d="M142 0v1500h145v-1500h-145zM158 1631l135 344h153l-176 -344h-112z" />
    <glyph glyph-name="uni013B" unicode="&#x13b;" horiz-adv-x="782" 
d="M326 1500v-1350h415v-150h-565v1500h150zM254 -440l47 315h170l-115 -315h-102z" />
    <glyph glyph-name="uni013C" unicode="&#x13c;" horiz-adv-x="429" 
d="M142 0v1500h145v-1500h-145zM100 -440l47 315h170l-115 -315h-102z" />
    <glyph glyph-name="Lcaron" unicode="&#x13d;" horiz-adv-x="782" 
d="M326 1500v-1350h415v-150h-565v1500h150zM308 1685l-222 290h146l137 -189l136 189h146l-223 -290h-120z" />
    <glyph glyph-name="lcaron" unicode="&#x13e;" horiz-adv-x="862" 
d="M142 0v1500h145v-1500h-145zM480 1060l80 440h145l-80 -440h-145z" />
    <glyph glyph-name="Ldot" unicode="&#x13f;" horiz-adv-x="780" 
d="M326 1500v-1350h415v-150h-565v1500h150zM475 632v240h140v-240h-140z" />
    <glyph glyph-name="ldot" unicode="&#x140;" horiz-adv-x="718" 
d="M142 0v1500h145v-1500h-145zM436 631v240h140v-240h-140z" />
    <glyph glyph-name="Lslash" unicode="&#x141;" horiz-adv-x="782" 
d="M-26 581v140l555 200v-140zM326 1500v-1350h415v-150h-565v1500h150z" />
    <glyph glyph-name="lslash" unicode="&#x142;" horiz-adv-x="429" 
d="M-29 613v143l490 132v-143zM142 0v1500h145v-1500h-145z" />
    <glyph glyph-name="Nacute" unicode="&#x143;" horiz-adv-x="1057" 
d="M176 0v1500h133l469 -1222l-42 -5v1227h145v-1500h-132l-470 1223l42 5v-1228h-145zM471 1631l135 344h153l-176 -344h-112z" />
    <glyph glyph-name="nacute" unicode="&#x144;" horiz-adv-x="941" 
d="M142 0v1085h145v-145l-25 29q38 68 101 104.5t147 36.5q136 0 219 -94t83 -253v-763h-145v763q0 91 -51.5 146.5t-136.5 55.5q-87 0 -139.5 -55.5t-52.5 -146.5v-763h-145zM419 1216l135 344h153l-176 -344h-112z" />
    <glyph glyph-name="uni0145" unicode="&#x145;" horiz-adv-x="1057" 
d="M176 0v1500h133l469 -1222l-42 -5v1227h145v-1500h-132l-470 1223l42 5v-1228h-145zM413 -440l47 315h170l-115 -315h-102z" />
    <glyph glyph-name="uni0146" unicode="&#x146;" horiz-adv-x="941" 
d="M142 0v1085h145v-145l-25 29q38 68 101 104.5t147 36.5q136 0 219 -94t83 -253v-763h-145v763q0 91 -51.5 146.5t-136.5 55.5q-87 0 -139.5 -55.5t-52.5 -146.5v-763h-145zM362 -440l47 315h170l-115 -315h-102z" />
    <glyph glyph-name="Ncaron" unicode="&#x147;" horiz-adv-x="1057" 
d="M176 0v1500h133l469 -1222l-42 -5v1227h145v-1500h-132l-470 1223l42 5v-1228h-145zM468 1685l-222 290h146l137 -189l136 189h146l-223 -290h-120z" />
    <glyph glyph-name="ncaron" unicode="&#x148;" horiz-adv-x="941" 
d="M142 0v1085h145v-145l-25 29q38 68 101 104.5t147 36.5q136 0 219 -94t83 -253v-763h-145v763q0 91 -51.5 146.5t-136.5 55.5q-87 0 -139.5 -55.5t-52.5 -146.5v-763h-145zM416 1270l-222 290h146l137 -189l136 189h146l-223 -290h-120z" />
    <glyph glyph-name="napostrophe" unicode="&#x149;" horiz-adv-x="1301" 
d="M171 1060l49 167h-63v273h150v-273l-49 -167h-87zM502 0v1085h145v-145l-25 29q38 68 101 104.5t147 36.5q136 0 219 -94t83 -253v-763h-145v763q0 91 -51.5 146.5t-136.5 55.5q-87 0 -139.5 -55.5t-52.5 -146.5v-763h-145z" />
    <glyph glyph-name="Omacron" unicode="&#x14c;" horiz-adv-x="1018" 
d="M509 -32q-160 0 -257.5 102t-97.5 268v824q0 167 97.5 268.5t257.5 101.5q161 0 258 -101.5t97 -268.5v-824q0 -166 -97 -268t-258 -102zM509 118q93 0 149 60.5t56 159.5v824q0 99 -56 159.5t-149 60.5t-149 -60.5t-56 -159.5v-824q0 -99 56 -159.5t149 -60.5zM290 1785
h436v-115h-436v115z" />
    <glyph glyph-name="omacron" unicode="&#x14d;" horiz-adv-x="907" 
d="M454 -24q-102 0 -179 44t-121 123.5t-44 185.5v429q0 104 44 183.5t121 124t179 44.5q153 0 247 -97t94 -255v-429q0 -158 -94 -255.5t-247 -97.5zM454 121q91 0 143.5 56t52.5 147v439q0 91 -52.5 146.5t-143.5 55.5t-145 -55.5t-54 -146.5v-439q0 -91 54 -147t145 -56z
M235 1370h436v-115h-436v115z" />
    <glyph glyph-name="Obreve" unicode="&#x14e;" horiz-adv-x="1018" 
d="M509 -32q-160 0 -257.5 102t-97.5 268v824q0 167 97.5 268.5t257.5 101.5q161 0 258 -101.5t97 -268.5v-824q0 -166 -97 -268t-258 -102zM509 118q93 0 149 60.5t56 159.5v824q0 99 -56 159.5t-149 60.5t-149 -60.5t-56 -159.5v-824q0 -99 56 -159.5t149 -60.5zM509 1744
q-94 0 -156.5 59t-62.5 155v17h106v-17q0 -54 32.5 -85t80.5 -31t80 31t32 85v17h105v-17q0 -96 -61.5 -155t-155.5 -59z" />
    <glyph glyph-name="obreve" unicode="&#x14f;" horiz-adv-x="907" 
d="M454 -24q-102 0 -179 44t-121 123.5t-44 185.5v429q0 104 44 183.5t121 124t179 44.5q153 0 247 -97t94 -255v-429q0 -158 -94 -255.5t-247 -97.5zM454 121q91 0 143.5 56t52.5 147v439q0 91 -52.5 146.5t-143.5 55.5t-145 -55.5t-54 -146.5v-439q0 -91 54 -147t145 -56z
M454 1329q-94 0 -156.5 59t-62.5 155v17h106v-17q0 -54 32.5 -85t80.5 -31t80 31t32 85v17h105v-17q0 -96 -61.5 -155t-155.5 -59z" />
    <glyph glyph-name="Ohungarumlaut" unicode="&#x150;" horiz-adv-x="1018" 
d="M509 -32q-160 0 -257.5 102t-97.5 268v824q0 167 97.5 268.5t257.5 101.5q161 0 258 -101.5t97 -268.5v-824q0 -166 -97 -268t-258 -102zM509 118q93 0 149 60.5t56 159.5v824q0 99 -56 159.5t-149 60.5t-149 -60.5t-56 -159.5v-824q0 -99 56 -159.5t149 -60.5zM301 1631
l135 344h153l-176 -344h-112zM588 1631l136 344h153l-177 -344h-112z" />
    <glyph glyph-name="ohungarumlaut" unicode="&#x151;" horiz-adv-x="907" 
d="M454 -24q-102 0 -179 44t-121 123.5t-44 185.5v429q0 104 44 183.5t121 124t179 44.5q153 0 247 -97t94 -255v-429q0 -158 -94 -255.5t-247 -97.5zM454 121q91 0 143.5 56t52.5 147v439q0 91 -52.5 146.5t-143.5 55.5t-145 -55.5t-54 -146.5v-439q0 -91 54 -147t145 -56z
M246 1216l135 344h153l-176 -344h-112zM533 1216l136 344h153l-177 -344h-112z" />
    <glyph glyph-name="OE" unicode="&#x152;" horiz-adv-x="1448" 
d="M509 -32q-160 0 -257.5 102t-97.5 268v824q0 167 97.5 268.5t257.5 101.5q78 0 141.5 -24.5t109.5 -69.5v62h605v-150h-455v-525h401v-150h-401v-525h455v-150h-605v63q-46 -45 -109.5 -70t-141.5 -25zM509 118q93 0 149 60.5t56 159.5v824q0 99 -56 159.5t-149 60.5
t-149 -60.5t-56 -159.5v-824q0 -99 56 -159.5t149 -60.5z" />
    <glyph glyph-name="oe" unicode="&#x153;" horiz-adv-x="1438" 
d="M454 -24q-102 0 -179 44t-121 123.5t-44 185.5v429q0 104 44 183.5t121 124t179 44.5q99 0 176 -43.5t119 -119.5h-50q42 76 119 119.5t176 43.5q153 0 247 -97t94 -255v-237h-540v-197q0 -91 54 -147t145 -56t143.5 56t52.5 147v25h145v-20q0 -158 -94 -255.5
t-247 -97.5q-99 0 -176 43t-119 120h50q-42 -77 -119 -120t-176 -43zM454 121q91 0 143.5 56t52.5 147v439q0 91 -52.5 146.5t-143.5 55.5t-145 -55.5t-54 -146.5v-439q0 -91 54 -147t145 -56zM795 661h395v102q0 91 -52.5 146.5t-143.5 55.5t-145 -55.5t-54 -146.5v-102z
" />
    <glyph glyph-name="Racute" unicode="&#x154;" horiz-adv-x="1023" 
d="M176 0v1500h370q148 0 236.5 -93t88.5 -247v-202q0 -104 -42.5 -183t-120.5 -120l-7 44q80 -31 125 -98t45 -158v-443h-150v443q0 78 -47.5 126.5t-127.5 48.5h-220v-618h-150zM326 768h220q80 0 127.5 52t47.5 138v202q0 86 -47.5 138t-127.5 52h-220v-582zM454 1631
l135 344h153l-176 -344h-112z" />
    <glyph glyph-name="racute" unicode="&#x155;" horiz-adv-x="565" 
d="M142 0v1085h145v-156l-25 30q38 67 101 103t146 36h47v-145h-77q-87 0 -139.5 -54t-52.5 -145v-754h-145zM294 1216l135 344h153l-176 -344h-112z" />
    <glyph glyph-name="uni0156" unicode="&#x156;" horiz-adv-x="1023" 
d="M176 0v1500h370q148 0 236.5 -93t88.5 -247v-202q0 -104 -42.5 -183t-120.5 -120l-7 44q80 -31 125 -98t45 -158v-443h-150v443q0 78 -47.5 126.5t-127.5 48.5h-220v-618h-150zM326 768h220q80 0 127.5 52t47.5 138v202q0 86 -47.5 138t-127.5 52h-220v-582zM396 -440
l47 315h170l-115 -315h-102z" />
    <glyph glyph-name="uni0157" unicode="&#x157;" horiz-adv-x="565" 
d="M142 0v1085h145v-156l-25 30q38 67 101 103t146 36h47v-145h-77q-87 0 -139.5 -54t-52.5 -145v-754h-145zM98 -440l47 315h170l-115 -315h-102z" />
    <glyph glyph-name="Rcaron" unicode="&#x158;" horiz-adv-x="1023" 
d="M176 0v1500h370q148 0 236.5 -93t88.5 -247v-202q0 -104 -42.5 -183t-120.5 -120l-7 44q80 -31 125 -98t45 -158v-443h-150v443q0 78 -47.5 126.5t-127.5 48.5h-220v-618h-150zM326 768h220q80 0 127.5 52t47.5 138v202q0 86 -47.5 138t-127.5 52h-220v-582zM451 1685
l-222 290h146l137 -189l136 189h146l-223 -290h-120z" />
    <glyph glyph-name="rcaron" unicode="&#x159;" horiz-adv-x="565" 
d="M142 0v1085h145v-156l-25 30q38 67 101 103t146 36h47v-145h-77q-87 0 -139.5 -54t-52.5 -145v-754h-145zM291 1270l-222 290h146l137 -189l136 189h146l-223 -290h-120z" />
    <glyph glyph-name="Sacute" unicode="&#x15a;" horiz-adv-x="944" 
d="M473 -32q-160 0 -257.5 102t-97.5 268v50h150v-50q0 -99 56 -159.5t149 -60.5t149 60.5t56 159.5v112q0 55 -4 87.5t-22 52.5t-60 37.5t-119 42.5q-133 44 -206 73t-104.5 62t-38 87.5t-6.5 147.5v122q0 167 97.5 268.5t257.5 101.5q161 0 258 -101.5t97 -268.5v-50h-150
v50q0 99 -56 159.5t-149 60.5t-149 -60.5t-56 -159.5v-122q0 -55 3.5 -87.5t21.5 -52t60.5 -37.5t119.5 -43q133 -43 206 -72.5t104.5 -62.5t38 -87t6.5 -148v-112q0 -166 -97 -268t-258 -102zM414 1631l135 344h153l-176 -344h-112z" />
    <glyph glyph-name="sacute" unicode="&#x15b;" horiz-adv-x="849" 
d="M432 -24q-155 0 -248.5 89.5t-93.5 236.5v35h145v-41q0 -79 53.5 -127t141.5 -48q85 0 135 48t50 139q0 59 -22.5 90.5t-64.5 47.5t-102 28q-99 21 -175 46.5t-118.5 81.5t-42.5 167q0 166 91.5 253.5t240.5 87.5q155 0 246.5 -89.5t91.5 -235.5v-34h-145v39
q0 80 -51.5 127.5t-139.5 47.5q-86 0 -137.5 -48.5t-51.5 -139.5q0 -59 22.5 -90.5t65.5 -46.5t103 -28q98 -20 173 -46t118 -83t43 -169q0 -163 -89.5 -250.5t-238.5 -87.5zM367 1216l135 344h153l-176 -344h-112z" />
    <glyph glyph-name="Scircumflex" unicode="&#x15c;" horiz-adv-x="944" 
d="M473 -32q-160 0 -257.5 102t-97.5 268v50h150v-50q0 -99 56 -159.5t149 -60.5t149 60.5t56 159.5v112q0 55 -4 87.5t-22 52.5t-60 37.5t-119 42.5q-133 44 -206 73t-104.5 62t-38 87.5t-6.5 147.5v122q0 167 97.5 268.5t257.5 101.5q161 0 258 -101.5t97 -268.5v-50h-150
v50q0 99 -56 159.5t-149 60.5t-149 -60.5t-56 -159.5v-122q0 -55 3.5 -87.5t21.5 -52t60.5 -37.5t119.5 -43q133 -43 206 -72.5t104.5 -62.5t38 -87t6.5 -148v-112q0 -166 -97 -268t-258 -102zM189 1685l222 290h120l223 -290h-146l-136 189l-137 -189h-146z" />
    <glyph glyph-name="scircumflex" unicode="&#x15d;" horiz-adv-x="849" 
d="M432 -24q-155 0 -248.5 89.5t-93.5 236.5v35h145v-41q0 -79 53.5 -127t141.5 -48q85 0 135 48t50 139q0 59 -22.5 90.5t-64.5 47.5t-102 28q-99 21 -175 46.5t-118.5 81.5t-42.5 167q0 166 91.5 253.5t240.5 87.5q155 0 246.5 -89.5t91.5 -235.5v-34h-145v39
q0 80 -51.5 127.5t-139.5 47.5q-86 0 -137.5 -48.5t-51.5 -139.5q0 -59 22.5 -90.5t65.5 -46.5t103 -28q98 -20 173 -46t118 -83t43 -169q0 -163 -89.5 -250.5t-238.5 -87.5zM142 1270l222 290h120l223 -290h-146l-136 189l-137 -189h-146z" />
    <glyph glyph-name="Scedilla" unicode="&#x15e;" horiz-adv-x="944" 
d="M473 -32q-160 0 -257.5 102t-97.5 268v50h150v-50q0 -99 56 -159.5t149 -60.5t149 60.5t56 159.5v112q0 55 -4 87.5t-22 52.5t-60 37.5t-119 42.5q-133 44 -206 73t-104.5 62t-38 87.5t-6.5 147.5v122q0 167 97.5 268.5t257.5 101.5q161 0 258 -101.5t97 -268.5v-50h-150
v50q0 99 -56 159.5t-149 60.5t-149 -60.5t-56 -159.5v-122q0 -55 3.5 -87.5t21.5 -52t60.5 -37.5t119.5 -43q133 -43 206 -72.5t104.5 -62.5t38 -87t6.5 -148v-112q0 -166 -97 -268t-258 -102zM417 -434v114h128q33 0 53 18t20 47q0 30 -20 49t-53 19h-72l-53 35v189h116
v-161l-71 15q82 29 142.5 13t93.5 -61.5t33 -104.5q0 -74 -52 -123t-137 -49h-128z" />
    <glyph glyph-name="scedilla" unicode="&#x15f;" horiz-adv-x="849" 
d="M432 -24q-155 0 -248.5 89.5t-93.5 236.5v35h145v-41q0 -79 53.5 -127t141.5 -48q85 0 135 48t50 139q0 59 -22.5 90.5t-64.5 47.5t-102 28q-99 21 -175 46.5t-118.5 81.5t-42.5 167q0 166 91.5 253.5t240.5 87.5q155 0 246.5 -89.5t91.5 -235.5v-34h-145v39
q0 80 -51.5 127.5t-139.5 47.5q-86 0 -137.5 -48.5t-51.5 -139.5q0 -59 22.5 -90.5t65.5 -46.5t103 -28q98 -20 173 -46t118 -83t43 -169q0 -163 -89.5 -250.5t-238.5 -87.5zM370 -434v114h128q33 0 53 18t20 47q0 30 -20 49t-53 19h-72l-53 35v189h116v-161l-71 15
q82 29 142.5 13t93.5 -61.5t33 -104.5q0 -74 -52 -123t-137 -49h-128z" />
    <glyph glyph-name="Scaron" unicode="&#x160;" horiz-adv-x="944" 
d="M473 -32q-160 0 -257.5 102t-97.5 268v50h150v-50q0 -99 56 -159.5t149 -60.5t149 60.5t56 159.5v112q0 55 -4 87.5t-22 52.5t-60 37.5t-119 42.5q-133 44 -206 73t-104.5 62t-38 87.5t-6.5 147.5v122q0 167 97.5 268.5t257.5 101.5q161 0 258 -101.5t97 -268.5v-50h-150
v50q0 99 -56 159.5t-149 60.5t-149 -60.5t-56 -159.5v-122q0 -55 3.5 -87.5t21.5 -52t60.5 -37.5t119.5 -43q133 -43 206 -72.5t104.5 -62.5t38 -87t6.5 -148v-112q0 -166 -97 -268t-258 -102zM411 1685l-222 290h146l137 -189l136 189h146l-223 -290h-120z" />
    <glyph glyph-name="scaron" unicode="&#x161;" horiz-adv-x="849" 
d="M432 -24q-155 0 -248.5 89.5t-93.5 236.5v35h145v-41q0 -79 53.5 -127t141.5 -48q85 0 135 48t50 139q0 59 -22.5 90.5t-64.5 47.5t-102 28q-99 21 -175 46.5t-118.5 81.5t-42.5 167q0 166 91.5 253.5t240.5 87.5q155 0 246.5 -89.5t91.5 -235.5v-34h-145v39
q0 80 -51.5 127.5t-139.5 47.5q-86 0 -137.5 -48.5t-51.5 -139.5q0 -59 22.5 -90.5t65.5 -46.5t103 -28q98 -20 173 -46t118 -83t43 -169q0 -163 -89.5 -250.5t-238.5 -87.5zM364 1270l-222 290h146l137 -189l136 189h146l-223 -290h-120z" />
    <glyph glyph-name="uni0162" unicode="&#x162;" horiz-adv-x="741" 
d="M296 0v1350h-258v150h665v-150h-257v-1350h-150zM312 -434v114h128q33 0 53 18t20 47q0 30 -20 49t-53 19h-72l-53 35v189h116v-161l-71 15q82 29 142.5 13t93.5 -61.5t33 -104.5q0 -74 -52 -123t-137 -49h-128z" />
    <glyph glyph-name="uni0163" unicode="&#x163;" horiz-adv-x="665" 
d="M549 -12q-155 0 -248.5 98.5t-93.5 264.5v599h-195v137h195v273h145v-273h270v-137h-270v-599q0 -99 54 -158.5t143 -59.5h73v-145h-73zM427 -434v114h128q33 0 53 18t20 47q0 30 -20 49t-53 19h-72l-53 35v189h116v-161l-71 15q82 29 142.5 13t93.5 -61.5t33 -104.5
q0 -74 -52 -123t-137 -49h-128z" />
    <glyph glyph-name="Tcaron" unicode="&#x164;" horiz-adv-x="741" 
d="M296 0v1350h-258v150h665v-150h-257v-1350h-150zM311 1685l-222 290h146l137 -189l136 189h146l-223 -290h-120z" />
    <glyph glyph-name="tcaron" unicode="&#x165;" horiz-adv-x="1111" 
d="M549 -12q-155 0 -248.5 98.5t-93.5 264.5v599h-195v137h195v273h145v-273h270v-137h-270v-599q0 -99 54 -158.5t143 -59.5h73v-145h-73zM729 1060l80 440h145l-80 -440h-145z" />
    <glyph glyph-name="Tbar" unicode="&#x166;" horiz-adv-x="741" 
d="M137 689v125h470v-125h-470zM296 0v1350h-258v150h665v-150h-257v-1350h-150z" />
    <glyph glyph-name="tbar" unicode="&#x167;" horiz-adv-x="665" 
d="M32 475v137h600v-137h-600zM549 -12q-155 0 -248.5 98.5t-93.5 264.5v599h-195v137h195v273h145v-273h270v-137h-270v-599q0 -99 54 -158.5t143 -59.5h73v-145h-73z" />
    <glyph glyph-name="Utilde" unicode="&#x168;" horiz-adv-x="1042" 
d="M876 1500v-1162q0 -166 -97 -268t-258 -102q-160 0 -257.5 102t-97.5 268v1162h150v-1162q0 -99 56 -159.5t149 -60.5t149 60.5t56 159.5v1162h150zM641 1675q-40 0 -69.5 15t-52.5 31q-28 21 -50.5 37.5t-42.5 16.5t-30.5 -16.5t-10.5 -39.5v-34h-117v41q0 76 37 112.5
t93 36.5q41 0 74 -16.5t55 -33.5q25 -19 45.5 -35t41.5 -16q23 0 32.5 19t9.5 40v40h116v-50q0 -76 -37 -112t-94 -36z" />
    <glyph glyph-name="utilde" unicode="&#x169;" horiz-adv-x="941" 
d="M431 -24q-86 0 -154 39t-108 116.5t-40 191.5v762h145v-762q0 -91 52 -146.5t137 -55.5q87 0 139 55.5t52 146.5v762h145v-1085h-145v144l25 -31q-37 -65 -100 -101t-148 -36zM581 1260q-40 0 -69.5 15t-52.5 31q-28 21 -50.5 37.5t-42.5 16.5t-30.5 -16.5t-10.5 -39.5
v-34h-117v41q0 76 37 112.5t93 36.5q41 0 74 -16.5t55 -33.5q25 -19 45.5 -35t41.5 -16q23 0 32.5 19t9.5 40v40h116v-50q0 -76 -37 -112t-94 -36z" />
    <glyph glyph-name="Umacron" unicode="&#x16a;" horiz-adv-x="1042" 
d="M876 1500v-1162q0 -166 -97 -268t-258 -102q-160 0 -257.5 102t-97.5 268v1162h150v-1162q0 -99 56 -159.5t149 -60.5t149 60.5t56 159.5v1162h150zM304 1785h436v-115h-436v115z" />
    <glyph glyph-name="umacron" unicode="&#x16b;" horiz-adv-x="941" 
d="M431 -24q-86 0 -154 39t-108 116.5t-40 191.5v762h145v-762q0 -91 52 -146.5t137 -55.5q87 0 139 55.5t52 146.5v762h145v-1085h-145v144l25 -31q-37 -65 -100 -101t-148 -36zM244 1370h436v-115h-436v115z" />
    <glyph glyph-name="Ubreve" unicode="&#x16c;" horiz-adv-x="1042" 
d="M876 1500v-1162q0 -166 -97 -268t-258 -102q-160 0 -257.5 102t-97.5 268v1162h150v-1162q0 -99 56 -159.5t149 -60.5t149 60.5t56 159.5v1162h150zM523 1744q-94 0 -156.5 59t-62.5 155v17h106v-17q0 -54 32.5 -85t80.5 -31t80 31t32 85v17h105v-17q0 -96 -61.5 -155
t-155.5 -59z" />
    <glyph glyph-name="ubreve" unicode="&#x16d;" horiz-adv-x="941" 
d="M431 -24q-86 0 -154 39t-108 116.5t-40 191.5v762h145v-762q0 -91 52 -146.5t137 -55.5q87 0 139 55.5t52 146.5v762h145v-1085h-145v144l25 -31q-37 -65 -100 -101t-148 -36zM463 1329q-94 0 -156.5 59t-62.5 155v17h106v-17q0 -54 32.5 -85t80.5 -31t80 31t32 85v17
h105v-17q0 -96 -61.5 -155t-155.5 -59z" />
    <glyph glyph-name="Uring" unicode="&#x16e;" horiz-adv-x="1042" 
d="M876 1500v-1162q0 -166 -97 -268t-258 -102q-160 0 -257.5 102t-97.5 268v1162h150v-1162q0 -99 56 -159.5t149 -60.5t149 60.5t56 159.5v1162h150zM525 1562q-75 0 -129 50t-54 131q0 83 54 133t127 50q74 0 128.5 -50t54.5 -132t-54 -132t-127 -50zM525 1660
q31 0 57 23t26 61t-26.5 61.5t-57.5 23.5q-32 0 -58.5 -24t-26.5 -61q0 -38 26.5 -61t59.5 -23z" />
    <glyph glyph-name="uring" unicode="&#x16f;" horiz-adv-x="941" 
d="M431 -24q-86 0 -154 39t-108 116.5t-40 191.5v762h145v-762q0 -91 52 -146.5t137 -55.5q87 0 139 55.5t52 146.5v762h145v-1085h-145v144l25 -31q-37 -65 -100 -101t-148 -36zM465 1147q-75 0 -129 50t-54 131q0 83 54 133t127 50q74 0 128.5 -50t54.5 -132t-54 -132
t-127 -50zM465 1245q31 0 57 23t26 61t-26.5 61.5t-57.5 23.5q-32 0 -58.5 -24t-26.5 -61q0 -38 26.5 -61t59.5 -23z" />
    <glyph glyph-name="Uhungarumlaut" unicode="&#x170;" horiz-adv-x="1042" 
d="M876 1500v-1162q0 -166 -97 -268t-258 -102q-160 0 -257.5 102t-97.5 268v1162h150v-1162q0 -99 56 -159.5t149 -60.5t149 60.5t56 159.5v1162h150zM314 1631l135 344h153l-176 -344h-112zM601 1631l136 344h153l-177 -344h-112z" />
    <glyph glyph-name="uhungarumlaut" unicode="&#x171;" horiz-adv-x="941" 
d="M431 -24q-86 0 -154 39t-108 116.5t-40 191.5v762h145v-762q0 -91 52 -146.5t137 -55.5q87 0 139 55.5t52 146.5v762h145v-1085h-145v144l25 -31q-37 -65 -100 -101t-148 -36zM254 1216l135 344h153l-176 -344h-112zM541 1216l136 344h153l-177 -344h-112z" />
    <glyph glyph-name="Uogonek" unicode="&#x172;" horiz-adv-x="1042" 
d="M876 1500v-1162q0 -166 -97 -268t-258 -102q-160 0 -257.5 102t-97.5 268v1162h150v-1162q0 -99 56 -159.5t149 -60.5t149 60.5t56 159.5v1162h150zM590 -414q-111 0 -173.5 53.5t-62.5 143.5q0 83 54 150t153 124h27v-57q-56 -46 -87 -95t-31 -97q0 -52 33.5 -79
t92.5 -27h28v-116h-34z" />
    <glyph glyph-name="uogonek" unicode="&#x173;" horiz-adv-x="941" 
d="M431 -24q-86 0 -154 39t-108 116.5t-40 191.5v762h145v-762q0 -91 52 -146.5t137 -55.5q87 0 139 55.5t52 146.5v762h145v-1085h-145v144l25 -31q-37 -65 -100 -101t-148 -36zM752 -414q-111 0 -173.5 53.5t-62.5 143.5q0 83 54 150t153 124h27v-57q-56 -46 -87 -95
t-31 -97q0 -52 33.5 -79t92.5 -27h28v-116h-34z" />
    <glyph glyph-name="Wcircumflex" unicode="&#x174;" horiz-adv-x="1299" 
d="M288 0l-211 1500h155l160 -1216l-19 1l210 1215h134l209 -1215l-18 -1l160 1216h154l-211 -1500h-160l-212 1150h25l-216 -1150h-160zM368 1685l222 290h120l223 -290h-146l-136 189l-137 -189h-146z" />
    <glyph glyph-name="wcircumflex" unicode="&#x175;" horiz-adv-x="1103" 
d="M228 0l-173 1085h151l121 -926l-22 2l178 924h137l178 -924l-21 -2l119 926h152l-173 -1085h-164l-172 836h28l-174 -836h-165zM270 1270l222 290h120l223 -290h-146l-136 189l-137 -189h-146z" />
    <glyph glyph-name="Ycircumflex" unicode="&#x176;" horiz-adv-x="944" 
d="M398 0v770l-366 730h154l314 -634h-55l313 634h154l-364 -730v-770h-150zM189 1685l222 290h120l223 -290h-146l-136 189l-137 -189h-146z" />
    <glyph glyph-name="ycircumflex" unicode="&#x177;" horiz-adv-x="835" 
d="M240 -360l98 338l-316 1107h158l257 -916h-35l253 916h160l-419 -1445h-156zM136 1270l222 290h120l223 -290h-146l-136 189l-137 -189h-146z" />
    <glyph glyph-name="Ydieresis" unicode="&#x178;" horiz-adv-x="944" 
d="M398 0v770l-366 730h154l314 -634h-55l313 634h154l-364 -730v-770h-150zM274 1747v228h130v-228h-130zM550 1747v228h128v-228h-128z" />
    <glyph glyph-name="Zacute" unicode="&#x179;" horiz-adv-x="840" 
d="M73 0l-2 117l563 1296l40 -63h-601v150h696v-116l-563 -1296l-40 62h603v-150h-696zM362 1631l135 344h153l-176 -344h-112z" />
    <glyph glyph-name="zacute" unicode="&#x17a;" horiz-adv-x="756" 
d="M48 0v114l515 884l34 -58h-537v145h649v-113l-509 -886l-35 59h532v-145h-649zM322 1216l135 344h153l-176 -344h-112z" />
    <glyph glyph-name="Zdotaccent" unicode="&#x17b;" horiz-adv-x="840" 
d="M73 0l-2 117l563 1296l40 -63h-601v150h696v-116l-563 -1296l-40 62h603v-150h-696zM355 1687v228h130v-228h-130z" />
    <glyph glyph-name="zdotaccent" unicode="&#x17c;" horiz-adv-x="756" 
d="M48 0v114l515 884l34 -58h-537v145h649v-113l-509 -886l-35 59h532v-145h-649zM315 1272v228h130v-228h-130z" />
    <glyph glyph-name="Zcaron" unicode="&#x17d;" horiz-adv-x="840" 
d="M73 0l-2 117l563 1296l40 -63h-601v150h696v-116l-563 -1296l-40 62h603v-150h-696zM359 1685l-222 290h146l137 -189l136 189h146l-223 -290h-120z" />
    <glyph glyph-name="zcaron" unicode="&#x17e;" horiz-adv-x="756" 
d="M48 0v114l515 884l34 -58h-537v145h649v-113l-509 -886l-35 59h532v-145h-649zM319 1270l-222 290h146l137 -189l136 189h146l-223 -290h-120z" />
    <glyph glyph-name="longs" unicode="&#x17f;" horiz-adv-x="554" 
d="M212 0v948h-201v137h201v72q0 107 42.5 189t120 128t181.5 46h76v-145h-76q-91 0 -145 -60t-54 -158v-1157h-145z" />
    <glyph glyph-name="florin" unicode="&#x192;" horiz-adv-x="1084" 
d="M84 -360v145h91q88 0 149.5 60.5t71.5 158.5l78 744h-202v137h217l28 272q10 106 60.5 188t130 128.5t176.5 46.5h92v-145h-92q-90 0 -151 -60t-71 -158l-28 -272h342v-137h-357l-78 -744q-11 -107 -61.5 -189t-129 -128.5t-175.5 -46.5h-91z" />
    <glyph glyph-name="uni0218" unicode="&#x218;" horiz-adv-x="944" 
d="M473 -32q-160 0 -257.5 102t-97.5 268v50h150v-50q0 -99 56 -159.5t149 -60.5t149 60.5t56 159.5v112q0 55 -4 87.5t-22 52.5t-60 37.5t-119 42.5q-133 44 -206 73t-104.5 62t-38 87.5t-6.5 147.5v122q0 167 97.5 268.5t257.5 101.5q161 0 258 -101.5t97 -268.5v-50h-150
v50q0 99 -56 159.5t-149 60.5t-149 -60.5t-56 -159.5v-122q0 -55 3.5 -87.5t21.5 -52t60.5 -37.5t119.5 -43q133 -43 206 -72.5t104.5 -62.5t38 -87t6.5 -148v-112q0 -166 -97 -268t-258 -102zM357 -440l47 315h170l-115 -315h-102z" />
    <glyph glyph-name="uni0219" unicode="&#x219;" horiz-adv-x="849" 
d="M432 -24q-155 0 -248.5 89.5t-93.5 236.5v35h145v-41q0 -79 53.5 -127t141.5 -48q85 0 135 48t50 139q0 59 -22.5 90.5t-64.5 47.5t-102 28q-99 21 -175 46.5t-118.5 81.5t-42.5 167q0 166 91.5 253.5t240.5 87.5q155 0 246.5 -89.5t91.5 -235.5v-34h-145v39
q0 80 -51.5 127.5t-139.5 47.5q-86 0 -137.5 -48.5t-51.5 -139.5q0 -59 22.5 -90.5t65.5 -46.5t103 -28q98 -20 173 -46t118 -83t43 -169q0 -163 -89.5 -250.5t-238.5 -87.5zM309 -440l47 315h170l-115 -315h-102z" />
    <glyph glyph-name="uni021A" unicode="&#x21a;" horiz-adv-x="741" 
d="M296 0v1350h-258v150h665v-150h-257v-1350h-150zM251 -440l47 315h170l-115 -315h-102z" />
    <glyph glyph-name="uni021B" unicode="&#x21b;" horiz-adv-x="665" 
d="M549 -12q-155 0 -248.5 98.5t-93.5 264.5v599h-195v137h195v273h145v-273h270v-137h-270v-599q0 -99 54 -158.5t143 -59.5h73v-145h-73zM366 -440l47 315h170l-115 -315h-102z" />
    <glyph glyph-name="uni0237" unicode="&#x237;" horiz-adv-x="429" 
d="M-118 -366v145h63q90 0 143.5 60.5t53.5 158.5v1087h145v-1081q0 -166 -93.5 -268t-248.5 -102h-63z" />
    <glyph glyph-name="circumflex" unicode="&#x2c6;" horiz-adv-x="646" 
d="M41 1270l222 290h120l223 -290h-146l-136 189l-137 -189h-146z" />
    <glyph glyph-name="caron" unicode="&#x2c7;" horiz-adv-x="646" 
d="M263 1270l-222 290h146l137 -189l136 189h146l-223 -290h-120z" />
    <glyph glyph-name="uni02C9" unicode="&#x2c9;" horiz-adv-x="720" 
d="M142 1500h436v-115h-436v115z" />
    <glyph glyph-name="breve" unicode="&#x2d8;" horiz-adv-x="644" 
d="M322 1329q-94 0 -156.5 59t-62.5 155v17h106v-17q0 -54 32.5 -85t80.5 -31t80 31t32 85v17h105v-17q0 -96 -61.5 -155t-155.5 -59z" />
    <glyph glyph-name="dotaccent" unicode="&#x2d9;" horiz-adv-x="414" 
d="M142 1272v228h130v-228h-130z" />
    <glyph glyph-name="ring" unicode="&#x2da;" horiz-adv-x="579" 
d="M291 1196q-75 0 -129 50t-54 131q0 83 54 133t127 50q74 0 128.5 -50t54.5 -132t-54 -132t-127 -50zM291 1294q31 0 57 23t26 61t-26.5 61.5t-57.5 23.5q-32 0 -58.5 -24t-26.5 -61q0 -38 26.5 -61t59.5 -23z" />
    <glyph glyph-name="ogonek" unicode="&#x2db;" horiz-adv-x="441" 
d="M327 -414q-111 0 -173.5 53.5t-62.5 143.5q0 83 54 150t153 124h27v-57q-56 -46 -87 -95t-31 -97q0 -52 33.5 -79t92.5 -27h28v-116h-34z" />
    <glyph glyph-name="tilde" unicode="&#x2dc;" horiz-adv-x="754" 
d="M499 1360q-40 0 -69.5 15t-52.5 31q-28 21 -50.5 37.5t-42.5 16.5t-30.5 -16.5t-10.5 -39.5v-34h-117v41q0 76 37 112.5t93 36.5q41 0 74 -16.5t55 -33.5q25 -19 45.5 -35t41.5 -16q23 0 32.5 19t9.5 40v40h116v-50q0 -76 -37 -112t-94 -36z" />
    <glyph glyph-name="hungarumlaut" unicode="&#x2dd;" horiz-adv-x="705" 
d="M74 1216l135 344h153l-176 -344h-112zM361 1216l136 344h153l-177 -344h-112z" />
    <glyph glyph-name="uni0326" unicode="&#x326;" horiz-adv-x="0" 
d="M118 -440l47 315h170l-115 -315h-102z" />
    <glyph glyph-name="uni0394" unicode="&#x394;" 
d="M54 0l326 1500h160l325 -1500h-811zM237 150h445l-222 1066z" />
    <glyph glyph-name="uni03A9" unicode="&#x3a9;" horiz-adv-x="1197" 
d="M69 0v150h251l-48 -36q-41 49 -64.5 113.5t-23.5 142.5v732q0 129 51.5 226t145 150.5t218.5 53.5q124 0 217.5 -53.5t145.5 -150.5t52 -226v-732q0 -78 -23.5 -142.5t-64.5 -113.5l-49 36h252v-150h-470v150q93 0 149 60.5t56 159.5v732q0 126 -73 203t-192 77
q-120 0 -192.5 -77t-72.5 -203v-732q0 -99 56 -159.5t149 -60.5v-150h-470z" />
    <glyph glyph-name="uni03BC" unicode="&#x3bc;" horiz-adv-x="1200" 
 />
    <glyph glyph-name="pi" unicode="&#x3c0;" horiz-adv-x="1060" 
d="M954 -12q-155 0 -248.5 98.5t-93.5 264.5v599h-260v-950h-145v950h-195v137h1005v-137h-260v-599q0 -99 54 -158.5t143 -59.5h63v-145h-63z" />
    <glyph glyph-name="Wgrave" unicode="&#x1e80;" horiz-adv-x="1299" 
d="M288 0l-211 1500h155l160 -1216l-19 1l210 1215h134l209 -1215l-18 -1l160 1216h154l-211 -1500h-160l-212 1150h25l-216 -1150h-160zM598 1631l-176 344h153l135 -344h-112z" />
    <glyph glyph-name="wgrave" unicode="&#x1e81;" horiz-adv-x="1103" 
d="M228 0l-173 1085h151l121 -926l-22 2l178 924h137l178 -924l-21 -2l119 926h152l-173 -1085h-164l-172 836h28l-174 -836h-165zM500 1216l-176 344h153l135 -344h-112z" />
    <glyph glyph-name="Wacute" unicode="&#x1e82;" horiz-adv-x="1299" 
d="M288 0l-211 1500h155l160 -1216l-19 1l210 1215h134l209 -1215l-18 -1l160 1216h154l-211 -1500h-160l-212 1150h25l-216 -1150h-160zM593 1631l135 344h153l-176 -344h-112z" />
    <glyph glyph-name="wacute" unicode="&#x1e83;" horiz-adv-x="1103" 
d="M228 0l-173 1085h151l121 -926l-22 2l178 924h137l178 -924l-21 -2l119 926h152l-173 -1085h-164l-172 836h28l-174 -836h-165zM495 1216l135 344h153l-176 -344h-112z" />
    <glyph glyph-name="Wdieresis" unicode="&#x1e84;" horiz-adv-x="1299" 
d="M288 0l-211 1500h155l160 -1216l-19 1l210 1215h134l209 -1215l-18 -1l160 1216h154l-211 -1500h-160l-212 1150h25l-216 -1150h-160zM452 1747v228h130v-228h-130zM728 1747v228h128v-228h-128z" />
    <glyph glyph-name="wdieresis" unicode="&#x1e85;" horiz-adv-x="1103" 
d="M228 0l-173 1085h151l121 -926l-22 2l178 924h137l178 -924l-21 -2l119 926h152l-173 -1085h-164l-172 836h28l-174 -836h-165zM354 1332v228h130v-228h-130zM630 1332v228h128v-228h-128z" />
    <glyph glyph-name="endash" unicode="&#x2013;" horiz-adv-x="1054" 
d="M142 469v150h770v-150h-770z" />
    <glyph glyph-name="emdash" unicode="&#x2014;" horiz-adv-x="1254" 
d="M142 469v150h970v-150h-970z" />
    <glyph glyph-name="quoteleft" unicode="&#x2018;" horiz-adv-x="467" 
d="M160 1060v273l49 167h87l-49 -167h63v-273h-150z" />
    <glyph glyph-name="quoteright" unicode="&#x2019;" horiz-adv-x="467" 
d="M171 1060l49 167h-63v273h150v-273l-49 -167h-87z" />
    <glyph glyph-name="quotesinglbase" unicode="&#x201a;" horiz-adv-x="467" 
d="M171 -167l49 167h-63v273h150v-273l-49 -167h-87z" />
    <glyph glyph-name="quotedblleft" unicode="&#x201c;" horiz-adv-x="737" 
d="M430 1060v273l49 167h87l-49 -167h63v-273h-150zM160 1060v273l49 167h87l-49 -167h63v-273h-150z" />
    <glyph glyph-name="quotedblright" unicode="&#x201d;" horiz-adv-x="737" 
d="M171 1060l49 167h-63v273h150v-273l-49 -167h-87zM441 1060l49 167h-63v273h150v-273l-49 -167h-87z" />
    <glyph glyph-name="quotedblbase" unicode="&#x201e;" horiz-adv-x="737" 
d="M171 -167l49 167h-63v273h150v-273l-49 -167h-87zM441 -167l49 167h-63v273h150v-273l-49 -167h-87z" />
    <glyph glyph-name="dagger" unicode="&#x2020;" horiz-adv-x="834" 
d="M347 575v542h-247v135h247v248h140v-248h248v-135h-248v-542h-140z" />
    <glyph glyph-name="daggerdbl" unicode="&#x2021;" horiz-adv-x="921" 
d="M391 575v249h-248v135h248v158h-248v135h248v248h140v-248h247v-135h-247v-158h247v-135h-247v-249h-140z" />
    <glyph glyph-name="bullet" unicode="&#x2022;" horiz-adv-x="718" 
d="M360 342q-56 0 -101.5 27.5t-72.5 73t-27 100.5t27.5 100.5t73 72.5t100.5 27t100 -27.5t71.5 -73.5t26.5 -99q0 -55 -26.5 -100.5t-72 -73t-99.5 -27.5z" />
    <glyph glyph-name="ellipsis" unicode="&#x2026;" horiz-adv-x="1244" 
d="M197 0v248h150v-248h-150zM547 0v248h150v-248h-150zM897 0v248h150v-248h-150z" />
    <glyph glyph-name="perthousand" unicode="&#x2030;" horiz-adv-x="2031" 
d="M320 0l658 1500h130l-658 -1500h-130zM352 815q-109 0 -175.5 68.5t-66.5 179.5v215q0 111 66.5 179.5t175.5 68.5t175.5 -68.5t66.5 -179.5v-215q0 -111 -66.5 -179.5t-175.5 -68.5zM352 933q55 0 88.5 36t33.5 94v215q0 58 -34 94t-88 36q-55 0 -89.5 -36t-34.5 -94
v-215q0 -58 34.5 -94t89.5 -36zM1075 -26q-108 0 -174.5 68.5t-66.5 179.5v215q0 111 66.5 179.5t174.5 68.5q109 0 175.5 -68.5t66.5 -179.5v-215q0 -111 -66.5 -179.5t-175.5 -68.5zM1075 92q55 0 89 36t34 94v215q0 58 -34 94t-88 36q-56 0 -90 -36t-34 -94v-215
q0 -58 34 -94t89 -36zM1679 -26q-109 0 -175.5 68.5t-66.5 179.5v215q0 111 66.5 179.5t175.5 68.5t175.5 -68.5t66.5 -179.5v-215q0 -111 -66.5 -179.5t-175.5 -68.5zM1679 92q55 0 88.5 36t33.5 94v215q0 58 -34 94t-88 36q-55 0 -89.5 -36t-34.5 -94v-215q0 -58 34.5 -94
t89.5 -36z" />
    <glyph glyph-name="guilsinglleft" unicode="&#x2039;" horiz-adv-x="578" 
d="M483 0l-433 442v85l433 441v-176l-292 -308l292 -307v-177z" />
    <glyph glyph-name="guilsinglright" unicode="&#x203a;" horiz-adv-x="578" 
d="M95 0v177l292 307l-292 308v176l433 -441v-85z" />
    <glyph glyph-name="fraction" unicode="&#x2044;" horiz-adv-x="399" 
d="M-195 0l658 1500h131l-658 -1500h-131z" />
    <glyph glyph-name="uni2070" unicode="&#x2070;" horiz-adv-x="635" 
d="M319 640q-98 0 -157.5 61.5t-59.5 160.5v496q0 99 59.5 160.5t157.5 61.5q96 0 155 -61.5t59 -160.5v-496q0 -99 -59 -160.5t-155 -61.5zM319 750q46 0 75 31.5t29 80.5v496q0 50 -29 81t-75 31q-48 0 -77.5 -31t-29.5 -81v-496q0 -49 29.5 -80.5t77.5 -31.5zM383 1470
h74l-204 -720h-73z" />
    <glyph glyph-name="uni2074" unicode="&#x2074;" horiz-adv-x="587" 
d="M343 660v184h-326v100l331 616h105v-605h79v-111h-79v-184h-110zM132 955h211v400z" />
    <glyph glyph-name="uni2075" unicode="&#x2075;" horiz-adv-x="614" 
d="M321 640q-97 0 -156.5 61.5t-59.5 160.5v35h110v-35q0 -49 29.5 -80.5t76.5 -31.5t76 31.5t29 80.5v174q0 51 -29.5 81.5t-78.5 30.5t-76 -30t-27 -80v-13h-110v535h415v-110h-305v-237q39 45 113 45q91 0 149.5 -60.5t58.5 -161.5v-174q0 -99 -59 -160.5t-156 -61.5z
" />
    <glyph glyph-name="uni2076" unicode="&#x2076;" horiz-adv-x="624" 
d="M319 640q-98 0 -157.5 61.5t-59.5 160.5v496q0 99 59.5 160.5t157.5 61.5q96 0 155 -61.5t59 -160.5v-35h-110v35q0 50 -29 81t-75 31q-48 0 -77.5 -31t-29.5 -81v-145q39 45 114 45q90 0 148.5 -60.5t58.5 -161.5v-174q0 -99 -59 -160.5t-155 -61.5zM319 750
q46 0 75 31.5t29 80.5v174q0 51 -29.5 81.5t-77.5 30.5q-49 0 -76.5 -30t-27.5 -80v-176q0 -49 29.5 -80.5t77.5 -31.5z" />
    <glyph glyph-name="uni2077" unicode="&#x2077;" horiz-adv-x="454" 
d="M86 660l228 790h-309v110h422v-100l-225 -800h-116z" />
    <glyph glyph-name="uni2078" unicode="&#x2078;" horiz-adv-x="621" 
d="M312 640q-98 0 -157.5 61.5t-59.5 160.5v91q0 56 19 98t51 69q-70 57 -70 167v71q0 99 59.5 160.5t157.5 61.5q96 0 155 -61.5t59 -160.5v-71q0 -110 -70 -167q32 -27 51 -69t19 -98v-91q0 -99 -59 -160.5t-155 -61.5zM312 750q46 0 75 31.5t29 80.5v91q0 50 -29 81
t-75 31q-48 0 -77.5 -31t-29.5 -81v-91q0 -49 29.5 -80.5t77.5 -31.5zM311 1175q48 0 76.5 31t28.5 81v71q0 50 -29 81t-75 31q-48 0 -77.5 -31t-29.5 -81v-71q0 -52 29.5 -82t76.5 -30z" />
    <glyph glyph-name="uni2079" unicode="&#x2079;" horiz-adv-x="624" 
d="M307 640q-97 0 -156.5 61.5t-59.5 160.5v35h110v-35q0 -49 29.5 -80.5t76.5 -31.5t76 31.5t29 80.5v146q-40 -46 -114 -46q-90 0 -148.5 61t-58.5 161v174q0 99 59.5 160.5t156.5 61.5t156 -61.5t59 -160.5v-496q0 -99 -59 -160.5t-156 -61.5zM308 1072q49 0 76.5 31
t27.5 80v175q0 50 -29 81t-76 31t-76.5 -31t-29.5 -81v-174q0 -50 29.5 -81t77.5 -31z" />
    <glyph glyph-name="uni2080" unicode="&#x2080;" horiz-adv-x="635" 
d="M319 -80q-98 0 -157.5 61.5t-59.5 160.5v496q0 99 59.5 160.5t157.5 61.5q96 0 155 -61.5t59 -160.5v-496q0 -99 -59 -160.5t-155 -61.5zM319 30q46 0 75 31.5t29 80.5v496q0 50 -29 81t-75 31q-48 0 -77.5 -31t-29.5 -81v-496q0 -49 29.5 -80.5t77.5 -31.5zM383 750h74
l-204 -720h-73z" />
    <glyph glyph-name="uni2081" unicode="&#x2081;" horiz-adv-x="381" 
d="M151 -60v686h-127v110h27q47 0 73.5 24t26.5 66v14h110v-900h-110z" />
    <glyph glyph-name="uni2082" unicode="&#x2082;" horiz-adv-x="559" 
d="M61 -60v97q0 81 32.5 141.5t80 106.5t95.5 86t80.5 81t32.5 92v94q0 50 -29 81t-78 31q-46 0 -75 -31t-29 -81v-35h-110v35q0 99 59.5 160.5t154.5 61.5q98 0 157.5 -61.5t59.5 -160.5v-94q0 -65 -32 -115.5t-79 -94.5t-94 -85t-79 -86.5t-32 -100.5v-12h316v-110h-431z
" />
    <glyph glyph-name="uni2083" unicode="&#x2083;" horiz-adv-x="584" 
d="M275 -80q-98 0 -157.5 61.5t-59.5 160.5v35h110v-35q0 -49 29.5 -80.5t77.5 -31.5q46 0 75 31.5t29 80.5v93q0 50 -29 81t-75 31h-79v110h79q46 0 75 30.5t29 81.5v69q0 50 -29 81t-75 31q-48 0 -77.5 -31t-29.5 -81v-35h-110v35q0 99 59.5 160.5t157.5 61.5
q96 0 155 -61.5t59 -160.5v-69q0 -51 -17 -95t-53 -73q31 -25 50.5 -67t19.5 -99v-93q0 -99 -59 -160.5t-155 -61.5z" />
    <glyph glyph-name="uni2084" unicode="&#x2084;" horiz-adv-x="587" 
d="M343 -60v184h-326v100l331 616h105v-605h79v-111h-79v-184h-110zM132 235h211v400z" />
    <glyph glyph-name="uni2085" unicode="&#x2085;" horiz-adv-x="614" 
d="M321 -80q-97 0 -156.5 61.5t-59.5 160.5v35h110v-35q0 -49 29.5 -80.5t76.5 -31.5t76 31.5t29 80.5v174q0 51 -29.5 81.5t-78.5 30.5t-76 -30t-27 -80v-13h-110v535h415v-110h-305v-237q39 45 113 45q91 0 149.5 -60.5t58.5 -161.5v-174q0 -99 -59 -160.5t-156 -61.5z
" />
    <glyph glyph-name="uni2086" unicode="&#x2086;" horiz-adv-x="624" 
d="M319 -80q-98 0 -157.5 61.5t-59.5 160.5v496q0 99 59.5 160.5t157.5 61.5q96 0 155 -61.5t59 -160.5v-35h-110v35q0 50 -29 81t-75 31q-48 0 -77.5 -31t-29.5 -81v-145q39 45 114 45q90 0 148.5 -60.5t58.5 -161.5v-174q0 -99 -59 -160.5t-155 -61.5zM319 30
q46 0 75 31.5t29 80.5v174q0 51 -29.5 81.5t-77.5 30.5q-49 0 -76.5 -30t-27.5 -80v-176q0 -49 29.5 -80.5t77.5 -31.5z" />
    <glyph glyph-name="uni2087" unicode="&#x2087;" horiz-adv-x="454" 
d="M86 -60l228 790h-309v110h422v-100l-225 -800h-116z" />
    <glyph glyph-name="uni2088" unicode="&#x2088;" horiz-adv-x="621" 
d="M312 -80q-98 0 -157.5 61.5t-59.5 160.5v91q0 56 19 98t51 69q-70 57 -70 167v71q0 99 59.5 160.5t157.5 61.5q96 0 155 -61.5t59 -160.5v-71q0 -110 -70 -167q32 -27 51 -69t19 -98v-91q0 -99 -59 -160.5t-155 -61.5zM312 30q46 0 75 31.5t29 80.5v91q0 50 -29 81
t-75 31q-48 0 -77.5 -31t-29.5 -81v-91q0 -49 29.5 -80.5t77.5 -31.5zM311 455q48 0 76.5 31t28.5 81v71q0 50 -29 81t-75 31q-48 0 -77.5 -31t-29.5 -81v-71q0 -52 29.5 -82t76.5 -30z" />
    <glyph glyph-name="uni2089" unicode="&#x2089;" horiz-adv-x="624" 
d="M307 -80q-97 0 -156.5 61.5t-59.5 160.5v35h110v-35q0 -49 29.5 -80.5t76.5 -31.5t76 31.5t29 80.5v146q-40 -46 -114 -46q-90 0 -148.5 61t-58.5 161v174q0 99 59.5 160.5t156.5 61.5t156 -61.5t59 -160.5v-496q0 -99 -59 -160.5t-156 -61.5zM308 352q49 0 76.5 31
t27.5 80v175q0 50 -29 81t-76 31t-76.5 -31t-29.5 -81v-174q0 -50 29.5 -81t77.5 -31z" />
    <glyph glyph-name="franc" unicode="&#x20a3;" horiz-adv-x="967" 
d="M101 203v140h450v-140h-450zM256 0v1500h605v-150h-455v-615h401v-150h-401v-585h-150z" />
    <glyph glyph-name="lira" unicode="&#x20a4;" horiz-adv-x="1109" 
d="M291 0v1156q0 167 97.5 268.5t257.5 101.5q161 0 258 -101.5t97 -268.5v-50h-150v50q0 99 -56 159.5t-149 60.5t-149 -60.5t-56 -159.5v-1156h-150zM146 680v140h585v-140h-585zM146 0v140h748v-140h-748zM146 348v140h585v-140h-585z" />
    <glyph glyph-name="peseta" unicode="&#x20a7;" horiz-adv-x="1130" 
d="M137 997v140h893v-140h-893zM242 0v1500h370q147 0 236 -93t89 -247v-162q0 -153 -89 -246.5t-236 -93.5h-220v-658h-150zM392 808h220q79 0 127 52t48 138v162q0 86 -48 138t-127 52h-220v-542z" />
    <glyph glyph-name="Euro" unicode="&#x20ac;" horiz-adv-x="1120" 
d="M981 394v-50q0 -166 -97 -268t-259 -102q-159 0 -256.5 102t-97.5 268v812q0 167 97.5 268.5t256.5 101.5q162 0 259 -101.5t97 -268.5v-50h-150v50q0 99 -56 159.5t-149 60.5t-149 -60.5t-56 -159.5v-812q0 -99 56 -159.5t149 -60.5t149 60.5t56 159.5v50h150zM126 870
v140h585v-140h-585zM126 492v140h585v-140h-585z" />
    <glyph glyph-name="uni2113" unicode="&#x2113;" horiz-adv-x="1183" 
d="M664 -24q-103 0 -184 66t-131 185q-81 -39 -147 -63.5t-100 -34.5l-26 106q38 9 101.5 32t139.5 60q-17 65 -26.5 138.5t-9.5 153.5q0 171 37 317t101 255t148 170t179 61q91 0 159 -53t106.5 -142.5t38.5 -197.5q0 -133 -54.5 -247t-143 -208.5t-194 -169.5t-208.5 -130
q36 -91 92 -142.5t127 -51.5q61 0 115 35t90 97t46 141l106 -13q-14 -107 -67 -189.5t-130.5 -128.5t-164.5 -46zM425 384q90 49 180.5 114.5t165 146.5t119.5 177.5t45 207.5q0 122 -54 204t-139 82q-68 0 -130 -53.5t-110.5 -147t-76.5 -215.5t-29 -258q0 -71 8 -136
t21 -122z" />
    <glyph glyph-name="trademark" unicode="&#x2122;" horiz-adv-x="1391" 
d="M242 600v790h-148v110h407v-110h-149v-790h-110zM597 600v900h108l183 -702l183 702h108v-900h-103v553l-147 -553h-81l-147 553v-553h-104z" />
    <glyph glyph-name="estimated" unicode="&#x212e;" horiz-adv-x="1433" 
d="M740 -32q-184 0 -322 77t-214 205.5t-76 284.5q0 158 77 288.5t213 208.5t311 78q131 0 241 -45t191 -123.5t126 -182.5t45 -222v-12h-965q-6 0 -6 -11v-307q0 -10 2 -15.5t14 -20.5q54 -67 140 -117t219 -50q125 0 210 50t161 137h94q-83 -100 -190.5 -161.5
t-270.5 -61.5zM367 551h727q4 0 4 14v309q0 5 -2 16t-13 23q-68 72 -146 117.5t-204 45.5q-131 0 -212.5 -48t-140.5 -119q-14 -17 -16.5 -23t-2.5 -17v-304q0 -14 6 -14z" />
    <glyph glyph-name="oneeighth" unicode="&#x215b;" horiz-adv-x="1401" 
d="M151 600v701h-127v110h27q47 0 73.5 24t26.5 66v14h110v-915h-110zM186 0l658 1500h131l-658 -1500h-131zM1092 -20q-98 0 -157.5 61.5t-59.5 160.5v91q0 56 19 98t51 69q-70 57 -70 167v71q0 99 59.5 160.5t157.5 61.5q96 0 155 -61.5t59 -160.5v-71q0 -110 -70 -167
q32 -27 51 -69t19 -98v-91q0 -99 -59 -160.5t-155 -61.5zM1092 90q46 0 75 31.5t29 80.5v91q0 50 -29 81t-75 31q-48 0 -77.5 -31t-29.5 -81v-91q0 -49 29.5 -80.5t77.5 -31.5zM1091 515q48 0 76.5 31t28.5 81v71q0 50 -29 81t-75 31q-48 0 -77.5 -31t-29.5 -81v-71
q0 -52 29.5 -82t76.5 -30z" />
    <glyph glyph-name="threeeighths" unicode="&#x215c;" horiz-adv-x="1604" 
d="M275 580q-98 0 -157.5 61.5t-59.5 160.5v35h110v-35q0 -49 29.5 -80.5t77.5 -31.5q46 0 75 31.5t29 80.5v93q0 50 -29 81t-75 31h-79v110h79q46 0 75 30.5t29 81.5v69q0 50 -29 81t-75 31q-48 0 -77.5 -31t-29.5 -81v-35h-110v35q0 99 59.5 160.5t157.5 61.5
q96 0 155 -61.5t59 -160.5v-69q0 -51 -17 -95t-53 -73q31 -25 50.5 -67t19.5 -99v-93q0 -99 -59 -160.5t-155 -61.5zM389 0l658 1500h131l-658 -1500h-131zM1295 -20q-98 0 -157.5 61.5t-59.5 160.5v91q0 56 19 98t51 69q-70 57 -70 167v71q0 99 59.5 160.5t157.5 61.5
q96 0 155 -61.5t59 -160.5v-71q0 -110 -70 -167q32 -27 51 -69t19 -98v-91q0 -99 -59 -160.5t-155 -61.5zM1295 90q46 0 75 31.5t29 80.5v91q0 50 -29 81t-75 31q-48 0 -77.5 -31t-29.5 -81v-91q0 -49 29.5 -80.5t77.5 -31.5zM1294 515q48 0 76.5 31t28.5 81v71q0 50 -29 81
t-75 31q-48 0 -77.5 -31t-29.5 -81v-71q0 -52 29.5 -82t76.5 -30z" />
    <glyph glyph-name="fiveeighths" unicode="&#x215d;" horiz-adv-x="1633" 
d="M321 580q-97 0 -156.5 61.5t-59.5 160.5v35h110v-35q0 -49 29.5 -80.5t76.5 -31.5t76 31.5t29 80.5v174q0 51 -29.5 81.5t-78.5 30.5t-76 -30t-27 -80v-13h-110v535h415v-110h-305v-237q39 45 113 45q91 0 149.5 -60.5t58.5 -161.5v-174q0 -99 -59 -160.5t-156 -61.5z
M419 0l658 1500h131l-658 -1500h-131zM1324 -20q-98 0 -157.5 61.5t-59.5 160.5v91q0 56 19 98t51 69q-70 57 -70 167v71q0 99 59.5 160.5t157.5 61.5q96 0 155 -61.5t59 -160.5v-71q0 -110 -70 -167q32 -27 51 -69t19 -98v-91q0 -99 -59 -160.5t-155 -61.5zM1324 90
q46 0 75 31.5t29 80.5v91q0 50 -29 81t-75 31q-48 0 -77.5 -31t-29.5 -81v-91q0 -49 29.5 -80.5t77.5 -31.5zM1323 515q48 0 76.5 31t28.5 81v71q0 50 -29 81t-75 31q-48 0 -77.5 -31t-29.5 -81v-71q0 -52 29.5 -82t76.5 -30z" />
    <glyph glyph-name="seveneighths" unicode="&#x215e;" horiz-adv-x="1474" 
d="M86 600l228 790h-309v110h422v-100l-225 -800h-116zM259 0l658 1500h131l-658 -1500h-131zM1165 -20q-98 0 -157.5 61.5t-59.5 160.5v91q0 56 19 98t51 69q-70 57 -70 167v71q0 99 59.5 160.5t157.5 61.5q96 0 155 -61.5t59 -160.5v-71q0 -110 -70 -167q32 -27 51 -69
t19 -98v-91q0 -99 -59 -160.5t-155 -61.5zM1165 90q46 0 75 31.5t29 80.5v91q0 50 -29 81t-75 31q-48 0 -77.5 -31t-29.5 -81v-91q0 -49 29.5 -80.5t77.5 -31.5zM1164 515q48 0 76.5 31t28.5 81v71q0 50 -29 81t-75 31q-48 0 -77.5 -31t-29.5 -81v-71q0 -52 29.5 -82
t76.5 -30z" />
    <glyph glyph-name="arrowleft" unicode="&#x2190;" horiz-adv-x="1141" 
d="M314 649h705v-133h-705v133zM94 583l313 315v-628z" />
    <glyph glyph-name="arrowup" unicode="&#x2191;" horiz-adv-x="783" 
d="M327 826h132v-706h-132v706zM393 1045l313 -313h-628z" />
    <glyph glyph-name="arrowright" unicode="&#x2192;" horiz-adv-x="1141" 
d="M828 649v-133h-706v133h706zM1047 583l-313 -313v628z" />
    <glyph glyph-name="arrowdown" unicode="&#x2193;" horiz-adv-x="783" 
d="M327 340v705h132v-705h-132zM393 120l-315 313h628z" />
    <glyph glyph-name="arrowboth" unicode="&#x2194;" horiz-adv-x="1333" 
d="M407 270l-313 313l313 315v-249h519v249l313 -315l-313 -313v246h-519v-246z" />
    <glyph glyph-name="arrowupdn" unicode="&#x2195;" horiz-adv-x="814" 
d="M406 0l-313 313h247v519h-247l313 313l315 -313h-249v-519h249z" />
    <glyph glyph-name="uni2196" unicode="&#x2196;" horiz-adv-x="951" 
d="M371 800l499 -499l-93 -93l-501 499zM170 909l444 2l-444 -444v442z" />
    <glyph glyph-name="uni2197" unicode="&#x2197;" horiz-adv-x="951" 
d="M580 800l95 -93l-501 -499l-93 93zM781 909v-442l-444 444z" />
    <glyph glyph-name="uni2198" unicode="&#x2198;" horiz-adv-x="951" 
d="M580 319l-499 499l93 93l501 -499zM781 210l-444 -2l444 444v-442z" />
    <glyph glyph-name="uni2199" unicode="&#x2199;" horiz-adv-x="951" 
d="M371 319l-95 93l501 499l93 -93zM170 210v442l444 -444z" />
    <glyph glyph-name="partialdiff" unicode="&#x2202;" horiz-adv-x="1006" 
d="M490 1500q141 0 228.5 -90.5t87.5 -237.5v-1172h-145v141l25 -32q-37 -63 -98.5 -98t-146.5 -35q-89 0 -161 39.5t-114 117.5t-42 191v239q0 112 42 189.5t114 117.5t161 40q85 0 146.5 -35.5t98.5 -97.5l-25 -33v428q0 91 -53 147t-143 56h-44v125h69zM467 121
q93 0 143.5 55.5t50.5 146.5v240q0 91 -51 146.5t-143 55.5q-93 0 -145.5 -55.5t-52.5 -146.5v-239q0 -91 52.5 -147t145.5 -56z" />
    <glyph glyph-name="emptyset" unicode="&#x2205;" horiz-adv-x="1438" 
d="M255 -104l760 1365h147l-760 -1365h-147zM719 -24q-169 0 -304.5 76t-214.5 212.5t-79 317.5q0 182 79 317.5t215 210.5t305 75t304 -75t213.5 -210.5t78.5 -316.5q0 -183 -79 -319.5t-214 -212t-304 -75.5zM719 116q128 0 231.5 58t164.5 163.5t61 245.5
q0 138 -60.5 242t-164 162t-231.5 58q-129 0 -233 -58t-164.5 -162t-60.5 -242q0 -140 61 -245.5t165 -163.5t231 -58z" />
    <glyph glyph-name="product" unicode="&#x220f;" horiz-adv-x="1213" 
d="M297 -240v1590h-227v150h1072v-150h-227v-1590h-150v1590h-318v-1590h-150z" />
    <glyph glyph-name="summation" unicode="&#x2211;" horiz-adv-x="898" 
d="M110 -240v117l300 753l-301 754v116h696v-150h-535l288 -720l-289 -720h537v-150h-696z" />
    <glyph glyph-name="minus" unicode="&#x2212;" horiz-adv-x="1194" 
d="M212 469v150h770v-150h-770z" />
    <glyph glyph-name="uni2215" unicode="&#x2215;" horiz-adv-x="841" 
d="M100 -100l536 1660h157l-536 -1660h-157z" />
    <glyph glyph-name="uni2219" unicode="&#x2219;" horiz-adv-x="812" 
d="M460 300q-67 0 -122 33.5t-87.5 88.5t-32.5 120q0 67 32.5 122t87.5 88t122 33t121.5 -33.5t86.5 -88.5t32 -121q0 -65 -32.5 -120t-87 -88.5t-120.5 -33.5z" />
    <glyph glyph-name="radical" unicode="&#x221a;" horiz-adv-x="1174" 
d="M322 0l-233 818h153l167 -597l354 1279h338v-142h-221l-382 -1358h-176z" />
    <glyph glyph-name="infinity" unicode="&#x221e;" horiz-adv-x="1597" 
d="M1158 886q82 0 145 -39t98 -106t35 -150t-35 -150t-98 -106t-145 -39h-39q-69 0 -127.5 37t-107 89t-86.5 98q-39 -46 -87 -98t-107 -89t-127 -37h-39q-83 0 -145.5 39t-98 106t-35.5 150t35.5 150t98 106t145.5 39h39q70 0 127 -32t104.5 -79.5t89.5 -92.5
q41 45 88.5 92.5t104.5 79.5t128 32h39zM484 406q48 0 88 27.5t79.5 71.5t85.5 95q-41 40 -81 80.5t-82 68t-90 27.5h-39q-73 0 -119.5 -55t-46.5 -130q0 -74 46.5 -129.5t119.5 -55.5h39zM1150 406q74 0 120 55.5t46 129.5q0 75 -46 130t-120 55h-39q-48 0 -90 -27.5
t-82 -68t-81 -80.5q46 -51 85.5 -95t79.5 -71.5t88 -27.5h39z" />
    <glyph glyph-name="integral" unicode="&#x222b;" horiz-adv-x="831" 
d="M69 -360v145h75q91 0 145 60.5t54 158.5v1153q0 107 42.5 189t120 128t181.5 46h76v-145h-76q-91 0 -145 -60t-54 -158v-1153q0 -107 -42.5 -189t-120 -128.5t-181.5 -46.5h-75z" />
    <glyph glyph-name="approxequal" unicode="&#x2248;" horiz-adv-x="1080" 
d="M148 153v38q0 104 57.5 162t158.5 58q60 0 104 -18.5t79 -43t67.5 -43t69.5 -18.5q42 0 61.5 25.5t19.5 61.5v39h142v-48q0 -100 -52 -156.5t-139 -56.5q-55 0 -98 19.5t-80 45t-73 45.5t-78 20q-44 0 -71 -26t-27 -71v-33h-141zM148 653v38q0 104 57.5 162t158.5 58
q60 0 104 -18.5t79 -43t67.5 -43t69.5 -18.5q42 0 61.5 25.5t19.5 61.5v39h142v-48q0 -100 -52 -156.5t-139 -56.5q-55 0 -98 19.5t-80 45t-73 45.5t-78 20q-44 0 -71 -26t-27 -71v-33h-141z" />
    <glyph glyph-name="notequal" unicode="&#x2260;" horiz-adv-x="960" 
d="M146 269v150h670v-150h-670zM146 669v150h670v-150h-670zM334 0h-122l408 1085h123z" />
    <glyph glyph-name="lessequal" unicode="&#x2264;" horiz-adv-x="899" 
d="M759 265l-653 469v115l653 466v-155l-503 -369l503 -370v-156zM106 0v130h653v-130h-653z" />
    <glyph glyph-name="greaterequal" unicode="&#x2265;" horiz-adv-x="898" 
d="M137 265v156l503 370l-503 369v155l653 -466v-115zM137 0v130h653v-130h-653z" />
    <glyph glyph-name="lozenge" unicode="&#x25ca;" horiz-adv-x="904" 
d="M364 0l-265 750l265 750h177l264 -750l-264 -750h-177zM452 206l195 544l-195 545l-196 -545z" />
    <glyph glyph-name="uniF8FF" unicode="&#xf8ff;" horiz-adv-x="1493" 
d="M387 0v44h34q26 0 39 6.5t21 25.5l12 28l-126 306h52l102 -252l92 252h52l-132 -332q-18 -45 -41.5 -61.5t-70.5 -16.5h-34zM303 106q-90 0 -90 84v180h-70v40h70v74h46v-74h78v-40h-78v-180q0 -40 48 -40h30v-44h-34zM303 554q-90 0 -90 84v180h-70v40h70v74h46v-74h78
v-40h-78v-180q0 -40 48 -40h30v-44h-34zM715 10v400h46v-44q39 52 104 52q63 0 100.5 -44t37.5 -116t-37.5 -116t-100.5 -44q-67 0 -104 52v-140h-46zM857 138q44 0 72 31.5t28 88.5t-28 88.5t-72 31.5q-42 0 -69 -31t-27 -87v-4q0 -55 27 -86.5t69 -31.5zM531 546
q-69 0 -110.5 44.5t-41.5 117.5q0 71 41.5 114.5t110.5 43.5t111.5 -44t42.5 -116t-42.5 -116t-111.5 -44zM532 586q49 0 78 33.5t29 87.5q0 53 -29 86t-78 33t-79 -32.5t-30 -86.5q0 -55 30 -88t79 -33zM1203 98q-70 0 -112 44t-42 116t41.5 116t108.5 44q66 0 105 -41.5
t39 -112.5q0 -18 -2 -26h-246q6 -45 34.5 -72.5t73.5 -27.5q33 0 57.5 16t30.5 40h48q-7 -43 -44.5 -69.5t-91.5 -26.5zM1095 278h204q0 47 -26.5 73.5t-73.5 26.5q-45 0 -72 -26.5t-32 -73.5zM749 554v412h46v-262l146 154h56l-108 -116l116 -188h-56l-92 152l-62 -64v-88
h-46zM1181 546q-69 0 -111.5 44.5t-42.5 117.5q0 71 41.5 114.5t110.5 43.5t111.5 -44t42.5 -116t-41.5 -116t-110.5 -44zM1181 586q50 0 78 33.5t28 88.5q0 53 -28 85.5t-78 32.5q-49 0 -78.5 -32.5t-29.5 -85.5q0 -55 29.5 -88.5t78.5 -33.5z" />
    <glyph glyph-name="G.ss03" horiz-adv-x="992" 
d="M509 -32q-160 0 -257.5 102t-97.5 268v824q0 167 97.5 268.5t257.5 101.5q161 0 258 -101.5t97 -268.5v-50h-150v50q0 99 -56 159.5t-149 60.5t-149 -60.5t-56 -159.5v-824q0 -99 56 -159.5t149 -60.5t149 60.5t56 159.5v432h-201v150h351v-582q0 -166 -97 -268
t-258 -102z" />
    <glyph glyph-name="Gbreve.ss03" horiz-adv-x="992" 
d="M509 -32q-160 0 -257.5 102t-97.5 268v824q0 167 97.5 268.5t257.5 101.5q161 0 258 -101.5t97 -268.5v-50h-150v50q0 99 -56 159.5t-149 60.5t-149 -60.5t-56 -159.5v-824q0 -99 56 -159.5t149 -60.5t149 60.5t56 159.5v432h-201v150h351v-582q0 -166 -97 -268
t-258 -102zM509 1744q-94 0 -156.5 59t-62.5 155v17h106v-17q0 -54 32.5 -85t80.5 -31t80 31t32 85v17h105v-17q0 -96 -61.5 -155t-155.5 -59z" />
    <glyph glyph-name="Gcircumflex.ss03" horiz-adv-x="992" 
d="M509 -32q-160 0 -257.5 102t-97.5 268v824q0 167 97.5 268.5t257.5 101.5q161 0 258 -101.5t97 -268.5v-50h-150v50q0 99 -56 159.5t-149 60.5t-149 -60.5t-56 -159.5v-824q0 -99 56 -159.5t149 -60.5t149 60.5t56 159.5v432h-201v150h351v-582q0 -166 -97 -268
t-258 -102zM226 1685l222 290h120l223 -290h-146l-136 189l-137 -189h-146z" />
    <glyph glyph-name="uni0122.ss03" horiz-adv-x="992" 
d="M509 -32q-160 0 -257.5 102t-97.5 268v824q0 167 97.5 268.5t257.5 101.5q161 0 258 -101.5t97 -268.5v-50h-150v50q0 99 -56 159.5t-149 60.5t-149 -60.5t-56 -159.5v-824q0 -99 56 -159.5t149 -60.5t149 60.5t56 159.5v432h-201v150h351v-582q0 -166 -97 -268
t-258 -102zM394 -440l47 315h170l-115 -315h-102z" />
    <glyph glyph-name="Gdotaccent.ss03" horiz-adv-x="992" 
d="M509 -32q-160 0 -257.5 102t-97.5 268v824q0 167 97.5 268.5t257.5 101.5q161 0 258 -101.5t97 -268.5v-50h-150v50q0 99 -56 159.5t-149 60.5t-149 -60.5t-56 -159.5v-824q0 -99 56 -159.5t149 -60.5t149 60.5t56 159.5v432h-201v150h351v-582q0 -166 -97 -268
t-258 -102zM444 1687v228h130v-228h-130z" />
    <glyph glyph-name="IJ.ss04" horiz-adv-x="1412" 
d="M326 0h-150v1500h150v-1500zM893 -12q-160 0 -257.5 102t-97.5 268v20h150v-20q0 -99 56 -159.5t149 -60.5t149 60.5t56 159.5v1142h150v-1142q0 -166 -97 -268t-258 -102z" />
    <glyph glyph-name="J.ss04" horiz-adv-x="910" 
d="M391 -12q-160 0 -257.5 102t-97.5 268v20h150v-20q0 -99 56 -159.5t149 -60.5t149 60.5t56 159.5v1142h150v-1142q0 -166 -97 -268t-258 -102z" />
    <glyph glyph-name="Jcircumflex.ss04" horiz-adv-x="910" 
d="M391 -12q-160 0 -257.5 102t-97.5 268v20h150v-20q0 -99 56 -159.5t149 -60.5t149 60.5t56 159.5v1142h150v-1142q0 -166 -97 -268t-258 -102zM387 1685l222 290h120l223 -290h-146l-136 189l-137 -189h-146z" />
    <glyph glyph-name="a.ss01" horiz-adv-x="939" 
d="M431 -24q-89 0 -160.5 39.5t-113.5 117.5t-42 191v439q0 112 42 189.5t113.5 117.5t160.5 40q86 0 147.5 -35.5t97.5 -97.5l-24 -33v141h145v-1085h-145v141l24 -32q-36 -63 -97.5 -98t-147.5 -35zM458 121q92 0 143 55.5t51 146.5v440q0 91 -51.5 146.5t-143.5 55.5
t-144.5 -55.5t-52.5 -146.5v-439q0 -91 52.5 -147t145.5 -56z" />
    <glyph glyph-name="aacute.ss01" horiz-adv-x="939" 
d="M431 -24q-89 0 -160.5 39.5t-113.5 117.5t-42 191v439q0 112 42 189.5t113.5 117.5t160.5 40q86 0 147.5 -35.5t97.5 -97.5l-24 -33v141h145v-1085h-145v141l24 -32q-36 -63 -97.5 -98t-147.5 -35zM458 121q92 0 143 55.5t51 146.5v440q0 91 -51.5 146.5t-143.5 55.5
t-144.5 -55.5t-52.5 -146.5v-439q0 -91 52.5 -147t145.5 -56zM415 1216l135 344h153l-176 -344h-112z" />
    <glyph glyph-name="abreve.ss01" horiz-adv-x="939" 
d="M431 -24q-89 0 -160.5 39.5t-113.5 117.5t-42 191v439q0 112 42 189.5t113.5 117.5t160.5 40q86 0 147.5 -35.5t97.5 -97.5l-24 -33v141h145v-1085h-145v141l24 -32q-36 -63 -97.5 -98t-147.5 -35zM458 121q92 0 143 55.5t51 146.5v440q0 91 -51.5 146.5t-143.5 55.5
t-144.5 -55.5t-52.5 -146.5v-439q0 -91 52.5 -147t145.5 -56zM473 1329q-94 0 -156.5 59t-62.5 155v17h106v-17q0 -54 32.5 -85t80.5 -31t80 31t32 85v17h105v-17q0 -96 -61.5 -155t-155.5 -59z" />
    <glyph glyph-name="acircumflex.ss01" horiz-adv-x="939" 
d="M431 -24q-89 0 -160.5 39.5t-113.5 117.5t-42 191v439q0 112 42 189.5t113.5 117.5t160.5 40q86 0 147.5 -35.5t97.5 -97.5l-24 -33v141h145v-1085h-145v141l24 -32q-36 -63 -97.5 -98t-147.5 -35zM458 121q92 0 143 55.5t51 146.5v440q0 91 -51.5 146.5t-143.5 55.5
t-144.5 -55.5t-52.5 -146.5v-439q0 -91 52.5 -147t145.5 -56zM190 1270l222 290h120l223 -290h-146l-136 189l-137 -189h-146z" />
    <glyph glyph-name="acute.case" horiz-adv-x="418" 
d="M81 1216l135 344h153l-176 -344h-112z" />
    <glyph glyph-name="adieresis.ss01" horiz-adv-x="939" 
d="M431 -24q-89 0 -160.5 39.5t-113.5 117.5t-42 191v439q0 112 42 189.5t113.5 117.5t160.5 40q86 0 147.5 -35.5t97.5 -97.5l-24 -33v141h145v-1085h-145v141l24 -32q-36 -63 -97.5 -98t-147.5 -35zM458 121q92 0 143 55.5t51 146.5v440q0 91 -51.5 146.5t-143.5 55.5
t-144.5 -55.5t-52.5 -146.5v-439q0 -91 52.5 -147t145.5 -56zM275 1332v228h130v-228h-130zM551 1332v228h128v-228h-128z" />
    <glyph glyph-name="agrave.ss01" horiz-adv-x="939" 
d="M431 -24q-89 0 -160.5 39.5t-113.5 117.5t-42 191v439q0 112 42 189.5t113.5 117.5t160.5 40q86 0 147.5 -35.5t97.5 -97.5l-24 -33v141h145v-1085h-145v141l24 -32q-36 -63 -97.5 -98t-147.5 -35zM458 121q92 0 143 55.5t51 146.5v440q0 91 -51.5 146.5t-143.5 55.5
t-144.5 -55.5t-52.5 -146.5v-439q0 -91 52.5 -147t145.5 -56zM421 1216l-176 344h153l135 -344h-112z" />
    <glyph glyph-name="amacron.ss01" horiz-adv-x="939" 
d="M431 -24q-89 0 -160.5 39.5t-113.5 117.5t-42 191v439q0 112 42 189.5t113.5 117.5t160.5 40q86 0 147.5 -35.5t97.5 -97.5l-24 -33v141h145v-1085h-145v141l24 -32q-36 -63 -97.5 -98t-147.5 -35zM458 121q92 0 143 55.5t51 146.5v440q0 91 -51.5 146.5t-143.5 55.5
t-144.5 -55.5t-52.5 -146.5v-439q0 -91 52.5 -147t145.5 -56zM254 1370h436v-115h-436v115z" />
    <glyph glyph-name="aogonek.ss01" horiz-adv-x="909" 
d="M431 -24q-89 0 -160.5 39.5t-113.5 117.5t-42 191v439q0 112 42 189.5t113.5 117.5t160.5 40q86 0 147.5 -35.5t97.5 -97.5l-24 -33v141h145v-1085h-145v141l24 -32q-36 -63 -97.5 -98t-147.5 -35zM458 121q92 0 143 55.5t51 146.5v440q0 91 -51.5 146.5t-143.5 55.5
t-144.5 -55.5t-52.5 -146.5v-439q0 -91 52.5 -147t145.5 -56zM751 -414q-111 0 -173.5 53.5t-62.5 143.5q0 83 54 150t153 124h27v-57q-56 -46 -87 -95t-31 -97q0 -52 33.5 -79t92.5 -27h28v-116h-34z" />
    <glyph glyph-name="aring.ss01" horiz-adv-x="939" 
d="M431 -24q-89 0 -160.5 39.5t-113.5 117.5t-42 191v439q0 112 42 189.5t113.5 117.5t160.5 40q86 0 147.5 -35.5t97.5 -97.5l-24 -33v141h145v-1085h-145v141l24 -32q-36 -63 -97.5 -98t-147.5 -35zM458 121q92 0 143 55.5t51 146.5v440q0 91 -51.5 146.5t-143.5 55.5
t-144.5 -55.5t-52.5 -146.5v-439q0 -91 52.5 -147t145.5 -56zM476 1147q-75 0 -129 50t-54 131q0 83 54 133t127 50q74 0 128.5 -50t54.5 -132t-54 -132t-127 -50zM476 1245q31 0 57 23t26 61t-26.5 61.5t-57.5 23.5q-32 0 -58.5 -24t-26.5 -61q0 -38 26.5 -61t59.5 -23z
" />
    <glyph glyph-name="atilde.ss01" horiz-adv-x="939" 
d="M431 -24q-89 0 -160.5 39.5t-113.5 117.5t-42 191v439q0 112 42 189.5t113.5 117.5t160.5 40q86 0 147.5 -35.5t97.5 -97.5l-24 -33v141h145v-1085h-145v141l24 -32q-36 -63 -97.5 -98t-147.5 -35zM458 121q92 0 143 55.5t51 146.5v440q0 91 -51.5 146.5t-143.5 55.5
t-144.5 -55.5t-52.5 -146.5v-439q0 -91 52.5 -147t145.5 -56zM591 1260q-40 0 -69.5 15t-52.5 31q-28 21 -50.5 37.5t-42.5 16.5t-30.5 -16.5t-10.5 -39.5v-34h-117v41q0 76 37 112.5t93 36.5q41 0 74 -16.5t55 -33.5q25 -19 45.5 -35t41.5 -16q23 0 32.5 19t9.5 40v40h116
v-50q0 -76 -37 -112t-94 -36z" />
    <glyph glyph-name="breve.case" horiz-adv-x="644" 
d="M345 1329q-94 0 -156.5 59t-62.5 155v17h106v-17q0 -54 32.5 -85t80.5 -31t80 31t32 85v17h105v-17q0 -96 -61.5 -155t-155.5 -59z" />
    <glyph glyph-name="caron.case" horiz-adv-x="646" 
d="M294 1270l-222 290h146l137 -189l136 189h146l-223 -290h-120z" />
    <glyph glyph-name="circumflex.case" horiz-adv-x="646" 
d="M73 1270l222 290h120l223 -290h-146l-136 189l-137 -189h-146z" />
    <glyph glyph-name="dieresis.case" horiz-adv-x="688" 
d="M173 1332v228h130v-228h-130zM449 1332v228h128v-228h-128z" />
    <glyph glyph-name="dotaccent.case" horiz-adv-x="414" 
d="M173 1272v228h130v-228h-130z" />
    <glyph glyph-name="eight.dnom" horiz-adv-x="621" 
d="M312 -20q-98 0 -157.5 61.5t-59.5 160.5v91q0 56 19 98t51 69q-70 57 -70 167v71q0 99 59.5 160.5t157.5 61.5q96 0 155 -61.5t59 -160.5v-71q0 -110 -70 -167q32 -27 51 -69t19 -98v-91q0 -99 -59 -160.5t-155 -61.5zM312 90q46 0 75 31.5t29 80.5v91q0 50 -29 81
t-75 31q-48 0 -77.5 -31t-29.5 -81v-91q0 -49 29.5 -80.5t77.5 -31.5zM311 515q48 0 76.5 31t28.5 81v71q0 50 -29 81t-75 31q-48 0 -77.5 -31t-29.5 -81v-71q0 -52 29.5 -82t76.5 -30z" />
    <glyph glyph-name="eight.numr" horiz-adv-x="621" 
d="M312 580q-98 0 -157.5 61.5t-59.5 160.5v91q0 56 19 98t51 69q-70 57 -70 167v71q0 99 59.5 160.5t157.5 61.5q96 0 155 -61.5t59 -160.5v-71q0 -110 -70 -167q32 -27 51 -69t19 -98v-91q0 -99 -59 -160.5t-155 -61.5zM312 690q46 0 75 31.5t29 80.5v91q0 50 -29 81
t-75 31q-48 0 -77.5 -31t-29.5 -81v-91q0 -49 29.5 -80.5t77.5 -31.5zM311 1115q48 0 76.5 31t28.5 81v71q0 50 -29 81t-75 31q-48 0 -77.5 -31t-29.5 -81v-71q0 -52 29.5 -82t76.5 -30z" />
    <glyph glyph-name="eight.tf" horiz-adv-x="960" 
d="M480 -32q-158 0 -255 102t-97 268v133q0 111 43.5 193t119.5 128l1 -50q-73 42 -118.5 123.5t-45.5 195.5v101q0 167 97 268.5t255 101.5q159 0 255.5 -101.5t96.5 -268.5v-101q0 -114 -45 -195.5t-119 -123.5l2 50q78 -47 120 -130t42 -191v-133q0 -166 -96.5 -268
t-255.5 -102zM480 118q91 0 146.5 60.5t55.5 159.5v133q0 99 -55.5 159.5t-146.5 60.5t-146.5 -60.5t-55.5 -159.5v-133q0 -99 55.5 -159.5t146.5 -60.5zM480 841q91 0 146.5 60.5t55.5 159.5v101q0 99 -55.5 159.5t-146.5 60.5t-146.5 -60.5t-55.5 -159.5v-101
q0 -99 55.5 -159.5t146.5 -60.5z" />
    <glyph glyph-name="five.dnom" horiz-adv-x="614" 
d="M321 -20q-97 0 -156.5 61.5t-59.5 160.5v35h110v-35q0 -49 29.5 -80.5t76.5 -31.5t76 31.5t29 80.5v174q0 51 -29.5 81.5t-78.5 30.5t-76 -30t-27 -80v-13h-110v535h415v-110h-305v-237q39 45 113 45q91 0 149.5 -60.5t58.5 -161.5v-174q0 -99 -59 -160.5t-156 -61.5z
" />
    <glyph glyph-name="five.numr" horiz-adv-x="614" 
d="M321 580q-97 0 -156.5 61.5t-59.5 160.5v35h110v-35q0 -49 29.5 -80.5t76.5 -31.5t76 31.5t29 80.5v174q0 51 -29.5 81.5t-78.5 30.5t-76 -30t-27 -80v-13h-110v535h415v-110h-305v-237q39 45 113 45q91 0 149.5 -60.5t58.5 -161.5v-174q0 -99 -59 -160.5t-156 -61.5z
" />
    <glyph glyph-name="five.tf" horiz-adv-x="960" 
d="M499 -32q-158 0 -255.5 102t-97.5 268v50h150v-50q0 -99 56 -159.5t147 -60.5q93 0 148.5 60.5t55.5 159.5v294q0 99 -57 159.5t-151 60.5q-93 0 -146 -60t-53 -159v-21h-150v888h692v-150h-610l68 68v-579l-26 34q37 63 96 96t142 33q101 0 178.5 -46t122 -129.5
t44.5 -194.5v-294q0 -166 -97 -268t-257 -102z" />
    <glyph glyph-name="four.dnom" horiz-adv-x="587" 
d="M343 0v184h-326v100l331 616h105v-605h79v-111h-79v-184h-110zM132 295h211v400z" />
    <glyph glyph-name="four.numr" horiz-adv-x="587" 
d="M343 600v184h-326v100l331 616h105v-605h79v-111h-79v-184h-110zM132 895h211v400z" />
    <glyph glyph-name="four.tf" horiz-adv-x="960" 
d="M614 0v327h-563v139l562 1034h151v-1025h139v-148h-139v-327h-150zM175 415l-36 60h475v757z" />
    <glyph glyph-name="grave.case" horiz-adv-x="418" 
d="M263 1216l-176 344h153l135 -344h-112z" />
    <glyph glyph-name="hungarumlaut.case" horiz-adv-x="705" 
d="M103 1216l135 344h153l-176 -344h-112zM390 1216l136 344h153l-177 -344h-112z" />
    <glyph glyph-name="longs_t" horiz-adv-x="1219" 
d="M212 0v948h-201v137h201v72q0 107 42.5 189t120 128t181.5 46h76v-145h-76q-91 0 -145 -60t-54 -158v-1157h-145zM1103 -12q-155 0 -248.5 98.5t-93.5 264.5v599h-195v137h195v273h145v-273h270v-137h-270v-599q0 -99 54 -158.5t143 -59.5h73v-145h-73z" />
    <glyph glyph-name="macron.case" horiz-adv-x="720" 
d="M149 1500h436v-115h-436v115z" />
    <glyph glyph-name="nine.dnom" horiz-adv-x="624" 
d="M307 -20q-97 0 -156.5 61.5t-59.5 160.5v35h110v-35q0 -49 29.5 -80.5t76.5 -31.5t76 31.5t29 80.5v146q-40 -46 -114 -46q-90 0 -148.5 61t-58.5 161v174q0 99 59.5 160.5t156.5 61.5t156 -61.5t59 -160.5v-496q0 -99 -59 -160.5t-156 -61.5zM308 412q49 0 76.5 31
t27.5 80v175q0 50 -29 81t-76 31t-76.5 -31t-29.5 -81v-174q0 -50 29.5 -81t77.5 -31z" />
    <glyph glyph-name="nine.numr" horiz-adv-x="624" 
d="M307 580q-97 0 -156.5 61.5t-59.5 160.5v35h110v-35q0 -49 29.5 -80.5t76.5 -31.5t76 31.5t29 80.5v146q-40 -46 -114 -46q-90 0 -148.5 61t-58.5 161v174q0 99 59.5 160.5t156.5 61.5t156 -61.5t59 -160.5v-496q0 -99 -59 -160.5t-156 -61.5zM308 1012q49 0 76.5 31
t27.5 80v175q0 50 -29 81t-76 31t-76.5 -31t-29.5 -81v-174q0 -50 29.5 -81t77.5 -31z" />
    <glyph glyph-name="nine.tf" horiz-adv-x="960" 
d="M472 -32q-158 0 -254 102t-96 268v50h150v-50q0 -99 54.5 -159.5t145.5 -60.5q90 0 144.5 60.5t54.5 159.5v323l27 -34q-35 -61 -94.5 -94.5t-141.5 -33.5q-100 0 -176.5 46.5t-120 129.5t-43.5 194v293q0 167 96 268.5t254 101.5q157 0 253 -101.5t96 -268.5v-824
q0 -166 -96 -268t-253 -102zM476 649q91 0 143 59.5t52 158.5v295q0 99 -54.5 159.5t-144.5 60.5q-91 0 -145.5 -60.5t-54.5 -159.5v-293q0 -99 56 -159.5t148 -60.5z" />
    <glyph glyph-name="one.dnom" horiz-adv-x="381" 
d="M151 0v686h-127v110h27q47 0 73.5 24t26.5 66v14h110v-900h-110z" />
    <glyph glyph-name="one.numr" horiz-adv-x="381" 
d="M151 600v701h-127v110h27q47 0 73.5 24t26.5 66v14h110v-915h-110z" />
    <glyph glyph-name="one.tf" horiz-adv-x="960" 
d="M76 0v150h329v1028h-231v150h36q92 0 143.5 40t51.5 110v22h150v-1350h328v-150h-807z" />
    <glyph glyph-name="ring.case" horiz-adv-x="579" 
d="M322 1196q-75 0 -129 50t-54 131q0 83 54 133t127 50q74 0 128.5 -50t54.5 -132t-54 -132t-127 -50zM322 1294q31 0 57 23t26 61t-26.5 61.5t-57.5 23.5q-32 0 -58.5 -24t-26.5 -61q0 -38 26.5 -61t59.5 -23z" />
    <glyph glyph-name="seven.dnom" horiz-adv-x="454" 
d="M86 0l228 790h-309v110h422v-100l-225 -800h-116z" />
    <glyph glyph-name="seven.numr" horiz-adv-x="454" 
d="M86 600l228 790h-309v110h422v-100l-225 -800h-116z" />
    <glyph glyph-name="seven.tf" horiz-adv-x="960" 
d="M267 0l447 1415l47 -65h-678v150h774v-132l-430 -1368h-160z" />
    <glyph glyph-name="six.dnom" horiz-adv-x="624" 
d="M319 -20q-98 0 -157.5 61.5t-59.5 160.5v496q0 99 59.5 160.5t157.5 61.5q96 0 155 -61.5t59 -160.5v-35h-110v35q0 50 -29 81t-75 31q-48 0 -77.5 -31t-29.5 -81v-145q39 45 114 45q90 0 148.5 -60.5t58.5 -161.5v-174q0 -99 -59 -160.5t-155 -61.5zM319 90
q46 0 75 31.5t29 80.5v174q0 51 -29.5 81.5t-77.5 30.5q-49 0 -76.5 -30t-27.5 -80v-176q0 -49 29.5 -80.5t77.5 -31.5z" />
    <glyph glyph-name="six.numr" horiz-adv-x="624" 
d="M319 580q-98 0 -157.5 61.5t-59.5 160.5v496q0 99 59.5 160.5t157.5 61.5q96 0 155 -61.5t59 -160.5v-35h-110v35q0 50 -29 81t-75 31q-48 0 -77.5 -31t-29.5 -81v-145q39 45 114 45q90 0 148.5 -60.5t58.5 -161.5v-174q0 -99 -59 -160.5t-155 -61.5zM319 690
q46 0 75 31.5t29 80.5v174q0 51 -29.5 81.5t-77.5 30.5q-49 0 -76.5 -30t-27.5 -80v-176q0 -49 29.5 -80.5t77.5 -31.5z" />
    <glyph glyph-name="six.tf" horiz-adv-x="960" 
d="M490 -32q-158 0 -254.5 102t-96.5 268v824q0 167 96.5 268.5t254.5 101.5q157 0 253 -101.5t96 -268.5v-50h-150v50q0 99 -54.5 159.5t-144.5 60.5q-91 0 -146 -60.5t-55 -159.5v-323l-26 34q73 129 236 129q100 0 176.5 -46t120 -129.5t43.5 -194.5v-294
q0 -166 -96 -268t-253 -102zM490 118q90 0 144.5 60.5t54.5 159.5v294q0 99 -56 159.5t-149 60.5q-91 0 -143 -60t-52 -159v-295q0 -99 55 -159.5t146 -60.5z" />
    <glyph glyph-name="three.dnom" horiz-adv-x="584" 
d="M275 -20q-98 0 -157.5 61.5t-59.5 160.5v35h110v-35q0 -49 29.5 -80.5t77.5 -31.5q46 0 75 31.5t29 80.5v93q0 50 -29 81t-75 31h-79v110h79q46 0 75 30.5t29 81.5v69q0 50 -29 81t-75 31q-48 0 -77.5 -31t-29.5 -81v-35h-110v35q0 99 59.5 160.5t157.5 61.5
q96 0 155 -61.5t59 -160.5v-69q0 -51 -17 -95t-53 -73q31 -25 50.5 -67t19.5 -99v-93q0 -99 -59 -160.5t-155 -61.5z" />
    <glyph glyph-name="three.numr" horiz-adv-x="584" 
d="M275 580q-98 0 -157.5 61.5t-59.5 160.5v35h110v-35q0 -49 29.5 -80.5t77.5 -31.5q46 0 75 31.5t29 80.5v93q0 50 -29 81t-75 31h-79v110h79q46 0 75 30.5t29 81.5v69q0 50 -29 81t-75 31q-48 0 -77.5 -31t-29.5 -81v-35h-110v35q0 99 59.5 160.5t157.5 61.5
q96 0 155 -61.5t59 -160.5v-69q0 -51 -17 -95t-53 -73q31 -25 50.5 -67t19.5 -99v-93q0 -99 -59 -160.5t-155 -61.5z" />
    <glyph glyph-name="three.tf" horiz-adv-x="960" 
d="M457 -32q-163 0 -263 102t-100 268v50h150v-50q0 -99 59 -159.5t154 -60.5q96 0 154 60.5t58 159.5v134q0 99 -58 159.5t-154 60.5h-119v150h119q96 0 154 60.5t58 159.5v100q0 99 -58 159.5t-154 60.5q-95 0 -154 -60.5t-59 -159.5v-50h-150v50q0 167 100 268.5
t263 101.5t262.5 -101.5t99.5 -268.5v-100q0 -109 -44.5 -191.5t-126.5 -127.5l3 51q80 -46 124 -129.5t44 -192.5v-134q0 -166 -99.5 -268t-262.5 -102z" />
    <glyph glyph-name="tilde.case" horiz-adv-x="754" 
d="M523 1360q-40 0 -69.5 15t-52.5 31q-28 21 -50.5 37.5t-42.5 16.5t-30.5 -16.5t-10.5 -39.5v-34h-117v41q0 76 37 112.5t93 36.5q41 0 74 -16.5t55 -33.5q25 -19 45.5 -35t41.5 -16q23 0 32.5 19t9.5 40v40h116v-50q0 -76 -37 -112t-94 -36z" />
    <glyph glyph-name="two.dnom" horiz-adv-x="559" 
d="M61 0v97q0 81 32.5 141.5t80 106.5t95.5 86t80.5 81t32.5 92v94q0 50 -29 81t-78 31q-46 0 -75 -31t-29 -81v-35h-110v35q0 99 59.5 160.5t154.5 61.5q98 0 157.5 -61.5t59.5 -160.5v-94q0 -65 -32 -115.5t-79 -94.5t-94 -85t-79 -86.5t-32 -100.5v-12h316v-110h-431z
" />
    <glyph glyph-name="two.numr" horiz-adv-x="559" 
d="M61 600v97q0 81 32.5 141.5t80 106.5t95.5 86t80.5 81t32.5 92v94q0 50 -29 81t-78 31q-46 0 -75 -31t-29 -81v-35h-110v35q0 99 59.5 160.5t154.5 61.5q98 0 157.5 -61.5t59.5 -160.5v-94q0 -65 -32 -115.5t-79 -94.5t-94 -85t-79 -86.5t-32 -100.5v-12h316v-110h-431z
" />
    <glyph glyph-name="two.tf" horiz-adv-x="960" 
d="M106 0v126q0 112 42.5 201.5t110 164t142.5 139t142.5 126.5t110 127t42.5 140v138q0 99 -60.5 159.5t-159.5 60.5q-98 0 -159 -60.5t-61 -159.5v-50h-150v50q0 111 46.5 194.5t129.5 129.5t194 46t194 -46.5t129.5 -130t46.5 -193.5v-138q0 -88 -42.5 -164.5
t-109 -144.5t-140.5 -132.5t-140.5 -130t-108.5 -135t-42 -149.5v-86l-68 68h651v-150h-740z" />
    <glyph glyph-name="y.ss02" horiz-adv-x="930" 
d="M443 -366q-152 0 -246 97.5t-94 256.5v26h145v-31q0 -91 52.5 -147.5t143.5 -56.5q90 0 144.5 56.5t54.5 147.5v298l24 -32q-36 -63 -97.5 -98t-147.5 -35q-89 0 -160.5 39.5t-113.5 117.5t-42 191v621h145v-621q0 -91 52.5 -147t145.5 -56q92 0 143 55.5t51 146.5v622
h145v-1098q0 -106 -44 -185.5t-121.5 -123.5t-179.5 -44z" />
    <glyph glyph-name="yacute.ss02" horiz-adv-x="930" 
d="M443 -366q-152 0 -246 97.5t-94 256.5v26h145v-31q0 -91 52.5 -147.5t143.5 -56.5q90 0 144.5 56.5t54.5 147.5v298l24 -32q-36 -63 -97.5 -98t-147.5 -35q-89 0 -160.5 39.5t-113.5 117.5t-42 191v621h145v-621q0 -91 52.5 -147t145.5 -56q92 0 143 55.5t51 146.5v622
h145v-1098q0 -106 -44 -185.5t-121.5 -123.5t-179.5 -44zM389 1216l135 344h153l-176 -344h-112z" />
    <glyph glyph-name="ycircumflex.ss02" horiz-adv-x="930" 
d="M443 -366q-152 0 -246 97.5t-94 256.5v26h145v-31q0 -91 52.5 -147.5t143.5 -56.5q90 0 144.5 56.5t54.5 147.5v298l24 -32q-36 -63 -97.5 -98t-147.5 -35q-89 0 -160.5 39.5t-113.5 117.5t-42 191v621h145v-621q0 -91 52.5 -147t145.5 -56q92 0 143 55.5t51 146.5v622
h145v-1098q0 -106 -44 -185.5t-121.5 -123.5t-179.5 -44zM164 1270l222 290h120l223 -290h-146l-136 189l-137 -189h-146z" />
    <glyph glyph-name="ydieresis.ss02" horiz-adv-x="930" 
d="M443 -366q-152 0 -246 97.5t-94 256.5v26h145v-31q0 -91 52.5 -147.5t143.5 -56.5q90 0 144.5 56.5t54.5 147.5v298l24 -32q-36 -63 -97.5 -98t-147.5 -35q-89 0 -160.5 39.5t-113.5 117.5t-42 191v621h145v-621q0 -91 52.5 -147t145.5 -56q92 0 143 55.5t51 146.5v622
h145v-1098q0 -106 -44 -185.5t-121.5 -123.5t-179.5 -44zM248 1332v228h130v-228h-130zM524 1332v228h128v-228h-128z" />
    <glyph glyph-name="zero.dnom" horiz-adv-x="635" 
d="M319 -20q-98 0 -157.5 61.5t-59.5 160.5v496q0 99 59.5 160.5t157.5 61.5q96 0 155 -61.5t59 -160.5v-496q0 -99 -59 -160.5t-155 -61.5zM319 90q46 0 75 31.5t29 80.5v496q0 50 -29 81t-75 31q-48 0 -77.5 -31t-29.5 -81v-496q0 -49 29.5 -80.5t77.5 -31.5zM383 810h74
l-204 -720h-73z" />
    <glyph glyph-name="zero.numr" horiz-adv-x="635" 
d="M319 580q-98 0 -157.5 61.5t-59.5 160.5v496q0 99 59.5 160.5t157.5 61.5q96 0 155 -61.5t59 -160.5v-496q0 -99 -59 -160.5t-155 -61.5zM319 690q46 0 75 31.5t29 80.5v496q0 50 -29 81t-75 31q-48 0 -77.5 -31t-29.5 -81v-496q0 -49 29.5 -80.5t77.5 -31.5zM383 1410
h74l-204 -720h-73z" />
    <glyph glyph-name="zero.tf" horiz-adv-x="960" 
d="M480 -32q-156 0 -251 102t-95 268v824q0 167 95 268.5t251 101.5t251 -101.5t95 -268.5v-824q0 -166 -95 -268t-251 -102zM480 118q88 0 142.5 60.5t54.5 159.5v824q0 99 -54.5 159.5t-142.5 60.5q-89 0 -143 -60.5t-54 -159.5v-824q0 -99 54 -159.5t143 -60.5zM599 1382
h96l-334 -1264h-96z" />
    </font>
</defs>
</svg>
